<?xml version="1.0" encoding="UTF-8" standalone="no"?>
<svg
   width="16px"
   height="16px"
   version="1.1"
   viewBox="0 0 16 16"
   id="svg2"
   sodipodi:docname="auth-face-symbolic.svg"
   inkscape:version="1.4.2 (unknown)"
   xmlns:inkscape="http://www.inkscape.org/namespaces/inkscape"
   xmlns:sodipodi="http://sodipodi.sourceforge.net/DTD/sodipodi-0.dtd"
   xmlns="http://www.w3.org/2000/svg"
   xmlns:svg="http://www.w3.org/2000/svg">
  <defs
     id="defs2" />
  <sodipodi:namedview
     id="namedview2"
     pagecolor="#ffffff"
     bordercolor="#000000"
     borderopacity="0.25"
     inkscape:showpageshadow="2"
     inkscape:pageopacity="0.0"
     inkscape:pagecheckerboard="0"
     inkscape:deskcolor="#d1d1d1"
     inkscape:zoom="23.625"
     inkscape:cx="6.7089947"
     inkscape:cy="8.2962963"
     inkscape:current-layer="svg2" />
  <g
     id="g2"
     transform="translate(1.75e-6,0.43690605)">
    <path
       d="m 6.2857137,5.0083801 c -0.4720967,0 -0.8571428,0.3816942 -0.8571428,0.8571424 0,0.4720978 0.3850461,0.8571437 0.8571428,0.8571437 0.4720973,0 0.8571432,-0.3850459 0.8571432,-0.8571437 0,-0.4754482 -0.3850459,-0.8571424 -0.8571432,-0.8571424 z m 3.4285717,0 c -0.472097,0 -0.8571425,0.3816942 -0.8571425,0.8571424 0,0.4720978 0.3850455,0.8571437 0.8571425,0.8571437 0.4720956,0 0.8571486,-0.3850459 0.8571486,-0.8571437 0,-0.4754482 -0.385053,-0.8571424 -0.8571486,-0.8571424 z M 4.9363991,8.4269227 c -0.043525,0.00334 -0.087049,0.020095 -0.127234,0.040178 C 4.598231,8.5708924 4.5111709,8.8287033 4.614971,9.0396466 c 0,0 1.0145139,1.9519734 3.3850285,1.9519734 2.3705155,0 3.3850355,-1.9519734 3.3850355,-1.9519734 0.103792,-0.2109349 0.01673,-0.4687548 -0.194198,-0.5725464 -0.210932,-0.1071429 -0.468759,-0.020096 -0.5759,0.1908515 0,0 -0.6997804,1.4766003 -2.6149718,1.4766003 -1.9151915,0 -2.6149715,-1.4766003 -2.6149715,-1.4766003 C 5.301288,8.4905449 5.1204886,8.3967907 4.936331,8.4269284 Z"
       fill="#dedede"
       id="path1"
       style="stroke-width:0.99999;fill:#f2f2f2;fill-opacity:1" />
    <path
       d="m 3.7142848,1.5630939 c -1.4245705,0 -2.5714283,1.1468577 -2.5714283,2.5714285 V 5.8488083 H 1.9999994 V 4.1345224 c 0,-0.9497141 0.7645713,-1.7142862 1.7142854,-1.7142862 H 5.4285709 V 1.5630939 Z m 6.8571492,0 v 0.8571423 h 1.714283 c 0.949718,0 1.714281,0.7645721 1.714281,1.7142862 V 5.8488083 H 14.85714 V 4.1345224 c 0,-1.4245708 -1.14686,-2.5714285 -2.571423,-2.5714285 z M 1.1428565,9.2773805 v 1.7142915 c 0,1.424564 1.1468578,2.571422 2.5714283,2.571422 h 1.7142861 v -0.85714 H 3.7142848 c -0.9497141,0 -1.7142854,-0.764577 -1.7142854,-1.714282 V 9.2773805 Z m 12.8571415,0 v 1.7142915 c 0,0.949705 -0.764563,1.714282 -1.714281,1.714282 h -1.714283 v 0.85714 h 1.714283 c 1.424563,0 2.571423,-1.146858 2.571423,-2.571422 V 9.2773805 Z"
       fill="#dedede"
       id="path2"
       style="stroke-width:0.99999;fill:#f2f2f2;fill-opacity:1" />
  </g>
</svg>
