<?xml version="1.0" encoding="UTF-8" standalone="no"?>
<svg
   viewBox="0 0 21 21"
   width="21"
   height="21"
   version="1.1"
   id="svg1"
   sodipodi:docname="drive-harddisk-encrypted-symbolic.svg"
   inkscape:version="1.4.2 (unknown)"
   xmlns:inkscape="http://www.inkscape.org/namespaces/inkscape"
   xmlns:sodipodi="http://sodipodi.sourceforge.net/DTD/sodipodi-0.dtd"
   xmlns="http://www.w3.org/2000/svg"
   xmlns:svg="http://www.w3.org/2000/svg">
  <sodipodi:namedview
     id="namedview1"
     pagecolor="#ffffff"
     bordercolor="#000000"
     borderopacity="0.25"
     inkscape:showpageshadow="2"
     inkscape:pageopacity="0.0"
     inkscape:pagecheckerboard="0"
     inkscape:deskcolor="#d1d1d1"
     inkscape:zoom="31.5"
     inkscape:cx="12"
     inkscape:cy="12"
     inkscape:current-layer="svg1" />
  <defs
     id="defs3051">
    <style
       type="text/css"
       id="current-color-scheme">.ColorScheme-Text {color:#eff0f1;}</style>
  </defs>
  <g
     transform="translate(-0.5,-0.5)"
     id="g1">
    <path
       style="fill:currentColor;fill-opacity:1"
       d="M 8.5566406,3 C 6.5863838,3 5,4.5863838 5,6.5566406 V 12 15.443359 17 c 0,0 0,2 2,2 2,0 6,0 8,0 2,0 2,-2 2,-2 V 15.443359 12 6.5566406 C 17,4.5863838 15.413616,3 13.443359,3 Z M 9,4 h 4 c 1.656854,0 3,1.3431458 3,3 V 9.0878906 C 15.401408,9.2995242 15.000891,9.8650979 15,10.5 c 8.91e-4,0.634902 0.401408,1.200475 1,1.412109 V 14 l -2,2 H 8 L 6,14 V 11.912109 C 6.5985921,11.700475 6.999109,11.134902 7,10.5 6.9991092,9.8650979 6.5985922,9.2995242 6,9.0878906 V 7 C 6,5.3431458 7.3431458,4 9,4 Z m 2,2 C 9.8954305,6 9,6.8954305 9,8 v 2 c 0,0 -1,0 -1,1 0,1 0,1 0,2 0,1 1,1 1,1 h 4 c 0,0 1,0 1,-1 0,-1 0,-1 0,-2 0,-1 -1,-1 -1,-1 V 8 C 13,6.8954305 12.104569,6 11,6 Z m 0,1 c 0.552285,0 1,0.4477153 1,1 v 2 H 10 V 8 C 10,7.4477153 10.447715,7 11,7 Z M 7,17 h 4 v 1 H 7 Z m 6,0 h 2 v 1 h -2 z"
       class="ColorScheme-Text"
       id="path1" />
  </g>
</svg>
