<?xml version="1.0" encoding="UTF-8" standalone="no"?>
<svg
   height="22"
   width="22"
   version="1.1"
   id="svg2"
   sodipodi:docname="input-gamepad-symbolic.svg"
   inkscape:version="1.4.2 (unknown)"
   xmlns:inkscape="http://www.inkscape.org/namespaces/inkscape"
   xmlns:sodipodi="http://sodipodi.sourceforge.net/DTD/sodipodi-0.dtd"
   xmlns="http://www.w3.org/2000/svg"
   xmlns:svg="http://www.w3.org/2000/svg">
  <defs
     id="defs2" />
  <sodipodi:namedview
     id="namedview2"
     pagecolor="#ffffff"
     bordercolor="#000000"
     borderopacity="0.25"
     inkscape:showpageshadow="2"
     inkscape:pageopacity="0.0"
     inkscape:pagecheckerboard="0"
     inkscape:deskcolor="#d1d1d1"
     inkscape:zoom="23.625"
     inkscape:cx="14.603175"
     inkscape:cy="11.513228"
     inkscape:current-layer="svg2" />
  <style
     type="text/css"
     id="current-color-scheme">
    .ColorScheme-Text {
        color:#eff0f1;
    }
    </style>
  <g
     fill="currentColor"
     class="ColorScheme-Text"
     id="g2"
     transform="matrix(1.5,0,0,1.5,-1,-0.99975985)"
     style="stroke-width:0.66667">
    <path
       d="M 5,6 V 7 H 4 V 8 H 5 V 9 H 6 V 8 H 7 V 7 H 6 V 6 Z M 10.5,5.9 A 0.6,0.6 0 0 0 9.9,6.5 0.6,0.6 0 0 0 10.5,7.1 0.6,0.6 0 0 0 11.1,6.5 0.6,0.6 0 0 0 10.5,5.9 Z m -1,1 A 0.6,0.6 0 0 0 8.9,7.5 0.6,0.6 0 0 0 9.5,8.1 0.6,0.6 0 0 0 10.1,7.5 0.6,0.6 0 0 0 9.5,6.9 Z m 2,0 a 0.6,0.6 0 0 0 -0.6,0.6 0.6,0.6 0 0 0 0.6,0.6 0.6,0.6 0 0 0 0.6,-0.6 0.6,0.6 0 0 0 -0.6,-0.6 z m -1,1 A 0.6,0.6 0 0 0 9.9,8.5 0.6,0.6 0 0 0 10.5,9.1 0.6,0.6 0 0 0 11.1,8.5 0.6,0.6 0 0 0 10.5,7.9 Z"
       id="path1"
       style="stroke-width:0.66667" />
    <path
       d="M 4,4 A 2,4 0 0 0 2,8 v 2.5 a 1.5,1.5 0 0 0 2.56,1.06 L 5.504,10.617 A 1.5,1.5 0 0 0 6.5,11 1.5,1.5 0 0 0 8,9.5 a 1.5,1.5 0 0 0 2.498,1.12 l 0.941,0.94 A 1.5,1.5 0 0 0 14,10.5 V 8 A 2,4 0 0 0 12,4 Z m 0,1 h 8 a 1,3 0 0 1 1,3 v 2.5 a 0.5,0.5 0 0 1 -0.854,0.354 L 10.293,9 H 10 v 0.5 a 0.5,0.5 0 0 1 -1,0 V 9 H 7 v 0.5 a 0.5,0.5 0 0 1 -1,0 V 9 H 5.707 L 3.854,10.854 A 0.5,0.5 0 0 1 3,10.5 V 8 A 1,3 0 0 1 4,5 Z"
       id="path2"
       style="stroke-width:0.66667" />
  </g>
</svg>
