<?xml version="1.0" encoding="UTF-8" standalone="no"?>
<svg
   viewBox="0 0 22 22"
   width="22"
   height="22"
   version="1.1"
   id="svg1"
   sodipodi:docname="laptop-symbolic.svg"
   inkscape:version="1.4.2 (unknown)"
   xmlns:inkscape="http://www.inkscape.org/namespaces/inkscape"
   xmlns:sodipodi="http://sodipodi.sourceforge.net/DTD/sodipodi-0.dtd"
   xmlns="http://www.w3.org/2000/svg"
   xmlns:svg="http://www.w3.org/2000/svg">
  <sodipodi:namedview
     id="namedview1"
     pagecolor="#ffffff"
     bordercolor="#000000"
     borderopacity="0.25"
     inkscape:showpageshadow="2"
     inkscape:pageopacity="0.0"
     inkscape:pagecheckerboard="0"
     inkscape:deskcolor="#d1d1d1"
     inkscape:zoom="31.5"
     inkscape:cx="12"
     inkscape:cy="12"
     inkscape:current-layer="svg1" />
  <defs
     id="defs3051">
    <style
       type="text/css"
       id="current-color-scheme">
      .ColorScheme-Text {
        color:#eff0f1;
      }
      </style>
  </defs>
  <g
     transform="matrix(1.1428571,0,0,1.1428571,-1.5714281,-1.5714281)"
     id="g1"
     style="stroke-width:0.875">
    <path
       style="fill:currentColor;fill-opacity:1;stroke:none;stroke-width:0.875"
       d="M 6,4 C 4.338,4 3,5.338 3,7 v 4 2 3 H 2 v 1 c 0,0.554 0.446,1 1,1 h 16 c 0.554,0 1,-0.446 1,-1 V 16 H 19 V 13 11 7 C 19,5.338 17.662,4 16,4 Z m 0,1 h 10 c 1.108,0 2,0.892 2,2 v 4 2 2 H 16 6 4 V 13 11 7 C 4,5.892 4.892,5 6,5 Z"
       id="rect4211-3"
       class="ColorScheme-Text" />
  </g>
</svg>
