<?xml version="1.0" encoding="UTF-8" standalone="no"?>
<svg
   viewBox="0 0 22 22"
   version="1.1"
   id="svg1"
   sodipodi:docname="document-save.svg"
   width="22"
   height="22"
   inkscape:version="1.4.2 (unknown)"
   xmlns:inkscape="http://www.inkscape.org/namespaces/inkscape"
   xmlns:sodipodi="http://sodipodi.sourceforge.net/DTD/sodipodi-0.dtd"
   xmlns="http://www.w3.org/2000/svg"
   xmlns:svg="http://www.w3.org/2000/svg">
  <sodipodi:namedview
     id="namedview1"
     pagecolor="#ffffff"
     bordercolor="#000000"
     borderopacity="0.25"
     inkscape:showpageshadow="2"
     inkscape:pageopacity="0.0"
     inkscape:pagecheckerboard="0"
     inkscape:deskcolor="#d1d1d1"
     inkscape:zoom="23.625"
     inkscape:cx="7.1322751"
     inkscape:cy="7.4920635"
     inkscape:current-layer="svg1" />
  <defs
     id="defs3051">
    <style
       type="text/css"
       id="current-color-scheme">.ColorScheme-Text {color:#fcfcfc;}</style>
  </defs>
  <path
     style="fill:currentColor;fill-opacity:1;stroke:none;stroke-width:1"
     d="m 3.0000015,5.6666661 c 0,2.6666662 0,7.9999939 0,10.6666699 C 3.0000015,19 5.6666677,19 5.6666677,19 h 7.9999943 1.333339 1.333335 c 0,0 2.666666,0 2.666666,-2.666664 0,-2.666676 0,-10.2916699 0,-10.2916699 L 15.958328,3 H 15.91666 14.999992 5.666659 c 0,0 -2.6666665,0 -2.6666605,2.6666661 z m 1.3333332,0 c 0,-1.333333 1.333333,-1.333333 1.333333,-1.333333 h 1.333333 V 8.3333323 9.6666659 H 15.000001 V 8.3333323 4.3333332 h 0.374998 l 2.291662,2.2916663 v 0.375 c 0,0 0,7.9999995 0,9.3333365 0,1.333323 -1.333325,1.333323 -1.333325,1.333323 V 12.333336 H 15.000001 7.0000007 5.6250011 v 5.333323 c 0,0 -1.2916664,0 -1.2916664,-1.333323 0,-1.333337 0,-9.3333366 0,-10.6666699 z M 8.3333338,4.3333332 H 10.874998 V 8.3333323 H 8.3333338 Z M 7.0000007,13.66666 h 1.3333331 5.3333282 1.333339 v 3.999999 H 13.666662 8.3333338 7.0000007 Z"
     class="ColorScheme-Text"
     id="path1" />
</svg>
