<?xml version="1.0" encoding="UTF-8" standalone="no"?>
<svg
   version="1.1"
   viewBox="0 0 22 22"
   id="svg1"
   sodipodi:docname="network-server-symbolic.svg"
   width="22"
   height="22"
   inkscape:version="1.4.2 (unknown)"
   xmlns:inkscape="http://www.inkscape.org/namespaces/inkscape"
   xmlns:sodipodi="http://sodipodi.sourceforge.net/DTD/sodipodi-0.dtd"
   xmlns="http://www.w3.org/2000/svg"
   xmlns:svg="http://www.w3.org/2000/svg">
  <sodipodi:namedview
     id="namedview1"
     pagecolor="#ffffff"
     bordercolor="#000000"
     borderopacity="0.25"
     inkscape:showpageshadow="2"
     inkscape:pageopacity="0.0"
     inkscape:pagecheckerboard="0"
     inkscape:deskcolor="#d1d1d1"
     inkscape:zoom="23.625"
     inkscape:cx="9.3333333"
     inkscape:cy="10.074074"
     inkscape:current-layer="svg1" />
  <defs
     id="defs1">
    <style
       id="current-color-scheme"
       type="text/css">.ColorScheme-Text { color:#d3dae3; } .ColorScheme-Highlight { color:#5294e2; }</style>
  </defs>
  <path
     class="ColorScheme-Text"
     d="m 4.5714285,2.9999999 c -0.5935715,0 -1.0714286,0.4757333 -1.0714286,1.0666666 v 3.199999 c 0,0.5909333 0.4778571,1.0666666 1.0714286,1.0666666 H 17.428569 C 18.02214,8.3333321 18.5,7.8575988 18.5,7.2666655 v -3.199999 c 0,-0.5909333 -0.47786,-1.0666666 -1.071431,-1.0666666 z m 0,1.0666666 H 17.428569 v 3.199999 H 4.5714285 Z M 10.999999,5.133333 v 1.0666663 h 1.071429 V 5.133333 Z m 2.142858,0 v 1.0666663 h 1.071426 V 5.133333 Z m 2.142856,0 v 1.0666663 h 1.071428 V 5.133333 Z M 4.5714285,9.3999987 c -0.5935715,0 -1.0714286,0.4757332 -1.0714286,1.0666663 v 3.199999 c 0,0.590933 0.4778571,1.066667 1.0714286,1.066667 H 17.428569 c 0.593571,0 1.071431,-0.475734 1.071431,-1.066667 v -3.199999 c 0,-0.5909331 -0.47786,-1.0666663 -1.071431,-1.0666663 z m 0,1.0666663 H 17.428569 v 3.199999 H 4.5714285 Z m 6.4285705,1.066666 v 1.066668 h 1.071429 v -1.066668 z m 2.142858,0 v 1.066668 h 1.071426 v -1.066668 z m 2.142856,0 v 1.066668 h 1.071428 V 11.533331 Z M 4.0357142,15.799997 c -0.2967856,0 -0.5357143,0.237866 -0.5357143,0.533335 0,0.295464 0.2389287,0.533331 0.5357143,0.533331 H 5.642857 v 1.6 c 0,0.295468 0.2389284,0.533334 0.535714,0.533334 0.0742,0 0.1451251,-0.01473 0.2092609,-0.04166 0.1924069,-0.08074 0.3264533,-0.270071 0.3264533,-0.491671 v -1.6 h 8.5714278 v 1.6 c 0,0.295468 0.238928,0.533334 0.535714,0.533334 0.296787,0 0.535714,-0.237866 0.535714,-0.533334 v -1.6 h 1.607141 c 0.296787,0 0.535718,-0.237867 0.535718,-0.533331 0,-0.29547 -0.238931,-0.533336 -0.535718,-0.533336 z"
     fill="currentColor"
     id="path1"
     style="stroke-width:1" />
</svg>
