<?xml version="1.0" encoding="UTF-8" standalone="no"?>
<svg
   width="22"
   height="22"
   version="1.1"
   id="svg2"
   sodipodi:docname="sim-card-symbolic.svg"
   inkscape:version="1.4.2 (unknown)"
   xmlns:inkscape="http://www.inkscape.org/namespaces/inkscape"
   xmlns:sodipodi="http://sodipodi.sourceforge.net/DTD/sodipodi-0.dtd"
   xmlns="http://www.w3.org/2000/svg"
   xmlns:svg="http://www.w3.org/2000/svg">
  <defs
     id="defs2" />
  <sodipodi:namedview
     id="namedview2"
     pagecolor="#ffffff"
     bordercolor="#000000"
     borderopacity="0.25"
     inkscape:showpageshadow="2"
     inkscape:pageopacity="0.0"
     inkscape:pagecheckerboard="0"
     inkscape:deskcolor="#d1d1d1"
     inkscape:zoom="23.625"
     inkscape:cx="7.2804233"
     inkscape:cy="8.2116402"
     inkscape:current-layer="svg2" />
  <g
     id="g2"
     transform="matrix(1.3333333,0,0,1.3333333,0.3333336,0.3333336)"
     style="stroke-width:0.75">
    <path
       d="m 11,10 v 1 c 0,1 -1,1 -1,1 H 9 V 10 Z M 11,5 V 6 H 9 V 4 h 1 c 0,0 1,0 1,1 z m 0,2 V 9 H 9 V 7 Z M 8,4 v 8 H 6 V 4 Z m -3,6 v 2 H 4 C 3,12 3,11 3,11 V 10 Z M 5,4 V 6 H 3 V 5 C 3,4 4,4 4,4 Z M 5,7 V 9 H 3 V 7 Z"
       fill="#dedede"
       id="path1"
       style="fill:#f2f2f2;fill-opacity:1;stroke-width:0.75" />
    <path
       d="m 15,10 -4,4 H 3 C 1.892,14 1,13.108 1,12 V 4 C 1,2.892 1.892,2 3,2 h 10 c 1.108,0 2,0.892 2,2 z M 14,9.58594 v -5.5859 c 0,-0.554 -0.446,-1 -1,-1 H 3 c -0.554,0 -1,0.446 -1,1 v 8 c 0,0.554 0.446,1 1,1 h 7.5859 z"
       fill="#dedede"
       id="path2"
       style="fill:#f2f2f2;fill-opacity:1;stroke-width:0.75" />
  </g>
</svg>
