<?xml version="1.0" encoding="UTF-8" standalone="no"?>
<svg
   width="16"
   height="16"
   version="1.1"
   id="svg2"
   sodipodi:docname="ca.desrt.dconf-editor.small-rows-symbolic.svg"
   inkscape:version="1.4.2 (unknown)"
   xmlns:inkscape="http://www.inkscape.org/namespaces/inkscape"
   xmlns:sodipodi="http://sodipodi.sourceforge.net/DTD/sodipodi-0.dtd"
   xmlns="http://www.w3.org/2000/svg"
   xmlns:svg="http://www.w3.org/2000/svg">
  <defs
     id="defs2" />
  <sodipodi:namedview
     id="namedview2"
     pagecolor="#ffffff"
     bordercolor="#000000"
     borderopacity="0.25"
     inkscape:showpageshadow="2"
     inkscape:pageopacity="0.0"
     inkscape:pagecheckerboard="0"
     inkscape:deskcolor="#d1d1d1"
     inkscape:zoom="47.3125"
     inkscape:cx="8"
     inkscape:cy="8"
     inkscape:current-layer="svg2" />
  <path
     d="m7.877 7.0005c-0.020617-0.00258-0.040004-0.015631-0.060547-0.019531-0.070874-0.013414-0.13473-0.040004-0.20117-0.068359-0.037999-0.01609-0.078543-0.017879-0.11523-0.039063l-5.1973-3c-0.47978-0.277-0.64223-0.88546-0.36523-1.3652s0.88546-0.64419 1.3652-0.36719l4.6973 2.7109 4.6973-2.7109c0.47978-0.277 1.0882-0.11259 1.3652 0.36719 0.277 0.47978 0.11454 1.0882-0.36523 1.3652l-5.1973 3c-0.036691 0.021184-0.077235 0.022973-0.11523 0.039062-0.066443 0.028355-0.1303 0.054945-0.20117 0.068359-0.062033 0.011776-0.12143 0.011802-0.18359 0.011719-0.04158 5.58e-5 -0.081407 0.01303-0.12305 0.00781z"
     fill="#aaaaaa"
     id="path1"
     style="fill:#f2f2f2;fill-opacity:1" />
  <path
     d="m7.877 9.0061c-0.020617 0.0026-0.040004 0.01563-0.060547 0.01953-0.070874 0.01341-0.13473 0.04-0.20117 0.06836-0.037999 0.01609-0.078543 0.01788-0.11523 0.03906l-5.1973 3c-0.47978 0.277-0.64223 0.88546-0.36523 1.3652s0.88546 0.64419 1.3652 0.36719l4.6973-2.7109 4.6973 2.7109c0.47978 0.277 1.0882 0.11259 1.3652-0.36719s0.11454-1.0882-0.36523-1.3652l-5.1973-3c-0.036691-0.02118-0.077235-0.02297-0.11523-0.03906-0.066443-0.02836-0.1303-0.05495-0.20117-0.06836-0.062033-0.01178-0.12143-0.0118-0.18359-0.01172-0.04158-5.6e-5 -0.081407-0.01303-0.12305-0.0078z"
     fill="#aaaaaa"
     id="path2"
     style="fill:#f1f1f1;fill-opacity:1" />
</svg>
