<?xml version="1.0" encoding="UTF-8" standalone="no"?>
<svg
   width="16"
   height="16"
   version="1.1"
   id="svg2"
   sodipodi:docname="calendar-go-today-symbolic.svg"
   inkscape:version="1.4.2 (unknown)"
   xmlns:inkscape="http://www.inkscape.org/namespaces/inkscape"
   xmlns:sodipodi="http://sodipodi.sourceforge.net/DTD/sodipodi-0.dtd"
   xmlns="http://www.w3.org/2000/svg"
   xmlns:svg="http://www.w3.org/2000/svg">
  <defs
     id="defs2" />
  <sodipodi:namedview
     id="namedview2"
     pagecolor="#ffffff"
     bordercolor="#000000"
     borderopacity="0.25"
     inkscape:showpageshadow="2"
     inkscape:pageopacity="0.0"
     inkscape:pagecheckerboard="0"
     inkscape:deskcolor="#d1d1d1"
     inkscape:zoom="23.65625"
     inkscape:cx="8.2219287"
     inkscape:cy="5.6433289"
     inkscape:current-layer="svg2" />
  <g
     id="g2"
     transform="matrix(0.92857149,0,0,0.92857149,1.1074744,1.5)"
     style="stroke-width:1.07693">
    <path
       d="M 5.6528397,0 4.7195065,0.23333329 v 0.7 h 0.9333332 z m 0,0.93333329 V 1.866667 H 4.7195065 V 0.93333329 h -0.00546 C 3.5389713,0.94639996 2.6797069,0.90604788 1.9778399,1.2924475 1.626907,1.4865816 1.3479861,1.8142248 1.1939861,2.2239584 1.0409193,2.6327584 0.98617329,3.1201328 0.98617329,3.7333329 v 2.8 H 1.9195069 c 0,0 0.058016,-0.9385831 0.1494792,-1.18125 C 2.1595191,5.1094165 2.2591229,5.0061374 2.4299229,4.9109375 2.7724569,4.7224038 3.5452423,4.679733 4.7249752,4.6666667 H 10.31951 c 1.176,0.01307 1.947978,0.056669 2.289578,0.2442708 0.1708,0.0952 0.270405,0.198479 0.360935,0.4411454 0.0915,0.2426669 0.147664,1.18125 0.147664,1.18125 V 11.2 c 0,0.552529 -0.0562,0.938585 -0.147664,1.181248 -0.0905,0.242666 -0.190135,0.346883 -0.360935,0.441144 -0.3416,0.188539 -1.114519,0.230278 -2.289578,0.244278 H 4.7195065 C 3.5435068,13.05267 2.7724569,13.010931 2.4299229,12.822392 2.2591229,12.728131 2.1595191,12.623914 2.0689861,12.381248 1.9775192,12.138585 1.9195069,11.752529 1.9195069,11.2 V 10.26667 H 0.98617329 V 11.2 c 0,0.613199 0.0547455,1.099637 0.20781281,1.509378 0.1540001,0.409729 0.4329209,0.735553 0.7838538,0.929682 0.7028,0.387333 1.5620645,0.346939 2.7361976,0.360939 h 5.6109415 c 1.17413,-0.014 2.03339,0.02638 2.73619,-0.360939 0.363601,-0.206247 0.641102,-0.536134 0.782031,-0.929682 0.154,-0.409742 0.209639,-0.924179 0.209639,-1.509378 V 3.7333329 c 0,-0.614133 -0.05562,-1.1005745 -0.209639,-1.5093745 -0.141277,-0.3938079 -0.418627,-0.7241719 -0.782031,-0.9315109 -0.7028,-0.38826629 -1.56206,-0.34511428 -2.73619,-0.35911421 h -0.0058 V 1.866667 H 9.3861728 V 0.93333329 Z m 3.7333331,0 H 10.31951 V 0 L 9.3861728,0.23333329 Z"
       style="fill:#dcdcdc;stroke-width:1.07693"
       id="path1" />
    <path
       d="m 5.0572327,5.6326664 c -0.2492,-0.01213 -0.5217331,0.1754665 -0.5291999,0.4339999 V 7.4666662 H 1.2613668 C 1.0077047,7.4762462 0.80428509,7.6796754 0.79469975,7.9333328 v 0.9333331 c -0.0028,0.02918 -0.0028,0.05856 0,0.08773 0.0410667,0.213734 0.24920005,0.3826676 0.46666705,0.378934 h 3.266666 v 1.3999991 c 0.01027,0.3444 0.4890668,0.5656 0.7587999,0.35 l 2.8,-2.3333307 c 0.197708,-0.191451 0.197708,-0.5085489 0,-0.6999999 l -2.8,-2.3333331 c -0.06552,-0.051874 -0.146048,-0.08132 -0.2296,-0.083999 z"
       overflow="visible"
       style="fill:#dcdcdc;stroke-width:1.07693"
       id="path2" />
  </g>
</svg>
