<?xml version="1.0" encoding="UTF-8" standalone="no"?>
<svg
   width="16px"
   height="16px"
   version="1.1"
   viewBox="0 0 16 16"
   id="svg2"
   sodipodi:docname="dark-mode-symbolic.svg"
   inkscape:version="1.4.2 (unknown)"
   xmlns:inkscape="http://www.inkscape.org/namespaces/inkscape"
   xmlns:sodipodi="http://sodipodi.sourceforge.net/DTD/sodipodi-0.dtd"
   xmlns="http://www.w3.org/2000/svg"
   xmlns:svg="http://www.w3.org/2000/svg">
  <defs
     id="defs2" />
  <sodipodi:namedview
     id="namedview2"
     pagecolor="#ffffff"
     bordercolor="#000000"
     borderopacity="0.25"
     inkscape:showpageshadow="2"
     inkscape:pageopacity="0.0"
     inkscape:pagecheckerboard="0"
     inkscape:deskcolor="#d1d1d1"
     inkscape:zoom="33.410795"
     inkscape:cx="12.0919"
     inkscape:cy="7.9614986"
     inkscape:current-layer="svg2" />
  <g
     id="g2">
    <path
       d="M 8,1 A 7,7 0 0 0 1,8 7,7 0 0 0 8,15 7,7 0 0 0 15,8 7,7 0 0 0 8,1 Z M 8,1.875 A 6.125,6.125 0 0 1 14.125,8 6.125,6.125 0 0 1 8,14.125 6.125,6.125 0 0 1 1.875,8 6.125,6.125 0 0 1 8,1.875 Z"
       fill="#dedede"
       fill-rule="evenodd"
       stop-color="#000000"
       id="path1"
       style="stroke-width:0.999987" />
    <path
       d="M 8,2.75 A 5.25,5.25 0 0 0 2.75,8 5.25,5.25 0 0 0 8,13.25 Z"
       fill="#dedede"
       stroke-linecap="round"
       stroke-linejoin="round"
       stroke-width="2"
       id="path2" />
  </g>
</svg>
