<?xml version="1.0" encoding="UTF-8" standalone="no"?>
<svg
   width="16px"
   height="16px"
   version="1.1"
   viewBox="0 0 16 16"
   id="svg2"
   sodipodi:docname="device-security-symbolic.svg"
   inkscape:version="1.4.2 (unknown)"
   xmlns:inkscape="http://www.inkscape.org/namespaces/inkscape"
   xmlns:sodipodi="http://sodipodi.sourceforge.net/DTD/sodipodi-0.dtd"
   xmlns="http://www.w3.org/2000/svg"
   xmlns:svg="http://www.w3.org/2000/svg">
  <defs
     id="defs2" />
  <sodipodi:namedview
     id="namedview2"
     pagecolor="#ffffff"
     bordercolor="#000000"
     borderopacity="0.25"
     inkscape:showpageshadow="2"
     inkscape:pageopacity="0.0"
     inkscape:pagecheckerboard="0"
     inkscape:deskcolor="#d1d1d1"
     inkscape:zoom="23.625"
     inkscape:cx="8.1904762"
     inkscape:cy="7.957672"
     inkscape:current-layer="svg2" />
  <g
     id="g2"
     transform="translate(0.8746535,1.0000001)">
    <path
       d="M 3.1876236,0 C 1.9912561,0 1,0.99125609 1,2.1876236 v 5.2502971 c 0,1.6577825 0.8306143,3.2096833 2.2081001,4.1291843 l 3.4318564,2.286767 c 0.2939641,0.194837 0.6767983,0.194837 0.9707798,0 l 3.4318547,-2.286767 c 1.377505,-0.919501 2.208102,-2.4713163 2.208102,-4.1291843 V 2.1876236 C 13.250693,0.99125609 12.259436,0 11.06307,0 Z m 0,0.87504949 H 11.06307 c 0.712989,0 1.312571,0.59957541 1.312571,1.31257411 v 5.2502971 c 0,1.3655148 -0.68398,2.6437883 -1.81844,3.4010563 L 7.1270967,13.12399 c -0.00232,0.0017 -0.00106,0.0017 -0.00346,0 L 3.6935642,10.838977 C 2.5590668,10.081718 1.8751283,8.8034355 1.8751283,7.4379207 V 2.1876236 c 0,-0.7129987 0.5995751,-1.31257411 1.3125743,-1.31257411 z"
       fill="#dedede"
       id="path1"
       style="stroke-width:0.999989" />
    <path
       d="M 7.1253466,3.5001979 A 1.750099,1.750099 0 0 0 5.3752475,5.2502971 1.750099,1.750099 0 0 0 6.2502971,6.7611574 v 1.9893375 c 0,0.4847788 0.3902718,0.8750489 0.8750495,0.8750489 0.4847773,0 0.8750495,-0.3902701 0.8750495,-0.8750489 V 6.7611574 A 1.750099,1.750099 0 0 0 8.8754455,5.2502971 1.750099,1.750099 0 0 0 7.1253466,3.5001979 Z m 0,0.8750496 A 0.87504949,0.87504949 0 0 1 8.0003961,5.2502971 0.87504949,0.87504949 0 0 1 7.1253466,6.1253466 0.87504949,0.87504949 0 0 1 6.2502971,5.2502971 0.87504949,0.87504949 0 0 1 7.1253466,4.3752475 Z"
       fill="#dedede"
       stroke-linecap="round"
       stroke-linejoin="round"
       stroke-width="2"
       id="path2" />
  </g>
</svg>
