<?xml version="1.0" encoding="UTF-8" standalone="no"?>
<svg
   viewBox="0 0 22 22"
   version="1.1"
   id="svg1"
   sodipodi:docname="document-revert-rtl-symbolic.svg"
   inkscape:version="1.4.2 (unknown)"
   xmlns:inkscape="http://www.inkscape.org/namespaces/inkscape"
   xmlns:sodipodi="http://sodipodi.sourceforge.net/DTD/sodipodi-0.dtd"
   xmlns="http://www.w3.org/2000/svg"
   xmlns:svg="http://www.w3.org/2000/svg">
  <defs
     id="defs1" />
  <sodipodi:namedview
     id="namedview1"
     pagecolor="#b0b0b0"
     bordercolor="#000000"
     borderopacity="0.25"
     inkscape:showpageshadow="2"
     inkscape:pageopacity="0.0"
     inkscape:pagecheckerboard="0"
     inkscape:deskcolor="#d1d1d1"
     inkscape:zoom="23.181818"
     inkscape:cx="11"
     inkscape:cy="11"
     inkscape:current-layer="svg1" />
  <style
     type="text/css"
     id="current-color-scheme">.ColorScheme-Text {color:#fcfcfc;}</style>
  <path
     d="M 18,16 C 18,13 18,9 18,6 18,3 15,3 15,3 H 7 C 5.338,3 4,4.338 4,6 4,7.662 5.338,9 7,9 h 1.292969 l -1.5,1.5 L 7.5,11.207031 10.207031,8.5 7.5,5.792969 6.792969,6.5 l 1.5,1.5 H 7 C 5.892,8 5,7.108 5,6 5,4.892 5.892,4 7,4 h 8 c 0,0 2,0 2,2 0,2 0,8 0,10 0,2 -2,2 -2,2 H 9 V 14 H 5 V 10 H 4 v 5 l 4,4 h 7 c 0,0 3,0 3,-3 z"
     class="ColorScheme-Text"
     fill="currentColor"
     id="path1" />
</svg>
