<?xml version="1.0" encoding="UTF-8" standalone="no"?>
<svg
   width="16"
   height="16"
   version="1.1"
   id="svg1"
   sodipodi:docname="extensions-symbolic.svg"
   inkscape:version="1.4.2 (unknown)"
   xmlns:inkscape="http://www.inkscape.org/namespaces/inkscape"
   xmlns:sodipodi="http://sodipodi.sourceforge.net/DTD/sodipodi-0.dtd"
   xmlns="http://www.w3.org/2000/svg"
   xmlns:svg="http://www.w3.org/2000/svg">
  <defs
     id="defs1" />
  <sodipodi:namedview
     id="namedview1"
     pagecolor="#ffffff"
     bordercolor="#000000"
     borderopacity="0.25"
     inkscape:showpageshadow="2"
     inkscape:pageopacity="0.0"
     inkscape:pagecheckerboard="0"
     inkscape:deskcolor="#d1d1d1"
     inkscape:zoom="47.25"
     inkscape:cx="8.010582"
     inkscape:cy="9.6931217"
     inkscape:current-layer="svg1" />
  <path
     d="m 6.8000044,2.0000001 c -0.8863992,0 -1.5999988,0.7135995 -1.5999988,1.5999988 V 4.3999981 H 3.4768069 a 1.471999,1.471999 0 0 0 -1.476799,1.476799 v 2.5231985 h 1.599999 c 0.4431996,0 0.7999994,0.3567996 0.7999994,0.7999992 0,0.4431996 -0.3567998,0.7999995 -0.7999994,0.7999995 h -1.599999 v 2.5231997 c 0,0.818399 0.6584,1.476798 1.476799,1.476798 h 2.5231982 v -1.599999 c 0,-0.443198 0.3567995,-0.800001 0.7999993,-0.800001 0.4431996,0 0.7999995,0.356803 0.7999995,0.800001 v 1.599999 h 2.5231991 a 1.471999,1.471999 0 0 0 1.476799,-1.476798 v -1.723201 h 0.799997 C 13.286401,10.799993 14,10.086394 14,9.1999948 14,8.3135957 13.286401,7.5999959 12.399999,7.5999959 H 11.600002 V 5.8767971 A 1.471999,1.471999 0 0 0 10.123203,4.3999981 H 8.4000033 V 3.5999989 c 0,-0.8863993 -0.7135995,-1.5999988 -1.5999989,-1.5999988 m 0,0.7999994 c 0.4431996,0 0.7999995,0.3567998 0.7999995,0.7999994 v 1.5999987 h 2.3999971 c 0.443202,0 0.800001,0.3568001 0.800001,0.7999994 v 2.3999986 h 1.599997 c 0.443202,0 0.800002,0.3567996 0.800002,0.7999992 0,0.4431996 -0.3568,0.7999995 -0.800002,0.7999995 h -1.599997 v 2.3999987 c 0,0.443199 -0.356799,0.8 -0.800001,0.8 H 8.4000033 v -0.8 c 0,-0.886401 -0.7135995,-1.6 -1.5999989,-1.6 -0.8863992,0 -1.5999988,0.713599 -1.5999988,1.6 v 0.8 H 3.6000069 c -0.4431997,0 -0.7999993,-0.356801 -0.7999993,-0.8 v -1.6 h 0.7999993 c 0.8863993,0 1.5999987,-0.713599 1.5999987,-1.5999982 0,-0.8863991 -0.7135994,-1.5999989 -1.5999987,-1.5999989 H 2.8000076 V 5.999997 c 0,-0.4431993 0.3567996,-0.7999994 0.7999993,-0.7999994 H 6.0000051 V 3.5999989 c 0,-0.4431996 0.3567995,-0.7999994 0.7999993,-0.7999994"
     fill="#dedede"
     id="path1"
     style="stroke-width:0.999997" />
</svg>
