<?xml version="1.0" encoding="UTF-8" standalone="no"?>
<svg
   width="16"
   height="16"
   enable-background="new"
   version="1.1"
   id="svg1"
   sodipodi:docname="format-text-remove-symbolic.svg"
   inkscape:version="1.4.2 (unknown)"
   xmlns:inkscape="http://www.inkscape.org/namespaces/inkscape"
   xmlns:sodipodi="http://sodipodi.sourceforge.net/DTD/sodipodi-0.dtd"
   xmlns="http://www.w3.org/2000/svg"
   xmlns:svg="http://www.w3.org/2000/svg">
  <defs
     id="defs1" />
  <sodipodi:namedview
     id="namedview1"
     pagecolor="#ffffff"
     bordercolor="#000000"
     borderopacity="0.25"
     inkscape:showpageshadow="2"
     inkscape:pageopacity="0.0"
     inkscape:pagecheckerboard="0"
     inkscape:deskcolor="#d1d1d1"
     inkscape:zoom="47.25"
     inkscape:cx="8.010582"
     inkscape:cy="8"
     inkscape:current-layer="svg1" />
  <g
     transform="translate(-397 -201)"
     fill="#dedede"
     id="g1">
    <path
       transform="translate(397 201)"
       d="m4 3v1h5.8809l0.88867-0.88867c-0.24703-0.065406-0.50137-0.11133-0.76953-0.11133h-6zm8.8906 2.2324-0.89062 0.89062v0.87695h-0.87695l-1 1h1.877v4h-5.8789l-0.88867 0.88867c0.24649 0.065096 0.50007 0.11133 0.76758 0.11133h6 1v-1-4-1-1c0-0.2673-0.044374-0.52126-0.10938-0.76758zm-6.8906 1.7676c-1.662 0-3 1.338-3 3 0 0.2675 0.046232 0.52109 0.11133 0.76758l0.90234-0.90234c0.067063-0.99809 0.85347-1.7845 1.8516-1.8516l1.0137-1.0137h-0.87891z"
       opacity=".35"
       id="path1"
       style="fill:#f2f2f2;fill-opacity:1;opacity:1" />
    <rect
       transform="rotate(-45)"
       x="130.59"
       y="433.66"
       width="16"
       height="1"
       opacity=".35"
       id="rect1"
       style="fill:#f2f2f2;fill-opacity:1;opacity:1" />
  </g>
</svg>
