<?xml version="1.0" encoding="UTF-8" standalone="no"?>
<svg
   width="16"
   height="16"
   version="1.1"
   id="svg2"
   sodipodi:docname="format-text-clear-formatting-symbolic.svg"
   inkscape:version="1.4.2 (unknown)"
   xmlns:inkscape="http://www.inkscape.org/namespaces/inkscape"
   xmlns:sodipodi="http://sodipodi.sourceforge.net/DTD/sodipodi-0.dtd"
   xmlns="http://www.w3.org/2000/svg"
   xmlns:svg="http://www.w3.org/2000/svg">
  <defs
     id="defs2" />
  <sodipodi:namedview
     id="namedview2"
     pagecolor="#ffffff"
     bordercolor="#000000"
     borderopacity="0.25"
     inkscape:showpageshadow="2"
     inkscape:pageopacity="0.0"
     inkscape:pagecheckerboard="0"
     inkscape:deskcolor="#d1d1d1"
     inkscape:zoom="23.625"
     inkscape:cx="7.4708995"
     inkscape:cy="9.7777778"
     inkscape:current-layer="svg2" />
  <g
     fill="#aaaaaa"
     id="g1">
    <path
       d="M9 10v1c0 .277.112.526.293.707l.793.793-.793.793A.996.996 0 0 0 9 14v1h1a.996.996 0 0 0 .707-.293l.793-.793.793.793c.18.18.43.293.707.293h1v-1a.996.996 0 0 0-.293-.707l-.793-.793.793-.793A.993.993 0 0 0 14 11v-1h-1a.996.996 0 0 0-.707.293l-.793.793-.793-.793A.996.996 0 0 0 10 10z"
       color="#363636"
       fill="#aaaaaa"
       fill-rule="evenodd"
       font-family="sans-serif"
       font-weight="400"
       overflow="visible"
       style="isolation:auto;mix-blend-mode:normal;text-decoration-color:#363636;text-decoration-line:none;text-decoration-style:solid;text-indent:0;text-transform:none;fill:#f2f2f2;fill-opacity:1"
       id="path1" />
  </g>
  <path
     d="m6 2-2.9473 11h2.0703l1.0723-4h4.8047v-2h-4.2695l0.80469-3h5.4648v-2h-7z"
     fill="#aaaaaa"
     stroke-linecap="square"
     stroke-width="2"
     style="paint-order:fill markers stroke;fill:#f2f2f2;fill-opacity:1"
     id="path2" />
</svg>
