<?xml version="1.0" encoding="UTF-8" standalone="no"?>
<svg
   height="16"
   width="16"
   version="1.1"
   id="svg1"
   sodipodi:docname="format-text-bold-fr-symbolic.svg"
   inkscape:version="1.4.2 (unknown)"
   xmlns:inkscape="http://www.inkscape.org/namespaces/inkscape"
   xmlns:sodipodi="http://sodipodi.sourceforge.net/DTD/sodipodi-0.dtd"
   xmlns="http://www.w3.org/2000/svg"
   xmlns:svg="http://www.w3.org/2000/svg">
  <defs
     id="defs1" />
  <sodipodi:namedview
     id="namedview1"
     pagecolor="#ffffff"
     bordercolor="#000000"
     borderopacity="0.25"
     inkscape:showpageshadow="2"
     inkscape:pageopacity="0.0"
     inkscape:pagecheckerboard="0"
     inkscape:deskcolor="#d1d1d1"
     inkscape:zoom="23.625"
     inkscape:cx="6.5396825"
     inkscape:cy="7.7037037"
     inkscape:current-layer="svg1" />
  <path
     d="M8 6.992h5.016c-.003.084-.016 2.202-.04 3.07-.08 2.904-.976 4.438-5.399 4.204-1.908 0-3.082-.56-4.091-1.678-1.003-1.125-1.505-2.736-1.505-4.835 0-2.042.304-3.654 1.448-4.928C4.515 1.615 5.864.942 7.934.953c3.356.017 4.614 1.761 4.888 4.087l-2.452.063c-.179-1.096-.808-2.036-2.348-2.051-2.815-.028-3.3 2.246-3.313 4.565-.013 2.065.79 4.323 2.76 4.36 2.54-.05 3.004-.301 2.903-2.754H8z"
     fill="#aaaaaa"
     id="path1"
     style="fill:#f2f2f2;fill-opacity:1" />
</svg>
