<?xml version="1.0" encoding="UTF-8" standalone="no"?>
<svg
   width="16"
   height="16"
   version="1.1"
   id="svg1"
   sodipodi:docname="image-denoise-symbolic.svg"
   inkscape:version="1.4.2 (unknown)"
   xmlns:inkscape="http://www.inkscape.org/namespaces/inkscape"
   xmlns:sodipodi="http://sodipodi.sourceforge.net/DTD/sodipodi-0.dtd"
   xmlns="http://www.w3.org/2000/svg"
   xmlns:svg="http://www.w3.org/2000/svg">
  <defs
     id="defs1" />
  <sodipodi:namedview
     id="namedview1"
     pagecolor="#ffffff"
     bordercolor="#000000"
     borderopacity="0.25"
     inkscape:showpageshadow="2"
     inkscape:pageopacity="0.0"
     inkscape:pagecheckerboard="0"
     inkscape:deskcolor="#d1d1d1"
     inkscape:zoom="47.25"
     inkscape:cx="8"
     inkscape:cy="8"
     inkscape:current-layer="svg1" />
  <path
     d="M 2,2 V 3.7142858 H 3.7142858 5.4285717 V 5.4285717 H 7.1428571 V 3.7142858 2 H 5.4285717 3.7142858 Z M 7.1428571,5.4285717 V 7.1428571 H 8.8571428 10.571426 V 5.4285717 H 8.8571428 Z m 3.4285689,0 h 1.714291 V 3.7142858 h -1.714291 z m 0,-1.7142859 V 2 H 8.8571428 V 3.7142858 Z M 7.1428571,7.1428571 H 5.4285717 V 8.8571428 H 7.1428571 Z M 5.4285717,8.8571428 H 3.7142858 v 1.7142832 h 1.7142859 z m -1.7142859,0 V 7.1428571 H 2 v 1.7142857 z m 0,-1.7142857 H 5.4285717 V 5.4285717 H 3.7142858 Z m 6.8571402,1.7142857 v 1.7142832 h 1.714291 V 8.8571428 Z m 1.714291,1.7142832 V 12.285717 14 H 14 v -1.714283 -1.714291 z m -5.1428599,0 v 1.714291 h 1.7142857 v -1.714291 z m 1.7142857,1.714291 V 14 h 1.7142832 v -1.714283 z m -5.142857,0 V 14 h 1.7142859 v -1.714283 z"
     fill="#aaaaaa"
     id="path1"
     style="fill:#f0f0f0;fill-opacity:1;stroke-width:0.999997" />
</svg>
