<?xml version="1.0" encoding="UTF-8" standalone="no"?>
<svg
   width="16"
   height="16"
   version="1.1"
   id="svg4"
   sodipodi:docname="image-filter-symbolic.svg"
   inkscape:version="1.4.2 (unknown)"
   xmlns:inkscape="http://www.inkscape.org/namespaces/inkscape"
   xmlns:sodipodi="http://sodipodi.sourceforge.net/DTD/sodipodi-0.dtd"
   xmlns="http://www.w3.org/2000/svg"
   xmlns:svg="http://www.w3.org/2000/svg">
  <defs
     id="defs4" />
  <sodipodi:namedview
     id="namedview4"
     pagecolor="#ffffff"
     bordercolor="#000000"
     borderopacity="0.25"
     inkscape:showpageshadow="2"
     inkscape:pageopacity="0.0"
     inkscape:pagecheckerboard="0"
     inkscape:deskcolor="#d1d1d1"
     inkscape:zoom="23.625"
     inkscape:cx="7.4497354"
     inkscape:cy="5.1216931"
     inkscape:current-layer="svg4" />
  <g
     fill="#dedede"
     id="g4"
     transform="matrix(0.85714286,0,0,0.85714286,1.1428571,1.1428571)"
     style="stroke-width:1.16667">
    <path
       d="M 1.5,14.5 C 2.07,11.8 2.76,9.15 8,8 13.22,7.04 13.09,4.35 14,2 v 12.5 z"
       opacity="0.3"
       id="path1"
       style="stroke-width:1.17505;fill:#f2f2f2;fill-opacity:1" />
    <path
       d="M 13.47,1 C 13.206,1 13,1.264 13,1.533 c 0.02,1.182 -0.04,2.3 -0.69,3.22 -0.64,0.93 -1.91,1.74 -4.44,2.25 -2.72,0.55 -4.34,1.69 -5.31,3.06 -0.96,1.38 -1.28,2.94 -1.56,4.29 l 1,0.21 c 0.28,-1.35 0.59,-2.74 1.41,-3.9 0.81,-1.16 2.12,-2.15 4.65,-2.66 2.68,-0.54 4.23,-1.49 5.06,-2.69 C 13.96,4.123 14,2.743 14,1.503 14.002,1.202 13.769,1 13.47,1 Z"
       id="path2"
       style="stroke-width:1.16667;fill:#f2f2f2;fill-opacity:1" />
    <path
       d="M 1,1 H 2 V 15 H 1 Z"
       id="path3"
       style="stroke-width:1.16667;fill:#f2f2f2;fill-opacity:1" />
    <path
       d="m 15,14 v 1 H 1 v -1 z"
       id="path4"
       style="stroke-width:1.16667;fill:#f2f2f2;fill-opacity:1" />
  </g>
</svg>
