<?xml version="1.0" encoding="UTF-8" standalone="no"?>
<svg
   style="clip-rule:evenodd;fill-rule:evenodd;stroke-linejoin:round;stroke-miterlimit:2"
   viewBox="0 0 16 16"
   version="1.1"
   id="svg2"
   sodipodi:docname="image-straighten-symbolic.svg"
   inkscape:version="1.4.2 (unknown)"
   xmlns:inkscape="http://www.inkscape.org/namespaces/inkscape"
   xmlns:sodipodi="http://sodipodi.sourceforge.net/DTD/sodipodi-0.dtd"
   xmlns="http://www.w3.org/2000/svg"
   xmlns:svg="http://www.w3.org/2000/svg">
  <defs
     id="defs2" />
  <sodipodi:namedview
     id="namedview2"
     pagecolor="#ffffff"
     bordercolor="#000000"
     borderopacity="0.25"
     inkscape:showpageshadow="2"
     inkscape:pageopacity="0.0"
     inkscape:pagecheckerboard="0"
     inkscape:deskcolor="#d1d1d1"
     inkscape:zoom="23.625"
     inkscape:cx="7.0899471"
     inkscape:cy="5.4179894"
     inkscape:current-layer="svg2" />
  <g
     id="g2"
     transform="translate(1.4499263,1.3999079)"
     style="fill:#f2f2f2;fill-opacity:1">
    <g
       transform="matrix(0.81206482,0,0,0.81206482,-0.1774818,-0.15426282)"
       id="g1"
       style="stroke-width:1.23143;fill:#f2f2f2;fill-opacity:1">
      <path
         d="M 1,8 V 9 H 2 V 8 Z M 3,8 V 9 H 4 V 8 Z M 5,8 V 9 H 6 V 8 Z M 7,8 V 9 H 8 V 8 Z m 2,0 v 1 h 1 V 8 Z m 2,0 v 1 h 1 V 8 Z m 2,0 v 1 h 1 V 8 Z m 2,0 v 1 h 1 V 8 Z"
         fill="#dfdfdf"
         id="path1"
         style="stroke-width:1.23143;fill:#f2f2f2;fill-opacity:1" />
    </g>
    <path
       d="m 12.572279,7.5462379 0.170531,0.637471 c 0.146174,0.5457082 0.06982,1.1279595 -0.211949,1.6184442 -0.284221,0.4888639 -0.750346,0.8477979 -1.296055,0.9939679 L 4.5904911,12.57617 C 4.0447835,12.722336 3.4625329,12.645192 2.9720457,12.363406 2.4823705,12.079994 2.1242502,11.613873 1.9780787,11.068166 L 1.0344592,7.5462379 h 0.661833 C 1.9025566,8.3233843 2.1096331,9.1045933 2.2907237,9.7842901 L 2.910329,7.5462379 H 6.0262219 L 7.9370104,9.4984427 8.9293533,7.5462379 H 11.06021 L 12.114274,8.3574905 11.894202,7.5462379 Z M 8.509518,0.62419714 c 0.5465188,-0.14617169 1.128771,-0.0698376 1.619256,0.21276101 0.488863,0.28422285 0.84698,0.74953605 0.993154,1.29605555 l 1.031325,3.8491874 H 11.471115 C 11.12924,4.7210642 10.7565,3.3446144 10.484459,2.3400903 10.265199,1.5328976 9.4368917,1.0537797 8.6288909,1.2673526 6.8464074,1.739162 3.849888,2.5317374 2.0633454,3.0051714 1.6743664,3.1074912 1.3406075,3.3616679 1.1384037,3.7108555 0.93619946,4.0592316 0.88016691,4.4741967 0.98329887,4.8639875 L 1.2805148,5.9822011 H 0.61543372 L 0.35719712,5.0174681 C 0.21102544,4.4709483 0.28735953,3.8886979 0.56995811,3.3982107 0.85336875,2.9085356 1.3194942,2.551227 1.8652017,2.4050553 Z M 4.4946676,5.9822011 H 3.3431594 L 3.5973361,5.0653797 Z"
       fill="#dfdfdf"
       id="path2"
       style="stroke-width:0.999991;fill:#f2f2f2;fill-opacity:1" />
  </g>
</svg>
