<?xml version="1.0" encoding="UTF-8" standalone="no"?>
<svg
   width="16"
   height="16"
   version="1.1"
   id="svg2"
   sodipodi:docname="insert-emoticon-symbolic.svg"
   inkscape:version="1.4.2 (unknown)"
   xmlns:inkscape="http://www.inkscape.org/namespaces/inkscape"
   xmlns:sodipodi="http://sodipodi.sourceforge.net/DTD/sodipodi-0.dtd"
   xmlns="http://www.w3.org/2000/svg"
   xmlns:svg="http://www.w3.org/2000/svg">
  <defs
     id="defs2" />
  <sodipodi:namedview
     id="namedview2"
     pagecolor="#ffffff"
     bordercolor="#000000"
     borderopacity="0.25"
     inkscape:showpageshadow="2"
     inkscape:pageopacity="0.0"
     inkscape:pagecheckerboard="0"
     inkscape:deskcolor="#d1d1d1"
     inkscape:zoom="23.625"
     inkscape:cx="8.7195767"
     inkscape:cy="8.5925926"
     inkscape:current-layer="svg2" />
  <g
     id="g2"
     transform="translate(0,0.13756605)">
    <path
       d="m 5.75,5.6124339 c 0.42,0 0.75,0.3375 0.75,0.75 0,0.4125 -0.33,0.75 -0.75,0.75 -0.4125,0 -0.75,-0.3375 -0.75,-0.75 0,-0.4125 0.3375,-0.75 0.75,-0.75 z m 4.5,0 c 0.42,0 0.75,0.3375 0.75,0.75 0,0.4125 -0.33,0.75 -0.75,0.75 -0.4125,0 -0.75,-0.3375 -0.75,-0.75 0,-0.4125 0.3375,-0.75 0.75,-0.75 z m -5.25,3.75 h 6 c -0.712501,0.9450001 -1.815,1.5000001 -3,1.5000001 -1.1775,0 -2.295,-0.555 -3,-1.5000001 z"
       fill="#dedede"
       id="path1"
       style="stroke-width:0.999987;fill:#f2f2f2;fill-opacity:1" />
    <path
       d="m 8,1.8624339 a 6,6 0 0 0 -6,6 6,6 0 0 0 6,6.0000001 6,6 0 0 0 6,-6.0000001 6,6 0 0 0 -6,-6 z m 0,0.75 a 5.25,5.25 0 0 1 5.25,5.25 A 5.25,5.25 0 0 1 8,13.112434 5.25,5.25 0 0 1 2.75,7.8624339 5.25,5.25 0 0 1 8,2.6124339 Z"
       fill="#dedede"
       id="path2"
       style="stroke-width:0.999987;fill:#f2f2f2;fill-opacity:1" />
  </g>
</svg>
