<?xml version="1.0" encoding="UTF-8" standalone="no"?>
<svg
   version="1.1"
   viewBox="0 0 22 22"
   id="svg2"
   sodipodi:docname="keyboard-hide-symbolic.svg"
   inkscape:version="1.4.2 (unknown)"
   xmlns:inkscape="http://www.inkscape.org/namespaces/inkscape"
   xmlns:sodipodi="http://sodipodi.sourceforge.net/DTD/sodipodi-0.dtd"
   xmlns="http://www.w3.org/2000/svg"
   xmlns:svg="http://www.w3.org/2000/svg">
  <defs
     id="defs2" />
  <sodipodi:namedview
     id="namedview2"
     pagecolor="#ffffff"
     bordercolor="#000000"
     borderopacity="0.25"
     inkscape:showpageshadow="2"
     inkscape:pageopacity="0.0"
     inkscape:pagecheckerboard="0"
     inkscape:deskcolor="#d1d1d1"
     inkscape:zoom="17.181818"
     inkscape:cx="8.7301587"
     inkscape:cy="9.7777778"
     inkscape:current-layer="svg2" />
  <style
     id="current-color-scheme"
     type="text/css">.ColorScheme-Text { color:#d3dae3; }
.ColorScheme-Background { color:#eff0f1; }
.ColorScheme-Highlight { color:#3daee9; }
.ColorScheme-ButtonText { color:#d3dae3; }
</style>
  <path
     class="ColorScheme-Text"
     d="m3 4c-1.662 0-3 1.338-3 3v8c0 1.662 1.338 3 3 3h14.062a3.5 3.5 0 0 1-0.7207-1h-13.342c-1.108 0-2-0.892-2-2v-8c0-1.108 0.892-2 2-2h16c1.108 0 2 0.892 2 2v5.3379a3.5 3.5 0 0 1 1 0.71484v-6.0527c0-1.662-1.338-3-3-3h-16zm0 3v2h3v-2h-3zm4 0v2h2v-2h-2zm3 0v2h2v-2h-2zm3 0v2h2v-2h-2zm3 0v2h3v-2h-3zm-13 3v2h4v-2h-4zm5 0v2h2v-2h-2zm3 0v2h2v-2h-2zm3 0v2h5v-2h-5zm-11 3v2h2v-2h-2zm3 0v2h10v-2h-10zm11 0v0.0625a3.5 3.5 0 0 1 0.0625-0.0625h-0.0625z"
     fill="currentColor"
     id="path2" />
  <path
     d="m 16,14 3,4 3,-4 z"
     id="path1-6"
     class="ColorScheme-Text"
     style=""
     fill="currentColor" />
</svg>
