<?xml version="1.0" encoding="UTF-8" standalone="no"?>
<svg
   version="1.1"
   viewBox="0 0 16 16"
   id="svg2"
   sodipodi:docname="lang-struct-field.svg"
   inkscape:version="1.4.2 (unknown)"
   xmlns:inkscape="http://www.inkscape.org/namespaces/inkscape"
   xmlns:sodipodi="http://sodipodi.sourceforge.net/DTD/sodipodi-0.dtd"
   xmlns="http://www.w3.org/2000/svg"
   xmlns:svg="http://www.w3.org/2000/svg">
  <defs
     id="defs2" />
  <sodipodi:namedview
     id="namedview2"
     pagecolor="#ffffff"
     bordercolor="#000000"
     borderopacity="0.25"
     inkscape:showpageshadow="2"
     inkscape:pageopacity="0.0"
     inkscape:pagecheckerboard="0"
     inkscape:deskcolor="#d1d1d1"
     inkscape:zoom="23.625"
     inkscape:cx="7.1746032"
     inkscape:cy="10.285714"
     inkscape:current-layer="svg2" />
  <g
     id="g2"
     transform="translate(2,2)">
    <path
       d="M 6,0 A 6,6 0 0 0 0,6 6,6 0 0 0 6,12 6,6 0 0 0 12,6 6,6 0 0 0 6,0 Z M 6,0.75 A 5.25,5.25 0 0 1 11.25,6 5.25,5.25 0 0 1 6,11.25 5.25,5.25 0 0 1 0.75,6 5.25,5.25 0 0 1 6,0.75 Z"
       fill="#d3dae3"
       fill-rule="evenodd"
       stop-color="#000000"
       id="path1"
       style="stroke-width:0.999987" />
    <path
       d="M 6,3 A 3,3 0 0 0 3,6 V 6.375 H 8.2148238 A 2.25,2.25 0 0 1 6,8.25 H 3 V 9 H 6 A 3,3 0 0 0 9,6 V 5.625 H 3.7851757 A 2.25,2.25 0 0 1 6,3.75 H 9 V 3 Z"
       fill="#d3dae3"
       fill-rule="evenodd"
       stop-color="#000000"
       stroke-width="1.1547"
       id="path2" />
  </g>
</svg>
