<?xml version="1.0" encoding="UTF-8" standalone="no"?>
<svg
   version="1.1"
   viewBox="0 0 16 16"
   id="svg4"
   sodipodi:docname="lang-define.svg"
   inkscape:version="1.4.2 (unknown)"
   xmlns:inkscape="http://www.inkscape.org/namespaces/inkscape"
   xmlns:sodipodi="http://sodipodi.sourceforge.net/DTD/sodipodi-0.dtd"
   xmlns="http://www.w3.org/2000/svg"
   xmlns:svg="http://www.w3.org/2000/svg">
  <defs
     id="defs4" />
  <sodipodi:namedview
     id="namedview4"
     pagecolor="#ffffff"
     bordercolor="#000000"
     borderopacity="0.25"
     inkscape:showpageshadow="2"
     inkscape:pageopacity="0.0"
     inkscape:pagecheckerboard="0"
     inkscape:deskcolor="#d1d1d1"
     inkscape:zoom="23.625"
     inkscape:cx="9.2698413"
     inkscape:cy="5.5873016"
     inkscape:current-layer="svg4" />
  <g
     id="g4"
     transform="translate(-0.32804215)">
    <path
       d="m 8.3280423,2.0000038 a 6,6 0 0 0 -6,6 6,6 0 0 0 6,6.0000002 6,6 0 0 0 5.9999997,-6.0000002 6,6 0 0 0 -5.9999997,-6 z m 0,0.75 a 5.25,5.25 0 0 1 5.2499997,5.25 5.25,5.25 0 0 1 -5.2499997,5.2500002 5.25,5.25 0 0 1 -5.25,-5.2500002 5.25,5.25 0 0 1 5.25,-5.25 z"
       fill="#d3dae3"
       id="path1"
       style="stroke-width:0.999997" />
    <rect
       x="6.8280449"
       y="5.0000019"
       width="0.74999952"
       height="5.9999962"
       fill="#d3dae3"
       id="rect1"
       style="stroke-width:0.999997" />
    <rect
       x="9.0780468"
       y="5.0000019"
       width="0.74999952"
       height="5.9999962"
       fill="#d3dae3"
       id="rect2"
       style="stroke-width:0.999997" />
    <rect
       x="5.3280406"
       y="6.5000062"
       width="5.9999962"
       height="0.74999952"
       fill="#d3dae3"
       id="rect3"
       style="stroke-width:0.999997" />
    <rect
       x="5.3280406"
       y="8.7500086"
       width="5.9999962"
       height="0.74999952"
       fill="#d3dae3"
       id="rect4"
       style="stroke-width:0.999997" />
  </g>
</svg>
