<?xml version="1.0" encoding="UTF-8" standalone="no"?>
<svg
   version="1.1"
   viewBox="0 0 16 16"
   id="svg2"
   sodipodi:docname="lang-enum.svg"
   inkscape:version="1.4.2 (unknown)"
   xmlns:inkscape="http://www.inkscape.org/namespaces/inkscape"
   xmlns:sodipodi="http://sodipodi.sourceforge.net/DTD/sodipodi-0.dtd"
   xmlns="http://www.w3.org/2000/svg"
   xmlns:svg="http://www.w3.org/2000/svg">
  <defs
     id="defs2" />
  <sodipodi:namedview
     id="namedview2"
     pagecolor="#ffffff"
     bordercolor="#000000"
     borderopacity="0.25"
     inkscape:showpageshadow="2"
     inkscape:pageopacity="0.0"
     inkscape:pagecheckerboard="0"
     inkscape:deskcolor="#d1d1d1"
     inkscape:zoom="23.625"
     inkscape:cx="9.7777778"
     inkscape:cy="5.2063492"
     inkscape:current-layer="svg2" />
  <g
     id="g2"
     transform="translate(-0.27803618)">
    <path
       d="m 8.8055584,2.1971899 c -0.2922517,-0.2922519 -0.7628209,-0.2922519 -1.055043,0 L 2.4752262,7.4724791 c -0.2922518,0.2922518 -0.2922518,0.7628209 0,1.0550429 l 5.2752892,5.275291 c 0.2922518,0.292248 0.7628209,0.292248 1.055043,0 L 14.080849,8.527522 c 0.292248,-0.2922516 0.292248,-0.7628208 0,-1.0550429 z M 8.2780294,2.7247188 13.553319,8.0000081 8.2780294,13.275298 3.0027402,8.0000081 Z"
       fill="#d3dae3"
       id="path1"
       style="stroke-width:0.999989" />
    <path
       d="m 7.5320018,5.0158377 c -1.2399104,0 -2.2381053,0.9981951 -2.2381053,2.2381052 v 1.4920704 c 0,1.2399098 0.9981949,2.2381047 2.2381053,2.2381047 H 9.7701073 V 10.238082 H 7.5320018 c -0.8266068,0 -1.4920705,-0.6654618 -1.4920705,-1.4920687 V 7.9999785 H 11.262177 V 7.2539429 c 0,-1.2399101 -0.998194,-2.2381052 -2.2381049,-2.2381052 z m 0,0.746035 h 1.4920703 c 0.8266068,0 1.4920689,0.6654634 1.4920689,1.4920702 H 6.0399313 c 0,-0.8266068 0.6654637,-1.4920702 1.4920705,-1.4920702 z"
       fill="#d3dae3"
       id="path2"
       style="stroke-width:0.999989" />
  </g>
</svg>
