<?xml version="1.0" encoding="UTF-8" standalone="no"?>
<svg
   version="1.1"
   viewBox="0 0 16 16"
   id="svg2"
   sodipodi:docname="lang-struct.svg"
   inkscape:version="1.4.2 (unknown)"
   xmlns:inkscape="http://www.inkscape.org/namespaces/inkscape"
   xmlns:sodipodi="http://sodipodi.sourceforge.net/DTD/sodipodi-0.dtd"
   xmlns="http://www.w3.org/2000/svg"
   xmlns:svg="http://www.w3.org/2000/svg">
  <defs
     id="defs2" />
  <sodipodi:namedview
     id="namedview2"
     pagecolor="#ffffff"
     bordercolor="#000000"
     borderopacity="0.25"
     inkscape:showpageshadow="2"
     inkscape:pageopacity="0.0"
     inkscape:pagecheckerboard="0"
     inkscape:deskcolor="#d1d1d1"
     inkscape:zoom="23.625"
     inkscape:cx="7.3439153"
     inkscape:cy="8"
     inkscape:current-layer="svg2" />
  <g
     id="g2"
     transform="translate(2.0500051,2.0499751)">
    <path
       d="m 5.9499966,2.9658628 c -1.648067,0 -2.9841414,1.3360747 -2.9841414,2.9841416 V 6.3230216 H 8.1531151 C 7.9713263,7.3985065 7.0407003,8.186318 5.9499966,8.1881082 H 4.4579258 v 0.7460361 h 1.4920708 c 1.6480666,0 2.9841417,-1.336074 2.9841417,-2.9841399 V 5.5769865 H 3.7468789 C 3.9286661,4.5015016 4.859293,3.7136886 5.9499966,3.7118976 H 7.4420674 V 2.9658628 Z"
       fill="#d3dae3"
       fill-rule="evenodd"
       stop-color="#000000"
       stroke-width="1.1547"
       id="path1" />
    <path
       d="m 6.4775182,0.14721394 c -0.2922519,-0.29225197 -0.7628213,-0.29225197 -1.0550434,0 L 0.14718394,5.4225048 c -0.29225198,0.292252 -0.29225198,0.7628212 0,1.0550434 L 5.4224748,11.752841 c 0.292252,0.292245 0.7628212,0.292245 1.0550434,0 L 11.752811,6.4775482 c 0.292245,-0.2922519 0.292245,-0.7628213 0,-1.0550434 z M 5.9499889,0.67474302 11.225282,5.9500339 5.9499889,11.225327 0.67469812,5.9500339 Z"
       fill="#d3dae3"
       id="path2"
       style="stroke-width:0.999987" />
  </g>
</svg>
