<?xml version="1.0" encoding="UTF-8" standalone="no"?>
<svg
   version="1.1"
   viewBox="0 0 16 16"
   id="svg2"
   sodipodi:docname="lang-enum-value.svg"
   inkscape:version="1.4.2 (unknown)"
   xmlns:inkscape="http://www.inkscape.org/namespaces/inkscape"
   xmlns:sodipodi="http://sodipodi.sourceforge.net/DTD/sodipodi-0.dtd"
   xmlns="http://www.w3.org/2000/svg"
   xmlns:svg="http://www.w3.org/2000/svg">
  <defs
     id="defs2" />
  <sodipodi:namedview
     id="namedview2"
     pagecolor="#ffffff"
     bordercolor="#000000"
     borderopacity="0.25"
     inkscape:showpageshadow="2"
     inkscape:pageopacity="0.0"
     inkscape:pagecheckerboard="0"
     inkscape:deskcolor="#d1d1d1"
     inkscape:zoom="23.625"
     inkscape:cx="10.031746"
     inkscape:cy="8.4232804"
     inkscape:current-layer="svg2" />
  <g
     id="g2"
     transform="translate(2,2)">
    <path
       d="M 5.25,3 C 4.0035,3 3,4.0035 3,5.25 v 1.5 C 3,7.9964984 4.0035,9 5.25,9 H 7.5 V 8.25 H 5.25 c -0.831,0 -1.5,-0.669 -1.5,-1.5 V 6 H 9 V 5.25 C 9,4.0035 7.9964992,3 6.75,3 Z m 0,0.75 h 1.5 c 0.831,0 1.5,0.669 1.5,1.5 h -4.5 c 0,-0.831 0.669,-1.5 1.5,-1.5 z"
       fill="#d3dae3"
       id="path1"
       style="stroke-width:0.999987" />
    <path
       d="M 6,0 A 6,6 0 0 0 0,6 6,6 0 0 0 6,12 6,6 0 0 0 12,6 6,6 0 0 0 6,0 Z M 6,0.75 A 5.25,5.25 0 0 1 11.25,6 5.25,5.25 0 0 1 6,11.25 5.25,5.25 0 0 1 0.75,6 5.25,5.25 0 0 1 6,0.75 Z"
       fill="#d3dae3"
       id="path2"
       style="stroke-width:0.999987" />
  </g>
</svg>
