<?xml version="1.0" encoding="UTF-8" standalone="no"?>
<svg
   viewBox="0 0 16 16"
   version="1.1"
   id="svg4"
   sodipodi:docname="lang-namespace-symbolic.svg"
   inkscape:version="1.4.2 (unknown)"
   xmlns:inkscape="http://www.inkscape.org/namespaces/inkscape"
   xmlns:sodipodi="http://sodipodi.sourceforge.net/DTD/sodipodi-0.dtd"
   xmlns="http://www.w3.org/2000/svg"
   xmlns:svg="http://www.w3.org/2000/svg">
  <defs
     id="defs4" />
  <sodipodi:namedview
     id="namedview4"
     pagecolor="#ffffff"
     bordercolor="#000000"
     borderopacity="0.25"
     inkscape:showpageshadow="2"
     inkscape:pageopacity="0.0"
     inkscape:pagecheckerboard="0"
     inkscape:deskcolor="#d1d1d1"
     inkscape:zoom="16.25"
     inkscape:cx="8"
     inkscape:cy="8"
     inkscape:current-layer="svg4" />
  <g
     fill="#d3dae3"
     id="g4"
     transform="matrix(0.75003078,0,0,0.75003078,1.2442496,1.9995)"
     style="stroke-width:1.33331">
    <path
       d="M 11,0 C 9.8906,0 9,0.91406 9,2.0156 V 6.7929 L 8.14844,7.64446 C 7.95703,7.83587 7.94922,8.14055 8.132814,8.33587 l 0.86719,0.95312 v 4.6641 c 0,0.65625 0.23438,1.207 0.625,1.5625 0.38672,0.35156 0.89453,0.49609 1.3906,0.48438 l -0.03125,-1 c -0.27734,0.0078 -0.51953,-0.07422 -0.6875,-0.22656 -0.16797,-0.15234 -0.29688,-0.38672 -0.29688,-0.82031 V 9.0937 c 0,-0.125 -0.046875,-0.24609 -0.12891,-0.33594 L 9.191374,8.01557 9.855434,7.35151 c 0.09375,-0.09375 0.14453,-0.21875 0.14453,-0.35156 v -4.9844 c 0,-0.58594 0.42188,-1.0156 1,-1.0156 z"
       id="path1"
       style="stroke-width:1.33331" />
    <path
       d="M 5,9 C 5,9 4.29297,8.984375 3.5547,9.35547 2.81642,9.72266 2,10.66407 2,11.99997 v 1 h 2 v -1 C 4,11.332 4.1875,11.27341 4.44922,11.1445 4.70703,11.01169 4.9961,10.99997 5,10.99997 c 0,0 0.28906,0.01563 0.55078,0.14453 C 5.8125,11.27731 6,11.33591 6,12.00388 v 3.9961 h 2 v -3.9961 C 8,10.66798 7.1875,9.72658 6.4492,9.35548 5.71092,8.98829 5,9.00001 5,9.00001 Z"
       id="path2"
       style="stroke-width:1.33331" />
    <path
       d="m 2,9 v 7 H 4 V 9 Z"
       id="path3"
       style="stroke-width:1.33331" />
    <path
       d="m 13.016,0 v 1 c 0.57812,0 1,0.42969 1,1.0156 V 7 c 0,0.13281 0.05078,0.25781 0.14453,0.35156 l 0.66406,0.66406 -0.67969,0.74219 c -0.08203,0.089844 -0.12891,0.21094 -0.12891,0.33594 v 4.8594 c 0,0.43359 -0.12891,0.66797 -0.29688,0.82031 -0.16797,0.15234 -0.41016,0.23437 -0.69141,0.22656 l -0.02734,1 c 0.49609,0.01172 1,-0.13281 1.3906,-0.48438 0.38672,-0.35547 0.625,-0.90625 0.625,-1.5625 v -4.6641 l 0.86719,-0.95312 c 0.17969,-0.19531 0.17578,-0.5 -0.01562,-0.69141 L 15.01597,6.79295 v -4.7773 c 0,-1.1016 -0.89062,-2.0156 -2,-2.0156 z"
       id="path4"
       style="stroke-width:1.33331" />
  </g>
</svg>
