<?xml version="1.0" encoding="UTF-8" standalone="no"?>
<svg
   version="1.1"
   viewBox="0 0 16 16"
   id="svg2"
   sodipodi:docname="lang-typedef.svg"
   inkscape:version="1.4.2 (unknown)"
   xmlns:inkscape="http://www.inkscape.org/namespaces/inkscape"
   xmlns:sodipodi="http://sodipodi.sourceforge.net/DTD/sodipodi-0.dtd"
   xmlns="http://www.w3.org/2000/svg"
   xmlns:svg="http://www.w3.org/2000/svg">
  <defs
     id="defs2" />
  <sodipodi:namedview
     id="namedview2"
     pagecolor="#ffffff"
     bordercolor="#000000"
     borderopacity="0.25"
     inkscape:showpageshadow="2"
     inkscape:pageopacity="0.0"
     inkscape:pagecheckerboard="0"
     inkscape:deskcolor="#d1d1d1"
     inkscape:zoom="23.625"
     inkscape:cx="6.2222222"
     inkscape:cy="6.1798942"
     inkscape:current-layer="svg2" />
  <g
     id="g2"
     transform="translate(1,1)">
    <path
       d="M 2.714286,1 C 1.764572,1 1,1.764572 1,2.714286 V 11.28572 C 1,12.235422 1.764572,13 2.714286,13 H 11.28572 C 12.235422,13 13,12.235422 13,11.28572 V 2.714286 C 13,1.764572 12.235422,1 11.28572,1 Z m 0,0.8571422 h 8.571434 c 0.474858,0 0.85714,0.3822858 0.85714,0.8571438 v 8.571434 c 0,0.474858 -0.382282,0.85714 -0.85714,0.85714 H 2.714286 c -0.474858,0 -0.8571438,-0.382282 -0.8571438,-0.85714 V 2.714286 c 0,-0.474858 0.3822858,-0.8571438 0.8571438,-0.8571438 z"
       fill="#d3dae3"
       fill-rule="evenodd"
       stop-color="#000000"
       id="path1"
       style="stroke-width:0.999997" />
    <path
       d="m 3.571428,4.428572 v 0.857142 h 3.0000001 v 5.142864 H 7.4285715 V 5.285714 H 10.428578 V 4.428572 Z"
       fill="#d3dae3"
       fill-rule="evenodd"
       stop-color="#000000"
       id="path2"
       style="stroke-width:0.999997" />
  </g>
</svg>
