<?xml version="1.0" encoding="UTF-8" standalone="no"?>
<svg
   viewBox="0 0 16 16"
   version="1.1"
   id="svg4"
   sodipodi:docname="lang-function.svg"
   inkscape:version="1.4.2 (unknown)"
   xmlns:inkscape="http://www.inkscape.org/namespaces/inkscape"
   xmlns:sodipodi="http://sodipodi.sourceforge.net/DTD/sodipodi-0.dtd"
   xmlns="http://www.w3.org/2000/svg"
   xmlns:svg="http://www.w3.org/2000/svg">
  <defs
     id="defs4" />
  <sodipodi:namedview
     id="namedview4"
     pagecolor="#ffffff"
     bordercolor="#000000"
     borderopacity="0.25"
     inkscape:showpageshadow="2"
     inkscape:pageopacity="0.0"
     inkscape:pagecheckerboard="0"
     inkscape:deskcolor="#d1d1d1"
     inkscape:zoom="23.625"
     inkscape:cx="6.8359788"
     inkscape:cy="4.4021164"
     inkscape:current-layer="svg4" />
  <g
     fill="#d3dae3"
     id="g4"
     transform="matrix(0.75003078,0,0,0.75003078,1.6192549,1.9995)"
     style="stroke-width:1.33328">
    <path
       d="M 11,0 C 9.8906,0 9,0.91406 9,2.0156 V 6.7929 L 8.14844,7.64446 C 7.95703,7.83587 7.94922,8.14055 8.132814,8.33587 l 0.86719,0.95312 v 4.6641 c 0,0.65625 0.23438,1.207 0.625,1.5625 0.38672,0.35156 0.89453,0.49609 1.3906,0.48438 l -0.03125,-1 c -0.27734,0.0078 -0.51953,-0.07422 -0.6875,-0.22656 -0.16797,-0.15234 -0.29688,-0.38672 -0.29688,-0.82031 V 9.0937 c 0,-0.125 -0.046875,-0.24609 -0.12891,-0.33594 L 9.191374,8.01557 9.855434,7.35151 c 0.09375,-0.09375 0.14453,-0.21875 0.14453,-0.35156 v -4.9844 c 0,-0.58594 0.42188,-1.0156 1,-1.0156 z"
       id="path1"
       style="stroke-width:1.33328" />
    <path
       d="M 6,5 C 4.668,5 3.7227,5.8125 3.3555,6.5508 2.98441,7.28908 2.99612,8 2.99612,8 l 0.023437,4.9922 c 0,0 -0.015625,0.28906 -0.15234,0.55469 -0.13281,0.26172 -0.19922,0.45312 -0.86719,0.45312 h -1 v 2 h 1 c 1.3359,0 2.2773,-0.80859 2.6523,-1.5469 0.375,-0.73438 0.36719,-1.4453 0.36719,-1.4453 v -0.0039 L 4.99608,8.000004 c 0,0 0.015625,-0.28906 0.14453,-0.55078 0.13281,-0.26172 0.19531,-0.44922 0.85938,-0.44922 h 1 v -2 z"
       id="path2"
       style="stroke-width:1.33328" />
    <path
       d="m 2,9 v 2 H 7 V 9 Z"
       id="path3"
       style="stroke-width:1.33328" />
    <path
       d="m 13.016,0 v 1 c 0.57812,0 1,0.42969 1,1.0156 V 7 c 0,0.13281 0.05078,0.25781 0.14453,0.35156 l 0.66406,0.66406 -0.67969,0.74219 c -0.08203,0.089844 -0.12891,0.21094 -0.12891,0.33594 v 4.8594 c 0,0.43359 -0.12891,0.66797 -0.29688,0.82031 -0.16797,0.15234 -0.41016,0.23437 -0.69141,0.22656 l -0.02734,1 c 0.49609,0.01172 1,-0.13281 1.3906,-0.48438 0.38672,-0.35547 0.625,-0.90625 0.625,-1.5625 v -4.6641 l 0.86719,-0.95312 c 0.17969,-0.19531 0.17578,-0.5 -0.01562,-0.69141 L 15.01597,6.79295 v -4.7773 c 0,-1.1016 -0.89062,-2.0156 -2,-2.0156 z"
       id="path4"
       style="stroke-width:1.33328" />
  </g>
</svg>
