<?xml version="1.0" encoding="UTF-8" standalone="no"?>
<svg
   version="1.1"
   viewBox="0 0 16 16"
   id="svg2"
   sodipodi:docname="location-access.svg"
   inkscape:version="1.4.2 (unknown)"
   xmlns:inkscape="http://www.inkscape.org/namespaces/inkscape"
   xmlns:sodipodi="http://sodipodi.sourceforge.net/DTD/sodipodi-0.dtd"
   xmlns="http://www.w3.org/2000/svg"
   xmlns:svg="http://www.w3.org/2000/svg">
  <defs
     id="defs2" />
  <sodipodi:namedview
     id="namedview2"
     pagecolor="#ffffff"
     bordercolor="#000000"
     borderopacity="0.25"
     inkscape:showpageshadow="2"
     inkscape:pageopacity="0.0"
     inkscape:pagecheckerboard="0"
     inkscape:deskcolor="#d1d1d1"
     inkscape:zoom="23.625"
     inkscape:cx="11.047619"
     inkscape:cy="9.1428571"
     inkscape:current-layer="svg2" />
  <g
     id="g2"
     transform="matrix(0.75000188,0,0,0.75000188,1.9999737,2)"
     style="stroke-width:1.33333">
    <path
       d="M 8,0 C 4.1445,0 1,3.1484 1,7 c 0,0.875 0.16406,1.7148 0.45703,2.4844 0.13672,0.39062 0.32813,0.76953 0.55859,1.1484 0.058594,0.09375 0.11328,0.18359 0.17188,0.27344 h 0.00391 c 0.73047,1.1094 1.9961,2.2539 3.1172,3.2109 1.1211,0.95703 2.0938,1.6836 2.0938,1.6836 0.17578,0.13281 0.38623,0.19922 0.59766,0.19922 0.21143,0 0.42188,-0.06641 0.59766,-0.19922 10e-8,0 0.97265,-0.72656 2.0937,-1.6836 1.1211,-0.95703 2.3867,-2.1016 3.1172,-3.2109 h 0.0039 C 13.87112,10.8164 13.92581,10.72655 13.98441,10.6328 14.21488,10.2539 14.40629,9.87499 14.543,9.4844 14.83597,8.71487 15.00003,7.875 15.00003,7 c 0,-3.8516 -3.1445,-7 -7,-7 z m 0,1 c 3.311,0 6,2.6927 6,6 0,0.75 -0.13958,1.4695 -0.39062,2.1289 -0.0034,0.00842 -0.0067,0.016881 -0.0098,0.025391 -0.10605,0.303 -0.26166,0.61721 -0.46289,0.94922 -0.0018,0.0029 -0.0021,0.005 -0.0039,0.0078 l -0.002,0.002 c -0.05764,0.09236 -0.10779,0.16968 -0.15234,0.23828 -0.002,0.0013 -0.004,0.0026 -0.0059,0.0039 -0.61243,0.93011 -1.8254,2.0592 -2.9297,3.002 -1.0939,0.93385 -2.043,1.6426 -2.043,1.6426 0,0 -0.94902,-0.70872 -2.043,-1.6426 -1.1043,-0.94271 -2.3173,-2.0718 -2.9297,-3.002 -0.00195,-0.0013 -0.0039,-0.0026 -0.00586,-0.0039 -0.044553,-0.0686 -0.094696,-0.14592 -0.15234,-0.23828 l -0.00195,-0.002 c -0.00178,-0.0028 -0.00211,-0.0049 -0.00391,-0.0078 C 2.66186,9.771501 2.50625,9.457291 2.4002,9.154291 2.39706,9.145781 2.3938,9.137319 2.39043,9.1289 2.1394896,8.46946 1.9999296,7.75 1.9999296,7 c 0,-3.3073 2.689,-6 6,-6 z"
       fill="#d3dae3"
       id="path1"
       style="stroke-width:1.33333" />
    <path
       d="M 8,4 A 3,3 0 0 0 5,7 3,3 0 0 0 8,10 3,3 0 0 0 11,7 3,3 0 0 0 8,4 Z M 8,5 A 2,2 0 0 1 10,7 2,2 0 0 1 8,9 2,2 0 0 1 6,7 2,2 0 0 1 8,5 Z"
       fill="#d3dae3"
       stroke-linecap="round"
       stroke-linejoin="round"
       stroke-width="2.66667"
       id="path2" />
  </g>
</svg>
