<?xml version="1.0" encoding="UTF-8" standalone="no"?>
<svg
   viewBox="0 0 22 22"
   version="1.1"
   id="svg2"
   sodipodi:docname="mail-mark-important.svg"
   xml:space="preserve"
   inkscape:version="1.4.2 (unknown)"
   xmlns:inkscape="http://www.inkscape.org/namespaces/inkscape"
   xmlns:sodipodi="http://sodipodi.sourceforge.net/DTD/sodipodi-0.dtd"
   xmlns="http://www.w3.org/2000/svg"
   xmlns:svg="http://www.w3.org/2000/svg"><sodipodi:namedview
     id="namedview2"
     pagecolor="#ffffff"
     bordercolor="#000000"
     borderopacity="0.25"
     inkscape:showpageshadow="2"
     inkscape:pageopacity="0.0"
     inkscape:pagecheckerboard="0"
     inkscape:deskcolor="#d1d1d1"
     inkscape:zoom="34.363636"
     inkscape:cx="10.98545"
     inkscape:cy="24.968254"
     inkscape:current-layer="svg2" /><defs
     id="defs1"><style
       type="text/css"
       id="current-color-scheme">.ColorScheme-Text {color:#fcfcfc;}</style></defs><path
     class="ColorScheme-Text"
     d="m 1,5 v 7 5 c 0,0 0,2 2,2 2,0 5,0 5,0 h 6 V 18 H 8 2 v -0.585938 l 0.4628906,-0.46289 6.2675782,-6.267578 1.4531252,1.451172 0.814453,0.814453 H 11 L 11.816406,12.134766 13.269531,10.683594 14.585938,12 H 16 L 13.976562,9.9765625 19.728516,4.2226562 19.951172,4 H 20 V 4.2226562 12 h 1 V 5 C 21,5 21,3 19,3 17,3 5,3 3,3 1,3 1,5 1,5 Z M 2,4 H 2.048828 L 2.2714844,4.2226562 8.0234375,9.9765625 2,16 V 12 4.2226562 Z M 3.4628906,4 H 18.537109 L 11,11.537109 Z"
     fill="currentColor"
     id="path1" /><path
     class="ColorScheme-NegativeText"
     d="m 18,13 a 3,3 0 0 0 -3,3 3,3 0 0 0 3,3 3,3 0 0 0 3,-3 3,3 0 0 0 -3,-3 z m -0.428571,0.842074 h 0.857141 v 2.586516 h -0.857141 z m 0,3.443656 h 0.857141 v 0.857144 h -0.857141 z"
     fill="currentColor"
     id="path1-5"
     style="color:#da4453;stroke-width:0.999993" /></svg>
