<?xml version="1.0" encoding="UTF-8" standalone="no"?>
<svg
   version="1.1"
   viewBox="0 0 16 16"
   id="svg1"
   sodipodi:docname="money.svg"
   inkscape:version="1.4.2 (unknown)"
   xmlns:inkscape="http://www.inkscape.org/namespaces/inkscape"
   xmlns:sodipodi="http://sodipodi.sourceforge.net/DTD/sodipodi-0.dtd"
   xmlns="http://www.w3.org/2000/svg"
   xmlns:svg="http://www.w3.org/2000/svg">
  <defs
     id="defs1" />
  <sodipodi:namedview
     id="namedview1"
     pagecolor="#ffffff"
     bordercolor="#000000"
     borderopacity="0.25"
     inkscape:showpageshadow="2"
     inkscape:pageopacity="0.0"
     inkscape:pagecheckerboard="0"
     inkscape:deskcolor="#d1d1d1"
     inkscape:zoom="47.25"
     inkscape:cx="8"
     inkscape:cy="8"
     inkscape:current-layer="svg1" />
  <path
     d="m 7.5833375,1.75 v 1.6666675 h -2.5 c -1.385,0 -2.5,1.1149998 -2.5,2.4999996 0,1.3849995 1.115,2.4999994 2.5,2.4999994 h 2.5 V 11.75 H 3.4166701 v 0.833325 H 7.5833375 V 14.25 h 0.8333328 v -1.666675 h 2.4999927 c 1.384999,0 2.5,-1.115 2.5,-2.499996 0,-1.3849962 -1.115001,-2.4999962 -2.5,-2.4999962 H 8.4166703 V 4.25 H 12.583337 V 3.4166675 H 8.4166703 V 1.75 Z m -2.5,2.5 h 2.5 v 3.3333328 h -2.5 C 4.1600045,7.5833328 3.4166701,6.84 3.4166701,5.9166671 3.4166701,4.9933327 4.1600045,4.25 5.0833375,4.25 Z m 3.3333328,4.1666665 h 2.4999927 c 0.92335,0 1.666674,0.7433335 1.666674,1.6666625 0,0.923346 -0.743324,1.666671 -1.666674,1.666671 H 8.4166703 Z"
     fill="#d3dae3"
     id="path1"
     style="stroke-width:0.99999" />
</svg>
