<?xml version="1.0" encoding="UTF-8" standalone="no"?>
<svg
   version="1.1"
   viewBox="0 0 16 16"
   id="svg1"
   sodipodi:docname="money-none.svg"
   inkscape:version="1.4.2 (unknown)"
   xmlns:inkscape="http://www.inkscape.org/namespaces/inkscape"
   xmlns:sodipodi="http://sodipodi.sourceforge.net/DTD/sodipodi-0.dtd"
   xmlns="http://www.w3.org/2000/svg"
   xmlns:svg="http://www.w3.org/2000/svg">
  <defs
     id="defs1" />
  <sodipodi:namedview
     id="namedview1"
     pagecolor="#ffffff"
     bordercolor="#000000"
     borderopacity="0.25"
     inkscape:showpageshadow="2"
     inkscape:pageopacity="0.0"
     inkscape:pagecheckerboard="0"
     inkscape:deskcolor="#d1d1d1"
     inkscape:zoom="33.410795"
     inkscape:cx="6.3901502"
     inkscape:cy="10.505586"
     inkscape:current-layer="svg1" />
  <g
     id="g1"
     transform="matrix(0.84179379,0,0,0.84179379,1.2656548,1.2656548)"
     style="stroke-width:1.18793">
    <path
       d="M 7,0.99999998 V 2.6666669 H 4.6009164 l 0.8333335,0.833333 H 7 v 1.56575 L 7.833333,5.8990832 V 3.4999999 H 12 V 2.6666669 H 7.833333 V 0.99999998 Z M 3.5934168,2.8375831 C 2.65975,3.1994331 2,4.1021667 2,5.1666666 2,6.5516664 3.115,7.6666664 4.5,7.6666664 H 7 V 11 H 2.8333331 v 0.83333 H 7 V 13.5 h 0.833333 v -1.66667 h 2.499997 c 0.630062,0 1.201839,-0.233286 1.64067,-0.615232 L 11.384808,10.62891 C 11.098367,10.861473 10.732767,11 10.333392,11 H 7.8333914 V 7.6666664 H 8.422583 L 7.000083,6.2441663 V 6.8333581 H 4.5000832 c -0.9233333,0 -1.6666664,-0.7433332 -1.6666664,-1.6666666 0,-0.8458334 0.6242413,-1.5397496 1.4388332,-1.6504166 L 3.5935418,2.8375668 Z m 5.1741658,3.99575 0.8333362,0.8333333 h 0.7324202 c 0.923338,0 1.66667,0.7433335 1.66667,1.6666645 0,0.2178582 -0.04181,0.4248207 -0.117187,0.6152338 l 0.621742,0.6217433 c 0.207633,-0.364782 0.328775,-0.7855753 0.328775,-1.2369992 0,-1.3850008 -1.115,-2.5000007 -2.5,-2.5000007 H 8.7675908 Z"
       fill="#d3dae3"
       id="path1"
       style="stroke-width:1.18793" />
    <rect
       transform="rotate(45)"
       x="1.3137"
       y="-0.5"
       width="20"
       height="1"
       ry="0"
       fill="#d3dae3"
       id="rect1"
       style="stroke-width:1.18793" />
  </g>
</svg>
