<?xml version="1.0" encoding="UTF-8" standalone="no"?>
<svg
   version="1.1"
   viewBox="0 0 16 16"
   id="svg2"
   sodipodi:docname="nudity-symbolic.svg"
   inkscape:version="1.4.2 (unknown)"
   xmlns:inkscape="http://www.inkscape.org/namespaces/inkscape"
   xmlns:sodipodi="http://sodipodi.sourceforge.net/DTD/sodipodi-0.dtd"
   xmlns="http://www.w3.org/2000/svg"
   xmlns:svg="http://www.w3.org/2000/svg">
  <defs
     id="defs2" />
  <sodipodi:namedview
     id="namedview2"
     pagecolor="#ffffff"
     bordercolor="#000000"
     borderopacity="0.25"
     inkscape:showpageshadow="2"
     inkscape:pageopacity="0.0"
     inkscape:pagecheckerboard="0"
     inkscape:deskcolor="#d1d1d1"
     inkscape:zoom="23.625"
     inkscape:cx="5.6296296"
     inkscape:cy="8.2539682"
     inkscape:current-layer="svg2" />
  <g
     transform="matrix(0.8203125,0,0,0.8203125,1.4375,-0.203125)"
     fill="#808080"
     stroke-width="1.14468"
     id="g1">
    <path
       d="m 1.6,7.8667 -1e-7,2.1333 c 2.2379,0.87987 3.642,3.2086 4.2667,5.3333 H 10.1334 C 10.78629,13.1137 12.0242,10.8366 14.4001,10 V 7.8667 Z"
       id="path1"
       style="stroke-width:1.14468;fill:#f2f2f2;fill-opacity:1" />
    <rect
       x="1.6"
       y="6.8000002"
       width="12.8"
       height="1.0667"
       ry="0"
       opacity="0.5"
       id="rect1"
       style="stroke-width:1.15188;fill:#f2f2f2;fill-opacity:1" />
  </g>
  <path
     d="M 8,1 A 7,7 0 0 0 1,8 7,7 0 0 0 8,15 7,7 0 0 0 15,8 7,7 0 0 0 8,1 Z M 8,1.875 A 6.125,6.125 0 0 1 14.125,8 6.125,6.125 0 0 1 8,14.125 6.125,6.125 0 0 1 1.875,8 6.125,6.125 0 0 1 8,1.875 Z"
     fill="#808080"
     stroke-width="0.62723"
     id="path2"
     style="fill:#f2f2f2;fill-opacity:1" />
</svg>
