<?xml version="1.0" encoding="UTF-8" standalone="no"?>
<svg
   version="1.1"
   viewBox="0 0 16 16"
   id="svg2"
   sodipodi:docname="nudity-none-symbolic.svg"
   inkscape:version="1.4.2 (unknown)"
   xmlns:inkscape="http://www.inkscape.org/namespaces/inkscape"
   xmlns:sodipodi="http://sodipodi.sourceforge.net/DTD/sodipodi-0.dtd"
   xmlns="http://www.w3.org/2000/svg"
   xmlns:svg="http://www.w3.org/2000/svg">
  <defs
     id="defs2" />
  <sodipodi:namedview
     id="namedview2"
     pagecolor="#ffffff"
     bordercolor="#000000"
     borderopacity="0.25"
     inkscape:showpageshadow="2"
     inkscape:pageopacity="0.0"
     inkscape:pagecheckerboard="0"
     inkscape:deskcolor="#d1d1d1"
     inkscape:zoom="23.625"
     inkscape:cx="4.0846561"
     inkscape:cy="12.910053"
     inkscape:current-layer="svg2" />
  <g
     transform="matrix(0.82034238,0,0,0.82034238,1.4370701,-0.2036699)"
     fill="#808080"
     stroke-width="1.0731"
     id="g2">
    <path
       transform="matrix(1.0667,0,0,1.0667,-0.53333,1.4667)"
       d="m 8,0 a 8,8 0 0 0 -8,8 8,8 0 0 0 1.6797,4.9043 l 0.71484,-0.71484 a 7,7 0 0 1 -1.3945,-4.1895 7,7 0 0 1 6.9062,-7 7,7 0 0 1 0.09375,0 7,7 0 0 1 4.1914,1.3926 L 12.90428,1.67967 A 8,8 0 0 0 7.99998,-3e-5 Z m 7.0703,1.0703 -14,14 0.70703,0.70703 1.3984,-1.3984 a 8,8 0 0 0 4.8242,1.6211 8,8 0 0 0 8,-8 8,8 0 0 0 -1.6191,-4.8262 l 1.3965,-1.3965 z M 13.6641,3.8906 A 7,7 0 0 1 15,8 7,7 0 0 1 8,15 7,7 0 0 1 3.8887,13.666 L 5.6094,11.9453 C 5.7585,12.29752 5.89739,12.65092 6.00002,13 h 4 c 0.61208,-2.0809 1.7726,-4.2157 4,-5 V 6 h -2.4453 l 2.1094,-2.1094 z M 2.0001,6 v 2 c 1.039,0.40849 1.8851,1.1506 2.5469,2.0371 L 8.5841,6 Z"
       id="path1"
       style="stroke-width:1.0731;fill:#f2f2f2;fill-opacity:1" />
    <path
       transform="matrix(1.0667,0,0,1.0667,-0.53333,1.4667)"
       d="m 2,5 v 1 h 6.584 l 1,-1 z m 10.416,0 -1,1 H 14 V 5 Z"
       opacity="0.5"
       id="path2"
       style="stroke-width:1.07981;fill:#f2f2f2;fill-opacity:1" />
  </g>
</svg>
