<?xml version="1.0" encoding="UTF-8" standalone="no"?>
<svg
   version="1.1"
   viewBox="0 0 16 16"
   id="svg3"
   sodipodi:docname="num-lock.svg"
   inkscape:version="1.4.2 (unknown)"
   xmlns:inkscape="http://www.inkscape.org/namespaces/inkscape"
   xmlns:sodipodi="http://sodipodi.sourceforge.net/DTD/sodipodi-0.dtd"
   xmlns="http://www.w3.org/2000/svg"
   xmlns:svg="http://www.w3.org/2000/svg">
  <defs
     id="defs3" />
  <sodipodi:namedview
     id="namedview3"
     pagecolor="#ffffff"
     bordercolor="#000000"
     borderopacity="0.25"
     inkscape:showpageshadow="2"
     inkscape:pageopacity="0.0"
     inkscape:pagecheckerboard="0"
     inkscape:deskcolor="#d1d1d1"
     inkscape:zoom="23.625"
     inkscape:cx="6.8783069"
     inkscape:cy="8.3386243"
     inkscape:current-layer="svg3" />
  <g
     fill="#d3dae3"
     id="g3"
     transform="matrix(0.93333333,0,0,0.93333333,1,1)"
     style="stroke-width:1.07142">
    <path
       d="M 3,6 C 1.892,6 1,6.892 1,8 v 5 c 0,1.108 0.892,2 2,2 h 9 c 1.108,0 2,-0.892 2,-2 V 8 C 14,6.892 13.108,6 12,6 Z m 0,1 h 9 c 0.554,0 1,0.446 1,1 v 5 c 0,0.554 -0.446,1 -1,1 H 3 C 2.446,14 2,13.554 2,13 V 8 C 2,7.446 2.446,7 3,7 Z"
       id="path1"
       style="stroke-width:1.07142" />
    <path
       d="m 7,8 h 1 v 4 h 1 v 1 H 6 V 12 H 7 V 9 H 6 V 8 Z"
       color="#d3dae3"
       id="path2"
       style="stroke-width:1.07142" />
    <path
       d="M 7.5,0 C 5.561,0 4,1.561 4,3.5 V 6 H 5 V 3.5 C 5,2.115 6.115,1 7.5,1 8.885,1 10,2.115 10,3.5 V 6 h 1 V 3.5 C 11,1.561 9.439,0 7.5,0 Z"
       id="path3"
       style="stroke-width:1.07142" />
  </g>
</svg>
