<?xml version="1.0" encoding="UTF-8" standalone="no"?>
<svg
   version="1.1"
   viewBox="0 0 16 16"
   id="svg2"
   sodipodi:docname="object-inverse.svg"
   inkscape:version="1.4.2 (unknown)"
   xmlns:inkscape="http://www.inkscape.org/namespaces/inkscape"
   xmlns:sodipodi="http://sodipodi.sourceforge.net/DTD/sodipodi-0.dtd"
   xmlns="http://www.w3.org/2000/svg"
   xmlns:svg="http://www.w3.org/2000/svg">
  <defs
     id="defs2" />
  <sodipodi:namedview
     id="namedview2"
     pagecolor="#ffffff"
     bordercolor="#000000"
     borderopacity="0.25"
     inkscape:showpageshadow="2"
     inkscape:pageopacity="0.0"
     inkscape:pagecheckerboard="0"
     inkscape:deskcolor="#d1d1d1"
     inkscape:zoom="23.625"
     inkscape:cx="9.1851852"
     inkscape:cy="10.708995"
     inkscape:current-layer="svg2" />
  <g
     id="g2"
     transform="translate(-0.14285705)">
    <path
       d="m 8.1428571,1 a 7,7 0 0 0 -7,7 7,7 0 0 0 7,7 A 7,7 0 0 0 15.142857,8 7,7 0 0 0 8.1428571,1 Z m 0,0.875 A 6.125,6.125 0 0 1 14.267857,8 6.125,6.125 0 0 1 8.1428571,14.125 6.125,6.125 0 0 1 2.0178571,8 a 6.125,6.125 0 0 1 6.125,-6.125 z"
       fill="#d3dae3"
       id="path1"
       style="stroke-width:0.999997" />
    <path
       d="m 8.1428571,2.75 a 5.25,5.25 0 0 0 -5.25,5.25 5.25,5.25 0 0 0 5.25,5.25 z"
       fill="#d3dae3"
       id="path2"
       style="stroke-width:0.999997" />
  </g>
</svg>
