<?xml version="1.0" encoding="UTF-8" standalone="no"?>
<svg
   width="16"
   height="16"
   version="1.1"
   id="svg1"
   sodipodi:docname="phonelink-ring-symbolic.svg"
   inkscape:version="1.4.2 (unknown)"
   xmlns:inkscape="http://www.inkscape.org/namespaces/inkscape"
   xmlns:sodipodi="http://sodipodi.sourceforge.net/DTD/sodipodi-0.dtd"
   xmlns="http://www.w3.org/2000/svg"
   xmlns:svg="http://www.w3.org/2000/svg">
  <defs
     id="defs1" />
  <sodipodi:namedview
     id="namedview1"
     pagecolor="#ffffff"
     bordercolor="#000000"
     borderopacity="0.25"
     inkscape:showpageshadow="2"
     inkscape:pageopacity="0.0"
     inkscape:pagecheckerboard="0"
     inkscape:deskcolor="#d1d1d1"
     inkscape:zoom="16.705398"
     inkscape:cx="9.0389946"
     inkscape:cy="7.183307"
     inkscape:current-layer="svg1" />
  <g
     id="g1"
     transform="translate(0.124974,2)">
    <path
       d="M 3.75,0 C 3.3345,0 3,0.3345 3,0.75 v 10.5 C 3,11.6655 3.3345,12 3.75,12 h 6 c 0.4155,0 0.75,-0.3345 0.75,-0.75 H 9.3368996 8.9999836 4.1630846 C 3.9339754,11.25 3.75,11.066023 3.75,10.836908 V 1.1634154 C 3.75,0.93430483 3.9339754,0.75033 4.1630846,0.75033 H 4.875 L 5.25,1.2718132 C 5.3240341,1.3747046 5.3517522,1.50033 5.4785178,1.50033 h 2.5429494 c 0.126765,0 0.1544777,-0.1256168 0.2285177,-0.2285168 L 8.6249841,0.75033 H 8.9999836 9.3368996 10.5 c 0,-0.4155 -0.3345,-0.75 -0.75,-0.75 H 8.7714727 4.7285246 3.75 Z m 7.231954,1.76805 -0.520028,0.52002 c 0.9846,0.9843746 1.537886,2.3196 1.538108,3.7119 -0.0061,1.511325 -0.663206,2.94675 -1.803222,3.9389963 l 0.50244,0.5756917 c 1.302514,-1.1388011 2.050046,-2.784452 2.0508,-4.514628 -0.006,-1.5891 -0.641546,-3.1110746 -1.768064,-4.23195 z M 9.3926236,3.3573754 8.8711437,3.8788578 C 9.4337762,4.4413646 9.7499204,5.2043325 9.7500624,5.9999324 9.7451491,6.8631072 9.3690551,7.6824816 8.7173193,8.248432 L 9.2153607,8.8182553 C 10.029712,8.1078 10.497934,7.0805778 10.500042,5.9999024 10.495226,5.0072024 10.096982,4.0568778 9.3925846,3.3573527 Z M 7.810575,4.9394247 7.2803024,5.4696978 A 0.75,0.75 0 0 1 7.50003,5.9999699 0.75,0.75 0 0 1 7.23636,6.5668647 L 7.725615,7.138155 A 1.5,1.5 0 0 0 8.25003,5.9999551 1.5,1.5 0 0 0 7.810575,4.93938 Z"
       fill="#dedede"
       style="stroke-width:0.999987;paint-order:stroke fill markers"
       id="path1" />
    <rect
       x="5.2499971"
       y="10.500006"
       width="2.9999986"
       height="0.31350002"
       ry="0.20900001"
       fill="#dedede"
       fill-rule="evenodd"
       opacity="0.35"
       style="stroke-width:0.999987;paint-order:stroke fill markers"
       id="rect1"
       rx="0.20900001" />
  </g>
</svg>
