<?xml version="1.0" encoding="UTF-8" standalone="no"?>
<svg
   width="16px"
   height="16px"
   version="1.1"
   id="svg1"
   sodipodi:docname="pub-symbolic.svg"
   inkscape:version="1.4.2 (unknown)"
   xmlns:inkscape="http://www.inkscape.org/namespaces/inkscape"
   xmlns:sodipodi="http://sodipodi.sourceforge.net/DTD/sodipodi-0.dtd"
   xmlns="http://www.w3.org/2000/svg"
   xmlns:svg="http://www.w3.org/2000/svg">
  <defs
     id="defs1" />
  <sodipodi:namedview
     id="namedview1"
     pagecolor="#ffffff"
     bordercolor="#000000"
     borderopacity="0.25"
     inkscape:showpageshadow="2"
     inkscape:pageopacity="0.0"
     inkscape:pagecheckerboard="0"
     inkscape:deskcolor="#d1d1d1"
     inkscape:zoom="23.625"
     inkscape:cx="5.2910053"
     inkscape:cy="9.3544973"
     inkscape:current-layer="svg1" />
  <path
     d="M 4.5614029,1 C 3.5312473,1 2.7042625,1.831245 2.7042625,2.866667 H 5.21428 v 4.1999996 c 0,0.2588506 0.2067554,0.4666666 0.4642853,0.4666666 0.2575298,0 0.4642852,-0.207816 0.4642852,-0.4666666 V 2.866667 H 11.732381 C 11.413178,2.308851 10.821941,1.933333 10.132729,1.933333 9.7482463,1.933333 9.3891497,2.05 9.0917101,2.250517 8.8414327,1.521351 8.1595187,1.000037 7.3470198,1.000037 6.7884292,1.000037 6.2951356,1.251599 5.9541647,1.641704 5.6132034,1.251599 5.1199001,1.000037 4.5613094,1.000037 Z M 2.4285697,3.8 V 6.6 8.4666666 10.33333 c 0,1.5512 1.2424268,2.8 2.7857103,2.8 h 3.7142804 c 1.2172606,0 2.2470466,-0.7772 2.6279426,-1.86666 h 0.157787 c 1.543283,0 2.78571,-1.2488 2.78571,-2.8000034 V 6.6 C 14.5,5.0488 13.257573,3.8 11.71429,3.8 H 10.785717 V 4.5145789 8.4666852 10.33335 c 0,1.034136 -0.8282822,1.86667 -1.8571381,1.86667 H 5.2142988 c -1.0288553,0 -1.8571404,-0.832534 -1.8571404,-1.86667 V 8.4666852 4.5145789 3.8 H 2.4285886 Z m 9.2857043,0.9333331 c 1.028852,0 1.857133,0.8325338 1.857133,1.8666669 v 1.8666666 c 0,1.0341334 -0.828281,1.8666634 -1.857133,1.8666634 V 8.4666666 6.6 Z M 1.5,14.06667 V 15 h 12.999984 v -0.93333 z"
     fill="#dedede"
     id="path1"
     style="stroke-width:0.999998;fill:#f2f2f2;fill-opacity:1" />
</svg>
