<?xml version="1.0" encoding="UTF-8" standalone="no"?>
<svg
   height="16px"
   viewBox="0 0 16 16"
   width="16px"
   version="1.1"
   id="svg1"
   sodipodi:docname="qr-code-symbolic.svg"
   inkscape:version="1.4.2 (unknown)"
   xmlns:inkscape="http://www.inkscape.org/namespaces/inkscape"
   xmlns:sodipodi="http://sodipodi.sourceforge.net/DTD/sodipodi-0.dtd"
   xmlns="http://www.w3.org/2000/svg"
   xmlns:svg="http://www.w3.org/2000/svg">
  <defs
     id="defs1" />
  <sodipodi:namedview
     id="namedview1"
     pagecolor="#ffffff"
     bordercolor="#000000"
     borderopacity="0.25"
     inkscape:showpageshadow="2"
     inkscape:pageopacity="0.0"
     inkscape:pagecheckerboard="0"
     inkscape:deskcolor="#d1d1d1"
     inkscape:zoom="47.25"
     inkscape:cx="8.010582"
     inkscape:cy="8"
     inkscape:current-layer="svg1" />
  <path
     d="m 1 1 v 5 h 5 v -5 z m 7 0 v 1 h 1 v -1 z m 0 1 h -1 v 1 h 1 z m 0 1 v 1 h -1 v 2 h 2 v -3 z m 2 -2 v 5 h 5 v -5 z m -7 2 h 1 v 1 h -1 z m 9 0 h 1 v 1 h -1 z m -11 4 v 1 h 1 v -1 z m 1 1 v 1 h 1 v -1 z m 1 0 h 1 v 1 h 2 v -2 h -3 z m 4 -1 v 4 h 1 v -1 h 2 v -3 z m 3 3 v 1 h 1 v -1 z m 1 0 h 1 v -1 h -1 z m 1 -1 h 1 v 1 h 1 v -2 h 1 v -1 h -3 z m 1 1 h -1 v 1 h 1 z m -3 1 h -1 v 1 h 1 z m 0 1 v 1 h 1 v -1 z m -1 0 h -2 v 3 h 1 v -1 h 1 z m 0 2 v 1 h 1 v -1 z m -1 -6 h 1 v 1 h -1 z m -7 2 v 5 h 5 v -5 z m 13 1 v 1 h -2 v 3 h 1 v -1 h 1 v -1 h 1 v -2 z m 0 3 v 1 h 1 v -1 z m -11 -2 h 1 v 1 h -1 z m 0 0"
     fill="#aaaaaa"
     id="path1"
     style="fill:#f2f2f2;fill-opacity:1" />
</svg>
