<?xml version="1.0" encoding="UTF-8" standalone="no"?>
<svg
   version="1.1"
   viewBox="0 0 16 16"
   id="svg1"
   sodipodi:docname="radio-mixed-symbolic.svg"
   inkscape:version="1.4.2 (unknown)"
   xmlns:inkscape="http://www.inkscape.org/namespaces/inkscape"
   xmlns:sodipodi="http://sodipodi.sourceforge.net/DTD/sodipodi-0.dtd"
   xmlns="http://www.w3.org/2000/svg"
   xmlns:svg="http://www.w3.org/2000/svg">
  <defs
     id="defs1" />
  <sodipodi:namedview
     id="namedview1"
     pagecolor="#ffffff"
     bordercolor="#000000"
     borderopacity="0.25"
     inkscape:showpageshadow="2"
     inkscape:pageopacity="0.0"
     inkscape:pagecheckerboard="0"
     inkscape:deskcolor="#d1d1d1"
     inkscape:zoom="23.625"
     inkscape:cx="6.7089947"
     inkscape:cy="8.3386243"
     inkscape:current-layer="svg1" />
  <g
     id="g1"
     transform="translate(1,1)">
    <path
       d="M 7.0000006,0 A 7.0000006,7.0000006 0 0 0 0,7.0000006 7.0000006,7.0000006 0 0 0 7.0000006,14 7.0000006,7.0000006 0 0 0 14,7.0000006 7.0000006,7.0000006 0 0 0 7.0000006,0 Z m 0,0.87500007 A 6.1250005,6.1250005 0 0 1 13.125,7.0000006 6.1250005,6.1250005 0 0 1 7.0000006,13.125 6.1250005,6.1250005 0 0 1 0.87500007,7.0000006 6.1250005,6.1250005 0 0 1 7.0000006,0.87500007 Z"
       fill="#d3dae3"
       id="path1"
       style="stroke-width:0.999994" />
    <rect
       x="3.4999988"
       y="6.1250029"
       width="6.9999976"
       height="1.7499994"
       rx="0.99999988"
       ry="0.99999988"
       fill="#d3dae3"
       id="rect1"
       style="stroke-width:0.999994" />
  </g>
</svg>
