<?xml version="1.0" encoding="UTF-8" standalone="no"?>
<svg
   version="1.1"
   viewBox="0 0 16 16"
   id="svg1"
   sodipodi:docname="radio-checked-symbolic.svg"
   inkscape:version="1.4.2 (unknown)"
   xmlns:inkscape="http://www.inkscape.org/namespaces/inkscape"
   xmlns:sodipodi="http://sodipodi.sourceforge.net/DTD/sodipodi-0.dtd"
   xmlns="http://www.w3.org/2000/svg"
   xmlns:svg="http://www.w3.org/2000/svg">
  <defs
     id="defs1" />
  <sodipodi:namedview
     id="namedview1"
     pagecolor="#ffffff"
     bordercolor="#000000"
     borderopacity="0.25"
     inkscape:showpageshadow="2"
     inkscape:pageopacity="0.0"
     inkscape:pagecheckerboard="0"
     inkscape:deskcolor="#d1d1d1"
     inkscape:zoom="23.625"
     inkscape:cx="7.4074074"
     inkscape:cy="7.5343915"
     inkscape:current-layer="svg1" />
  <g
     id="g1"
     transform="translate(1,1)">
    <path
       d="M 7,0 A 7,7 0 0 0 0,7 7,7 0 0 0 7,14 7,7 0 0 0 14,7 7,7 0 0 0 7,0 Z M 7,0.875 A 6.125,6.125 0 0 1 13.125,7 6.125,6.125 0 0 1 7,13.125 6.125,6.125 0 0 1 0.875,7 6.125,6.125 0 0 1 7,0.875 Z"
       fill="#d3dae3"
       id="path1"
       style="stroke-width:0.999987" />
    <circle
       cx="6.9999986"
       cy="6.9999986"
       r="1.7499996"
       fill="#d3dae3"
       id="circle1"
       style="stroke-width:0.999987" />
  </g>
</svg>
