<?xml version="1.0" encoding="UTF-8" standalone="no"?>
<svg
   width="16px"
   height="16px"
   version="1.1"
   viewBox="0 0 16 16"
   id="svg3"
   sodipodi:docname="record-screen-symbolic.svg"
   inkscape:version="1.4.2 (unknown)"
   xmlns:inkscape="http://www.inkscape.org/namespaces/inkscape"
   xmlns:sodipodi="http://sodipodi.sourceforge.net/DTD/sodipodi-0.dtd"
   xmlns="http://www.w3.org/2000/svg"
   xmlns:svg="http://www.w3.org/2000/svg">
  <defs
     id="defs3" />
  <sodipodi:namedview
     id="namedview3"
     pagecolor="#ffffff"
     bordercolor="#000000"
     borderopacity="0.25"
     inkscape:showpageshadow="2"
     inkscape:pageopacity="0.0"
     inkscape:pagecheckerboard="0"
     inkscape:deskcolor="#d1d1d1"
     inkscape:zoom="23.625"
     inkscape:cx="8.7407407"
     inkscape:cy="10.15873"
     inkscape:current-layer="svg3" />
  <g
     id="g3"
     transform="translate(-0.05299545,-0.30932585)">
    <path
       d="M 8.927977,7.4343257 A 0.87508748,0.87508748 0 0 0 8.3093256,7.6906743 L 7.6906744,8.3093257 H 6.3030118 a 0.87508748,0.87508748 0 0 0 -0.8750001,0.875 v 5.2500003 a 0.87508748,0.87508748 0 0 0 0.8750001,0.875 h 7.8750022 a 0.87508748,0.87508748 0 0 0 0.875,-0.875 V 9.1843257 a 0.87508748,0.87508748 0 0 0 -0.875,-0.875 H 12.790353 L 12.171702,7.6906743 A 0.87508748,0.87508748 0 0 0 11.553046,7.4343257 H 8.9280469 Z m 0,0.875 h 2.625 l 0.875,0.875 h 1.75 V 14.434326 H 6.3029769 V 9.1843257 H 8.052977 Z"
       color="#000000"
       fill="#dedede"
       stroke-linecap="round"
       stroke-linejoin="round"
       id="path1"
       style="stroke-width:0.999987;fill:#f1f1f1;fill-opacity:1" />
    <path
       d="m 10.240477,9.1843257 a 2.1875,2.1875 0 0 0 -2.1875,2.1875003 2.1875,2.1875 0 0 0 2.1875,2.1875 2.1875,2.1875 0 0 0 2.1875,-2.1875 2.1875,2.1875 0 0 0 -2.1875,-2.1875003 z m 0,0.8750003 a 1.3125,1.3125 0 0 1 1.3125,1.3125 1.3125,1.3125 0 0 1 -1.3125,1.3125 1.3125,1.3125 0 0 1 -1.3125,-1.3125 1.3125,1.3125 0 0 1 1.3125,-1.3125 z"
       fill="#dedede"
       fill-rule="evenodd"
       stop-color="#000000"
       stroke-linecap="round"
       stroke-linejoin="round"
       stroke-width="2"
       id="path2"
       style="fill:#f2f2f2;fill-opacity:1" />
    <path
       d="m 1.9279769,1.3093257 a 0.87508748,0.87508748 0 0 0 -0.875,0.875 v 4.375 a 0.87508748,0.87508748 0 0 0 0.875,0.875 h 5.25 a 0.87508748,0.87508748 0 0 0 0.8750001,-0.875 V 6.0244119 l 1.47315,0.4904815 a 0.87508748,0.87508748 0 0 0 1.15185,-0.8305677 v -2.625 A 0.87508748,0.87508748 0 0 0 9.526127,2.228758 L 8.052977,2.7192396 V 2.1843257 a 0.87508748,0.87508748 0 0 0 -0.8750001,-0.875 z m 0,0.875 h 5.25 v 1.75 l 2.6250001,-0.875 v 2.625 l -2.6250001,-0.875 v 1.75 h -5.25 z"
       color="#000000"
       fill="#dedede"
       stroke-linecap="round"
       stroke-linejoin="round"
       id="path3"
       style="stroke-width:0.999987;fill:#f1f1f1;fill-opacity:1" />
  </g>
</svg>
