<?xml version="1.0" encoding="UTF-8" standalone="no"?>
<svg
   width="16px"
   height="16px"
   version="1.1"
   viewBox="0 0 16 16"
   id="svg1"
   sodipodi:docname="review-symbolic.svg"
   inkscape:version="1.4.2 (unknown)"
   xmlns:inkscape="http://www.inkscape.org/namespaces/inkscape"
   xmlns:sodipodi="http://sodipodi.sourceforge.net/DTD/sodipodi-0.dtd"
   xmlns="http://www.w3.org/2000/svg"
   xmlns:svg="http://www.w3.org/2000/svg">
  <defs
     id="defs1" />
  <sodipodi:namedview
     id="namedview1"
     pagecolor="#ffffff"
     bordercolor="#000000"
     borderopacity="0.25"
     inkscape:showpageshadow="2"
     inkscape:pageopacity="0.0"
     inkscape:pagecheckerboard="0"
     inkscape:deskcolor="#d1d1d1"
     inkscape:zoom="16.705398"
     inkscape:cx="2.3944357"
     inkscape:cy="2.9331837"
     inkscape:current-layer="svg1" />
  <path
     d="M 3.625,1 C 2.17075,1 1,2.17075 1,3.625 V 9.75 c 0,1.454248 1.17075,2.625 2.625,2.625 h 7 L 13.25,15 V 12.222923 C 14.270777,11.863729 15,10.896685 15,9.75 V 3.625 C 15,2.17075 13.829249,1 12.375,1 Z m 0,0.875 h 8.75 c 0.9695,0 1.75,0.7805 1.75,1.75 V 9.75 c 0,0.9695 -0.7805,1.75 -1.75,1.75 H 9.75 3.625 c -0.9695,0 -1.75,-0.7805 -1.75,-1.75 V 3.625 c 0,-0.9695 0.7805,-1.75 1.75,-1.75 z M 4.5,4.5 v 0.875 h 7 V 4.5 Z m 0,2.625 V 8 H 9.75 V 7.125 Z"
     fill="#363636"
     fill-rule="evenodd"
     stop-color="#000000"
     stroke-linecap="round"
     stroke-linejoin="round"
     stroke-width="2.3244"
     style="paint-order:stroke fill markers;fill:#f2f2f2;fill-opacity:1"
     id="path1" />
</svg>
