<?xml version="1.0" encoding="UTF-8" standalone="no"?>
<svg
   width="16"
   height="16"
   version="1.1"
   id="svg1"
   sodipodi:docname="safety-symbolic.svg"
   inkscape:version="1.4.2 (unknown)"
   xmlns:inkscape="http://www.inkscape.org/namespaces/inkscape"
   xmlns:sodipodi="http://sodipodi.sourceforge.net/DTD/sodipodi-0.dtd"
   xmlns="http://www.w3.org/2000/svg"
   xmlns:svg="http://www.w3.org/2000/svg">
  <defs
     id="defs1" />
  <sodipodi:namedview
     id="namedview1"
     pagecolor="#ffffff"
     bordercolor="#000000"
     borderopacity="0.25"
     inkscape:showpageshadow="2"
     inkscape:pageopacity="0.0"
     inkscape:pagecheckerboard="0"
     inkscape:deskcolor="#d1d1d1"
     inkscape:zoom="47.25"
     inkscape:cx="8"
     inkscape:cy="8"
     inkscape:current-layer="svg1" />
  <path
     d="m 2.8800453,2 v 6.826608 c 0,1.76809 1.344415,3.005246 2.5066458,3.813347 0.718901,0.496174 1.4875177,0.916213 2.2933133,1.253364 L 8.0000019,14 8.3199988,13.893319 c 0,0 1.1353504,-0.464214 2.2933132,-1.279992 1.159669,-0.814923 2.506643,-2.042434 2.506643,-3.7866338 V 2.0000857 Z M 3.7333715,2.8533257 H 12.266627 V 3.3499874 L 12.223308,3.3966556 8.0000274,7.619936 5.5867358,5.2066444 4.9834085,5.8099716 8.0000867,8.8266498 12.266722,4.5600198 v 4.26663 c 0,2.5292582 -4.2666353,4.2666302 -4.2666353,4.2666302 0,0 -4.2666302,-1.663989 -4.2666302,-4.2666302 z"
     fill="#dedede"
     id="path1"
     style="stroke-width:0.99999;fill:#f2f2f2;fill-opacity:1" />
</svg>
