<?xml version="1.0" encoding="UTF-8" standalone="no"?>
<svg
   width="16px"
   height="16px"
   version="1.1"
   viewBox="0 0 16 16"
   id="svg2"
   sodipodi:docname="screencast-recorded-symbolic.svg"
   inkscape:version="1.4.2 (unknown)"
   xmlns:inkscape="http://www.inkscape.org/namespaces/inkscape"
   xmlns:sodipodi="http://sodipodi.sourceforge.net/DTD/sodipodi-0.dtd"
   xmlns="http://www.w3.org/2000/svg"
   xmlns:svg="http://www.w3.org/2000/svg">
  <defs
     id="defs2" />
  <sodipodi:namedview
     id="namedview2"
     pagecolor="#ffffff"
     bordercolor="#000000"
     borderopacity="0.25"
     inkscape:showpageshadow="2"
     inkscape:pageopacity="0.0"
     inkscape:pagecheckerboard="0"
     inkscape:deskcolor="#d1d1d1"
     inkscape:zoom="16.705398"
     inkscape:cx="5.6568542"
     inkscape:cy="7.6023332"
     inkscape:current-layer="svg2" />
  <g
     id="g2"
     transform="translate(1.1485335,1)">
    <path
       d="M 5.1385994,7.0049672 A 0.85651888,0.85651888 0 0 0 4.2821663,7.8614008 V 12.143566 A 0.85651888,0.85651888 0 0 0 5.1385994,13 h 5.1386016 a 0.85651888,0.85651888 0 0 0 0.856433,-0.856434 v -0.523562 l 1.441889,0.48007 a 0.85651888,0.85651888 0 0 0 1.12741,-0.812939 V 8.7178338 A 0.85651888,0.85651888 0 0 0 12.575523,7.9048902 L 11.133634,8.3849638 V 7.8614008 A 0.85651888,0.85651888 0 0 0 10.277201,7.0049672 Z m 0,0.8564336 H 10.277201 V 9.5742689 L 12.8465,8.7178338 v 2.5693012 l -2.569299,-0.856434 v 1.712865 H 5.1385994 Z"
       color="#000000"
       fill="#dedede"
       stroke-linecap="round"
       stroke-linejoin="round"
       id="path1"
       style="stroke-width:1;fill:#f2f2f2;fill-opacity:1" />
    <path
       d="M 1.7128664,1 C 0.76393848,1 0,1.7639382 0,2.7128664 V 8.7078991 C 0,9.6568284 0.76393848,10.420769 1.7128664,10.420769 H 3.4257328 V 9.5643353 H 1.7128664 c -0.4744637,0 -0.85643313,-0.3819701 -0.85643313,-0.8564362 V 2.7128664 c 0,-0.4744637 0.38196943,-0.8564328 0.85643313,-0.8564328 h 8.5643346 c 0.474463,0 0.856433,0.3819691 0.856433,0.8564328 v 3.425733 h 0.856433 V 2.7128664 C 11.990067,1.7639382 11.226127,1 10.277201,1 Z"
       fill="#dedede"
       fill-rule="evenodd"
       stop-color="#000000"
       stroke-linecap="round"
       stroke-linejoin="round"
       stroke-width="2"
       id="path2"
       style="fill:#f2f2f2;fill-opacity:1" />
  </g>
</svg>
