<?xml version="1.0" encoding="UTF-8" standalone="no"?>
<svg
   width="16px"
   height="16px"
   version="1.1"
   viewBox="0 0 16 16"
   id="svg3"
   sodipodi:docname="screenshooter-symbolic.svg"
   inkscape:version="1.4.2 (unknown)"
   xmlns:inkscape="http://www.inkscape.org/namespaces/inkscape"
   xmlns:sodipodi="http://sodipodi.sourceforge.net/DTD/sodipodi-0.dtd"
   xmlns="http://www.w3.org/2000/svg"
   xmlns:svg="http://www.w3.org/2000/svg">
  <defs
     id="defs3" />
  <sodipodi:namedview
     id="namedview3"
     pagecolor="#ffffff"
     bordercolor="#000000"
     borderopacity="0.25"
     inkscape:showpageshadow="2"
     inkscape:pageopacity="0.0"
     inkscape:pagecheckerboard="0"
     inkscape:deskcolor="#d1d1d1"
     inkscape:zoom="16.705398"
     inkscape:cx="6.8840025"
     inkscape:cy="20.771729"
     inkscape:current-layer="svg3" />
  <g
     fill="#dedede"
     id="g3"
     transform="matrix(0.85714286,0,0,0.85714286,1.1428571,1.1428571)"
     style="stroke-width:1.16667;fill:#f2f2f2;fill-opacity:1">
    <path
       d="M 3,1 C 1.892,1 1,1.892 1,3 V 5 H 2 V 3 C 2,2.446 2.446,2 3,2 H 5 V 1 Z m 8,0 v 1 h 2 c 0.554,0 1,0.446 1,1 v 2 h 1 V 3 C 15,1.892 14.108,1 13,1 Z M 1,11 v 2 c 0,1.108 0.892,2 2,2 H 5 V 14 H 3 C 2.446,14 2,13.554 2,13 v -2 z m 13,0 v 2 c 0,0.554 -0.446,1 -1,1 h -2 v 1 h 2 c 1.108,0 2,-0.892 2,-2 v -2 z"
       id="path1"
       style="stroke-width:1.16667;fill:#f2f2f2;fill-opacity:1" />
    <path
       d="M 5,5 C 3.892,5 3,5.892 3,7 v 3 c 0,1.108 0.892,2 2,2 h 6 c 1.108,0 2,-0.892 2,-2 V 7 C 13,5.892 12.108,5 11,5 Z m 0,1 h 6 c 0.554,0 1,0.446 1,1 v 3 c 0,0.554 -0.446,1 -1,1 H 5 C 4.446,11 4,10.554 4,10 V 7 C 4,6.446 4.446,6 5,6 Z"
       id="path2"
       style="stroke-width:1.16667;fill:#f2f2f2;fill-opacity:1" />
    <path
       d="M 9.5,7 A 1.5,1.5 0 0 0 8,8.5 1.5,1.5 0 0 0 9.5,10 1.5,1.5 0 0 0 11,8.5 1.5,1.5 0 0 0 9.5,7 Z M 9.488281,8 A 0.5,0.5 0 0 1 9.5,8 0.5,0.5 0 0 1 10,8.5 0.5,0.5 0 0 1 9.5,9 0.5,0.5 0 0 1 9,8.5 0.5,0.5 0 0 1 9.48828,8 Z"
       id="path3"
       style="stroke-width:1.16667;fill:#f2f2f2;fill-opacity:1" />
    <rect
       x="9"
       y="3"
       width="2"
       height="1"
       rx="0"
       ry="0"
       id="rect3"
       style="stroke-width:1.16667;fill:#f2f2f2;fill-opacity:1" />
  </g>
</svg>
