<?xml version="1.0" encoding="UTF-8" standalone="no"?>
<svg
   width="16px"
   height="16px"
   version="1.1"
   viewBox="0 0 16 16"
   id="svg1"
   sodipodi:docname="selection-mode-symbolic.svg"
   inkscape:version="1.4.2 (unknown)"
   xmlns:inkscape="http://www.inkscape.org/namespaces/inkscape"
   xmlns:sodipodi="http://sodipodi.sourceforge.net/DTD/sodipodi-0.dtd"
   xmlns="http://www.w3.org/2000/svg"
   xmlns:svg="http://www.w3.org/2000/svg">
  <defs
     id="defs1" />
  <sodipodi:namedview
     id="namedview1"
     pagecolor="#ffffff"
     bordercolor="#000000"
     borderopacity="0.25"
     inkscape:showpageshadow="2"
     inkscape:pageopacity="0.0"
     inkscape:pagecheckerboard="0"
     inkscape:deskcolor="#d1d1d1"
     inkscape:zoom="23.625"
     inkscape:cx="11.132275"
     inkscape:cy="12.698413"
     inkscape:current-layer="svg1" />
  <path
     d="M 8.000002,2.0000375 A 5.9999855,5.9999855 0 0 0 2.0000165,8.0000233 5.9999855,5.9999855 0 0 0 8.000002,14 5.9999855,5.9999855 0 0 0 13.999984,8.0000233 5.9999855,5.9999855 0 0 0 13.702624,6.1382276 L 13.096191,6.7446683 A 5.2499876,5.2499876 0 0 1 13.249995,8.0000157 5.2499876,5.2499876 0 0 1 8.0000102,13.249995 5.2499876,5.2499876 0 0 1 2.7500222,8.0000157 5.2499876,5.2499876 0 0 1 8.0000102,2.7500283 5.2499876,5.2499876 0 0 1 12.025395,4.6337985 L 12.558609,4.1005953 A 5.9999855,5.9999855 0 0 0 8.0000395,2 Z m 5.45947,2.4155193 c -0.09587,0 -0.191693,0.036417 -0.265149,0.1098618 L 7.6249877,10.094753 4.7084702,7.1782355 c -0.1469031,-0.146902 -0.3833691,-0.146902 -0.5302712,0 -0.1469017,0.146902 -0.1469017,0.3833684 0,0.5302709 l 3.1816422,3.1816456 c 0.018363,0.01839 0.037776,0.03454 0.058599,0.04838 0.020816,0.01377 0.04336,0.02453 0.065926,0.03369 0.022565,0.0091 0.045232,0.01595 0.068841,0.02052 0.023607,0.0051 0.047822,0.0068 0.071781,0.0068 0.023955,0 0.04817,-0.003 0.071781,-0.0068 0.023608,-0.0051 0.046275,-0.01134 0.068841,-0.02052 0.022565,-0.0091 0.0451,-0.01987 0.065926,-0.03369 0.020817,-0.01379 0.040239,-0.02997 0.0586,-0.04838 L 13.724571,5.0556886 c 0.14691,-0.1469025 0.14691,-0.3833702 0,-0.5302721 -0.0735,-0.073453 -0.169274,-0.1098595 -0.265128,-0.1098595 z"
     fill="#dedede"
     id="path1"
     style="stroke-width:0.999987;fill:#f2f2f2;fill-opacity:1" />
</svg>
