<?xml version="1.0" encoding="UTF-8" standalone="no"?>
<svg
   width="16px"
   height="16px"
   version="1.1"
   viewBox="0 0 16 16"
   id="svg1"
   sodipodi:docname="screenshot-ui-show-pointer-symbolic.svg"
   inkscape:version="1.4.2 (unknown)"
   xmlns:inkscape="http://www.inkscape.org/namespaces/inkscape"
   xmlns:sodipodi="http://sodipodi.sourceforge.net/DTD/sodipodi-0.dtd"
   xmlns="http://www.w3.org/2000/svg"
   xmlns:svg="http://www.w3.org/2000/svg">
  <defs
     id="defs1" />
  <sodipodi:namedview
     id="namedview1"
     pagecolor="#ffffff"
     bordercolor="#000000"
     borderopacity="0.25"
     inkscape:showpageshadow="2"
     inkscape:pageopacity="0.0"
     inkscape:pagecheckerboard="0"
     inkscape:deskcolor="#d1d1d1"
     inkscape:zoom="23.625"
     inkscape:cx="6.2645503"
     inkscape:cy="4.0634921"
     inkscape:current-layer="svg1" />
  <path
     d="m 3.4172695,1.9924999 2.0728696,11.3253441 2.7760856,-2.05607 1.7614233,2.270386 c 0.884017,1.228979 2.69902,-0.180832 1.724564,-1.339475 L 10.024306,9.9691043 12.582731,8.1038653 3.4176979,1.9924999 Z M 4.6261865,3.8275642 11.084144,8.1339553 9.5186049,9.2758339 A 0.85735198,0.85735198 0 0 0 9.3478202,10.494781 l 1.7279058,2.223575 a 0.85735198,0.85735198 0 0 0 0.02007,0.02681 c 0.104123,0.123799 0.08303,0.138819 0.07702,0.174129 -0.006,0.03534 -0.04331,0.107246 -0.112179,0.160737 -0.06889,0.05349 -0.147673,0.07327 -0.184174,0.07031 -0.03653,-0.0031 -0.05794,0.01244 -0.152372,-0.118876 a 0.85735198,0.85735198 0 0 0 -0.01844,-0.02511 L 8.9442708,10.735957 A 0.85735198,0.85735198 0 0 0 7.7554996,10.573549 l -1.6693547,1.23566 -1.46001,-7.9815765 z"
     fill="#dedede"
     id="path1"
     style="stroke-width:0.999997;fill:#f2f2f2;fill-opacity:1" />
</svg>
