<?xml version="1.0" encoding="UTF-8" standalone="no"?>
<svg
   height="16"
   width="16"
   version="1.1"
   id="svg1"
   sodipodi:docname="send-to-symbolic.svg"
   inkscape:version="1.4.2 (unknown)"
   xmlns:inkscape="http://www.inkscape.org/namespaces/inkscape"
   xmlns:sodipodi="http://sodipodi.sourceforge.net/DTD/sodipodi-0.dtd"
   xmlns="http://www.w3.org/2000/svg"
   xmlns:svg="http://www.w3.org/2000/svg">
  <defs
     id="defs1" />
  <sodipodi:namedview
     id="namedview1"
     pagecolor="#ffffff"
     bordercolor="#000000"
     borderopacity="0.25"
     inkscape:showpageshadow="2"
     inkscape:pageopacity="0.0"
     inkscape:pagecheckerboard="0"
     inkscape:deskcolor="#d1d1d1"
     inkscape:zoom="23.625"
     inkscape:cx="9.7989418"
     inkscape:cy="5.5449735"
     inkscape:current-layer="svg1" />
  <path
     d="M 13.600003,3.9999994 C 13.600003,2.9 12.700003,2 11.599991,2 A 2.0064,2.0064 0 0 0 9.599997,3.9999994 c 0,1.1000011 0.9,2.0000009 1.999994,2.0000009 1.100012,0 2.000012,-0.8999998 2.000012,-2.0000009 z m 0,8.0000066 c 0,-1.100008 -0.9,-2.0000063 -2.000012,-2.0000063 A 2.0064,2.0064 0 0 0 9.599997,12.000006 c 0,1.099994 0.9,1.999994 1.999994,1.999994 1.100012,0 2.000012,-0.9 2.000012,-1.999994 z M 12.799991,3.9999994 c 0,0.6672 -0.5328,1.2000001 -1.2,1.2000001 -0.667198,0 -1.199996,-0.5328001 -1.199996,-1.2000001 0,-0.6672 0.532798,-1.1999994 1.199996,-1.1999994 0.6672,0 1.2,0.5327994 1.2,1.1999994 z m 0,8.0000066 c 0,0.6672 -0.5328,1.2 -1.2,1.2 -0.667198,0 -1.199996,-0.5328 -1.199996,-1.2 0,-0.667203 0.532798,-1.200004 1.199996,-1.200004 0.6672,0 1.2,0.532801 1.2,1.200004 z M 9.3871966,5.6880003 A 2.796,2.796 0 0 1 8.991997,4.9904 L 5.9095965,6.7047996 A 1.9896,1.9896 0 0 0 4.3999964,6.0000003 2.0064,2.0064 0 0 0 2.399997,8 c 0,1.0999996 0.9,1.9999997 1.9999994,1.9999997 0.6040006,0 1.1416006,-0.2775999 1.5096001,-0.7039997 l 3.0824005,1.7136 c 0.0976,-0.252798 0.2319996,-0.4848 0.3951996,-0.696799 L 6.2991973,8.5968 c 0.0584,-0.1888 0.1008,-0.388 0.1008,-0.5968 0,-0.2088 -0.041594,-0.4072004 -0.1016008,-0.5968004 z M 5.5999965,8 c 0,0.6672 -0.5328001,1.2 -1.2000001,1.2 -0.6672,0 -1.2,-0.5328 -1.2,-1.2 0,-0.6672 0.5328,-1.2 1.2,-1.2 0.6672,0 1.2000001,0.5328 1.2000001,1.2 z"
     style="line-height:normal;font-variant-ligatures:normal;font-variant-position:normal;font-variant-caps:normal;font-variant-numeric:normal;font-variant-alternates:normal;font-feature-settings:normal;text-indent:0;text-align:start;text-decoration-line:none;text-decoration-style:solid;text-decoration-color:#000000;text-transform:none;text-orientation:mixed;shape-padding:0;isolation:auto;mix-blend-mode:normal;stroke-width:0.999997;fill:#f2f2f2;fill-opacity:1"
     color="#000000"
     font-weight="400"
     font-family="sans-serif"
     white-space="normal"
     overflow="visible"
     fill="#dedede"
     id="path1" />
</svg>
