<?xml version="1.0" encoding="UTF-8" standalone="no"?>
<svg
   version="1.1"
   viewBox="0 0 16 16"
   id="svg1"
   sodipodi:docname="sign-language-symbolic.svg"
   inkscape:version="1.4.2 (unknown)"
   xmlns:inkscape="http://www.inkscape.org/namespaces/inkscape"
   xmlns:sodipodi="http://sodipodi.sourceforge.net/DTD/sodipodi-0.dtd"
   xmlns="http://www.w3.org/2000/svg"
   xmlns:svg="http://www.w3.org/2000/svg">
  <defs
     id="defs1" />
  <sodipodi:namedview
     id="namedview1"
     pagecolor="#ffffff"
     bordercolor="#000000"
     borderopacity="0.25"
     inkscape:showpageshadow="2"
     inkscape:pageopacity="0.0"
     inkscape:pagecheckerboard="0"
     inkscape:deskcolor="#d1d1d1"
     inkscape:zoom="23.625"
     inkscape:cx="7.2804233"
     inkscape:cy="11.005291"
     inkscape:current-layer="svg1" />
  <path
     d="m 10.925,5.9000001 c -0.102,0 -0.204,0.012 -0.3,0.036 v -1.836 C 10.625,3.4400001 10.085,2.9 9.4250003,2.9 9.3110002,2.9 9.2330003,2.918 9.1250002,2.948 9.0110003,2.402 8.6510002,2 8.0750002,2 7.5470001,2 7.0370001,2.282 6.8750001,2.75 c -0.114,-0.036 -0.174,0 -0.3,0 -0.66,0 -1.2,0.54 -1.2,1.2000001 v 0.486 c -0.096,-0.024 -0.2730001,-0.036 -0.375,-0.036 -0.66,0 -1.125,0.54 -1.125,1.2 V 9.8000003 C 3.8750001,12.122 5.6030001,14 7.9250002,14 10.247,14 12.125,12.122 12.125,9.8000003 V 7.1000002 c 0,-0.66 -0.54,-1.2000001 -1.2,-1.2000001 z m 0.45,3.9000002 C 11.375,11.624 9.7490003,13.25 7.9250001,13.25 6.1010001,13.25 4.625,11.624 4.625,9.8000003 V 5.3525001 c 0,-0.168 0.207,-0.3525 0.375,-0.3525 0.168,0 0.375,0.1845 0.375,0.3525 V 8.0000002 H 6.1250001 V 3.8525001 c 0,-0.168 0.207,-0.3525 0.375,-0.3525 0.168,0 0.375,0.1845 0.375,0.3525 v 3.3975001 h 0.75 V 3.1025 c 0,-0.168 0.207,-0.3525 0.3750001,-0.3525 0.168,0 0.375,0.1845 0.375,0.3525 v 4.1475002 h 0.75 V 3.87875 c 0,-0.1679999 0.2070001,-0.3787499 0.375,-0.3787499 0.1680001,0 0.375,0.21075 0.375,0.3787499 v 5.0212503 c -0.8819999,0.354 -1.5,1.3499997 -1.5,2.0999997 h 0.75 c 0,-0.828 0.6720001,-1.4999997 1.4999998,-1.4999997 V 6.8262501 c 0,-0.1679999 0.207,-0.3262499 0.375,-0.3262499 0.168,0 0.375,0.15825 0.375,0.3262499 z"
     fill="#808080"
     stroke-width="0.8"
     id="path1"
     style="fill:#f2f2f2;fill-opacity:1" />
</svg>
