<?xml version="1.0" encoding="UTF-8" standalone="no"?>
<svg
   width="16px"
   height="16.004px"
   version="1.1"
   viewBox="0 0 16 16.004"
   id="svg2"
   sodipodi:docname="thunderbolt-access-symbolic.svg"
   inkscape:version="1.4.2 (unknown)"
   xmlns:inkscape="http://www.inkscape.org/namespaces/inkscape"
   xmlns:sodipodi="http://sodipodi.sourceforge.net/DTD/sodipodi-0.dtd"
   xmlns="http://www.w3.org/2000/svg"
   xmlns:svg="http://www.w3.org/2000/svg">
  <defs
     id="defs2" />
  <sodipodi:namedview
     id="namedview2"
     pagecolor="#ffffff"
     bordercolor="#000000"
     borderopacity="0.25"
     inkscape:showpageshadow="2"
     inkscape:pageopacity="0.0"
     inkscape:pagecheckerboard="0"
     inkscape:deskcolor="#d1d1d1"
     inkscape:zoom="23.619096"
     inkscape:cx="12.320539"
     inkscape:cy="9.1028041"
     inkscape:current-layer="svg2" />
  <g
     id="g2"
     transform="matrix(0.8125,0,0,0.8125,1.5,1.5019999)"
     style="stroke-width:1.23076">
    <path
       d="M 7.5469,0 4.5,8 H 8.2148 L 6.4101,11.6133 5.3984,10.4102 5.04684,16 l 4.332,-3.5859 -1.6719,-0.17187 4.3398,-6.2422 h -3.6953 l 3.1953,-6 H 7.99984 Z M 8.2344,1 H 9.8809 L 6.6856,7 H 5.94927 Z"
       fill="#dedede"
       id="path1"
       style="fill:#f4f4f4;fill-opacity:1;stroke-width:1.23076" />
    <path
       d="M 5.9824,1.3008 A 7,7 0 0 0 1,8 7,7 0 0 0 4.1797,13.8613 L 4.253919,12.666 A 6,6 0 0 1 2.000019,8 6,6 0 0 1 5.503919,2.5605 l 0.47852,-1.2598 z m 5.6309,0.70312 -0.47266,0.88672 a 6,6 0 0 1 2.8594,5.1094 6,6 0 0 1 -4.8086,5.8652 l -1.3555,1.123 A 7,7 0 0 0 8,14.999959 a 7,7 0 0 0 7,-7 7,7 0 0 0 -3.3867,-5.9961 z"
       fill="#dedede"
       stroke-linecap="round"
       stroke-linejoin="round"
       stroke-width="2.46156"
       id="path2"
       style="fill:#f4f4f4;fill-opacity:1" />
  </g>
</svg>
