<?xml version="1.0" encoding="UTF-8" standalone="no"?>
<svg
   clip-rule="evenodd"
   fill-rule="evenodd"
   stroke-linejoin="round"
   stroke-miterlimit="2"
   viewBox="0 0 16 16"
   version="1.1"
   id="svg2"
   sodipodi:docname="tool-filters-symbolic.svg"
   inkscape:version="1.4.2 (unknown)"
   xmlns:inkscape="http://www.inkscape.org/namespaces/inkscape"
   xmlns:sodipodi="http://sodipodi.sourceforge.net/DTD/sodipodi-0.dtd"
   xmlns="http://www.w3.org/2000/svg"
   xmlns:svg="http://www.w3.org/2000/svg">
  <defs
     id="defs2" />
  <sodipodi:namedview
     id="namedview2"
     pagecolor="#ffffff"
     bordercolor="#000000"
     borderopacity="0.25"
     inkscape:showpageshadow="2"
     inkscape:pageopacity="0.0"
     inkscape:pagecheckerboard="0"
     inkscape:deskcolor="#d1d1d1"
     inkscape:zoom="23.625"
     inkscape:cx="8.6560847"
     inkscape:cy="9.0582011"
     inkscape:current-layer="svg2" />
  <g
     fill="#dfdfdf"
     id="g2"
     transform="matrix(0.89669421,0,0,0.89669421,0.82644632,0.82644632)"
     style="stroke-width:1.1152;fill:#f2f2f2;fill-opacity:1">
    <path
       d="M 3.082,0.74 H 5.926 V 1.777 H 6.963 V 2.814 H 5.926 V 3.851 H 6.963 V 4.889 H 5.926 V 5.926 H 6.963 V 6.963 H 5.926 V 8 H 6.963 V 9.037 H 5.926 v 1.037 h 1.037 v 1.037 H 5.926 v 1.038 h 1.037 v 1.037 H 5.926 v 1.037 H 6.963 V 15.26 H 3.082 C 1.789,15.26 0.74,14.211 0.74,12.918 V 3.082 C 0.74,1.789 1.789,0.74 3.082,0.74 Z m 3.881,0 H 8 V 1.777 H 6.963 Z m 2.074,0 h 1.037 V 1.777 H 9.037 Z m 2.074,14.52 h -1.037 v -1.037 h 1.037 z m -2.074,0 H 8 V 14.223 H 9.037 Z M 8,1.777 H 9.037 V 2.814 H 8 Z m 2.074,0 h 1.037 v 1.037 h -1.037 z m 0,1.037 V 3.851 H 9.037 V 2.814 Z m 0,1.037 h 1.037 v 1.038 h -1.037 z m 0,1.038 V 5.926 H 9.037 V 4.889 Z m 0,1.037 h 1.037 v 1.037 h -1.037 z m 0,1.037 V 8 H 9.037 V 6.963 Z m 0,1.037 h 1.037 v 1.037 h -1.037 z m 0,1.037 v 1.037 H 9.037 V 9.037 Z m 0,1.037 h 1.037 v 1.037 h -1.037 z m 0,1.037 v 1.038 H 9.037 v -1.038 z m 0,1.038 h 1.037 v 1.037 h -1.037 z m 0,1.037 v 1.037 H 9.037 V 13.186 Z M 8,14.223 H 6.963 V 13.186 H 8 Z M 6.963,2.814 H 8 V 3.851 H 6.963 Z m 0,2.075 H 8 V 5.926 H 6.963 Z M 8,4.889 V 3.851 H 9.037 V 4.889 Z M 6.963,6.963 H 8 V 8 H 6.963 Z M 8,6.963 V 5.926 H 9.037 V 6.963 Z M 6.963,9.037 H 8 v 1.037 H 6.963 Z M 8,9.037 V 8 H 9.037 V 9.037 Z M 6.963,11.111 H 8 v 1.038 H 6.963 Z m 1.037,0 v -1.037 h 1.037 v 1.037 z m 0,2.075 v -1.037 h 1.037 v 1.037 z"
       id="path1"
       style="stroke-width:1.1152;fill:#f2f2f2;fill-opacity:1" />
    <path
       d="M 12.918,15.26 H 11.111 V 0.74 h 1.807 c 1.293,0 2.342,1.049 2.342,2.342 v 9.836 c 0,1.293 -1.049,2.342 -2.342,2.342 z"
       fill-opacity="0.3"
       id="path2"
       style="stroke-width:1.12294;fill:#f2f2f2;fill-opacity:1" />
  </g>
</svg>
