<?xml version="1.0" encoding="UTF-8" standalone="no"?>
<svg
   width="16"
   height="16"
   version="1.1"
   id="svg3"
   sodipodi:docname="twitter-home-symbolic.svg"
   inkscape:version="1.4.2 (unknown)"
   xmlns:inkscape="http://www.inkscape.org/namespaces/inkscape"
   xmlns:sodipodi="http://sodipodi.sourceforge.net/DTD/sodipodi-0.dtd"
   xmlns="http://www.w3.org/2000/svg"
   xmlns:svg="http://www.w3.org/2000/svg">
  <defs
     id="defs3" />
  <sodipodi:namedview
     id="namedview3"
     pagecolor="#ffffff"
     bordercolor="#000000"
     borderopacity="0.25"
     inkscape:showpageshadow="2"
     inkscape:pageopacity="0.0"
     inkscape:pagecheckerboard="0"
     inkscape:deskcolor="#d1d1d1"
     inkscape:zoom="16.705398"
     inkscape:cx="3.3522099"
     inkscape:cy="6.4051154"
     inkscape:current-layer="svg3" />
  <g
     fill="#dedede"
     id="g3"
     transform="matrix(0.85573378,0,0,0.85573378,1.1541962,0.83323299)"
     style="stroke-width:1.16859;fill:#f2f2f2;fill-opacity:1">
    <rect
       transform="rotate(-45)"
       x="-4.8736"
       y="6.1873002"
       width="10"
       height="1"
       rx="0"
       ry="0"
       stroke-linecap="round"
       stroke-width="2.33717"
       id="rect1"
       style="fill:#f2f2f2;fill-opacity:1" />
    <rect
       transform="matrix(-0.70711,-0.70711,-0.70711,0.70711,0,0)"
       x="-16.187"
       y="-5.1264"
       width="10"
       height="1"
       rx="0"
       ry="0"
       stroke-linecap="round"
       stroke-width="2.33717"
       id="rect2"
       style="fill:#f2f2f2;fill-opacity:1" />
    <path
       d="M 1.9941,7.0001 2.00387,7.095803 C 1.985953,6.909563 1.981335,6.928453 2.00582,7.144631 l 0.67578,5.9687 c 0.079797,0.70436 0.31177,1.3721 0.74414,1.9199 0.43237,0.54786 1.1317,0.9668 1.918,0.9668 h 5.3125 c 0.78623,0 1.4856,-0.41893 1.918,-0.9668 0.43237,-0.54786 0.66434,-1.2156 0.74414,-1.9199 l 0.67578,-5.9707 c 0.02396,-0.21345 0.01906,-0.23158 0.002,-0.048828 l 0.0078,-0.09375 h -1.0039 c -10e-4,0.01065 0.0012,0.020561 0,0.03125 l -0.67578,5.9687 c -0.12473,1.101 -0.74464,2 -1.668,2 h -5.3125 c -0.92333,0 -1.5432,-0.89904 -1.668,-2 L 3,7.031303 C 2.99879,7.020614 3.00102,7.010703 3,7.000053 Z"
       color="#000000"
       color-rendering="auto"
       dominant-baseline="auto"
       image-rendering="auto"
       shape-rendering="auto"
       solid-color="#000000"
       stop-color="#000000"
       style="font-variant-ligatures:normal;font-variant-position:normal;font-variant-caps:normal;font-variant-numeric:normal;font-variant-alternates:normal;font-variant-east-asian:normal;font-feature-settings:normal;font-variation-settings:normal;text-indent:0;text-decoration-line:none;text-decoration-style:solid;text-decoration-color:#000000;text-transform:none;text-orientation:mixed;white-space:normal;shape-padding:0;shape-margin:0;inline-size:0;isolation:auto;mix-blend-mode:normal;stroke-width:1.17629;fill:#f2f2f2;fill-opacity:1"
       id="path2" />
    <path
       d="m 7.9492,7.0001 a 3,3 0 0 0 -2.9492,3 3,3 0 0 0 3,3 3,3 0 0 0 3,-3 3,3 0 0 0 -3,-3 3,3 0 0 0 -0.050781,0 z m 0.00195,1 a 2,2 0 0 1 0.048828,0 2,2 0 0 1 2,2 2,2 0 0 1 -2,2 2,2 0 0 1 -2,-2 2,2 0 0 1 1.9512,-2 z"
       id="path3"
       style="stroke-width:1.16859;fill:#f2f2f2;fill-opacity:1" />
  </g>
</svg>
