<?xml version="1.0" encoding="UTF-8" standalone="no"?>
<svg
   width="16"
   height="16"
   version="1.1"
   id="svg1"
   sodipodi:docname="view-list-images-symbolic.svg"
   inkscape:version="1.4.2 (unknown)"
   xmlns:inkscape="http://www.inkscape.org/namespaces/inkscape"
   xmlns:sodipodi="http://sodipodi.sourceforge.net/DTD/sodipodi-0.dtd"
   xmlns="http://www.w3.org/2000/svg"
   xmlns:svg="http://www.w3.org/2000/svg">
  <defs
     id="defs1" />
  <sodipodi:namedview
     id="namedview1"
     pagecolor="#ffffff"
     bordercolor="#000000"
     borderopacity="0.25"
     inkscape:showpageshadow="2"
     inkscape:pageopacity="0.0"
     inkscape:pagecheckerboard="0"
     inkscape:deskcolor="#d1d1d1"
     inkscape:zoom="23.625"
     inkscape:cx="10.201058"
     inkscape:cy="9.8624339"
     inkscape:current-layer="svg1" />
  <path
     class="ColorScheme-Text"
     d="M 2.461539,2 C 1.4387696,2 0.615385,2.823385 0.615385,3.846154 V 12.15385 C 0.615385,13.176618 1.4387696,14 2.461539,14 h 11.076926 c 1.02277,0 1.84615,-0.823382 1.84615,-1.84615 V 3.846154 C 15.384615,2.823385 14.561235,2 13.538465,2 Z m 0,0.923077 h 11.076926 c 0.51138,0 0.92307,0.411692 0.92307,0.923077 V 12.15385 L 9.8461541,7.5384615 6.6344001,11.23077 4.307693,9.3846153 1.5384619,12.15385 V 3.846154 c 0,-0.511385 0.4116921,-0.923077 0.9230771,-0.923077 z m 2.307692,1.846154 c -0.7647045,0 -1.384615,0.6199105 -1.384615,1.384615 0,0.764705 0.6199105,1.3846155 1.384615,1.3846155 0.764705,0 1.3846155,-0.6199105 1.3846155,-1.3846155 0,-0.7647045 -0.6199105,-1.384615 -1.3846155,-1.384615 z"
     fill="#dedede"
     id="path1"
     style="stroke-width:0.999997;fill:#f1f1f1;fill-opacity:1" />
</svg>
