<?xml version="1.0" encoding="UTF-8" standalone="no"?>
<svg
   version="1.1"
   viewBox="0 0 22 22"
   id="svg5"
   sodipodi:docname="view-sort.svg"
   inkscape:version="1.4.2 (unknown)"
   xmlns:inkscape="http://www.inkscape.org/namespaces/inkscape"
   xmlns:sodipodi="http://sodipodi.sourceforge.net/DTD/sodipodi-0.dtd"
   xmlns="http://www.w3.org/2000/svg"
   xmlns:svg="http://www.w3.org/2000/svg">
  <defs
     id="defs5" />
  <sodipodi:namedview
     id="namedview5"
     pagecolor="#ffffff"
     bordercolor="#000000"
     borderopacity="0.25"
     inkscape:showpageshadow="2"
     inkscape:pageopacity="0.0"
     inkscape:pagecheckerboard="0"
     inkscape:deskcolor="#d1d1d1"
     inkscape:zoom="34.363636"
     inkscape:cx="10.98545"
     inkscape:cy="11"
     inkscape:current-layer="svg5" />
  <style
     id="current-color-scheme"
     type="text/css">.ColorScheme-Text{color:#dedede;}</style>
  <g
     id="g5">
    <rect
       transform="scale(1,-1)"
       x="15"
       y="-17"
       width="0.99998999"
       height="13"
       ry="2.4076999e-07"
       id="rect1"
       style="color:#dedede;fill:#dedede"
       rx="2.4076999e-07" />
    <path
       d="m 15.5,19 -3.5,-3.5 0.70704,-0.70704 2.293,2.293 v -4.086 h 0.99999 v 4.086 l 2.293,-2.293 0.70704,0.70704 z"
       id="path1"
       style="color:#dedede;fill:#dedede" />
  </g>
  <path
     d="M 5,4 C 4.446,4 4.00001,4.44598 4.00001,4.99999 v 1 c 0,0.554 0.44598,0.99999 0.99999,0.99999 h 3.9999 c 0.554,0 0.99999,-0.44598 0.99999,-0.99999 v -1 C 9.99989,4.44599 9.55391,4 8.9999,4 Z m 0,0.99999 h 3.9999 v 1 H 5 Z"
     id="path2"
     style="color:#dedede;fill:#dedede" />
  <path
     d="M 5,8 C 4.446,8 4.00001,8.44598 4.00001,8.99999 v 1 c 0,0.554 0.44598,0.99999 0.99999,0.99999 h 3.9999 c 0.554,0 0.99999,-0.44598 0.99999,-0.99999 v -1 C 9.99989,8.44599 9.55391,8 8.9999,8 Z m 0,0.99999 h 3.9999 v 1 H 5 Z"
     id="path3"
     style="color:#dedede;fill:#dedede" />
  <path
     d="m 5,12 c -0.554,0 -0.99999,0.44598 -0.99999,0.99999 v 1 c 0,0.554 0.44598,0.99999 0.99999,0.99999 h 3.9999 c 0.554,0 0.99999,-0.44598 0.99999,-0.99999 v -1 C 9.99989,12.44599 9.55391,12 8.9999,12 Z m 0,0.99999 h 3.9999 v 1 H 5 Z"
     id="path4"
     style="color:#dedede;fill:#dedede" />
  <path
     d="m 5,16 c -0.554,0 -0.99999,0.44598 -0.99999,0.99999 v 1 c 0,0.554 0.44598,0.99999 0.99999,0.99999 h 3.9999 c 0.554,0 0.99999,-0.44598 0.99999,-0.99999 v -1 C 9.99989,16.44599 9.55391,16 8.9999,16 Z m 0,0.99999 h 3.9999 v 1 H 5 Z"
     id="path5"
     style="color:#dedede;fill:#dedede" />
</svg>
