<?xml version="1.0" encoding="UTF-8" standalone="no"?>
<svg
   width="16"
   height="16"
   version="1.1"
   viewBox="0 0 16 16"
   id="svg1"
   sodipodi:docname="webpage-symbolic.svg"
   inkscape:version="1.4.2 (unknown)"
   xmlns:inkscape="http://www.inkscape.org/namespaces/inkscape"
   xmlns:sodipodi="http://sodipodi.sourceforge.net/DTD/sodipodi-0.dtd"
   xmlns="http://www.w3.org/2000/svg"
   xmlns:svg="http://www.w3.org/2000/svg">
  <sodipodi:namedview
     id="namedview1"
     pagecolor="#ffffff"
     bordercolor="#000000"
     borderopacity="0.25"
     inkscape:showpageshadow="2"
     inkscape:pageopacity="0.0"
     inkscape:pagecheckerboard="0"
     inkscape:deskcolor="#d1d1d1"
     inkscape:zoom="16.705398"
     inkscape:cx="9.667534"
     inkscape:cy="8.260803"
     inkscape:current-layer="svg1" />
  <defs
     id="defs1">
    <style
       id="current-color-scheme"
       type="text/css">.ColorScheme-Text { color:#dedede; }</style>
  </defs>
  <path
     d="m 7.9999015,1.9984575 a 6.0004336,6.0004336 0 0 0 -0.1142633,0.00439 l -0.0015,0.00147 a 6.0004336,6.0004336 0 0 0 -0.026329,0.00147 6.1275678,6.1275678 0 0 0 -0.021974,-0.00147 6.0004336,6.0004336 0 0 0 -0.073248,0.00586 6.0004336,6.0004336 0 0 0 -0.5054113,0.039553 6.0004336,6.0004336 0 0 0 -0.076175,0.01172 6.0004336,6.0004336 0 0 0 -0.4980809,0.089361 6.0004336,6.0004336 0 0 0 -0.1186585,0.029299 6.0004336,6.0004336 0 0 0 -0.4761118,0.1377024 6.0004336,6.0004336 0 0 0 -0.057133,0.020509 6.0004336,6.0004336 0 0 0 -0.5141994,0.2036247 6.0004336,6.0004336 0 0 0 -0.01172,0.00586 6.0004336,6.0004336 0 0 0 -0.5171248,0.266622 6.0004336,6.0004336 0 0 0 -0.024906,0.016114 6.0004336,6.0004336 0 0 0 -0.48197,0.3149627 6.0004336,6.0004336 0 0 0 -0.010256,0.00732 6.0004336,6.0004336 0 0 0 -0.4438815,0.3574453 6.0004336,6.0004336 0 0 0 -0.054203,0.049809 6.0004336,6.0004336 0 0 0 -0.3750271,0.3691686 6.0004336,6.0004336 0 0 0 -0.046878,0.052738 6.0004336,6.0004336 0 0 0 -0.3442596,0.4160471 6.0004336,6.0004336 0 0 0 -0.019046,0.027833 6.0004336,6.0004336 0 0 0 -0.3091051,0.4570684 6.0004336,6.0004336 0 0 0 -0.045414,0.077646 6.0004336,6.0004336 0 0 0 -0.2358546,0.4394864 6.0004336,6.0004336 0 0 0 -0.046878,0.1040103 6.0004336,6.0004336 0 0 0 -0.1919089,0.4673214 6.0004336,6.0004336 0 0 0 -0.01758,0.051273 6.0004336,6.0004336 0 0 0 -0.152351,0.5024763 6.0004336,6.0004336 0 0 0 -0.048343,0.2006995 c 0.001,4.22e-4 0.00194,0.00101 0.00294,0.00152 a 6.0004336,6.0004336 0 0 0 -0.013189,0.062946 6.0004336,6.0004336 0 0 0 -0.070318,0.4145756 6.0004336,6.0004336 0 0 0 -0.024904,0.2036247 6.0004336,6.0004336 0 0 0 -0.030764,0.4629258 6.0004336,6.0004336 0 0 0 -0.00439,0.1274492 6.0004336,6.0004336 0 0 0 3.4396737,5.4188404 6.0004336,6.0004336 0 0 0 0.00884,0.0055 6.0004336,6.0004336 0 0 0 0.2915236,0.130382 v 0.0019 a 6.0004336,6.0004336 0 0 0 0.00736,0.0036 6.0004336,6.0004336 0 0 0 0.4629261,0.162612 6.0004336,6.0004336 0 0 0 0.1157332,0.03801 6.0004336,6.0004336 0 0 0 0.4043243,0.09816 6.0004336,6.0004336 0 0 0 0.1933716,0.04251 6.0004336,6.0004336 0 0 0 0.3852801,0.05425 6.0004336,6.0004336 0 0 0 0.2080201,0.02483 6.0004336,6.0004336 0 0 0 0.4834325,0.02206 6.0004336,6.0004336 0 0 0 0.4966185,-0.02342 v -0.0019 a 6.0004336,6.0004336 0 0 0 0.010256,0 6.0004336,6.0004336 0 0 0 0.5522876,-0.07478 6.0004336,6.0004336 0 0 0 0.042485,-0.006 6.0004336,6.0004336 0 0 0 0.00884,-0.0019 6.0004336,6.0004336 0 0 0 0.574264,-0.139177 6.0004336,6.0004336 0 0 0 2.7409236,-1.712522 6.0004336,6.0004336 0 0 0 0.01471,-0.01619 6.0004336,6.0004336 0 0 0 0.149426,-0.159674 6.0004336,6.0004336 0 0 0 0.0019,-0.0035 c -0.0048,0.0018 -0.0071,0.0035 -0.01166,0.0054 A 6.0004336,6.0004336 0 0 0 14.000522,7.9992976 6.0004336,6.0004336 0 0 0 13.804215,6.5065397 c 0.0012,-3.04e-5 0.0024,3.01e-5 0.0036,0 a 6.0004336,6.0004336 0 0 0 -0.01616,-0.04834 6.0004336,6.0004336 0 0 0 -0.0036,-0.010257 6.0004336,6.0004336 0 0 0 -0.145031,-0.465851 6.0004336,6.0004336 0 0 0 -0.03219,-0.089362 6.0004336,6.0004336 0 0 0 -0.826261,-1.5045336 6.0004336,6.0004336 0 0 0 -0.02206,-0.027833 6.0004336,6.0004336 0 0 0 -0.01749,-0.021977 6.0004336,6.0004336 0 0 0 -0.776497,-0.8306043 6.0004336,6.0004336 0 0 0 -0.03524,-0.029304 6.0004336,6.0004336 0 0 0 -0.0062,-0.00736 6.0004336,6.0004336 0 0 0 -0.424253,-0.3356876 6.0004336,6.0004336 0 0 0 -0.05273,-0.038089 6.0004336,6.0004336 0 0 0 -0.432425,-0.2755058 6.0004336,6.0004336 0 0 0 -0.06738,-0.039553 6.0004336,6.0004336 0 0 0 -2.9504478,-0.7837298 z m 0,0.7500542 a 5.2503792,5.2503792 0 0 1 0.017583,0.00147 c -0.00366,0.091906 -0.017583,0.1810797 -0.017583,0.2739437 0,0.7391031 0.094388,1.4554801 0.2548982,2.14613 C 7.4229148,5.8731872 6.3846147,6.3393083 5.2413821,6.4635925 5.5634552,5.0973689 6.209327,3.8612046 7.0886906,2.8290549 A 5.2503792,5.2503792 0 0 1 7.4593222,2.7821767 5.2503792,5.2503792 0 0 1 7.6190016,2.7631322 5.2503792,5.2503792 0 0 1 7.9998863,2.748483 Z m 0.763255,0.061528 a 5.2503792,5.2503792 0 0 1 0.011712,0.00295 5.2503792,5.2503792 0 0 1 0.5010135,0.099615 5.2503792,5.2503792 0 0 1 0.00152,0 5.2503792,5.2503792 0 0 1 0.00152,0 5.2503792,5.2503792 0 0 1 0.5010093,0.1538213 5.2503792,5.2503792 0 0 1 0.017571,0.00582 C 9.5688904,3.6080296 9.264684,4.1035156 8.8905946,4.5386969 8.8043082,4.0457611 8.7499594,3.5417998 8.7499594,3.0239625 c 0,-0.072416 0.011158,-0.1419705 0.013182,-0.2138856 z M 5.8669725,3.2085056 C 5.2045019,4.1880764 4.7174393,5.2942564 4.462121,6.4899927 3.9721855,6.4760116 3.5013764,6.3941284 3.0513439,6.2629289 a 5.2503792,5.2503792 0 0 1 0.1933714,-0.4746419 5.2503792,5.2503792 0 0 1 0.01465,-0.030766 5.2503792,5.2503792 0 0 1 0.2329295,-0.4394869 5.2503792,5.2503792 0 0 1 0.00736,-0.011716 5.2503792,5.2503792 0 0 1 0.2871283,-0.4292334 5.2503792,5.2503792 0 0 1 0.3310814,-0.4028619 5.2503792,5.2503792 0 0 1 0.00582,-0.00736 5.2503792,5.2503792 0 0 1 0.361841,-0.3603781 5.2503792,5.2503792 0 0 1 0.01758,-0.01465 5.2503792,5.2503792 0 0 1 0.3867427,-0.3149631 5.2503792,5.2503792 0 0 1 0.023442,-0.016118 5.2503792,5.2503792 0 0 1 0.4189728,-0.2768749 5.2503792,5.2503792 0 0 1 0.011715,-0.00582 5.2503792,5.2503792 0 0 1 0.4585308,-0.2402497 5.2503792,5.2503792 0 0 1 0.06446,-0.029304 z m 4.6116325,0.1640745 a 5.2503792,5.2503792 0 0 1 0.0046,0.003 5.2503792,5.2503792 0 0 1 0.445346,0.2680844 5.2503792,5.2503792 0 0 1 0.375027,0.279808 5.2503792,5.2503792 0 0 1 0.04539,0.033689 5.2503792,5.2503792 0 0 1 0.0051,0.0043 5.2503792,5.2503792 0 0 1 0.338405,0.3091047 5.2503792,5.2503792 0 0 1 0.04387,0.041015 5.2503792,5.2503792 0 0 1 0.0035,0.0043 5.2503792,5.2503792 0 0 1 0.251978,0.2798077 5.2503792,5.2503792 0 0 1 0.104007,0.1201287 5.2503792,5.2503792 0 0 1 0.194843,0.2651591 5.2503792,5.2503792 0 0 1 0.112801,0.1596792 5.2503792,5.2503792 0 0 1 0.219742,0.3764894 5.2503792,5.2503792 0 0 1 0.03663,0.06299 5.2503792,5.2503792 0 0 1 0.0019,0.0043 5.2503792,5.2503792 0 0 1 0.178724,0.388213 5.2503792,5.2503792 0 0 1 0.03801,0.084966 5.2503792,5.2503792 0 0 1 0.0036,0.00884 5.2503792,5.2503792 0 0 1 0.117194,0.3427973 5.2503792,5.2503792 0 0 1 0.05707,0.1699324 C 11.983148,6.7405507 10.9978,7.1639784 10.169591,7.7894264 9.6968089,7.0656992 9.3320802,6.2678663 9.0898875,5.4161798 9.6787544,4.837363 10.149489,4.142363 10.478688,3.3725822 Z M 8.4672602,5.949391 C 8.7378047,6.7812013 9.1170246,7.563883 9.5938415,8.2771841 8.6718749,9.1612732 8.0121271,10.315981 7.7509584,11.615825 6.8940966,11.470045 6.081413,11.200595 5.3294084,10.824743 5.1203832,10.075738 4.9997972,9.2896825 4.9997972,8.4734736 c 0,-0.4256558 0.04087,-0.8402859 0.099615,-1.2495902 C 6.3594278,7.1303514 7.5163116,6.6708982 8.467305,5.949391 Z M 2.8506293,6.9748655 C 3.3271387,7.1165505 3.8232995,7.2111924 4.340462,7.2341589 4.28711,7.6406884 4.249638,8.052543 4.249638,8.4734736 c 0,0.6296703 0.065646,1.2444897 0.1831183,1.8399584 C 3.8435136,9.9255035 3.3133003,9.4596445 2.8373909,8.9436826 a 5.2503792,5.2503792 0 0 1 0,-0.00152 A 5.2503792,5.2503792 0 0 1 2.7861179,8.5657254 5.2503792,5.2503792 0 0 1 2.7656083,8.3987181 5.2503792,5.2503792 0 0 1 2.7494943,7.9987918 5.2503792,5.2503792 0 0 1 2.7758632,7.4743393 5.2503792,5.2503792 0 0 1 2.8505753,6.9747878 Z M 13.199127,7.3132673 a 5.2503792,5.2503792 0 0 1 0.04386,0.4980809 5.2503792,5.2503792 0 0 1 0.0062,0.1875137 5.2503792,5.2503792 0 0 1 -0.530314,2.2824151 5.2503792,5.2503792 0 0 1 -0.01749,0.03954 C 11.902822,9.7953389 11.193046,9.146242 10.604705,8.3943879 11.346957,7.8313219 12.233297,7.4517197 13.199142,7.3132595 Z m -3.159902,1.567463 c 0.64332,0.8153091 1.422176,1.5133107 2.295539,2.0801997 a 5.2503792,5.2503792 0 0 1 -0.0019,0.0032 5.2503792,5.2503792 0 0 1 -0.212414,0.278339 c -0.907124,0.320329 -1.878444,0.506904 -2.8960419,0.506904 -0.246003,0 -0.4872652,-0.0167 -0.7280776,-0.0366 0.2296569,-1.09657 0.7774967,-2.0728396 1.5427765,-2.8319696 z M 3.3649416,10.457045 c 0.4164302,0.333211 0.8609872,0.633143 1.3330713,0.890688 0.1119081,0.351095 0.2470225,0.691305 0.3984661,1.02255 a 5.2503792,5.2503792 0 0 1 -0.00434,-0.0033 5.2503792,5.2503792 0 0 1 -0.3970473,-0.294199 5.2503792,5.2503792 0 0 1 -0.02344,-0.01758 A 5.2503792,5.2503792 0 0 1 4.2863605,11.705195 5.2503792,5.2503792 0 0 1 3.9347728,11.315519 5.2503792,5.2503792 0 0 1 3.6242053,10.893614 5.2503792,5.2503792 0 0 1 3.3649114,10.45706 Z m 2.2926156,1.340421 c 0.6332707,0.25816 1.3010438,0.443342 1.9937939,0.559611 -0.013852,0.171212 -0.026362,0.342389 -0.026362,0.517122 0,0.120714 0.0091,0.238593 0.01612,0.357447 a 5.2503792,5.2503792 0 0 1 -0.00736,-0.0019 5.2503792,5.2503792 0 0 1 -1.3888003,-0.290061 5.2503792,5.2503792 0 0 1 -0.00582,-0.0019 C 6.0176568,12.57556 5.8215101,12.195597 5.6575257,11.797376 Z m 5.2957578,0.536169 a 5.2503792,5.2503792 0 0 1 -0.0031,0.0036 5.2503792,5.2503792 0 0 1 -0.436555,0.26516 5.2503792,5.2503792 0 0 1 -0.0089,0.006 5.2503792,5.2503792 0 0 1 -0.0046,0.0019 5.2503792,5.2503792 0 0 1 -0.399929,0.194844 5.2503792,5.2503792 0 0 1 -0.09815,0.04257 5.2503792,5.2503792 0 0 1 -0.3852796,0.140634 5.2503792,5.2503792 0 0 1 -0.1084058,0.03524 5.2503792,5.2503792 0 0 1 -0.3618409,0.09377 5.2503792,5.2503792 0 0 1 -0.1626117,0.0366 5.2503792,5.2503792 0 0 1 -0.3369397,0.04981 5.2503792,5.2503792 0 0 1 -0.2505028,0.03069 c -0.00942,-0.119207 -0.021978,-0.237093 -0.021978,-0.358917 0,-0.140514 0.010428,-0.278151 0.020508,-0.416048 0.2737096,0.02379 0.5493472,0.04107 0.8291846,0.04107 0.5917186,0 1.1690359,-0.05777 1.7286529,-0.165538 z"
     style="fill:#f2f2f2;stroke-width:0.999991;fill-opacity:1"
     class="ColorScheme-Text"
     id="path1" />
</svg>
