<?xml version="1.0" encoding="UTF-8" standalone="no"?>
<svg
   width="16"
   height="16"
   version="1.1"
   viewBox="0 0 16 16"
   id="svg1"
   sodipodi:docname="xapp-prefs-plugins-symbolic.svg"
   inkscape:version="1.4.2 (unknown)"
   xmlns:inkscape="http://www.inkscape.org/namespaces/inkscape"
   xmlns:sodipodi="http://sodipodi.sourceforge.net/DTD/sodipodi-0.dtd"
   xmlns="http://www.w3.org/2000/svg"
   xmlns:svg="http://www.w3.org/2000/svg">
  <defs
     id="defs1" />
  <sodipodi:namedview
     id="namedview1"
     pagecolor="#ffffff"
     bordercolor="#000000"
     borderopacity="0.25"
     inkscape:showpageshadow="2"
     inkscape:pageopacity="0.0"
     inkscape:pagecheckerboard="0"
     inkscape:deskcolor="#d1d1d1"
     inkscape:zoom="23.625"
     inkscape:cx="6.7724868"
     inkscape:cy="7.1111111"
     inkscape:current-layer="svg1" />
  <path
     d="M 6.8,2 C 5.9136003,2 5.1999995,2.7136 5.1999995,3.6000006 V 4.4 H 3.4765594 C 2.65832,4.4 2,5.058344 2,5.8765595 V 7.5999996 8.4 H 3.6000006 C 4.0431994,8.4 4.4,8.7567996 4.4,9.2 4.4,9.6431998 4.0431994,9.9999997 3.6000006,9.9999997 H 2 v 0.8000023 1.723444 C 2,13.34168 2.658344,14 3.4765594,14 H 5.1999995 6.0000003 V 12.399994 C 6.0000003,11.956806 6.3567995,11.6 6.8,11.6 c 0.4432,0 0.7999996,0.356806 0.7999996,0.799994 V 14 H 8.4 10.123442 C 10.94168,14 11.6,13.341652 11.6,12.523446 v -1.723444 h 0.799994 C 13.286406,10.800002 14,10.086399 14,9.2 14,8.3136 13.286406,7.5999996 12.399994,7.5999996 H 11.6 V 5.8765595 C 11.6,5.05832 10.941652,4.4 10.123442,4.4 H 8.4 V 3.6000006 C 8.4,2.7136 7.6863996,2 6.8,2 Z m 0,0.8 c 0.4432,0 0.7999996,0.3568 0.7999996,0.8000006 V 5.1999995 H 8.4 9.9999977 c 0.4432023,0 0.8000073,0.3568005 0.8000073,0.8000008 V 7.5999996 8.4 h 1.599989 c 0.443206,0 0.800012,0.3567996 0.800012,0.8 0,0.4431998 -0.356806,0.7999997 -0.800012,0.7999997 h -1.599989 v 0.8000023 1.599992 c 0,0.443206 -0.356805,0.800012 -0.8000073,0.800012 H 8.4 v -0.800012 c 0,-0.886394 -0.7136004,-1.599992 -1.6,-1.599992 -0.8863997,0 -1.6000005,0.713598 -1.6000005,1.599992 v 0.800012 H 3.6000006 C 3.1568,13.200006 2.7999994,12.8432 2.7999994,12.399994 V 10.800002 H 3.6000006 C 4.4864,10.800002 5.1999995,10.086399 5.1999995,9.2 5.1999995,8.3136 4.4864,7.5999996 3.6000006,7.5999996 H 2.7999994 V 6.0000003 C 2.7999994,5.5568 3.1568,5.1999995 3.6000006,5.1999995 H 5.1999995 6.0000003 V 3.6000006 C 6.0000003,3.1568 6.3567995,2.8 6.8,2.8 Z"
     fill="#dedede"
     id="path1"
     style="stroke-width:0.999997;fill:#f2f2f2;fill-opacity:1" />
</svg>
