<?xml version="1.0" encoding="UTF-8" standalone="no"?>
<svg
   width="16"
   height="16"
   version="1.1"
   id="svg2"
   sodipodi:docname="xapp-diaporama-symbolic.svg"
   inkscape:version="1.4.2 (unknown)"
   xmlns:inkscape="http://www.inkscape.org/namespaces/inkscape"
   xmlns:sodipodi="http://sodipodi.sourceforge.net/DTD/sodipodi-0.dtd"
   xmlns="http://www.w3.org/2000/svg"
   xmlns:svg="http://www.w3.org/2000/svg">
  <defs
     id="defs2" />
  <sodipodi:namedview
     id="namedview2"
     pagecolor="#ffffff"
     bordercolor="#000000"
     borderopacity="0.25"
     inkscape:showpageshadow="2"
     inkscape:pageopacity="0.0"
     inkscape:pagecheckerboard="0"
     inkscape:deskcolor="#d1d1d1"
     inkscape:zoom="23.625"
     inkscape:cx="5.5449735"
     inkscape:cy="7.1534391"
     inkscape:current-layer="svg2" />
  <g
     id="g2"
     transform="matrix(0.85474064,0,0,0.85474064,1.5894452,0.29051875)"
     style="stroke-width:1.16994">
    <path
       d="m 6,5 h 0.40039 c 0.069964,-5.24e-4 0.13833,0.016281 0.19922,0.050781 l 2.8008,1.5996 c 0.12428,0.068756 0.1875,0.20899 0.1875,0.34961 0,0.14062 -0.06322,0.28085 -0.1875,0.34961 l -2.8008,1.5996 C 6.538722,8.983681 6.47036,9.000382 6.40039,8.999982 H 6 v -4 z"
       fill="#dedede"
       id="path1"
       style="stroke-width:1.16994;fill:#f2f2f2;fill-opacity:1" />
    <path
       d="m 0,2 v 1 h 1 v 8.035 c 0,0.546 0.455,1 1,1 h 5 v 1.215 l -2.72,1.844 c -0.26,0.125 -0.352,0.513 -0.188,0.75 0.164,0.236 0.541,0.26 0.75,0.062 l 2.658,-1.812 2.658,1.812 c 0.209,0.198 0.587,0.174 0.75,-0.062 0.164,-0.237 0.071,-0.625 -0.187,-0.75 L 8,13.25 v -1.215 h 5 c 0.545,0 1,-0.454 1,-1 V 3 h 1 V 2 Z m 2,1 h 11 v 7.5 C 13,11 12.5,11 12.5,11 H 2.5 C 2,11 2,10.5 2,10.5 Z"
       color="#000000"
       fill="#dedede"
       font-family="sans-serif"
       font-weight="400"
       overflow="visible"
       style="font-variant-ligatures:normal;font-variant-position:normal;font-variant-caps:normal;font-variant-numeric:normal;font-variant-alternates:normal;font-feature-settings:normal;text-indent:0;text-decoration-line:none;text-decoration-style:solid;text-decoration-color:#000000;text-transform:none;text-orientation:mixed;shape-padding:0;isolation:auto;mix-blend-mode:normal;stroke-width:1.17839;fill:#f2f2f2;fill-opacity:1"
       id="path2" />
  </g>
</svg>
