<?xml version="1.0" encoding="UTF-8" standalone="no"?>
<svg
   width="16"
   height="16"
   version="1.1"
   id="svg2"
   sodipodi:docname="xapp-pin-symbolic.svg"
   inkscape:version="1.4.2 (unknown)"
   xmlns:inkscape="http://www.inkscape.org/namespaces/inkscape"
   xmlns:sodipodi="http://sodipodi.sourceforge.net/DTD/sodipodi-0.dtd"
   xmlns="http://www.w3.org/2000/svg"
   xmlns:svg="http://www.w3.org/2000/svg">
  <defs
     id="defs2" />
  <sodipodi:namedview
     id="namedview2"
     pagecolor="#ffffff"
     bordercolor="#000000"
     borderopacity="0.25"
     inkscape:showpageshadow="2"
     inkscape:pageopacity="0.0"
     inkscape:pagecheckerboard="0"
     inkscape:deskcolor="#d1d1d1"
     inkscape:zoom="33.410795"
     inkscape:cx="9.3233339"
     inkscape:cy="7.1533765"
     inkscape:current-layer="svg2" />
  <g
     id="g2"
     transform="matrix(0.84561404,0,0,0.84561404,0.81228066,1.1293859)"
     style="stroke-width:1.18257;fill:#f2f2f2;fill-opacity:1">
    <path
       d="M 3,1 4,2 V 6 L 2,8 H 9 L 7,6 V 2 L 8,1 Z m 2,8 v 4.75 a 16.197,16.197 0 0 0 0.5,1.5 18.757,18.757 0 0 0 0.5,-1.5 V 9 Z"
       color="#000000"
       fill="#dedede"
       id="path1"
       style="stroke-width:1.18257;fill:#f2f2f2;fill-opacity:1" />
    <path
       d="M 11.5,8 A 3.5,3.5 0 0 0 8,11.5 3.5,3.5 0 0 0 11.5,15 3.5,3.5 0 0 0 15,11.5 3.5,3.5 0 0 0 11.5,8 Z M 11,9 h 1 v 2 h 2 v 1 h -2 v 2 H 11 V 12 H 9 v -1 h 2 z"
       fill="#dedede"
       style="stroke-width:1.18257;paint-order:markers stroke fill;fill:#f2f2f2;fill-opacity:1"
       id="path2" />
  </g>
</svg>
