<?xml version="1.0" encoding="UTF-8" standalone="no"?>
<svg
   width="16"
   height="16"
   version="1.1"
   id="svg2"
   sodipodi:docname="xapp-unpin-symbolic.svg"
   inkscape:version="1.4.2 (unknown)"
   xmlns:inkscape="http://www.inkscape.org/namespaces/inkscape"
   xmlns:sodipodi="http://sodipodi.sourceforge.net/DTD/sodipodi-0.dtd"
   xmlns="http://www.w3.org/2000/svg"
   xmlns:svg="http://www.w3.org/2000/svg">
  <defs
     id="defs2" />
  <sodipodi:namedview
     id="namedview2"
     pagecolor="#ffffff"
     bordercolor="#000000"
     borderopacity="0.25"
     inkscape:showpageshadow="2"
     inkscape:pageopacity="0.0"
     inkscape:pagecheckerboard="0"
     inkscape:deskcolor="#d1d1d1"
     inkscape:zoom="23.625"
     inkscape:cx="8.0634921"
     inkscape:cy="7.5767196"
     inkscape:current-layer="svg2" />
  <g
     id="g2"
     transform="translate(0.50350905,0.97500004)">
    <path
       d="M 2.8456139,0.99999992 3.6912277,1.8456143 V 5.2280702 L 1.9999999,6.919298 h 5.919298 L 6.2280701,5.2280702 V 1.8456143 L 7.0736837,0.99999992 Z M 4.5368419,7.7649117 V 11.781577 A 13.696411,13.696411 0 0 0 4.9596488,13.05 15.861181,15.861181 0 0 0 5.3824558,11.781577 V 7.7649117 Z"
       color="#000000"
       fill="#dedede"
       id="path1"
       style="stroke-width:0.999985" />
    <path
       d="M 10.033331,6.919298 A 2.9596489,2.9596489 0 0 0 7.0736837,9.8789488 2.9596489,2.9596489 0 0 0 10.033331,12.838592 2.9596489,2.9596489 0 0 0 12.992982,9.8789488 2.9596489,2.9596489 0 0 0 10.033331,6.919298 Z M 7.9192979,9.4561432 H 12.147365 V 10.301754 H 7.9192979 Z"
       fill="#dedede"
       stroke-linecap="round"
       stroke-linejoin="round"
       stroke-opacity="0.25"
       stroke-width="1.4022"
       style="paint-order:markers stroke fill"
       id="path2" />
  </g>
</svg>
