<?xml version="1.0" encoding="UTF-8" standalone="no"?>
<svg
   width="16"
   height="16"
   version="1.1"
   id="svg2"
   sodipodi:docname="xapp-favorite-symbolic.svg"
   inkscape:version="1.4.2 (unknown)"
   xmlns:inkscape="http://www.inkscape.org/namespaces/inkscape"
   xmlns:sodipodi="http://sodipodi.sourceforge.net/DTD/sodipodi-0.dtd"
   xmlns="http://www.w3.org/2000/svg"
   xmlns:svg="http://www.w3.org/2000/svg">
  <defs
     id="defs2" />
  <sodipodi:namedview
     id="namedview2"
     pagecolor="#ffffff"
     bordercolor="#000000"
     borderopacity="0.25"
     inkscape:showpageshadow="2"
     inkscape:pageopacity="0.0"
     inkscape:pagecheckerboard="0"
     inkscape:deskcolor="#d1d1d1"
     inkscape:zoom="23.625"
     inkscape:cx="8.5291005"
     inkscape:cy="5.5449735"
     inkscape:current-layer="svg2" />
  <g
     id="g2"
     transform="matrix(0.93333333,0,0,0.93333333,0.99995803,1)"
     style="stroke-width:1.07142">
    <path
       d="M 7.0098,0 7.00589,0.0039062 c -0.84339,1.81 -1.4947,3.6549 -1.8652,4.7852 -1.219,0.001 -3.2271,0.046602 -5.1406,0.29492 l 0.0019531,0.00195 v 0.00195 l 0.0019531,0.00195 v 0.00195 c 1.4608,1.3614 3.0141,2.5502 3.9746,3.252 -0.37586,1.1596 -0.95347,3.0837998 -1.3086,4.9804998 h 0.00781 c 1.7463,-0.96862 3.3581,-2.0788 4.3223,-2.7754 0.022563,0.01637 0.064618,0.04373 0.087891,0.06055 a 4.5,4.5 0 0 1 0.32812,-0.9941398 l -0.41406,-0.30078 -0.58594,0.42383 c -0.47618,0.3440598 -1.3966,0.8871898 -2.1309,1.3671998 0.23257,-0.85452 0.45844,-1.8789998 0.64453,-2.4530998 l 0.22266,-0.6875 -0.58398,-0.42773 c -0.47446,-0.34663 -1.2755,-1.0535 -1.959,-1.6035 0.88455,-0.0429 1.9296,-0.14404 2.5332,-0.14453 l 0.72266,-0.00195 0.22656,-0.6875 c 0.183,-0.55818 0.60815,-1.5377 0.91992,-2.3574 0.31412,0.82774 0.73306,1.7896 0.91992,2.3633 l 0.22461,0.6875 0.72266,0.00195 c 0.58798,0.002 1.6523998,0.10323 2.5292998,0.14648 -0.63077,0.50677 -1.3183,1.1035 -1.8085998,1.4785 a 4.5,4.5 0 0 1 1.9003998,-0.41992 4.5,4.5 0 0 1 0.29297,0.00977 c 0.72128,-0.57573 1.4933,-1.2245 2.2227,-1.9141 l -0.002,-0.00195 h -0.002 l -0.002,-0.00195 v -0.00195 c -1.9819,-0.24283 -3.9373,-0.29181 -5.1267998,-0.29494 -0.37742,-1.1588 -1.0441,-3.0526 -1.8711,-4.7949 z"
       fill="#dedede"
       id="path1"
       style="stroke-width:1.07142" />
    <path
       d="M 11.5,8 A 3.5,3.5 0 0 0 8,11.5 3.5,3.5 0 0 0 11.5,15 3.5,3.5 0 0 0 15,11.5 3.5,3.5 0 0 0 11.5,8 Z M 11,9 h 1 v 2 h 2 v 1 h -2 v 2 H 11 V 12 H 9 v -1 h 2 z"
       fill="#dedede"
       style="stroke-width:1.07142;paint-order:markers stroke fill"
       id="path2" />
  </g>
</svg>
