<?xml version="1.0" encoding="UTF-8" standalone="no"?>
<svg
   width="22"
   height="22"
   version="1.1"
   id="svg2"
   sodipodi:docname="account-logged-in-symbolic.svg"
   inkscape:version="1.4.2 (unknown)"
   xmlns:inkscape="http://www.inkscape.org/namespaces/inkscape"
   xmlns:sodipodi="http://sodipodi.sourceforge.net/DTD/sodipodi-0.dtd"
   xmlns="http://www.w3.org/2000/svg"
   xmlns:svg="http://www.w3.org/2000/svg">
  <defs
     id="defs2" />
  <sodipodi:namedview
     id="namedview2"
     pagecolor="#ffffff"
     bordercolor="#000000"
     borderopacity="0.25"
     inkscape:showpageshadow="2"
     inkscape:pageopacity="0.0"
     inkscape:pagecheckerboard="0"
     inkscape:deskcolor="#d1d1d1"
     inkscape:zoom="23.625"
     inkscape:cx="7.957672"
     inkscape:cy="10.751323"
     inkscape:current-layer="svg2" />
  <g
     id="g2"
     transform="translate(0.3756612,-0.2169311)">
    <path
       d="m 16.759339,6.0841312 -6.1348,6.1327998 -2.8262004,-2.8280998 -0.70703,0.7070298 3.5352004,3.5352 6.7305,-6.7304998 a 8,8 0 0 0 -0.59766,-0.81641 z"
       fill="#dedede"
       id="path1"
       style="fill:#f2f2f2;fill-opacity:1" />
    <path
       d="m 10.624339,3.2169312 a 8,8 0 0 0 -8.0000004,7.9999998 8,8 0 0 0 8.0000004,8 8,8 0 0 0 8,-8 8,8 0 0 0 -8,-7.9999998 z m -0.09375,1 a 7,7 0 0 1 0.09375,0 7,7 0 0 1 7,6.9999998 7,7 0 0 1 -7,7 7,7 0 0 1 -7.0000004,-7 7,7 0 0 1 6.9062004,-6.9999998 z"
       fill="#dedede"
       stroke-linecap="round"
       stroke-linejoin="round"
       stroke-width="2"
       id="path2"
       style="fill:#f2f2f2;fill-opacity:1" />
  </g>
</svg>
