<?xml version="1.0" encoding="UTF-8" standalone="no"?>
<svg
   version="1.1"
   viewBox="0 0 22 22"
   id="svg1"
   sodipodi:docname="adw-tab-icon-missing-symbolic.svg"
   width="22"
   height="22"
   inkscape:version="1.4.2 (unknown)"
   xmlns:inkscape="http://www.inkscape.org/namespaces/inkscape"
   xmlns:sodipodi="http://sodipodi.sourceforge.net/DTD/sodipodi-0.dtd"
   xmlns="http://www.w3.org/2000/svg"
   xmlns:svg="http://www.w3.org/2000/svg">
  <defs
     id="defs1" />
  <sodipodi:namedview
     id="namedview1"
     pagecolor="#ffffff"
     bordercolor="#000000"
     borderopacity="0.25"
     inkscape:showpageshadow="2"
     inkscape:pageopacity="0.0"
     inkscape:pagecheckerboard="0"
     inkscape:deskcolor="#d1d1d1"
     inkscape:zoom="16.705398"
     inkscape:cx="11.523222"
     inkscape:cy="17.180076"
     inkscape:current-layer="svg1" />
  <g
     transform="matrix(1.1428571,0,0,-1.1428571,-1436.9999,-356.42856)"
     fill="#808080"
     label="status"
     id="g1"
     style="stroke-width:0.875">
    <path
       transform="matrix(1,0,0,-1,1259,-313.5)"
       d="M 3,1 C 1.892,1 1,1.892 1,3 V 4 H 2 V 3 C 2,2.446 2.446,2 3,2 H 4 V 1 Z M 5,1 V 2 H 7.5 V 1 Z M 8.5,1 V 2 H 11 V 1 Z M 12,1 v 1 h 1 c 0.554,0 1,0.446 1,1 v 1 h 1 V 3 C 15,1.892 14.108,1 13,1 Z M 1,5 V 7.5 H 2 V 5 Z m 13,0 v 2.5 h 1 V 5 Z M 1,8.5 V 11 H 2 V 8.5 Z m 13,0 V 11 h 1 V 8.5 Z M 1,12 v 1 c 0,1.108 0.892,2 2,2 H 4 V 14 H 3 C 2.446,14 2,13.554 2,13 v -1 z m 13,0 v 1 c 0,0.554 -0.446,1 -1,1 h -1 v 1 h 1 c 1.108,0 2,-0.892 2,-2 v -1 z m -9,2 v 1 h 2.5 v -1 z m 3.5,0 v 1 H 11 v -1 z"
       fill="#808080"
       id="path1"
       style="stroke-width:0.875;fill:#f2f2f2;fill-opacity:1" />
  </g>
</svg>
