<?xml version="1.0" encoding="UTF-8" standalone="no"?>
<svg
   version="1.1"
   viewBox="0 0 22 22"
   id="svg2"
   sodipodi:docname="arch-unknown.svg"
   width="22"
   height="22"
   inkscape:version="1.4.2 (unknown)"
   xmlns:inkscape="http://www.inkscape.org/namespaces/inkscape"
   xmlns:sodipodi="http://sodipodi.sourceforge.net/DTD/sodipodi-0.dtd"
   xmlns="http://www.w3.org/2000/svg"
   xmlns:svg="http://www.w3.org/2000/svg">
  <sodipodi:namedview
     id="namedview2"
     pagecolor="#ffffff"
     bordercolor="#000000"
     borderopacity="0.25"
     inkscape:showpageshadow="2"
     inkscape:pageopacity="0.0"
     inkscape:pagecheckerboard="0"
     inkscape:deskcolor="#d1d1d1"
     inkscape:zoom="23.625"
     inkscape:cx="6.8359788"
     inkscape:cy="10.878307"
     inkscape:current-layer="svg2" />
  <defs
     id="defs1">
    <style
       id="current-color-scheme"
       type="text/css">.ColorScheme-Text { color:#d3dae3; } .ColorScheme-Highlight { color:#4285f4; }</style>
  </defs>
  <g
     id="g2"
     transform="translate(3.0000315,2.999949)">
    <path
       class="ColorScheme-Text"
       d="m 8,5 c 0.84039,0.00125 1.6417,0.35494 2.209,0.975 L 10.998,5.518 10.82,6.992 10.824,7 H 10.82 L 10.699,8 8.4,7.018 9.309,6.492 C 8.94608,6.17583 8.48132,6.00114 8,6 7.2862,6.0007321 6.6269,6.38183 6.27,7 H 5.173 C 5.59661,5.8019 6.7292,5.0006 8,5 Z M 5.299,8.018 7.598,9 6.701,9.518 C 7.06274,9.82831 7.5234,9.99924 8,10 8.7138,9.9992679 9.3731,9.61817 9.73,9 h 1.096 C 10.40251,10.1978 9.2705,10.999 8,11 7.16554,10.998857 6.3693,10.64986 5.803,10.037 L 5,10.5 5.18,9.01 5.176,9 H 5.18 Z"
       fill="currentColor"
       id="path1" />
    <path
       class="ColorScheme-Text"
       d="M 7.998,0 C 7.72698,0 7.45665,0.061232 7.18355,0.15625 L 7.164019,0.164063 7.146441,0.169922 c -1.1343,0.44698 -3.7671,1.3207 -5.1914,1.8887 l -0.011719,0.00391 -0.011719,0.00586 c -0.22994,0.098563 -0.55638,0.30722 -0.73828,0.63672 -0.1819,0.3295 -0.18925,0.61851 -0.18945,0.84766 l -0.003906,5.3418 c -0.001241,1.4947 0.47441,2.739 1.4727,3.709 0.99645,0.96819 2.3961,1.7701 4.4707,3.0352 0.31745,0.1971 0.68479,0.36133 1.0508,0.36133 0.3593,0 0.73919,-0.16422 1.0566,-0.36133 2.0461,-1.237 3.4474,-2.0343 4.4492,-3.0059 1.0041,-0.97382 1.4948,-2.2275 1.4961,-3.7363 l 0.0039,-5.3418 c 1.93e-4,-0.22992 -0.0038,-0.52168 -0.19141,-0.85742 -0.18756,-0.33575 -0.53463,-0.55217 -0.7832,-0.64648 l -0.0098,-0.00195 -0.0098,-0.00391 c -1.3647,-0.48562 -3.9846,-1.4171 -5.1465,-1.875 L 8.839726,0.164153 8.820195,0.15634 C 8.547085,0.061307 8.268565,9e-5 7.997925,9e-5 Z m 0,1 c 0.13725,0 0.28371,0.02834 0.49414,0.10156 1.2077,0.47595 3.8144,1.3997 5.1777,1.8848 0.26536,0.10068 0.33036,0.23885 0.33008,0.56836 l -0.0039,5.3398 c -0.0023,2.6818 -1.3553,3.4048 -5.4727,5.8945 -0.26534,0.16475 -0.39205,0.21094 -0.5293,0.21094 -0.12809,0 -0.25809,-0.04618 -0.52344,-0.21094 -4.1723,-2.5445 -5.4729,-3.2311 -5.4707,-5.8945 L 2.00379,3.55472 C 2.0040771,3.22521 2.067902,3.09619 2.3241,2.98636 3.6783,2.44633 6.3058,1.57756 7.5136,1.10156 7.72404,1.028339 7.86988,1 7.99797,1 Z"
       fill="currentColor"
       id="path2" />
  </g>
</svg>
