<?xml version="1.0" encoding="UTF-8" standalone="no"?>
<svg
   viewBox="0 0 22 22"
   width="22"
   height="22"
   version="1.1"
   id="svg4"
   sodipodi:docname="audio-volume-muted-rtl-symbolic.svg"
   inkscape:version="1.4.2 (unknown)"
   xmlns:inkscape="http://www.inkscape.org/namespaces/inkscape"
   xmlns:sodipodi="http://sodipodi.sourceforge.net/DTD/sodipodi-0.dtd"
   xmlns="http://www.w3.org/2000/svg"
   xmlns:svg="http://www.w3.org/2000/svg">
  <defs
     id="defs4" />
  <sodipodi:namedview
     id="namedview4"
     pagecolor="#6c6c6c"
     bordercolor="#999999"
     borderopacity="1"
     inkscape:showpageshadow="2"
     inkscape:pageopacity="0"
     inkscape:pagecheckerboard="0"
     inkscape:deskcolor="#d1d1d1"
     inkscape:zoom="7.9374999"
     inkscape:cx="6.8031497"
     inkscape:cy="25.007874"
     inkscape:window-width="1920"
     inkscape:window-height="996"
     inkscape:window-x="0"
     inkscape:window-y="0"
     inkscape:window-maximized="1"
     inkscape:current-layer="22-22-audio-volume-low"
     showgrid="false">
    <inkscape:grid
       id="grid1"
       units="px"
       originx="0"
       originy="0"
       spacingx="1"
       spacingy="1"
       empcolor="#0099e5"
       empopacity="0.30196078"
       color="#0099e5"
       opacity="0.14902"
       empspacing="5"
       dotted="false"
       gridanglex="30"
       gridanglez="30"
       visible="false" />
  </sodipodi:namedview>
  <style
     id="current-color-scheme"
     type="text/css">.ColorScheme-Text { color: #fcfcfc; }
</style>
  <g
     id="22-22-audio-volume-low"
     style="fill:#bac8df;fill-opacity:1">
    <g
       id="g1"
       transform="translate(-0.37048,-33.891971)">
      <path
         d="m 8,51.986774 c 0,0.958748 1.176456,1.367133 1.920462,0.730101 l 3.094036,-2.764092 -0.842871,-0.810992 2.328367,-0.118 3.423081,-0.02399 C 19.070102,48.991801 20,48.103555 20,46.999016 v -3.998031 c 0,-1.104503 -0.92987,-2.001116 -2.076925,-2.001116 h -3.396512 c -0.169603,0 -0.333301,-0.05871 -0.46004,-0.167239 L 9.920552,37.282769 C 9.176457,36.645597 7.999997,36.999774 7.999997,37.999774 l 2e-6,2.024017 0.999995,5 -0.999995,-1 z m 4.198743,-2.844983 -3.198746,2.857983 v -6.975983 l -1.000003,-5 1.000003,1 v -3.024017 l 4.146475,3.528999 c 0.380217,0.325592 0.87131,0.471001 1.380091,0.471001 l 4.37e-4,6.024017 v 0 0 -0.02402 h -4.84e-4 c 0,0 -0.0045,0.04264 -6.5e-4,0.01467 0.0021,-0.01511 -0.005,0.647144 -0.005,0.647144 l -0.02087,0.362206 z"
         id="path2057-3-12"
         style="fill:currentColor;fill-opacity:1;stroke-width:0.905853"
         sodipodi:nodetypes="sccccsssssccscccscccccccscccccsccc"
         class="ColorScheme-Text" />
      <path
         d="M 4.624955,50.207399 C 4.323511,50.417749 3.89806,50.358041 3.6747,50.074053 2.55968,48.655961 1.9,46.899895 1.9,45.000582 c 0,-1.899316 0.65968,-3.65538 1.7747,-5.073491 0.22337,-0.284028 0.648811,-0.34367 0.950255,-0.133348 0.301535,0.210312 0.364851,0.611062 0.141567,0.895089 -0.947622,1.205154 -1.507852,2.695867 -1.507852,4.31175 0,1.615798 0.56022,3.106548 1.507852,4.311739 0.223284,0.283989 0.159968,0.684731 -0.141567,0.895078 z"
         id="path2059-6-7"
         style="fill:currentColor;fill-opacity:0.5;stroke-width:0.879133"
         class="ColorScheme-Text" />
      <path
         d="M 6.25054,48.096502 C 5.926827,48.264743 5.52224,48.149202 5.34697,47.838399 4.870381,46.993208 4.6,46.025373 4.6,44.9988 c 0,-1.026573 0.27038,-1.994448 0.74697,-2.839633 0.17527,-0.310737 0.579857,-0.426345 0.90357,-0.258094 0.323789,0.168252 0.444221,0.556631 0.268954,0.867369 -0.373747,0.662766 -0.586267,1.421779 -0.586267,2.230358 0,0.80858 0.212519,1.567593 0.586267,2.230336 0.175267,0.310784 0.05486,0.699121 -0.268954,0.867366 z"
         id="path2061-7-0"
         style="fill:currentColor;fill-opacity:0.5;stroke-width:0.87086"
         class="ColorScheme-Text" />
      <path
         d="m 18.499999,45.0238 c 0,-0.828834 0.671174,-1.500009 1.499998,-1.500009 0.828126,-1e-6 1.499997,0.671175 1.499997,1.500009 0,0.828126 -0.671871,1.499991 -1.499997,1.499991 -0.828824,0 -1.499998,-0.671865 -1.499998,-1.499991 z"
         id="path72-3-7-3-9"
         style="fill:currentColor;fill-opacity:1;stroke-width:0.0178575"
         class="ColorScheme-Text" />
      <path
         d="m 18.340207,53.27576 c 0.431749,0.415908 1.116295,-0.106412 0.707031,-0.707031 L 3.693722,37.215213 3.340206,36.861698 c -0.530805,-0.323562 -1.094711,0.05398 -0.707031,0.707031 l 0.353515,0.353516 15,15 z"
         stroke-linecap="square"
         stroke-miterlimit="0"
         id="path2"
         style="color:#da4453;fill:#c83771;fill-opacity:1"
         sodipodi:nodetypes="cccccccc" />
    </g>
  </g>
</svg>
