<?xml version="1.0" encoding="UTF-8" standalone="no"?>
<svg
   viewBox="0 0 22 22"
   width="22"
   height="22"
   version="1.1"
   id="svg4"
   sodipodi:docname="audio-volume-low-rtl-symbolic.svg"
   inkscape:version="1.4.2 (unknown)"
   xmlns:inkscape="http://www.inkscape.org/namespaces/inkscape"
   xmlns:sodipodi="http://sodipodi.sourceforge.net/DTD/sodipodi-0.dtd"
   xmlns="http://www.w3.org/2000/svg"
   xmlns:svg="http://www.w3.org/2000/svg">
  <defs
     id="defs4" />
  <sodipodi:namedview
     id="namedview4"
     pagecolor="#ffffff"
     bordercolor="#999999"
     borderopacity="1"
     inkscape:showpageshadow="2"
     inkscape:pageopacity="0"
     inkscape:pagecheckerboard="0"
     inkscape:deskcolor="#d1d1d1"
     inkscape:zoom="11.22532"
     inkscape:cx="11.046456"
     inkscape:cy="11.090998"
     inkscape:window-width="1920"
     inkscape:window-height="994"
     inkscape:window-x="0"
     inkscape:window-y="0"
     inkscape:window-maximized="1"
     inkscape:current-layer="svg4" />
  <style
     id="current-color-scheme"
     type="text/css">.ColorScheme-Text { color:#d3dae3; }
</style>
  <g
     id="g1"
     transform="translate(0.5,-20.963174)">
    <path
       d="m 6.1,38.986883 c 0,0.958748 1.176456,1.367133 1.920462,0.730102 l 4.146054,-3.54947 c 0.126734,-0.108504 0.290409,-0.167601 0.46,-0.167601 h 3.396559 c 1.147055,0 2.076925,-0.896246 2.076925,-2.000785 v -3.998035 c 0,-1.104503 -0.92987,-2.001116 -2.076925,-2.001116 h -3.396512 c -0.169603,0 -0.333301,-0.05871 -0.46004,-0.167239 L 8.020552,24.282879 C 7.276457,23.645706 6.099997,23.999883 6.099997,24.999883 Z m 5.146519,-3.516 -4.146522,3.529 v -14 l 4.146475,3.529 c 0.380217,0.325592 0.87131,0.471 1.380091,0.471 L 12.627,35.0239 v 0 0 -0.02402 h -4.84e-4 c -0.508744,0 -0.999793,0.145506 -1.379997,0.471 z"
       id="path2057-3-12"
       style="stroke-width:0.905853;fill-opacity:1;fill:currentColor;"
       sodipodi:nodetypes="sccssssssccssccccsccccsc"
       class="ColorScheme-Text" />
    <path
       d="M 2.724955,37.207508 C 2.423511,37.417858 1.99806,37.35815 1.7747,37.074162 0.65968,35.65607 0,33.900005 0,32.000691 0,30.101375 0.65968,28.345311 1.7747,26.9272 1.99807,26.643172 2.423511,26.58353 2.724955,26.793852 3.02649,27.004164 3.089806,27.404914 2.866522,27.688941 1.9189,28.894095 1.35867,30.384808 1.35867,32.000691 c 0,1.615798 0.56022,3.106548 1.507852,4.311739 0.223284,0.283989 0.159968,0.684731 -0.141567,0.895078 z"
       id="path2059-6-7"
       style="stroke-width:0.879133;fill-opacity:0.501961;fill:currentColor;"
       class="ColorScheme-Text" />
    <path
       d="M 4.35054,35.096611 C 4.026827,35.264852 3.62224,35.149311 3.44697,34.838508 2.970381,33.993317 2.7,33.025483 2.7,31.998909 c 0,-1.026573 0.27038,-1.994448 0.74697,-2.839633 0.17527,-0.310737 0.579857,-0.426345 0.90357,-0.258094 0.323789,0.168252 0.444221,0.556631 0.268954,0.867369 -0.373747,0.662766 -0.586267,1.421779 -0.586267,2.230358 0,0.80858 0.212519,1.567593 0.586267,2.230336 0.175267,0.310785 0.05486,0.699121 -0.268954,0.867366 z"
       id="path2061-7-0"
       style="stroke-width:0.87086;fill-opacity:0.501961;fill:currentColor;"
       class="ColorScheme-Text" />
    <path
       d="m 16.599999,32.023909 c 0,-0.828834 0.671174,-1.500009 1.499998,-1.500009 0.828126,-1e-6 1.499997,0.671175 1.499997,1.500009 0,0.828126 -0.671871,1.499991 -1.499997,1.499991 -0.828824,0 -1.499998,-0.671865 -1.499998,-1.499991 z"
       id="path72-3-7-3-9"
       style="stroke-width:0.0178575;fill-opacity:1;fill:currentColor;"
       class="ColorScheme-Text" />
    <path
       d="m 5.100005,32.023909 c 0,-0.828834 0.671174,-1.500009 1.499998,-1.500009 0.499994,0 0.499994,1.500009 0.499994,1.500009 0,0 0,1.499991 -0.499994,1.499991 -0.828824,0 -1.499998,-0.671865 -1.499998,-1.499991 z"
       id="path72-3-7-3-6-3"
       style="stroke-width:0.0178575;fill-opacity:1;fill:currentColor;"
       sodipodi:nodetypes="sscss"
       class="ColorScheme-Text" />
  </g>
</svg>
