<?xml version="1.0" encoding="UTF-8" standalone="no"?>
<svg
   height="22"
   viewBox="0 0 22 22"
   width="22"
   version="1.1"
   id="svg1"
   sodipodi:docname="background-app-ghost-symbolic.svg"
   inkscape:version="1.4.2 (unknown)"
   xmlns:inkscape="http://www.inkscape.org/namespaces/inkscape"
   xmlns:sodipodi="http://sodipodi.sourceforge.net/DTD/sodipodi-0.dtd"
   xmlns="http://www.w3.org/2000/svg"
   xmlns:svg="http://www.w3.org/2000/svg">
  <defs
     id="defs1" />
  <sodipodi:namedview
     id="namedview1"
     pagecolor="#ffffff"
     bordercolor="#000000"
     borderopacity="0.25"
     inkscape:showpageshadow="2"
     inkscape:pageopacity="0.0"
     inkscape:pagecheckerboard="0"
     inkscape:deskcolor="#d1d1d1"
     inkscape:zoom="16.705398"
     inkscape:cx="10.77496"
     inkscape:cy="8.260803"
     inkscape:current-layer="svg1" />
  <path
     d="M 10.991059,2.9999999 C 6.5714159,3.0044604 2.9955238,6.5892853 2.9999879,11.008927 v 6.843751 C 2.9999879,18.486605 3.5133809,19 4.1473093,19 4.7767739,18.9961 5.2901659,18.48214 5.2857019,17.852678 v -1.133929 c 0,-0.633929 0.5133931,-1.147323 1.147321,-1.147323 0.6294654,0.0039 1.142857,0.517858 1.138393,1.147323 v 1.133929 C 7.5714159,18.486605 8.0848089,19 8.7187368,19 9.3482021,18.9961 9.861594,18.48214 9.85713,17.852678 v -1.133929 c 0,-0.633929 0.513393,-1.147323 1.147321,-1.147323 0.629465,0.0039 1.142857,0.517858 1.138393,1.147323 v 1.133929 c 0,0.633927 0.51339,1.147322 1.147319,1.147322 0.629468,-0.0039 1.142857,-0.51786 1.138392,-1.147322 v -1.133929 c 0,-0.633929 0.513396,-1.147323 1.147324,-1.147323 0.629463,0.0039 1.142857,0.517858 1.138392,1.147323 v 1.133929 c 0,0.633927 0.513394,1.147322 1.147322,1.147322 0.629464,-0.004 1.142859,-0.51786 1.138394,-1.147322 v -6.843751 c 0,-4.4241057 -3.584823,-8.0089271 -8.008928,-8.0089271 z M 8.7142728,7.5714282 c 0.6339293,0 1.1428572,0.5089279 1.1428572,1.1428568 v 1.142857 c 0,0.633929 -0.5089279,1.142857 -1.1428572,1.142857 -0.633929,0 -1.1428569,-0.508928 -1.1428569,-1.142857 V 8.714285 c 0,-0.6339289 0.5089279,-1.1428568 1.1428569,-1.1428568 z m 4.5714292,0 c 0.633929,0 1.142853,0.5089279 1.142853,1.1428568 v 1.142857 c 0,0.633929 -0.508924,1.142857 -1.142853,1.142857 -0.633929,0 -1.142858,-0.508928 -1.142858,-1.142857 V 8.714285 c 0,-0.6339289 0.508929,-1.1428568 1.142858,-1.1428568 z m 0,0"
     fill="#aaaaaa"
     id="path1"
     style="stroke-width:0.999999;fill:#f2f2f2;fill-opacity:1" />
</svg>
