<?xml version="1.0" encoding="UTF-8" standalone="no"?>
<svg
   width="22"
   height="22"
   version="1.1"
   viewBox="0 0 22 22"
   id="svg3"
   sodipodi:docname="bluetooth-acquiring-symbolic.svg"
   inkscape:version="1.4.2 (unknown)"
   xmlns:inkscape="http://www.inkscape.org/namespaces/inkscape"
   xmlns:sodipodi="http://sodipodi.sourceforge.net/DTD/sodipodi-0.dtd"
   xmlns="http://www.w3.org/2000/svg"
   xmlns:svg="http://www.w3.org/2000/svg">
  <defs
     id="defs3" />
  <sodipodi:namedview
     id="namedview3"
     pagecolor="#ffffff"
     bordercolor="#000000"
     borderopacity="0.25"
     inkscape:showpageshadow="2"
     inkscape:pageopacity="0.0"
     inkscape:pagecheckerboard="0"
     inkscape:deskcolor="#d1d1d1"
     inkscape:zoom="33.410795"
     inkscape:cx="7.5424723"
     inkscape:cy="9.9967689"
     inkscape:current-layer="svg3" />
  <g
     id="g3"
     transform="translate(2.2847168,1.9984076)">
    <path
       d="M 8.1214653,1.0020584 A 0.57158549,0.57158549 0 0 0 7.9093711,1.0511731 0.57158549,0.57158549 0 0 0 7.572261,1.5713557 V 6.7151109 H 8.7153176 V 2.8439206 l 3.6233734,3.2193053 -1.042593,0.6518965 h 2.156607 l 0.138413,-0.087068 a 0.57158549,0.57158549 0 0 0 0.07592,-0.9108789 L 8.5232725,1.1449482 A 0.57158549,0.57158549 0 0 0 8.1214195,1.002066 Z M 4.2390733,5.5787428 A 0.57152834,0.57152834 0 0 0 3.6586176,5.8399539 0.57152834,0.57152834 0 0 0 3.8394488,6.6280342 l 0.1384131,0.087069 H 6.1367531 L 4.4467436,5.6591135 A 0.57152834,0.57152834 0 0 0 4.239119,5.5787421 Z M 3.9778619,11.28728 3.8394488,11.374313 a 0.57152834,0.57152834 0 0 0 -0.1808312,0.788078 0.57152834,0.57152834 0 0 0 0.7880804,0.180832 l 1.6900095,-1.05596 H 3.9778163 Z m 3.5943414,0 v 5.143756 a 0.57158549,0.57158549 0 0 0 0.9510576,0.426417 l 5.1437551,-4.572226 a 0.57158549,0.57158549 0 0 0 -0.07593,-0.91088 l -0.13842,-0.08705 h -2.156603 l 1.042592,0.651898 -3.6233741,3.219303 v -3.87121 H 7.5722536 Z"
       fill="#dedede"
       opacity="0.35"
       id="path1"
       style="stroke-width:0.999995;fill:#f2f2f2;fill-opacity:1" />
    <circle
       cx="8.7152843"
       cy="9.0011692"
       r="1.1430568"
       fill="#dedede"
       stop-color="#000000"
       stroke-linecap="round"
       stroke-linejoin="round"
       stroke-width="1.99999"
       id="circle1"
       style="fill:#f0f0f0;fill-opacity:1" />
    <circle
       cx="4.1430564"
       cy="9.0011692"
       r="1.1430568"
       fill="#dedede"
       stop-color="#000000"
       stroke-linecap="round"
       stroke-linejoin="round"
       stroke-width="1.99999"
       id="circle2"
       style="fill:#f0f0f0;fill-opacity:1" />
    <circle
       cx="13.28751"
       cy="9.0011692"
       r="1.1430568"
       fill="#dedede"
       stop-color="#000000"
       stroke-linecap="round"
       stroke-linejoin="round"
       stroke-width="1.99999"
       id="circle3"
       style="fill:#f0f0f0;fill-opacity:1" />
  </g>
</svg>
