<?xml version="1.0" encoding="UTF-8" standalone="no"?>
<svg
   width="22"
   height="22"
   version="1.1"
   id="svg2"
   sodipodi:docname="bluetooth-disconnected-symbolic.svg"
   inkscape:version="1.4.2 (unknown)"
   xmlns:inkscape="http://www.inkscape.org/namespaces/inkscape"
   xmlns:sodipodi="http://sodipodi.sourceforge.net/DTD/sodipodi-0.dtd"
   xmlns="http://www.w3.org/2000/svg"
   xmlns:svg="http://www.w3.org/2000/svg">
  <defs
     id="defs2" />
  <sodipodi:namedview
     id="namedview2"
     pagecolor="#ffffff"
     bordercolor="#000000"
     borderopacity="0.25"
     inkscape:showpageshadow="2"
     inkscape:pageopacity="0.0"
     inkscape:pagecheckerboard="0"
     inkscape:deskcolor="#d1d1d1"
     inkscape:zoom="23.625"
     inkscape:cx="17.291005"
     inkscape:cy="11.597884"
     inkscape:current-layer="svg2" />
  <g
     id="g2"
     transform="matrix(1.0667737,0,0,1.0667737,0.59908924,1.9316205)"
     style="stroke-width:0.937407">
    <path
       d="M 12.5,9 C 10.567,9 9,10.567 9,12.5 9,14.433 10.567,16 12.5,16 14.433,16 16,14.433 16,12.5 16,10.567 14.433,9 12.5,9 Z m -1.4141,1.5859 c 0.12781,0 0.25558,0.04855 0.35352,0.14648 l 1.0605,1.0605 1.0605,-1.0605 c 0.19587,-0.19587 0.51116,-0.19587 0.70703,0 0.19587,0.19587 0.19587,0.51116 0,0.70703 l -1.0605,1.0605 1.0605,1.0605 c 0.19587,0.19587 0.19587,0.51116 0,0.70703 -0.19587,0.19587 -0.51116,0.19587 -0.70703,0 l -1.0605,-1.0605 -1.0605,1.0605 c -0.19587,0.19587 -0.51116,0.19587 -0.70703,0 -0.19587,-0.19587 -0.19587,-0.51116 0,-0.70703 l 1.0605,-1.0605 -1.0605,-1.0605 c -0.19587,-0.19587 -0.19587,-0.51116 0,-0.70703 0.09793,-0.09793 0.22571,-0.14648 0.35352,-0.14648 z"
       fill="#dedede"
       id="path1"
       style="stroke-width:0.937407;fill:#f2f2f2;fill-opacity:1" />
    <path
       d="M 7.4805,1.002 A 0.50005,0.50005 0 0 0 7.29495,1.044969 0.50005,0.50005 0 0 0 7.00003,1.500049 v 5.2852 l -2.7344,-1.709 a 0.5,0.5 0 0 0 -0.68945,0.1582 0.5,0.5 0 0 0 0.1582,0.68945 l 3.2656,2.041 v 0.070312 l -3.2656,2.041 a 0.5,0.5 0 0 0 -0.1582,0.68945 0.5,0.5 0 0 0 0.68945,0.1582 l 2.7344,-1.709 v 5.2852 a 0.50005,0.50005 0 0 0 0.83203,0.37305 l 0.57227,-0.50977 a 4.5,4.5 0 0 1 -0.32227,-1.0508 l -0.082031,0.07422 v -0.88672 -3.9102 l 1.2695,0.79297 a 4.5,4.5 0 0 1 0.80859,-0.67383 L 8.943319,8 l 3.3223,-2.0762 a 0.50005,0.50005 0 0 0 0.06641,-0.79688 l -4.5,-4 a 0.50005,0.50005 0 0 0 -0.35156,-0.125 z m 0.51953,1.6113 3.1699,2.8164 -3.1699,1.9805 z"
       fill="#dedede"
       id="path2"
       style="stroke-width:0.937407;fill:#f2f2f2;fill-opacity:1" />
  </g>
</svg>
