<?xml version="1.0" encoding="UTF-8" standalone="no"?>
<svg
   width="22"
   height="22"
   version="1"
   id="svg3"
   sodipodi:docname="bumblebee-inactive-symbolic.svg"
   inkscape:version="1.4.2 (unknown)"
   xmlns:inkscape="http://www.inkscape.org/namespaces/inkscape"
   xmlns:sodipodi="http://sodipodi.sourceforge.net/DTD/sodipodi-0.dtd"
   xmlns="http://www.w3.org/2000/svg"
   xmlns:svg="http://www.w3.org/2000/svg">
  <defs
     id="defs3" />
  <sodipodi:namedview
     id="namedview3"
     pagecolor="#ffffff"
     bordercolor="#000000"
     borderopacity="0.25"
     inkscape:showpageshadow="2"
     inkscape:pageopacity="0.0"
     inkscape:pagecheckerboard="0"
     inkscape:deskcolor="#d1d1d1"
     inkscape:zoom="23.625"
     inkscape:cx="5.6931217"
     inkscape:cy="11.132275"
     inkscape:current-layer="svg3" />
  <g
     fill="#363636"
     id="g3"
     transform="matrix(1.0666667,0,0,1.0666667,1.9333384,2.4667091)"
     style="stroke-width:0.937499;fill:#f2f2f2;fill-opacity:0.5">
    <path
       d="m 11.016,4 c 1.5432,1.0513 2.416,2.3672 2.416,2.3672 a 1.0001,1.0001 0 0 1 0.10547,0.91016 1.0001,1.0001 0 0 1 0.41211,0.22461 c -0.004,-0.0036 0.05033,0.033598 0.05078,0.033203 v -3.5352 h -2.9844 z m 2.9844,7.3457 C 13.57212,11.58366 13.12125,11.80232 12.6508,12 h 1.3496 z"
       opacity="0.35"
       id="path1"
       style="stroke-width:0.937499;fill:#f2f2f2;fill-opacity:0.5" />
    <path
       d="M 6.9152,3.7282 C 6.826235,3.73199 6.76756,3.73753 6.67859,3.745101 v 0.00211 c -0.75691,0.068618 -1.4911,0.30148 -2.1654,0.61265 -0.67429,0.31117 -1.2878,0.70105 -1.8084,1.0816 -1.0412,0.76117 -1.7048,1.4872 -1.7048,1.4872 0,0 0.71523,2.3007 2.5161,3.8829 0.16369,0.14382 0.33568,0.28015 0.51758,0.40984 0.18234,0.13006 0.37342,0.25206 0.57462,0.36336 0.20068,0.11102 0.40954,0.21217 0.62955,0.29998 0.44053,0.17602 0.91941,0.29923 1.4408,0.35491 0.1997,0.02272 0.37318,0.03591 0.58518,0.03591 2.1976,4e-6 6.0734,-1.2712 7.7362,-2.8499 -0.24418,-0.2792 -1.4312,-0.91993 -1.7217,-1.183 -1.7481,1.7111 -3.5558,3.1562 -6.0525,3.1562 C 7.02518,11.39886 6.86322,11.38311 6.67866,11.35661 6.10548,11.274802 5.60376,11.07523 5.16396,10.80312 4.72415,10.531 4.3479,10.18618 4.02946,9.81866 3.81758,9.57409 3.63004,9.32051 3.46752,9.0687 c -3.538e-4,-5.48e-4 3.536e-4,-0.00156 0,-0.00211 -0.16237,-0.25171 -0.30171,-0.5 -0.41829,-0.73095 -3.259e-4,-6.455e-4 3.257e-4,-0.00147 0,-0.00211 C 2.93282,8.1028 2.83822,7.89025 2.76403,7.70821 2.7635705,7.70708 2.7644878,7.707222 2.76403,7.7061 2.61593,7.34248 2.54685,7.10337 2.54644,7.1019 2.5474427,7.1002598 2.74475,6.78075 3.13373,6.36673 3.26372,6.22837 3.41512,6.07997 3.58793,5.92943 3.5886253,5.9288243 3.58935,5.92792 3.59004,5.92732 3.629382,5.893125 3.681585,5.8602 3.72313,5.82592 4.4116,5.25705 5.39143,4.68882 6.67863,4.57742 6.766648,4.5708 6.82533,4.564305 6.91524,4.560519 c 2.4759,-0.088018 4.1005,2.4126 4.1005,2.4126 0,0 -1.7531,2.7611 -3.6336,2.7611 -0.27163,0 -0.48581,-0.049806 -0.70349,-0.13309 C 6.51533,9.538932 6.36605,9.457369 6.22868,9.362409 6.09216,9.268165 5.96929,9.160699 5.85687,9.045519 5.63132,8.814299 5.45188,8.552429 5.31394,8.306119 5.03806,7.813499 4.92523,7.382929 4.92523,7.382929 c 1e-7,0 0.78501,-1.0261 1.7513,-0.89362 h 0.00211 c 0.96347,0.1325 1.1289,0.61499 1.7091,1.7091 l 1.2866,-1.2316 c 0,0 -0.94041,-1.3985 -2.5266,-1.3985 -0.1713,0 -0.30715,0.014873 -0.46899,0.033801 C 6.21831,5.658896 5.80238,5.78831 5.43655,5.95068 5.07135,6.11277 4.75587,6.30792 4.49857,6.49572 3.98264,6.8723 3.69791,7.22033 3.69791,7.22033 c 0,0 0.093888,0.38193 0.33379,0.88517 0.028405,0.059671 0.068824,0.1275 0.1014,0.19013 0.15082,0.28961 0.33696,0.59994 0.58729,0.89995 0.15213,0.18233 0.32371,0.35925 0.51758,0.51969 0.3877,0.32093 0.86345,0.57839 1.4408,0.69503 0.21579,0.04354 0.41727,0.0676 0.66335,0.0676 2.6831,0 5.2603,-3.5512 5.2603,-3.5512 0,0 -2.2439,-3.33 -5.687,-3.1984 z"
       id="path2"
       style="stroke-width:0.937499;fill:#f2f2f2;fill-opacity:0.5" />
    <path
       d="M 8,2 C 7.446,2 7,2.446 7,3 V 4.1113 L 7.375,3.99997 8,4.17966 v -1.1797 h 7 v 10 H 8 v -1 H 7 v 1 c 0,0.554 0.446,1 1,1 h 7 c 0.554,0 1,-0.446 1,-1 v -10 c 0,-0.554 -0.446,-1 -1,-1 H 8 Z"
       id="path3"
       style="stroke-width:0.937499;fill:#f2f2f2;fill-opacity:0.5" />
  </g>
</svg>
