<?xml version="1.0" encoding="UTF-8" standalone="no"?>
<svg
   width="22"
   height="22"
   version="1.1"
   id="svg1"
   sodipodi:docname="data_icons_display-symbolic.svg"
   inkscape:version="1.4.2 (unknown)"
   xmlns:inkscape="http://www.inkscape.org/namespaces/inkscape"
   xmlns:sodipodi="http://sodipodi.sourceforge.net/DTD/sodipodi-0.dtd"
   xmlns="http://www.w3.org/2000/svg"
   xmlns:svg="http://www.w3.org/2000/svg">
  <defs
     id="defs1" />
  <sodipodi:namedview
     id="namedview1"
     pagecolor="#ffffff"
     bordercolor="#000000"
     borderopacity="0.25"
     inkscape:showpageshadow="2"
     inkscape:pageopacity="0.0"
     inkscape:pagecheckerboard="0"
     inkscape:deskcolor="#d1d1d1"
     inkscape:zoom="23.625"
     inkscape:cx="9.1851852"
     inkscape:cy="8.5502645"
     inkscape:current-layer="svg1" />
  <path
     d="m 6,4.5 c -1.662,0 -3,1.338 -3,3 v 7 c 0,1.662 1.338,3 3,3 h 10 c 1.662,0 3,-1.338 3,-3 v -7 c 0,-1.662 -1.338,-3 -3,-3 z m 0,1 h 10 c 1.108,0 2,0.892 2,2 v 7 c 0,1.108 -0.892,2 -2,2 H 6 c -1.108,0 -2,-0.892 -2,-2 v -7 c 0,-1.108 0.892,-2 2,-2 z"
     fill="#dedede"
     stroke-linecap="round"
     stroke-linejoin="round"
     stroke-width="1.0016"
     id="path1"
     style="fill:#f2f2f2;fill-opacity:1" />
  <rect
     x="7"
     y="18.5"
     width="8"
     height="1"
     rx="0.5"
     ry="0.5"
     fill="#dedede"
     stroke-linecap="round"
     stroke-linejoin="round"
     stroke-width="1.0016"
     id="rect1"
     style="fill:#f2f2f2;fill-opacity:1" />
</svg>
