<?xml version="1.0" encoding="UTF-8" standalone="no"?>
<svg
   width="22"
   height="22"
   version="1.1"
   id="svg8"
   sodipodi:docname="display-brightness-symbolic.svg"
   inkscape:version="1.4.2 (unknown)"
   xmlns:inkscape="http://www.inkscape.org/namespaces/inkscape"
   xmlns:sodipodi="http://sodipodi.sourceforge.net/DTD/sodipodi-0.dtd"
   xmlns="http://www.w3.org/2000/svg"
   xmlns:svg="http://www.w3.org/2000/svg"
   xmlns:rdf="http://www.w3.org/1999/02/22-rdf-syntax-ns#"
   xmlns:cc="http://creativecommons.org/ns#"
   xmlns:dc="http://purl.org/dc/elements/1.1/">
  <metadata
     id="metadata14">
    <rdf:RDF>
      <cc:Work
         rdf:about="">
        <dc:format>image/svg+xml</dc:format>
        <dc:type
           rdf:resource="http://purl.org/dc/dcmitype/StillImage" />
      </cc:Work>
    </rdf:RDF>
  </metadata>
  <defs
     id="defs12" />
  <sodipodi:namedview
     pagecolor="#ffffff"
     bordercolor="#666666"
     borderopacity="1"
     objecttolerance="10"
     gridtolerance="10"
     guidetolerance="10"
     inkscape:pageopacity="0"
     inkscape:pageshadow="2"
     inkscape:window-width="1920"
     inkscape:window-height="1026"
     id="namedview10"
     showgrid="false"
     inkscape:zoom="29.5"
     inkscape:cx="8.2542373"
     inkscape:cy="10.440678"
     inkscape:window-x="0"
     inkscape:window-y="30"
     inkscape:window-maximized="1"
     inkscape:current-layer="svg8"
     inkscape:showpageshadow="2"
     inkscape:pagecheckerboard="0"
     inkscape:deskcolor="#d1d1d1">
    <inkscape:grid
       type="xygrid"
       id="grid833"
       originx="0"
       originy="0"
       spacingy="1"
       spacingx="1"
       units="px"
       visible="false" />
  </sodipodi:namedview>
  <path
     style="opacity:1;fill:#f2f2f2;fill-opacity:1;stroke:none;stroke-width:2.65889;stroke-linecap:round;stroke-linejoin:round;stroke-miterlimit:4;stroke-dasharray:none;stroke-dashoffset:0;stroke-opacity:1;paint-order:normal"
     d="M 14.236328,3 12.619141,5.2226562 A 6,6 0 0 0 11,5 6,6 0 0 0 9.2871094,5.2519531 L 7.6308594,3.0527344 8.0585938,5.7734375 A 6,6 0 0 0 5.7285156,8.1464844 L 3,7.7636719 5.2226562,9.3808594 A 6,6 0 0 0 5,11 6,6 0 0 0 5.2519531,12.712891 l -2.1992187,1.65625 2.7207031,-0.427735 a 6,6 0 0 0 2.3730469,2.330078 L 7.7636719,19 9.3808594,16.777344 A 6,6 0 0 0 11,17 6,6 0 0 0 12.712891,16.748047 l 1.65625,2.199219 -0.427735,-2.720704 a 6,6 0 0 0 2.330078,-2.373046 L 19,14.236328 16.777344,12.619141 A 6,6 0 0 0 17,11 6,6 0 0 0 16.748047,9.2871094 l 2.199219,-1.65625 -2.720704,0.4277344 A 6,6 0 0 0 13.853516,5.7285156 Z M 10.933594,6 A 5,5 0 0 1 11,6 a 5,5 0 0 1 0.982422,0.097656 5,5 0 0 1 0.01172,0.00195 5,5 0 0 1 1.708984,0.7011718 5,5 0 0 1 1.453125,1.4257813 5,5 0 0 1 0.0039,0.00781 5,5 0 0 1 0.236328,0.3964844 5,5 0 0 1 0.01563,0.025391 5,5 0 0 1 0.002,0.00586 5,5 0 0 1 0.466797,1.2792968 A 5,5 0 0 1 16,11 a 5,5 0 0 1 -0.09766,0.982422 5,5 0 0 1 -0.002,0.01172 5,5 0 0 1 -0.701172,1.708984 5,5 0 0 1 -1.425781,1.453125 5,5 0 0 1 -0.0078,0.0039 5,5 0 0 1 -0.396484,0.236328 5,5 0 0 1 -0.02539,0.01563 5,5 0 0 1 -0.0059,0.002 5,5 0 0 1 -1.279219,0.466751 A 5,5 0 0 1 11,16 a 5,5 0 0 1 -0.982422,-0.09766 5,5 0 0 1 -0.01172,-0.002 A 5,5 0 0 1 8.296875,15.199219 5,5 0 0 1 6.84375,13.773438 5,5 0 0 1 6.8398438,13.765625 5,5 0 0 1 6.6035156,13.369141 5,5 0 0 1 6.5859375,13.337891 5,5 0 0 1 6.1191406,12.058594 5,5 0 0 1 6,11 a 5,5 0 0 1 0.097656,-0.982422 5,5 0 0 1 0,-0.002 5,5 0 0 1 0.00195,-0.0098 A 5,5 0 0 1 6.8007812,8.296875 5,5 0 0 1 8.2265625,6.84375 5,5 0 0 1 8.234375,6.8398438 5,5 0 0 1 8.6308594,6.6035156 5,5 0 0 1 8.6621094,6.5859375 5,5 0 0 1 9.9414062,6.1191406 5,5 0 0 1 10.933594,6 Z M 11,7 v 8 a 4,4 0 0 0 4,-4 4,4 0 0 0 -4,-4 z"
     id="path854" />
</svg>
