<?xml version="1.0" encoding="UTF-8" standalone="no"?>
<svg
   width="22"
   height="22"
   version="1.1"
   id="svg1"
   sodipodi:docname="display-brightness-high-symbolic.svg"
   inkscape:version="1.4.2 (unknown)"
   xmlns:inkscape="http://www.inkscape.org/namespaces/inkscape"
   xmlns:sodipodi="http://sodipodi.sourceforge.net/DTD/sodipodi-0.dtd"
   xmlns="http://www.w3.org/2000/svg"
   xmlns:svg="http://www.w3.org/2000/svg">
  <defs
     id="defs1" />
  <sodipodi:namedview
     id="namedview1"
     pagecolor="#ffffff"
     bordercolor="#000000"
     borderopacity="0.25"
     inkscape:showpageshadow="2"
     inkscape:pageopacity="0.0"
     inkscape:pagecheckerboard="0"
     inkscape:deskcolor="#d1d1d1"
     inkscape:zoom="23.625"
     inkscape:cx="6.0952381"
     inkscape:cy="10.793651"
     inkscape:current-layer="svg1" />
  <path
     d="M 11,3 8.593407,5.5054944 H 5.5054944 V 8.593407 L 3,11 5.5054944,13.43956 v 3.054947 H 8.593407 L 11,19 13.43956,16.494507 h 3.054947 V 13.43956 L 19,11 16.494507,8.802198 V 5.5054944 H 13.43956 Z m 0,3.6043957 c 2.428574,0 4.395605,1.967033 4.395605,4.3956043 0,2.428574 -1.967031,4.395605 -4.395605,4.395605 C 8.5714287,15.395605 6.6043957,13.428574 6.6043957,11 6.6043957,8.5714287 8.5714287,6.6043957 11,6.6043957 Z m 0,1.0989012 a 3.2967041,3.2967041 0 1 0 0,6.5934081 3.2967041,3.2967041 0 0 0 0,-6.5934081 z"
     fill="#aaaaaa"
     id="path1"
     style="stroke-width:1;fill:#f2f2f2;fill-opacity:1" />
</svg>
