<?xml version="1.0" encoding="UTF-8" standalone="no"?>
<svg
   width="16"
   height="16"
   version="1.1"
   id="svg7"
   sodipodi:docname="gnome-pie-symbolic.svg"
   inkscape:version="1.4.2 (unknown)"
   xmlns:inkscape="http://www.inkscape.org/namespaces/inkscape"
   xmlns:sodipodi="http://sodipodi.sourceforge.net/DTD/sodipodi-0.dtd"
   xmlns="http://www.w3.org/2000/svg"
   xmlns:svg="http://www.w3.org/2000/svg">
  <sodipodi:namedview
     id="namedview1"
     pagecolor="#ffffff"
     bordercolor="#000000"
     borderopacity="0.25"
     inkscape:showpageshadow="2"
     inkscape:pageopacity="0.0"
     inkscape:pagecheckerboard="0"
     inkscape:deskcolor="#d1d1d1"
     inkscape:zoom="23.625"
     inkscape:cx="3.9365079"
     inkscape:cy="15.661376"
     inkscape:current-layer="svg7" />
  <defs
     id="defs3">
    <style
       id="current-color-scheme"
       type="text/css" />
  </defs>
  <path
     d="M 10.336465,2.0053938 A 2.5696845,2.5696845 0 0 0 7.9227791,3.2962369 2.5696845,2.5696845 0 1 0 11.430167,2.3405337 v -0.00177 A 2.5585428,2.5585428 0 0 0 10.336465,2.0045377 Z M 4.8850998,3.7196604 A 1.7142659,1.7142659 0 1 0 5.1362396,7.1387642 1.7145536,1.7145536 0 0 0 4.8859565,3.7188032 Z M 3.6302569,8.0053257 A 1.2856995,1.2856995 0 1 0 4.3631054,8.1690382 1.2805571,1.2805571 0 0 0 3.6302569,8.0053257 Z m 8.1127671,0 A 1.7134094,1.7134094 0 1 0 11.99245,11.422715 1.7134094,1.7134094 0 0 0 11.743024,8.0053257 Z M 8.9521958,11.430432 a 1.2856995,1.2856995 0 1 0 1.0645592,1.859981 c 0.317996,-0.634288 0.06171,-1.405702 -0.5725646,-1.72456 A 1.2831279,1.2831279 0 0 0 8.9521958,11.430432 Z m -4.0045257,0.858847 a 0.85713308,0.85713308 0 1 0 0.4885658,0.108856 0.85113313,0.85113313 0 0 0 -0.4885658,-0.108856 z"
     id="path5"
     fill="#aaaaaa"
     fill-opacity="1"
     color="#dfdfdf"
     style="stroke-width:0.999998;fill:#f2f2f2;fill-opacity:1" />
</svg>
