<?xml version="1.0" encoding="UTF-8" standalone="no"?>
<svg
   height="16"
   width="16"
   version="1.1"
   id="svg1"
   sodipodi:docname="input-keyboard-capslock-symbolic.svg"
   inkscape:version="1.4.2 (unknown)"
   xmlns:inkscape="http://www.inkscape.org/namespaces/inkscape"
   xmlns:sodipodi="http://sodipodi.sourceforge.net/DTD/sodipodi-0.dtd"
   xmlns="http://www.w3.org/2000/svg"
   xmlns:svg="http://www.w3.org/2000/svg">
  <defs
     id="defs1" />
  <sodipodi:namedview
     id="namedview1"
     pagecolor="#ffffff"
     bordercolor="#000000"
     borderopacity="0.25"
     inkscape:showpageshadow="2"
     inkscape:pageopacity="0.0"
     inkscape:pagecheckerboard="0"
     inkscape:deskcolor="#d1d1d1"
     inkscape:zoom="23.625"
     inkscape:cx="5.1640212"
     inkscape:cy="4.7407407"
     inkscape:current-layer="svg1" />
  <path
     d="M 3.7142862,2 C 2.764572,2 2,2.764572 2,3.7142862 V 12.28572 C 2,13.235422 2.764572,14 3.7142862,14 H 12.28572 C 13.235422,14 14,13.235422 14,12.28572 V 3.7142862 C 14,2.764572 13.235422,2 12.28572,2 Z m 0,0.8571421 H 12.28572 c 0.474858,0 0.85714,0.3822863 0.85714,0.8571441 v 7.7142918 c 0,0.474844 -0.382282,0.857142 -0.85714,0.857142 H 3.7142862 c -0.4748578,0 -0.8571441,-0.382298 -0.8571441,-0.857142 V 3.7142862 c 0,-0.4748578 0.3822863,-0.8571441 0.8571441,-0.8571441 z M 8.0000004,3.7357143 A 0.44742862,0.44742862 0 0 0 7.678572,3.8728577 L 5.5357144,6.4442862 A 0.36000002,0.36000002 0 0 0 5.4585737,6.6577144 C 5.447432,6.8865722 5.619716,7.1342864 5.8571443,7.1411426 h 1.285714 v 2.9999994 c 0,0.223717 0.2040001,0.428576 0.4285716,0.428576 h 0.857143 a 0.42000003,0.42000003 0 0 0 0.080577,0 0.44314283,0.44314283 0 0 0 0.3479999,-0.428576 V 7.1411426 h 1.2857092 c 0.316284,-0.010288 0.518565,-0.4491422 0.321425,-0.696 L 8.3214287,3.8737143 A 0.44742862,0.44742862 0 0 0 8.0000004,3.736572 Z"
     style="stroke-width:0.999982;marker:none;fill:#f2f2f2;fill-opacity:1"
     fill="#dedede"
     id="path1" />
</svg>
