<?xml version="1.0" encoding="UTF-8" standalone="no"?>
<svg
   width="16"
   height="16"
   version="1.1"
   id="svg1"
   sodipodi:docname="input-keyboard-numlock-symbolic.svg"
   inkscape:version="1.4.2 (unknown)"
   xmlns:inkscape="http://www.inkscape.org/namespaces/inkscape"
   xmlns:sodipodi="http://sodipodi.sourceforge.net/DTD/sodipodi-0.dtd"
   xmlns="http://www.w3.org/2000/svg"
   xmlns:svg="http://www.w3.org/2000/svg">
  <defs
     id="defs1" />
  <sodipodi:namedview
     id="namedview1"
     pagecolor="#ffffff"
     bordercolor="#000000"
     borderopacity="0.25"
     inkscape:showpageshadow="2"
     inkscape:pageopacity="0.0"
     inkscape:pagecheckerboard="0"
     inkscape:deskcolor="#d1d1d1"
     inkscape:zoom="33.410795"
     inkscape:cx="8.7097597"
     inkscape:cy="11.223917"
     inkscape:current-layer="svg1" />
  <path
     d="M 3.714286,2 C 2.764572,2 2,2.764572 2,3.714286 V 12.28572 C 2,13.235422 2.764572,14 3.714286,14 H 12.28572 C 13.235422,14 14,13.235422 14,12.28572 V 3.714286 C 14,2.764572 13.235422,2 12.28572,2 Z m 0,0.8571422 h 8.571434 c 0.474858,0 0.85714,0.3822858 0.85714,0.8571438 v 7.714292 c 0,0.474844 -0.382282,0.857142 -0.85714,0.857142 H 3.714286 c -0.474858,0 -0.8571438,-0.382298 -0.8571438,-0.857142 V 3.714286 c 0,-0.474858 0.3822858,-0.8571438 0.8571438,-0.8571438 z M 7.1428568,4.571428 5.428572,6.3311424 6.285714,7.1428568 c 0.4414284,-0.36 0.8571428,-0.8571428 0.8571428,-0.8571428 v 4.285709 H 8.8571425 V 4.571428 Z"
     style="stroke-width:0.999997;marker:none;fill:#f2f2f2;fill-opacity:1"
     fill="#dedede"
     id="path1" />
</svg>
