<?xml version="1.0" encoding="UTF-8" standalone="no"?>
<svg
   width="22"
   height="22"
   version="1.1"
   id="svg2"
   sodipodi:docname="microphone-hardware-disabled-symbolic.svg"
   inkscape:version="1.4.2 (unknown)"
   xmlns:inkscape="http://www.inkscape.org/namespaces/inkscape"
   xmlns:sodipodi="http://sodipodi.sourceforge.net/DTD/sodipodi-0.dtd"
   xmlns="http://www.w3.org/2000/svg"
   xmlns:svg="http://www.w3.org/2000/svg">
  <defs
     id="defs2" />
  <sodipodi:namedview
     id="namedview2"
     pagecolor="#ffffff"
     bordercolor="#000000"
     borderopacity="0.25"
     inkscape:showpageshadow="2"
     inkscape:pageopacity="0.0"
     inkscape:pagecheckerboard="0"
     inkscape:deskcolor="#d1d1d1"
     inkscape:zoom="16.705398"
     inkscape:cx="10.026699"
     inkscape:cy="8.5601075"
     inkscape:current-layer="svg2" />
  <g
     id="g2"
     transform="translate(3,2.988)">
    <rect
       x="5"
       width="6"
       height="12.025"
       rx="3"
       ry="3"
       fill="#dedede"
       fill-rule="evenodd"
       opacity="0.35"
       stroke-width="1.0966"
       id="rect1"
       y="0"
       style="fill:#f1f1f1;fill-opacity:1" />
    <path
       d="M 3.5,7.025 C 3.223,7.025 3,7.248 3,7.525 v 1.5 c 0,2.6 1.967,4.725 4.5,4.975 v 1.024 h -2 a 0.5,0.5 0 1 0 0,1 h 5 a 0.5,0.5 0 1 0 0,-1 h -2 V 13.999 A 4.988,4.988 0 0 0 13,9.024 v -1.5 a 0.5,0.5 0 1 0 -1,0 v 1.5 c 0,2.216 -1.784,4 -4,4 -2.216,0 -4,-1.784 -4,-4 v -1.5 C 4,7.247 3.777,7.024 3.5,7.024 Z"
       fill="#dedede"
       fill-rule="evenodd"
       opacity="0.35"
       id="path1"
       style="fill:#f2f2f2;fill-opacity:1" />
    <rect
       y="7"
       width="16"
       height="2"
       rx="1"
       ry="1"
       fill="#dedede"
       stroke-linecap="round"
       stroke-linejoin="round"
       stroke-width="1.549"
       style="paint-order:stroke fill markers;fill:#f2f2f2;fill-opacity:1"
       id="rect2"
       x="0" />
  </g>
</svg>
