<?xml version="1.0" encoding="UTF-8" standalone="no"?>
<svg
   width="22"
   height="22"
   version="1.1"
   id="svg1"
   sodipodi:docname="mpi-symbolic.svg"
   inkscape:version="1.4.2 (unknown)"
   xmlns:inkscape="http://www.inkscape.org/namespaces/inkscape"
   xmlns:sodipodi="http://sodipodi.sourceforge.net/DTD/sodipodi-0.dtd"
   xmlns="http://www.w3.org/2000/svg"
   xmlns:svg="http://www.w3.org/2000/svg">
  <defs
     id="defs1" />
  <sodipodi:namedview
     id="namedview1"
     pagecolor="#ffffff"
     bordercolor="#000000"
     borderopacity="0.25"
     inkscape:showpageshadow="2"
     inkscape:pageopacity="0.0"
     inkscape:pagecheckerboard="0"
     inkscape:deskcolor="#d1d1d1"
     inkscape:zoom="23.625"
     inkscape:cx="5.1216931"
     inkscape:cy="12.656085"
     inkscape:current-layer="svg1" />
  <path
     d="m 16.874333,3.0000136 -7.3773996,1.9053 c -0.55422,0.14836 -1.0009,0.73837 -1.0009,1.3116 v 9.0892004 c -0.562,-0.294 -1.2839,-0.41299 -2.0322,-0.21874 -1.3503,0.35052 -2.1966,1.4838 -1.9071,2.5303 0.28945,1.0465 1.6203,1.6309 2.9706,1.2804 1.0773,-0.27964 1.82,-1.071 1.9384,-1.9053 l 0.031278,-8.5892004 7.0020996,-1.8741 v 6.7776004 c -0.562,-0.294 -1.2831,-0.41299 -2.0314,-0.21874 -1.3503,0.35052 -2.1966,1.4838 -1.9071,2.5303 0.28945,1.0465 1.6194,1.6309 2.9697,1.2804 1.0773,-0.27964 1.82,-1.071 1.9384,-1.9053 l 0.03128,-11.1810003 c 0,-0.42993 -0.26627,-0.752 -0.62557,-0.8124801 z"
     fill="#dedede"
     id="path1"
     style="fill:#f2f2f2;fill-opacity:1" />
</svg>
