<?xml version="1.0" encoding="UTF-8" standalone="no"?>
<svg
   version="1.1"
   viewBox="0 0 16 16"
   id="svg2"
   sodipodi:docname="network-vpn.svg"
   inkscape:version="1.4.2 (unknown)"
   xmlns:inkscape="http://www.inkscape.org/namespaces/inkscape"
   xmlns:sodipodi="http://sodipodi.sourceforge.net/DTD/sodipodi-0.dtd"
   xmlns="http://www.w3.org/2000/svg"
   xmlns:svg="http://www.w3.org/2000/svg">
  <sodipodi:namedview
     id="namedview2"
     pagecolor="#ffffff"
     bordercolor="#000000"
     borderopacity="0.25"
     inkscape:showpageshadow="2"
     inkscape:pageopacity="0.0"
     inkscape:pagecheckerboard="0"
     inkscape:deskcolor="#d1d1d1"
     inkscape:zoom="23.65625"
     inkscape:cx="7.6301189"
     inkscape:cy="10.03963"
     inkscape:current-layer="svg2" />
  <defs
     id="defs1">
    <style
       id="current-color-scheme"
       type="text/css">.ColorScheme-Text {
        color:#dedede;
      }</style>
  </defs>
  <g
     id="g2"
     transform="translate(1.7498353,1.9999496)">
    <path
       d="M 6.2135401,2.9999681 A 1.5000404,1.5000404 0 0 0 4.7501007,4.5000084 1.5000404,1.5000404 0 0 0 5.3814675,5.7232166 L 4.7501007,8.2501092 H 7.7501811 L 7.1188142,5.7232166 A 1.5000404,1.5000404 0 0 0 7.7501811,4.5000084 1.5000404,1.5000404 0 0 0 6.2501409,2.9999681 a 1.5000404,1.5000404 0 0 0 -0.036622,0 z m 0.036622,0.7500203 a 0.75002014,0.75002014 0 0 1 0.7500198,0.75002 0.75002014,0.75002014 0 0 1 -0.7500202,0.7500203 0.75002014,0.75002014 0 0 1 -0.75002,-0.7500203 0.75002014,0.75002014 0 0 1 0.7500204,-0.75002 z"
       style="fill:currentColor;stroke-width:0.999992"
       class="ColorScheme-Text"
       id="path1" />
    <path
       d="M 6.2750415,-1.1235958e-4 A 0.75009515,0.75009515 0 0 0 5.9791363,0.05115827 L 1.479015,1.79143 A 0.75009515,0.75009515 0 0 0 0.99999988,2.4916413 V 6.0000106 C 1.0001648,8.7463597 3.0090038,10.823167 5.7169516,11.850767 l 0.2666097,0.101082 a 0.75009515,0.75009515 0 0 0 0.5317493,0 l 0.2666096,-0.101082 a 0.75009515,0.75009515 0 0 0 0.00147,0 C 9.4914,10.823167 11.500101,8.7463597 11.50033,6.0000106 V 2.4916413 A 0.75009515,0.75009515 0 0 0 11.021321,1.7928923 L 6.5212004,0.05112074 A 0.75009515,0.75009515 0 0 0 6.275104,-1.4986059e-4 Z M 6.2501387,0.74990778 10.750262,2.4916797 V 6.0000488 C 10.75011,8.3878148 9.0375897,10.192513 6.5167708,11.149086 L 6.2501612,11.250169 5.9835516,11.149086 C 3.4628087,10.192513 1.7502126,8.3878148 1.7500627,6.0000488 V 2.4916797 L 6.2501836,0.74990778 Z"
       style="fill:currentColor;stroke-width:0.999992"
       class="ColorScheme-Text"
       id="path2" />
  </g>
</svg>
