<?xml version="1.0" encoding="UTF-8" standalone="no"?>
<svg
   width="16px"
   height="16px"
   version="1.1"
   viewBox="0 0 16 16"
   id="svg2"
   sodipodi:docname="network-vpn-disabled-symbolic.svg"
   inkscape:version="1.4.2 (unknown)"
   xmlns:inkscape="http://www.inkscape.org/namespaces/inkscape"
   xmlns:sodipodi="http://sodipodi.sourceforge.net/DTD/sodipodi-0.dtd"
   xmlns="http://www.w3.org/2000/svg"
   xmlns:svg="http://www.w3.org/2000/svg">
  <defs
     id="defs2" />
  <sodipodi:namedview
     id="namedview2"
     pagecolor="#ffffff"
     bordercolor="#000000"
     borderopacity="0.25"
     inkscape:showpageshadow="2"
     inkscape:pageopacity="0.0"
     inkscape:pagecheckerboard="0"
     inkscape:deskcolor="#d1d1d1"
     inkscape:zoom="23.65625"
     inkscape:cx="7.8203435"
     inkscape:cy="6.4042272"
     inkscape:current-layer="svg2" />
  <g
     id="g2"
     transform="translate(1.8019445,2)">
    <path
       d="M 6.19656,0 C 5.9933069,0 5.7905713,0.04592134 5.5857582,0.11718066 c -0.00934,0.003234 -0.018626,0.006656 -0.02783,0.0102535 C 4.7072529,0.46264963 2.7327683,1.1164015 1.6646056,1.5423764 c -0.00587,0.00236 -0.011749,0.00481 -0.017578,0.00735 C 1.474583,1.6236196 1.2297673,1.7815692 1.0933503,2.0286799 0.95693318,2.2757904 0.95142108,2.4925353 0.95127101,2.6643878 l -0.002934,4.0061162 c -9.2763e-4,1.1209587 0.35575759,2.0541285 1.10446139,2.7815856 0.747444,0.7262514 1.796445,1.3271974 3.3528293,2.2762684 9.022e-4,5.76e-4 0.00195,9.82e-4 0.003,0.0017 0.00126,7.48e-4 0.00174,6.32e-4 0.003,0.0017 0.2358313,0.145677 0.5079154,0.26564 0.7792797,0.266585 L 6.1923856,12 h 0.00149 l 0.00149,-0.0017 c 0.2681016,-0.0011 0.5526127,-0.12259 0.7894786,-0.269521 h 0.00149 C 8.5213208,10.800594 9.5701354,10.203255 10.32159,9.4744426 11.074621,8.7441244 11.444124,7.8039173 11.445026,6.6723835 l 0.0033,-4.006116 C 11.44805,2.4937005 11.445026,2.2748931 11.304355,2.0231029 11.163696,1.7713053 10.903409,1.6089995 10.71699,1.5382714 c -0.0054,-0.00155 -0.0097,-0.003 -0.01468,-0.00435 C 9.6787173,1.1695058 7.713907,0.47093652 6.8425327,0.12753156 6.8328396,0.12391225 6.8230728,0.12049321 6.813238,0.11727816 6.6084175,0.0460098 6.3995396,9.7494301e-5 6.1965714,9.7494301e-5 Z m 0,0.74995622 c 0.1029318,0 0.2127702,0.0212569 0.3705837,0.0761658 0.905722,0.35694148 2.8606326,1.04971368 3.8830483,1.41351728 0.199007,0.075508 0.247749,0.1776646 0.247545,0.4247829 l -0.0033,4.006116 C 10.693057,8.6817712 9.6783744,9.223988 6.5905037,11.091156 6.3924402,11.214133 6.2959433,11.249028 6.193552,11.249351 6.0979786,11.24902 5.9990593,11.214102 5.8010183,11.091156 2.6719758,9.1828928 1.6965828,8.6679723 1.6982329,6.6705382 L 1.701218,2.6644218 C 1.7013789,2.4173038 1.7492449,2.3220068 1.9413837,2.2396393 2.9569744,1.8346405 4.9274844,1.183101 5.8332815,0.82612184 5.9911022,0.77120928 6.1004684,0.74995616 6.1965376,0.74995616 Z"
       fill="#dedede"
       opacity="0.35"
       id="path1"
       style="stroke-width:0.999983" />
    <path
       d="M 5.0731259,3.7497811 A 1.8748905,1.8748905 0 0 0 3.1982353,5.6246715 1.8748905,1.8748905 0 0 0 5.0731259,7.4995622 1.8748905,1.8748905 0 0 0 6.9055688,5.9996497 H 8.447929 v 0.3749782 c 0,0.2077379 0.1672398,0.3749782 0.3749772,0.3749782 0.2077395,0 0.3749785,-0.1672403 0.3749785,-0.3749782 V 5.9996497 h 0.3749791 c 0.2077371,0 0.3749776,-0.1672403 0.3749776,-0.3749782 0,-0.2077375 -0.1672405,-0.3749778 -0.3749776,-0.3749778 H 6.9099185 A 1.8748905,1.8748905 0 0 0 5.0731259,3.7497811 Z m 0,0.7499561 A 1.1249344,1.1249344 0 0 1 6.19806,5.6246715 1.1249344,1.1249344 0 0 1 5.0731259,6.7496061 1.1249344,1.1249344 0 0 1 3.9481913,5.6246715 1.1249344,1.1249344 0 0 1 5.0731259,4.4997372 Z"
       fill="#dedede"
       opacity="0.35"
       id="path2"
       style="stroke-width:0.999983" />
    <rect
       transform="rotate(45)"
       x="1.1255146"
       y="-0.51527536"
       width="14.999125"
       height="0.74995619"
       rx="0.49999985"
       ry="0.49999985"
       fill="#dedede"
       stroke-linecap="round"
       stroke-linejoin="round"
       stroke-width="0.48307"
       style="paint-order:markers stroke fill"
       id="rect2" />
  </g>
</svg>
