<?xml version="1.0" encoding="UTF-8" standalone="no"?>
<svg
   width="22"
   height="22"
   version="1.1"
   id="svg1"
   sodipodi:docname="network-receive-symbolic.svg"
   inkscape:version="1.4.2 (unknown)"
   xmlns:inkscape="http://www.inkscape.org/namespaces/inkscape"
   xmlns:sodipodi="http://sodipodi.sourceforge.net/DTD/sodipodi-0.dtd"
   xmlns="http://www.w3.org/2000/svg"
   xmlns:svg="http://www.w3.org/2000/svg">
  <defs
     id="defs1" />
  <sodipodi:namedview
     id="namedview1"
     pagecolor="#939393"
     bordercolor="#999999"
     borderopacity="1"
     inkscape:showpageshadow="2"
     inkscape:pageopacity="0"
     inkscape:pagecheckerboard="0"
     inkscape:deskcolor="#d1d1d1"
     inkscape:zoom="24.491608"
     inkscape:cx="11.003769"
     inkscape:cy="15.04597"
     inkscape:window-width="1920"
     inkscape:window-height="994"
     inkscape:window-x="0"
     inkscape:window-y="0"
     inkscape:window-maximized="1"
     inkscape:current-layer="svg1"
     showgrid="false">
    <inkscape:grid
       id="grid1"
       units="px"
       originx="0"
       originy="0"
       spacingx="1"
       spacingy="1"
       empcolor="#0099e5"
       empopacity="0.30196078"
       color="#0099e5"
       opacity="0.14902"
       empspacing="5"
       dotted="false"
       gridanglex="30"
       gridanglez="30"
       visible="false" />
  </sodipodi:namedview>
  <style
     type="text/css"
     id="current-color-scheme">.ColorScheme-Text { color:#fcfcfc; }
.ColorScheme-Background { color:#eff0f1; }
.ColorScheme-Highlight { color:#3498db; }
.ColorScheme-ViewText { color:#31363b; }
.ColorScheme-ViewBackground { color:#fcfcfc; }
.ColorScheme-ViewHover { color:#93cee9; }
.ColorScheme-ViewFocus { color:#3daee9; }
.ColorScheme-ButtonText { color:#31363b; }
.ColorScheme-ButtonBackground { color:#eff0f1; }
.ColorScheme-ButtonHover { color:#93cee9; }
.ColorScheme-ButtonFocus { color:#3daee9; }
.ColorScheme-NegativeText { color: #e74c3c; }
</style>
  <g
     id="g1"
     transform="translate(0.287052,-20.5)">
    <path
       style="fill:currentColor;fill-opacity:1;stroke:none;stroke-width:0.99922"
       d="m 4.7129495,24 c -1,0 -2,1 -2,2 v 8 c 0,1 1.04598,2 2.02184,2.00007 L 8.5288595,36 c 0,0 0,1 0.9984405,1 v 0 1 H 3.2371295 c -0.69891,0 -0.69891,1 0,1 H 9.5273 c 0,0 0,1 0.99844,1 v 0 c 0.99844,0 0.99844,-1 0.99844,-1 h 5.8908 c 0.798749,0 0.798749,-1 0,-1 h -5.8908 v -1 c 0.99844,0 0.99844,-1 0.99844,-1 v 0 0 0 0 0 l -1.0234,-1 V 25 c 0.69891,0 0.69891,-1 0,-1 z m 0.52106,1 h 5.2667705 0.99844 v 10 l 1.0234,1 h 0.97348 c 0.69891,0 0.69891,-1 0,-1 l -8.3905705,1e-5 C 4.2613495,35 3.7129495,34.49345 3.7129495,33.5 v -7 c 0,-1 0.52262,-1.5 1.52106,-1.5 z"
       id="rect4144-9-6-6"
       class="ColorScheme-Text "
       sodipodi:nodetypes="ccccccccccccccccccccccccccccccccccccccc" />
    <path
       class="ColorScheme-Text "
       d="m 14.719189,23 c -0.41602,0 -1.00624,0.5 -1.00624,1 v 3 c 0,0.5 0.59022,1 1.00624,1 h 0.99376 v 2 h 1 v 2 h -1 v 2 c 0,0.7 1,0.7 1,0 v -4 -2 h 1.00156 c 0.49922,0 0.99844,-0.5 0.99844,-1 v -3 c 0,-0.5 -0.49922,-1 -0.99844,-1 z m -0.006,1 h 3.001561 -0.002 v 2 1 h -3 l 0.006,-1 z"
       stroke-opacity="0"
       stroke-width="0.334742"
       id="path5-3-2"
       style="fill:currentColor;fill-opacity:1"
       sodipodi:nodetypes="sssccccccccccssssscccccccc" />
  </g>
  <path
     d="m 8.3924734,6.5931532 c 0.146215,0 0.292385,0.057774 0.404429,0.1698158 0.224076,0.224076 0.224076,0.5847687 0,0.8088444 l -1.450139,1.4501403 h 4.3392046 c 0.316891,0 0.572004,0.255114 0.572004,0.572002 0,0.31689 -0.255113,0.5720033 -0.572004,0.5720033 H 7.3467634 l 1.450139,1.450139 c 0.224076,0.224076 0.224076,0.584769 0,0.808845 -0.224077,0.224077 -0.584768,0.224077 -0.808848,0 L 5.601779,10.036377 C 5.573077,10.012757 5.547158,9.984737 5.523579,9.955957 5.518269,9.949557 5.51289,9.942597 5.507935,9.935867 5.501245,9.927267 5.494011,9.918427 5.487828,9.909027 5.478808,9.895497 5.470979,9.880767 5.463246,9.866547 c -0.00127,-0.0021 -0.0032,-0.0045 -0.00443,-0.0066 -0.00298,-0.0056 -0.00397,-0.01213 -0.00669,-0.01789 -0.00142,-0.0034 -0.00305,-0.0059 -0.00443,-0.0084 C 5.443946,9.825857 5.439906,9.817477 5.43648,9.809067 5.422882,9.775377 5.412219,9.740647 5.4052,9.704055 5.402,9.687425 5.39801,9.669415 5.39625,9.652625 c -7.46e-5,-7.41e-4 7.19e-5,-0.0012 0,-0.002 -6.97e-5,-7.3e-4 6.73e-5,-0.0013 0,-0.002 C 5.3945,9.630505 5.394,9.613335 5.394,9.595105 c 0,-0.01827 5.729e-4,-0.03583 0.00225,-0.0536 6.86e-5,-7.12e-4 -7.09e-5,-0.0013 0,-0.002 v -0.002 c 0.00174,-0.01712 0.00579,-0.03478 0.00895,-0.05143 0.00704,-0.03656 0.017695,-0.07133 0.03128,-0.105012 0.00343,-0.0081 0.00737,-0.01635 0.011216,-0.02459 0.0041,-0.0084 0.00665,-0.01816 0.011217,-0.02684 0.00124,-0.002 0.00317,-0.0047 0.00443,-0.0066 0.00781,-0.0144 0.015604,-0.02882 0.024582,-0.04248 0.00111,-0.0015 0.00338,-0.0024 0.00443,-0.0047 9.342e-4,-0.0012 0.00129,-0.0036 0.00225,-0.0047 0.00305,-0.0047 0.00579,-0.0086 0.00895,-0.01336 0.00579,-0.0076 0.0139,-0.01474 0.020109,-0.02232 3.557e-4,-4.35e-4 -3.572e-4,-0.0016 0,-0.002 v -0.002 C 5.535265,9.217283 5.548727,9.204153 5.561646,9.191263 5.574597,9.178483 5.58775,9.164913 5.601862,9.153303 L 7.9880534,6.7628159 C 8.1001034,6.6507771 8.2462704,6.593 8.3924854,6.593 Z"
     id="path2"
     style="stroke-width:1"
     class="ColorScheme-Text"
     fill="currentColor" />
</svg>
