<?xml version="1.0" encoding="UTF-8" standalone="no"?>
<svg
   width="24"
   height="24"
   version="1.1"
   id="svg1"
   sodipodi:docname="network-cellular-2g-symbolic.svg"
   inkscape:version="1.4.2 (unknown)"
   xmlns:inkscape="http://www.inkscape.org/namespaces/inkscape"
   xmlns:sodipodi="http://sodipodi.sourceforge.net/DTD/sodipodi-0.dtd"
   xmlns="http://www.w3.org/2000/svg"
   xmlns:svg="http://www.w3.org/2000/svg">
  <defs
     id="defs1" />
  <sodipodi:namedview
     id="namedview1"
     pagecolor="#ffffff"
     bordercolor="#000000"
     borderopacity="0.25"
     inkscape:showpageshadow="2"
     inkscape:pageopacity="0.0"
     inkscape:pagecheckerboard="0"
     inkscape:deskcolor="#d1d1d1"
     inkscape:zoom="23.625"
     inkscape:cx="9.7777778"
     inkscape:cy="10.37037"
     inkscape:current-layer="svg1" />
  <path
     d="M 6.8051611,5.000048 A 1.791988,1.791988 0 0 0 5.0000479,6.8051611 V 17.194841 c 0,1.007116 0.7979949,1.805111 1.8051132,1.805111 H 17.194841 a 1.791988,1.791988 0 0 0 1.805111,-1.805111 V 6.8051611 A 1.791988,1.791988 0 0 0 17.194841,5.000048 Z m 1.6948632,2.6249827 h 0.8749944 c 0,0 0.4016222,-0.012249 0.8286193,0.2012486 0.427872,0.2143732 0.921369,0.8198694 0.921369,1.5487394 v 1.7499883 a 0.87499412,0.87499412 0 0 1 -0.174999,0.524997 l -2.2312351,2.974977 h 2.4062341 v 1.749988 H 6.7500361 v -1.749988 a 0.87499412,0.87499412 0 0 1 0.174999,-0.524996 L 9.3750187,10.832759 V 9.3750187 H 8.5000243 V 11.125007 H 6.7500361 V 9.3750187 c 0,-0.72887 0.4934971,-1.3343662 0.9213689,-1.5487394 C 8.0975273,7.6127808 8.5000243,7.6250307 8.5000243,7.6250307 Z m 5.2499637,0 h 1.749987 c 0.728872,0 1.334369,0.4934964 1.548744,0.9213688 0.213498,0.426997 0.201246,0.8286192 0.201246,0.8286192 v 0.8749943 h -1.74999 V 9.3750187 h -1.749987 v 5.2499623 h 1.749987 v -1.749987 h -0.874994 v -1.749987 h 2.624984 v 3.499974 c 0,0 0.01223,0.401621 -0.201246,0.828619 -0.214375,0.427872 -0.819872,0.921369 -1.548744,0.921369 h -1.749987 c 0,0 -0.401619,0.01223 -0.828617,-0.201244 -0.427874,-0.214376 -0.92137,-0.819871 -0.92137,-1.548744 V 9.3750187 c 0,0 -0.01222,-0.4016222 0.201248,-0.8286192 0.214372,-0.4278724 0.819868,-0.9213688 1.548739,-0.9213688 z"
     color="#bebebe"
     fill="#aaaaaa"
     overflow="visible"
     id="path1"
     style="fill:#f2f2f2;fill-opacity:1;stroke-width:0.99998" />
</svg>
