<?xml version="1.0" encoding="UTF-8" standalone="no"?>
<svg
   width="22"
   height="22"
   version="1"
   id="svg1"
   sodipodi:docname="prime-indicator-nvidia-symbolic.svg"
   inkscape:version="1.4.2 (unknown)"
   xmlns:inkscape="http://www.inkscape.org/namespaces/inkscape"
   xmlns:sodipodi="http://sodipodi.sourceforge.net/DTD/sodipodi-0.dtd"
   xmlns="http://www.w3.org/2000/svg"
   xmlns:svg="http://www.w3.org/2000/svg">
  <defs
     id="defs1" />
  <sodipodi:namedview
     id="namedview1"
     pagecolor="#ffffff"
     bordercolor="#000000"
     borderopacity="0.25"
     inkscape:showpageshadow="2"
     inkscape:pageopacity="0.0"
     inkscape:pagecheckerboard="0"
     inkscape:deskcolor="#d1d1d1"
     inkscape:zoom="23.625"
     inkscape:cx="9.8201058"
     inkscape:cy="12.740741"
     inkscape:current-layer="svg1" />
  <path
     style="fill:#f1f1f1;stroke-width:0.999999;fill-opacity:1"
     d="m 3.5738185,10.027695 c 0,0 1.7243329,-2.8223996 5.0940155,-3.114416 V 5.8894125 C 4.9355514,6.2289126 1.666669,9.8120951 1.666669,9.8120951 c 0,0 1.8673661,5.9992319 7.001165,6.5475659 V 15.271162 C 4.9004349,14.733328 3.5738185,10.026761 3.5738185,10.026761 Z m 5.0940155,3.079183 v 0.99645 C 5.8204679,13.528162 4.9934182,10.172712 4.9934182,10.172712 c 0,0 1.4038497,-1.7169833 3.6745323,-1.9953501 v 1.0937499 c -0.0014,0 -0.0024,-4.667e-4 -0.0036,-4.667e-4 -1.1917144,-0.1621664 -2.1594644,1.1000499 -2.1594644,1.1000499 0,0 0.5585998,2.124148 2.1638164,2.735132 m 0,-9.1058306 v 1.8885995 c 0.1095525,-0.0095 0.1823499,-0.0175 0.2924834,-0.02182 4.2431641,-0.1620499 7.0087471,3.9447323 7.0087471,3.9447323 0,0 -3.176248,4.3758198 -6.4844476,4.3758198 -0.3032165,0 -0.5501995,-0.0304 -0.8167829,-0.084 v 1.167834 c 0.2278497,0.0326 0.4275831,0.0514 0.6742162,0.0514 3.0782483,0 5.3051813,-1.7815 7.4600133,-3.890721 0.358168,0.323983 1.82117,1.114052 2.12217,1.459038 -2.049835,1.945174 -6.826516,3.513173 -9.5350498,3.513173 -0.2610998,0 -0.4750663,-0.01745 -0.7214665,-0.04551 v 1.641462 H 20.333331 V 3.9999964 H 8.6686505 Z m 0,4.1774825 V 6.912579 C 8.777084,6.905279 8.8495359,6.897418 8.9611859,6.89344 12.012372,6.784705 14.014604,9.8656398 14.014604,9.8656398 c 0,0 -2.162297,3.4042212 -4.4808141,3.4042212 -0.3336666,0 -0.5960496,-0.06109 -0.8653164,-0.164035 V 9.2712282 c 1.1879393,0.1626333 1.3902395,0.7575168 2.1048225,2.1065328 l 1.588421,-1.5178329 c 0,0 -1.160016,-1.7236327 -3.1142992,-1.7236327 -0.2124499,-1.165e-4 -0.378933,0.01692 -0.5785498,0.040951"
     id="path1" />
</svg>
