<?xml version="1.0" encoding="UTF-8" standalone="no"?>
<!-- Created with Inkscape (http://www.inkscape.org/) -->

<svg
   id="svg7384"
   height="22"
   width="22"
   version="1.1"
   sodipodi:docname="radio-mixed-symbolic.svg"
   inkscape:version="1.4.2 (unknown)"
   xmlns:inkscape="http://www.inkscape.org/namespaces/inkscape"
   xmlns:sodipodi="http://sodipodi.sourceforge.net/DTD/sodipodi-0.dtd"
   xmlns="http://www.w3.org/2000/svg"
   xmlns:svg="http://www.w3.org/2000/svg"
   xmlns:rdf="http://www.w3.org/1999/02/22-rdf-syntax-ns#"
   xmlns:cc="http://creativecommons.org/ns#"
   xmlns:dc="http://purl.org/dc/elements/1.1/">
  <defs
     id="defs10" />
  <sodipodi:namedview
     pagecolor="#ffffff"
     bordercolor="#666666"
     borderopacity="1"
     objecttolerance="10"
     gridtolerance="10"
     guidetolerance="10"
     inkscape:pageopacity="0"
     inkscape:pageshadow="2"
     inkscape:window-width="1920"
     inkscape:window-height="998"
     id="namedview8"
     showgrid="true"
     inkscape:zoom="20.85965"
     inkscape:cx="10.786375"
     inkscape:cy="17.066442"
     inkscape:window-x="0"
     inkscape:window-y="0"
     inkscape:window-maximized="1"
     inkscape:current-layer="svg7384"
     inkscape:showpageshadow="2"
     inkscape:pagecheckerboard="0"
     inkscape:deskcolor="#d1d1d1">
    <inkscape:grid
       id="grid1"
       units="px"
       originx="0"
       originy="0"
       spacingx="1"
       spacingy="1"
       empcolor="#0099e5"
       empopacity="0.30196078"
       color="#0099e5"
       opacity="0.14901961"
       empspacing="5"
       enabled="true"
       visible="true" />
  </sodipodi:namedview>
  <metadata
     id="metadata90">
    <rdf:RDF>
      <cc:Work
         rdf:about="">
        <dc:format>image/svg+xml</dc:format>
        <dc:type
           rdf:resource="http://purl.org/dc/dcmitype/StillImage" />
        <dc:title>Gnome Symbolic Icon Theme</dc:title>
      </cc:Work>
    </rdf:RDF>
  </metadata>
  <title
     id="title9167">Gnome Symbolic Icon Theme</title>
  <path
     style="color:#cecfce;text-indent:0pt;text-transform:none;fill:#f2f2f2;fill-opacity:1;stroke-width:1.14283"
     d="m 10.999999,3 c -4.4089133,0 -7.9999991,3.5910858 -7.9999991,8 0,4.408917 3.5910858,8 7.9999991,8 C 15.408917,19 19,15.408917 19,11 19,6.5910858 15.408917,3 10.999999,3 Z m 0,1.1428574 c 3.795659,0 6.892855,3.061485 6.892855,6.8571426 0,3.795659 -3.097313,6.857141 -6.892855,6.857141 -3.7956567,0 -6.8571417,-3.061482 -6.8571417,-6.857141 0,-3.7956576 3.0614849,-6.8571426 6.8571417,-6.8571426 z M 7.4330357,9.7901784 C 6,9.7132297 5.7842725,11.928572 7.4606115,12 h 7.1023675 c 1.835076,-0.07143 1.763167,-2.3056102 -0.07191,-2.2098216 H 7.6763389 c -0.08104,-0.00228 -0.1622628,-0.00228 -0.2433032,0 z"
     id="path9587"
     sodipodi:nodetypes="sssssssssscccccc" />
</svg>
