<?xml version="1.0" encoding="UTF-8" standalone="no"?>
<svg
   width="22"
   height="22"
   version="1"
   id="svg1"
   sodipodi:docname="revolt-status-online-symbolic.svg"
   inkscape:version="1.4.2 (unknown)"
   xmlns:inkscape="http://www.inkscape.org/namespaces/inkscape"
   xmlns:sodipodi="http://sodipodi.sourceforge.net/DTD/sodipodi-0.dtd"
   xmlns="http://www.w3.org/2000/svg"
   xmlns:svg="http://www.w3.org/2000/svg">
  <defs
     id="defs1" />
  <sodipodi:namedview
     id="namedview1"
     pagecolor="#ffffff"
     bordercolor="#000000"
     borderopacity="0.25"
     inkscape:showpageshadow="2"
     inkscape:pageopacity="0.0"
     inkscape:pagecheckerboard="0"
     inkscape:deskcolor="#d1d1d1"
     inkscape:zoom="23.625"
     inkscape:cx="10.074074"
     inkscape:cy="12.359788"
     inkscape:current-layer="svg1" />
  <path
     d="m 10.997036,3 a 8,8 0 0 0 -3.142,0.645 3,3 0 0 1 1.11,1.896 1,1 0 0 1 0.034,0.34 3,3 0 0 1 0,0.004 3,3 0 0 1 0.004,0.115 3,3 0 0 1 -3,3 3,3 0 0 1 -0.111,-0.006 1,1 0 0 1 -0.368,-0.037 3,3 0 0 1 -1.875,-1.098 8,8 0 0 0 -0.652,3.141 8,8 0 0 0 8,8 8,8 0 0 0 5.631,-2.326 c -0.607,-0.241 -1.182,-0.511 -1.697,-0.844 a 1,1 0 0 1 -0.428,1.232 1,1 0 0 1 -1.365,-0.367 1,1 0 0 1 0.365,-1.365 1,1 0 0 1 0.477,-0.133 1,1 0 0 1 0.158,0.01 c -0.55,-0.522 -0.964,-1.224 -1.084,-2.02 a 3,3 0 0 1 -2.051,0.813 3,3 0 0 1 -3,-3 3,3 0 0 1 3,-3 3,3 0 0 1 3,3 3,3 0 0 1 -0.002,0.041 c 0.13,-0.03 0.25,-0.044 0.342,-0.041 0.187,0.006 0.308,0.037 0.437,0.066 a 1,1 0 0 1 0.03,0.006 l 1.279,0.33 a 1,1 0 0 1 -0.086,-0.402 1,1 0 0 1 1,-1 1,1 0 0 1 1,1 1,1 0 0 1 -0.395,0.795 l 1.3,0.336 a 8,8 0 0 0 0.089,-1.131 8,8 0 0 0 -8,-8 z m -4.994,1 a 2,2 0 0 0 -2,2 2,2 0 0 0 2,2 2,2 0 0 0 2,-2 2,2 0 0 0 -2,-2 z m 5,0 a 1,1 0 0 1 1,1 1,1 0 0 1 -1,1 1,1 0 0 1 -1,-1 1,1 0 0 1 1,-1 z m 2.953,0.805 a 1,1 0 0 1 0.547,0.133 1,1 0 0 1 0.365,1.367 1,1 0 0 1 -1.365,0.365 1,1 0 0 1 -0.365,-1.365 1,1 0 0 1 0.818,-0.5 z m 2.219,2.195 a 1,1 0 0 1 0.89,0.5 1,1 0 0 1 -0.367,1.365 1,1 0 0 1 -1.365,-0.365 1,1 0 0 1 0.365,-1.365 1,1 0 0 1 0.477,-0.135 z m -11.172,3 a 1,1 0 0 1 1,1 1,1 0 0 1 -1,1 1,1 0 0 1 -1,-1 1,1 0 0 1 1,-1 z m 9.307,2 c -0.19,-0.006 -0.214,0.097 -0.27,0.371 -0.28,1.804 1.354,2.804 3.502,3.584 0.256,0.091 0.278,0.046 0.434,-0.148 0.284,-0.368 0.452,-0.756 0.591,-1.162 0.125,-0.364 0.225,-0.741 0.364,-1.13 0.139,-0.328 0.089,-0.321 -0.26,-0.411 l -4.111,-1.064 a 1.431,1.431 0 0 0 -0.25,-0.041 z m -8.528,1 a 1,1 0 0 1 0.89,0.5 1,1 0 0 1 -0.364,1.365 1,1 0 0 1 -1.368,-0.365 1,1 0 0 1 0.368,-1.365 1,1 0 0 1 0.474,-0.135 z m 2.174,2.197 a 1,1 0 0 1 0.547,0.133 1,1 0 0 1 0.365,1.365 1,1 0 0 1 -1.365,0.367 1,1 0 0 1 -0.365,-1.367 1,1 0 0 1 0.818,-0.498 z m 3.047,0.803 a 1,1 0 0 1 1,1 1,1 0 0 1 -1,1 1,1 0 0 1 -1,-1 1,1 0 0 1 1,-1 z"
     fill="#dedede"
     id="path1"
     style="fill:#f1f1f1;fill-opacity:1" />
</svg>
