<?xml version="1.0" encoding="UTF-8" standalone="no"?>
<svg
   width="16"
   height="16"
   version="1"
   id="svg3"
   sodipodi:docname="revolt-status-blink-symbolic.svg"
   inkscape:version="1.4.2 (unknown)"
   xmlns:inkscape="http://www.inkscape.org/namespaces/inkscape"
   xmlns:sodipodi="http://sodipodi.sourceforge.net/DTD/sodipodi-0.dtd"
   xmlns="http://www.w3.org/2000/svg"
   xmlns:svg="http://www.w3.org/2000/svg">
  <defs
     id="defs3" />
  <sodipodi:namedview
     id="namedview3"
     pagecolor="#ffffff"
     bordercolor="#000000"
     borderopacity="0.25"
     inkscape:showpageshadow="2"
     inkscape:pageopacity="0.0"
     inkscape:pagecheckerboard="0"
     inkscape:deskcolor="#d1d1d1"
     inkscape:zoom="16.705398"
     inkscape:cx="4.0406102"
     inkscape:cy="17.599102"
     inkscape:current-layer="svg3" />
  <g
     id="g3"
     transform="translate(2.0037797,2)">
    <path
       d="M 5.9940002,0 A 6.0000002,6.0000002 0 0 0 3.6375001,0.48375002 2.2500001,2.2500001 0 0 1 4.4700002,1.90575 a 0.75000003,0.75000003 0 0 1 0.0255,0.255 2.2500001,2.2500001 0 0 1 0,0.00301 2.2500001,2.2500001 0 0 1 0.003,0.086251 A 2.2500001,2.2500001 0 0 1 2.2485,4.5000111 2.2500001,2.2500001 0 0 1 2.165249,4.4955211 0.75000003,0.75000003 0 0 1 1.889249,4.4677701 2.2500001,2.2500001 0 0 1 0.48300002,3.6442501 6.0000002,6.0000002 0 0 0 -0.006,6.0000002 6.0000002,6.0000002 0 0 0 5.9940002,12 6.0000002,6.0000002 0 0 0 10.217249,10.2555 C 9.7620004,10.074752 9.3307518,9.872249 8.9445,9.6225004 A 0.75000003,0.75000003 0 0 1 8.6235,10.546501 0.75000003,0.75000003 0 0 1 7.5997507,10.271249 0.75000003,0.75000003 0 0 1 7.8735,9.2475004 0.75000003,0.75000003 0 0 1 8.2312488,9.1477521 0.75000003,0.75000003 0 0 1 8.3497519,9.1549925 C 7.9372487,8.7637519 7.6267507,8.2372488 7.5367503,7.6402498 A 2.2500001,2.2500001 0 0 1 5.9985002,8.2500003 2.2500001,2.2500001 0 0 1 3.7485001,6.0000002 2.2500001,2.2500001 0 0 1 5.9985002,3.7500001 a 2.2500001,2.2500001 0 0 1 2.2499994,2.2500001 2.2500001,2.2500001 0 0 1 -0.00158,0.030752 c 0.097502,-0.0225 0.1875023,-0.033 0.2565023,-0.030752 0.1402481,0.00449 0.2310004,0.027751 0.3277484,0.0495 a 0.75000003,0.75000003 0 0 1 0.022485,0.00449 l 0.9592514,0.2474985 a 0.75000003,0.75000003 0 0 1 -0.064408,-0.3014854 0.75000003,0.75000003 0 0 1 0.7500003,-0.75 0.75000003,0.75000003 0 0 1 0.75,0.75 0.75000003,0.75000003 0 0 1 -0.296252,0.5962501 l 0.975,0.252 A 6.0000002,6.0000002 0 0 0 11.994,6.0000002 6.0000002,6.0000002 0 0 0 5.9940002,0 Z m 0.00449,0.75000003 a 0.75000003,0.75000003 0 0 1 0.749997,0.75000007 0.75000003,0.75000003 0 0 1 -0.75,0.75 0.75000003,0.75000003 0 0 1 -0.75,-0.75 0.75000003,0.75000003 0 0 1 0.75,-0.75000007 z M 8.2132473,1.3537501 a 0.75000003,0.75000003 0 0 1 0.4102509,0.09975 0.75000003,0.75000003 0 0 1 0.2737491,1.02525 0.75000003,0.75000003 0 0 1 -1.0237489,0.27375 0.75000003,0.75000003 0 0 1 -0.2737493,-1.02375 0.75000003,0.75000003 0 0 1 0.6134982,-0.375 z m 1.6642531,1.64625 a 0.75000003,0.75000003 0 0 1 0.6674996,0.375 0.75000003,0.75000003 0 0 1 -0.275248,1.02375 A 0.75000003,0.75000003 0 0 1 9.2460004,4.1250002 0.75000003,0.75000003 0 0 1 9.5197518,3.1012501 0.75000003,0.75000003 0 0 1 9.8775004,3.0000001 Z M 1.4985001,5.2500002 a 0.75000003,0.75000003 0 0 1 0.75,0.75 0.75000003,0.75000003 0 0 1 -0.75,0.7500001 0.75000003,0.75000003 0 0 1 -0.75000007,-0.7500001 0.75000003,0.75000003 0 0 1 0.75000007,-0.75 z m 0.585,2.2500001 a 0.75000003,0.75000003 0 0 1 0.6675,0.375 0.75000003,0.75000003 0 0 1 -0.27375,1.0237517 0.75000003,0.75000003 0 0 1 -1.026,-0.2737517 0.75000003,0.75000003 0 0 1 0.276,-1.0237505 A 0.75000003,0.75000003 0 0 1 2.08275,7.5000003 Z m 1.62975,1.6477517 a 0.75000003,0.75000003 0 0 1 0.4102501,0.099748 0.75000003,0.75000003 0 0 1 0.2737499,1.023749 0.75000003,0.75000003 0 0 1 -1.02375,0.275252 0.75000003,0.75000003 0 0 1 -0.27375,-1.0252524 0.75000003,0.75000003 0 0 1 0.6135,-0.3734966 z M 5.9985002,9.7500004 A 0.75000003,0.75000003 0 0 1 6.7485003,10.5 a 0.75000003,0.75000003 0 0 1 -0.7500001,0.75 0.75000003,0.75000003 0 0 1 -0.75,-0.75 0.75000003,0.75000003 0 0 1 0.75,-0.7499996 z"
       fill="#dedede"
       id="path1"
       style="stroke-width:0.999984;fill:#f3f3f3;fill-opacity:1" />
    <path
       class="warning"
       d="m 2.2485001,0.75000003 a 1.5000001,1.5000001 0 0 0 -1.50000007,1.50000007 1.5000001,1.5000001 0 0 0 1.50000007,1.5 1.5000001,1.5000001 0 0 0 1.5,-1.5 1.5000001,1.5000001 0 0 0 -1.5,-1.50000007 z"
       fill="#5294ef"
       id="path2"
       style="stroke-width:0.999984;fill:#1ba97f;fill-opacity:1" />
    <path
       d="m 8.4787519,6.7500003 c -0.1425031,-0.00449 -0.1605031,0.072751 -0.2025031,0.27825 -0.2100001,1.3529985 1.015503,2.1029986 2.6265032,2.6879987 0.192,0.068243 0.208497,0.034486 0.325497,-0.111 0.213,-0.276 0.339,-0.5670001 0.443252,-0.8714971 0.09375,-0.273 0.168748,-0.5557516 0.273,-0.847503 0.104251,-0.2459991 0.06672,-0.2407481 -0.195,-0.3082486 l -3.0832521,-0.798 a 1.07325,1.07325 0 0 0 -0.187497,-0.030752 z"
       fill="#dedede"
       id="path3"
       style="stroke-width:0.999984" />
  </g>
</svg>
