<?xml version="1.0" encoding="UTF-8" standalone="no"?>
<svg
   style="clip-rule:evenodd;fill-rule:evenodd;stroke-linejoin:round;stroke-miterlimit:2"
   viewBox="0 0 22 22"
   version="1.1"
   id="svg2"
   sodipodi:docname="sensors-fan-symbolic.svg"
   width="22"
   height="22"
   inkscape:version="1.4.2 (unknown)"
   xmlns:inkscape="http://www.inkscape.org/namespaces/inkscape"
   xmlns:sodipodi="http://sodipodi.sourceforge.net/DTD/sodipodi-0.dtd"
   xmlns="http://www.w3.org/2000/svg"
   xmlns:svg="http://www.w3.org/2000/svg">
  <defs
     id="defs2" />
  <sodipodi:namedview
     id="namedview2"
     pagecolor="#ffffff"
     bordercolor="#000000"
     borderopacity="0.25"
     inkscape:showpageshadow="2"
     inkscape:pageopacity="0.0"
     inkscape:pagecheckerboard="0"
     inkscape:deskcolor="#d1d1d1"
     inkscape:zoom="16.705398"
     inkscape:cx="6.3751849"
     inkscape:cy="4.429706"
     inkscape:current-layer="svg2" />
  <g
     id="g2"
     transform="translate(3,3)">
    <path
       d="M 1,0 C 0.446,0 0,0.446 0,1 v 14 c 0,0.554 0.446,1 1,1 h 14 c 0.554,0 1,-0.446 1,-1 V 1 C 16,0.446 15.554,0 15,0 Z M 8,1 C 4.16,1 1,4.16 1,8 c 0,3.84 3.16,7 7,7 3.84,0 7,-3.16 7,-7 C 15,4.16 11.84,1 8,1 Z M 1.5,14 C 1.774,14 2,14.226 2,14.5 2,14.774 1.774,15 1.5,15 1.226,15 1,14.774 1,14.5 1,14.226 1.226,14 1.5,14 Z m 13,0 C 14.774,14 15,14.226 15,14.5 15,14.774 14.774,15 14.5,15 14.226,15 14,14.774 14,14.5 14,14.226 14.226,14 14.5,14 Z M 1.5,1 C 1.774,1 2,1.226 2,1.5 2,1.774 1.774,2 1.5,2 1.226,2 1,1.774 1,1.5 1,1.226 1.226,1 1.5,1 Z m 13,0 C 14.774,1 15,1.226 15,1.5 15,1.774 14.774,2 14.5,2 14.226,2 14,1.774 14,1.5 14,1.226 14.226,1 14.5,1 Z"
       fill-opacity="0.3"
       fill="#dfdfdf"
       id="path1"
       style="fill:#f2f2f2;fill-opacity:0.5" />
    <path
       d="m 5.654,9.873 c 0.569,0.713 1.432,1.129 2.344,1.129 l -0.417,1.62 c -0.179,0.474 -0.449,1.001 -1.002,1 -0.067,0 -0.133,-0.006 -0.199,-0.019 C 5.024,13.325 4.223,12.504 3.35,11.43 2.992,10.99 2.631,10.211 3.525,10 Z m 4.021,0.615 C 10.431,9.979 10.916,9.152 10.99,8.243 l 1.581,0.547 c 0.458,0.217 0.961,0.529 0.916,1.08 -0.006,0.066 -0.017,0.132 -0.035,0.197 -0.387,1.329 -1.271,2.06 -2.412,2.844 -0.467,0.32 -1.273,0.617 -1.411,-0.291 z M 8,6 C 6.903,6 6,6.903 6,8 6,9.097 6.903,10 8,10 9.097,10 10,9.097 10,8 10,6.903 9.097,6 8,6 Z M 6.166,5.624 C 5.444,6.18 5.013,7.036 4.996,7.948 L 3.384,7.503 C 2.913,7.316 2.391,7.037 2.401,6.484 2.403,6.417 2.41,6.35 2.424,6.285 2.725,4.934 3.56,4.147 4.649,3.293 5.096,2.943 5.881,2.596 6.076,3.493 Z m 4.437,0.888 C 10.151,5.72 9.363,5.175 8.462,5.034 L 9.124,3.498 c 0.25,-0.44 0.598,-0.92 1.145,-0.833 0.066,0.01 0.13,0.026 0.194,0.049 1.296,0.485 1.961,1.42 2.658,2.616 0.285,0.49 0.521,1.315 -0.395,1.385 z"
       fill="#dfdfdf"
       id="path2"
       style="fill:#f2f2f2;fill-opacity:1" />
  </g>
</svg>
