<?xml version="1.0" encoding="UTF-8" standalone="no"?>
<svg
   width="22"
   height="22.001373"
   version="1.1"
   id="svg3"
   sodipodi:docname="stopwatch-symbolic.svg"
   inkscape:version="1.4.2 (unknown)"
   xmlns:inkscape="http://www.inkscape.org/namespaces/inkscape"
   xmlns:sodipodi="http://sodipodi.sourceforge.net/DTD/sodipodi-0.dtd"
   xmlns="http://www.w3.org/2000/svg"
   xmlns:svg="http://www.w3.org/2000/svg">
  <defs
     id="defs3" />
  <sodipodi:namedview
     id="namedview3"
     pagecolor="#ffffff"
     bordercolor="#000000"
     borderopacity="0.25"
     inkscape:showpageshadow="2"
     inkscape:pageopacity="0.0"
     inkscape:pagecheckerboard="0"
     inkscape:deskcolor="#d1d1d1"
     inkscape:zoom="23.623524"
     inkscape:cx="17.990542"
     inkscape:cy="7.831177"
     inkscape:current-layer="svg3" />
  <g
     transform="translate(-88.500577,-536.99965)"
     fill="#dedede"
     id="g3"
     style="fill:#f1f1f1;fill-opacity:1">
    <rect
       x="97"
       y="540"
       width="5"
       height="2"
       rx="1"
       ry="1"
       id="rect1"
       style="fill:#f1f1f1;fill-opacity:1" />
    <path
       d="m 103.53,543 a 1.5,1.5 0 0 0 -0.10547,0.002 1.5,1.5 0 0 0 -1.1426,0.62696 6.5,6.5 0 0 0 -3.1133,-0.6211 6.5,6.5 0 0 0 -6.1602,6.8223 6.5,6.5 0 0 0 6.8223,6.1621 6.5,6.5 0 0 0 6.1621,-6.8203 v -0.004 a 6.5,6.5 0 0 0 -1.377,-3.666 1.5,1.5 0 0 0 0.38282,-1.0781 1.5,1.5 0 0 0 -1.4688,-1.4238 z m -3.7598,1.0059 a 5.5,5.5 0 0 1 5.2227,5.2129 v 0.004 a 5.5,5.5 0 0 1 -5.2129,5.7695 5.5,5.5 0 0 1 -5.7715,-5.2129 5.5,5.5 0 0 1 5.2109,-5.7715 5.5,5.5 0 0 1 0.55078,-0.002 z"
       id="path1"
       style="fill:#f1f1f1;fill-opacity:1" />
    <path
       d="m 99.3,545 h 0.5 l 0.2,5 h -1 z"
       id="path2"
       style="fill:#f1f1f1;fill-opacity:1" />
    <path
       d="m 100.5,549.45 a 1,1 0 0 1 -0.94798,1.0493 1,1 0 0 1 -1.0494,-0.94781 1,1 0 0 1 0.94764,-1.0496 1,1 0 0 1 1.0497,0.94748"
       id="path3"
       style="fill:#f1f1f1;fill-opacity:1" />
  </g>
</svg>
