<?xml version="1.0" encoding="UTF-8" standalone="no"?>
<svg
   version="1.1"
   viewBox="0 0 22 22"
   id="svg1"
   sodipodi:docname="view-refresh.svg"
   width="22"
   height="22"
   inkscape:version="1.4.2 (unknown)"
   xmlns:inkscape="http://www.inkscape.org/namespaces/inkscape"
   xmlns:sodipodi="http://sodipodi.sourceforge.net/DTD/sodipodi-0.dtd"
   xmlns="http://www.w3.org/2000/svg"
   xmlns:svg="http://www.w3.org/2000/svg">
  <sodipodi:namedview
     id="namedview1"
     pagecolor="#ffffff"
     bordercolor="#000000"
     borderopacity="0.25"
     inkscape:showpageshadow="2"
     inkscape:pageopacity="0.0"
     inkscape:pagecheckerboard="0"
     inkscape:deskcolor="#d1d1d1"
     inkscape:zoom="23.625"
     inkscape:cx="8.021164"
     inkscape:cy="18.793651"
     inkscape:current-layer="svg1" />
  <defs
     id="defs1">
    <style
       id="current-color-scheme"
       type="text/css">.ColorScheme-Text {
        color:#dedede;
      }</style>
  </defs>
  <path
     class="ColorScheme-Text"
     d="m 11.00003,3.000055 c -1.4417,0 -2.7893,0.38292 -3.9551,1.0449 l 0.73828,0.73828 0.00195,-0.00195 2.7793,2.7773 0.70703,-0.70703 -2.4824,-2.4805 c 0.69562,-0.23268 1.4348,-0.37109 2.2109,-0.37109 3.878,0 7,3.122 7,7 0,1.1625 -0.28583,2.2539 -0.7832,3.2168 l 0.73828,0.73828 c 0.66205,-1.1658 1.0449,-2.5134 1.0449,-3.9551 0,-4.432 -3.568,-8 -8,-8 z m -6.9551,4.0449 c -0.66205,1.1658 -1.0449,2.5134 -1.0449,3.9551 0,4.432 3.568,8 8,8 1.4417,0 2.7893,-0.38292 3.9551,-1.0449 l -0.68359,-0.68359 0.002,-0.002 -2.8281,-2.8281 -0.70703,0.70703 2.4785,2.4785 c -0.69735,0.23397 -1.4386,0.37309 -2.2168,0.37309 -3.878,0 -7,-3.122 -7,-7 0,-1.1625 0.28583,-2.2539 0.7832,-3.2168 z"
     fill="currentColor"
     id="path1" />
</svg>
