<?xml version="1.0" encoding="UTF-8" standalone="no"?>
<svg
   width="22"
   height="22"
   version="1.1"
   id="svg3"
   sodipodi:docname="timer-symbolic.svg"
   inkscape:version="1.4.2 (unknown)"
   xmlns:inkscape="http://www.inkscape.org/namespaces/inkscape"
   xmlns:sodipodi="http://sodipodi.sourceforge.net/DTD/sodipodi-0.dtd"
   xmlns="http://www.w3.org/2000/svg"
   xmlns:svg="http://www.w3.org/2000/svg">
  <defs
     id="defs3" />
  <sodipodi:namedview
     id="namedview3"
     pagecolor="#ffffff"
     bordercolor="#000000"
     borderopacity="0.25"
     inkscape:showpageshadow="2"
     inkscape:pageopacity="0.0"
     inkscape:pagecheckerboard="0"
     inkscape:deskcolor="#d1d1d1"
     inkscape:zoom="23.625"
     inkscape:cx="9.7566138"
     inkscape:cy="7.4074074"
     inkscape:current-layer="svg3" />
  <g
     transform="translate(-108.5,-537)"
     fill="#dedede"
     id="g3"
     style="fill:#f2f2f2;fill-opacity:1">
    <path
       d="m 117,540 c -1.1043,0 -1.9996,1.0964 -2,2.4492 v 0.55078 l 2.8574,5 -2.8574,5 v 0.55078 c 3.5e-4,1.3528 0.89568,2.4492 2,2.4492 h 5.0001 c 1.1043,0 1.9996,-1.0964 2,-2.4492 v -0.55078 l -2.8399,-5 2.8399,-5 v -0.55078 c -3.5e-4,-1.3528 -0.89568,-2.4492 -2,-2.4492 z m 2.0254,1.0117 c 1.3676,-6e-5 1.7391,0.014 3.1016,0.0469 0.67682,0.17004 0.86793,1.018 0.83203,1.6367 -1.0012,1.7695 -2.9591,5.3047 -2.9591,5.3047 0,0 2.1352,3.4832 2.9591,5.3047 0.0359,0.61876 -0.15521,1.4667 -0.83203,1.6367 -2.7251,0.0657 -2.4862,0.0535 -5.1798,0.0117 -0.72645,-0.13044 -0.95349,-1.0129 -0.92579,-1.6504 0.96305,-1.7934 2.9785,-5.3028 2.9785,-5.3028 0,0 -2.1426,-3.4783 -2.9785,-5.3027 -0.0277,-0.63749 0.19934,-1.52 0.92579,-1.6504 1.3468,-0.0209 0.71053,-0.0351 2.0781,-0.0352 z"
       id="path1"
       style="fill:#f2f2f2;fill-opacity:1" />
    <path
       d="m 117.75,544 1.7461,3.4375 L 121.25,544 Z m 1.75,5 -0.39453,3.0254 c -1.2117,0.15729 -2.1019,0.99363 -2.1016,1.9746 h 5 c 10e-4,-0.0339 10e-4,-0.0677 0,-0.10156 -0.0615,-0.94679 -0.94648,-1.729 -2.1191,-1.873 z"
       id="path2"
       style="fill:#f2f2f2;fill-opacity:1" />
    <rect
       x="114"
       y="540"
       width="11"
       height="1"
       rx="0.5"
       ry="0.5"
       id="rect2"
       style="fill:#f2f2f2;fill-opacity:1" />
    <rect
       x="114"
       y="555"
       width="11"
       height="1"
       rx="0.5"
       ry="0.5"
       id="rect3"
       style="fill:#f2f2f2;fill-opacity:1" />
  </g>
</svg>
