<?xml version="1.0" encoding="UTF-8" standalone="no"?>
<svg
   viewBox="0 0 16 16"
   version="1.1"
   id="svg1"
   sodipodi:docname="user-offline.svg"
   inkscape:version="1.4.2 (unknown)"
   width="16"
   height="16"
   xmlns:inkscape="http://www.inkscape.org/namespaces/inkscape"
   xmlns:sodipodi="http://sodipodi.sourceforge.net/DTD/sodipodi-0.dtd"
   xmlns="http://www.w3.org/2000/svg"
   xmlns:svg="http://www.w3.org/2000/svg">
  <sodipodi:namedview
     id="namedview1"
     pagecolor="#ffffff"
     bordercolor="#000000"
     borderopacity="0.25"
     inkscape:showpageshadow="2"
     inkscape:pageopacity="0.0"
     inkscape:pagecheckerboard="0"
     inkscape:deskcolor="#d1d1d1"
     inkscape:zoom="15.75"
     inkscape:cx="14.031746"
     inkscape:cy="11.873016"
     inkscape:current-layer="svg1" />
  <defs
     id="defs3051">
    <style
       type="text/css"
       id="current-color-scheme">
      .ColorScheme-Text {
        color:#dedede;
      }
      </style>
  </defs>
  <g
     id="g1">
    <path
       style="fill:#f3f3f3;fill-opacity:0.6;stroke:none;stroke-width:0.999987"
       d="M 8,2 A 2.9999931,3.0000218 0 0 0 4.99999,5 2.9999931,3.0000218 0 0 0 8,8 2.9999931,3.0000218 0 0 0 11,5 2.9999931,3.0000218 0 0 0 8,2 Z M 8,2.75 A 2.25,2.2500218 0 0 1 10.25,5 2.25,2.2500218 0 0 1 8,7.25 2.25,2.2500218 0 0 1 5.7499899,5 2.25,2.2500218 0 0 1 8,2.75 Z m 0,6 A 5.9999625,6.0000218 0 0 0 2.0541896,14 H 2.8100495 A 5.2499699,5.2500218 0 0 1 8,9.5 5.2499699,5.2500218 0 0 1 8.75,9.56007 V 8.802745 A 5.9999625,6.0000218 0 0 0 8,8.750025 Z m 3.375,0 C 9.925246,8.75 8.75,9.925246 8.75,11.375 8.75,12.824754 9.925246,14 11.375,14 12.824731,14 14,12.824754 14,11.375 14,9.925246 12.824731,8.75 11.375,8.75 Z M 9.5,11 h 3.75 v 0.75 H 9.5 Z"
       class="ColorScheme-Text"
       id="path1" />
    <path
       style="fill:#ffffff;fill-opacity:1;stroke:none;stroke-width:0.999987"
       d="m 9.5,11 v 0.75 h 3.75 V 11 Z"
       id="path10" />
  </g>
</svg>
