<?xml version="1.0" encoding="UTF-8" standalone="no"?>
<svg
   width="16"
   height="16"
   version="1.1"
   id="svg1"
   sodipodi:docname="view-private-symbolic.svg"
   inkscape:version="1.4.2 (unknown)"
   xmlns:inkscape="http://www.inkscape.org/namespaces/inkscape"
   xmlns:sodipodi="http://sodipodi.sourceforge.net/DTD/sodipodi-0.dtd"
   xmlns="http://www.w3.org/2000/svg"
   xmlns:svg="http://www.w3.org/2000/svg">
  <defs
     id="defs1" />
  <sodipodi:namedview
     id="namedview1"
     pagecolor="#ffffff"
     bordercolor="#000000"
     borderopacity="0.25"
     inkscape:showpageshadow="2"
     inkscape:pageopacity="0.0"
     inkscape:pagecheckerboard="0"
     inkscape:deskcolor="#d1d1d1"
     inkscape:zoom="16.705398"
     inkscape:cx="5.6269238"
     inkscape:cy="10.475656"
     inkscape:current-layer="svg1" />
  <path
     d="M4 8c-1.66 0-3 1.34-3 3s1.34 3 3 3c1.56 0 2.82-1.2 2.97-2.72.3-.18.66-.28 1.03-.28s.73.1 1.03.28C9.18 12.8 10.44 14 12 14c1.66 0 3-1.34 3-3s-1.34-3-3-3c-1.39 0-2.54.97-2.87 2.25C8.77 10.11 8.4 10 8 10c-.4 0-.77.11-1.12.25C6.54 8.97 5.39 8 4 8zm0 1.25c.97 0 1.75.78 1.75 1.75S4.97 12.75 4 12.75 2.25 11.97 2.25 11 3.03 9.25 4 9.25zm8 0c.97 0 1.75.78 1.75 1.75s-.78 1.75-1.75 1.75-1.75-.78-1.75-1.75.78-1.75 1.75-1.75zM4 1l-.75 3h9.5L12 1l-4 .5zM3 5L0 7h16l-3-2z"
     fill="#aaaaaa"
     id="path1"
     style="fill:#f2f2f2;fill-opacity:1" />
</svg>
