<?xml version="1.0" encoding="UTF-8" standalone="no"?>
<svg
   width="24"
   height="24"
   viewBox="0 0 24 24"
   version="1.1"
   id="svg3"
   sodipodi:docname="indicator-messages-red.svg"
   inkscape:version="1.4.2 (unknown)"
   xmlns:inkscape="http://www.inkscape.org/namespaces/inkscape"
   xmlns:sodipodi="http://sodipodi.sourceforge.net/DTD/sodipodi-0.dtd"
   xmlns="http://www.w3.org/2000/svg"
   xmlns:svg="http://www.w3.org/2000/svg">
  <defs
     id="defs3" />
  <sodipodi:namedview
     id="namedview3"
     pagecolor="#7e7e7e"
     bordercolor="#999999"
     borderopacity="1"
     inkscape:showpageshadow="2"
     inkscape:pageopacity="0"
     inkscape:pagecheckerboard="0"
     inkscape:deskcolor="#d1d1d1"
     showgrid="true"
     inkscape:zoom="15.875"
     inkscape:cx="12.031496"
     inkscape:cy="9.3543307"
     inkscape:window-width="1920"
     inkscape:window-height="998"
     inkscape:window-x="0"
     inkscape:window-y="0"
     inkscape:window-maximized="1"
     inkscape:current-layer="svg3"
     showguides="false">
    <inkscape:grid
       id="grid3"
       units="px"
       originx="0"
       originy="0"
       spacingx="1"
       spacingy="1"
       empcolor="#0099e5"
       empopacity="0.30196078"
       color="#0099e5"
       opacity="0.14902"
       empspacing="5"
       dotted="false"
       gridanglex="30"
       gridanglez="30"
       visible="true" />
    <sodipodi:guide
       position="3,26"
       orientation="1,0"
       id="guide1"
       inkscape:locked="false" />
  </sodipodi:namedview>
  <style
     type="text/css"
     id="current-color-scheme">
.ColorScheme-Text { 
    color:#ffffff;
}
.ColorScheme-ButtonFocus { color:#3daee9; }
.ColorScheme-NegativeText { color: #da4453; }
</style>
  <g
     id="g1">
    <path
       fill-rule="evenodd"
       clip-rule="evenodd"
       d="m 11.734739,5.3333373 c -2.0626625,0 -3.7347524,1.6717607 -3.7347524,3.7346269 v 2.7742868 c 0,1.237606 -0.6040517,2.396447 -1.6180574,3.105411 l -0.5136907,0.358677 c -0.3353575,0.233575 -0.5349203,0.617462 -0.5349203,1.026785 0,0.185196 0.1491023,0.33222 0.3333543,0.33222 H 18.333336 c 0.184025,0 0.333316,-0.150803 0.333316,-0.33222 0,-0.416013 -0.198387,-0.806589 -0.534051,-1.051692 L 17.606778,14.89747 C 16.596987,14.159857 15.999969,12.984386 15.999969,11.734043 V 9.0257469 c 0,-2.0396221 -1.653336,-3.6926364 -3.692773,-3.6926364 z m 0.598623,14.6663817 c -1.175508,0 -2.147961,-0.869027 -2.309733,-1.999786 H 5.6666952 c -0.9205183,0 -1.6666954,-0.746457 -1.6666954,-1.666658 0,-0.844725 0.4122634,-1.635742 1.1043739,-2.119446 l 0.5136828,-0.359055 c 0.6571653,-0.459251 1.048611,-1.210243 1.048611,-2.012259 V 9.0682288 c 0,-2.7991182 2.2690319,-5.0682333 5.0680715,-5.0682333 h 0.572476 c 2.775875,0 5.02613,2.2503308 5.02613,5.0262049 v 2.7082966 c 0,0.82507 0.393789,1.600025 1.059878,2.086828 l 0.525773,0.383622 c 0.679416,0.496328 1.081047,1.287269 1.081047,2.128441 0,0.920353 -0.746199,1.66681 -1.666684,1.66681 h -3.69029 c -0.161688,1.130759 -1.134262,1.999786 -2.309707,1.999786 z m -0.943086,-1.999786 c 0.137197,0.388422 0.507689,0.666709 0.943086,0.666709 0.435402,0 0.80578,-0.277796 0.943045,-0.666709 z"
       id="path1145-3"
       style="fill:currentColor;fill-opacity:1;stroke-width:0.666694"
       class="ColorScheme-Text" />
    <path
       d="m 20.179592,6.7000183 c 0,1.9224809 -1.556889,3.4792717 -3.479443,3.4792717 -1.920937,0 -3.479439,-1.5567908 -3.479439,-3.4792717 0,-1.9208659 1.558502,-3.4793079 3.479439,-3.4793079 1.922554,0 3.479443,1.558442 3.479443,3.4793079 z"
       id="path72-3-7-36"
       style="fill:#ff5555;fill-opacity:1;stroke:#ff5555;stroke-width:0.0414208;stroke-opacity:1"
       class="ColorScheme-Text" />
  </g>
</svg>
