<?xml version="1.0" encoding="UTF-8" standalone="no"?>
<svg
   width="16"
   height="16"
   version="1.1"
   id="svg1"
   sodipodi:docname="computer.svg"
   inkscape:version="1.4.2 (unknown)"
   xmlns:inkscape="http://www.inkscape.org/namespaces/inkscape"
   xmlns:sodipodi="http://sodipodi.sourceforge.net/DTD/sodipodi-0.dtd"
   xmlns="http://www.w3.org/2000/svg"
   xmlns:svg="http://www.w3.org/2000/svg">
  <defs
     id="defs1" />
  <sodipodi:namedview
     id="namedview1"
     pagecolor="#ffffff"
     bordercolor="#000000"
     borderopacity="0.25"
     inkscape:showpageshadow="2"
     inkscape:pageopacity="0.0"
     inkscape:pagecheckerboard="0"
     inkscape:deskcolor="#d1d1d1"
     inkscape:zoom="23.625"
     inkscape:cx="9.3756614"
     inkscape:cy="7.3650794"
     inkscape:current-layer="svg1" />
  <g
     id="g1"
     transform="matrix(0.85714286,0,0,0.85714286,1.1428571,1.1428571)"
     style="stroke-width:1.16667">
    <path
       d="M 3,1 C 1.338,1 0,2.338 0,4 v 6 c 0,1.662 1.338,3 3,3 h 10 c 1.662,0 3,-1.338 3,-3 V 4 C 16,2.338 14.662,1 13,1 Z m 0,1 h 10 c 1.108,0 2,0.892 2,2 v 6 c 0,1.108 -0.892,2 -2,2 H 3 C 1.892,12 1,11.108 1,10 V 4 C 1,2.892 1.892,2 3,2 Z"
       fill="#dedede"
       stroke-linecap="round"
       stroke-linejoin="round"
       stroke-width="1.16854"
       id="path1"
       style="fill:#000000;fill-opacity:1" />
    <rect
       x="4"
       y="14"
       width="8"
       height="1"
       rx="0.58333319"
       ry="0.58333319"
       fill="#dedede"
       stroke-linecap="round"
       stroke-linejoin="round"
       stroke-width="1.16854"
       id="rect1"
       style="fill:#000000;fill-opacity:1" />
  </g>
</svg>
