<?xml version="1.0" encoding="UTF-8" standalone="no"?>
<svg
   viewBox="0 0 22 22"
   version="1.1"
   id="svg1"
   sodipodi:docname="folder-open-recent.svg"
   inkscape:version="1.4.2 (unknown)"
   xmlns:inkscape="http://www.inkscape.org/namespaces/inkscape"
   xmlns:sodipodi="http://sodipodi.sourceforge.net/DTD/sodipodi-0.dtd"
   xmlns="http://www.w3.org/2000/svg"
   xmlns:svg="http://www.w3.org/2000/svg">
  <sodipodi:namedview
     id="namedview1"
     pagecolor="#ffffff"
     bordercolor="#000000"
     borderopacity="0.25"
     inkscape:showpageshadow="2"
     inkscape:pageopacity="0.0"
     inkscape:pagecheckerboard="0"
     inkscape:deskcolor="#d1d1d1"
     inkscape:zoom="34.363636"
     inkscape:cx="10.98545"
     inkscape:cy="11"
     inkscape:current-layer="svg1" />
  <defs
     id="defs3051">
    <style
       type="text/css"
       id="current-color-scheme">.ColorScheme-Text { color:#eff0f1 }
</style>
  </defs>
  <path
     style="fill:currentColor;fill-opacity:1;stroke:none"
     d="M5.58 3.078A2.515 2.515 0 0 0 3.078 5.58v10.84a2.515 2.515 0 0 0 2.502 2.502h10.84a2.515 2.515 0 0 0 2.502-2.502V7.297a2.515 2.515 0 0 0-2.502-2.502h-4.617l-.883-.883-.434-.433-.4-.4H5.58zm3.3 4.795h9.208v8.547c0 .924-.744 1.668-1.668 1.668H5.58a1.664 1.664 0 0 1-1.668-1.668V9.873H6.873v-.008l.008.008 2-2z"
     class="ColorScheme-Text"
     id="path1" />
  <path
     d="m 3.942,14.619863 v 0 0 L 18.058,10.63286 Z M 18.058,10.63286 3.942,14.619863 v 1.925379 l 14.116,-3.987003 z m 0,3.72 L 4.8930655,18.071 h 6.8167925 l 6.348054,-1.792761 V 14.35286 Z"
     class="ColorScheme-Text "
     style="fill:currentColor;stroke-width:0.999995"
     id="path2"
     sodipodi:nodetypes="cccccccccccccccc" />
</svg>
