<?xml version="1.0" encoding="UTF-8" standalone="no"?>
<svg
   width="16"
   height="16"
   version="1.1"
   id="svg1"
   sodipodi:docname="starred-symbolic.svg"
   inkscape:version="1.4.2 (unknown)"
   xmlns:inkscape="http://www.inkscape.org/namespaces/inkscape"
   xmlns:sodipodi="http://sodipodi.sourceforge.net/DTD/sodipodi-0.dtd"
   xmlns="http://www.w3.org/2000/svg"
   xmlns:svg="http://www.w3.org/2000/svg">
  <sodipodi:namedview
     id="namedview1"
     pagecolor="#ffffff"
     bordercolor="#000000"
     borderopacity="0.25"
     inkscape:showpageshadow="2"
     inkscape:pageopacity="0.0"
     inkscape:pagecheckerboard="0"
     inkscape:deskcolor="#d1d1d1"
     inkscape:zoom="47.5625"
     inkscape:cx="8"
     inkscape:cy="8"
     inkscape:current-layer="svg1" />
  <defs
     id="defs1">
    <style
       id="current-color-scheme"
       type="text/css">.ColorScheme-Text {
        color:#dedede;
      }</style>
  </defs>
  <path
     d="M 7.9652905,2.000181 A 0.85691073,0.85691073 0 0 0 7.2154937,2.5143273 L 5.9404104,5.4278238 H 2.6447316 C 1.8563741,5.4286811 1.4879025,6.4021316 2.0757432,6.925704 l 2.565591,2.2725274 -1.3033618,3.6538696 c -0.2699267,0.760079 0.5638477,1.438747 1.2528038,1.019719 l 3.4096478,-2.084003 3.408789,2.084003 a 0.85691073,0.85691073 0 0 0 1.253659,-1.019719 L 11.359519,9.1982314 13.925109,6.925704 A 0.85691073,0.85691073 0 0 0 13.356114,5.4278238 H 10.060436 L 8.8573345,2.677997 8.7853543,2.5143273 A 0.85691073,0.85691073 0 0 0 8.6576746,2.3086694 l -0.00942,-0.011996 A 0.85691073,0.85691073 0 0 0 8.4725844,2.1441428 0.85691073,0.85691073 0 0 0 8.470815,2.1423733 l -0.010275,-0.00517 A 0.85691073,0.85691073 0 0 0 8.2566401,2.0404564 l -0.016277,-0.006 a 0.85691073,0.85691073 0 0 0 -0.2399354,-0.034277 0.85691073,0.85691073 0 0 0 -0.035138,-2e-7 z M 8.000422,2.8570921 8.8573327,4.815133 9.500016,6.2847349 h 3.856098 L 10.35693,8.9428717 11.856524,13.140022 8.7467931,11.240251 8.000424,10.783515 4.1443255,13.140022 5.6439195,8.9428717 2.6447316,6.2847349 h 3.8560988 z"
     class="ColorScheme-Text"
     fill="currentColor"
     id="path1"
     style="stroke-width:0.999997" />
</svg>
