<?xml version="1.0" encoding="UTF-8" standalone="no"?>
<!-- Created with Inkscape (http://www.inkscape.org/) -->

<svg
   width="64"
   height="64"
   viewBox="0 0 16.933333 16.933333"
   version="1.1"
   id="svg1"
   inkscape:version="1.4.2 (unknown)"
   sodipodi:docname="folder-java.svg"
   xmlns:inkscape="http://www.inkscape.org/namespaces/inkscape"
   xmlns:sodipodi="http://sodipodi.sourceforge.net/DTD/sodipodi-0.dtd"
   xmlns:xlink="http://www.w3.org/1999/xlink"
   xmlns="http://www.w3.org/2000/svg"
   xmlns:svg="http://www.w3.org/2000/svg">
  <sodipodi:namedview
     id="namedview1"
     pagecolor="#ffffff"
     bordercolor="#000000"
     borderopacity="0.25"
     inkscape:showpageshadow="2"
     inkscape:pageopacity="0.0"
     inkscape:pagecheckerboard="0"
     inkscape:deskcolor="#d1d1d1"
     inkscape:document-units="px"
     inkscape:zoom="9.120116"
     inkscape:cx="30.811012"
     inkscape:cy="41.28237"
     inkscape:current-layer="layer1"
     showgrid="true"
     showguides="false">
    <inkscape:grid
       id="grid1"
       units="px"
       originx="0"
       originy="0"
       spacingx="0.26458333"
       spacingy="0.26458333"
       empcolor="#0099e5"
       empopacity="0.30196078"
       color="#0099e5"
       opacity="0.14901961"
       empspacing="5"
       enabled="true"
       visible="true" />
  </sodipodi:namedview>
  <defs
     id="defs1">
    <linearGradient
       id="linearGradient4"
       inkscape:collect="always">
      <stop
         style="stop-color:#ffcca9;stop-opacity:1;"
         offset="0"
         id="stop4" />
      <stop
         style="stop-color:#f4e3d7;stop-opacity:1"
         offset="0.33333334"
         id="stop6" />
      <stop
         style="stop-color:#ffb380;stop-opacity:1"
         offset="1"
         id="stop5" />
    </linearGradient>
    <linearGradient
       inkscape:collect="always"
       xlink:href="#linearGradient4"
       id="linearGradient5"
       x1="10.424583"
       y1="3.2941251"
       x2="14.393332"
       y2="13.612875"
       gradientUnits="userSpaceOnUse"
       gradientTransform="translate(0.42333307,-0.11912529)" />
  </defs>
  <g
     inkscape:label="Layer 1"
     inkscape:groupmode="layer"
     id="layer1">
    <rect
       x="2.2871437"
       y="0.52850062"
       style="clip-rule:evenodd;opacity:0.2;fill:#000000;fill-opacity:1;fill-rule:evenodd;stroke-width:0.264585"
       width="12.661815"
       height="13.195868"
       id="rect29"
       ry="0.79374999"
       rx="1.1906257" />
    <rect
       x="2.253372"
       y="0.26458335"
       style="clip-rule:evenodd;fill:url(#linearGradient5);fill-rule:evenodd;stroke-width:0.264587"
       width="12.426589"
       height="13.723703"
       id="rect30"
       ry="1.0583333"
       rx="1.1862109" />
    <path
       style="clip-rule:evenodd;opacity:0.2;fill:#000000;fill-opacity:1;fill-rule:evenodd;stroke-width:0.264586"
       d="m 3.1403083,0.5616023 9.3573277,1.2404109 c 0.500171,0.066303 0.96613,0.4009401 0.955781,0.870927 l -0.01625,0.7381328 0.01625,0.7215647 c 0.0039,0.1758939 -0.04649,0.2573225 -0.196997,0.3109292 l -0.335496,0.1195263 c -0.166565,0.05937 -0.252132,0.2077206 -0.252132,0.420295 v 2.4947475 c 0,0.2124755 0.08562,0.3608818 0.252132,0.4202447 l 0.335496,0.1195273 c 0.150506,0.053605 0.180746,0.1349932 0.180746,0.3109288 v 0.7215617 l 0.01625,6.6337588 c 0.0013,0.514902 -0.658166,1.05807 -1.220935,0.976393 L 3.1403083,15.340964 C 2.6410549,15.268505 2.2229842,14.956307 2.2229842,14.486161 V 1.4164584 c 0,-0.47014813 0.4172574,-0.92114478 0.9173241,-0.8548561 z"
       id="path31-3"
       sodipodi:nodetypes="ssscsccssccscssssss" />
    <path
       style="clip-rule:evenodd;fill:#36485c;fill-opacity:1;fill-rule:evenodd;stroke-width:0.264586"
       d="M 2.9016988,0.27109187 12.259021,1.511504 c 0.50017,0.066303 0.96613,0.4009392 0.955781,0.8709263 l -0.01625,0.7381324 0.01625,0.7215652 c 0.0039,0.1758942 -0.0465,0.2573227 -0.196997,0.3109294 l -0.335497,0.1195264 c -0.166565,0.05937 -0.252132,0.2077209 -0.252132,0.4202955 v 2.4947469 c 0,0.2124778 0.08562,0.3608833 0.252132,0.4202466 l 0.335497,0.1195283 c 0.150505,0.053605 0.180746,0.1349924 0.180746,0.3109294 v 0.7215602 l 0.01625,6.8184034 c 0.0011,0.470196 -0.482614,0.858478 -0.955781,0.791752 L 2.9016988,15.050459 C 2.4021543,14.980016 1.9843748,14.665802 1.9843748,14.195656 V 1.1259489 c 0,-0.47014879 0.4172574,-0.92114576 0.917324,-0.85485703 z"
       id="path31-1-3"
       sodipodi:nodetypes="ssscsccssccscssssss" />
    <g
       id="surface1"
       transform="matrix(0.09517161,0,0,0.08819377,4.6142788,8.1051111)"
       style="fill:#8c98a6;fill-opacity:1;stroke-width:2.88793">
      <path
         style="fill:#8c98a6;fill-opacity:1;fill-rule:evenodd;stroke:none;stroke-width:2.88793"
         d="m 31.703125,13.117188 c -2.769531,1.949218 -5.910156,4.160156 -7.59375,7.816406 -2.925781,6.378906 5.980469,13.339844 6.359375,13.628906 0.08984,0.07031 0.195312,0.105469 0.300781,0.105469 0.109375,0 0.226563,-0.03906 0.316407,-0.117188 0.175781,-0.148437 0.226562,-0.398437 0.117187,-0.601562 -0.03125,-0.06641 -3.226563,-6.273438 -3.105469,-10.730469 0.04297,-1.550781 2.210938,-3.3125 4.511719,-5.175781 2.101563,-1.707031 4.492187,-3.644531 5.886719,-5.90625 3.0625,-4.980469 -0.34375,-9.878907 -0.375,-9.929688 C 37.984375,2.015625 37.730469,1.949219 37.519531,2.039062 37.308594,2.136719 37.1875,2.367188 37.234375,2.597656 c 0.0078,0.03125 0.671875,3.269532 -1.171875,6.605469 -0.757812,1.382813 -2.425781,2.558594 -4.359375,3.914063 z m 11.675781,2.199218 c 0.195313,-0.148437 0.253906,-0.417968 0.136719,-0.632812 -0.121094,-0.214844 -0.375,-0.308594 -0.609375,-0.21875 -0.464844,0.175781 -11.527344,4.4375 -11.527344,9.589844 0,3.554687 1.515625,5.429687 2.625,6.800781 0.4375,0.535156 0.808594,1 0.933594,1.398437 0.347656,1.140625 -0.476562,3.207032 -0.824219,3.902344 -0.09766,0.203125 -0.05078,0.445312 0.117188,0.589844 0.09375,0.08203 0.210937,0.121094 0.324219,0.121094 0.09766,0 0.199218,-0.02734 0.28125,-0.08594 0.1875,-0.132812 4.644531,-3.285156 3.847656,-7.085938 -0.300782,-1.4375 -1.007813,-2.496093 -1.632813,-3.425781 -0.972656,-1.441406 -1.671875,-2.484375 -0.605469,-4.410156 1.242188,-2.242187 6.878907,-6.503906 6.933594,-6.542969 z m -28.78125,21.632813 c -0.195312,0.566406 -0.101562,1.128906 0.253906,1.628906 1.199219,1.664063 5.445313,2.582031 11.957032,2.582031 0.0039,0 0.0039,0 0.0039,0 0.878906,0 1.8125,-0.01563 2.765625,-0.05078 10.414063,-0.375 14.273437,-3.617187 14.433594,-3.757813 0.171875,-0.148437 0.21875,-0.398437 0.113281,-0.597656 -0.109375,-0.207031 -0.339844,-0.304687 -0.566406,-0.246094 -3.667969,1 -10.511719,1.355469 -15.261719,1.355469 -5.3125,0 -8.019531,-0.382812 -8.683594,-0.664062 0.339844,-0.46875 2.4375,-1.304688 5.035157,-1.8125 0.246093,-0.05078 0.417968,-0.277344 0.394531,-0.53125 -0.02344,-0.25 -0.234375,-0.445313 -0.488281,-0.445313 -1.523438,0 -9.164063,0.125 -9.957032,2.539063 z m 34.835938,-3.339844 c -2.148438,0 -4.1875,1.074219 -4.269532,1.117187 -0.199218,0.109376 -0.300781,0.335938 -0.242187,0.558594 0.05078,0.214844 0.246094,0.371094 0.472656,0.371094 0.04687,0 4.582031,0.03516 4.992188,2.628906 0.367187,2.234375 -4.289063,5.859375 -6.113281,7.066406 -0.199219,0.132813 -0.277344,0.382813 -0.183594,0.601563 0.07813,0.183594 0.257812,0.300781 0.453125,0.300781 0.03125,0 0.07031,-0.0078 0.101562,-0.01172 0.429688,-0.08984 10.589844,-2.332032 9.515625,-8.246094 -0.652344,-3.628906 -2.933594,-4.386719 -4.726562,-4.386719 z M 42.46875,44.628906 c 0.03516,-0.1875 -0.04297,-0.386718 -0.203125,-0.492187 l -2.433594,-1.707031 c -0.121093,-0.08594 -0.273437,-0.109376 -0.410156,-0.07422 -0.02734,0.0078 -2.574219,0.675781 -6.269531,1.089843 -1.46875,0.164063 -3.113282,0.25 -4.757813,0.25 -3.695312,0 -6.109375,-0.433593 -6.460937,-0.753906 -0.05078,-0.08984 -0.03516,-0.128906 -0.02734,-0.152344 0.06641,-0.175781 0.410156,-0.390624 0.628906,-0.472656 0.246094,-0.09375 0.375,-0.355468 0.300782,-0.605468 -0.07422,-0.25 -0.332032,-0.394532 -0.589844,-0.335938 -2.4375,0.589844 -3.632813,1.417969 -3.546875,2.453125 0.152343,1.835937 4.410156,2.78125 8.007812,3.03125 0.515625,0.03125 1.078125,0.05078 1.664063,0.05078 5.984375,0 13.652344,-1.878906 13.730468,-1.894531 0.1875,-0.04687 0.332032,-0.199219 0.367188,-0.386719 z m -18.363281,3.941406 c 0.183593,-0.117187 0.265625,-0.347656 0.199219,-0.554687 -0.06641,-0.210937 -0.261719,-0.347656 -0.480469,-0.347656 -0.328125,0.0078 -3.203125,0.140625 -3.410157,1.972656 -0.05859,0.546875 0.09766,1.046875 0.46875,1.488281 1.03125,1.222656 3.820313,1.949219 8.519532,2.222656 0.558594,0.03125 1.125,0.04688 1.683594,0.04688 5.972656,0 10,-1.871094 10.171874,-1.949219 0.15625,-0.07813 0.265626,-0.238281 0.277344,-0.417969 0.0078,-0.179688 -0.07813,-0.351562 -0.234375,-0.445312 l -3.078125,-1.882813 c -0.105468,-0.0625 -0.234375,-0.08203 -0.359375,-0.05859 -0.01563,0.0039 -1.972656,0.40625 -4.917969,0.808594 -0.5625,0.07422 -1.261718,0.113281 -2.082031,0.113281 -2.941406,0 -6.21875,-0.476562 -6.851562,-0.792968 -0.0078,-0.0625 0.0039,-0.136719 0.09375,-0.203126 z m 4.195312,10.480469 c 13.6875,-0.01172 21.035157,-2.445312 22.453125,-3.980469 0.5,-0.539062 0.554688,-1.050781 0.511719,-1.386718 -0.105469,-0.828125 -0.859375,-1.332032 -0.945313,-1.386719 -0.203124,-0.132813 -0.480468,-0.09766 -0.640624,0.08594 -0.160157,0.1875 -0.164063,0.457032 -0.0039,0.640626 0.08984,0.113281 0.136719,0.300781 -0.117187,0.550781 -0.5625,0.53125 -6.269532,2.132812 -15.769532,2.617187 -1.304687,0.07031 -2.667968,0.101563 -4.0625,0.101563 -8.507812,0 -14.730468,-1.164063 -15.550781,-1.84375 0.316407,-0.453125 2.519531,-1.175781 4.859375,-1.585938 0.265625,-0.04687 0.445313,-0.296875 0.40625,-0.558593 -0.04687,-0.269532 -0.289062,-0.449219 -0.554687,-0.414063 -0.06641,0.0078 -0.289063,0.01953 -0.550781,0.03906 -3.863282,0.234374 -8.328126,0.761718 -8.5625,2.753906 -0.070313,0.605468 0.109374,1.15625 0.535156,1.636718 1.042968,1.171876 4.042968,2.730469 17.992187,2.730469 z m 25.140625,-3.546875 c -0.195312,-0.08984 -0.425781,-0.04297 -0.570312,0.113282 -0.01953,0.02344 -2.074219,2.175781 -8.261719,3.4375 -2.375,0.476562 -6.816406,0.71875 -13.222656,0.71875 -6.410157,0 -12.515625,-0.253907 -12.574219,-0.257813 -0.257812,-0.01172 -0.472656,0.171875 -0.507812,0.425781 -0.03125,0.25 0.128906,0.488282 0.375,0.546875 C 18.738281,60.5 25.136719,62 33.878906,62 c 4.195313,0 8.277344,-0.339844 12.132813,-1.011719 7.1875,-1.261719 7.691406,-4.828125 7.707031,-4.980469 0.02734,-0.207031 -0.08594,-0.410156 -0.277344,-0.503906 z m 0,0"
         id="path1" />
    </g>
  </g>
</svg>
