<?xml version="1.0" encoding="UTF-8" standalone="no"?>
<!-- Created with Inkscape (http://www.inkscape.org/) -->

<svg
   width="64"
   height="64"
   viewBox="0 0 16.933333 16.933333"
   version="1.1"
   id="svg1"
   inkscape:version="1.4.2 (unknown)"
   sodipodi:docname="folder-build.svg"
   xmlns:inkscape="http://www.inkscape.org/namespaces/inkscape"
   xmlns:sodipodi="http://sodipodi.sourceforge.net/DTD/sodipodi-0.dtd"
   xmlns:xlink="http://www.w3.org/1999/xlink"
   xmlns="http://www.w3.org/2000/svg"
   xmlns:svg="http://www.w3.org/2000/svg">
  <sodipodi:namedview
     id="namedview1"
     pagecolor="#ffffff"
     bordercolor="#000000"
     borderopacity="0.25"
     inkscape:showpageshadow="2"
     inkscape:pageopacity="0.0"
     inkscape:pagecheckerboard="0"
     inkscape:deskcolor="#d1d1d1"
     inkscape:document-units="px"
     inkscape:zoom="9.120116"
     inkscape:cx="30.865835"
     inkscape:cy="39.637654"
     inkscape:current-layer="layer1"
     showgrid="true"
     showguides="false">
    <inkscape:grid
       id="grid1"
       units="px"
       originx="0"
       originy="0"
       spacingx="0.26458333"
       spacingy="0.26458333"
       empcolor="#0099e5"
       empopacity="0.30196078"
       color="#0099e5"
       opacity="0.14901961"
       empspacing="5"
       enabled="true"
       visible="true" />
  </sodipodi:namedview>
  <defs
     id="defs1">
    <linearGradient
       id="linearGradient4"
       inkscape:collect="always">
      <stop
         style="stop-color:#eea48a;stop-opacity:1"
         offset="0"
         id="stop4" />
      <stop
         style="stop-color:#88ffff;stop-opacity:1;"
         offset="0.33333334"
         id="stop6" />
      <stop
         style="stop-color:#ad7aa9;stop-opacity:1"
         offset="1"
         id="stop5" />
    </linearGradient>
    <linearGradient
       inkscape:collect="always"
       xlink:href="#linearGradient4"
       id="linearGradient5"
       x1="3.5454168"
       y1="1.4420419"
       x2="14.12875"
       y2="13.612875"
       gradientUnits="userSpaceOnUse"
       gradientTransform="translate(0.42333307,-0.11912529)" />
  </defs>
  <g
     inkscape:label="Layer 1"
     inkscape:groupmode="layer"
     id="layer1">
    <rect
       x="2.2871437"
       y="0.52850062"
       style="clip-rule:evenodd;opacity:0.2;fill:#000000;fill-opacity:1;fill-rule:evenodd;stroke-width:0.264585"
       width="12.661815"
       height="13.195868"
       id="rect29"
       ry="0.79374999"
       rx="1.1906257" />
    <rect
       x="2.253372"
       y="0.26458335"
       style="clip-rule:evenodd;fill:url(#linearGradient5);fill-rule:evenodd;stroke-width:0.264587"
       width="12.426589"
       height="13.723703"
       id="rect30"
       ry="1.0583333"
       rx="1.1862109" />
    <path
       style="clip-rule:evenodd;opacity:0.2;fill:#000000;fill-opacity:1;fill-rule:evenodd;stroke-width:0.264586"
       d="m 3.1403083,0.5616023 9.3573277,1.2404109 c 0.500171,0.066303 0.96613,0.4009401 0.955781,0.870927 l -0.01625,0.7381328 0.01625,0.7215647 c 0.0039,0.1758939 -0.04649,0.2573225 -0.196997,0.3109292 l -0.335496,0.1195263 c -0.166565,0.05937 -0.252132,0.2077206 -0.252132,0.420295 v 2.4947475 c 0,0.2124755 0.08562,0.3608818 0.252132,0.4202447 l 0.335496,0.1195273 c 0.150506,0.053605 0.180746,0.1349932 0.180746,0.3109288 v 0.7215617 l 0.01625,6.6337588 c 0.0013,0.514902 -0.658166,1.05807 -1.220935,0.976393 L 3.1403083,15.340964 C 2.6410549,15.268505 2.2229842,14.956307 2.2229842,14.486161 V 1.4164584 c 0,-0.47014813 0.4172574,-0.92114478 0.9173241,-0.8548561 z"
       id="path31-3"
       sodipodi:nodetypes="ssscsccssccscssssss" />
    <path
       style="clip-rule:evenodd;fill:#36485c;fill-opacity:1;fill-rule:evenodd;stroke-width:0.264586"
       d="M 2.9016988,0.27109187 12.259021,1.511504 c 0.50017,0.066303 0.96613,0.4009392 0.955781,0.8709263 l -0.01625,0.7381324 0.01625,0.7215652 c 0.0039,0.1758942 -0.0465,0.2573227 -0.196997,0.3109294 l -0.335497,0.1195264 c -0.166565,0.05937 -0.252132,0.2077209 -0.252132,0.4202955 v 2.4947469 c 0,0.2124778 0.08562,0.3608833 0.252132,0.4202466 l 0.335497,0.1195283 c 0.150505,0.053605 0.180746,0.1349924 0.180746,0.3109294 v 0.7215602 l 0.01625,6.8184034 c 0.0011,0.470196 -0.482614,0.858478 -0.955781,0.791752 L 2.9016988,15.050459 C 2.4021543,14.980016 1.9843748,14.665802 1.9843748,14.195656 V 1.1259489 c 0,-0.47014879 0.4172574,-0.92114576 0.917324,-0.85485703 z"
       id="path31-1-3"
       sodipodi:nodetypes="ssscsccssccscssssss" />
    <g
       id="g2"
       transform="matrix(0.83204499,0,0,0.83333813,0.98584049,0.37985477)"
       style="fill:#8c98a6;fill-opacity:1;stroke-width:1.20092">
      <path
         id="path1-5"
         d="M 10.869872,15.105799 10.62508,14.859211 c 0.04681,-0.08315 0.08065,-0.170676 0.10369,-0.260387 l 0.350599,0.0014 c 0.06707,2.06e-4 0.121377,-0.05363 0.120523,-0.119639 l 10e-4,-0.294326 c 0.0024,-0.0671 -0.05154,-0.121412 -0.117544,-0.1206 l -0.354921,-0.0014 c -0.0235,-0.08883 -0.05675,-0.174446 -0.103033,-0.255798 l 0.250801,-0.249025 c 0.04674,-0.04628 0.04805,-0.123161 5.88e-4,-0.170972 l -0.20812,-0.209645 c -0.04639,-0.04676 -0.123199,-0.04809 -0.170979,-6.63e-4 l -0.246471,0.244681 c -0.08207,-0.05008 -0.170679,-0.08938 -0.2593146,-0.115705 l 7.57e-5,-0.34087 c 2.286e-4,-0.0671 -0.053693,-0.121412 -0.1197023,-0.120588 l -0.2943401,-0.0012 c -0.067106,-3.29e-4 -0.1213944,0.05361 -0.1205265,0.119651 l -0.0011,0.324652 c -0.097453,0.02127 -0.1928217,0.05767 -0.2817229,0.107101 L 8.9513618,13.171043 c -0.046381,-0.04672 -0.1232003,-0.04809 -0.1709831,-6.75e-4 L 8.5707778,13.37843 c -0.046739,0.04628 -0.048035,0.123161 -5.732e-4,0.170976 l 0.2146061,0.21618 c -0.057673,0.09175 -0.099111,0.188997 -0.125432,0.290608 l -0.3008214,-0.0012 c -0.067106,-3.27e-4 -0.1213932,0.05362 -0.1205252,0.119651 l -10e-4,0.294346 c -2.3e-4,0.06709 0.053695,0.121412 0.1197085,0.120588 l 0.2964967,0.0012 c 0.025636,0.101831 0.067485,0.202621 0.1234363,0.295902 l -0.2117211,0.210187 c -0.04674,0.04628 -0.048032,0.123173 -5.763e-4,0.170983 l 0.207056,0.208574 c 0.046379,0.04671 0.1231841,0.04807 0.1709678,6.52e-4 l 0.2171581,-0.215576 c 0.091781,0.05336 0.1890669,0.09055 0.2896196,0.113669 l -0.00106,0.313819 c -2.299e-4,0.06709 0.053686,0.1214 0.1197061,0.120588 l 0.2943246,0.0011 c 0.067111,3.27e-4 0.121402,-0.05361 0.1205266,-0.119651 l 0.00113,-0.326791 c 0.094231,-0.02669 0.185255,-0.0653 0.26984,-0.119077 l 0.235098,0.236821 c 0.04638,0.04671 0.123183,0.04807 0.170973,6.76e-4 l 0.208483,-0.206963 c 0.04891,-0.04624 0.04909,-0.122111 0.0016,-0.169893 z M 9.400888,14.622865 c -0.2081322,-0.209657 -0.0964,-0.478062 0.00337,-0.577107 0.099782,-0.09903 0.3599045,-0.199823 0.5680456,0.0099 0.2081444,0.209672 0.089845,0.489596 0.00822,0.570634 -0.1088436,0.108037 -0.3714851,0.206295 -0.5796309,-0.0034 z"
         style="fill:#8c98a6;fill-opacity:1;stroke-width:0.317745" />
      <path
         d="m 8.4052064,13.287225 v -0.464663 c 0.1227557,-0.03479 0.2373324,-0.08598 0.3437188,-0.149444 l 0.3314442,0.331599 c 0.063427,0.06347 0.1657221,0.06347 0.2271016,0 l 0.278251,-0.278376 c 0.065468,-0.0614 0.065468,-0.16376 0.00202,-0.225168 L 9.2522184,12.16547 c 0.06138,-0.106439 0.1104809,-0.21903 0.143217,-0.339804 h 0.4726137 c 0.087977,0 0.1616309,-0.07166 0.1616309,-0.161712 V 11.26889 c 0,-0.08804 -0.071607,-0.161716 -0.1616309,-0.161716 H 9.4036184 C 9.3729295,10.982328 9.3258721,10.861538 9.2665406,10.753048 l 0.3212136,-0.323426 c 0.063422,-0.06344 0.063422,-0.165801 0,-0.227214 L 9.3095066,9.9240172 c -0.063427,-0.063453 -0.1657222,-0.063453 -0.2271017,0 L 8.7755131,10.231065 C 8.6629843,10.159422 8.5381809,10.104154 8.407242,10.067306 V 9.6435816 c 0,-0.088019 -0.071611,-0.1617121 -0.1616306,-0.1617121 h -0.394868 c -0.087977,0 -0.1616307,0.071645 -0.1616307,0.1617121 V 10.05093 c -0.1411795,0.03275 -0.272129,0.08597 -0.392824,0.15762 L 7.0118989,9.9240172 c -0.063407,-0.063453 -0.1657116,-0.063453 -0.2271017,0 L 6.5065599,10.202408 c -0.063441,0.06344 -0.063441,0.165805 0,0.227214 l 0.2802881,0.280441 c -0.071611,0.120775 -0.1268477,0.255871 -0.1616442,0.397111 h -0.398932 c -0.087983,0 -0.1616441,0.07166 -0.1616441,0.161716 v 0.393019 c 0,0.08803 0.071611,0.161708 0.1616441,0.161708 h 0.4091866 c 0.036816,0.137153 0.094102,0.264067 0.1677626,0.380743 l -0.2966611,0.296813 c -0.063441,0.06344 -0.063441,0.165805 0,0.227214 l 0.2782373,0.278379 c 0.063441,0.06347 0.1657119,0.06347 0.2271017,0 l 0.3089325,-0.309082 c 0.1145783,0.06344 0.2373562,0.11257 0.3682813,0.141251 v 0.44624 c 0,0.08803 0.071607,0.161712 0.1616307,0.161712 H 8.243564 c 0.090025,0.002 0.1616303,-0.06957 0.1616303,-0.159662 z m -0.939126,-1.842297 c 0,-0.395068 0.3589055,-0.544525 0.5469036,-0.544525 0.1879982,0 0.529813,0.149457 0.529813,0.544525 0,0.395069 -0.3759962,0.549281 -0.529813,0.549281 -0.2050888,0 -0.5469036,-0.154212 -0.5469036,-0.549281 z"
         shape-rendering="crispEdges"
         id="path2-0-6"
         style="fill:#8c98a6;fill-opacity:1;stroke-width:0.317745" />
      <path
         id="path1-5-0"
         d="m 6.5888227,15.713049 0.0037,-0.349507 c 0.092615,-0.02521 0.1792044,-0.06277 0.2597381,-0.109661 l 0.2466772,0.252067 c 0.047202,0.04822 0.1241532,0.04903 0.1708245,0.0017 l 0.2115152,-0.207179 c 0.049734,-0.04568 0.050547,-0.122673 0.00326,-0.169372 L 7.2348372,14.876013 c 0.047013,-0.07958 0.084847,-0.163872 0.1104297,-0.254483 l 0.3554962,0.0037 c 0.066177,7.19e-4 0.12215,-0.0526 0.1228656,-0.120351 l 0.00313,-0.297152 c 7.014e-4,-0.06624 -0.05258,-0.122223 -0.1202943,-0.122935 l -0.349347,-0.0037 C 7.3350251,13.98693 7.3005959,13.895704 7.2568266,13.813625 l 0.2441895,-0.240712 c 0.048213,-0.04723 0.049027,-0.124222 0.00181,-0.170913 l -0.207083,-0.211556 c -0.047202,-0.04823 -0.1241531,-0.04904 -0.1708276,-0.0017 l -0.2332851,0.228522 c -0.084073,-0.05479 -0.1775117,-0.09736 -0.2757136,-0.126105 l 0.00337,-0.318725 c 7.034e-4,-0.06621 -0.052579,-0.122223 -0.1202943,-0.122935 l -0.2970208,-0.0031 c -0.066178,-7.19e-4 -0.1221462,0.05261 -0.1228618,0.120363 l -0.00323,0.306407 c -0.1064509,0.02352 -0.2053696,0.06249 -0.2967374,0.115442 L 5.567479,13.172176 c -0.047206,-0.04823 -0.1241532,-0.04904 -0.1708276,-0.0017 l -0.211524,0.207192 c -0.048211,0.04722 -0.049027,0.124222 -0.00181,0.170913 l 0.2086086,0.213174 c -0.054823,0.09028 -0.097452,0.191459 -0.1247376,0.297426 l -0.3000927,-0.0032 c -0.066178,-7.19e-4 -0.1221512,0.05263 -0.1228681,0.120363 l -0.00312,0.295627 c -7.046e-4,0.0662 0.052579,0.122212 0.1202955,0.122923 l 0.3077933,0.0032 c 0.026611,0.103429 0.068695,0.199379 0.1231703,0.287721 l -0.2255113,0.220908 c -0.048211,0.04722 -0.049027,0.124222 -0.00181,0.170912 l 0.2070849,0.211605 c 0.047204,0.04824 0.1241532,0.04905 0.1708281,0.0017 l 0.234853,-0.230022 c 0.085679,0.04863 0.177626,0.08657 0.2758923,0.109161 l -0.00355,0.335665 c -7.046e-4,0.0662 0.052579,0.122211 0.1202904,0.122923 l 0.2954963,0.0031 c 0.067698,0.0022 0.1221312,-0.05105 0.1228468,-0.118827 z M 5.8970562,14.319808 c 0.00315,-0.297161 0.2743001,-0.40673 0.4157138,-0.405236 0.1414144,0.0015 0.3973388,0.116642 0.3941979,0.413798 -0.00315,0.297184 -0.287192,0.410188 -0.402895,0.408965 -0.1542678,-0.0016 -0.410158,-0.12035 -0.4070167,-0.417527 z"
         style="fill:#8c98a6;fill-opacity:1;stroke-width:0.317745" />
    </g>
  </g>
</svg>
