<?xml version="1.0" encoding="UTF-8" standalone="no"?>
<!-- Created with Inkscape (http://www.inkscape.org/) -->

<svg
   width="64"
   height="64"
   viewBox="0 0 16.933333 16.933333"
   version="1.1"
   id="svg1"
   inkscape:version="1.4.2 (unknown)"
   sodipodi:docname="folder-Pop_OS.svg"
   xmlns:inkscape="http://www.inkscape.org/namespaces/inkscape"
   xmlns:sodipodi="http://sodipodi.sourceforge.net/DTD/sodipodi-0.dtd"
   xmlns:xlink="http://www.w3.org/1999/xlink"
   xmlns="http://www.w3.org/2000/svg"
   xmlns:svg="http://www.w3.org/2000/svg">
  <sodipodi:namedview
     id="namedview1"
     pagecolor="#ffffff"
     bordercolor="#000000"
     borderopacity="0.25"
     inkscape:showpageshadow="2"
     inkscape:pageopacity="0.0"
     inkscape:pagecheckerboard="0"
     inkscape:deskcolor="#d1d1d1"
     inkscape:document-units="px"
     inkscape:zoom="9.120116"
     inkscape:cx="30.536892"
     inkscape:cy="20.99754"
     inkscape:current-layer="layer1"
     showgrid="true"
     showguides="false">
    <inkscape:grid
       id="grid1"
       units="px"
       originx="0"
       originy="0"
       spacingx="0.26458333"
       spacingy="0.26458333"
       empcolor="#0099e5"
       empopacity="0.30196078"
       color="#0099e5"
       opacity="0.14901961"
       empspacing="5"
       enabled="true"
       visible="true" />
  </sodipodi:namedview>
  <defs
     id="defs1">
    <linearGradient
       id="linearGradient4"
       inkscape:collect="always">
      <stop
         style="stop-color:#43aab8;stop-opacity:1;"
         offset="0"
         id="stop4" />
      <stop
         style="stop-color:#ffe680;stop-opacity:1"
         offset="0.42100537"
         id="stop6" />
      <stop
         style="stop-color:#8bccd5;stop-opacity:1;"
         offset="1"
         id="stop5" />
    </linearGradient>
    <linearGradient
       inkscape:collect="always"
       xlink:href="#linearGradient4"
       id="linearGradient5"
       x1="7.2495832"
       y1="1.1774585"
       x2="13.334999"
       y2="14.142041"
       gradientUnits="userSpaceOnUse"
       gradientTransform="translate(0.42333307,-0.11912529)" />
  </defs>
  <g
     inkscape:label="Layer 1"
     inkscape:groupmode="layer"
     id="layer1">
    <rect
       x="2.2871437"
       y="0.52850062"
       style="clip-rule:evenodd;opacity:0.2;fill:#000000;fill-opacity:1;fill-rule:evenodd;stroke-width:0.264585"
       width="12.661815"
       height="13.195868"
       id="rect29"
       ry="0.79374999"
       rx="1.1906257" />
    <rect
       x="2.253372"
       y="0.26458335"
       style="clip-rule:evenodd;fill:url(#linearGradient5);fill-rule:evenodd;stroke-width:0.264587"
       width="12.426589"
       height="13.723703"
       id="rect30"
       ry="1.0583333"
       rx="1.1862109" />
    <path
       style="clip-rule:evenodd;opacity:0.2;fill:#000000;fill-opacity:1;fill-rule:evenodd;stroke-width:0.264586"
       d="m 3.1403083,0.5616023 9.3573277,1.2404109 c 0.500171,0.066303 0.96613,0.4009401 0.955781,0.870927 l -0.01625,0.7381328 0.01625,0.7215647 c 0.0039,0.1758939 -0.04649,0.2573225 -0.196997,0.3109292 l -0.335496,0.1195263 c -0.166565,0.05937 -0.252132,0.2077206 -0.252132,0.420295 v 2.4947475 c 0,0.2124755 0.08562,0.3608818 0.252132,0.4202447 l 0.335496,0.1195273 c 0.150506,0.053605 0.180746,0.1349932 0.180746,0.3109288 v 0.7215617 l 0.01625,6.6337588 c 0.0013,0.514902 -0.658166,1.05807 -1.220935,0.976393 L 3.1403083,15.340964 C 2.6410549,15.268505 2.2229842,14.956307 2.2229842,14.486161 V 1.4164584 c 0,-0.47014813 0.4172574,-0.92114478 0.9173241,-0.8548561 z"
       id="path31-3"
       sodipodi:nodetypes="ssscsccssccscssssss" />
    <path
       style="clip-rule:evenodd;fill:#36485c;fill-opacity:1;fill-rule:evenodd;stroke-width:0.264586"
       d="M 2.9016988,0.27109187 12.259021,1.511504 c 0.50017,0.066303 0.96613,0.4009392 0.955781,0.8709263 l -0.01625,0.7381324 0.01625,0.7215652 c 0.0039,0.1758942 -0.0465,0.2573227 -0.196997,0.3109294 l -0.335497,0.1195264 c -0.166565,0.05937 -0.252132,0.2077209 -0.252132,0.4202955 v 2.4947469 c 0,0.2124778 0.08562,0.3608833 0.252132,0.4202466 l 0.335497,0.1195283 c 0.150505,0.053605 0.180746,0.1349924 0.180746,0.3109294 v 0.7215602 l 0.01625,6.8184034 c 0.0011,0.470196 -0.482614,0.858478 -0.955781,0.791752 L 2.9016988,15.050459 C 2.4021543,14.980016 1.9843748,14.665802 1.9843748,14.195656 V 1.1259489 c 0,-0.47014879 0.4172574,-0.92114576 0.917324,-0.85485703 z"
       id="path31-1-3"
       sodipodi:nodetypes="ssscsccssccscssssss" />
    <g
       id="g8"
       style="fill:#8c98a6;fill-opacity:1;stroke-width:1.00003"
       transform="matrix(0.26458333,0,0,0.26458333,-0.42333343,0.34395827)">
      <path
         style="fill:#8c98a6;fill-opacity:1;stroke-width:0.063862"
         id="path2-3-6-4-3-9"
         d="m 40.7311,41.331901 c -0.04788,0.225474 -0.150527,0.425329 -0.326046,0.550853 -0.275864,0.197012 -0.611978,0.139892 -0.850156,-0.09989 -0.223275,-0.222648 -0.298495,-0.599388 -0.22826,-0.924808 0.07249,-0.339725 0.303468,-0.63938 0.599351,-0.733639 0.659648,-0.208316 0.932963,0.607999 0.805111,1.207516 z m -0.403788,-2.317843 c -0.408793,-0.185536 -0.268388,-2.626058 0.1057,-5.588858 0.105702,-0.827837 0.285898,-1.219016 0.489008,-1.418836 0.290902,-0.282487 0.820139,-0.294009 1.178708,-0.234076 0.411405,0.06748 0.805053,0.285568 1.103493,0.613768 0.263345,0.291241 0.29351,0.588014 0.203131,0.973414 -0.147948,0.613771 -0.401228,1.201777 -0.644539,1.775427 -0.05727,0.139849 -0.5618,1.227352 -0.62941,1.361488 -1.216407,2.437736 -1.459604,2.674759 -1.805757,2.517673 z" />
      <path
         style="fill:#8c98a6;fill-opacity:1;stroke-width:0.063862"
         id="path4-6-7-4-6-1"
         d="m 32.076225,37.915166 c 0.240785,1.1703 0.215693,2.454778 0.0078,3.379581 -0.193127,0.873428 -0.717271,1.65551 -1.54994,1.918132 -0.729761,0.231232 -1.579961,0.06211 -2.101594,-0.508064 -0.857728,-0.9362 -1.359293,-3.134126 -1.136083,-4.729694 0.180528,-1.281661 0.787471,-2.923045 2.11916,-2.994431 0.08547,-0.0041 0.170535,-0.0022 0.255844,0.0041 1.356759,0.139866 2.096618,1.441479 2.402568,2.928656 z m -2.452694,2.663072 c 0.07465,0.01503 0.150454,0.01503 0.225723,-0.0086 0.253258,-0.08211 0.398718,-0.3826 0.466425,-0.673643 0.102835,-0.442479 0.08818,-0.91921 -0.045,-1.35311 -0.06826,-0.219799 -0.168001,-0.433889 -0.321059,-0.593735 -0.539183,-0.562298 -1.078345,0.02222 -1.171179,0.687935 -0.07254,0.51954 0.03296,1.12179 0.318531,1.54145 0.132911,0.19409 0.323549,0.36246 0.526652,0.402414 z" />
      <path
         style="fill:#8c98a6;fill-opacity:1;stroke-width:0.063862"
         id="path6-7-5-7-7-2"
         d="m 35.013053,40.395666 c -0.002,2.160699 0.188067,3.813521 -0.647108,4.010413 -0.677088,0.157043 -0.654507,-0.519477 -0.707214,-1.087504 -0.20056,-2.200746 -0.383654,-5.857285 -0.461466,-8.069429 0.05487,-0.950627 0.614519,-1.532973 1.19633,-1.675546 0.897816,-0.219817 1.855846,-0.157081 2.650816,0.402383 1.572494,1.107604 1.697853,3.139907 0.744885,4.798254 -0.521609,0.904964 -2.099129,1.561497 -2.776243,1.504365 z m 0.200607,-4.843957 c -0.09763,0.01778 -0.258276,0.06747 -0.303455,0.176866 -0.107876,0.254041 -0.100868,1.866874 0.08817,2.543347 0.03035,0.112248 0.09741,0.216907 0.195626,0.25688 0.356169,0.148445 0.677211,-0.348245 0.82267,-0.647973 0.203118,-0.416739 0.268293,-0.907613 0.14037,-1.364464 -0.120626,-0.42518 -0.494032,-1.041819 -0.942944,-0.964656 z" />
      <path
         style="fill:#8c98a6;fill-opacity:1;stroke-width:0.063862"
         id="path8-5-3-6-5-7"
         d="m 26.019602,36.62489 c -0.589368,1.41875 -1.567421,2.546254 -2.921705,3.102844 0.388779,1.156033 0.78501,2.297832 1.171197,3.450957 0.215731,0.622188 0.42131,1.304526 0.233273,1.918142 -0.195642,0.627968 -0.958043,0.802058 -1.512305,0.134449 -1.065847,-1.290252 -4.6697,-9.465328 -4.93551,-10.079097 -0.225815,-0.528049 -0.56427,-1.093249 -0.554338,-1.704077 0.01762,-0.919155 1.266585,-1.849708 1.865883,-2.326267 0.837687,-0.665196 1.805694,-1.119087 2.841455,-1.121841 0.807604,0 1.497229,0.25128 2.109217,0.696384 0.93795,0.685232 1.590038,1.778326 1.830828,3.014314 0.210574,1.087531 0.165485,2.200902 -0.127886,2.914487 m -2.746162,-1.552929 c -0.21064,-0.87047 -0.687242,-1.672548 -1.286586,-2.234903 -0.130409,-0.122404 -0.270884,-0.237033 -0.433838,-0.299696 -1.123532,-0.419673 -0.636997,1.718307 -0.453917,2.25782 0.253293,0.756423 0.637004,1.712603 1.151102,2.283457 0.1125,0.125305 0.245805,0.236977 0.39872,0.271175 0.233251,0.05452 0.448901,-0.131575 0.56685,-0.348175 0.09731,-0.179866 0.135282,-0.393935 0.158007,-0.602226 0.0424,-0.442428 0.004,-0.893553 -0.100841,-1.327452 z" />
      <path
         style="mix-blend-mode:normal;fill:#8c98a6;fill-opacity:1;stroke-width:0.063862"
         id="path10-5-3-3-0"
         d="m 39.455424,47.490866 c -0.0042,1.253154 -0.67715,2.506324 -2.159284,2.506324 -1.482201,0 -2.17184,-1.233186 -2.17184,-2.491953 0,-1.569957 0.960515,-2.540515 2.201898,-2.540515 1.439546,0.01462 2.14178,1.230367 2.129226,2.526144 z m -2.129226,-1.73545 c -0.930436,0 -1.452119,0.736484 -1.45704,1.741221 0,0.87343 0.428829,1.692693 1.439482,1.692693 1.010678,0 1.396918,-0.8877 1.396918,-1.701274 0.01328,-0.844849 -0.381195,-1.712651 -1.37936,-1.73264 z m 2.751229,3.599415 c 0,0.185562 0.0042,-0.882027 0,-1.044709 h 0.682156 l 0.04798,0.653726 c 0.223273,0.145591 0.569335,0.254041 0.852699,0.254041 0.526729,0 1.075953,-0.151399 1.075953,-0.736474 -0.01762,-0.53096 -0.629522,-0.639384 -1.123543,-0.696539 -0.84016,-0.09778 -1.517286,-0.331025 -1.517286,-1.404301 0,-0.956295 0.950437,-1.432895 1.657686,-1.432895 0.56931,-0.01474 0.973058,0.08748 1.487161,0.556525 0,0.385427 -0.0042,0.613749 -0.0042,0.999105 H 42.57676 l -0.04232,-0.633661 c -0.265845,-0.145662 -0.539295,-0.185591 -0.74988,-0.179819 -0.453973,0.0041 -0.937938,0.248261 -0.937938,0.682144 0,0.425334 0.313408,0.542337 0.870165,0.633747 0.907943,0.137158 1.7832,0.371 1.7832,1.472855 -0.0042,1.204601 -0.998161,1.5214 -1.850832,1.5214 -0.6496,0.0021 -1.055846,-0.134442 -1.570012,-0.645159 z"
         inkscape:connector-curvature="0" />
      <path
         style="mix-blend-mode:normal;fill:#8c98a6;fill-opacity:1;stroke-width:0.063862"
         id="path12-6-1-5-9"
         d="m 34.203838,49.586064 c 0,0.219829 -0.155477,0.396743 -0.348592,0.396743 H 29.82499 c -0.193041,0 -0.348546,-0.176914 -0.348546,-0.396743 v -0.03493 c 0,-0.21975 0.155505,-0.396784 0.348546,-0.396784 h 4.030256 c 0.193115,0 0.348592,0.177034 0.348592,0.396784 z"
         inkscape:connector-curvature="0" />
    </g>
  </g>
</svg>
