<?xml version="1.0" encoding="UTF-8" standalone="no"?>
<!-- Created with Inkscape (http://www.inkscape.org/) -->

<svg
   width="64"
   height="64"
   viewBox="0 0 16.933333 16.933333"
   version="1.1"
   id="svg1"
   inkscape:version="1.4.2 (unknown)"
   sodipodi:docname="folder-crash.svg"
   xmlns:inkscape="http://www.inkscape.org/namespaces/inkscape"
   xmlns:sodipodi="http://sodipodi.sourceforge.net/DTD/sodipodi-0.dtd"
   xmlns:xlink="http://www.w3.org/1999/xlink"
   xmlns="http://www.w3.org/2000/svg"
   xmlns:svg="http://www.w3.org/2000/svg">
  <sodipodi:namedview
     id="namedview1"
     pagecolor="#ffffff"
     bordercolor="#000000"
     borderopacity="0.25"
     inkscape:showpageshadow="2"
     inkscape:pageopacity="0.0"
     inkscape:pagecheckerboard="0"
     inkscape:deskcolor="#d1d1d1"
     inkscape:document-units="px"
     inkscape:zoom="9.120116"
     inkscape:cx="31.249603"
     inkscape:cy="41.611313"
     inkscape:current-layer="layer1"
     showgrid="true"
     showguides="false">
    <inkscape:grid
       id="grid1"
       units="px"
       originx="0"
       originy="0"
       spacingx="0.26458333"
       spacingy="0.26458333"
       empcolor="#0099e5"
       empopacity="0.30196078"
       color="#0099e5"
       opacity="0.14901961"
       empspacing="5"
       enabled="true"
       visible="true" />
  </sodipodi:namedview>
  <defs
     id="defs1">
    <linearGradient
       id="linearGradient4"
       inkscape:collect="always">
      <stop
         style="stop-color:#e374ab;stop-opacity:1"
         offset="0"
         id="stop4" />
      <stop
         style="stop-color:#c6afe9;stop-opacity:1"
         offset="0.42100537"
         id="stop6" />
      <stop
         style="stop-color:#f2b6bc;stop-opacity:1"
         offset="1"
         id="stop5" />
    </linearGradient>
    <linearGradient
       inkscape:collect="always"
       xlink:href="#linearGradient4"
       id="linearGradient5"
       x1="6.1912498"
       y1="0.91287524"
       x2="13.334999"
       y2="14.142041"
       gradientUnits="userSpaceOnUse"
       gradientTransform="translate(0.42333307,-0.11912529)" />
  </defs>
  <g
     inkscape:label="Layer 1"
     inkscape:groupmode="layer"
     id="layer1">
    <rect
       x="2.2871437"
       y="0.52850062"
       style="clip-rule:evenodd;opacity:0.2;fill:#000000;fill-opacity:1;fill-rule:evenodd;stroke-width:0.264585"
       width="12.661815"
       height="13.195868"
       id="rect29"
       ry="0.79374999"
       rx="1.1906257" />
    <rect
       x="2.253372"
       y="0.26458335"
       style="clip-rule:evenodd;fill:url(#linearGradient5);fill-rule:evenodd;stroke-width:0.264587"
       width="12.426589"
       height="13.723703"
       id="rect30"
       ry="1.0583333"
       rx="1.1862109" />
    <path
       style="clip-rule:evenodd;opacity:0.2;fill:#000000;fill-opacity:1;fill-rule:evenodd;stroke-width:0.264586"
       d="m 3.1403083,0.5616023 9.3573277,1.2404109 c 0.500171,0.066303 0.96613,0.4009401 0.955781,0.870927 l -0.01625,0.7381328 0.01625,0.7215647 c 0.0039,0.1758939 -0.04649,0.2573225 -0.196997,0.3109292 l -0.335496,0.1195263 c -0.166565,0.05937 -0.252132,0.2077206 -0.252132,0.420295 v 2.4947475 c 0,0.2124755 0.08562,0.3608818 0.252132,0.4202447 l 0.335496,0.1195273 c 0.150506,0.053605 0.180746,0.1349932 0.180746,0.3109288 v 0.7215617 l 0.01625,6.6337588 c 0.0013,0.514902 -0.658166,1.05807 -1.220935,0.976393 L 3.1403083,15.340964 C 2.6410549,15.268505 2.2229842,14.956307 2.2229842,14.486161 V 1.4164584 c 0,-0.47014813 0.4172574,-0.92114478 0.9173241,-0.8548561 z"
       id="path31-3"
       sodipodi:nodetypes="ssscsccssccscssssss" />
    <path
       style="clip-rule:evenodd;fill:#36485c;fill-opacity:1;fill-rule:evenodd;stroke-width:0.264586"
       d="M 2.9016988,0.27109187 12.259021,1.511504 c 0.50017,0.066303 0.96613,0.4009392 0.955781,0.8709263 l -0.01625,0.7381324 0.01625,0.7215652 c 0.0039,0.1758942 -0.0465,0.2573227 -0.196997,0.3109294 l -0.335497,0.1195264 c -0.166565,0.05937 -0.252132,0.2077209 -0.252132,0.4202955 v 2.4947469 c 0,0.2124778 0.08562,0.3608833 0.252132,0.4202466 l 0.335497,0.1195283 c 0.150505,0.053605 0.180746,0.1349924 0.180746,0.3109294 v 0.7215602 l 0.01625,6.8184034 c 0.0011,0.470196 -0.482614,0.858478 -0.955781,0.791752 L 2.9016988,15.050459 C 2.4021543,14.980016 1.9843748,14.665802 1.9843748,14.195656 V 1.1259489 c 0,-0.47014879 0.4172574,-0.92114576 0.917324,-0.85485703 z"
       id="path31-1-3"
       sodipodi:nodetypes="ssscsccssccscssssss" />
    <path
       d="M 10.098472,9.9009767 C 9.9666242,9.58712 9.7720335,9.3046443 9.533532,9.0598463 9.2887166,8.8150366 9.0062527,8.6267069 8.6923847,8.4949199 8.3658977,8.3567772 8.0206923,8.2814582 7.662868,8.2814582 c -0.3578244,0 -0.7030298,0.07532 -1.0294674,0.2134167 C 6.3195326,8.6267169 6.0370761,8.8213046 5.7922541,9.0598023 5.547442,9.3046143 5.3591113,9.587076 5.2273164,9.9009327 5.08917,10.227414 5.0138541,10.572621 5.0138541,10.930454 c 0,0.357833 0.075314,0.70304 0.2134154,1.02947 0.1318443,0.313855 0.3264375,0.596331 0.5649377,0.841129 0.2448121,0.24481 0.5272785,0.43314 0.8411465,0.564927 0.3264376,0.138098 0.6716924,0.207147 1.0294673,0.207147 0.3578244,0 0.7030298,-0.06905 1.0294674,-0.207147 0.313868,-0.131847 0.5963245,-0.32643 0.8411466,-0.564927 0.2448135,-0.244815 0.4331442,-0.527274 0.56494,-0.841129 0.1381,-0.32643 0.207148,-0.671687 0.207148,-1.02947 9.1e-5,-0.357833 -0.06896,-0.70304 -0.207073,-1.0294723 z"
       style="fill:#8c98a6;fill-opacity:1;stroke-width:0.00599175"
       id="path22" />
    <path
       d="m 6.0786865,9.366185 h 0.7937576 v 0.79373 H 6.0786865 Z"
       style="fill:#36485c;fill-opacity:1;stroke-width:0.00550292"
       id="path23" />
    <path
       d="m 5.9796612,11.747442 h 0.793733 v 0.793727 h -0.793733 z"
       style="fill:#36485c;fill-opacity:1;stroke-width:0.00550292"
       id="path25-9" />
    <path
       d="m 8.5861733,11.747442 h 0.7937576 v 0.793727 H 8.5861733 Z"
       style="fill:#36485c;fill-opacity:1;stroke-width:0.00550292"
       id="path26-1" />
    <path
       d="m 6.8264381,11.324522 h 0.8200203 v 0.793726 H 6.8264381 Z"
       style="fill:#36485c;fill-opacity:1;stroke-width:0.00550292"
       id="path27" />
    <path
       d="m 7.6464584,11.324522 h 0.8866711 v 0.793726 H 7.6464584 Z"
       style="fill:#36485c;fill-opacity:1;stroke-width:0.00550292"
       id="path28" />
    <path
       d="m 8.459984,9.366185 h 0.7937577 v 0.79373 H 8.459984 Z"
       style="fill:#36485c;fill-opacity:1;stroke-width:0.00550292"
       id="path29" />
  </g>
</svg>
