<?xml version="1.0" encoding="UTF-8" standalone="no"?>
<!-- Created with Inkscape (http://www.inkscape.org/) -->

<svg
   width="64"
   height="64"
   viewBox="0 0 16.933333 16.933333"
   version="1.1"
   id="svg1"
   inkscape:version="1.4.2 (unknown)"
   sodipodi:docname="folder-projects.svg"
   xmlns:inkscape="http://www.inkscape.org/namespaces/inkscape"
   xmlns:sodipodi="http://sodipodi.sourceforge.net/DTD/sodipodi-0.dtd"
   xmlns:xlink="http://www.w3.org/1999/xlink"
   xmlns="http://www.w3.org/2000/svg"
   xmlns:svg="http://www.w3.org/2000/svg">
  <sodipodi:namedview
     id="namedview1"
     pagecolor="#ffffff"
     bordercolor="#000000"
     borderopacity="0.25"
     inkscape:showpageshadow="2"
     inkscape:pageopacity="0.0"
     inkscape:pagecheckerboard="0"
     inkscape:deskcolor="#d1d1d1"
     inkscape:document-units="px"
     inkscape:zoom="9.120116"
     inkscape:cx="30.64654"
     inkscape:cy="30.756188"
     inkscape:current-layer="layer1"
     showgrid="true"
     showguides="false">
    <inkscape:grid
       id="grid1"
       units="px"
       originx="0"
       originy="0"
       spacingx="0.26458333"
       spacingy="0.26458333"
       empcolor="#0099e5"
       empopacity="0.30196078"
       color="#0099e5"
       opacity="0.14901961"
       empspacing="5"
       enabled="true"
       visible="true" />
  </sodipodi:namedview>
  <defs
     id="defs1">
    <linearGradient
       id="linearGradient4"
       inkscape:collect="always">
      <stop
         style="stop-color:#5fd38d;stop-opacity:1"
         offset="0"
         id="stop4" />
      <stop
         style="stop-color:#aade87;stop-opacity:1"
         offset="0.42100537"
         id="stop6" />
      <stop
         style="stop-color:#bfabe4;stop-opacity:1;"
         offset="1"
         id="stop5" />
    </linearGradient>
    <linearGradient
       inkscape:collect="always"
       xlink:href="#linearGradient4"
       id="linearGradient5"
       x1="5.3975"
       y1="2.2357919"
       x2="13.334999"
       y2="14.142041"
       gradientUnits="userSpaceOnUse"
       gradientTransform="translate(0.42333307,-0.11912529)" />
  </defs>
  <g
     inkscape:label="Layer 1"
     inkscape:groupmode="layer"
     id="layer1">
    <rect
       x="2.2871437"
       y="0.52850062"
       style="clip-rule:evenodd;opacity:0.2;fill:#000000;fill-opacity:1;fill-rule:evenodd;stroke-width:0.264585"
       width="12.661815"
       height="13.195868"
       id="rect29"
       ry="0.79374999"
       rx="1.1906257" />
    <rect
       x="2.253372"
       y="0.26458335"
       style="clip-rule:evenodd;fill:url(#linearGradient5);fill-rule:evenodd;stroke-width:0.264587"
       width="12.426589"
       height="13.723703"
       id="rect30"
       ry="1.0583333"
       rx="1.1862109" />
    <path
       style="clip-rule:evenodd;opacity:0.2;fill:#000000;fill-opacity:1;fill-rule:evenodd;stroke-width:0.264586"
       d="m 3.1403083,0.5616023 9.3573277,1.2404109 c 0.500171,0.066303 0.96613,0.4009401 0.955781,0.870927 l -0.01625,0.7381328 0.01625,0.7215647 c 0.0039,0.1758939 -0.04649,0.2573225 -0.196997,0.3109292 l -0.335496,0.1195263 c -0.166565,0.05937 -0.252132,0.2077206 -0.252132,0.420295 v 2.4947475 c 0,0.2124755 0.08562,0.3608818 0.252132,0.4202447 l 0.335496,0.1195273 c 0.150506,0.053605 0.180746,0.1349932 0.180746,0.3109288 v 0.7215617 l 0.01625,6.6337588 c 0.0013,0.514902 -0.658166,1.05807 -1.220935,0.976393 L 3.1403083,15.340964 C 2.6410549,15.268505 2.2229842,14.956307 2.2229842,14.486161 V 1.4164584 c 0,-0.47014813 0.4172574,-0.92114478 0.9173241,-0.8548561 z"
       id="path31-3"
       sodipodi:nodetypes="ssscsccssccscssssss" />
    <path
       style="clip-rule:evenodd;fill:#36485c;fill-opacity:1;fill-rule:evenodd;stroke-width:0.264586"
       d="M 2.9016988,0.27109187 12.259021,1.511504 c 0.50017,0.066303 0.96613,0.4009392 0.955781,0.8709263 l -0.01625,0.7381324 0.01625,0.7215652 c 0.0039,0.1758942 -0.0465,0.2573227 -0.196997,0.3109294 l -0.335497,0.1195264 c -0.166565,0.05937 -0.252132,0.2077209 -0.252132,0.4202955 v 2.4947469 c 0,0.2124778 0.08562,0.3608833 0.252132,0.4202466 l 0.335497,0.1195283 c 0.150505,0.053605 0.180746,0.1349924 0.180746,0.3109294 v 0.7215602 l 0.01625,6.8184034 c 0.0011,0.470196 -0.482614,0.858478 -0.955781,0.791752 L 2.9016988,15.050459 C 2.4021543,14.980016 1.9843748,14.665802 1.9843748,14.195656 V 1.1259489 c 0,-0.47014879 0.4172574,-0.92114576 0.917324,-0.85485703 z"
       id="path31-1-3"
       sodipodi:nodetypes="ssscsccssccscssssss" />
    <path
       d="M 9.520746,11.485492 C 9.4820624,11.37237 9.4228694,11.26625 9.3433719,11.167143 9.2637301,11.068138 9.1648312,10.980202 9.0465894,10.903372 8.9282856,10.826616 8.7895978,10.765991 8.6304514,10.721465 c -0.063786,-0.01612 -0.1759776,-0.04141 -0.3237522,-0.0758 -0.1056229,-0.02451 -0.2046399,-0.04962 -0.3162595,-0.0752 V 9.3216801 c 0.1116142,0.02831 0.1891589,0.07325 0.2719306,0.1232 C 8.4394636,9.5516544 8.55051,9.7343324 8.5830344,9.9823807 H 9.4409603 C 9.4327932,9.769756 9.3832847,9.5954127 9.2921827,9.4387891 9.1920977,9.2670121 9.0568254,9.1195866 8.8862488,9.0022706 8.7157185,8.8850702 8.5113869,8.7956813 8.2862584,8.7370349 8.1884755,8.7115974 8.1020698,8.6902226 7.990447,8.6758102 V 8.2814582 H 7.1966957 v 0.3917644 c -0.086827,0.012374 -0.1878711,0.028858 -0.2781353,0.0502 C 6.7047196,8.7739966 6.5168734,8.8517915 6.3486585,8.956868 6.1803374,9.062055 6.0466271,9.1944305 5.9442843,9.3540661 5.8419201,9.5137941 5.791594,9.702755 5.791594,9.921039 c 0,0.113214 0.017403,0.224335 0.051502,0.333512 0.034103,0.109159 0.092287,0.212219 0.1741651,0.309234 0.081892,0.09703 0.1921709,0.184957 0.3309796,0.263788 0.1386927,0.07886 0.3064029,0.142494 0.5156404,0.191001 0.1151707,0.02768 0.2335366,0.05352 0.3327554,0.07764 v 1.41254 C 7.0602362,12.474295 6.9251865,12.42138 6.8161784,12.349571 6.7024547,12.274817 6.6169245,12.184759 6.5532752,12.067451 6.4940429,11.958435 6.4655145,11.825 6.4614098,11.683259 H 5.6091666 c 0.00857,0.248055 0.065109,0.466499 0.1695637,0.654046 0.1091217,0.1961 0.2546635,0.353868 0.4366115,0.479092 0.1818491,0.125374 0.3893568,0.216817 0.6349865,0.27747 0.1101538,0.02716 0.2347236,0.04685 0.3463444,0.06176 v 0.417504 h 0.7937595 v -0.407973 c 0.1240242,-0.01267 0.2351132,-0.03175 0.3538056,-0.0576 0.2319358,-0.0505 0.4420821,-0.130355 0.6240373,-0.239485 0.1818423,-0.109162 0.3301629,-0.249567 0.4416579,-0.421478 0.1113738,-0.171759 0.1679937,-0.378976 0.1679937,-0.621516 8.7e-6,-0.113133 -0.018648,-0.226362 -0.057208,-0.339573 z M 7.1966957,10.380411 C 7.0478652,10.336188 6.9001321,10.273062 6.7991914,10.190856 6.6922798,10.103991 6.6420039,9.9837527 6.6420039,9.8300627 c 0,-0.1091513 0.029957,-0.2000913 0.086875,-0.2728783 0.056819,-0.07277 0.1229364,-0.1303763 0.2093507,-0.1728173 0.076658,-0.03766 0.1716507,-0.06573 0.2584658,-0.08431 z m 1.4746732,1.769085 c -0.036455,0.07888 -0.095491,0.148534 -0.1773961,0.209194 -0.081887,0.06069 -0.1952597,0.110174 -0.3271334,0.148556 -0.055823,0.01628 -0.1019956,0.02891 -0.1763997,0.03825 v -1.265164 c 0.1240193,0.03099 0.2254753,0.063 0.3265042,0.09604 0.099983,0.03246 0.1953159,0.0879 0.2795125,0.166734 0.08415,0.07889 0.1278537,0.20115 0.1278537,0.366874 1.26e-5,0.08093 -0.016613,0.160698 -0.052935,0.239534 z"
       id="path25907-1-3"
       style="fill:#8c98a6;fill-opacity:1;stroke-width:0.291041" />
  </g>
</svg>
