<?xml version="1.0" encoding="UTF-8" standalone="no"?>
<!-- Created with Inkscape (http://www.inkscape.org/) -->

<svg
   width="64"
   height="64"
   viewBox="0 0 16.933333 16.933333"
   version="1.1"
   id="svg1"
   inkscape:version="1.4.2 (unknown)"
   sodipodi:docname="folder-deb.svg"
   xmlns:inkscape="http://www.inkscape.org/namespaces/inkscape"
   xmlns:sodipodi="http://sodipodi.sourceforge.net/DTD/sodipodi-0.dtd"
   xmlns:xlink="http://www.w3.org/1999/xlink"
   xmlns="http://www.w3.org/2000/svg"
   xmlns:svg="http://www.w3.org/2000/svg">
  <sodipodi:namedview
     id="namedview1"
     pagecolor="#ffffff"
     bordercolor="#000000"
     borderopacity="0.25"
     inkscape:showpageshadow="2"
     inkscape:pageopacity="0.0"
     inkscape:pagecheckerboard="0"
     inkscape:deskcolor="#d1d1d1"
     inkscape:document-units="px"
     inkscape:zoom="9.120116"
     inkscape:cx="28.398762"
     inkscape:cy="33.387733"
     inkscape:current-layer="layer1"
     showgrid="true"
     showguides="false">
    <inkscape:grid
       id="grid1"
       units="px"
       originx="0"
       originy="0"
       spacingx="0.26458333"
       spacingy="0.26458333"
       empcolor="#0099e5"
       empopacity="0.30196078"
       color="#0099e5"
       opacity="0.14901961"
       empspacing="5"
       enabled="true"
       visible="true" />
  </sodipodi:namedview>
  <defs
     id="defs1">
    <linearGradient
       id="linearGradient4"
       inkscape:collect="always">
      <stop
         style="stop-color:#ff8b8b;stop-opacity:1;"
         offset="0"
         id="stop4" />
      <stop
         style="stop-color:#a783dd;stop-opacity:1;"
         offset="0.42100537"
         id="stop6" />
      <stop
         style="stop-color:#ff5353;stop-opacity:1;"
         offset="1"
         id="stop5" />
    </linearGradient>
    <linearGradient
       inkscape:collect="always"
       xlink:href="#linearGradient4"
       id="linearGradient5"
       x1="2.2225001"
       y1="0.3837086"
       x2="13.334999"
       y2="14.142041"
       gradientUnits="userSpaceOnUse"
       gradientTransform="translate(0.42333307,-0.11912529)" />
  </defs>
  <g
     inkscape:label="Layer 1"
     inkscape:groupmode="layer"
     id="layer1">
    <rect
       x="2.2871437"
       y="0.52850062"
       style="clip-rule:evenodd;opacity:0.2;fill:#000000;fill-opacity:1;fill-rule:evenodd;stroke-width:0.264585"
       width="12.661815"
       height="13.195868"
       id="rect29"
       ry="0.79374999"
       rx="1.1906257" />
    <rect
       x="2.253372"
       y="0.26458335"
       style="clip-rule:evenodd;fill:url(#linearGradient5);fill-rule:evenodd;stroke-width:0.264587"
       width="12.426589"
       height="13.723703"
       id="rect30"
       ry="1.0583333"
       rx="1.1862109" />
    <path
       style="clip-rule:evenodd;opacity:0.2;fill:#000000;fill-opacity:1;fill-rule:evenodd;stroke-width:0.264586"
       d="m 3.1403083,0.5616023 9.3573277,1.2404109 c 0.500171,0.066303 0.96613,0.4009401 0.955781,0.870927 l -0.01625,0.7381328 0.01625,0.7215647 c 0.0039,0.1758939 -0.04649,0.2573225 -0.196997,0.3109292 l -0.335496,0.1195263 c -0.166565,0.05937 -0.252132,0.2077206 -0.252132,0.420295 v 2.4947475 c 0,0.2124755 0.08562,0.3608818 0.252132,0.4202447 l 0.335496,0.1195273 c 0.150506,0.053605 0.180746,0.1349932 0.180746,0.3109288 v 0.7215617 l 0.01625,6.6337588 c 0.0013,0.514902 -0.658166,1.05807 -1.220935,0.976393 L 3.1403083,15.340964 C 2.6410549,15.268505 2.2229842,14.956307 2.2229842,14.486161 V 1.4164584 c 0,-0.47014813 0.4172574,-0.92114478 0.9173241,-0.8548561 z"
       id="path31-3"
       sodipodi:nodetypes="ssscsccssccscssssss" />
    <path
       style="clip-rule:evenodd;fill:#36485c;fill-opacity:1;fill-rule:evenodd;stroke-width:0.264586"
       d="M 2.9016988,0.27109187 12.259021,1.511504 c 0.50017,0.066303 0.96613,0.4009392 0.955781,0.8709263 l -0.01625,0.7381324 0.01625,0.7215652 c 0.0039,0.1758942 -0.0465,0.2573227 -0.196997,0.3109294 l -0.335497,0.1195264 c -0.166565,0.05937 -0.252132,0.2077209 -0.252132,0.4202955 v 2.4947469 c 0,0.2124778 0.08562,0.3608833 0.252132,0.4202466 l 0.335497,0.1195283 c 0.150505,0.053605 0.180746,0.1349924 0.180746,0.3109294 v 0.7215602 l 0.01625,6.8184034 c 0.0011,0.470196 -0.482614,0.858478 -0.955781,0.791752 L 2.9016988,15.050459 C 2.4021543,14.980016 1.9843748,14.665802 1.9843748,14.195656 V 1.1259489 c 0,-0.47014879 0.4172574,-0.92114576 0.917324,-0.85485703 z"
       id="path31-1-3"
       sodipodi:nodetypes="ssscsccssccscssssss" />
    <path
       d="M 8.014469,13.545308 C 7.7319944,13.497236 7.3318188,13.328972 7.0964403,13.172738 6.555025,12.812167 6.2006804,12.411113 5.98166,11.910562 5.911044,11.742309 5.8691372,11.622117 5.7462801,11.189462 c -0.023526,-0.108165 -0.0635,-0.22938 -0.078221,-0.267141 -0.024698,-0.06371 -0.025957,-0.0852 -0.015031,-0.297713 0.01028,-0.192301 0.047071,-0.480727 0.070597,-0.503807 0.00335,-0.0056 0.01188,-0.0071 0.018149,-0.0026 0.022323,0.01325 0.0426,-0.04862 0.062704,-0.19004 0.011215,-0.07753 0.028376,-0.1587621 0.038459,-0.1806001 0.010108,-0.02196 0.027372,-0.07005 0.038182,-0.107108 0.024839,-0.08529 0.059035,-0.1508517 0.1643191,-0.3163157 0.046302,-0.07276 0.094423,-0.1520457 0.1069598,-0.1761237 0.014556,-0.02845 0.03085,-0.04225 0.045621,-0.0394 0.014066,0.0026 0.03774,-0.01558 0.062376,-0.04879 0.1070211,-0.1442587 0.6112092,-0.5699144 0.6578675,-0.5553884 0.012923,0.0038 0.065958,-0.01368 0.1182358,-0.03973 0.094594,-0.04668 0.1362553,-0.05745 0.1362553,-0.03529 0,0.0066 -0.013475,0.02087 -0.030376,0.03227 -0.029345,0.01976 -0.028786,0.02005 0.017024,0.0093 0.026012,-0.0064 0.069764,-0.01474 0.097257,-0.01934 0.034022,-0.0057 0.047816,-0.01375 0.043128,-0.02587 -0.00395,-0.01044 0.00578,-0.02087 0.024114,-0.02569 0.046502,-0.01236 0.1189189,-0.01011 0.1189189,0.0029 0,0.01622 -0.041415,0.03251 -0.074285,0.02933 -0.022569,-0.0027 -0.023348,-1.75e-4 -0.00688,0.0111 0.016962,0.01142 0.017089,0.01358 0.00188,0.01358 -0.010526,8.7e-5 -0.015654,0.0035 -0.011655,0.008 0.004,0.004 0.032417,-0.0047 0.062584,-0.0198 0.030159,-0.01494 0.085454,-0.03385 0.122829,-0.04169 0.046014,-0.0095 0.067946,-0.02085 0.067946,-0.03476 0,-0.01804 0.021475,-0.01913 0.1653954,-0.0119 0.090987,0.0047 0.2282718,0.0186 0.3050812,0.03102 0.1396351,0.02251 0.1396455,0.02251 0.191695,-0.0072 0.062407,-0.0352 0.1628262,-0.03978 0.1892118,-0.0084 0.00952,0.01158 0.036213,0.03018 0.059037,0.04174 0.037225,0.01871 0.039679,0.01876 0.023756,2.78e-4 -0.029909,-0.03531 -2.782e-4,-0.03442 0.1151847,0.0033 0.3720631,0.1221023 0.6753642,0.3395747 0.9004242,0.6455944 0.053372,0.07259 0.056622,0.105213 0.00621,0.06105 l -0.028906,-0.02512 0.022223,0.04235 c 0.012349,0.02356 0.022286,0.04949 0.022286,0.05816 0,0.0085 0.035782,0.07301 0.079524,0.1429017 0.098566,0.157542 0.126119,0.210589 0.119499,0.230051 -0.0026,0.0081 -0.046475,-0.04715 -0.097012,-0.123298 -0.050539,-0.07616 -0.1253245,-0.1787787 -0.1661769,-0.2280157 -0.061017,-0.07356 -0.076995,-0.08614 -0.089442,-0.0704 -0.00818,0.01048 -0.028728,0.02098 -0.045248,0.02343 l -0.030094,0.004 0.029794,0.05718 c 0.016562,0.03146 0.03194,0.0508 0.034594,0.043 0.014095,-0.04176 0.080373,0.01318 0.1104571,0.09169 0.00964,0.02532 0.035684,0.07792 0.057625,0.116552 0.022104,0.03864 0.037148,0.07297 0.033759,0.07626 -0.00315,0.0029 -0.023348,-0.0076 -0.044464,-0.02358 l -0.03833,-0.02953 0.026184,0.04397 c 0.014223,0.02395 0.038436,0.05376 0.053476,0.06574 0.018549,0.01473 0.027787,0.03855 0.028596,0.07524 0.00239,0.06775 0.041168,0.147788 0.062679,0.126693 0.033568,-0.03289 0.04045,-0.01247 0.032023,0.09535 -0.00641,0.07933 -0.00265,0.1315995 0.011941,0.1870985 0.022569,0.08429 0.017751,0.105075 -0.015091,0.06569 -0.020871,-0.025 -0.021109,-0.02491 -0.011881,0.0014 0.019844,0.05574 0.034948,0.139067 0.030795,0.171789 -0.00769,0.06106 -0.031147,0.03568 -0.039181,-0.04252 l -0.00775,-0.07635 -0.00261,0.08122 c -0.00188,0.04468 -0.012111,0.131033 -0.023631,0.191871 -0.012109,0.06147 -0.018178,0.135905 -0.013461,0.167527 0.00797,0.0595 0.00261,0.06181 -0.048345,0.01893 -0.020606,-0.01748 -0.024094,-0.01364 -0.038392,0.03779 -0.012072,0.04343 -0.011952,0.06814 6.282e-4,0.10452 0.00868,0.0262 0.01382,0.06176 0.011632,0.07898 -0.00606,0.03978 -0.038425,0.05218 -0.038425,0.01447 0,-0.04716 -0.018238,-0.03038 -0.074239,0.06809 -0.1510996,0.265845 -0.3901825,0.471618 -0.660746,0.56867 -0.1595409,0.05723 -0.2665253,0.07845 -0.4464291,0.08854 l -0.1620232,0.0089 0.080041,0.02404 c 0.064567,0.01935 0.1024482,0.02252 0.1957672,0.01487 0.1222677,-0.0095 0.2658199,-0.03567 0.330911,-0.05993 0.026015,-0.0095 0.043527,-0.01001 0.052514,-0.0021 0.021257,0.02061 -0.1668683,0.102247 -0.2785033,0.120727 -0.1899632,0.03147 -0.4441888,-0.0027 -0.6686121,-0.08935 -0.1522647,-0.0589 -0.3782254,-0.21234 -0.3435979,-0.233292 0.00661,-0.0038 0.049544,0.01614 0.095534,0.04457 0.058756,0.03642 0.083591,0.04601 0.083591,0.03229 0,-0.02584 0.00851,-0.02458 0.055398,0.0079 0.042163,0.02939 0.1718691,0.08407 0.2652917,0.111758 0.1018175,0.03018 0.062328,-0.0066 -0.074268,-0.06882 -0.4319402,-0.19738 -0.6112534,-0.39475 -0.7006141,-0.771218 -0.032774,-0.138055 0.00265,-0.440708 0.062102,-0.535487 0.015076,-0.02389 0.027624,-0.05356 0.027624,-0.06564 0,-0.05243 0.089233,-0.1909783 0.1807801,-0.2806985 0.161343,-0.1580917 0.3290698,-0.2237317 0.5468102,-0.2139597 0.1052578,0.0046 0.1502136,0.01357 0.2378127,0.04798 0.099345,0.03878 0.2244726,0.119951 0.1861543,0.120781 -0.00879,1.76e-4 -0.048527,-0.01294 -0.087776,-0.02884 -0.059685,-0.02416 -0.097943,-0.02928 -0.2333886,-0.02978 -0.1902169,-0.001 -0.2832031,0.02563 -0.4185884,0.1190607 -0.1919071,0.1323375 -0.2986416,0.2847585 -0.3364404,0.4805085 -0.025284,0.131338 -0.026165,0.167744 -0.00659,0.298027 0.011632,0.07508 0.019344,0.09712 0.033764,0.09176 0.012136,-0.0043 0.018525,0.0026 0.018525,0.01834 0,0.04654 0.1033166,0.235288 0.1749844,0.319663 0.1724469,0.203096 0.4514393,0.332711 0.7161372,0.332711 0.1373946,0 0.2484522,-0.02574 0.3506685,-0.0816 0.041057,-0.02254 0.092871,-0.04976 0.1151546,-0.06083 0.078605,-0.03905 0.1273719,-0.08364 0.1843844,-0.168632 0.031687,-0.04724 0.066169,-0.08589 0.076583,-0.08589 0.01538,0 0.014561,0.0069 -0.00344,0.0364 -0.060254,0.09746 0.08119,-0.07977 0.1544216,-0.193501 l 0.082036,-0.127373 -0.00876,-0.08367 c -0.00837,-0.0804 -0.00745,-0.08531 0.031936,-0.125683 0.037812,-0.0389 0.041194,-0.05041 0.045563,-0.154373 0.00382,-0.09303 0.0019,-0.112356 -0.015562,-0.112458 C 9.399856,10.30164 9.393001,10.277278 9.386478,10.195743 9.377738,10.088037 9.2881,9.7256109 9.2672662,9.7129999 c -0.00642,-0.0037 -0.023584,-0.03866 -0.038775,-0.07744 C 9.1777007,9.5045952 9.0886701,9.3787372 8.9498869,9.2416215 8.750175,9.0443385 8.4986087,8.8919978 8.2609636,8.8244378 c -0.2021309,-0.05745 -0.5453748,-0.0366 -0.7898573,0.048 -0.1193335,0.04128 -0.2368961,0.09595 -0.2567346,0.119372 -0.00877,0.0106 -0.022196,0.01589 -0.028993,0.01189 -0.00746,-0.0042 -0.00535,-0.01639 0.00468,-0.0283 0.045036,-0.05318 -0.1044254,0.04415 -0.2006417,0.1306617 -0.058167,0.0523 -0.1078794,0.09668 -0.110474,0.09863 -0.00261,0.0027 0.00856,8.7e-5 0.025063,-0.004 0.027403,-0.0072 0.028469,-0.0051 0.013479,0.0222 -0.00931,0.01755 -0.058997,0.04869 -0.119671,0.07566 -0.1019264,0.04531 -0.1678675,0.09512 -0.2202584,0.1663597 -0.020926,0.02852 -0.022253,0.03459 -0.00565,0.02842 0.011871,-0.0042 0.021197,-0.0024 0.021197,0.0062 0,0.0378 -0.035008,0.07998 -0.086912,0.1046757 -0.1149688,0.05476 -0.3169766,0.3471525 -0.4251896,0.6155171 -0.048218,0.119582 -0.047426,0.115427 -0.021382,0.115427 0.027728,0 0.025678,0.03077 -0.012449,0.195955 -0.055277,0.240641 -0.055351,0.232932 0.00475,0.571473 0.073365,0.412483 0.1162346,0.550271 0.1977125,0.63565 0.018928,0.01983 0.037711,0.06262 0.045995,0.105431 0.00979,0.05111 0.026563,0.08483 0.057575,0.116941 0.028325,0.02928 0.037779,0.0472 0.026952,0.0511 -0.021456,0.0078 0.045492,0.105303 0.106475,0.155595 0.030678,0.02517 0.053431,0.0338 0.078063,0.02918 0.053977,-0.01001 0.1089408,0.02019 0.1934028,0.107217 0.087778,0.09027 0.096569,0.114533 0.038484,0.106182 -0.037461,-0.0055 -0.038325,-0.0042 -0.019739,0.02346 0.010649,0.01586 0.049725,0.05399 0.086956,0.08473 0.05227,0.0432 0.065735,0.06187 0.059146,0.08212 -0.00928,0.02914 0.017719,0.05633 0.078347,0.07913 0.037747,0.01398 0.049928,0.04463 0.021663,0.05392 -0.00836,0.0026 0.044569,0.05641 0.118148,0.119159 0.082892,0.07067 0.138635,0.109427 0.146601,0.101838 0.021039,-0.01982 0.047866,-0.01364 0.048361,0.01096 6.287e-4,0.02716 0.024254,0.05556 0.1100975,0.131485 0.054169,0.04797 0.067678,0.05402 0.1008757,0.04506 0.030427,-0.0082 0.049565,-0.0026 0.092378,0.02528 0.085427,0.0566 0.1372354,0.07918 0.1816217,0.07918 0.043631,0 0.049849,0.01245 0.027238,0.05381 -0.01217,0.02215 -0.00927,0.02548 0.018178,0.02548 0.017835,0 0.067433,0.01205 0.1106128,0.02647 0.09813,0.0331 0.1390702,0.03534 0.1144926,0.0065 -0.036344,-0.0429 0.00261,-0.03118 0.1320311,0.04017 0.1814268,0.09972 0.2732047,0.11109 0.6344865,0.07875 0.053471,-0.0046 0.070873,-0.0026 0.070873,0.01158 0,0.01172 -0.046416,0.0288 -0.1316453,0.04893 -0.1120369,0.0266 -0.1718386,0.03172 -0.4016744,0.03452 -0.1811051,0.0026 -0.304831,-0.0027 -0.3756395,-0.01453 z M 7.8297799,11.561773 c 0,-0.0027 -0.016868,-0.01491 -0.037142,-0.02727 l -0.037127,-0.02238 0.031867,0.02728 c 0.0311,0.02663 0.042397,0.03249 0.042397,0.02231 z m 1.859001,-1.386686 c -0.00406,-0.01052 -0.00761,-0.0076 -0.00795,0.0079 -9.262e-4,0.01371 0.00265,0.02192 0.00731,0.01755 0.00435,-0.0042 0.00491,-0.01579 0.00129,-0.02521 z M 6.624731,8.7873888 c 0.016938,-0.02092 0.016491,-0.0215 -0.0051,-0.0049 -0.012966,0.0099 -0.023513,0.02026 -0.023513,0.0234 0,0.01088 0.011294,0.0038 0.02873,-0.01824 z M 6.7782694,8.6649831 c 0.013447,-0.01444 0.02151,-0.02647 0.017963,-0.02647 -0.0036,0 -0.017963,0.01209 -0.031201,0.02647 -0.013228,0.01444 -0.021515,0.02646 -0.017805,0.02646 0.0036,0 0.017963,-0.01205 0.031184,-0.02646 z m 0.1699689,-0.093 c 0.044528,-0.01456 0.069818,-0.01755 0.079189,-0.0082 0.00926,0.0091 0.044194,0.0036 0.1090245,-0.01722 0.052382,-0.01706 0.092837,-0.03296 0.089926,-0.03584 -0.00265,-0.0026 -0.046079,0.008 -0.095853,0.02416 -0.068367,0.02251 -0.092977,0.02563 -0.1005817,0.01347 -0.012923,-0.02029 -0.1357377,0.0197 -0.1885616,0.0618 l -0.036096,0.02875 0.038794,-0.02299 c 0.021451,-0.01278 0.068217,-0.03259 0.1041687,-0.04452 z m 0.3892449,-0.03361 c 0.039232,-0.01162 0.06896,-0.02326 0.066137,-0.02575 -0.00654,-0.0064 -0.1459959,0.03304 -0.1459959,0.04099 0,0.008 0.00188,0.0077 0.079858,-0.01498 z m 0.2239087,-0.07211 0.054022,-0.0095 -0.047263,-0.0018 c -0.026015,-0.001 -0.062431,0.0079 -0.080995,0.0189 -0.022005,0.01315 -0.02411,0.01718 -0.00688,0.01084 0.014658,-0.0052 0.051307,-0.01354 0.081012,-0.01882 z m 0.1072404,-0.02488 c 0.00397,-0.0067 -0.00447,-0.0087 -0.019305,-0.0051 -0.031534,0.0081 -0.035543,0.01722 -0.00768,0.01722 0.010782,0 0.022975,-0.0055 0.027073,-0.01222 z m 0.4359456,0.0039 c -0.00435,-0.0042 -0.016216,-0.0047 -0.02587,-0.0014 -0.010828,0.004 -0.00761,0.0075 0.00813,0.008 0.014067,7.28e-4 0.022351,-0.0027 0.017743,-0.0072 z m -0.080724,-0.01421 c -0.012998,-0.0029 -0.034268,-0.0029 -0.047266,0 -0.012996,0.0029 -0.00261,0.0062 0.023563,0.0062 0.026015,0 0.036617,-0.0027 0.023467,-0.0062 z m -0.1346507,-0.01346 c -0.027741,-0.0027 -0.076266,-0.0027 -0.1080403,-8.6e-5 -0.031738,0.0026 -0.00894,0.0051 0.050277,0.0052 0.059424,4.2e-5 0.085399,-0.0026 0.057762,-0.0051 z m -0.1761738,-0.01188 c -0.00435,-0.0042 -0.016218,-0.0047 -0.025869,-0.0014 -0.010827,0.004 -0.00768,0.0076 0.008,0.0079 0.014067,7.273e-4 0.022411,-0.0027 0.017864,-0.0072 z m -0.091403,3.1803099 c -0.1375211,-0.09657 -0.1884729,-0.14652 -0.1884729,-0.184767 0,-0.02009 0.00453,-0.03689 0.010341,-0.03689 0.019262,0 0.249397,0.235204 0.2443504,0.249983 -0.00261,0.0083 -0.030654,-0.0028 -0.066272,-0.02835 z m -0.070764,-0.245176 c -0.071421,-0.07074 -0.094318,-0.108787 -0.065439,-0.108787 0.017558,0 0.1502495,0.149127 0.1502495,0.168602 0,0.009 -0.00239,0.01681 -0.00365,0.01681 -0.00265,0 -0.038529,-0.0344 -0.080996,-0.07644 z m 0.7902979,-0.289556 c -0.037711,-0.01467 -0.014038,-0.04256 0.047258,-0.05544 0.035269,-0.0077 0.091314,-0.02528 0.1245512,-0.04003 0.033249,-0.01444 0.062849,-0.02404 0.065768,-0.02136 0.00269,0.0026 -0.012324,0.03228 -0.033419,0.06534 -0.03853,0.05976 -0.039213,0.06013 -0.1130158,0.05912 -0.040851,-7.26e-4 -0.081859,-0.0038 -0.091145,-0.0078 z m 0.4050519,-0.295987 c -0.036437,-0.01421 -0.037963,-0.03877 -0.00762,-0.121957 0.026163,-0.07146 0.053242,-0.08557 0.038159,-0.01977 -0.00557,0.02365 -0.012696,0.05792 -0.016186,0.07609 l -0.00644,0.03309 0.027045,-0.03011 c 0.016089,-0.01804 0.030741,-0.05965 0.036197,-0.102416 0.00508,-0.03976 0.014413,-0.069 0.021326,-0.06504 0.016869,0.01001 0.014786,0.114749 -0.00265,0.185087 -0.015847,0.06143 -0.029984,0.06861 -0.089552,0.04513 z M 5.5510407,10.589221 c -0.00433,-0.01174 -0.00802,-0.05666 -0.00802,-0.100326 0,-0.05763 0.00444,-0.07791 0.017073,-0.07396 0.019871,0.0067 0.031849,0.195214 0.012398,0.195214 -0.00721,0 -0.016532,-0.0093 -0.020879,-0.02088 z m 3.2482215,-0.309473 c -0.021012,-0.02785 -0.027499,-0.04976 -0.021664,-0.07299 0.012436,-0.04773 0.044185,-0.04095 0.067783,0.01421 0.036671,0.08601 0.00475,0.126356 -0.046289,0.05859 z M 5.548278,10.069736 c -0.00139,-0.07503 -7.4e-6,-0.07736 0.033867,-0.07609 0.02876,0.0014 0.035679,0.0083 0.038979,0.04171 0.0036,0.03744 -0.037829,0.111759 -0.062499,0.111759 -0.00509,0 -0.00967,-0.03485 -0.010321,-0.07738 z M 9.0481638,8.4431291 c 0.00265,-0.1184125 0.022411,-0.1585238 0.03811,-0.07563 0.011274,0.05778 -0.00261,0.1597763 -0.024344,0.1772423 -0.011834,0.0093 -0.015042,-0.01646 -0.013468,-0.101606 z M 7.274026,8.3721982 c 0.00551,-0.01598 0.1916757,-0.09074 0.2260291,-0.09074 0.040378,0 -0.032031,0.04844 -0.1155598,0.07737 -0.093145,0.03219 -0.1179276,0.03517 -0.1104681,0.01339 z"
       id="path7225-4-2-3"
       style="fill:#8c98a6;fill-opacity:1;stroke-width:0.291041" />
  </g>
</svg>
