<?xml version="1.0" encoding="UTF-8" standalone="no"?>
<!-- Created with Inkscape (http://www.inkscape.org/) -->

<svg
   width="64"
   height="64"
   viewBox="0 0 16.933333 16.933333"
   version="1.1"
   id="svg1"
   inkscape:version="1.4.2 (unknown)"
   sodipodi:docname="folder-mac.svg"
   xmlns:inkscape="http://www.inkscape.org/namespaces/inkscape"
   xmlns:sodipodi="http://sodipodi.sourceforge.net/DTD/sodipodi-0.dtd"
   xmlns:xlink="http://www.w3.org/1999/xlink"
   xmlns="http://www.w3.org/2000/svg"
   xmlns:svg="http://www.w3.org/2000/svg">
  <sodipodi:namedview
     id="namedview1"
     pagecolor="#ffffff"
     bordercolor="#000000"
     borderopacity="0.25"
     inkscape:showpageshadow="2"
     inkscape:pageopacity="0.0"
     inkscape:pagecheckerboard="0"
     inkscape:deskcolor="#d1d1d1"
     inkscape:document-units="px"
     inkscape:zoom="9.120116"
     inkscape:cx="31.249603"
     inkscape:cy="39.308711"
     inkscape:current-layer="layer1"
     showgrid="true"
     showguides="false">
    <inkscape:grid
       id="grid1"
       units="px"
       originx="0"
       originy="0"
       spacingx="0.26458333"
       spacingy="0.26458333"
       empcolor="#0099e5"
       empopacity="0.30196078"
       color="#0099e5"
       opacity="0.14901961"
       empspacing="5"
       enabled="true"
       visible="true" />
  </sodipodi:namedview>
  <defs
     id="defs1">
    <linearGradient
       id="linearGradient4"
       inkscape:collect="always">
      <stop
         style="stop-color:#87aade;stop-opacity:1"
         offset="0"
         id="stop4" />
      <stop
         style="stop-color:#b49ddf;stop-opacity:1"
         offset="0.55769229"
         id="stop6" />
      <stop
         style="stop-color:#ffe9a6;stop-opacity:1"
         offset="1"
         id="stop5" />
    </linearGradient>
    <linearGradient
       inkscape:collect="always"
       xlink:href="#linearGradient4"
       id="linearGradient5"
       x1="2.2225001"
       y1="0.3837086"
       x2="13.334999"
       y2="14.142041"
       gradientUnits="userSpaceOnUse"
       gradientTransform="translate(0.42333307,-0.11912529)" />
  </defs>
  <g
     inkscape:label="Layer 1"
     inkscape:groupmode="layer"
     id="layer1">
    <rect
       x="2.2871437"
       y="0.52850062"
       style="clip-rule:evenodd;opacity:0.2;fill:#000000;fill-opacity:1;fill-rule:evenodd;stroke-width:0.264585"
       width="12.661815"
       height="13.195868"
       id="rect29"
       ry="0.79374999"
       rx="1.1906257" />
    <rect
       x="2.253372"
       y="0.26458335"
       style="clip-rule:evenodd;fill:url(#linearGradient5);fill-rule:evenodd;stroke-width:0.264587"
       width="12.426589"
       height="13.723703"
       id="rect30"
       ry="1.0583333"
       rx="1.1862109" />
    <path
       style="clip-rule:evenodd;opacity:0.2;fill:#000000;fill-opacity:1;fill-rule:evenodd;stroke-width:0.264586"
       d="m 3.1403083,0.5616023 9.3573277,1.2404109 c 0.500171,0.066303 0.96613,0.4009401 0.955781,0.870927 l -0.01625,0.7381328 0.01625,0.7215647 c 0.0039,0.1758939 -0.04649,0.2573225 -0.196997,0.3109292 l -0.335496,0.1195263 c -0.166565,0.05937 -0.252132,0.2077206 -0.252132,0.420295 v 2.4947475 c 0,0.2124755 0.08562,0.3608818 0.252132,0.4202447 l 0.335496,0.1195273 c 0.150506,0.053605 0.180746,0.1349932 0.180746,0.3109288 v 0.7215617 l 0.01625,6.6337588 c 0.0013,0.514902 -0.658166,1.05807 -1.220935,0.976393 L 3.1403083,15.340964 C 2.6410549,15.268505 2.2229842,14.956307 2.2229842,14.486161 V 1.4164584 c 0,-0.47014813 0.4172574,-0.92114478 0.9173241,-0.8548561 z"
       id="path31-3"
       sodipodi:nodetypes="ssscsccssccscssssss" />
    <path
       style="clip-rule:evenodd;fill:#36485c;fill-opacity:1;fill-rule:evenodd;stroke-width:0.264586"
       d="M 2.9016988,0.27109187 12.259021,1.511504 c 0.50017,0.066303 0.96613,0.4009392 0.955781,0.8709263 l -0.01625,0.7381324 0.01625,0.7215652 c 0.0039,0.1758942 -0.0465,0.2573227 -0.196997,0.3109294 l -0.335497,0.1195264 c -0.166565,0.05937 -0.252132,0.2077209 -0.252132,0.4202955 v 2.4947469 c 0,0.2124778 0.08562,0.3608833 0.252132,0.4202466 l 0.335497,0.1195283 c 0.150505,0.053605 0.180746,0.1349924 0.180746,0.3109294 v 0.7215602 l 0.01625,6.8184034 c 0.0011,0.470196 -0.482614,0.858478 -0.955781,0.791752 L 2.9016988,15.050459 C 2.4021543,14.980016 1.9843748,14.665802 1.9843748,14.195656 V 1.1259489 c 0,-0.47014879 0.4172574,-0.92114576 0.917324,-0.85485703 z"
       id="path31-1-3"
       sodipodi:nodetypes="ssscsccssccscssssss" />
    <path
       d="M 9.0830517,11.092651 C 9.0763417,10.431186 9.6369474,10.100466 9.6617437,10.100466 9.3467628,9.6374472 8.8561993,9.5713042 8.6816201,9.5713042 c -0.4175145,-0.06617 -0.8149256,0.231504 -1.0266994,0.231504 -0.2111028,0 -0.5381439,-0.231504 -0.8846244,-0.231504 -0.4550418,0 -0.8745686,0.264582 -1.1091296,0.6614528 -0.4721345,0.826816 -0.1202925,2.017441 0.340113,2.678903 0.2255113,0.297657 0.4939135,0.661461 0.8464228,0.661461 0.3394403,0 0.4677793,-0.231518 0.8782556,-0.231518 0.4104769,0 0.5260846,0.231518 0.8852938,0.231518 0.3652418,0 0.5967867,-0.330741 0.8202868,-0.661461 0.2583543,-0.363802 0.3649157,-0.727604 0.3712807,-0.760681 -0.0085,0 -0.7123973,-0.264581 -0.7194323,-1.058328 z M 8.4078567,9.1413538 C 8.5951683,8.9098419 8.7214953,8.5791192 8.6869794,8.2814582 c -0.2694065,0 -0.5964479,0.165361 -0.789791,0.396879 -0.1732404,0.1984314 -0.3250345,0.5291656 -0.2848249,0.8268173 0.3012406,0.03306 0.6081794,-0.16537 0.7954932,-0.3638007 z"
       style="color:#dedede;fill:#8c98a6;fill-opacity:1;stroke-width:0.291042"
       class="ColorScheme-Text"
       id="path1-3-3" />
  </g>
</svg>
