<?xml version="1.0" encoding="UTF-8" standalone="no"?>
<!-- Created with Inkscape (http://www.inkscape.org/) -->

<svg
   width="64"
   height="64"
   viewBox="0 0 16.933333 16.933333"
   version="1.1"
   id="svg1"
   inkscape:version="1.4.2 (unknown)"
   sodipodi:docname="folder-games.svg"
   xmlns:inkscape="http://www.inkscape.org/namespaces/inkscape"
   xmlns:sodipodi="http://sodipodi.sourceforge.net/DTD/sodipodi-0.dtd"
   xmlns:xlink="http://www.w3.org/1999/xlink"
   xmlns="http://www.w3.org/2000/svg"
   xmlns:svg="http://www.w3.org/2000/svg">
  <sodipodi:namedview
     id="namedview1"
     pagecolor="#ffffff"
     bordercolor="#000000"
     borderopacity="0.25"
     inkscape:showpageshadow="2"
     inkscape:pageopacity="0.0"
     inkscape:pagecheckerboard="0"
     inkscape:deskcolor="#d1d1d1"
     inkscape:document-units="px"
     inkscape:zoom="9.120116"
     inkscape:cx="27.082989"
     inkscape:cy="32.07196"
     inkscape:current-layer="layer1"
     showgrid="true"
     showguides="false">
    <inkscape:grid
       id="grid1"
       units="px"
       originx="0"
       originy="0"
       spacingx="0.26458333"
       spacingy="0.26458333"
       empcolor="#0099e5"
       empopacity="0.30196078"
       color="#0099e5"
       opacity="0.14901961"
       empspacing="5"
       enabled="true"
       visible="true" />
  </sodipodi:namedview>
  <defs
     id="defs1">
    <linearGradient
       id="linearGradient4"
       inkscape:collect="always">
      <stop
         style="stop-color:#5599ff;stop-opacity:1"
         offset="0"
         id="stop4" />
      <stop
         style="stop-color:#ffe9a6;stop-opacity:1"
         offset="0.55769229"
         id="stop6" />
      <stop
         style="stop-color:#ffaaee;stop-opacity:1"
         offset="1"
         id="stop5" />
    </linearGradient>
    <linearGradient
       inkscape:collect="always"
       xlink:href="#linearGradient4"
       id="linearGradient5"
       x1="2.2225001"
       y1="0.3837086"
       x2="13.334999"
       y2="14.142041"
       gradientUnits="userSpaceOnUse"
       gradientTransform="translate(0.42333307,-0.11912529)" />
  </defs>
  <g
     inkscape:label="Layer 1"
     inkscape:groupmode="layer"
     id="layer1">
    <rect
       x="2.2871437"
       y="0.52850062"
       style="clip-rule:evenodd;opacity:0.2;fill:#000000;fill-opacity:1;fill-rule:evenodd;stroke-width:0.264585"
       width="12.661815"
       height="13.195868"
       id="rect29"
       ry="0.79374999"
       rx="1.1906257" />
    <rect
       x="2.253372"
       y="0.26458335"
       style="clip-rule:evenodd;fill:url(#linearGradient5);fill-rule:evenodd;stroke-width:0.264587"
       width="12.426589"
       height="13.723703"
       id="rect30"
       ry="1.0583333"
       rx="1.1862109" />
    <path
       style="clip-rule:evenodd;opacity:0.2;fill:#000000;fill-opacity:1;fill-rule:evenodd;stroke-width:0.264586"
       d="m 3.1403083,0.5616023 9.3573277,1.2404109 c 0.500171,0.066303 0.96613,0.4009401 0.955781,0.870927 l -0.01625,0.7381328 0.01625,0.7215647 c 0.0039,0.1758939 -0.04649,0.2573225 -0.196997,0.3109292 l -0.335496,0.1195263 c -0.166565,0.05937 -0.252132,0.2077206 -0.252132,0.420295 v 2.4947475 c 0,0.2124755 0.08562,0.3608818 0.252132,0.4202447 l 0.335496,0.1195273 c 0.150506,0.053605 0.180746,0.1349932 0.180746,0.3109288 v 0.7215617 l 0.01625,6.6337588 c 0.0013,0.514902 -0.658166,1.05807 -1.220935,0.976393 L 3.1403083,15.340964 C 2.6410549,15.268505 2.2229842,14.956307 2.2229842,14.486161 V 1.4164584 c 0,-0.47014813 0.4172574,-0.92114478 0.9173241,-0.8548561 z"
       id="path31-3"
       sodipodi:nodetypes="ssscsccssccscssssss" />
    <path
       style="clip-rule:evenodd;fill:#36485c;fill-opacity:1;fill-rule:evenodd;stroke-width:0.264586"
       d="M 2.9016988,0.27109187 12.259021,1.511504 c 0.50017,0.066303 0.96613,0.4009392 0.955781,0.8709263 l -0.01625,0.7381324 0.01625,0.7215652 c 0.0039,0.1758942 -0.0465,0.2573227 -0.196997,0.3109294 l -0.335497,0.1195264 c -0.166565,0.05937 -0.252132,0.2077209 -0.252132,0.4202955 v 2.4947469 c 0,0.2124778 0.08562,0.3608833 0.252132,0.4202466 l 0.335497,0.1195283 c 0.150505,0.053605 0.180746,0.1349924 0.180746,0.3109294 v 0.7215602 l 0.01625,6.8184034 c 0.0011,0.470196 -0.482614,0.858478 -0.955781,0.791752 L 2.9016988,15.050459 C 2.4021543,14.980016 1.9843748,14.665802 1.9843748,14.195656 V 1.1259489 c 0,-0.47014879 0.4172574,-0.92114576 0.917324,-0.85485703 z"
       id="path31-1-3"
       sodipodi:nodetypes="ssscsccssccscssssss" />
    <path
       fill-rule="evenodd"
       d="M 6.9775293,11.03778 6.7738729,11.240209 V 10.839105 Z M 10.082348,9.4605329 h 0.0151 a 0.14142799,0.14057473 0 0 1 0.107488,0.05062 c 0.634543,0.6532051 0.971143,2.0711361 0.897595,3.0214191 a 1.8857066,1.8743298 0 0 1 -0.158396,0.667261 c -0.09709,0.199617 -0.237603,0.329887 -0.426171,0.364556 -0.239483,0.04405 -0.5383704,-0.08153 -0.8985422,-0.445153 L 9.4751483,12.976774 A 4.1485541,4.1235251 0 0 1 8.9810925,12.43135 h -2.615475 a 4.0542689,4.0298088 0 0 1 -0.4949976,0.547299 q -0.073542,0.07029 -0.1433137,0.140574 c -0.3592274,0.364556 -0.6599973,0.49014 -0.8985393,0.445153 -0.1885704,-0.0328 -0.329999,-0.165874 -0.4271125,-0.362679 A 1.8857066,1.8743298 0 0 1 4.2432551,12.533499 c -0.073542,-0.95497 0.2649418,-2.381338 0.9089105,-3.0298585 a 0.14142799,0.14057473 0 0 1 0.099943,-0.04217 h 0.015085 c 0.3969414,-0.5426173 1.2879376,-0.5482423 1.6848785,0 h 0.443142 C 7.3603288,8.6292646 7.5932133,8.4212133 7.9364117,8.3977833 a 1.8857066,1.8743298 0 0 1 0.3912843,0.03561 c 0.2602276,0.04309 0.5487405,0.08996 0.7533397,-0.110586 a 0.13859941,0.13776322 0 0 1 0.1979994,0 0.14142799,0.14057473 0 0 1 0,0.1968043 c -0.3064275,0.303651 -0.6722545,0.243671 -0.9965958,0.190251 a 1.6028505,1.5931802 0 0 0 -0.3299987,-0.03279 c -0.1847992,0.01219 -0.3083128,0.166816 -0.2800275,0.7853403 h 0.7231684 c 0.3959982,-0.5444853 1.2879402,-0.5463643 1.6839395,0 z M 6.427846,10.337722 v 0.371115 h 0.372427 c 0.4223983,0 0.4223983,0.634463 0,0.634463 H 6.427846 v 0.37018 c 0,0.41985 -0.6383116,0.41985 -0.6383116,0 V 11.3433 H 5.4171073 c -0.4223981,0 -0.4223981,-0.634463 0,-0.634463 h 0.3724271 v -0.371115 c 0,-0.4189184 0.6383116,-0.4189184 0.6383116,0 m 2.915302,-0.322384 a 0.2941702,0.29239543 0 1 1 -0.416741,0 0.2922845,0.2905211 0 0 1 0.416741,0 m 0,1.276418 a 0.2941702,0.29239543 0 1 1 -0.416741,0 0.2922845,0.2905211 0 0 1 0.416741,0 m 0.707146,-0.667261 a 0.2941702,0.29239543 0 1 1 -0.4167449,0 0.29511307,0.2933326 0 0 1 0.4157989,0 z m -1.4142858,0 a 0.2941702,0.29239543 0 1 1 -0.4167411,0 0.2922845,0.2905211 0 0 1 0.4167411,0 m -2.5193037,-0.438593 0.203656,0.201487 H 5.9158768 l 0.2036559,-0.201487 z m -0.8532823,0.852821 0.2017708,0.201486 v -0.401104 l -0.2027137,0.201486 z m 0.8561105,0.850008 0.2027137,-0.20243 H 5.9168197 Z"
       class="cls-1"
       opacity="0.15"
       id="path7"
       style="opacity:1;fill:#8c98a6;fill-opacity:1;stroke-width:1.00002" />
  </g>
</svg>
