<?xml version="1.0" encoding="UTF-8" standalone="no"?>
<!-- Created with Inkscape (http://www.inkscape.org/) -->

<svg
   width="64"
   height="64"
   viewBox="0 0 16.933333 16.933333"
   version="1.1"
   id="svg1"
   inkscape:version="1.4.2 (unknown)"
   sodipodi:docname="folder-sign.svg"
   xmlns:inkscape="http://www.inkscape.org/namespaces/inkscape"
   xmlns:sodipodi="http://sodipodi.sourceforge.net/DTD/sodipodi-0.dtd"
   xmlns:xlink="http://www.w3.org/1999/xlink"
   xmlns="http://www.w3.org/2000/svg"
   xmlns:svg="http://www.w3.org/2000/svg">
  <sodipodi:namedview
     id="namedview1"
     pagecolor="#ffffff"
     bordercolor="#000000"
     borderopacity="0.25"
     inkscape:showpageshadow="2"
     inkscape:pageopacity="0.0"
     inkscape:pagecheckerboard="0"
     inkscape:deskcolor="#d1d1d1"
     inkscape:document-units="px"
     inkscape:zoom="9.120116"
     inkscape:cx="31.63337"
     inkscape:cy="39.308711"
     inkscape:current-layer="layer1"
     showgrid="true"
     showguides="false">
    <inkscape:grid
       id="grid1"
       units="px"
       originx="0"
       originy="0"
       spacingx="0.26458333"
       spacingy="0.26458333"
       empcolor="#0099e5"
       empopacity="0.30196078"
       color="#0099e5"
       opacity="0.14901961"
       empspacing="5"
       enabled="true"
       visible="true" />
  </sodipodi:namedview>
  <defs
     id="defs1">
    <linearGradient
       id="linearGradient4"
       inkscape:collect="always">
      <stop
         style="stop-color:#c6afe9;stop-opacity:1"
         offset="0"
         id="stop4" />
      <stop
         style="stop-color:#ffeeaa;stop-opacity:1"
         offset="0.42100537"
         id="stop6" />
      <stop
         style="stop-color:#5599ff;stop-opacity:1"
         offset="1"
         id="stop5" />
    </linearGradient>
    <linearGradient
       inkscape:collect="always"
       xlink:href="#linearGradient4"
       id="linearGradient5"
       x1="6.7204165"
       y1="1.9712086"
       x2="13.334999"
       y2="14.142041"
       gradientUnits="userSpaceOnUse"
       gradientTransform="translate(0.42333307,-0.11912529)" />
  </defs>
  <g
     inkscape:label="Layer 1"
     inkscape:groupmode="layer"
     id="layer1">
    <rect
       x="2.2871437"
       y="0.52850062"
       style="clip-rule:evenodd;opacity:0.2;fill:#000000;fill-opacity:1;fill-rule:evenodd;stroke-width:0.264585"
       width="12.661815"
       height="13.195868"
       id="rect29"
       ry="0.79374999"
       rx="1.1906257" />
    <rect
       x="2.253372"
       y="0.26458335"
       style="clip-rule:evenodd;fill:url(#linearGradient5);fill-rule:evenodd;stroke-width:0.264587"
       width="12.426589"
       height="13.723703"
       id="rect30"
       ry="1.0583333"
       rx="1.1862109" />
    <path
       style="clip-rule:evenodd;opacity:0.2;fill:#000000;fill-opacity:1;fill-rule:evenodd;stroke-width:0.264586"
       d="m 3.1403083,0.5616023 9.3573277,1.2404109 c 0.500171,0.066303 0.96613,0.4009401 0.955781,0.870927 l -0.01625,0.7381328 0.01625,0.7215647 c 0.0039,0.1758939 -0.04649,0.2573225 -0.196997,0.3109292 l -0.335496,0.1195263 c -0.166565,0.05937 -0.252132,0.2077206 -0.252132,0.420295 v 2.4947475 c 0,0.2124755 0.08562,0.3608818 0.252132,0.4202447 l 0.335496,0.1195273 c 0.150506,0.053605 0.180746,0.1349932 0.180746,0.3109288 v 0.7215617 l 0.01625,6.6337588 c 0.0013,0.514902 -0.658166,1.05807 -1.220935,0.976393 L 3.1403083,15.340964 C 2.6410549,15.268505 2.2229842,14.956307 2.2229842,14.486161 V 1.4164584 c 0,-0.47014813 0.4172574,-0.92114478 0.9173241,-0.8548561 z"
       id="path31-3"
       sodipodi:nodetypes="ssscsccssccscssssss" />
    <path
       style="clip-rule:evenodd;fill:#36485c;fill-opacity:1;fill-rule:evenodd;stroke-width:0.264586"
       d="M 2.9016988,0.27109187 12.259021,1.511504 c 0.50017,0.066303 0.96613,0.4009392 0.955781,0.8709263 l -0.01625,0.7381324 0.01625,0.7215652 c 0.0039,0.1758942 -0.0465,0.2573227 -0.196997,0.3109294 l -0.335497,0.1195264 c -0.166565,0.05937 -0.252132,0.2077209 -0.252132,0.4202955 v 2.4947469 c 0,0.2124778 0.08562,0.3608833 0.252132,0.4202466 l 0.335497,0.1195283 c 0.150505,0.053605 0.180746,0.1349924 0.180746,0.3109294 v 0.7215602 l 0.01625,6.8184034 c 0.0011,0.470196 -0.482614,0.858478 -0.955781,0.791752 L 2.9016988,15.050459 C 2.4021543,14.980016 1.9843748,14.665802 1.9843748,14.195656 V 1.1259489 c 0,-0.47014879 0.4172574,-0.92114576 0.917324,-0.85485703 z"
       id="path31-1-3"
       sodipodi:nodetypes="ssscsccssccscssssss" />
    <path
       d="m 9.6579658,8.2824675 c -0.02408,-0.0031 -0.04945,9.24e-4 -0.07434,0.01231 -0.01354,0.0062 -0.0749,0.06453 -0.136141,0.128197 l -0.1116515,0.116892 -0.03208,-0.02781 c -0.04511,-0.03763 -0.091442,-0.05013 -0.1378046,-0.03557 -0.032026,0.01049 -0.1141119,0.09259 -0.6548308,0.652772 -0.3411968,0.353066 -0.6192275,0.6451634 -0.6191068,0.6501904 2.793e-4,0.0037 0.1089285,0.1106504 0.2410933,0.2351911 L 8.3747179,10.242533 8.7779793,9.8239977 C 8.9998975,9.5937758 9.1838625,9.4079405 9.1873528,9.4112225 c 0.011527,0.01081 0.010323,0.2116116 -0.00178,0.2748625 -0.0068,0.03441 -0.026285,0.09562 -0.045052,0.1354697 -0.033173,0.07137 -0.036212,0.07542 -0.5363477,0.5958903 -0.2765963,0.287733 -0.507529,0.532626 -0.512346,0.542811 -0.013456,0.02803 -0.00815,0.08408 0.00993,0.117965 0.03112,0.05727 0.1216331,0.08465 0.1786017,0.0532 0.039381,-0.02191 1.0310002,-1.061319 1.0652938,-1.117553 0.09966,-0.160198 0.1419262,-0.3752766 0.1169832,-0.5947045 -0.0097,-0.08709 -0.02613,-0.171553 -0.04459,-0.232415 -0.0059,-0.01639 0.0088,-0.03555 0.1019323,-0.132503 0.08774,-0.09268 0.108474,-0.119306 0.112968,-0.145374 0.0096,-0.05567 -0.0038,-0.08879 -0.05444,-0.137983 l -0.04698,-0.04594 0.119012,-0.124474 c 0.09765,-0.103014 0.1193914,-0.13039 0.1238304,-0.156554 0.01358,-0.08347 -0.04438,-0.152489 -0.1163424,-0.161695 z M 7.7014492,9.9730152 c -0.00265,1.94e-4 -0.3661367,0.3764268 -0.8082938,0.8351538 -0.7113293,0.738782 -0.8130259,0.848572 -0.8820046,0.945044 -0.1370471,0.192134 -0.2968749,0.490827 -0.4123044,0.76725 -0.074621,0.177247 -0.075271,0.160338 0.0031,0.129953 0.2413773,-0.09464 0.5612174,-0.256777 0.750924,-0.381305 0.1855204,-0.12189 0.2185173,-0.154548 1.0449024,-1.011881 L 8.192618,10.431648 7.9491313,10.202243 C 7.8152275,10.076085 7.7041085,9.9729772 7.7015441,9.9730362 Z M 7.5294047,12.079881 c -0.033449,-0.0059 -0.068376,-0.0084 -0.091457,-0.0066 l -6.36e-5,6.29e-4 c -0.1094456,0.009 -0.2392237,0.08746 -0.3091952,0.186086 -0.018487,0.02566 -0.050752,0.08466 -0.071604,0.129672 -0.019733,0.04597 -0.038239,0.08405 -0.039395,0.08491 -0.00947,0.0082 -0.2194625,0.03385 -0.3419403,0.04019 -0.2879874,0.01587 -0.3672332,0.02508 -0.3979425,0.04722 -0.060246,0.04336 -0.024288,0.09817 0.055637,0.08492 0.021033,-0.0036 0.1104849,-0.01133 0.1962737,-0.01516 0.085931,-0.0037 0.2172638,-0.01585 0.2919386,-0.02354 0.075005,-0.0081 0.1380328,-0.01294 0.1407525,-0.0086 0.00259,0.0029 -0.016045,0.05981 -0.043849,0.125465 l -0.049443,0.117801 -0.081211,0.02447 c -0.044345,0.01361 -0.1084481,0.0377 -0.1428142,0.05544 -0.1039707,0.05167 -0.1319899,0.128489 -0.070241,0.18707 0.033708,0.0317 0.1364515,0.04256 0.2033895,0.02214 0.059412,-0.01867 0.09537,-0.05043 0.1505552,-0.137628 0.029335,-0.04504 0.050809,-0.06803 0.06544,-0.0695 0.011931,-0.0016 0.1160517,-0.01068 0.2316404,-0.02037 0.1156446,-0.0084 0.2207172,-0.01857 0.2343197,-0.02009 0.021962,-0.0023 0.024128,-2.95e-4 0.01576,0.01827 -0.00547,0.01211 -0.028584,0.04529 -0.051759,0.07437 -0.023077,0.02929 -0.043113,0.0647 -0.044912,0.07993 -0.00376,0.03149 0.019356,0.06607 0.041853,0.06038 0.0085,-0.0019 0.019989,-0.0036 0.025266,-0.0031 0.00487,6.64e-4 0.029805,-0.01307 0.054734,-0.03057 0.046597,-0.03258 0.17009,-0.204634 0.1746758,-0.243216 0.00227,-0.01918 0.018049,-0.02234 0.025511,-0.0052 0.00259,0.0048 0.024748,0.01721 0.049681,0.0261 0.034881,0.01324 0.04446,0.02142 0.042537,0.03765 -0.00376,0.03149 0.043289,0.0835 0.088496,0.09785 0.035181,0.01107 0.082327,0.0072 0.133847,-0.0052 0.018555,-0.0048 0.019281,-0.0023 0.010112,0.02253 -0.00589,0.01586 -0.04211,0.06415 -0.079606,0.108194 -0.079577,0.09159 -0.1804252,0.240198 -0.2102598,0.307722 -0.024747,0.05781 -0.022486,0.103446 0.00639,0.128355 0.026536,0.02184 0.074707,0.01837 0.1024352,-0.0046 0.024123,-0.02084 0.1705247,-0.251493 0.2267843,-0.357975 0.04007,-0.07456 0.056875,-0.09428 0.1353975,-0.159278 0.064568,-0.05318 0.085009,-0.06526 0.069855,-0.04342 -0.025535,0.04141 -0.028557,0.07473 -0.00865,0.09765 0.042985,0.04936 0.1178015,0.01538 0.1916148,-0.08776 0.04366,-0.06066 0.072691,-0.07667 0.2135365,-0.123224 l 0.073265,-0.02348 -0.011715,0.03659 c -0.00623,0.01966 -0.037121,0.07499 -0.067588,0.121746 -0.060257,0.09475 -0.07683,0.157708 -0.054593,0.215804 0.014816,0.03984 0.035293,0.04351 0.1335721,0.02222 0.1365751,-0.0283 0.3199371,-0.109094 0.3713518,-0.161661 0.070189,-0.07419 0.098048,-0.150028 0.064383,-0.180686 -0.034757,-0.03179 -0.057575,-0.02327 -0.1142148,0.04127 -0.07602,0.08786 -0.1647885,0.152752 -0.2463226,0.181347 -0.038149,0.01423 -0.071377,0.02234 -0.074115,0.01889 -0.00349,-0.0039 0.1043032,-0.213149 0.1605234,-0.310525 0.011607,-0.02003 0.022635,-0.04576 0.023985,-0.0567 0.00346,-0.02836 -0.028826,-0.065 -0.059604,-0.0685 -0.01417,-0.0016 -0.08563,0.01767 -0.1575057,0.0442 -0.1488794,0.05254 -0.1402586,0.0598 -0.088875,-0.06593 0.030904,-0.07763 0.026214,-0.09983 -0.02228,-0.11065 -0.046687,-0.01082 -0.066853,0.0023 -0.1190708,0.07366 -0.033851,0.04843 -0.075763,0.08693 -0.1543307,0.143603 -0.1034962,0.07424 -0.108048,0.0767 -0.1279225,0.05917 -0.030063,-0.02731 -0.048998,-0.02602 -0.1336361,0.0036 -0.082664,0.02952 -0.1090289,0.03162 -0.1256606,0.0052 -0.014202,-0.02119 0.012733,-0.02829 0.1589024,-0.03903 0.1417521,-0.01057 0.1598701,-0.01558 0.1632437,-0.04392 0.00549,-0.04577 -0.027447,-0.09361 -0.091736,-0.130886 -0.1109653,-0.06541 -0.1235974,-0.0701 -0.1763988,-0.06304 -0.057047,0.0068 -0.1485934,0.07622 -0.16558,0.123762 -0.017608,0.04951 -0.050568,0.03008 -0.04396,-0.02559 0.00263,-0.02348 -0.019111,-0.08551 -0.034393,-0.09763 -0.032124,-0.02753 -0.094468,0.01679 -0.1487084,0.105233 l -0.042503,0.06809 -0.07783,0.0067 c -0.1010604,0.0087 -0.3941756,0.03312 -0.433067,0.03598 -0.025055,0.0012 -0.028983,-7.26e-4 -0.022145,-0.01529 0.00513,-0.0085 0.022757,-0.05257 0.040458,-0.09688 0.046752,-0.122088 0.058162,-0.137426 0.1061538,-0.148195 0.057652,-0.01264 0.2541247,-0.07022 0.3051587,-0.08893 0.02401,-0.008 0.073997,-0.03763 0.1114974,-0.06407 0.1150159,-0.08334 0.1417968,-0.169772 0.075556,-0.243318 -0.018244,-0.01981 -0.043041,-0.04093 -0.05464,-0.04752 -0.018142,-0.0087 -0.05011,-0.01824 -0.083659,-0.02368 z m -0.1175564,0.106454 c 0.014225,3.96e-4 0.031161,0.0028 0.052218,0.0069 0.05401,0.0084 0.075081,0.01702 0.088462,0.03475 0.017939,0.02239 0.017768,0.02346 -0.00433,0.06009 -0.015488,0.02286 -0.047263,0.0481 -0.086107,0.06835 -0.067666,0.03542 -0.27319,0.09044 -0.277685,0.07567 -0.00542,-0.02433 0.073952,-0.156099 0.1193452,-0.196145 0.045321,-0.04018 0.065747,-0.05249 0.1087923,-0.04993 z m -0.6280289,0.78818 c 0.00795,0.0018 0.00728,0.0076 -2.293e-4,0.01993 -0.016664,0.02376 -0.053612,0.038 -0.072196,0.02853 -0.021554,-0.01197 -0.013967,-0.02288 0.024048,-0.03731 0.025173,-0.0084 0.041299,-0.01322 0.049069,-0.01203 z"
       class="ColorScheme-Text"
       id="path14466-5-6-3"
       style="fill:#8c98a6;fill-opacity:1;stroke-width:0.291046" />
  </g>
</svg>
