<?xml version="1.0" encoding="UTF-8" standalone="no"?>
<!-- Created with Inkscape (http://www.inkscape.org/) -->

<svg
   width="64"
   height="64"
   viewBox="0 0 16.933333 16.933333"
   version="1.1"
   id="svg1"
   inkscape:version="1.4.2 (unknown)"
   sodipodi:docname="folder-openSUSE.svg"
   xmlns:inkscape="http://www.inkscape.org/namespaces/inkscape"
   xmlns:sodipodi="http://sodipodi.sourceforge.net/DTD/sodipodi-0.dtd"
   xmlns:xlink="http://www.w3.org/1999/xlink"
   xmlns="http://www.w3.org/2000/svg"
   xmlns:svg="http://www.w3.org/2000/svg">
  <sodipodi:namedview
     id="namedview1"
     pagecolor="#ffffff"
     bordercolor="#000000"
     borderopacity="0.25"
     inkscape:showpageshadow="2"
     inkscape:pageopacity="0.0"
     inkscape:pagecheckerboard="0"
     inkscape:deskcolor="#d1d1d1"
     inkscape:document-units="px"
     inkscape:zoom="9.120116"
     inkscape:cx="31.304426"
     inkscape:cy="30.098301"
     inkscape:current-layer="layer1"
     showgrid="true"
     showguides="false">
    <inkscape:grid
       id="grid1"
       units="px"
       originx="0"
       originy="0"
       spacingx="0.26458333"
       spacingy="0.26458333"
       empcolor="#0099e5"
       empopacity="0.30196078"
       color="#0099e5"
       opacity="0.14901961"
       empspacing="5"
       enabled="true"
       visible="true" />
  </sodipodi:namedview>
  <defs
     id="defs1">
    <linearGradient
       id="linearGradient4"
       inkscape:collect="always">
      <stop
         style="stop-color:#37c871;stop-opacity:1"
         offset="0"
         id="stop4" />
      <stop
         style="stop-color:#c6afe9;stop-opacity:1"
         offset="0.42100537"
         id="stop6" />
      <stop
         style="stop-color:#00baba;stop-opacity:1;"
         offset="1"
         id="stop5" />
    </linearGradient>
    <linearGradient
       inkscape:collect="always"
       xlink:href="#linearGradient4"
       id="linearGradient5"
       x1="6.1912498"
       y1="0.91287524"
       x2="13.334999"
       y2="14.142041"
       gradientUnits="userSpaceOnUse"
       gradientTransform="translate(0.42333307,-0.11912529)" />
  </defs>
  <g
     inkscape:label="Layer 1"
     inkscape:groupmode="layer"
     id="layer1">
    <rect
       x="2.2871437"
       y="0.52850062"
       style="clip-rule:evenodd;opacity:0.2;fill:#000000;fill-opacity:1;fill-rule:evenodd;stroke-width:0.264585"
       width="12.661815"
       height="13.195868"
       id="rect29"
       ry="0.79374999"
       rx="1.1906257" />
    <rect
       x="2.253372"
       y="0.26458335"
       style="clip-rule:evenodd;fill:url(#linearGradient5);fill-rule:evenodd;stroke-width:0.264587"
       width="12.426589"
       height="13.723703"
       id="rect30"
       ry="1.0583333"
       rx="1.1862109" />
    <path
       style="clip-rule:evenodd;opacity:0.2;fill:#000000;fill-opacity:1;fill-rule:evenodd;stroke-width:0.264586"
       d="m 3.1403083,0.5616023 9.3573277,1.2404109 c 0.500171,0.066303 0.96613,0.4009401 0.955781,0.870927 l -0.01625,0.7381328 0.01625,0.7215647 c 0.0039,0.1758939 -0.04649,0.2573225 -0.196997,0.3109292 l -0.335496,0.1195263 c -0.166565,0.05937 -0.252132,0.2077206 -0.252132,0.420295 v 2.4947475 c 0,0.2124755 0.08562,0.3608818 0.252132,0.4202447 l 0.335496,0.1195273 c 0.150506,0.053605 0.180746,0.1349932 0.180746,0.3109288 v 0.7215617 l 0.01625,6.6337588 c 0.0013,0.514902 -0.658166,1.05807 -1.220935,0.976393 L 3.1403083,15.340964 C 2.6410549,15.268505 2.2229842,14.956307 2.2229842,14.486161 V 1.4164584 c 0,-0.47014813 0.4172574,-0.92114478 0.9173241,-0.8548561 z"
       id="path31-3"
       sodipodi:nodetypes="ssscsccssccscssssss" />
    <path
       style="clip-rule:evenodd;fill:#36485c;fill-opacity:1;fill-rule:evenodd;stroke-width:0.264586"
       d="M 2.9016988,0.27109187 12.259021,1.511504 c 0.50017,0.066303 0.96613,0.4009392 0.955781,0.8709263 l -0.01625,0.7381324 0.01625,0.7215652 c 0.0039,0.1758942 -0.0465,0.2573227 -0.196997,0.3109294 l -0.335497,0.1195264 c -0.166565,0.05937 -0.252132,0.2077209 -0.252132,0.4202955 v 2.4947469 c 0,0.2124778 0.08562,0.3608833 0.252132,0.4202466 l 0.335497,0.1195283 c 0.150505,0.053605 0.180746,0.1349924 0.180746,0.3109294 v 0.7215602 l 0.01625,6.8184034 c 0.0011,0.470196 -0.482614,0.858478 -0.955781,0.791752 L 2.9016988,15.050459 C 2.4021543,14.980016 1.9843748,14.665802 1.9843748,14.195656 V 1.1259489 c 0,-0.47014879 0.4172574,-0.92114576 0.917324,-0.85485703 z"
       id="path31-1-3"
       sodipodi:nodetypes="ssscsccssccscssssss" />
    <path
       style="color:#eff0f1;font-size:20.4884px;font-family:TrebuchetMS-Bold;fill:#8c98a6;fill-opacity:1;fill-rule:evenodd;stroke:none;stroke-width:0.0416706;stroke-miterlimit:4"
       d="m 7.6464576,8.2814582 c -1.4611706,0 -2.6458327,1.1845399 -2.6458327,2.6458328 0,1.461288 1.1846621,2.645833 2.6458327,2.645833 1.4611653,0 2.6458354,-1.184545 2.6458354,-2.645833 0,-1.4612929 -1.1846701,-2.6458328 -2.6458354,-2.6458328 z m 0.01301,0.3664492 c 1.258947,0 2.2803558,1.0206032 2.2803558,2.2793836 0,1.259006 -1.0215529,2.279384 -2.2803558,2.279384 -0.6798201,0 -1.2898054,-0.297921 -1.7074091,-0.769877 0.1717531,-0.133269 0.4589989,-0.100676 0.8127646,-0.06039 0.1695659,0.01908 0.3628389,0.04111 0.5623279,0.04574 0.5572988,0.0051 1.156938,-0.0985 1.5270708,-0.260179 0.2392905,-0.104959 0.3924506,-0.17403 0.4882104,-0.261239 0.034557,-0.0286 0.052701,-0.07566 0.071185,-0.124681 l 0.012816,-0.0333 c 0.01512,-0.03964 0.038048,-0.125 0.047784,-0.171521 0.0053,-0.01998 0.0068,-0.04223 -0.0079,-0.05366 l -0.051648,0.0088 c -0.1623206,0.09756 -0.5680567,0.283013 -0.9481379,0.290567 -0.4710111,0.009 -1.4202827,-0.474155 -1.5193091,-0.525273 l -0.00939,-0.01184 c -0.023724,-0.05661 -0.1658043,-0.39391 -0.1958741,-0.464868 0.6832671,0.449967 1.2497932,0.699019 1.6839421,0.737722 0.4827475,0.04299 0.8593095,-0.220666 1.0203458,-0.333277 0.03122,-0.02176 0.05543,-0.03845 0.06531,-0.0418 l 0.01085,-0.01775 C 9.4954543,10.990491 9.2424259,10.169404 9.0517082,9.9722165 8.9988448,9.9181085 8.9567876,9.8655045 8.8714165,9.8153295 8.181073,9.4129601 6.5420614,9.1706612 6.4653169,9.1594362 l -0.012923,0.0053 -0.0053,0.01087 c 0,0 -0.00656,0.3403349 -0.00705,0.3781062 C 6.3839329,9.5352128 6.2094927,9.4779431 5.9597003,9.4094451 6.2856265,9.0061808 6.7851309,8.6483455 7.6592864,8.6483455 Z m 0.6022396,1.2064711 c 0.011899,-1.92e-4 0.023643,-3.97e-4 0.03483,0 0.3866925,0.01354 0.690522,0.3395965 0.677298,0.7260155 -0.00705,0.186871 -0.085696,0.359672 -0.2222025,0.487258 -0.1369495,0.128187 -0.3148394,0.195062 -0.5028457,0.189047 -0.3860641,-0.01435 -0.6898793,-0.340167 -0.6772854,-0.726017 0.0069,-0.187267 0.085831,-0.361033 0.2231549,-0.488298 C 7.9228832,9.9221405 8.0869833,9.8569805 8.2614742,9.8543785 Z m -0.018522,0.2065235 c -0.1126214,0.0073 -0.2189361,0.05266 -0.3021013,0.130583 -0.094808,0.08898 -0.1507742,0.209544 -0.1549879,0.340163 -0.00864,0.26978 0.2021799,0.496798 0.4717067,0.506703 0.1309693,0.0051 0.2552105,-0.04172 0.350831,-0.130516 0.095374,-0.08946 0.1509243,-0.211079 0.1549297,-0.341167 0.00883,-0.270083 -0.2029887,-0.496331 -0.4726563,-0.505766 -0.016703,-0.0012 -0.031594,-0.0018 -0.047734,0 z m 0.1286362,0.244654 c 0.1197562,0 0.2163613,0.06509 0.216354,0.145216 0,0.07975 -0.096599,0.145137 -0.216354,0.145137 -0.1201734,0 -0.2173385,-0.06563 -0.2173385,-0.145137 0,-0.08011 0.097167,-0.145216 0.2173385,-0.145216 z"
       id="path2445"
       class="ColorScheme-Text "
       inkscape:connector-curvature="0" />
  </g>
</svg>
