<?xml version="1.0" encoding="UTF-8" standalone="no"?>
<!-- Created with Inkscape (http://www.inkscape.org/) -->

<svg
   width="64"
   height="64"
   viewBox="0 0 16.933333 16.933333"
   version="1.1"
   id="svg1"
   inkscape:version="1.4.2 (unknown)"
   sodipodi:docname="folder-rpm.svg"
   xmlns:inkscape="http://www.inkscape.org/namespaces/inkscape"
   xmlns:sodipodi="http://sodipodi.sourceforge.net/DTD/sodipodi-0.dtd"
   xmlns:xlink="http://www.w3.org/1999/xlink"
   xmlns="http://www.w3.org/2000/svg"
   xmlns:svg="http://www.w3.org/2000/svg">
  <sodipodi:namedview
     id="namedview1"
     pagecolor="#ffffff"
     bordercolor="#000000"
     borderopacity="0.25"
     inkscape:showpageshadow="2"
     inkscape:pageopacity="0.0"
     inkscape:pagecheckerboard="0"
     inkscape:deskcolor="#d1d1d1"
     inkscape:document-units="px"
     inkscape:zoom="9.120116"
     inkscape:cx="28.453585"
     inkscape:cy="42.159551"
     inkscape:current-layer="layer1"
     showgrid="true"
     showguides="false">
    <inkscape:grid
       id="grid1"
       units="px"
       originx="0"
       originy="0"
       spacingx="0.26458333"
       spacingy="0.26458333"
       empcolor="#0099e5"
       empopacity="0.30196078"
       color="#0099e5"
       opacity="0.14901961"
       empspacing="5"
       enabled="true"
       visible="true" />
  </sodipodi:namedview>
  <defs
     id="defs1">
    <linearGradient
       id="linearGradient4"
       inkscape:collect="always">
      <stop
         style="stop-color:#ff8b8b;stop-opacity:1;"
         offset="0"
         id="stop4" />
      <stop
         style="stop-color:#80e5ff;stop-opacity:1"
         offset="0.42100537"
         id="stop6" />
      <stop
         style="stop-color:#ff5353;stop-opacity:1;"
         offset="1"
         id="stop5" />
    </linearGradient>
    <linearGradient
       inkscape:collect="always"
       xlink:href="#linearGradient4"
       id="linearGradient5"
       x1="7.2495832"
       y1="1.4420419"
       x2="13.334999"
       y2="14.142041"
       gradientUnits="userSpaceOnUse"
       gradientTransform="translate(0.42333307,-0.11912529)" />
  </defs>
  <g
     inkscape:label="Layer 1"
     inkscape:groupmode="layer"
     id="layer1">
    <rect
       x="2.2871437"
       y="0.52850062"
       style="clip-rule:evenodd;opacity:0.2;fill:#000000;fill-opacity:1;fill-rule:evenodd;stroke-width:0.264585"
       width="12.661815"
       height="13.195868"
       id="rect29"
       ry="0.79374999"
       rx="1.1906257" />
    <rect
       x="2.253372"
       y="0.26458335"
       style="clip-rule:evenodd;fill:url(#linearGradient5);fill-rule:evenodd;stroke-width:0.264587"
       width="12.426589"
       height="13.723703"
       id="rect30"
       ry="1.0583333"
       rx="1.1862109" />
    <path
       style="clip-rule:evenodd;opacity:0.2;fill:#000000;fill-opacity:1;fill-rule:evenodd;stroke-width:0.264586"
       d="m 3.1403083,0.5616023 9.3573277,1.2404109 c 0.500171,0.066303 0.96613,0.4009401 0.955781,0.870927 l -0.01625,0.7381328 0.01625,0.7215647 c 0.0039,0.1758939 -0.04649,0.2573225 -0.196997,0.3109292 l -0.335496,0.1195263 c -0.166565,0.05937 -0.252132,0.2077206 -0.252132,0.420295 v 2.4947475 c 0,0.2124755 0.08562,0.3608818 0.252132,0.4202447 l 0.335496,0.1195273 c 0.150506,0.053605 0.180746,0.1349932 0.180746,0.3109288 v 0.7215617 l 0.01625,6.6337588 c 0.0013,0.514902 -0.658166,1.05807 -1.220935,0.976393 L 3.1403083,15.340964 C 2.6410549,15.268505 2.2229842,14.956307 2.2229842,14.486161 V 1.4164584 c 0,-0.47014813 0.4172574,-0.92114478 0.9173241,-0.8548561 z"
       id="path31-3"
       sodipodi:nodetypes="ssscsccssccscssssss" />
    <path
       style="clip-rule:evenodd;fill:#36485c;fill-opacity:1;fill-rule:evenodd;stroke-width:0.264586"
       d="M 2.9016988,0.27109187 12.259021,1.511504 c 0.50017,0.066303 0.96613,0.4009392 0.955781,0.8709263 l -0.01625,0.7381324 0.01625,0.7215652 c 0.0039,0.1758942 -0.0465,0.2573227 -0.196997,0.3109294 l -0.335497,0.1195264 c -0.166565,0.05937 -0.252132,0.2077209 -0.252132,0.4202955 v 2.4947469 c 0,0.2124778 0.08562,0.3608833 0.252132,0.4202466 l 0.335497,0.1195283 c 0.150505,0.053605 0.180746,0.1349924 0.180746,0.3109294 v 0.7215602 l 0.01625,6.8184034 c 0.0011,0.470196 -0.482614,0.858478 -0.955781,0.791752 L 2.9016988,15.050459 C 2.4021543,14.980016 1.9843748,14.665802 1.9843748,14.195656 V 1.1259489 c 0,-0.47014879 0.4172574,-0.92114576 0.917324,-0.85485703 z"
       id="path31-1-3"
       sodipodi:nodetypes="ssscsccssccscssssss" />
    <g
       transform="matrix(0.01042691,0,0,0.01042683,4.0103161,8.0077539)"
       style="fill:#8c98a6;fill-opacity:1;stroke-width:1.59963"
       id="g26">
      <path
         d="m 350,26.25 c -44.543,0 -88.301,11.723 -126.88,33.996 -38.574,22.27 -70.609,54.305 -92.879,92.879 -22.27,38.574 -33.996,82.332 -33.996,126.88 0,67.297 26.734,131.84 74.32,179.43 47.59,47.586 112.13,74.32 179.43,74.32 67.3,0 131.84,-26.734 179.43,-74.32 47.586,-47.59 74.32,-112.13 74.32,-179.43 0,-44.543 -11.723,-88.301 -33.996,-126.88 C 547.479,114.551 515.444,82.516 476.87,60.246 438.296,37.973 394.538,26.25 349.99,26.25 Z m 8.75,41.766 c 12.57,0.52734 25.141,2.2891 37.633,5.0938 7.6404,1.9066 10.853,2.6571 16.918,4.5467 2.7539,0.85938 5.5352,1.6055 8.2695,2.5977 9.3203,3.3398 18.254,7.3555 26.832,11.863 l -19.961,34.555 c -6.4219,-3.3945 -13.07,-6.4883 -20.027,-9.0586 -16.246,-6.0039 -32.98,-9.3242 -49.664,-10.184 z m -17.5,0.26562 v 39.203 c -24.34,1.2773 -48.152,7.7891 -69.727,19.141 l -19.789,-34.316 c 11.262,-5.8867 22.863,-11.059 34.934,-14.832 4.8175,-1.5029 9.0571,-2.4516 16.984,-4.2738 12.34,-2.7656 24.895,-4.3906 37.598,-4.9219 z m 122.29,32.609 c 10.762,6.8555 20.719,14.699 29.941,23.273 5.3836,5.133 8.049,8.013 12.309,12.477 8.5078,9.3516 16.234,19.367 22.934,30.078 l -35.238,20.336 h -0.004 c -0.21875,0.125 -0.4375,0.25781 -0.64453,0.39844 -12.43,-20.48 -29.172,-38.199 -49.355,-51.781 z m -227.02,0.19922 19.996,34.59 c -13.578,9.0586 -26.02,20.113 -36.742,33.188 -4.832,5.8945 -9.1211,12.07 -13.023,18.422 -0.082,-0.0664 -0.16406,-0.13281 -0.24609,-0.19922 l -35.648,-20.609 c 4.9023,-7.7539 10.266,-15.301 16.27,-22.488 2.207,-2.6445 4.6953,-4.9414 7.0078,-7.4531 4.9752,-5.5234 8.0792,-8.4669 12.234,-12.507 9.4062,-8.668 19.527,-16.273 30.148,-23.004 z m 113.48,56.5 25.977,151.62 v -0.004 c 5.7891,6.4141 9.0039,14.738 9.0234,23.379 0,9.2812 -3.6875,18.184 -10.25,24.75 -6.5664,6.5625 -15.469,10.25 -24.75,10.25 -9.281,0 -18.184,-3.6875 -24.75,-10.25 -6.5625,-6.5664 -10.25,-15.469 -10.25,-24.75 0.0195,-8.6406 3.2344,-16.965 9.0234,-23.379 z m -187.89,24.133 35.648,20.574 v -0.004 c 0.1875,0.11719 0.38281,0.22656 0.57812,0.33203 -10.398,21.785 -15.793,45.375 -16.168,69.145 -0.93359,-0.31641 -1.918,-0.47266 -2.9062,-0.46094 h -40.672 c 0.4375,-12.633 2.0547,-25.203 4.75,-37.562 1.5238,-6.5415 2.4514,-10.055 4.4095,-16.922 3.6992,-12.043 8.4609,-23.812 14.355,-35.137 z m 375.29,0.26562 c 5.7656,11.164 10.441,22.906 14.184,35.035 1.6934,6.4096 3.3176,12.275 4.4809,16.91 2.7383,12.387 4.5508,25.07 5.0586,38.043 l -43.648,0.52734 c -0.48828,-24.602 -6.3164,-48.242 -16.441,-69.625 v 0.004 c 0.41016,-0.16797 0.80859,-0.36719 1.1914,-0.59766 z m -354.65,106.16 c 1.9453,23.918 8.9102,47.633 21.09,69.418 l -39.992,22.457 c -6.3828,-11.906 -11.434,-24.262 -15.414,-36.844 -2.6861,-8.8822 -2.7659,-10.58 -4.5787,-16.902 -2.8281,-12.379 -4.6367,-24.898 -5.2305,-37.461 h 40.641 c 1.1953,0.0156 2.3828,-0.21875 3.4844,-0.67969 z"
         style="fill:#8c98a6;fill-opacity:1;stroke-width:1.59963"
         id="path25" />
      <path
         d="m 358.75,332.5 c 0,4.8359 -3.918,8.75 -8.75,8.75 -4.832,0 -8.75,-3.9141 -8.75,-8.75 0,-4.832 3.918,-8.75 8.75,-8.75 4.832,0 8.75,3.918 8.75,8.75 z"
         style="fill:#8c98a6;fill-opacity:1;stroke-width:1.59963"
         id="path26" />
    </g>
  </g>
</svg>
