<?xml version="1.0" encoding="UTF-8" standalone="no"?>
<!-- Created with Inkscape (http://www.inkscape.org/) -->

<svg
   width="64"
   height="64"
   viewBox="0 0 16.933333 16.933333"
   version="1.1"
   id="svg1"
   inkscape:version="1.4.2 (unknown)"
   sodipodi:docname="folder-pictures.svg"
   xmlns:inkscape="http://www.inkscape.org/namespaces/inkscape"
   xmlns:sodipodi="http://sodipodi.sourceforge.net/DTD/sodipodi-0.dtd"
   xmlns:xlink="http://www.w3.org/1999/xlink"
   xmlns="http://www.w3.org/2000/svg"
   xmlns:svg="http://www.w3.org/2000/svg">
  <sodipodi:namedview
     id="namedview1"
     pagecolor="#ffffff"
     bordercolor="#000000"
     borderopacity="0.25"
     inkscape:showpageshadow="2"
     inkscape:pageopacity="0.0"
     inkscape:pagecheckerboard="0"
     inkscape:deskcolor="#d1d1d1"
     inkscape:document-units="px"
     inkscape:zoom="9.120116"
     inkscape:cx="30.262773"
     inkscape:cy="30.207949"
     inkscape:current-layer="layer1"
     showgrid="true"
     showguides="false">
    <inkscape:grid
       id="grid1"
       units="px"
       originx="0"
       originy="0"
       spacingx="0.26458333"
       spacingy="0.26458333"
       empcolor="#0099e5"
       empopacity="0.30196078"
       color="#0099e5"
       opacity="0.14901961"
       empspacing="5"
       enabled="true"
       visible="true" />
  </sodipodi:namedview>
  <defs
     id="defs1">
    <linearGradient
       id="linearGradient4"
       inkscape:collect="always">
      <stop
         style="stop-color:#fff0c4;stop-opacity:1;"
         offset="0"
         id="stop4" />
      <stop
         style="stop-color:#ffaaaa;stop-opacity:1"
         offset="0.42100537"
         id="stop6" />
      <stop
         style="stop-color:#bfabe4;stop-opacity:1;"
         offset="1"
         id="stop5" />
    </linearGradient>
    <linearGradient
       inkscape:collect="always"
       xlink:href="#linearGradient4"
       id="linearGradient5"
       x1="6.7204165"
       y1="2.7649584"
       x2="12.276667"
       y2="11.760792"
       gradientUnits="userSpaceOnUse"
       gradientTransform="translate(0.42333307,-0.11912529)" />
  </defs>
  <g
     inkscape:label="Layer 1"
     inkscape:groupmode="layer"
     id="layer1">
    <rect
       x="2.2871437"
       y="0.52850062"
       style="clip-rule:evenodd;opacity:0.2;fill:#000000;fill-opacity:1;fill-rule:evenodd;stroke-width:0.264585"
       width="12.661815"
       height="13.195868"
       id="rect29"
       ry="0.79374999"
       rx="1.1906257" />
    <rect
       x="2.253372"
       y="0.26458335"
       style="clip-rule:evenodd;fill:url(#linearGradient5);fill-rule:evenodd;stroke-width:0.264587"
       width="12.426589"
       height="13.723703"
       id="rect30"
       ry="1.0583333"
       rx="1.1862109" />
    <path
       style="clip-rule:evenodd;opacity:0.2;fill:#000000;fill-opacity:1;fill-rule:evenodd;stroke-width:0.264586"
       d="m 3.1403083,0.5616023 9.3573277,1.2404109 c 0.500171,0.066303 0.96613,0.4009401 0.955781,0.870927 l -0.01625,0.7381328 0.01625,0.7215647 c 0.0039,0.1758939 -0.04649,0.2573225 -0.196997,0.3109292 l -0.335496,0.1195263 c -0.166565,0.05937 -0.252132,0.2077206 -0.252132,0.420295 v 2.4947475 c 0,0.2124755 0.08562,0.3608818 0.252132,0.4202447 l 0.335496,0.1195273 c 0.150506,0.053605 0.180746,0.1349932 0.180746,0.3109288 v 0.7215617 l 0.01625,6.6337588 c 0.0013,0.514902 -0.658166,1.05807 -1.220935,0.976393 L 3.1403083,15.340964 C 2.6410549,15.268505 2.2229842,14.956307 2.2229842,14.486161 V 1.4164584 c 0,-0.47014813 0.4172574,-0.92114478 0.9173241,-0.8548561 z"
       id="path31-3"
       sodipodi:nodetypes="ssscsccssccscssssss" />
    <path
       style="clip-rule:evenodd;fill:#36485c;fill-opacity:1;fill-rule:evenodd;stroke-width:0.264586"
       d="M 2.9016988,0.27109187 12.259021,1.511504 c 0.50017,0.066303 0.96613,0.4009392 0.955781,0.8709263 l -0.01625,0.7381324 0.01625,0.7215652 c 0.0039,0.1758942 -0.0465,0.2573227 -0.196997,0.3109294 l -0.335497,0.1195264 c -0.166565,0.05937 -0.252132,0.2077209 -0.252132,0.4202955 v 2.4947469 c 0,0.2124778 0.08562,0.3608833 0.252132,0.4202466 l 0.335497,0.1195283 c 0.150505,0.053605 0.180746,0.1349924 0.180746,0.3109294 v 0.7215602 l 0.01625,6.8184034 c 0.0011,0.470196 -0.482614,0.858478 -0.955781,0.791752 L 2.9016988,15.050459 C 2.4021543,14.980016 1.9843748,14.665802 1.9843748,14.195656 V 1.1259489 c 0,-0.47014879 0.4172574,-0.92114576 0.917324,-0.85485703 z"
       id="path31-1-3"
       sodipodi:nodetypes="ssscsccssccscssssss" />
    <g
       id="g3"
       transform="matrix(0.25082821,0,0,0.25318978,-3.1651624,-5.935384)"
       style="fill:#8c98a6;fill-opacity:1;stroke-width:1.0499">
      <path
         d="M 52.65082,77.050933 H 33.237058 c -1.614192,0 -2.421582,0 -2.77151,-0.538549 -0.08884,-0.138266 -0.155904,-0.291089 -0.198209,-0.458495 -0.164381,-0.654969 0.298545,-1.448226 1.224384,-3.042007 l 4.294427,-7.386736 c 0.627911,-1.077075 0.942171,-1.6229 1.382136,-1.73934 0.114212,-0.02913 0.232671,-0.04376 0.349911,-0.02913 0.449025,0.04376 0.822495,0.523991 1.570079,1.491899 l 4.672727,6.025833 c 0.705272,0.909704 1.05821,1.368176 1.488483,1.419136 0.113029,0.01458 0.226642,0.01458 0.33844,-0.01473 0.425462,-0.09458 0.748175,-0.582185 1.394213,-1.55012 l 1.453437,-2.190533 c 0.691963,-1.040707 1.03765,-1.56468 1.486678,-1.644742 0.116636,-0.02184 0.236289,-0.02184 0.352926,0 0.449016,0.08006 0.794713,0.604035 1.487283,1.644742 l 2.552116,3.842556 c 1.080552,1.63019 1.621465,2.437996 1.472165,3.122085 -0.03753,0.174661 -0.102722,0.334769 -0.190963,0.480308 -0.349324,0.567675 -1.214719,0.567675 -2.944961,0.567675 z"
         fill-opacity="0.9"
         id="path290"
         style="fill:#8c98a6;fill-opacity:1;stroke-width:1.08967" />
      <rect
         x="43.578918"
         y="56.150932"
         width="6.6721325"
         height="6.5999999"
         rx="6.3263297"
         fill-opacity="0.9"
         id="rect291"
         ry="6.2673225"
         style="fill:#8c98a6;fill-opacity:1;stroke-width:1.08967" />
    </g>
  </g>
</svg>
