<?xml version="1.0" encoding="UTF-8" standalone="no"?>
<!-- Created with Inkscape (http://www.inkscape.org/) -->

<svg
   width="64"
   height="64"
   viewBox="0 0 16.933333 16.933333"
   version="1.1"
   id="svg1"
   inkscape:version="1.4.2 (unknown)"
   sodipodi:docname="folder-database.svg"
   xmlns:inkscape="http://www.inkscape.org/namespaces/inkscape"
   xmlns:sodipodi="http://sodipodi.sourceforge.net/DTD/sodipodi-0.dtd"
   xmlns:xlink="http://www.w3.org/1999/xlink"
   xmlns="http://www.w3.org/2000/svg"
   xmlns:svg="http://www.w3.org/2000/svg">
  <sodipodi:namedview
     id="namedview1"
     pagecolor="#ffffff"
     bordercolor="#000000"
     borderopacity="0.25"
     inkscape:showpageshadow="2"
     inkscape:pageopacity="0.0"
     inkscape:pagecheckerboard="0"
     inkscape:deskcolor="#d1d1d1"
     inkscape:document-units="px"
     inkscape:zoom="9.120116"
     inkscape:cx="30.756188"
     inkscape:cy="30.975483"
     inkscape:current-layer="layer1"
     showgrid="true"
     showguides="false">
    <inkscape:grid
       id="grid1"
       units="px"
       originx="0"
       originy="0"
       spacingx="0.26458333"
       spacingy="0.26458333"
       empcolor="#0099e5"
       empopacity="0.30196078"
       color="#0099e5"
       opacity="0.14901961"
       empspacing="5"
       enabled="true"
       visible="true" />
  </sodipodi:namedview>
  <defs
     id="defs1">
    <linearGradient
       id="linearGradient4"
       inkscape:collect="always">
      <stop
         style="stop-color:#44d2a8;stop-opacity:1"
         offset="0"
         id="stop4" />
      <stop
         style="stop-color:#ffccaa;stop-opacity:1"
         offset="0.55769229"
         id="stop6" />
      <stop
         style="stop-color:#9d7ed5;stop-opacity:1"
         offset="1"
         id="stop5" />
    </linearGradient>
    <linearGradient
       inkscape:collect="always"
       xlink:href="#linearGradient4"
       id="linearGradient5"
       x1="2.2225001"
       y1="0.3837086"
       x2="13.334999"
       y2="14.142041"
       gradientUnits="userSpaceOnUse"
       gradientTransform="translate(0.42333307,-0.11912529)" />
  </defs>
  <g
     inkscape:label="Layer 1"
     inkscape:groupmode="layer"
     id="layer1">
    <rect
       x="2.2871437"
       y="0.52850062"
       style="clip-rule:evenodd;opacity:0.2;fill:#000000;fill-opacity:1;fill-rule:evenodd;stroke-width:0.264585"
       width="12.661815"
       height="13.195868"
       id="rect29"
       ry="0.79374999"
       rx="1.1906257" />
    <rect
       x="2.253372"
       y="0.26458335"
       style="clip-rule:evenodd;fill:url(#linearGradient5);fill-rule:evenodd;stroke-width:0.264587"
       width="12.426589"
       height="13.723703"
       id="rect30"
       ry="1.0583333"
       rx="1.1862109" />
    <path
       style="clip-rule:evenodd;opacity:0.2;fill:#000000;fill-opacity:1;fill-rule:evenodd;stroke-width:0.264586"
       d="m 3.1403083,0.5616023 9.3573277,1.2404109 c 0.500171,0.066303 0.96613,0.4009401 0.955781,0.870927 l -0.01625,0.7381328 0.01625,0.7215647 c 0.0039,0.1758939 -0.04649,0.2573225 -0.196997,0.3109292 l -0.335496,0.1195263 c -0.166565,0.05937 -0.252132,0.2077206 -0.252132,0.420295 v 2.4947475 c 0,0.2124755 0.08562,0.3608818 0.252132,0.4202447 l 0.335496,0.1195273 c 0.150506,0.053605 0.180746,0.1349932 0.180746,0.3109288 v 0.7215617 l 0.01625,6.6337588 c 0.0013,0.514902 -0.658166,1.05807 -1.220935,0.976393 L 3.1403083,15.340964 C 2.6410549,15.268505 2.2229842,14.956307 2.2229842,14.486161 V 1.4164584 c 0,-0.47014813 0.4172574,-0.92114478 0.9173241,-0.8548561 z"
       id="path31-3"
       sodipodi:nodetypes="ssscsccssccscssssss" />
    <path
       style="clip-rule:evenodd;fill:#36485c;fill-opacity:1;fill-rule:evenodd;stroke-width:0.264586"
       d="M 2.9016988,0.27109187 12.259021,1.511504 c 0.50017,0.066303 0.96613,0.4009392 0.955781,0.8709263 l -0.01625,0.7381324 0.01625,0.7215652 c 0.0039,0.1758942 -0.0465,0.2573227 -0.196997,0.3109294 l -0.335497,0.1195264 c -0.166565,0.05937 -0.252132,0.2077209 -0.252132,0.4202955 v 2.4947469 c 0,0.2124778 0.08562,0.3608833 0.252132,0.4202466 l 0.335497,0.1195283 c 0.150505,0.053605 0.180746,0.1349924 0.180746,0.3109294 v 0.7215602 l 0.01625,6.8184034 c 0.0011,0.470196 -0.482614,0.858478 -0.955781,0.791752 L 2.9016988,15.050459 C 2.4021543,14.980016 1.9843748,14.665802 1.9843748,14.195656 V 1.1259489 c 0,-0.47014879 0.4172574,-0.92114576 0.917324,-0.85485703 z"
       id="path31-1-3"
       sodipodi:nodetypes="ssscsccssccscssssss" />
    <path
       id="XMLID_2226_-3"
       d="M 10.196448,9.7024845 H 5.0170898 c -0.2136647,0 -0.3868816,-0.1816637 -0.3868816,-0.4057637 V 8.6872407 c 0,-0.224101 0.1732169,-0.4057825 0.3868816,-0.4057825 h 5.1793582 c 0.21366,0 0.386879,0.1816815 0.386879,0.4057825 v 0.6094601 c 0,0.22412 -0.173219,0.4057837 -0.386879,0.4057837 z"
       style="fill:#8c98a6;fill-opacity:1;stroke-width:0.293992" />
    <path
       id="XMLID_2225_-6"
       d="M 10.196448,11.651934 H 5.0170898 c -0.2136647,0 -0.3868816,-0.181682 -0.3868816,-0.405782 V 10.63669 c 0,-0.224101 0.1732169,-0.405782 0.3868816,-0.405782 h 5.1793582 c 0.21366,0 0.386879,0.181681 0.386879,0.405782 v 0.609462 c 0,0.2241 -0.173219,0.405782 -0.386879,0.405782 z"
       style="fill:#8c98a6;fill-opacity:1;stroke-width:0.293992" />
    <path
       id="XMLID_2224_-7"
       d="M 10.196448,13.573127 H 5.0170898 c -0.2136647,0 -0.3868816,-0.181666 -0.3868816,-0.405786 v -0.609458 c 0,-0.224104 0.1732169,-0.405782 0.3868816,-0.405782 h 5.1793582 c 0.21366,0 0.386879,0.181678 0.386879,0.405782 v 0.609458 c 0,0.22412 -0.173219,0.405786 -0.386879,0.405786 z"
       style="fill:#8c98a6;fill-opacity:1;stroke-width:0.293992" />
    <path
       id="XMLID_3068_-5"
       d="m 6.6098295,9.3728648 h -0.998176 c -0.1810009,0 -0.3277317,-0.1480727 -0.3277317,-0.3307267 0,-0.1826637 0.1467308,-0.3307307 0.3277317,-0.3307307 h 0.998176 c 0.1809984,0 0.3277359,0.148067 0.3277359,0.3307307 0,0.182654 -0.1467375,0.3307267 -0.3277359,0.3307267 z"
       style="fill:#24844a;fill-opacity:1;stroke-width:0.293992" />
    <path
       id="XMLID_3067_-3"
       d="M 6.6098267,11.258019 H 5.6116498 c -0.1810014,0 -0.327732,-0.148072 -0.327732,-0.330723 0,-0.182664 0.1467306,-0.330732 0.327732,-0.330732 h 0.9981769 c 0.1810012,0 0.3277364,0.148068 0.3277364,0.330732 3.88e-5,0.182651 -0.1467352,0.330723 -0.3277364,0.330723 z"
       style="fill:#c83771;stroke-width:0.293992" />
    <path
       id="XMLID_3066_-5"
       d="M 6.6098267,13.176251 H 5.6116521 c -0.1810024,0 -0.3277328,-0.148081 -0.3277328,-0.330733 0,-0.182658 0.1467304,-0.330728 0.3277328,-0.330728 h 0.9981746 c 0.1810012,0 0.3277387,0.14807 0.3277387,0.330728 3.65e-5,0.182652 -0.1467375,0.330733 -0.3277387,0.330733 z"
       style="fill:#2a7fff;stroke-width:0.293992" />
  </g>
</svg>
