<?xml version="1.0" encoding="UTF-8" standalone="no"?>
<!-- Created with Inkscape (http://www.inkscape.org/) -->

<svg
   width="64"
   height="64"
   viewBox="0 0 16.933333 16.933333"
   version="1.1"
   id="svg1"
   inkscape:version="1.4.2 (unknown)"
   sodipodi:docname="folder-network.svg"
   xmlns:inkscape="http://www.inkscape.org/namespaces/inkscape"
   xmlns:sodipodi="http://sodipodi.sourceforge.net/DTD/sodipodi-0.dtd"
   xmlns:xlink="http://www.w3.org/1999/xlink"
   xmlns="http://www.w3.org/2000/svg"
   xmlns:svg="http://www.w3.org/2000/svg">
  <sodipodi:namedview
     id="namedview1"
     pagecolor="#ffffff"
     bordercolor="#000000"
     borderopacity="0.25"
     inkscape:showpageshadow="2"
     inkscape:pageopacity="0.0"
     inkscape:pagecheckerboard="0"
     inkscape:deskcolor="#d1d1d1"
     inkscape:document-units="px"
     inkscape:zoom="9.120116"
     inkscape:cx="32.34608"
     inkscape:cy="39.199063"
     inkscape:current-layer="layer1"
     showgrid="true"
     showguides="false">
    <inkscape:grid
       id="grid1"
       units="px"
       originx="0"
       originy="0"
       spacingx="0.26458333"
       spacingy="0.26458333"
       empcolor="#0099e5"
       empopacity="0.30196078"
       color="#0099e5"
       opacity="0.14901961"
       empspacing="5"
       enabled="true"
       visible="true" />
  </sodipodi:namedview>
  <defs
     id="defs1">
    <linearGradient
       id="linearGradient4"
       inkscape:collect="always">
      <stop
         style="stop-color:#ffc299;stop-opacity:1;"
         offset="0"
         id="stop4" />
      <stop
         style="stop-color:#83ffff;stop-opacity:1;"
         offset="0.5223462"
         id="stop6" />
      <stop
         style="stop-color:#ffaaaa;stop-opacity:1"
         offset="1"
         id="stop5" />
    </linearGradient>
    <linearGradient
       inkscape:collect="always"
       xlink:href="#linearGradient4"
       id="linearGradient5"
       x1="6.1912498"
       y1="1.4420419"
       x2="13.334999"
       y2="14.142041"
       gradientUnits="userSpaceOnUse"
       gradientTransform="translate(0.42333307,-0.11912529)" />
  </defs>
  <g
     inkscape:label="Layer 1"
     inkscape:groupmode="layer"
     id="layer1">
    <rect
       x="2.2871437"
       y="0.52850062"
       style="clip-rule:evenodd;opacity:0.2;fill:#000000;fill-opacity:1;fill-rule:evenodd;stroke-width:0.264585"
       width="12.661815"
       height="13.195868"
       id="rect29"
       ry="0.79374999"
       rx="1.1906257" />
    <rect
       x="2.253372"
       y="0.26458335"
       style="clip-rule:evenodd;fill:url(#linearGradient5);fill-rule:evenodd;stroke-width:0.264587"
       width="12.426589"
       height="13.723703"
       id="rect30"
       ry="1.0583333"
       rx="1.1862109" />
    <path
       style="clip-rule:evenodd;opacity:0.2;fill:#000000;fill-opacity:1;fill-rule:evenodd;stroke-width:0.264586"
       d="m 3.1403083,0.5616023 9.3573277,1.2404109 c 0.500171,0.066303 0.96613,0.4009401 0.955781,0.870927 l -0.01625,0.7381328 0.01625,0.7215647 c 0.0039,0.1758939 -0.04649,0.2573225 -0.196997,0.3109292 l -0.335496,0.1195263 c -0.166565,0.05937 -0.252132,0.2077206 -0.252132,0.420295 v 2.4947475 c 0,0.2124755 0.08562,0.3608818 0.252132,0.4202447 l 0.335496,0.1195273 c 0.150506,0.053605 0.180746,0.1349932 0.180746,0.3109288 v 0.7215617 l 0.01625,6.6337588 c 0.0013,0.514902 -0.658166,1.05807 -1.220935,0.976393 L 3.1403083,15.340964 C 2.6410549,15.268505 2.2229842,14.956307 2.2229842,14.486161 V 1.4164584 c 0,-0.47014813 0.4172574,-0.92114478 0.9173241,-0.8548561 z"
       id="path31-3"
       sodipodi:nodetypes="ssscsccssccscssssss" />
    <path
       style="clip-rule:evenodd;fill:#36485c;fill-opacity:1;fill-rule:evenodd;stroke-width:0.264586"
       d="M 2.9016988,0.27109187 12.259021,1.511504 c 0.50017,0.066303 0.96613,0.4009392 0.955781,0.8709263 l -0.01625,0.7381324 0.01625,0.7215652 c 0.0039,0.1758942 -0.0465,0.2573227 -0.196997,0.3109294 l -0.335497,0.1195264 c -0.166565,0.05937 -0.252132,0.2077209 -0.252132,0.4202955 v 2.4947469 c 0,0.2124778 0.08562,0.3608833 0.252132,0.4202466 l 0.335497,0.1195283 c 0.150505,0.053605 0.180746,0.1349924 0.180746,0.3109294 v 0.7215602 l 0.01625,6.8184034 c 0.0011,0.470196 -0.482614,0.858478 -0.955781,0.791752 L 2.9016988,15.050459 C 2.4021543,14.980016 1.9843748,14.665802 1.9843748,14.195656 V 1.1259489 c 0,-0.47014879 0.4172574,-0.92114576 0.917324,-0.85485703 z"
       id="path31-1-3"
       sodipodi:nodetypes="ssscsccssccscssssss" />
    <g
       id="g36"
       style="fill:#8c98a6;fill-opacity:1;stroke-width:1.10001"
       transform="matrix(0.26458332,0,0,0.26458332,-0.41010406,0.34395852)">
      <path
         d="m 35.235797,42.635051 c -2.126417,1.249999 -4.713412,2.109217 -7.106413,2.442383 -0.140176,0.485971 -0.443056,0.899297 -0.856074,1.169838 0.640804,1.368987 1.563211,2.613975 2.677108,3.741229 3.143943,0.1503 6.309163,-1.174849 8.38802,-3.850197 0.0363,-0.0476 0.06884,-0.1002 0.103881,-0.149048 -0.305383,-1.144788 -0.811017,-2.234466 -1.433048,-3.31162 -0.112641,0.03257 -0.220276,0.05762 -0.326659,0.07766 -0.178975,0.0501 -0.364207,0.08517 -0.5582,0.08517 -0.319151,0 -0.617024,-0.07766 -0.888615,-0.205411 z"
         class="si-glyph-fill"
         id="path1-7"
         style="fill:#8c98a6;fill-opacity:1;fill-rule:evenodd;stroke:none;stroke-width:55.0002" />
      <path
         d="M 31.816508,36.871029 C 31.013,36.28611 30.169442,35.762564 29.308362,35.297885 c -0.315395,0.756512 -1.061331,1.286321 -1.933675,1.286321 -0.156446,0 -0.306635,-0.02004 -0.453068,-0.0526 -0.509389,1.922593 -0.78098,3.960417 -0.639552,5.879252 0.956199,0.07264 1.729669,0.772795 1.902386,1.69589 2.121411,-0.349448 4.342947,-1.100951 6.216547,-2.176851 -0.232792,-0.339429 -0.371716,-0.747745 -0.371716,-1.188626 0,-0.517284 0.195245,-0.984468 0.504382,-1.350199 -0.818526,-0.921843 -1.73843,-1.807363 -2.717158,-2.520038 z"
         class="si-glyph-fill"
         id="path2-5"
         style="fill:#8c98a6;fill-opacity:1;fill-rule:evenodd;stroke:none;stroke-width:55.0002" />
      <path
         d="m 25.494829,42.503538 c -0.171465,-2.046591 0.130163,-4.248492 0.677099,-6.302598 -0.538175,-0.380761 -0.892369,-1.004508 -0.892369,-1.714678 0,-0.246743 0.04881,-0.483466 0.130163,-0.703907 -0.821029,-0.152805 -1.644562,-0.247996 -2.470598,-0.309368 -0.11139,0.13026 -0.231541,0.255511 -0.336673,0.393286 -2.163964,2.785568 -2.620787,6.352699 -1.53943,9.452645 0.96496,0.412074 1.959958,0.68512 3.000012,0.834168 0.128912,-0.782815 0.690867,-1.412824 1.431796,-1.649548 z"
         class="si-glyph-fill"
         id="path3-3"
         style="fill:#8c98a6;fill-opacity:1;fill-rule:evenodd;stroke:none;stroke-width:55.0002" />
      <path
         d="m 37.920414,42.127787 c -0.0363,0.04634 -0.0801,0.08392 -0.120151,0.125251 0.54193,0.921842 1.000005,1.85621 1.317903,2.840678 1.398004,-2.367232 1.715903,-5.134013 1.041307,-7.667828 -0.112642,0.166583 -0.220277,0.334419 -0.339176,0.495992 -0.545684,0.752755 -1.095123,1.524297 -1.694625,2.219436 0.05632,0.190381 0.09512,0.389529 0.09512,0.59995 v 0.005 c 0.105132,0.468436 0.01627,0.9757 -0.300377,1.381511 z"
         class="si-glyph-fill"
         id="path4-3-5"
         style="fill:#8c98a6;fill-opacity:1;fill-rule:evenodd;stroke:none;stroke-width:55.0002" />
      <path
         d="m 29.454796,34.309659 c 1.000004,0.518537 1.982487,1.124749 2.916158,1.803606 1.051318,0.765279 2.036304,1.719687 2.908648,2.710418 0.259075,-0.115231 0.543181,-0.181613 0.846061,-0.181613 0.625785,0 1.182734,0.281813 1.566965,0.716432 0.505635,-0.616232 0.97998,-1.280059 1.453073,-1.928856 0.242805,-0.335671 0.465584,-0.68011 0.680854,-1.027053 -0.633294,-1.642032 -1.694626,-3.138774 -3.18149,-4.29734 -1.933676,-1.50551 -4.247828,-2.184367 -6.518176,-2.097944 -0.14393,0.182866 -0.286609,0.363226 -0.424282,0.549849 -0.50188,0.691382 -0.92491,1.352704 -1.301633,2.050349 0.04881,0.03632 0.0801,0.08266 0.125157,0.12525 0.521905,0.345691 0.872344,0.919338 0.928665,1.576902 z"
         class="si-glyph-fill"
         id="path5-6-6"
         style="fill:#8c98a6;fill-opacity:1;fill-rule:evenodd;stroke:none;stroke-width:55.0002" />
      <path
         d="m 24.091819,44.978486 c -0.889866,-0.122746 -1.7547,-0.308116 -2.590749,-0.60997 0.649565,1.346442 1.599506,2.571391 2.859837,3.552101 1.334173,1.038326 2.849824,1.682112 4.406777,1.955158 -0.903633,-1.023295 -1.642059,-2.136771 -2.194002,-3.33166 -0.14393,0.03006 -0.292867,0.0501 -0.44681,0.0501 -0.991243,-0.0013 -1.816028,-0.691382 -2.035053,-1.615729 z"
         class="si-glyph-fill"
         id="path6-7-2"
         style="fill:#8c98a6;fill-opacity:1;fill-rule:evenodd;stroke:none;stroke-width:55.0002" />
      <path
         d="m 26.138136,32.800392 c 0.389238,-0.428356 0.954948,-0.612474 1.500632,-0.521041 0.39049,-0.733967 0.831043,-1.431612 1.352947,-2.156812 -1.949946,0.298096 -3.807275,1.172344 -5.315417,2.582663 0.738426,0.08266 1.471846,0.175351 2.204015,0.315631 0.07885,-0.08016 0.166458,-0.151553 0.257823,-0.220441 z"
         class="si-glyph-fill"
         id="path7-5-9"
         style="fill:#8c98a6;fill-opacity:1;fill-rule:evenodd;stroke:none;stroke-width:55.0002" />
    </g>
  </g>
</svg>
