<?xml version="1.0" encoding="UTF-8" standalone="no"?>
<!-- Created with Inkscape (http://www.inkscape.org/) -->

<svg
   width="64"
   height="64"
   viewBox="0 0 16.933333 16.933333"
   version="1.1"
   id="svg1"
   inkscape:version="1.4.2 (unknown)"
   sodipodi:docname="folder-chameleon.svg"
   xmlns:inkscape="http://www.inkscape.org/namespaces/inkscape"
   xmlns:sodipodi="http://sodipodi.sourceforge.net/DTD/sodipodi-0.dtd"
   xmlns:xlink="http://www.w3.org/1999/xlink"
   xmlns="http://www.w3.org/2000/svg"
   xmlns:svg="http://www.w3.org/2000/svg">
  <sodipodi:namedview
     id="namedview1"
     pagecolor="#ffffff"
     bordercolor="#000000"
     borderopacity="0.25"
     inkscape:showpageshadow="2"
     inkscape:pageopacity="0.0"
     inkscape:pagecheckerboard="0"
     inkscape:deskcolor="#d1d1d1"
     inkscape:document-units="px"
     inkscape:zoom="9.120116"
     inkscape:cx="30.64654"
     inkscape:cy="30.865835"
     inkscape:current-layer="layer1"
     showgrid="true"
     showguides="false">
    <inkscape:grid
       id="grid1"
       units="px"
       originx="0"
       originy="0"
       spacingx="0.26458333"
       spacingy="0.26458333"
       empcolor="#0099e5"
       empopacity="0.30196078"
       color="#0099e5"
       opacity="0.14901961"
       empspacing="5"
       enabled="true"
       visible="true" />
  </sodipodi:namedview>
  <defs
     id="defs1">
    <linearGradient
       id="linearGradient4"
       inkscape:collect="always">
      <stop
         style="stop-color:#5bd28b;stop-opacity:1;"
         offset="0"
         id="stop4" />
      <stop
         style="stop-color:#80b3ff;stop-opacity:1"
         offset="0.42100537"
         id="stop6" />
      <stop
         style="stop-color:#bfabe4;stop-opacity:1;"
         offset="1"
         id="stop5" />
    </linearGradient>
    <linearGradient
       inkscape:collect="always"
       xlink:href="#linearGradient4"
       id="linearGradient5"
       x1="7.2495832"
       y1="1.1774585"
       x2="13.334999"
       y2="14.142041"
       gradientUnits="userSpaceOnUse"
       gradientTransform="translate(0.42333307,-0.11912529)" />
  </defs>
  <g
     inkscape:label="Layer 1"
     inkscape:groupmode="layer"
     id="layer1">
    <rect
       x="2.2871437"
       y="0.52850062"
       style="clip-rule:evenodd;opacity:0.2;fill:#000000;fill-opacity:1;fill-rule:evenodd;stroke-width:0.264585"
       width="12.661815"
       height="13.195868"
       id="rect29"
       ry="0.79374999"
       rx="1.1906257" />
    <rect
       x="2.253372"
       y="0.26458335"
       style="clip-rule:evenodd;fill:url(#linearGradient5);fill-rule:evenodd;stroke-width:0.264587"
       width="12.426589"
       height="13.723703"
       id="rect30"
       ry="1.0583333"
       rx="1.1862109" />
    <path
       style="clip-rule:evenodd;opacity:0.2;fill:#000000;fill-opacity:1;fill-rule:evenodd;stroke-width:0.264586"
       d="m 3.1403083,0.5616023 9.3573277,1.2404109 c 0.500171,0.066303 0.96613,0.4009401 0.955781,0.870927 l -0.01625,0.7381328 0.01625,0.7215647 c 0.0039,0.1758939 -0.04649,0.2573225 -0.196997,0.3109292 l -0.335496,0.1195263 c -0.166565,0.05937 -0.252132,0.2077206 -0.252132,0.420295 v 2.4947475 c 0,0.2124755 0.08562,0.3608818 0.252132,0.4202447 l 0.335496,0.1195273 c 0.150506,0.053605 0.180746,0.1349932 0.180746,0.3109288 v 0.7215617 l 0.01625,6.6337588 c 0.0013,0.514902 -0.658166,1.05807 -1.220935,0.976393 L 3.1403083,15.340964 C 2.6410549,15.268505 2.2229842,14.956307 2.2229842,14.486161 V 1.4164584 c 0,-0.47014813 0.4172574,-0.92114478 0.9173241,-0.8548561 z"
       id="path31-3"
       sodipodi:nodetypes="ssscsccssccscssssss" />
    <path
       style="clip-rule:evenodd;fill:#36485c;fill-opacity:1;fill-rule:evenodd;stroke-width:0.264586"
       d="M 2.9016988,0.27109187 12.259021,1.511504 c 0.50017,0.066303 0.96613,0.4009392 0.955781,0.8709263 l -0.01625,0.7381324 0.01625,0.7215652 c 0.0039,0.1758942 -0.0465,0.2573227 -0.196997,0.3109294 l -0.335497,0.1195264 c -0.166565,0.05937 -0.252132,0.2077209 -0.252132,0.4202955 v 2.4947469 c 0,0.2124778 0.08562,0.3608833 0.252132,0.4202466 l 0.335497,0.1195283 c 0.150505,0.053605 0.180746,0.1349924 0.180746,0.3109294 v 0.7215602 l 0.01625,6.8184034 c 0.0011,0.470196 -0.482614,0.858478 -0.955781,0.791752 L 2.9016988,15.050459 C 2.4021543,14.980016 1.9843748,14.665802 1.9843748,14.195656 V 1.1259489 c 0,-0.47014879 0.4172574,-0.92114576 0.917324,-0.85485703 z"
       id="path31-1-3"
       sodipodi:nodetypes="ssscsccssccscssssss" />
    <path
       style="fill:#8c98a6;fill-opacity:1;stroke-width:0.264575"
       d="m 9.6998327,13.473993 c -0.01472,-0.06613 -0.039766,-0.145924 -0.055639,-0.177342 -0.066803,-0.132109 -0.152451,-0.489871 -0.127536,-0.53259 0.014826,-0.02541 0.013552,-0.0343 -0.00284,-0.01959 -0.030356,0.02703 -0.3373863,-0.527276 -0.3080689,-0.556189 0.024515,-0.02418 0.2027779,0.219141 0.2662756,0.363493 0.1046856,0.237993 0.060817,0.0086 -0.056021,-0.293885 L 9.3003691,11.95928 9.1892602,11.9975 c -0.1193281,0.04101 -0.1340437,0.06791 -0.071113,0.129974 0.028111,0.02772 -0.025129,0.0289 -0.179499,0.0041 -0.1207112,-0.01965 -0.236483,-0.05577 -0.2572673,-0.08035 -0.078947,-0.09314 -0.2810022,-0.147339 -0.3813654,-0.102242 -0.1219935,0.05488 -0.2634481,0.05406 -0.3674411,-0.0027 -0.045394,-0.02452 -0.1301549,-0.03988 -0.1883585,-0.03429 -0.0582,0.0061 -0.1262224,-0.0069 -0.1511539,-0.0268 -0.030245,-0.02468 -0.2527499,-0.01434 -0.6688404,0.03109 -0.8115267,0.08861 -1.1092597,0.106805 -1.0489578,0.06426 0.032811,-0.02309 0.023746,-0.0286 -0.029116,-0.01727 -0.042185,0.0093 -0.099166,-0.0082 -0.1266272,-0.03652 -0.027467,-0.029 -0.060482,-0.04234 -0.073364,-0.02956 -0.012919,0.01279 -0.00157,0.03668 0.025875,0.0531 0.073538,0.04487 -0.023395,0.06921 -0.1648628,0.04153 -0.076495,-0.01501 -0.1100497,-0.04172 -0.1031704,-0.0823 0.00652,-0.03802 -0.031699,-0.07453 -0.1039188,-0.09931 -0.062898,-0.02115 -0.1142464,-0.05401 -0.1142464,-0.07255 0,-0.04041 0.4651909,-0.07614 1.3603811,-0.10456 0.739279,-0.02347 0.7837707,-0.02972 0.7230744,-0.101866 -0.031098,-0.03697 -0.1422314,-0.04491 -0.4529762,-0.03226 -0.3507054,0.01425 -0.4481047,0.0052 -0.656791,-0.06366 -0.327753,-0.107555 -0.5871947,-0.273271 -0.6181265,-0.394828 -0.03428,-0.134678 0.00706,-0.157301 0.1112413,-0.06085 0.1834329,0.169948 0.6762182,0.09662 0.5444126,-0.08099 -0.039321,-0.05299 -0.077185,-0.05895 -0.2176534,-0.03396 -0.093523,0.01669 -0.2524305,0.01808 -0.3531186,0.0034 -0.2031602,-0.02991 -0.3623786,-0.136117 -0.2807272,-0.187213 0.038743,-0.02426 0.038781,-0.03027 1.723e-4,-0.03075 -0.050397,-8.35e-4 -0.027791,-0.174284 0.03099,-0.238032 0.016466,-0.01783 0.020684,-0.0563 0.0093,-0.08534 -0.011325,-0.02904 -0.00568,-0.05023 0.01243,-0.04697 0.070294,0.01268 0.1067395,-0.0056 0.06462,-0.03155 -0.032642,-0.02049 -0.029085,-0.06106 0.013861,-0.157814 0.03179,-0.0716 0.063345,-0.1721724 0.070115,-0.223418 0.0068,-0.05117 0.01899,-0.1434782 0.027248,-0.2049662 0.00828,-0.06145 0.026736,-0.1537297 0.041152,-0.2049687 0.015902,-0.05659 -0.0056,-0.03569 -0.05487,0.0531 L 5.479514,9.6563858 5.40907,9.5659958 C 5.3084429,9.4367821 5.317029,9.4129641 5.5128838,9.2781371 c 0.1500682,-0.1033049 0.17528,-0.1029929 0.1453933,0.0021 -0.018715,0.06564 -0.015275,0.07171 0.01576,0.02794 0.033426,-0.04709 0.039871,-0.04414 0.04084,0.01866 0.00107,0.06161 0.00733,0.06484 0.037152,0.01867 0.021295,-0.03307 0.02191,-0.0607 0.00178,-0.06763 -0.018933,-0.0065 -0.024535,-0.0372 -0.012457,-0.06834 0.01625,-0.04165 0.029478,-0.04475 0.050132,-0.0118 0.017584,0.02807 0.046091,-0.0089 0.076168,-0.09877 0.038963,-0.1164421 0.052811,-0.1302556 0.073168,-0.07302 0.021895,0.06157 0.035644,0.05379 0.1075146,-0.060897 0.045319,-0.072321 0.082404,-0.1690428 0.082404,-0.2149354 0,-0.056025 0.017317,-0.076892 0.052664,-0.063508 0.02897,0.010918 0.091446,-0.020817 0.1388481,-0.070541 0.1044305,-0.1096326 0.1643824,-0.1168001 0.13778,-0.016502 -0.014341,0.054153 0.01565,0.03823 0.1117244,-0.059381 0.072242,-0.073356 0.1417177,-0.1231461 0.1544004,-0.1106421 0.012653,0.012481 0.00287,0.042587 -0.021631,0.06684 -0.077564,0.076566 -0.053655,0.149443 0.024836,0.07585 0.038278,-0.035872 0.063239,-0.077059 0.055486,-0.091524 -0.023069,-0.043006 0.1641048,-0.1463985 0.332577,-0.1837316 0.196129,-0.043464 0.3501251,0.00308 0.5154142,0.1560979 0.067543,0.062496 0.1228132,0.1245132 0.1228132,0.1378282 0,0.013326 -0.020455,0.00404 -0.045344,-0.020497 C 7.6464,8.5073591 7.3528361,8.5148641 7.1109609,8.5856891 6.9093567,8.6447341 6.5842166,8.9040365 6.5842166,9.0057779 c 0,0.1506755 0.604096,0.2966535 0.9594976,0.2318635 0.3421755,-0.06238 0.3718822,-0.08882 0.3569674,-0.3175975 -0.00924,-0.1417584 8.879e-4,-0.1957428 0.0361,-0.1956912 0.027561,3.37e-5 0.039517,0.024079 0.027448,0.055142 -0.011811,0.030298 0.00321,0.082002 0.033473,0.1149049 0.030189,0.032906 0.056315,0.076599 0.058049,0.097097 0.00703,0.083785 0.047286,0.1676998 0.080358,0.1676998 0.019431,0 0.035245,-0.01673 0.035245,-0.03727 0,-0.02048 -0.019869,-0.03727 -0.044087,-0.03727 -0.024268,0 -0.033547,-0.01035 -0.020635,-0.02306 0.033154,-0.0327 0.3853698,0.229216 0.4983848,0.370612 0.052012,0.06509 0.094756,0.1005244 0.094989,0.07879 2.353e-4,-0.02177 -0.036322,-0.07848 -0.081245,-0.126019 -0.044943,-0.0476 -0.1444276,-0.2103613 -0.2210949,-0.3617469 l -0.1393962,-0.275242 0.1222752,0.022594 c 0.070366,0.012984 0.1327572,0.0059 0.1469655,-0.016725 0.014181,-0.022687 0.074588,-0.029543 0.1424607,-0.016154 0.088984,0.017573 0.1106051,0.011813 0.088448,-0.02354 -0.023189,-0.036982 -0.012012,-0.03768 0.053101,-0.00328 0.087312,0.046086 0.085473,0.137855 -0.00272,0.122636 -0.028569,-0.00499 -0.010064,0.02023 0.041111,0.055905 0.051192,0.035694 0.118738,0.094243 0.1501038,0.1301084 0.03136,0.035871 0.080573,0.065217 0.1093574,0.065217 0.031757,0 0.043488,0.02271 0.02982,0.05783 -0.014122,0.03624 -0.00701,0.04842 0.018911,0.03259 0.027948,-0.01705 0.033133,0.0035 0.015973,0.063289 -0.017135,0.05963 -0.013972,0.07224 0.00972,0.03864 0.026754,-0.03801 0.05536,-0.01759 0.1201528,0.08581 0.046766,0.07465 0.074955,0.145631 0.062644,0.157775 -0.012337,0.01216 -0.03869,-0.01811 -0.058597,-0.06715 -0.029812,-0.0735 -0.036629,-0.07675 -0.038601,-0.01827 -0.00274,0.06865 -0.005,0.06878 -0.07797,0.0036 -0.095963,-0.08565 -0.1000985,-0.0074 -0.00439,0.08242 0.1108505,0.1037489 0.2270317,0.3131936 0.205056,0.3696714 -0.010927,0.02808 -0.00679,0.08042 0.00927,0.1162567 0.015997,0.03586 0.030592,0.07643 0.032381,0.09007 0.0021,0.01359 0.016026,0.03737 0.03161,0.05286 0.015618,0.01534 0.028347,0.05818 0.028347,0.0951 0,0.04442 0.019224,0.05988 0.056689,0.04568 0.075063,-0.02844 0.071929,0.01407 -0.00684,0.09165 -0.059371,0.05862 -0.059371,0.06327 0,0.07467 0.037813,0.0078 0.063415,0.04717 0.063415,0.09916 0,0.04959 0.045426,0.124832 0.1055752,0.174736 0.1738297,0.144251 0.1784072,0.17516 0.045928,0.309955 l -0.1215071,0.123622 0.2195465,0.204768 c 0.2562917,0.239044 0.2491297,0.272387 -0.090257,0.420419 -0.1744631,0.07609 -0.199174,0.0994 -0.1773255,0.167292 0.138448,0.430195 0.2630525,1.561193 0.1777332,1.613196 -0.02372,0.01456 -0.051126,-0.02472 -0.066964,-0.09572 z M 9.1832519,11.810518 c 0.073763,-0.04617 0.015734,-0.144946 -0.1107172,-0.188415 -0.096232,-0.03307 -0.1354858,-0.02469 -0.2668888,0.0571 -0.1175913,0.07314 -0.1416008,0.103693 -0.1014272,0.128782 0.066156,0.04126 0.4141053,0.0431 0.4790327,0.0029 z m 0.4937764,-0.121211 c 0.1498322,-0.05147 0.1500521,-0.09043 0.00108,-0.166449 -0.1466807,-0.07487 -0.2356571,-0.01437 -0.1817092,0.123511 0.038246,0.09771 0.028301,0.09533 0.1807696,0.04294 z M 7.6798851,11.581152 c 0,-0.02051 -0.029749,-0.03697 -0.066125,-0.03676 -0.056512,5.96e-4 -0.05789,0.0064 -0.0094,0.03676 0.071312,0.0454 0.075573,0.0454 0.075573,0 z m 0.4697071,0.0047 c 0.011447,-0.01824 -0.00462,-0.05374 -0.035553,-0.07905 -0.088778,-0.07271 -0.067451,-0.133478 0.094889,-0.270517 0.1662814,-0.140364 0.1846397,-0.193419 0.085028,-0.245694 -0.050396,-0.02648 -0.1380485,0.009 -0.3684374,0.147004 -0.1662704,0.09994 -0.3235649,0.182042 -0.3495446,0.182454 -0.1004954,0.002 -0.038918,0.07513 0.1511547,0.18058 0.1984826,0.110076 0.3835217,0.147421 0.4224732,0.08522 z m 0.4601401,-0.08031 c 0.1102181,-0.04128 0.1134966,-0.07817 0.014767,-0.166245 -0.073071,-0.06514 -0.080239,-0.06508 -0.2106013,0.0038 -0.3507835,0.184646 -0.1990495,0.310727 0.1958083,0.162679 z m -1.8804604,-0.72368 c 0.025568,-0.129249 -0.055877,-0.147271 -0.2660336,-0.0589 -0.2462301,0.103581 -0.2337316,0.09122 -0.1845042,0.181976 0.040295,0.07427 0.044054,0.07442 0.2392405,0.0094 0.1244869,-0.04169 0.2031428,-0.0909 0.2112973,-0.132093 z m 0.2813749,-0.06283 c 0.087502,-0.04372 0.1695014,-0.09547 0.1822153,-0.114981 0.012707,-0.01944 0.03549,-0.03202 0.050603,-0.02781 0.041623,0.01146 0.3629828,-0.234312 0.4035309,-0.308707 0.047955,-0.08799 0.032189,-0.08441 -0.2609175,0.05972 -0.139767,0.06878 -0.3348976,0.154849 -0.4336208,0.191399 -0.1392366,0.05151 -0.179495,0.08484 -0.179495,0.148341 0,0.07441 0.028033,0.131586 0.06449,0.131586 0.00771,0 0.085697,-0.03577 0.1731954,-0.07951 z M 5.4503727,10.463151 c 0,-0.02051 -0.016986,-0.0372 -0.037787,-0.0372 -0.020788,0 -0.03779,0.0168 -0.03779,0.0372 0,0.02051 0.016986,0.0372 0.03779,0.0372 0.020788,0 0.037787,-0.0168 0.037787,-0.0372 z M 8.7259844,9.5990248 c -0.012039,-0.02971 -0.021052,-0.02091 -0.022817,0.02254 -0.00179,0.03922 0.00719,0.06123 0.019873,0.04893 0.01255,-0.01244 0.013894,-0.04457 0.00292,-0.07137 z M 8.2742649,9.2108208 c -0.01255,-0.01242 -0.045147,-0.01369 -0.072431,-0.0029 -0.030145,0.01191 -0.021155,0.02075 0.022811,0.02251 0.039837,0.0018 0.062149,-0.0071 0.049594,-0.01956 z M 6.2061391,9.0470011 c 0,-0.02048 -0.00746,-0.037271 -0.0167,-0.037271 -0.00916,0 -0.027169,0.016728 -0.040022,0.037271 -0.012867,0.02048 -0.00528,0.03727 0.016703,0.03727 0.022036,0 0.040019,-0.01673 0.040019,-0.03727 z m 0.075572,-0.1534668 c 0,-0.020478 -0.016986,-0.026895 -0.037786,-0.014228 -0.020783,0.012675 -0.037789,0.039801 -0.037789,0.060298 0,0.020481 0.016986,0.026898 0.037789,0.014228 0.020788,-0.012675 0.037786,-0.0398 0.037786,-0.060298 z m 2.3806693,-0.055851 c 0,-0.00781 -0.043511,-0.014287 -0.096702,-0.014287 -0.053183,0 -0.087177,0.015168 -0.075533,0.033768 0.019394,0.030895 0.1722397,0.013585 0.1722397,-0.019461 z M 7.506781,9.0793923 c -0.03221,-0.05139 0.041762,-0.1222803 0.094237,-0.090301 0.022635,0.013764 0.041087,0.039027 0.041087,0.056114 0,0.04957 -0.1084958,0.07698 -0.1353165,0.03418 z M 5.4125854,8.9352007 c 0,-0.020485 0.017978,-0.03727 0.04002,-0.03727 0.022036,0 0.029514,0.016725 0.0167,0.03727 -0.012871,0.020478 -0.030856,0.037269 -0.040021,0.037269 -0.00916,0 -0.016698,-0.016725 -0.0167,-0.037269 z"
       id="path1-3-3-6" />
  </g>
</svg>
