<?xml version="1.0" encoding="UTF-8" standalone="no"?>
<!-- Created with Inkscape (http://www.inkscape.org/) -->

<svg
   width="64"
   height="64"
   viewBox="0 0 16.933333 16.933333"
   version="1.1"
   id="svg1"
   inkscape:version="1.4.2 (unknown)"
   sodipodi:docname="folder-github.svg"
   xmlns:inkscape="http://www.inkscape.org/namespaces/inkscape"
   xmlns:sodipodi="http://sodipodi.sourceforge.net/DTD/sodipodi-0.dtd"
   xmlns:xlink="http://www.w3.org/1999/xlink"
   xmlns="http://www.w3.org/2000/svg"
   xmlns:svg="http://www.w3.org/2000/svg">
  <sodipodi:namedview
     id="namedview1"
     pagecolor="#ffffff"
     bordercolor="#000000"
     borderopacity="0.25"
     inkscape:showpageshadow="2"
     inkscape:pageopacity="0.0"
     inkscape:pagecheckerboard="0"
     inkscape:deskcolor="#d1d1d1"
     inkscape:document-units="px"
     inkscape:zoom="9.120116"
     inkscape:cx="30.64654"
     inkscape:cy="29.111472"
     inkscape:current-layer="layer1"
     showgrid="true"
     showguides="false">
    <inkscape:grid
       id="grid1"
       units="px"
       originx="0"
       originy="0"
       spacingx="0.26458333"
       spacingy="0.26458333"
       empcolor="#0099e5"
       empopacity="0.30196078"
       color="#0099e5"
       opacity="0.14901961"
       empspacing="5"
       enabled="true"
       visible="true" />
  </sodipodi:namedview>
  <defs
     id="defs1">
    <linearGradient
       id="linearGradient4"
       inkscape:collect="always">
      <stop
         style="stop-color:#dc8add;stop-opacity:1"
         offset="0"
         id="stop4" />
      <stop
         style="stop-color:#99c1f1;stop-opacity:1"
         offset="0.42100537"
         id="stop6" />
      <stop
         style="stop-color:#cdab8f;stop-opacity:1"
         offset="1"
         id="stop5" />
    </linearGradient>
    <linearGradient
       inkscape:collect="always"
       xlink:href="#linearGradient4"
       id="linearGradient5"
       x1="2.2225001"
       y1="0.3837086"
       x2="13.334999"
       y2="14.142041"
       gradientUnits="userSpaceOnUse"
       gradientTransform="translate(0.42333307,-0.11912529)" />
  </defs>
  <g
     inkscape:label="Layer 1"
     inkscape:groupmode="layer"
     id="layer1">
    <rect
       x="2.2871437"
       y="0.52850062"
       style="clip-rule:evenodd;opacity:0.2;fill:#000000;fill-opacity:1;fill-rule:evenodd;stroke-width:0.264585"
       width="12.661815"
       height="13.195868"
       id="rect29"
       ry="0.79374999"
       rx="1.1906257" />
    <rect
       x="2.253372"
       y="0.26458335"
       style="clip-rule:evenodd;fill:url(#linearGradient5);fill-rule:evenodd;stroke-width:0.264587"
       width="12.426589"
       height="13.723703"
       id="rect30"
       ry="1.0583333"
       rx="1.1862109" />
    <path
       style="clip-rule:evenodd;opacity:0.2;fill:#000000;fill-opacity:1;fill-rule:evenodd;stroke-width:0.264586"
       d="m 3.1403083,0.5616023 9.3573277,1.2404109 c 0.500171,0.066303 0.96613,0.4009401 0.955781,0.870927 l -0.01625,0.7381328 0.01625,0.7215647 c 0.0039,0.1758939 -0.04649,0.2573225 -0.196997,0.3109292 l -0.335496,0.1195263 c -0.166565,0.05937 -0.252132,0.2077206 -0.252132,0.420295 v 2.4947475 c 0,0.2124755 0.08562,0.3608818 0.252132,0.4202447 l 0.335496,0.1195273 c 0.150506,0.053605 0.180746,0.1349932 0.180746,0.3109288 v 0.7215617 l 0.01625,6.6337588 c 0.0013,0.514902 -0.658166,1.05807 -1.220935,0.976393 L 3.1403083,15.340964 C 2.6410549,15.268505 2.2229842,14.956307 2.2229842,14.486161 V 1.4164584 c 0,-0.47014813 0.4172574,-0.92114478 0.9173241,-0.8548561 z"
       id="path31-3"
       sodipodi:nodetypes="ssscsccssccscssssss" />
    <path
       style="clip-rule:evenodd;fill:#36485c;fill-opacity:1;fill-rule:evenodd;stroke-width:0.264586"
       d="M 2.9016988,0.27109187 12.259021,1.511504 c 0.50017,0.066303 0.96613,0.4009392 0.955781,0.8709263 l -0.01625,0.7381324 0.01625,0.7215652 c 0.0039,0.1758942 -0.0465,0.2573227 -0.196997,0.3109294 l -0.335497,0.1195264 c -0.166565,0.05937 -0.252132,0.2077209 -0.252132,0.4202955 v 2.4947469 c 0,0.2124778 0.08562,0.3608833 0.252132,0.4202466 l 0.335497,0.1195283 c 0.150505,0.053605 0.180746,0.1349924 0.180746,0.3109294 v 0.7215602 l 0.01625,6.8184034 c 0.0011,0.470196 -0.482614,0.858478 -0.955781,0.791752 L 2.9016988,15.050459 C 2.4021543,14.980016 1.9843748,14.665802 1.9843748,14.195656 V 1.1259489 c 0,-0.47014879 0.4172574,-0.92114576 0.917324,-0.85485703 z"
       id="path31-1-3"
       sodipodi:nodetypes="ssscsccssccscssssss" />
    <path
       d="m 6.6728669,13.570657 a 0.22243205,0.22460835 0 0 0 0.1355723,-0.06557 0.21918477,0.22132928 0 0 0 0.060883,-0.113931 c 0.00489,-0.02462 0.00571,-0.05165 0.00489,-0.29512 V 12.855861 L 6.7134489,12.855647 A 8.9321927,9.0195826 0 0 1 6.5169938,12.851347 1.4661038,1.4804487 0 0 1 6.357881,12.830827 C 6.1744128,12.795411 6.0307241,12.726551 5.9276262,12.62491 A 0.57231613,0.57791563 0 0 1 5.7879948,12.39446 0.99526171,1.0049991 0 0 0 5.5412072,12.005917 1.738054,1.755059 0 0 0 5.3707358,11.855906 c -0.084423,-0.069 -0.1055276,-0.09277 -0.1055276,-0.114072 0,-0.01397 0.00979,-0.02461 0.038152,-0.0377 a 0.25328038,0.25575833 0 0 1 0.125018,-0.02538 0.40589819,0.40986917 0 0 1 0.1753493,0.05 c 0.074685,0.03855 0.1518044,0.09755 0.2329869,0.177885 0.049513,0.04917 0.085233,0.08935 0.1412483,0.159839 0.170478,0.213136 0.2784474,0.293482 0.4334982,0.319692 0.045464,0.0085 0.064943,0.01005 0.1445008,0.01005 a 0.89297531,0.90171197 0 0 0 0.1404415,-0.0075 0.58611663,0.59185095 0 0 0 0.1639837,-0.04096 l 0.013785,-0.0066 5.951e-4,-0.02787 a 0.57150425,0.57709576 0 0 1 0.2500491,-0.466265 c 0,0 -0.00319,-2.15e-4 -0.00815,-2.15e-4 A 3.6887997,3.7248916 0 0 1 6.990834,11.823842 2.1561302,2.1772237 0 0 1 6.2374928,11.532848 1.3597575,1.3730615 0 0 1 5.9184554,11.247571 1.3053686,1.3181406 0 0 1 5.6416329,10.562267 2.0725146,2.0927926 0 0 1 5.6383913,10.127816 c 0.030849,-0.3303562 0.135568,-0.6147949 0.314977,-0.8607269 0.0032,-0.0042 0.0032,-0.0042 -0.00489,-0.03524 a 1.7226301,1.7394841 0 0 1 0.016235,-0.9362054 l 0.00321,-0.012313 h 0.029228 c 0.1217705,5.95e-4 0.2800726,0.037708 0.4318764,0.09919 A 1.7672789,1.784569 0 0 1 6.8698715,8.6431892 2.913536,2.9420407 0 0 1 7.5014538,8.5218718 c 0.095788,-0.00819 0.1656064,-0.010639 0.2792518,-0.010639 a 3.0442321,3.0740186 0 0 1 0.8848513,0.1229564 l 0.026798,0.00821 0.024339,-0.018018 c 0.033297,-0.027052 0.05684,-0.044262 0.099055,-0.072139 0.2402945,-0.162299 0.5179268,-0.262307 0.7468533,-0.269684 l 0.03094,-0.0011 0.0026,0.00901 0.0089,0.035249 a 1.7551025,1.7722747 0 0 1 0.0041,0.9189179 1.5773199,1.5927511 0 0 1 0.2735671,0.5467617 c 0.04383,0.153302 0.0666,0.3073902 0.07228,0.4902212 0.0053,0.183597 -0.0155,0.357388 -0.06008,0.513145 a 1.2428589,1.2550196 0 0 1 -0.3735156,0.597585 c -0.2029921,0.180326 -0.4619495,0.309844 -0.7899145,0.395105 a 3.2341934,3.2658364 0 0 1 -0.2922481,0.06064 c -2.135e-4,10e-5 0.00573,0.0065 0.014602,0.01401 a 0.60072878,0.60660616 0 0 1 0.1542414,0.172132 c 0.032466,0.05736 0.05845,0.127052 0.068999,0.19427 0.00892,0.05246 0.00807,0.0056 0.00979,0.600059 0,0.50823 0,0.545104 0.00319,0.557412 a 0.23055003,0.23280568 0 0 0 0.035715,0.08855 0.2313618,0.23362536 0 0 0 0.1664133,0.09838 c 0.00652,1.02e-4 -0.4935786,2.13e-4 -1.1121609,2.13e-4 -0.921394,0 -1.120282,0 -1.1072944,-0.0027 z"
       id="path6-6-3"
       style="fill:#8c98a6;fill-opacity:1;stroke-width:0.288838" />
  </g>
</svg>
