<?xml version="1.0" encoding="UTF-8" standalone="no"?>
<!-- Created with Inkscape (http://www.inkscape.org/) -->

<svg
   width="64"
   height="64"
   viewBox="0 0 16.933333 16.933333"
   version="1.1"
   id="svg1"
   inkscape:version="1.4.2 (unknown)"
   sodipodi:docname="folder-comic.svg"
   xmlns:inkscape="http://www.inkscape.org/namespaces/inkscape"
   xmlns:sodipodi="http://sodipodi.sourceforge.net/DTD/sodipodi-0.dtd"
   xmlns:xlink="http://www.w3.org/1999/xlink"
   xmlns="http://www.w3.org/2000/svg"
   xmlns:svg="http://www.w3.org/2000/svg">
  <sodipodi:namedview
     id="namedview1"
     pagecolor="#ffffff"
     bordercolor="#000000"
     borderopacity="0.25"
     inkscape:showpageshadow="2"
     inkscape:pageopacity="0.0"
     inkscape:pagecheckerboard="0"
     inkscape:deskcolor="#d1d1d1"
     inkscape:document-units="px"
     inkscape:zoom="9.120116"
     inkscape:cx="31.249603"
     inkscape:cy="32.729847"
     inkscape:current-layer="layer1"
     showgrid="true"
     showguides="false">
    <inkscape:grid
       id="grid1"
       units="px"
       originx="0"
       originy="0"
       spacingx="0.26458333"
       spacingy="0.26458333"
       empcolor="#0099e5"
       empopacity="0.30196078"
       color="#0099e5"
       opacity="0.14901961"
       empspacing="5"
       enabled="true"
       visible="true" />
  </sodipodi:namedview>
  <defs
     id="defs1">
    <linearGradient
       id="linearGradient4"
       inkscape:collect="always">
      <stop
         style="stop-color:#febc85;stop-opacity:1"
         offset="0"
         id="stop4" />
      <stop
         style="stop-color:#c6afe9;stop-opacity:1"
         offset="0.42100537"
         id="stop6" />
      <stop
         style="stop-color:#3cb1c3;stop-opacity:1"
         offset="1"
         id="stop5" />
    </linearGradient>
    <linearGradient
       inkscape:collect="always"
       xlink:href="#linearGradient4"
       id="linearGradient5"
       x1="6.1912498"
       y1="0.91287524"
       x2="13.334999"
       y2="14.142041"
       gradientUnits="userSpaceOnUse"
       gradientTransform="translate(0.42333307,-0.11912529)" />
  </defs>
  <g
     inkscape:label="Layer 1"
     inkscape:groupmode="layer"
     id="layer1">
    <rect
       x="2.2871437"
       y="0.52850062"
       style="clip-rule:evenodd;opacity:0.2;fill:#000000;fill-opacity:1;fill-rule:evenodd;stroke-width:0.264585"
       width="12.661815"
       height="13.195868"
       id="rect29"
       ry="0.79374999"
       rx="1.1906257" />
    <rect
       x="2.253372"
       y="0.26458335"
       style="clip-rule:evenodd;fill:url(#linearGradient5);fill-rule:evenodd;stroke-width:0.264587"
       width="12.426589"
       height="13.723703"
       id="rect30"
       ry="1.0583333"
       rx="1.1862109" />
    <path
       style="clip-rule:evenodd;opacity:0.2;fill:#000000;fill-opacity:1;fill-rule:evenodd;stroke-width:0.264586"
       d="m 3.1403083,0.5616023 9.3573277,1.2404109 c 0.500171,0.066303 0.96613,0.4009401 0.955781,0.870927 l -0.01625,0.7381328 0.01625,0.7215647 c 0.0039,0.1758939 -0.04649,0.2573225 -0.196997,0.3109292 l -0.335496,0.1195263 c -0.166565,0.05937 -0.252132,0.2077206 -0.252132,0.420295 v 2.4947475 c 0,0.2124755 0.08562,0.3608818 0.252132,0.4202447 l 0.335496,0.1195273 c 0.150506,0.053605 0.180746,0.1349932 0.180746,0.3109288 v 0.7215617 l 0.01625,6.6337588 c 0.0013,0.514902 -0.658166,1.05807 -1.220935,0.976393 L 3.1403083,15.340964 C 2.6410549,15.268505 2.2229842,14.956307 2.2229842,14.486161 V 1.4164584 c 0,-0.47014813 0.4172574,-0.92114478 0.9173241,-0.8548561 z"
       id="path31-3"
       sodipodi:nodetypes="ssscsccssccscssssss" />
    <path
       style="clip-rule:evenodd;fill:#36485c;fill-opacity:1;fill-rule:evenodd;stroke-width:0.264586"
       d="M 2.9016988,0.27109187 12.259021,1.511504 c 0.50017,0.066303 0.96613,0.4009392 0.955781,0.8709263 l -0.01625,0.7381324 0.01625,0.7215652 c 0.0039,0.1758942 -0.0465,0.2573227 -0.196997,0.3109294 l -0.335497,0.1195264 c -0.166565,0.05937 -0.252132,0.2077209 -0.252132,0.4202955 v 2.4947469 c 0,0.2124778 0.08562,0.3608833 0.252132,0.4202466 l 0.335497,0.1195283 c 0.150505,0.053605 0.180746,0.1349924 0.180746,0.3109294 v 0.7215602 l 0.01625,6.8184034 c 0.0011,0.470196 -0.482614,0.858478 -0.955781,0.791752 L 2.9016988,15.050459 C 2.4021543,14.980016 1.9843748,14.665802 1.9843748,14.195656 V 1.1259489 c 0,-0.47014879 0.4172574,-0.92114576 0.917324,-0.85485703 z"
       id="path31-1-3"
       sodipodi:nodetypes="ssscsccssccscssssss" />
    <g
       transform="matrix(0.24694647,0,0,0.24804609,11.257204,-0.22577858)"
       id="g26"
       style="stroke-width:0.799819">
      <path
         d="m -14.568,34.297 c -2.8416,0 -5.567,1.1237 -7.5761,3.1242 -2.0094,2.0003 -3.1381,4.7134 -3.1381,7.5425 0,2.829 1.1288,5.5423 3.1381,7.5425 2.0092,2.0005 4.7345,3.1242 7.5761,3.1242 2.8416,0 5.567,-1.1237 7.5761,-3.1242 2.0094,-2.0003 3.1381,-4.7134 3.1381,-7.5425 0,-1.8724 -0.49511,-3.7117 -1.4354,-5.3333 -0.94042,-1.6216 -2.2929,-2.968 -3.9217,-3.9043 -1.6288,-0.93609 -3.4764,-1.429 -5.3571,-1.429 z m 7.1428,14.85 c 0,0.25262 -0.10074,0.49474 -0.2801,0.67331 -0.17934,0.17853 -0.42253,0.27884 -0.6763,0.27884 h -3.738 l -2.123,2.9946 c -0.07422,0.10582 -0.19562,0.16897 -0.32537,0.16897 -0.12972,0 -0.2511,-0.06317 -0.32534,-0.16897 l -2.123,-2.9946 h -3.738 c -0.25374,0 -0.49694,-0.10029 -0.6763,-0.27884 -0.17935,-0.17855 -0.2801,-0.42067 -0.2801,-0.67331 v -9.1575 c 0,-0.25263 0.10074,-0.49474 0.2801,-0.6733 0.17934,-0.17855 0.42254,-0.27885 0.6763,-0.27885 h 12.373 c 0.25375,0 0.49694,0.10025 0.6763,0.27885 0.17934,0.17854 0.28011,0.42066 0.28011,0.6733 z"
         style="fill:#8c98a6;fill-opacity:1;stroke-width:0.0316681"
         id="path25" />
      <path
         d="m -8.3815,39.828 h -12.373 c -0.0899,0 -0.16275,0.07248 -0.16275,0.16204 v 9.1575 c 0,0.08949 0.0728,0.16204 0.16275,0.16204 h 3.9443 c 0.12912,-6.18e-4 0.25049,0.06134 0.32537,0.16588 l 1.9167,2.7062 1.9167,-2.7062 c 0.07489,-0.10468 0.19625,-0.1665 0.32536,-0.16588 h 3.9443 c 0.04316,0 0.0846,-0.01713 0.11517,-0.04739 0.0303,-0.03037 0.0476,-0.07158 0.0476,-0.11466 v -9.1575 c 0,-0.08949 -0.0728,-0.16204 -0.16276,-0.16204 z m -6.1865,7.1111 h -4.365 c -0.21918,0 -0.39681,-0.17684 -0.39681,-0.39505 0,-0.21821 0.17763,-0.39506 0.39681,-0.39506 h 4.365 c 0.21918,0 0.39681,0.17685 0.39681,0.39506 0,0.2182 -0.17763,0.39505 -0.39681,0.39505 z m 4.365,-1.9753 h -8.7301 c -0.21918,0 -0.39681,-0.17685 -0.39681,-0.39506 0,-0.21821 0.17763,-0.39506 0.39681,-0.39506 h 8.7301 c 0.21918,0 0.39683,0.17685 0.39683,0.39506 0,0.21821 -0.17765,0.39506 -0.39683,0.39506 z m 0,-1.9753 h -8.7301 c -0.21918,0 -0.39681,-0.17686 -0.39681,-0.39507 0,-0.2182 0.17763,-0.39506 0.39681,-0.39506 h 8.7301 c 0.21918,0 0.39683,0.17686 0.39683,0.39506 0,0.2182 -0.17765,0.39507 -0.39683,0.39507 z"
         style="fill:#8c98a6;fill-opacity:1;stroke-width:0.0316681"
         id="path26" />
    </g>
  </g>
</svg>
