<?xml version="1.0" encoding="UTF-8" standalone="no"?>
<!-- Created with Inkscape (http://www.inkscape.org/) -->

<svg
   width="64"
   height="64"
   viewBox="0 0 16.933333 16.933333"
   version="1.1"
   id="svg1"
   inkscape:version="1.4.2 (unknown)"
   sodipodi:docname="folder-encrypted.svg"
   xmlns:inkscape="http://www.inkscape.org/namespaces/inkscape"
   xmlns:sodipodi="http://sodipodi.sourceforge.net/DTD/sodipodi-0.dtd"
   xmlns:xlink="http://www.w3.org/1999/xlink"
   xmlns="http://www.w3.org/2000/svg"
   xmlns:svg="http://www.w3.org/2000/svg">
  <sodipodi:namedview
     id="namedview1"
     pagecolor="#ffffff"
     bordercolor="#000000"
     borderopacity="0.25"
     inkscape:showpageshadow="2"
     inkscape:pageopacity="0.0"
     inkscape:pagecheckerboard="0"
     inkscape:deskcolor="#d1d1d1"
     inkscape:document-units="px"
     inkscape:zoom="9.120116"
     inkscape:cx="28.453585"
     inkscape:cy="42.159551"
     inkscape:current-layer="layer1"
     showgrid="true"
     showguides="false">
    <inkscape:grid
       id="grid1"
       units="px"
       originx="0"
       originy="0"
       spacingx="0.26458333"
       spacingy="0.26458333"
       empcolor="#0099e5"
       empopacity="0.30196078"
       color="#0099e5"
       opacity="0.14901961"
       empspacing="5"
       enabled="true"
       visible="true" />
  </sodipodi:namedview>
  <defs
     id="defs1">
    <linearGradient
       id="linearGradient4"
       inkscape:collect="always">
      <stop
         style="stop-color:#ff8b8b;stop-opacity:1;"
         offset="0"
         id="stop4" />
      <stop
         style="stop-color:#a783dd;stop-opacity:1;"
         offset="0.42100537"
         id="stop6" />
      <stop
         style="stop-color:#ff5353;stop-opacity:1;"
         offset="1"
         id="stop5" />
    </linearGradient>
    <linearGradient
       inkscape:collect="always"
       xlink:href="#linearGradient4"
       id="linearGradient5"
       x1="2.2225001"
       y1="0.3837086"
       x2="13.334999"
       y2="14.142041"
       gradientUnits="userSpaceOnUse"
       gradientTransform="translate(0.42333307,-0.11912529)" />
  </defs>
  <g
     inkscape:label="Layer 1"
     inkscape:groupmode="layer"
     id="layer1">
    <rect
       x="2.2871437"
       y="0.52850062"
       style="clip-rule:evenodd;opacity:0.2;fill:#000000;fill-opacity:1;fill-rule:evenodd;stroke-width:0.264585"
       width="12.661815"
       height="13.195868"
       id="rect29"
       ry="0.79374999"
       rx="1.1906257" />
    <rect
       x="2.253372"
       y="0.26458335"
       style="clip-rule:evenodd;fill:url(#linearGradient5);fill-rule:evenodd;stroke-width:0.264587"
       width="12.426589"
       height="13.723703"
       id="rect30"
       ry="1.0583333"
       rx="1.1862109" />
    <path
       style="clip-rule:evenodd;opacity:0.2;fill:#000000;fill-opacity:1;fill-rule:evenodd;stroke-width:0.264586"
       d="m 3.1403083,0.5616023 9.3573277,1.2404109 c 0.500171,0.066303 0.96613,0.4009401 0.955781,0.870927 l -0.01625,0.7381328 0.01625,0.7215647 c 0.0039,0.1758939 -0.04649,0.2573225 -0.196997,0.3109292 l -0.335496,0.1195263 c -0.166565,0.05937 -0.252132,0.2077206 -0.252132,0.420295 v 2.4947475 c 0,0.2124755 0.08562,0.3608818 0.252132,0.4202447 l 0.335496,0.1195273 c 0.150506,0.053605 0.180746,0.1349932 0.180746,0.3109288 v 0.7215617 l 0.01625,6.6337588 c 0.0013,0.514902 -0.658166,1.05807 -1.220935,0.976393 L 3.1403083,15.340964 C 2.6410549,15.268505 2.2229842,14.956307 2.2229842,14.486161 V 1.4164584 c 0,-0.47014813 0.4172574,-0.92114478 0.9173241,-0.8548561 z"
       id="path31-3"
       sodipodi:nodetypes="ssscsccssccscssssss" />
    <path
       style="clip-rule:evenodd;fill:#36485c;fill-opacity:1;fill-rule:evenodd;stroke-width:0.264586"
       d="M 2.9016988,0.27109187 12.259021,1.511504 c 0.50017,0.066303 0.96613,0.4009392 0.955781,0.8709263 l -0.01625,0.7381324 0.01625,0.7215652 c 0.0039,0.1758942 -0.0465,0.2573227 -0.196997,0.3109294 l -0.335497,0.1195264 c -0.166565,0.05937 -0.252132,0.2077209 -0.252132,0.4202955 v 2.4947469 c 0,0.2124778 0.08562,0.3608833 0.252132,0.4202466 l 0.335497,0.1195283 c 0.150505,0.053605 0.180746,0.1349924 0.180746,0.3109294 v 0.7215602 l 0.01625,6.8184034 c 0.0011,0.470196 -0.482614,0.858478 -0.955781,0.791752 L 2.9016988,15.050459 C 2.4021543,14.980016 1.9843748,14.665802 1.9843748,14.195656 V 1.1259489 c 0,-0.47014879 0.4172574,-0.92114576 0.917324,-0.85485703 z"
       id="path31-1-3"
       sodipodi:nodetypes="ssscsccssccscssssss" />
    <g
       transform="matrix(0.2469456,0,0,0.24804737,15.028982,2.3628148)"
       id="g30"
       style="stroke-width:1.5987">
      <path
         d="m -19.966,30.39 c -0.5339,-1.2653 -1.3219,-2.4041 -2.2877,-3.391 -0.99138,-0.98696 -2.1352,-1.7462 -3.4062,-2.2775 -1.322,-0.55692 -2.72,-0.86056 -4.169,-0.86056 -1.449,0 -2.847,0.30363 -4.1688,0.86038 -1.271,0.53152 -2.4148,1.316 -3.4062,2.2775 -0.99138,0.98696 -1.754,2.1257 -2.2877,3.391 -0.55942,1.3162 -0.86441,2.7079 -0.86441,4.1505 0,1.4426 0.30498,2.8343 0.86423,4.1503 0.53389,1.2653 1.3219,2.4041 2.2877,3.391 0.99136,0.98695 2.1352,1.7462 3.4062,2.2775 1.3219,0.55674 2.72,0.83511 4.1688,0.83511 1.449,0 2.8469,-0.27838 4.1688,-0.83511 1.271,-0.53154 2.4148,-1.316 3.4062,-2.2775 0.99136,-0.98697 1.754,-2.1257 2.2877,-3.391 0.55923,-1.316 0.83884,-2.7079 0.83884,-4.1503 3.7e-4,-1.4426 -0.27926,-2.8343 -0.83853,-4.1503 z"
         style="fill:#8c98a6;fill-opacity:1;stroke-width:0.0724082"
         id="path29" />
      <path
         transform="translate(-49.043,-9.3234)"
         d="m 22.888,42.812 v -1.8938 c 0,-1.9115 -1.6541,-3.4667 -3.687,-3.4667 -2.0329,0 -3.687,1.5552 -3.687,3.4667 v 1.8938 c -0.64669,0.12375 -1.1345,0.6624 -1.1345,1.3062 v 4.8 c 9.6e-5,0.73491 0.63593,1.3333 1.4181,1.3333 h 6.8067 c 0.78218,0 1.418,-0.5984 1.418,-1.3333 v -4.8 c 0,-0.64375 -0.48781,-1.1824 -1.1344,-1.3062 z m -5.6724,-1.8938 c 0,-1.0294 0.89053,-1.8667 1.9853,-1.8667 1.0948,0 1.9853,0.83732 1.9853,1.8667 v 1.8666 h -3.9705 z"
         style="fill:#36485c;stroke-width:0.0376845;fill-opacity:1"
         id="path30" />
    </g>
  </g>
</svg>
