<?xml version="1.0" encoding="UTF-8" standalone="no"?>
<!-- Created with Inkscape (http://www.inkscape.org/) -->

<svg
   width="64"
   height="64"
   viewBox="0 0 16.933333 16.933333"
   version="1.1"
   id="svg1"
   inkscape:version="1.4.2 (unknown)"
   sodipodi:docname="folder-development.svg"
   xmlns:inkscape="http://www.inkscape.org/namespaces/inkscape"
   xmlns:sodipodi="http://sodipodi.sourceforge.net/DTD/sodipodi-0.dtd"
   xmlns:xlink="http://www.w3.org/1999/xlink"
   xmlns="http://www.w3.org/2000/svg"
   xmlns:svg="http://www.w3.org/2000/svg">
  <sodipodi:namedview
     id="namedview1"
     pagecolor="#ffffff"
     bordercolor="#000000"
     borderopacity="0.25"
     inkscape:showpageshadow="2"
     inkscape:pageopacity="0.0"
     inkscape:pagecheckerboard="0"
     inkscape:deskcolor="#d1d1d1"
     inkscape:document-units="px"
     inkscape:zoom="6.4488959"
     inkscape:cx="35.742552"
     inkscape:cy="50.473756"
     inkscape:current-layer="layer1"
     showgrid="true"
     showguides="false">
    <inkscape:grid
       id="grid1"
       units="px"
       originx="0"
       originy="0"
       spacingx="0.26458333"
       spacingy="0.26458333"
       empcolor="#0099e5"
       empopacity="0.30196078"
       color="#0099e5"
       opacity="0.14901961"
       empspacing="5"
       enabled="true"
       visible="true" />
  </sodipodi:namedview>
  <defs
     id="defs1">
    <linearGradient
       id="linearGradient4"
       inkscape:collect="always">
      <stop
         style="stop-color:#aa87de;stop-opacity:1"
         offset="0"
         id="stop4" />
      <stop
         style="stop-color:#ffccaa;stop-opacity:1"
         offset="0.55769229"
         id="stop6" />
      <stop
         style="stop-color:#80e5ff;stop-opacity:1"
         offset="1"
         id="stop5" />
    </linearGradient>
    <linearGradient
       inkscape:collect="always"
       xlink:href="#linearGradient4"
       id="linearGradient5"
       x1="2.2225001"
       y1="0.3837086"
       x2="13.334999"
       y2="14.142041"
       gradientUnits="userSpaceOnUse"
       gradientTransform="translate(0.42333307,-0.11912529)" />
  </defs>
  <g
     inkscape:label="Layer 1"
     inkscape:groupmode="layer"
     id="layer1">
    <rect
       x="2.2871437"
       y="0.52850062"
       style="clip-rule:evenodd;opacity:0.2;fill:#000000;fill-opacity:1;fill-rule:evenodd;stroke-width:0.264585"
       width="12.661815"
       height="13.195868"
       id="rect29"
       ry="0.79374999"
       rx="1.1906257" />
    <rect
       x="2.253372"
       y="0.26458335"
       style="clip-rule:evenodd;fill:url(#linearGradient5);fill-rule:evenodd;stroke-width:0.264587"
       width="12.426589"
       height="13.723703"
       id="rect30"
       ry="1.0583333"
       rx="1.1862109" />
    <path
       style="clip-rule:evenodd;opacity:0.2;fill:#000000;fill-opacity:1;fill-rule:evenodd;stroke-width:0.264586"
       d="m 3.1403083,0.5616023 9.3573277,1.2404109 c 0.500171,0.066303 0.96613,0.4009401 0.955781,0.870927 l -0.01625,0.7381328 0.01625,0.7215647 c 0.0039,0.1758939 -0.04649,0.2573225 -0.196997,0.3109292 l -0.335496,0.1195263 c -0.166565,0.05937 -0.252132,0.2077206 -0.252132,0.420295 v 2.4947475 c 0,0.2124755 0.08562,0.3608818 0.252132,0.4202447 l 0.335496,0.1195273 c 0.150506,0.053605 0.180746,0.1349932 0.180746,0.3109288 v 0.7215617 l 0.01625,6.6337588 c 0.0013,0.514902 -0.658166,1.05807 -1.220935,0.976393 L 3.1403083,15.340964 C 2.6410549,15.268505 2.2229842,14.956307 2.2229842,14.486161 V 1.4164584 c 0,-0.47014813 0.4172574,-0.92114478 0.9173241,-0.8548561 z"
       id="path31-3"
       sodipodi:nodetypes="ssscsccssccscssssss" />
    <path
       style="clip-rule:evenodd;fill:#36485c;fill-opacity:1;fill-rule:evenodd;stroke-width:0.264586"
       d="M 2.9016988,0.27109187 12.259021,1.511504 c 0.50017,0.066303 0.96613,0.4009392 0.955781,0.8709263 l -0.01625,0.7381324 0.01625,0.7215652 c 0.0039,0.1758942 -0.0465,0.2573227 -0.196997,0.3109294 l -0.335497,0.1195264 c -0.166565,0.05937 -0.252132,0.2077209 -0.252132,0.4202955 v 2.4947469 c 0,0.2124778 0.08562,0.3608833 0.252132,0.4202466 l 0.335497,0.1195283 c 0.150505,0.053605 0.180746,0.1349924 0.180746,0.3109294 v 0.7215602 l 0.01625,6.8184034 c 0.0011,0.470196 -0.482614,0.858478 -0.955781,0.791752 L 2.9016988,15.050459 C 2.4021543,14.980016 1.9843748,14.665802 1.9843748,14.195656 V 1.1259489 c 0,-0.47014879 0.4172574,-0.92114576 0.917324,-0.85485703 z"
       id="path31-1-3"
       sodipodi:nodetypes="ssscsccssccscssssss" />
    <g
       id="g2"
       transform="matrix(0.83474995,0,0,0.83333328,1.9528847,-5.8425184)"
       style="stroke-width:1.199">
      <g
         id="g2-9-0-6"
         transform="matrix(0.03183647,0.01812677,-0.01781696,0.03129225,5.8822844,15.143403)"
         style="fill:#f9f9f9;fill-opacity:0.5;stroke-width:3.66643">
        <path
           id="path1-9-2"
           d="m 150.294,39.6925 h -10.781 c -0.808,-2.8483 -1.995,-5.5067 -3.467,-7.9753 l 7.694,-7.6904 c 1.472,-1.4716 1.472,-3.8452 0,-5.2693 l -6.459,-6.4562 c -1.425,-1.519 -3.8,-1.519 -5.225,-0.0474 l -7.789,7.7853 c -2.47,-1.4241 -5.082,-2.5635 -7.885,-3.323 V 5.75026 C 116.382,3.70898 114.72,2 112.63,2 h -9.166 c -2.043,0 -3.7525,1.66151 -3.7525,3.75026 V 16.5263 c -2.8972,0.7121 -5.6995,1.8039 -8.2167,3.1806 l -7.5043,-7.453 c -1.4724,-1.4716 -3.8472,-1.4716 -5.272,0 L 72.2591,18.71 c -1.4724,1.4716 -1.4724,3.8452 0,5.2694 l 7.1243,7.1207 C 77.721,33.711 76.4387,36.6068 75.5837,39.645 H 65.7522 C 63.7098,39.645 62,41.3065 62,43.3953 v 9.162 c 0,2.0413 1.6623,3.7502 3.7522,3.7502 h 9.4516 c 0.7599,3.2756 1.9948,6.3138 3.6571,9.1146 l -6.6018,6.5985 c -1.4724,1.4717 -1.4724,3.8452 0,5.2694 l 6.4594,6.4561 c 1.4723,1.4716 3.8471,1.4716 5.272,0 l 6.5069,-6.5036 c 2.8022,1.6615 5.9369,2.9433 9.2141,3.7503 v 9.2569 c 0,2.0413 1.6625,3.7503 3.7525,3.7503 h 9.119 c 2.042,0 3.752,-1.6615 3.752,-3.7503 v -9.4943 c 3.182,-0.8545 6.127,-2.1837 8.834,-3.8927 l 6.887,6.8834 c 1.472,1.4716 3.847,1.4716 5.272,0 l 6.459,-6.4561 c 1.473,-1.4716 1.473,-3.8452 0,-5.2694 l -7.171,-7.1682 c 1.472,-2.6584 2.612,-5.5067 3.277,-8.5449 h 10.354 c 2.042,0 3.752,-1.6615 3.752,-3.7502 v -9.1146 c 0.048,-2.0887 -1.615,-3.7502 -3.705,-3.7502 z m -42.746,21.7903 c -9.1664,0 -12.6342,-8.3276 -12.6342,-12.6897 0,-4.3621 3.4678,-12.2931 12.6342,-12.2931 9.167,0 12.745,8.7241 12.745,12.2931 0,4.7586 -3.578,12.6897 -12.745,12.6897 z"
           style="fill:#8c98a6;fill-opacity:0.65347493;stroke-width:3.66643" />
      </g>
      <g
         id="g3-2-3-9"
         transform="matrix(0.03663529,0,0,0.03600911,3.2777285,18.005434)"
         style="fill:#f9f9f9;fill-opacity:0.5;stroke-width:3.66643">
        <path
           d="M 116.328,78.5253 H 102.734 C 101.716,74.934 100.218,71.582 98.3619,68.4696 l 9.7011,-9.6966 c 1.857,-1.8556 1.857,-4.8483 0,-6.644 l -8.144,-8.1404 c -1.7966,-1.9153 -4.7909,-1.9153 -6.5875,-0.0598 l -9.8212,9.8163 C 80.3962,51.9494 77.1025,50.5129 73.5692,49.5552 V 35.7286 C 73.5692,33.1548 71.4732,31 68.8382,31 H 57.2803 c -2.5751,0 -4.731,2.0949 -4.731,4.7286 v 13.5872 c -3.653,0.8978 -7.1863,2.2745 -10.3602,4.0103 l -9.462,-9.3973 c -1.8564,-1.8555 -4.8507,-1.8555 -6.6473,0 l -8.1445,8.1403 c -1.8564,1.8556 -1.8564,4.8483 0,6.644 l 8.9829,8.9783 c -2.096,3.2921 -3.7129,6.9433 -4.7909,10.774 H 9.73098 C 7.15589,78.4654 5,80.5604 5,83.194 v 11.5521 c 0,2.5738 2.096,4.7286 4.73098,4.7286 H 21.6482 c 0.9582,4.1303 2.5152,7.9613 4.6113,11.4923 l -8.3242,8.32 c -1.8564,1.855 -1.8564,4.848 0,6.644 l 8.1445,8.14 c 1.8565,1.856 4.8507,1.856 6.6473,0 l 8.2044,-8.2 c 3.5332,2.095 7.4857,3.711 11.6178,4.729 v 11.671 c 0,2.574 2.096,4.729 4.731,4.729 h 11.4981 c 2.575,0 4.7309,-2.095 4.7309,-4.729 V 130.3 c 4.0124,-1.077 7.7253,-2.753 11.1388,-4.908 l 8.6834,8.679 c 1.8565,1.856 4.8508,1.856 6.6473,0 l 8.1442,-8.14 c 1.857,-1.856 1.857,-4.848 0,-6.644 l -9.0424,-9.038 c 1.8564,-3.352 3.2934,-6.944 4.1324,-10.7743 h 13.055 c 2.575,0 4.731,-2.0949 4.731,-4.7286 V 83.2539 c 0.06,-2.6337 -2.036,-4.7286 -4.671,-4.7286 z M 62.4305,106 C 50.8725,106 46.5,95.5 46.5,90 46.5,84.5 50.8725,74.5 62.4305,74.5 73.9884,74.5 78.5,85.5 78.5,90 c 0,6 -4.5116,16 -16.0695,16 z"
           shape-rendering="crispEdges"
           id="path2-0-6-1"
           style="fill:#8c98a6;fill-opacity:1;stroke-width:3.66643" />
      </g>
    </g>
  </g>
</svg>
