<?xml version="1.0" encoding="UTF-8" standalone="no"?>
<!-- Created with Inkscape (http://www.inkscape.org/) -->

<svg
   width="64"
   height="64"
   viewBox="0 0 16.933333 16.933333"
   version="1.1"
   id="svg1"
   inkscape:version="1.4.2 (unknown)"
   sodipodi:docname="folder-KDE.svg"
   xmlns:inkscape="http://www.inkscape.org/namespaces/inkscape"
   xmlns:sodipodi="http://sodipodi.sourceforge.net/DTD/sodipodi-0.dtd"
   xmlns:xlink="http://www.w3.org/1999/xlink"
   xmlns="http://www.w3.org/2000/svg"
   xmlns:svg="http://www.w3.org/2000/svg">
  <sodipodi:namedview
     id="namedview1"
     pagecolor="#ffffff"
     bordercolor="#000000"
     borderopacity="0.25"
     inkscape:showpageshadow="2"
     inkscape:pageopacity="0.0"
     inkscape:pagecheckerboard="0"
     inkscape:deskcolor="#d1d1d1"
     inkscape:document-units="px"
     inkscape:zoom="9.120116"
     inkscape:cx="29.001824"
     inkscape:cy="30.756188"
     inkscape:current-layer="layer1"
     showgrid="true"
     showguides="false">
    <inkscape:grid
       id="grid1"
       units="px"
       originx="0"
       originy="0"
       spacingx="0.26458333"
       spacingy="0.26458333"
       empcolor="#0099e5"
       empopacity="0.30196078"
       color="#0099e5"
       opacity="0.14901961"
       empspacing="5"
       enabled="true"
       visible="true" />
  </sodipodi:namedview>
  <defs
     id="defs1">
    <linearGradient
       id="linearGradient4"
       inkscape:collect="always">
      <stop
         style="stop-color:#5599ff;stop-opacity:1"
         offset="0"
         id="stop4" />
      <stop
         style="stop-color:#98e3d3;stop-opacity:1;"
         offset="0.42100537"
         id="stop6" />
      <stop
         style="stop-color:#bfabe4;stop-opacity:1;"
         offset="1"
         id="stop5" />
    </linearGradient>
    <linearGradient
       inkscape:collect="always"
       xlink:href="#linearGradient4"
       id="linearGradient5"
       x1="2.2225001"
       y1="0.3837086"
       x2="13.334999"
       y2="14.142041"
       gradientUnits="userSpaceOnUse"
       gradientTransform="translate(0.42333307,-0.11912529)" />
  </defs>
  <g
     inkscape:label="Layer 1"
     inkscape:groupmode="layer"
     id="layer1">
    <rect
       x="2.2871437"
       y="0.52850062"
       style="clip-rule:evenodd;opacity:0.2;fill:#000000;fill-opacity:1;fill-rule:evenodd;stroke-width:0.264585"
       width="12.661815"
       height="13.195868"
       id="rect29"
       ry="0.79374999"
       rx="1.1906257" />
    <rect
       x="2.253372"
       y="0.26458335"
       style="clip-rule:evenodd;fill:url(#linearGradient5);fill-rule:evenodd;stroke-width:0.264587"
       width="12.426589"
       height="13.723703"
       id="rect30"
       ry="1.0583333"
       rx="1.1862109" />
    <path
       style="clip-rule:evenodd;opacity:0.2;fill:#000000;fill-opacity:1;fill-rule:evenodd;stroke-width:0.264586"
       d="m 3.1403083,0.5616023 9.3573277,1.2404109 c 0.500171,0.066303 0.96613,0.4009401 0.955781,0.870927 l -0.01625,0.7381328 0.01625,0.7215647 c 0.0039,0.1758939 -0.04649,0.2573225 -0.196997,0.3109292 l -0.335496,0.1195263 c -0.166565,0.05937 -0.252132,0.2077206 -0.252132,0.420295 v 2.4947475 c 0,0.2124755 0.08562,0.3608818 0.252132,0.4202447 l 0.335496,0.1195273 c 0.150506,0.053605 0.180746,0.1349932 0.180746,0.3109288 v 0.7215617 l 0.01625,6.6337588 c 0.0013,0.514902 -0.658166,1.05807 -1.220935,0.976393 L 3.1403083,15.340964 C 2.6410549,15.268505 2.2229842,14.956307 2.2229842,14.486161 V 1.4164584 c 0,-0.47014813 0.4172574,-0.92114478 0.9173241,-0.8548561 z"
       id="path31-3"
       sodipodi:nodetypes="ssscsccssccscssssss" />
    <path
       style="clip-rule:evenodd;fill:#36485c;fill-opacity:1;fill-rule:evenodd;stroke-width:0.264586"
       d="M 2.9016988,0.27109187 12.259021,1.511504 c 0.50017,0.066303 0.96613,0.4009392 0.955781,0.8709263 l -0.01625,0.7381324 0.01625,0.7215652 c 0.0039,0.1758942 -0.0465,0.2573227 -0.196997,0.3109294 l -0.335497,0.1195264 c -0.166565,0.05937 -0.252132,0.2077209 -0.252132,0.4202955 v 2.4947469 c 0,0.2124778 0.08562,0.3608833 0.252132,0.4202466 l 0.335497,0.1195283 c 0.150505,0.053605 0.180746,0.1349924 0.180746,0.3109294 v 0.7215602 l 0.01625,6.8184034 c 0.0011,0.470196 -0.482614,0.858478 -0.955781,0.791752 L 2.9016988,15.050459 C 2.4021543,14.980016 1.9843748,14.665802 1.9843748,14.195656 V 1.1259489 c 0,-0.47014879 0.4172574,-0.92114576 0.917324,-0.85485703 z"
       id="path31-1-3"
       sodipodi:nodetypes="ssscsccssccscssssss" />
    <path
       d="M 8.1298394,8.2814582 7.0961907,8.4340496 V 12.079536 L 8.1298394,11.808864 V 10.400476 L 9.1635127,12.060854 10.197203,11.682855 8.9051169,10.171149 10.197689,8.5339331 9.1947922,8.2814582 8.1298394,9.9339699 Z M 6.0251677,9.2700961 c -0.024331,0 -0.048916,0.009 -0.067647,0.02777 L 5.5512541,9.6940438 c -0.037349,0.03635 -0.028626,0.08875 0,0.1323497 l 0.4204158,0.6436905 c -0.030927,0.06304 -0.058099,0.127988 -0.080741,0.194376 -0.00228,0.0058 -0.00535,0.0063 -0.00535,0.0088 l -0.7626337,0.165199 c -0.05173,0.01161 -0.095862,0.04167 -0.095862,0.09354 v 0.247532 0.247512 c 0,0.0516 0.044284,0.08227 0.095866,0.09346 l 0.762623,0.165355 c 0.00332,0.0058 0.00536,0.0097 0.00653,0.01392 0.022457,0.06455 0.048109,0.12767 0.078248,0.189022 l -0.4204577,0.643087 c -0.028657,0.04375 -0.037349,0.09581 0,0.132373 l 0.4063292,0.396137 c 0.037347,0.0364 0.097767,0.0364 0.1352098,0 l 0.6591984,-0.409514 c 0.064785,0.03053 0.131506,0.05737 0.199834,0.07973 0.00536,0.0034 0.00832,0.0058 0.013474,0.006 l 0.1690948,0.743065 c 0,0.05159 0.042812,0.09346 0.09589,0.09346 h 0.5738472 c 0.053031,0 0.084416,-0.04316 0.095903,-0.09346 l 0.169086,-0.765865 c 0.077673,-0.02881 0.1530669,-0.06266 0.2255715,-0.101899 l 0.6435306,0.448759 c 0.037306,0.03641 0.097766,0.03641 0.1352909,0 l 0.4062524,-0.396186 c 0.0373,-0.03637 0.02859,-0.08882 0,-0.132448 L 9.233651,12.16991 9.208232,12.17931 C 9.150017,12.20065 9.0844769,12.17731 9.0522809,12.12656 L 8.7948369,11.7125 c -0.214494,0.500186 -0.7209988,0.851822 -1.3117852,0.851822 -0.784929,0 -1.4212798,-0.620425 -1.4212798,-1.385803 0,-0.587293 0.3754172,-1.087995 0.9044559,-1.2897387 V 9.6126768 l -0.00438,0.0085 c -0.00606,0.0037 -0.011132,0.0052 -0.016989,0.0071 -0.067391,0.02223 -0.1332975,0.04783 -0.1973304,0.07773 L 6.0893783,9.2971271 c -0.018886,-0.01819 -0.043199,-0.02775 -0.067628,-0.02775 z"
       id="path10-7"
       style="fill:#8c98a6;fill-opacity:1;stroke-width:0.291377" />
  </g>
</svg>
