<?xml version="1.0" encoding="UTF-8" standalone="no"?>
<!-- Created with Inkscape (http://www.inkscape.org/) -->

<svg
   width="64"
   height="64"
   viewBox="0 0 16.933333 16.933333"
   version="1.1"
   id="svg1"
   inkscape:version="1.4.2 (unknown)"
   sodipodi:docname="folder-inkscape.svg"
   xmlns:inkscape="http://www.inkscape.org/namespaces/inkscape"
   xmlns:sodipodi="http://sodipodi.sourceforge.net/DTD/sodipodi-0.dtd"
   xmlns:xlink="http://www.w3.org/1999/xlink"
   xmlns="http://www.w3.org/2000/svg"
   xmlns:svg="http://www.w3.org/2000/svg">
  <sodipodi:namedview
     id="namedview1"
     pagecolor="#ffffff"
     bordercolor="#000000"
     borderopacity="0.25"
     inkscape:showpageshadow="2"
     inkscape:pageopacity="0.0"
     inkscape:pagecheckerboard="0"
     inkscape:deskcolor="#d1d1d1"
     inkscape:document-units="px"
     inkscape:zoom="9.120116"
     inkscape:cx="28.563233"
     inkscape:cy="30.536892"
     inkscape:current-layer="layer1"
     showgrid="true"
     showguides="false">
    <inkscape:grid
       id="grid1"
       units="px"
       originx="0"
       originy="0"
       spacingx="0.26458333"
       spacingy="0.26458333"
       empcolor="#0099e5"
       empopacity="0.30196078"
       color="#0099e5"
       opacity="0.14901961"
       empspacing="5"
       enabled="true"
       visible="true" />
  </sodipodi:namedview>
  <defs
     id="defs1">
    <linearGradient
       id="linearGradient4"
       inkscape:collect="always">
      <stop
         style="stop-color:#ff8080;stop-opacity:1"
         offset="0"
         id="stop4" />
      <stop
         style="stop-color:#ffeeaa;stop-opacity:1"
         offset="0.5223462"
         id="stop6" />
      <stop
         style="stop-color:#ddafe9;stop-opacity:1"
         offset="1"
         id="stop5" />
    </linearGradient>
    <linearGradient
       inkscape:collect="always"
       xlink:href="#linearGradient4"
       id="linearGradient5"
       x1="2.2225001"
       y1="0.3837086"
       x2="13.334999"
       y2="14.142041"
       gradientUnits="userSpaceOnUse"
       gradientTransform="translate(0.42333307,-0.11912529)" />
  </defs>
  <g
     inkscape:label="Layer 1"
     inkscape:groupmode="layer"
     id="layer1">
    <rect
       x="2.2871437"
       y="0.52850062"
       style="clip-rule:evenodd;opacity:0.2;fill:#000000;fill-opacity:1;fill-rule:evenodd;stroke-width:0.264585"
       width="12.661815"
       height="13.195868"
       id="rect29"
       ry="0.79374999"
       rx="1.1906257" />
    <rect
       x="2.253372"
       y="0.26458335"
       style="clip-rule:evenodd;fill:url(#linearGradient5);fill-rule:evenodd;stroke-width:0.264587"
       width="12.426589"
       height="13.723703"
       id="rect30"
       ry="1.0583333"
       rx="1.1862109" />
    <path
       style="clip-rule:evenodd;opacity:0.2;fill:#000000;fill-opacity:1;fill-rule:evenodd;stroke-width:0.264586"
       d="m 3.1403083,0.5616023 9.3573277,1.2404109 c 0.500171,0.066303 0.96613,0.4009401 0.955781,0.870927 l -0.01625,0.7381328 0.01625,0.7215647 c 0.0039,0.1758939 -0.04649,0.2573225 -0.196997,0.3109292 l -0.335496,0.1195263 c -0.166565,0.05937 -0.252132,0.2077206 -0.252132,0.420295 v 2.4947475 c 0,0.2124755 0.08562,0.3608818 0.252132,0.4202447 l 0.335496,0.1195273 c 0.150506,0.053605 0.180746,0.1349932 0.180746,0.3109288 v 0.7215617 l 0.01625,6.6337588 c 0.0013,0.514902 -0.658166,1.05807 -1.220935,0.976393 L 3.1403083,15.340964 C 2.6410549,15.268505 2.2229842,14.956307 2.2229842,14.486161 V 1.4164584 c 0,-0.47014813 0.4172574,-0.92114478 0.9173241,-0.8548561 z"
       id="path31-3"
       sodipodi:nodetypes="ssscsccssccscssssss" />
    <path
       style="clip-rule:evenodd;fill:#36485c;fill-opacity:1;fill-rule:evenodd;stroke-width:0.264586"
       d="M 2.9016988,0.27109187 12.259021,1.511504 c 0.50017,0.066303 0.96613,0.4009392 0.955781,0.8709263 l -0.01625,0.7381324 0.01625,0.7215652 c 0.0039,0.1758942 -0.0465,0.2573227 -0.196997,0.3109294 l -0.335497,0.1195264 c -0.166565,0.05937 -0.252132,0.2077209 -0.252132,0.4202955 v 2.4947469 c 0,0.2124778 0.08562,0.3608833 0.252132,0.4202466 l 0.335497,0.1195283 c 0.150505,0.053605 0.180746,0.1349924 0.180746,0.3109294 v 0.7215602 l 0.01625,6.8184034 c 0.0011,0.470196 -0.482614,0.858478 -0.955781,0.791752 L 2.9016988,15.050459 C 2.4021543,14.980016 1.9843748,14.665802 1.9843748,14.195656 V 1.1259489 c 0,-0.47014879 0.4172574,-0.92114576 0.917324,-0.85485703 z"
       id="path31-1-3"
       sodipodi:nodetypes="ssscsccssccscssssss" />
    <path
       d="M 7.6020397,8.2814584 C 7.4384088,8.281338 7.2757214,8.3414151 7.1582956,8.4632121 L 5.2049574,10.488851 c -0.6600978,0.828339 0.4492576,0.732178 0.9248213,0.970784 0.1705863,0.1767 -0.6537316,0.306442 -0.4831467,0.483287 0.1705904,0.176693 1.0307372,0.340211 1.2015933,0.516901 0.1705906,0.176697 -0.3489077,0.364377 -0.1783272,0.541061 0.1705872,0.176689 0.5647843,0.0091 0.6386622,0.417082 0.052645,0.291498 0.7116981,0.125264 1.0336438,-0.113451 C 8.5127938,13.127685 8.0160931,13.145012 8.186682,12.968307 8.6108814,12.528715 9.005759,12.807836 9.15091,12.367358 9.222601,12.149708 8.5259113,12.032408 8.6967987,11.855715 9.1876257,11.565237 10.883835,11.375989 10.078862,10.5603 L 8.0540252,8.4632566 C 7.9301947,8.3427874 7.7656289,8.2818311 7.6019815,8.2815021 Z m 0.016591,0.1922676 c 0.1168362,7.274e-4 0.2334201,0.04526 0.3172506,0.1313203 l 0.773446,0.7953149 c 0.073302,0.0759 0.072116,0.2224596 0.031104,0.2647456 L 8.3568285,9.3541226 8.2811434,9.8153387 7.9607771,9.6440908 7.4465237,9.9718924 7.2764945,9.2795367 7.0007102,9.7628151 H 6.5797781 c -0.1719066,0 -0.1924869,-0.2209923 -0.036285,-0.3792592 C 6.8163182,9.0851394 7.1291667,8.7812945 7.29931,8.6050463 7.3848202,8.5164828 7.5018112,8.4730925 7.6186431,8.473726 Z m -0.9279246,3.095039 c 0.05221,0.03287 0.8417277,0.195554 1.034681,0.227984 0.066895,0.0143 0.019636,0.08417 -0.072573,0.131324 -0.2079633,0.056 -1.2166622,-0.359308 -0.9621649,-0.359308 z m 3.0710126,0.556825 c -0.1588751,0.0058 -0.3155387,0.08742 -0.3587272,0.241646 0,0.100513 0.7298975,0.166995 0.7298975,-0.02304 -0.05207,-0.152673 -0.2123053,-0.224078 -0.3711703,-0.218532 z M 6.4107755,12.56054 C 6.1817508,12.55784 5.9135821,12.728591 6.1111506,12.901984 6.2842085,13.053613 6.5514822,12.863544 6.6316199,12.65194 6.5844659,12.58845 6.5004062,12.56137 6.410777,12.56054 Z m 2.8997916,0.01364 c -0.2230676,0.202785 0.024785,0.408379 0.2446812,0.277378 0.04901,-0.05042 -7.93e-4,-0.226978 -0.2446812,-0.277378 z"
       stroke-width="1.96352"
       id="path1-9-7"
       style="fill:#8c98a6;fill-opacity:1" />
  </g>
</svg>
