<?xml version="1.0" encoding="UTF-8" standalone="no"?>
<!-- Created with Inkscape (http://www.inkscape.org/) -->

<svg
   width="64"
   height="64"
   viewBox="0 0 16.933333 16.933333"
   version="1.1"
   id="svg1"
   inkscape:version="1.4.2 (unknown)"
   sodipodi:docname="folder-reddit.svg"
   xmlns:inkscape="http://www.inkscape.org/namespaces/inkscape"
   xmlns:sodipodi="http://sodipodi.sourceforge.net/DTD/sodipodi-0.dtd"
   xmlns:xlink="http://www.w3.org/1999/xlink"
   xmlns="http://www.w3.org/2000/svg"
   xmlns:svg="http://www.w3.org/2000/svg">
  <sodipodi:namedview
     id="namedview1"
     pagecolor="#ffffff"
     bordercolor="#000000"
     borderopacity="0.25"
     inkscape:showpageshadow="2"
     inkscape:pageopacity="0.0"
     inkscape:pagecheckerboard="0"
     inkscape:deskcolor="#d1d1d1"
     inkscape:document-units="px"
     inkscape:zoom="9.120116"
     inkscape:cx="28.508409"
     inkscape:cy="30.536892"
     inkscape:current-layer="layer1"
     showgrid="true"
     showguides="false">
    <inkscape:grid
       id="grid1"
       units="px"
       originx="0"
       originy="0"
       spacingx="0.26458333"
       spacingy="0.26458333"
       empcolor="#0099e5"
       empopacity="0.30196078"
       color="#0099e5"
       opacity="0.14901961"
       empspacing="5"
       enabled="true"
       visible="true" />
  </sodipodi:namedview>
  <defs
     id="defs1">
    <linearGradient
       id="linearGradient4"
       inkscape:collect="always">
      <stop
         style="stop-color:#ffaaaa;stop-opacity:1"
         offset="0"
         id="stop4" />
      <stop
         style="stop-color:#a783dd;stop-opacity:1;"
         offset="0.42100537"
         id="stop6" />
      <stop
         style="stop-color:#ff9999;stop-opacity:1;"
         offset="1"
         id="stop5" />
    </linearGradient>
    <linearGradient
       inkscape:collect="always"
       xlink:href="#linearGradient4"
       id="linearGradient5"
       x1="2.2225001"
       y1="0.3837086"
       x2="13.334999"
       y2="14.142041"
       gradientUnits="userSpaceOnUse"
       gradientTransform="translate(0.42333307,-0.11912529)" />
  </defs>
  <g
     inkscape:label="Layer 1"
     inkscape:groupmode="layer"
     id="layer1">
    <rect
       x="2.2871437"
       y="0.52850062"
       style="clip-rule:evenodd;opacity:0.2;fill:#000000;fill-opacity:1;fill-rule:evenodd;stroke-width:0.264585"
       width="12.661815"
       height="13.195868"
       id="rect29"
       ry="0.79374999"
       rx="1.1906257" />
    <rect
       x="2.253372"
       y="0.26458335"
       style="clip-rule:evenodd;fill:url(#linearGradient5);fill-rule:evenodd;stroke-width:0.264587"
       width="12.426589"
       height="13.723703"
       id="rect30"
       ry="1.0583333"
       rx="1.1862109" />
    <path
       style="clip-rule:evenodd;opacity:0.2;fill:#000000;fill-opacity:1;fill-rule:evenodd;stroke-width:0.264586"
       d="m 3.1403083,0.5616023 9.3573277,1.2404109 c 0.500171,0.066303 0.96613,0.4009401 0.955781,0.870927 l -0.01625,0.7381328 0.01625,0.7215647 c 0.0039,0.1758939 -0.04649,0.2573225 -0.196997,0.3109292 l -0.335496,0.1195263 c -0.166565,0.05937 -0.252132,0.2077206 -0.252132,0.420295 v 2.4947475 c 0,0.2124755 0.08562,0.3608818 0.252132,0.4202447 l 0.335496,0.1195273 c 0.150506,0.053605 0.180746,0.1349932 0.180746,0.3109288 v 0.7215617 l 0.01625,6.6337588 c 0.0013,0.514902 -0.658166,1.05807 -1.220935,0.976393 L 3.1403083,15.340964 C 2.6410549,15.268505 2.2229842,14.956307 2.2229842,14.486161 V 1.4164584 c 0,-0.47014813 0.4172574,-0.92114478 0.9173241,-0.8548561 z"
       id="path31-3"
       sodipodi:nodetypes="ssscsccssccscssssss" />
    <path
       style="clip-rule:evenodd;fill:#36485c;fill-opacity:1;fill-rule:evenodd;stroke-width:0.264586"
       d="M 2.9016988,0.27109187 12.259021,1.511504 c 0.50017,0.066303 0.96613,0.4009392 0.955781,0.8709263 l -0.01625,0.7381324 0.01625,0.7215652 c 0.0039,0.1758942 -0.0465,0.2573227 -0.196997,0.3109294 l -0.335497,0.1195264 c -0.166565,0.05937 -0.252132,0.2077209 -0.252132,0.4202955 v 2.4947469 c 0,0.2124778 0.08562,0.3608833 0.252132,0.4202466 l 0.335497,0.1195283 c 0.150505,0.053605 0.180746,0.1349924 0.180746,0.3109294 v 0.7215602 l 0.01625,6.8184034 c 0.0011,0.470196 -0.482614,0.858478 -0.955781,0.791752 L 2.9016988,15.050459 C 2.4021543,14.980016 1.9843748,14.665802 1.9843748,14.195656 V 1.1259489 c 0,-0.47014879 0.4172574,-0.92114576 0.917324,-0.85485703 z"
       id="path31-1-3"
       sodipodi:nodetypes="ssscsccssccscssssss" />
    <path
       d="M 7.8592298,8.2822873 C 7.7799598,8.2821599 7.712026,8.3379383 7.7006573,8.4153151 L 7.4297353,10.153603 C 6.8071886,10.171863 6.2166374,10.345086 5.7711472,10.639917 5.6531062,10.525434 5.4941813,10.46134 5.3285035,10.46134 c -0.3491408,0 -0.6321494,0.278716 -0.6321494,0.622159 0,0.232125 0.1315477,0.444977 0.3406063,0.552102 -0.015608,0.07495 -0.02384,0.150558 -0.024556,0.226209 0,0.94528 1.1320382,1.711307 2.5282399,1.711307 1.3961904,0 2.5282337,-0.766027 2.5282337,-1.711307 -1.14e-4,-0.07562 -0.0095,-0.150911 -0.02515,-0.225858 0.209742,-0.106792 0.341303,-0.320021 0.341303,-0.552453 0,-0.343443 -0.283016,-0.622159 -0.6321504,-0.622159 -0.1660311,0 -0.3253064,0.06449 -0.4436931,0.179273 C 8.88821,10.360522 8.335698,10.189323 7.7476383,10.156041 L 7.9876367,8.6267839 8.8092717,8.806725 c 0.029156,0.2335337 0.2303945,0.4092798 0.469682,0.4096288 0.2616612,0 0.4739164,-0.208997 0.4739164,-0.4666755 0,-0.2580341 -0.2122552,-0.4670352 -0.4739164,-0.4670352 -0.1632046,7.43e-5 -0.3146572,0.082939 -0.4014096,0.2187963 l -0.98552,-0.2149512 c -0.010722,-5.562e-4 -0.021688,-0.00503 -0.032714,-0.00503 z M 6.7506592,11.083499 c 0.2616718,0 0.4739352,0.209 0.4739352,0.467056 0,0.257667 -0.2122634,0.466726 -0.4739352,0.466726 -0.2620338,0 -0.4742977,-0.209059 -0.4742977,-0.466726 0,-0.258056 0.2122639,-0.467056 0.4742977,-0.467056 z m 1.5800112,0 c 0.2620309,0 0.4742828,0.209 0.4742828,0.467056 0,0.257667 -0.2122519,0.466726 -0.4742828,0.466726 -0.2616729,0 -0.4739344,-0.209059 -0.4739344,-0.466726 0,-0.258056 0.2122615,-0.467056 0.4739344,-0.467056 z m 0.3075488,1.395226 c 0.1468283,-0.01241 0.2296737,0.162409 0.12585,0.265333 0,0 -0.1034554,0.108178 -0.3004315,0.197772 -0.1973184,0.08932 -0.4998851,0.172303 -0.9265235,0.165287 -0.4245235,-0.0079 -0.721752,-0.08998 -0.9169399,-0.17472 -0.1948394,-0.0844 -0.2986558,-0.184169 -0.2986558,-0.184169 -0.096703,-0.09345 -0.036987,-0.255575 0.098133,-0.266049 0.00533,-7.7e-5 0.010319,-1.04e-4 0.015619,-1.04e-4 0.042662,1.04e-4 0.083554,0.01828 0.1127055,0.04867 0,0 0.045152,0.05011 0.200878,0.117314 0.1553778,0.06752 0.4099264,0.140038 0.7953435,0.147045 0.3832649,0.0071 0.6324957,-0.06581 0.7857337,-0.135497 C 8.4835203,12.590337 8.528673,12.53567 8.528673,12.53567 8.556044,12.50311 8.595526,12.48276 8.6381924,12.47926 Z"
       id="path1-3"
       style="fill:#8c98a6;fill-opacity:1;stroke-width:0.291041" />
  </g>
</svg>
