<?xml version="1.0" encoding="UTF-8" standalone="no"?>
<!-- Created with Inkscape (http://www.inkscape.org/) -->

<svg
   width="64"
   height="64"
   viewBox="0 0 16.933333 16.933333"
   version="1.1"
   id="svg1"
   inkscape:version="1.4.2 (unknown)"
   sodipodi:docname="folder-docker.svg"
   xmlns:inkscape="http://www.inkscape.org/namespaces/inkscape"
   xmlns:sodipodi="http://sodipodi.sourceforge.net/DTD/sodipodi-0.dtd"
   xmlns:xlink="http://www.w3.org/1999/xlink"
   xmlns="http://www.w3.org/2000/svg"
   xmlns:svg="http://www.w3.org/2000/svg">
  <sodipodi:namedview
     id="namedview1"
     pagecolor="#ffffff"
     bordercolor="#000000"
     borderopacity="0.25"
     inkscape:showpageshadow="2"
     inkscape:pageopacity="0.0"
     inkscape:pagecheckerboard="0"
     inkscape:deskcolor="#d1d1d1"
     inkscape:document-units="px"
     inkscape:zoom="9.120116"
     inkscape:cx="31.194779"
     inkscape:cy="30.64654"
     inkscape:current-layer="layer1"
     showgrid="true"
     showguides="false">
    <inkscape:grid
       id="grid1"
       units="px"
       originx="0"
       originy="0"
       spacingx="0.26458333"
       spacingy="0.26458333"
       empcolor="#0099e5"
       empopacity="0.30196078"
       color="#0099e5"
       opacity="0.14901961"
       empspacing="5"
       enabled="true"
       visible="true" />
  </sodipodi:namedview>
  <defs
     id="defs1">
    <linearGradient
       id="linearGradient4"
       inkscape:collect="always">
      <stop
         style="stop-color:#ed969e;stop-opacity:1"
         offset="0"
         id="stop4" />
      <stop
         style="stop-color:#b49ddf;stop-opacity:1"
         offset="0.55769229"
         id="stop6" />
      <stop
         style="stop-color:#61c0cf;stop-opacity:1"
         offset="1"
         id="stop5" />
    </linearGradient>
    <linearGradient
       inkscape:collect="always"
       xlink:href="#linearGradient4"
       id="linearGradient5"
       x1="2.2225001"
       y1="0.3837086"
       x2="13.334999"
       y2="14.142041"
       gradientUnits="userSpaceOnUse"
       gradientTransform="translate(0.42333307,-0.11912529)" />
  </defs>
  <g
     inkscape:label="Layer 1"
     inkscape:groupmode="layer"
     id="layer1">
    <rect
       x="2.2871437"
       y="0.52850062"
       style="clip-rule:evenodd;opacity:0.2;fill:#000000;fill-opacity:1;fill-rule:evenodd;stroke-width:0.264585"
       width="12.661815"
       height="13.195868"
       id="rect29"
       ry="0.79374999"
       rx="1.1906257" />
    <rect
       x="2.253372"
       y="0.26458335"
       style="clip-rule:evenodd;fill:url(#linearGradient5);fill-rule:evenodd;stroke-width:0.264587"
       width="12.426589"
       height="13.723703"
       id="rect30"
       ry="1.0583333"
       rx="1.1862109" />
    <path
       style="clip-rule:evenodd;opacity:0.2;fill:#000000;fill-opacity:1;fill-rule:evenodd;stroke-width:0.264586"
       d="m 3.1403083,0.5616023 9.3573277,1.2404109 c 0.500171,0.066303 0.96613,0.4009401 0.955781,0.870927 l -0.01625,0.7381328 0.01625,0.7215647 c 0.0039,0.1758939 -0.04649,0.2573225 -0.196997,0.3109292 l -0.335496,0.1195263 c -0.166565,0.05937 -0.252132,0.2077206 -0.252132,0.420295 v 2.4947475 c 0,0.2124755 0.08562,0.3608818 0.252132,0.4202447 l 0.335496,0.1195273 c 0.150506,0.053605 0.180746,0.1349932 0.180746,0.3109288 v 0.7215617 l 0.01625,6.6337588 c 0.0013,0.514902 -0.658166,1.05807 -1.220935,0.976393 L 3.1403083,15.340964 C 2.6410549,15.268505 2.2229842,14.956307 2.2229842,14.486161 V 1.4164584 c 0,-0.47014813 0.4172574,-0.92114478 0.9173241,-0.8548561 z"
       id="path31-3"
       sodipodi:nodetypes="ssscsccssccscssssss" />
    <path
       style="clip-rule:evenodd;fill:#36485c;fill-opacity:1;fill-rule:evenodd;stroke-width:0.264586"
       d="M 2.9016988,0.27109187 12.259021,1.511504 c 0.50017,0.066303 0.96613,0.4009392 0.955781,0.8709263 l -0.01625,0.7381324 0.01625,0.7215652 c 0.0039,0.1758942 -0.0465,0.2573227 -0.196997,0.3109294 l -0.335497,0.1195264 c -0.166565,0.05937 -0.252132,0.2077209 -0.252132,0.4202955 v 2.4947469 c 0,0.2124778 0.08562,0.3608833 0.252132,0.4202466 l 0.335497,0.1195283 c 0.150505,0.053605 0.180746,0.1349924 0.180746,0.3109294 v 0.7215602 l 0.01625,6.8184034 c 0.0011,0.470196 -0.482614,0.858478 -0.955781,0.791752 L 2.9016988,15.050459 C 2.4021543,14.980016 1.9843748,14.665802 1.9843748,14.195656 V 1.1259489 c 0,-0.47014879 0.4172574,-0.92114576 0.917324,-0.85485703 z"
       id="path31-1-3"
       sodipodi:nodetypes="ssscsccssccscssssss" />
    <g
       id="g2"
       transform="matrix(0.83333393,0,0,0.83333393,1.1465252,-11.121333)"
       style="fill:#8c98a6;fill-opacity:1;stroke-width:1.19998">
      <path
         d="m 6.4197926,29.633321 c -1.4791905,0 -2.3981258,-1.115164 -2.3981258,-2.910416 0,-0.1461 0.1193188,-0.264577 0.2664602,-0.264577 h 4.3010632 c -0.025173,-0.101685 -0.037726,-0.202696 -0.037726,-0.302451 0,-0.673992 0.5779164,-1.195647 0.602642,-1.217634 0.1009648,-0.08991 0.2544957,-0.08991 0.3554525,0 0.024729,0.02201 0.6026573,0.543642 0.6026573,1.217634 0,0.02598 -5.16e-4,0.05206 -0.0024,0.07816 0.707256,-0.04274 1.28206,0.570523 1.304972,0.595844 0.09054,0.100515 0.09054,0.252435 0,0.352953 -0.02216,0.0244 -0.547222,0.598411 -1.226371,0.598411 -0.173048,0 -0.3484219,-0.03658 -0.5243326,-0.109034 -0.5177482,1.104842 -1.901172,1.961117 -3.2437481,1.961117 z M 4.5638295,26.987497 c 0.049821,0.723599 0.3428241,2.116653 1.8559631,2.116653 1.2218159,0 2.5269353,-0.86182 2.8498544,-1.881919 0.025015,-0.07842 0.085081,-0.140939 0.1626367,-0.169228 0.078585,-0.02834 0.1641999,-0.01887 0.234469,0.0252 0.1831582,0.115365 0.3585643,0.17389 0.5214543,0.17389 0.243562,0 0.472298,-0.130094 0.627644,-0.24599 -0.154841,-0.11562 -0.383303,-0.245446 -0.627644,-0.245446 -0.104613,0 -0.2149298,0.02556 -0.3372274,0.07815 -0.1001923,0.04328 -0.2170362,0.02096 -0.2943056,-0.05566 -0.077272,-0.07674 -0.099652,-0.192481 -0.056194,-0.292227 0.053079,-0.121574 0.078843,-0.231116 0.078843,-0.334997 0,-0.241717 -0.1311568,-0.468833 -0.2477241,-0.62309 -0.1166038,0.153858 -0.2472246,0.380576 -0.2472246,0.623069 0,0.137205 0.043203,0.285247 0.1285407,0.439894 0.045276,0.08203 0.043446,0.181508 -0.00447,0.261986 -0.047889,0.08038 -0.1350463,0.129735 -0.2292307,0.129735 z"
         id="path2-7-3"
         style="fill:#8c98a6;fill-opacity:1;stroke-width:0.317501" />
      <g
         id="g31"
         style="fill:#8c98a6;fill-opacity:1;stroke-width:1.00001"
         transform="matrix(0.31749939,0,0,0.31749939,-1.9473204,13.758351)">
        <g
           id="g30"
           style="fill:#8c98a6;fill-opacity:1;stroke-width:1.00001">
          <path
             d="m 31.388609,39.166679 h -2.51772 c -0.463431,0 -0.839229,-0.373179 -0.839229,-0.833356 v -2.499996 c 0,-0.460168 0.375798,-0.833325 0.839229,-0.833325 h 2.51772 c 0.463855,0 0.839232,0.373157 0.839232,0.833325 v 2.499996 c 0,0.460177 -0.375377,0.833356 -0.839232,0.833356 z m -1.678488,-1.666676 h 0.83926 V 36.66668 h -0.83926 z"
             id="path4-5-6"
             style="fill:#8c98a6;fill-opacity:1;stroke-width:2.41624" />
          <path
             d="M 23.835448,39.166679 H 21.31772 c -0.463426,0 -0.839225,-0.373179 -0.839225,-0.833356 v -2.499996 c 0,-0.460168 0.375799,-0.833325 0.839225,-0.833325 h 2.517728 c 0.463428,0 0.83923,0.373157 0.83923,0.833325 v 2.499996 c 0,0.460177 -0.375802,0.833356 -0.83923,0.833356 z m -1.678489,-1.666676 h 0.839256 V 36.66668 h -0.839256 z"
             id="path6-3-7"
             style="fill:#8c98a6;fill-opacity:1;stroke-width:2.41624" />
          <path
             d="m 26.353169,36.66668 h -2.517721 c -0.463434,0 -0.839233,-0.373174 -0.839233,-0.833353 v -2.500002 c 0,-0.460168 0.375799,-0.833324 0.839233,-0.833324 h 2.517721 c 0.463426,0 0.839229,0.373156 0.839229,0.833324 v 2.500002 c 0,0.460179 -0.375803,0.833353 -0.839229,0.833353 z m -1.678491,-1.666678 h 0.83926 v -0.833323 h -0.83926 z"
             id="path8-5-5"
             style="fill:#8c98a6;fill-opacity:1;stroke-width:2.41624" />
          <path
             d="m 26.353169,39.166679 h -2.517721 c -0.463434,0 -0.839233,-0.373179 -0.839233,-0.833356 v -2.499996 c 0,-0.460168 0.375799,-0.833325 0.839233,-0.833325 h 2.517721 c 0.463426,0 0.839229,0.373157 0.839229,0.833325 v 2.499996 c 0,0.460177 -0.375803,0.833356 -0.839229,0.833356 z m -1.678491,-1.666676 h 0.83926 V 36.66668 h -0.83926 z"
             id="path10-5-6-3"
             style="fill:#8c98a6;fill-opacity:1;stroke-width:2.41624" />
          <path
             d="m 28.870889,34.166679 h -2.51772 c -0.463433,0 -0.839231,-0.373174 -0.839231,-0.833354 V 30.833324 C 25.513938,30.373157 25.889736,30 26.353169,30 h 2.51772 c 0.463424,0 0.839232,0.373157 0.839232,0.833324 v 2.500001 c 0,0.46018 -0.375808,0.833354 -0.839232,0.833354 z M 27.192398,32.500001 H 28.03166 V 31.66668 h -0.839262 z"
             id="path12-2-5"
             style="fill:#8c98a6;fill-opacity:1;stroke-width:2.41624" />
          <path
             d="m 28.870889,36.66668 h -2.51772 c -0.463433,0 -0.839231,-0.373174 -0.839231,-0.833353 v -2.500002 c 0,-0.460168 0.375798,-0.833324 0.839231,-0.833324 h 2.51772 c 0.463424,0 0.839232,0.373156 0.839232,0.833324 v 2.500002 c 0,0.460179 -0.375808,0.833353 -0.839232,0.833353 z m -1.678491,-1.666678 h 0.839262 v -0.833323 h -0.839262 z"
             id="path14-9-6"
             style="fill:#8c98a6;fill-opacity:1;stroke-width:2.41624" />
          <path
             d="m 28.870889,39.166679 h -2.51772 c -0.463433,0 -0.839231,-0.373179 -0.839231,-0.833356 v -2.499996 c 0,-0.460168 0.375798,-0.833325 0.839231,-0.833325 h 2.51772 c 0.463424,0 0.839232,0.373157 0.839232,0.833325 v 2.499996 c 0,0.460177 -0.375808,0.833356 -0.839232,0.833356 z M 27.192398,37.500003 H 28.03166 V 36.66668 h -0.839262 z"
             id="path16-1-2"
             style="fill:#8c98a6;fill-opacity:1;stroke-width:2.41624" />
        </g>
      </g>
      <ellipse
         cx="5.4871254"
         cy="27.648785"
         id="circle18-2-9"
         style="fill:#8c98a6;fill-opacity:1;stroke-width:0.767166"
         rx="0.39968777"
         ry="0.39687419" />
    </g>
  </g>
</svg>
