<?xml version="1.0" encoding="UTF-8" standalone="no"?>
<!-- Created with Inkscape (http://www.inkscape.org/) -->

<svg
   width="64"
   height="64"
   viewBox="0 0 16.933333 16.933333"
   version="1.1"
   id="svg1"
   inkscape:version="1.4.2 (unknown)"
   sodipodi:docname="folder-text.svg"
   xmlns:inkscape="http://www.inkscape.org/namespaces/inkscape"
   xmlns:sodipodi="http://sodipodi.sourceforge.net/DTD/sodipodi-0.dtd"
   xmlns:xlink="http://www.w3.org/1999/xlink"
   xmlns="http://www.w3.org/2000/svg"
   xmlns:svg="http://www.w3.org/2000/svg">
  <sodipodi:namedview
     id="namedview1"
     pagecolor="#ffffff"
     bordercolor="#000000"
     borderopacity="0.25"
     inkscape:showpageshadow="2"
     inkscape:pageopacity="0.0"
     inkscape:pagecheckerboard="0"
     inkscape:deskcolor="#d1d1d1"
     inkscape:document-units="px"
     inkscape:zoom="9.120116"
     inkscape:cx="31.688193"
     inkscape:cy="20.99754"
     inkscape:current-layer="layer1"
     showgrid="true"
     showguides="false">
    <inkscape:grid
       id="grid1"
       units="px"
       originx="0"
       originy="0"
       spacingx="0.26458333"
       spacingy="0.26458333"
       empcolor="#0099e5"
       empopacity="0.30196078"
       color="#0099e5"
       opacity="0.14901961"
       empspacing="5"
       enabled="true"
       visible="true" />
  </sodipodi:namedview>
  <defs
     id="defs1">
    <linearGradient
       id="linearGradient4"
       inkscape:collect="always">
      <stop
         style="stop-color:#5fffff;stop-opacity:1;"
         offset="0"
         id="stop4" />
      <stop
         style="stop-color:#d3bc5f;stop-opacity:1"
         offset="0.5223462"
         id="stop6" />
      <stop
         style="stop-color:#9999ff;stop-opacity:1;"
         offset="1"
         id="stop5" />
    </linearGradient>
    <linearGradient
       inkscape:collect="always"
       xlink:href="#linearGradient4"
       id="linearGradient5"
       x1="2.2225001"
       y1="0.3837086"
       x2="13.334999"
       y2="14.142041"
       gradientUnits="userSpaceOnUse"
       gradientTransform="translate(0.42333307,-0.11912528)" />
  </defs>
  <g
     inkscape:label="Layer 1"
     inkscape:groupmode="layer"
     id="layer1">
    <g
       id="g1">
      <rect
         x="2.2871437"
         y="0.52850062"
         style="clip-rule:evenodd;opacity:0.2;fill:#000000;fill-opacity:1;fill-rule:evenodd;stroke-width:0.264585"
         width="12.661815"
         height="13.195868"
         id="rect29"
         ry="0.79374999"
         rx="1.1906257" />
      <rect
         x="2.253372"
         y="0.26458335"
         style="clip-rule:evenodd;fill:url(#linearGradient5);fill-rule:evenodd;stroke-width:0.264587"
         width="12.426589"
         height="13.723703"
         id="rect30"
         ry="1.0583333"
         rx="1.1862109" />
      <path
         style="clip-rule:evenodd;opacity:0.2;fill:#000000;fill-opacity:1;fill-rule:evenodd;stroke-width:0.264586"
         d="m 3.1403083,0.5616023 9.3573277,1.2404109 c 0.500171,0.066303 0.96613,0.4009401 0.955781,0.870927 l -0.01625,0.7381328 0.01625,0.7215647 c 0.0039,0.1758939 -0.04649,0.2573225 -0.196997,0.3109292 l -0.335496,0.1195263 c -0.166565,0.05937 -0.252132,0.2077206 -0.252132,0.420295 v 2.4947475 c 0,0.2124755 0.08562,0.3608818 0.252132,0.4202447 l 0.335496,0.1195273 c 0.150506,0.053605 0.180746,0.1349932 0.180746,0.3109288 v 0.7215617 l 0.01625,6.6337588 c 0.0013,0.514902 -0.658166,1.05807 -1.220935,0.976393 L 3.1403083,15.340964 C 2.6410549,15.268505 2.2229842,14.956307 2.2229842,14.486161 V 1.4164584 c 0,-0.47014813 0.4172574,-0.92114478 0.9173241,-0.8548561 z"
         id="path31-3"
         sodipodi:nodetypes="ssscsccssccscssssss" />
      <path
         style="clip-rule:evenodd;fill:#36485c;fill-opacity:1;fill-rule:evenodd;stroke-width:0.264586"
         d="M 2.9016988,0.27109187 12.259021,1.511504 c 0.50017,0.066303 0.96613,0.4009392 0.955781,0.8709263 l -0.01625,0.7381324 0.01625,0.7215652 c 0.0039,0.1758942 -0.0465,0.2573227 -0.196997,0.3109294 l -0.335497,0.1195264 c -0.166565,0.05937 -0.252132,0.2077209 -0.252132,0.4202955 v 2.4947469 c 0,0.2124778 0.08562,0.3608833 0.252132,0.4202466 l 0.335497,0.1195283 c 0.150505,0.053605 0.180746,0.1349924 0.180746,0.3109294 v 0.7215602 l 0.01625,6.8184034 c 0.0011,0.470196 -0.482614,0.858478 -0.955781,0.791752 L 2.9016988,15.050459 C 2.4021543,14.980016 1.9843748,14.665802 1.9843748,14.195656 V 1.1259489 c 0,-0.47014879 0.4172574,-0.92114576 0.917324,-0.85485703 z"
         id="path31-1-3"
         sodipodi:nodetypes="ssscsccssccscssssss" />
    </g>
    <g
       transform="matrix(0.24694572,0,0,0.24804714,37.34646,11.11868)"
       id="g29"
       style="stroke-width:1.59963">
      <path
         d="m -110.34,-3.8425 c -0.5339,-1.2653 -1.3219,-2.4041 -2.2877,-3.391 -0.99138,-0.98696 -2.1352,-1.7462 -3.4062,-2.2775 -1.322,-0.55692 -2.72,-0.86057 -4.169,-0.86057 -1.449,0 -2.847,0.30364 -4.1688,0.8604 -1.271,0.53152 -2.4148,1.316 -3.4062,2.2775 -0.99137,0.98696 -1.754,2.1257 -2.2877,3.391 -0.55942,1.3162 -0.86441,2.7079 -0.86441,4.1505 0,1.4426 0.30498,2.8343 0.86422,4.1503 0.53389,1.2653 1.3219,2.4041 2.2877,3.391 0.99136,0.98695 2.1352,1.7462 3.4062,2.2775 1.3219,0.55674 2.72,0.83511 4.1688,0.83511 1.449,0 2.847,-0.27838 4.1688,-0.83511 1.271,-0.53153 2.4148,-1.316 3.4062,-2.2775 0.99136,-0.98696 1.754,-2.1257 2.2877,-3.391 0.55923,-1.316 0.83884,-2.7079 0.83884,-4.1503 3.7e-4,-1.4426 -0.27927,-2.8343 -0.83854,-4.1503 z"
         style="fill:#8c98a6;fill-opacity:1;stroke-width:0.0724519"
         id="path25" />
      <path
         d="m -127.67,1.8798 c -0.60284,0 -1.12,0.51447 -1.12,1.115 0,0.60017 0.51678,1.115 1.12,1.115 0.60285,0 1.12,-0.51447 1.12,-1.115 0,-0.60052 -0.51678,-1.115 -1.12,-1.115 z"
         style="fill:#36485c;fill-opacity:1;stroke-width:0.162042"
         id="path26" />
      <path
         d="m -122.93,2.4792 c -0.34464,0 -0.51677,-0.25744 -0.51677,-0.60018 v -2.144 h 1.2061 v -1.6295 h -1.2061 v -1.5438 h -1.8954 v 1.5438 h -0.94748 v 1.6295 h 0.94748 v 2.6589 c 0,1.115 0.60285,1.7152 1.8089,1.7152 0.68931,0 1.12,-0.17136 1.3782,-0.34312 l -0.34464,-1.3721 c 3.4e-4,-3.49e-4 -0.25821,0.08517 -0.43033,0.08517 z"
         style="fill:#36485c;fill-opacity:1;stroke-width:0.162042"
         id="path27" />
      <path
         d="m -115.86,-1.8086 h -2.0675 l -1.0336,1.5435 -0.94788,-1.5435 h -2.0675 l 1.8954,2.8302 -1.9815,3.0016 h 1.9815 l 1.2061,-1.8012 1.034,1.8012 h 2.0675 l -1.9815,-3.0016 z"
         style="fill:#36485c;fill-opacity:1;stroke-width:0.162042"
         id="path28" />
      <path
         d="m -111.73,-0.17923 v -1.6295 h -1.2061 v -1.5438 h -1.8954 v 1.5438 h -0.94748 v 1.6295 h 0.94748 v 2.6589 c 0,1.115 0.60284,1.7152 1.8089,1.7152 0.6893,0 1.12,-0.17136 1.3782,-0.34311 l -0.34464,-1.3721 c -0.0861,0.08572 -0.25859,0.17136 -0.43071,0.17136 -0.34465,0 -0.51677,-0.25744 -0.51677,-0.60017 v -2.144 l 1.2065,-3.6e-4 z"
         style="fill:#36485c;fill-opacity:1;stroke-width:0.162042"
         id="path29" />
    </g>
  </g>
</svg>
