<?xml version="1.0" encoding="UTF-8" standalone="no"?>
<!-- Created with Inkscape (http://www.inkscape.org/) -->

<svg
   width="64"
   height="64"
   viewBox="0 0 16.933333 16.933333"
   version="1.1"
   id="svg1"
   inkscape:version="1.4.2 (unknown)"
   sodipodi:docname="folder-windows.svg"
   xmlns:inkscape="http://www.inkscape.org/namespaces/inkscape"
   xmlns:sodipodi="http://sodipodi.sourceforge.net/DTD/sodipodi-0.dtd"
   xmlns:xlink="http://www.w3.org/1999/xlink"
   xmlns="http://www.w3.org/2000/svg"
   xmlns:svg="http://www.w3.org/2000/svg">
  <sodipodi:namedview
     id="namedview1"
     pagecolor="#ffffff"
     bordercolor="#000000"
     borderopacity="0.25"
     inkscape:showpageshadow="2"
     inkscape:pageopacity="0.0"
     inkscape:pagecheckerboard="0"
     inkscape:deskcolor="#d1d1d1"
     inkscape:document-units="px"
     inkscape:zoom="9.120116"
     inkscape:cx="31.63337"
     inkscape:cy="30.536892"
     inkscape:current-layer="layer1"
     showgrid="true"
     showguides="false">
    <inkscape:grid
       id="grid1"
       units="px"
       originx="0"
       originy="0"
       spacingx="0.26458333"
       spacingy="0.26458333"
       empcolor="#0099e5"
       empopacity="0.30196078"
       color="#0099e5"
       opacity="0.14901961"
       empspacing="5"
       enabled="true"
       visible="true" />
  </sodipodi:namedview>
  <defs
     id="defs1">
    <linearGradient
       id="linearGradient4"
       inkscape:collect="always">
      <stop
         style="stop-color:#aaccff;stop-opacity:1"
         offset="0"
         id="stop4" />
      <stop
         style="stop-color:#ffeeaa;stop-opacity:1"
         offset="0.42100537"
         id="stop6" />
      <stop
         style="stop-color:#5599ff;stop-opacity:1"
         offset="1"
         id="stop5" />
    </linearGradient>
    <linearGradient
       inkscape:collect="always"
       xlink:href="#linearGradient4"
       id="linearGradient5"
       x1="6.7204165"
       y1="1.9712086"
       x2="13.334999"
       y2="14.142041"
       gradientUnits="userSpaceOnUse"
       gradientTransform="translate(0.42333307,-0.11912529)" />
  </defs>
  <g
     inkscape:label="Layer 1"
     inkscape:groupmode="layer"
     id="layer1">
    <rect
       x="2.2871437"
       y="0.52850062"
       style="clip-rule:evenodd;opacity:0.2;fill:#000000;fill-opacity:1;fill-rule:evenodd;stroke-width:0.264585"
       width="12.661815"
       height="13.195868"
       id="rect29"
       ry="0.79374999"
       rx="1.1906257" />
    <rect
       x="2.253372"
       y="0.26458335"
       style="clip-rule:evenodd;fill:url(#linearGradient5);fill-rule:evenodd;stroke-width:0.264587"
       width="12.426589"
       height="13.723703"
       id="rect30"
       ry="1.0583333"
       rx="1.1862109" />
    <path
       style="clip-rule:evenodd;opacity:0.2;fill:#000000;fill-opacity:1;fill-rule:evenodd;stroke-width:0.264586"
       d="m 3.1403083,0.5616023 9.3573277,1.2404109 c 0.500171,0.066303 0.96613,0.4009401 0.955781,0.870927 l -0.01625,0.7381328 0.01625,0.7215647 c 0.0039,0.1758939 -0.04649,0.2573225 -0.196997,0.3109292 l -0.335496,0.1195263 c -0.166565,0.05937 -0.252132,0.2077206 -0.252132,0.420295 v 2.4947475 c 0,0.2124755 0.08562,0.3608818 0.252132,0.4202447 l 0.335496,0.1195273 c 0.150506,0.053605 0.180746,0.1349932 0.180746,0.3109288 v 0.7215617 l 0.01625,6.6337588 c 0.0013,0.514902 -0.658166,1.05807 -1.220935,0.976393 L 3.1403083,15.340964 C 2.6410549,15.268505 2.2229842,14.956307 2.2229842,14.486161 V 1.4164584 c 0,-0.47014813 0.4172574,-0.92114478 0.9173241,-0.8548561 z"
       id="path31-3"
       sodipodi:nodetypes="ssscsccssccscssssss" />
    <path
       style="clip-rule:evenodd;fill:#36485c;fill-opacity:1;fill-rule:evenodd;stroke-width:0.264586"
       d="M 2.9016988,0.27109187 12.259021,1.511504 c 0.50017,0.066303 0.96613,0.4009392 0.955781,0.8709263 l -0.01625,0.7381324 0.01625,0.7215652 c 0.0039,0.1758942 -0.0465,0.2573227 -0.196997,0.3109294 l -0.335497,0.1195264 c -0.166565,0.05937 -0.252132,0.2077209 -0.252132,0.4202955 v 2.4947469 c 0,0.2124778 0.08562,0.3608833 0.252132,0.4202466 l 0.335497,0.1195283 c 0.150505,0.053605 0.180746,0.1349924 0.180746,0.3109294 v 0.7215602 l 0.01625,6.8184034 c 0.0011,0.470196 -0.482614,0.858478 -0.955781,0.791752 L 2.9016988,15.050459 C 2.4021543,14.980016 1.9843748,14.665802 1.9843748,14.195656 V 1.1259489 c 0,-0.47014879 0.4172574,-0.92114576 0.917324,-0.85485703 z"
       id="path31-1-3"
       sodipodi:nodetypes="ssscsccssccscssssss" />
    <path
       d="M 7.1222913,8.9132351 A 0.31749588,0.31749588 0 0 0 6.8620627,8.8446251 L 5.274563,9.1332631 A 0.31751037,0.31751037 0 0 0 5.0138541,9.4456504 v 0.9524936 a 0.31749973,0.31749973 0 0 0 0.3175004,0.317501 H 6.9188543 A 0.31749973,0.31749973 0 0 0 7.2363518,10.398137 V 9.1569991 A 0.31746799,0.31746799 0 0 0 7.1222921,8.9132421 Z M 6.6013536,10.080629 H 5.6488558 V 9.7106004 L 6.6013536,9.5374354 Z M 10.191456,8.3552048 A 0.31740088,0.31740088 0 0 0 9.9312288,8.2865848 L 7.9203953,8.6521901 a 0.31748997,0.31748997 0 0 0 -0.2607099,0.312383 v 1.4335559 a 0.31749973,0.31749973 0 0 0 0.3175003,0.3175 h 2.0108328 a 0.31749973,0.31749973 0 0 0 0.3174975,-0.3175 V 8.5989581 A 0.31746799,0.31746799 0 0 0 10.191457,8.3552008 Z M 9.6705221,10.080629 H 8.2946834 V 9.2295434 L 9.6705221,8.9793911 Z M 6.9188543,11.138957 H 5.3313545 a 0.31749973,0.31749973 0 0 0 -0.3175004,0.317502 v 0.952494 a 0.31751037,0.31751037 0 0 0 0.2607089,0.312386 l 1.5874966,0.288637 A 0.3175111,0.3175111 0 0 0 7.2363518,12.697593 V 11.456459 A 0.31749973,0.31749973 0 0 0 6.9188543,11.138957 Z M 6.6013536,12.317154 5.6488558,12.143987 v -0.37003 H 6.6013536 Z M 9.9880185,11.138957 H 7.9771857 a 0.31749973,0.31749973 0 0 0 -0.3175003,0.317502 v 1.43355 a 0.31748968,0.31748968 0 0 0 0.2607099,0.312385 l 2.0108335,0.365611 A 0.3175111,0.3175111 0 0 0 10.305516,13.255622 V 11.456459 A 0.31749973,0.31749973 0 0 0 9.9880185,11.138957 Z M 9.6705221,12.875192 8.2946834,12.625041 v -0.851084 h 1.3758387 z"
       id="path1-3"
       style="fill:#8c98a6;fill-opacity:1;stroke-width:0.291042" />
  </g>
</svg>
