<?xml version="1.0" encoding="UTF-8" standalone="no"?>
<!-- Created with Inkscape (http://www.inkscape.org/) -->

<svg
   width="64"
   height="64"
   viewBox="0 0 16.933333 16.933333"
   version="1.1"
   id="svg1"
   inkscape:version="1.4.2 (unknown)"
   sodipodi:docname="folder-neon.svg"
   xmlns:inkscape="http://www.inkscape.org/namespaces/inkscape"
   xmlns:sodipodi="http://sodipodi.sourceforge.net/DTD/sodipodi-0.dtd"
   xmlns:xlink="http://www.w3.org/1999/xlink"
   xmlns="http://www.w3.org/2000/svg"
   xmlns:svg="http://www.w3.org/2000/svg">
  <sodipodi:namedview
     id="namedview1"
     pagecolor="#ffffff"
     bordercolor="#000000"
     borderopacity="0.25"
     inkscape:showpageshadow="2"
     inkscape:pageopacity="0.0"
     inkscape:pagecheckerboard="0"
     inkscape:deskcolor="#d1d1d1"
     inkscape:document-units="px"
     inkscape:zoom="9.120116"
     inkscape:cx="31.633369"
     inkscape:cy="30.317597"
     inkscape:current-layer="layer1"
     showgrid="true"
     showguides="false">
    <inkscape:grid
       id="grid1"
       units="px"
       originx="0"
       originy="0"
       spacingx="0.26458333"
       spacingy="0.26458333"
       empcolor="#0099e5"
       empopacity="0.30196078"
       color="#0099e5"
       opacity="0.14901961"
       empspacing="5"
       enabled="true"
       visible="true" />
  </sodipodi:namedview>
  <defs
     id="defs1">
    <linearGradient
       id="linearGradient4"
       inkscape:collect="always">
      <stop
         style="stop-color:#aaccff;stop-opacity:1"
         offset="0"
         id="stop4" />
      <stop
         style="stop-color:#c6afe9;stop-opacity:1"
         offset="0.42100537"
         id="stop6" />
      <stop
         style="stop-color:#5599ff;stop-opacity:1"
         offset="1"
         id="stop5" />
    </linearGradient>
    <linearGradient
       inkscape:collect="always"
       xlink:href="#linearGradient4"
       id="linearGradient5"
       x1="6.7204165"
       y1="1.9712086"
       x2="13.334999"
       y2="14.142041"
       gradientUnits="userSpaceOnUse"
       gradientTransform="translate(0.42333307,-0.11912529)" />
  </defs>
  <g
     inkscape:label="Layer 1"
     inkscape:groupmode="layer"
     id="layer1">
    <rect
       x="2.2871437"
       y="0.52850062"
       style="clip-rule:evenodd;opacity:0.2;fill:#000000;fill-opacity:1;fill-rule:evenodd;stroke-width:0.264585"
       width="12.661815"
       height="13.195868"
       id="rect29"
       ry="0.79374999"
       rx="1.1906257" />
    <rect
       x="2.253372"
       y="0.26458335"
       style="clip-rule:evenodd;fill:url(#linearGradient5);fill-rule:evenodd;stroke-width:0.264587"
       width="12.426589"
       height="13.723703"
       id="rect30"
       ry="1.0583333"
       rx="1.1862109" />
    <path
       style="clip-rule:evenodd;opacity:0.2;fill:#000000;fill-opacity:1;fill-rule:evenodd;stroke-width:0.264586"
       d="m 3.1403083,0.5616023 9.3573277,1.2404109 c 0.500171,0.066303 0.96613,0.4009401 0.955781,0.870927 l -0.01625,0.7381328 0.01625,0.7215647 c 0.0039,0.1758939 -0.04649,0.2573225 -0.196997,0.3109292 l -0.335496,0.1195263 c -0.166565,0.05937 -0.252132,0.2077206 -0.252132,0.420295 v 2.4947475 c 0,0.2124755 0.08562,0.3608818 0.252132,0.4202447 l 0.335496,0.1195273 c 0.150506,0.053605 0.180746,0.1349932 0.180746,0.3109288 v 0.7215617 l 0.01625,6.6337588 c 0.0013,0.514902 -0.658166,1.05807 -1.220935,0.976393 L 3.1403083,15.340964 C 2.6410549,15.268505 2.2229842,14.956307 2.2229842,14.486161 V 1.4164584 c 0,-0.47014813 0.4172574,-0.92114478 0.9173241,-0.8548561 z"
       id="path31-3"
       sodipodi:nodetypes="ssscsccssccscssssss" />
    <path
       style="clip-rule:evenodd;fill:#36485c;fill-opacity:1;fill-rule:evenodd;stroke-width:0.264586"
       d="M 2.9016988,0.27109187 12.259021,1.511504 c 0.50017,0.066303 0.96613,0.4009392 0.955781,0.8709263 l -0.01625,0.7381324 0.01625,0.7215652 c 0.0039,0.1758942 -0.0465,0.2573227 -0.196997,0.3109294 l -0.335497,0.1195264 c -0.166565,0.05937 -0.252132,0.2077209 -0.252132,0.4202955 v 2.4947469 c 0,0.2124778 0.08562,0.3608833 0.252132,0.4202466 l 0.335497,0.1195283 c 0.150505,0.053605 0.180746,0.1349924 0.180746,0.3109294 v 0.7215602 l 0.01625,6.8184034 c 0.0011,0.470196 -0.482614,0.858478 -0.955781,0.791752 L 2.9016988,15.050459 C 2.4021543,14.980016 1.9843748,14.665802 1.9843748,14.195656 V 1.1259489 c 0,-0.47014879 0.4172574,-0.92114576 0.917324,-0.85485703 z"
       id="path31-1-3"
       sodipodi:nodetypes="ssscsccssccscssssss" />
    <g
       id="g2"
       style="fill:#8c98a6;fill-opacity:1;stroke-width:1.2"
       transform="matrix(0.83333256,0,0,0.83333256,1.2677986,1.4463952)">
      <path
         d="m 7.6861442,8.2020832 c -0.1302524,0 -0.2422544,0.07352 -0.2975177,0.181569 -0.6093405,0.0597 -1.1644081,0.299 -1.6114273,0.665588 -0.1149629,-0.036 -0.2447217,-0.0084 -0.3360049,0.08289 -0.091275,0.09129 -0.118902,0.221041 -0.082887,0.336005 -0.3665937,0.447014 -0.6063822,1.0020828 -0.6655905,1.6114218 -0.1080525,0.05526 -0.1815711,0.167276 -0.1815711,0.297525 0,0.130245 0.073518,0.242264 0.1815711,0.297524 0.0597,0.609331 0.2989968,1.16441 0.6655905,1.61141 -0.036016,0.114975 -0.00835,0.244738 0.082887,0.336006 0.091282,0.09127 0.2210414,0.11892 0.3360049,0.08291 0.4470192,0.366588 1.0020868,0.60587 1.6114273,0.665566 0.055263,0.10806 0.1672645,0.181591 0.2975177,0.181591 0.1302585,0 0.2422556,-0.07402 0.297518,-0.181591 0.6093446,-0.0597 1.1644156,-0.298978 1.6114216,-0.665566 0.114971,0.03601 0.244729,0.0084 0.336006,-0.08291 0.09128,-0.09126 0.1189082,-0.221031 0.0829,-0.336006 0.36658,-0.447 0.606381,-1.002079 0.665583,-1.61141 0.107565,-0.05526 0.181571,-0.167276 0.181571,-0.297524 0,-0.130245 -0.07401,-0.242265 -0.181571,-0.297525 -0.05921,-0.609339 -0.299003,-1.1644078 -0.665583,-1.6114218 0.03601,-0.11496 0.0084,-0.244722 -0.0829,-0.336005 -0.09128,-0.09127 -0.221035,-0.118905 -0.336006,-0.08289 -0.447006,-0.366588 -1.002077,-0.605886 -1.6114216,-0.665588 -0.055262,-0.108055 -0.1672601,-0.181569 -0.297518,-0.181569 z m 0,0.167261 c 0.092759,0 0.1672609,0.07451 0.1672609,0.16726 0,0.09226 -0.074502,0.166769 -0.1672609,0.166769 -0.092758,0 -0.1672589,-0.0745 -0.1672589,-0.166769 0,-0.09276 0.074501,-0.16726 0.1672589,-0.16726 z m -0.2807361,0.348829 c 0.059203,0.09177 0.1628167,0.15246 0.2807361,0.15246 0.117921,0 0.2215367,-0.06069 0.2807417,-0.15246 0.5289209,0.05476 1.0109719,0.261996 1.4012529,0.577764 -0.02371,0.107565 0.0064,0.224496 0.09029,0.308869 0.08437,0.08388 0.201301,0.11397 0.308861,0.09028 0.3157692,0.3902728 0.5229942,0.8723228 0.5777672,1.4012478 -0.09178,0.05919 -0.152465,0.162816 -0.152465,0.280739 0,0.11793 0.06069,0.221542 0.152465,0.280734 -0.05477,0.528916 -0.261998,1.010962 -0.5777672,1.401258 -0.10756,-0.0237 -0.224492,0.0064 -0.308861,0.09028 -0.08388,0.08438 -0.113973,0.2013 -0.09029,0.308855 -0.390281,0.315775 -0.872332,0.523002 -1.4012529,0.577773 -0.059205,-0.09177 -0.1628207,-0.152471 -0.2807417,-0.152471 -0.1179194,0 -0.221532,0.06071 -0.2807361,0.152471 -0.5289254,-0.05476 -1.010972,-0.261998 -1.4012489,-0.577773 0.023697,-0.10755 -0.00638,-0.224481 -0.090291,-0.308855 -0.084366,-0.08388 -0.2013027,-0.114 -0.3088638,-0.09028 -0.3157722,-0.39029 -0.5229965,-0.872336 -0.5777684,-1.401252 0.091771,-0.05919 0.1524622,-0.16281 0.1524622,-0.280734 0,-0.117915 -0.060691,-0.221541 -0.1524622,-0.280739 0.054772,-0.528925 0.2619962,-1.010975 0.5777684,-1.4012478 0.1075605,0.0237 0.2244979,-0.0065 0.3088638,-0.09029 0.083877,-0.08437 0.113976,-0.201304 0.090291,-0.308869 0.3902769,-0.315768 0.8723235,-0.522991 1.4012489,-0.577764 z m -1.7278753,0.483038 c 0.042925,0 0.085361,0.01627 0.117921,0.04884 0.065622,0.06563 0.065622,0.171209 0,0.23634 -0.06513,0.06563 -0.1707109,0.06563 -0.2363405,0 -0.065118,-0.06513 -0.065118,-0.170712 0,-0.23634 0.033055,-0.03256 0.075495,-0.04884 0.1184195,-0.04884 z m 4.017218,0 c 0.04294,0 0.08537,0.01627 0.118421,0.04884 0.06512,0.06563 0.06512,0.171209 0,0.23634 -0.06562,0.06563 -0.171209,0.06563 -0.23634,0 -0.06562,-0.06513 -0.06562,-0.170712 0,-0.23634 0.03258,-0.03256 0.075,-0.04884 0.117919,-0.04884 z m -2.0086066,0.0034 c -0.1332209,0 -0.2476877,0.07746 -0.3014618,0.18946 -0.9670557,0.14457 -1.7036975,0.9744578 -1.7036975,1.9829668 0,1.008493 0.7366418,1.838387 1.7036975,1.982959 0.053774,0.11199 0.1682416,0.189451 0.3014618,0.189451 0.133221,0 0.2476852,-0.07746 0.3014677,-0.189451 0.9670509,-0.14457 1.7036919,-0.974461 1.7036919,-1.982959 0,-1.008508 -0.736641,-1.8383988 -1.7036919,-1.9829658 -0.053782,-0.111988 -0.1682463,-0.189448 -0.3014677,-0.189448 z m 0,0.16726 c 0.092759,0 0.1672609,0.0745 0.1672609,0.167262 0,0.09226 -0.074502,0.166765 -0.1672609,0.166765 -0.092758,0 -0.1672589,-0.0745 -0.1672589,-0.166765 0,-0.09276 0.074501,-0.167262 0.1672589,-0.167262 z M 7.410338,9.7285932 c 0.060196,0.08733 0.1613396,0.14457 0.2758062,0.14457 0.114468,0 0.2156158,-0.05722 0.2758061,-0.14457 0.7933805,0.130755 1.3953255,0.8165738 1.3953255,1.6484448 0,0.831853 -0.601945,1.517664 -1.3953255,1.648438 -0.06019,-0.08734 -0.1613375,-0.144585 -0.2758061,-0.144585 -0.1144664,0 -0.2156097,0.05722 -0.2758062,0.144585 -0.7933818,-0.13077 -1.3953223,-0.816585 -1.3953223,-1.648436 0,-0.831873 0.6019405,-1.5176958 1.3953223,-1.6484448 z M 4.8456662,11.209828 c 0.092265,0 0.1667696,0.0745 0.1667696,0.167256 0,0.09276 -0.074505,0.167248 -0.1667696,0.167248 -0.092755,0 -0.1672597,-0.07449 -0.1672597,-0.167248 0,-0.09276 0.074505,-0.167256 0.1672597,-0.167256 z m 5.6809498,0 c 0.09276,0 0.167268,0.0745 0.167268,0.167256 0,0.09276 -0.07451,0.167248 -0.167268,0.167248 -0.09226,0 -0.166761,-0.07449 -0.166761,-0.167248 0,-0.09276 0.0745,-0.167256 0.166761,-0.167256 z M 7.6861442,13.04821 c 0.092759,0 0.1672609,0.07449 0.1672609,0.16676 0,0.09275 -0.074502,0.167263 -0.1672609,0.167263 -0.092758,0 -0.1672589,-0.07452 -0.1672589,-0.167263 0,-0.09227 0.074501,-0.16676 0.1672589,-0.16676 z m -2.0086114,0.170223 c 0.042925,0 0.085361,0.01625 0.117921,0.04932 0.065622,0.06513 0.065622,0.170733 0,0.236352 -0.06513,0.06512 -0.1707113,0.06512 -0.2363405,0 -0.065118,-0.06562 -0.065118,-0.171219 0,-0.236352 0.033055,-0.03304 0.075495,-0.04932 0.1184195,-0.04932 z m 4.017218,0 c 0.04294,0 0.08537,0.01625 0.118421,0.04932 0.06512,0.06513 0.06512,0.170733 0,0.236352 -0.06562,0.06512 -0.171209,0.06512 -0.23634,0 -0.06562,-0.06562 -0.06562,-0.171219 0,-0.236352 0.03258,-0.03304 0.075,-0.04932 0.117919,-0.04932 z m -2.0086066,0.832344 c 0.092759,0 0.1672609,0.07454 0.1672609,0.16677 0,0.09276 -0.074502,0.167269 -0.1672609,0.167269 -0.092758,0 -0.1672589,-0.0745 -0.1672589,-0.167269 0,-0.09223 0.074501,-0.16677 0.1672589,-0.16677 z m 0,0"
         id="path3-3-2"
         style="fill:#8c98a6;fill-opacity:1;stroke-width:0.349245" />
      <path
         d="m 7.6169209,10.298077 c 0.5915725,0 1.0716599,0.480073 1.0716599,1.071652 0,0.591595 -0.4800874,1.071675 -1.0716599,1.071675 -0.5915725,0 -1.0716609,-0.48008 -1.0716609,-1.071675 0,-0.591579 0.4800884,-1.071652 1.0716609,-1.071652 z m 0,0"
         id="path2-6"
         style="fill:#8c98a6;fill-opacity:1;stroke-width:0.349245" />
    </g>
  </g>
</svg>
