<?xml version="1.0" encoding="UTF-8" standalone="no"?>
<!-- Created with Inkscape (http://www.inkscape.org/) -->

<svg
   width="64"
   height="64"
   viewBox="0 0 16.933333 16.933333"
   version="1.1"
   id="svg1"
   inkscape:version="1.4.2 (unknown)"
   sodipodi:docname="folder-2.svg"
   xmlns:inkscape="http://www.inkscape.org/namespaces/inkscape"
   xmlns:sodipodi="http://sodipodi.sourceforge.net/DTD/sodipodi-0.dtd"
   xmlns:xlink="http://www.w3.org/1999/xlink"
   xmlns="http://www.w3.org/2000/svg"
   xmlns:svg="http://www.w3.org/2000/svg">
  <sodipodi:namedview
     id="namedview1"
     pagecolor="#ffffff"
     bordercolor="#000000"
     borderopacity="0.25"
     inkscape:showpageshadow="2"
     inkscape:pageopacity="0.0"
     inkscape:pagecheckerboard="0"
     inkscape:deskcolor="#d1d1d1"
     inkscape:document-units="px"
     inkscape:zoom="6.4488959"
     inkscape:cx="30.547865"
     inkscape:cy="45.356601"
     inkscape:current-layer="layer1"
     showgrid="true"
     showguides="false">
    <inkscape:grid
       id="grid1"
       units="px"
       originx="0"
       originy="0"
       spacingx="0.26458333"
       spacingy="0.26458333"
       empcolor="#0099e5"
       empopacity="0.30196078"
       color="#0099e5"
       opacity="0.14901961"
       empspacing="5"
       enabled="true"
       visible="true" />
  </sodipodi:namedview>
  <defs
     id="defs1">
    <linearGradient
       id="linearGradient4"
       inkscape:collect="always">
      <stop
         style="stop-color:#5599ff;stop-opacity:1"
         offset="0"
         id="stop4" />
      <stop
         style="stop-color:#aade87;stop-opacity:1"
         offset="0.55769229"
         id="stop6" />
      <stop
         style="stop-color:#ffaaee;stop-opacity:1"
         offset="1"
         id="stop5" />
    </linearGradient>
    <linearGradient
       inkscape:collect="always"
       xlink:href="#linearGradient4"
       id="linearGradient5"
       x1="2.2225001"
       y1="0.3837086"
       x2="13.334999"
       y2="14.142041"
       gradientUnits="userSpaceOnUse"
       gradientTransform="translate(0.42333307,-0.11912529)" />
  </defs>
  <g
     inkscape:label="Layer 1"
     inkscape:groupmode="layer"
     id="layer1">
    <rect
       x="2.2871437"
       y="0.52850062"
       style="clip-rule:evenodd;opacity:0.2;fill:#000000;fill-opacity:1;fill-rule:evenodd;stroke-width:0.264585"
       width="12.661815"
       height="13.195868"
       id="rect29"
       ry="0.79374999"
       rx="1.1906257" />
    <rect
       x="2.253372"
       y="0.26458335"
       style="clip-rule:evenodd;fill:url(#linearGradient5);fill-rule:evenodd;stroke-width:0.264587"
       width="12.426589"
       height="13.723703"
       id="rect30"
       ry="1.0583333"
       rx="1.1862109" />
    <path
       style="clip-rule:evenodd;opacity:0.2;fill:#000000;fill-opacity:1;fill-rule:evenodd;stroke-width:0.264586"
       d="m 3.1403083,0.5616023 9.3573277,1.2404109 c 0.500171,0.066303 0.96613,0.4009401 0.955781,0.870927 l -0.01625,0.7381328 0.01625,0.7215647 c 0.0039,0.1758939 -0.04649,0.2573225 -0.196997,0.3109292 l -0.335496,0.1195263 c -0.166565,0.05937 -0.252132,0.2077206 -0.252132,0.420295 v 2.4947475 c 0,0.2124755 0.08562,0.3608818 0.252132,0.4202447 l 0.335496,0.1195273 c 0.150506,0.053605 0.180746,0.1349932 0.180746,0.3109288 v 0.7215617 l 0.01625,6.6337588 c 0.0013,0.514902 -0.658166,1.05807 -1.220935,0.976393 L 3.1403083,15.340964 C 2.6410549,15.268505 2.2229842,14.956307 2.2229842,14.486161 V 1.4164584 c 0,-0.47014813 0.4172574,-0.92114478 0.9173241,-0.8548561 z"
       id="path31-3"
       sodipodi:nodetypes="ssscsccssccscssssss" />
    <path
       style="clip-rule:evenodd;fill:#36485c;fill-opacity:1;fill-rule:evenodd;stroke-width:0.264586"
       d="M 2.9016988,0.27109187 12.259021,1.511504 c 0.50017,0.066303 0.96613,0.4009392 0.955781,0.8709263 l -0.01625,0.7381324 0.01625,0.7215652 c 0.0039,0.1758942 -0.0465,0.2573227 -0.196997,0.3109294 l -0.335497,0.1195264 c -0.166565,0.05937 -0.252132,0.2077209 -0.252132,0.4202955 v 2.4947469 c 0,0.2124778 0.08562,0.3608833 0.252132,0.4202466 l 0.335497,0.1195283 c 0.150505,0.053605 0.180746,0.1349924 0.180746,0.3109294 v 0.7215602 l 0.01625,6.8184034 c 0.0011,0.470196 -0.482614,0.858478 -0.955781,0.791752 L 2.9016988,15.050459 C 2.4021543,14.980016 1.9843748,14.665802 1.9843748,14.195656 V 1.1259489 c 0,-0.47014879 0.4172574,-0.92114576 0.917324,-0.85485703 z"
       id="path31-1-3"
       sodipodi:nodetypes="ssscsccssccscssssss" />
    <g
       id="g1"
       transform="matrix(1.0023686,0,0,1,-0.01531483,-8.0621856e-5)"
       style="stroke-width:0.998818">
      <path
         class="st0"
         d="m 8.1010524,12.973225 c -1.143357,0 -1.8731594,-0.282305 -2.3353677,-0.667265 0.097307,-0.02567 0.194614,-0.077 0.291921,-0.153985 0.194614,-0.205313 0.2432675,-0.487616 0.2189408,-0.744258 0,-0.05133 -0.024326,-0.102655 -0.024326,-0.153984 0.048653,0 0.097307,0.02567 0.1459605,0.02567 0.2189407,0 0.4135547,-0.102655 0.5595152,-0.256641 0.1459604,0.282306 0.4378813,0.487618 0.7784558,0.487618 0.4135547,0 0.7784558,-0.307969 0.8514362,-0.744259 0,-0.05133 0.024326,-0.12832 0.024326,-0.179647 0,-0.102656 -0.024326,-0.205314 -0.048653,-0.307969 C 8.4416272,9.9191985 8.1253796,9.6625572 7.7361516,9.6625572 c -0.2189406,0 -0.4378814,0.076989 -0.5838419,0.2309763 -0.048653,0.05133 -0.097307,0.1026572 -0.1459606,0.1796495 C 6.9576962,10.021853 6.909042,9.9448626 6.8603888,9.9191985 6.7387551,9.8165413 6.5684677,9.7395493 6.3981806,9.7395493 c -0.3649013,0 -0.6811489,0.2823057 -0.7298023,0.6672657 -0.072981,-0.05133 -0.1216338,-0.102656 -0.194614,-0.12832 0.048653,-0.205312 0.1702872,-0.4106256 0.3162476,-0.5389457 V 8.7643159 c 0,-0.07699 0.072981,-0.1026561 0.097307,-0.02566 v 0.02566 c 0.097307,0.2309763 0.2189408,0.5389447 0.4865349,0.7699211 0.2189407,0 0.4378815,0.07699 0.583842,0.2309763 0.1946139,-0.1796482 0.462208,-0.3079684 0.7298023,-0.3079684 0.291921,0 0.5595151,0.1283202 0.7541291,0.3079684 0.9244164,-0.2823044 1.4109513,-0.9239053 1.6542188,-1.4371871 0.02433,-0.076989 0.170287,-0.051331 0.170287,0.02566 0.14596,1.5141791 0.07299,3.0796878 -0.6081686,3.9522648 -0.2432673,-0.179648 -0.4865347,-0.307968 -0.6568219,-0.410625 -0.024326,0 -0.024326,-0.02566 -0.048653,-0.02566 0,-0.02567 0,-0.05133 0,-0.05133 v 0 C 8.9038351,11.664359 8.7822013,11.510374 8.6119141,11.459046 v 0 c -0.048653,-0.02567 -0.1216338,0 -0.1216338,0.077 -0.024326,0.05133 0,0.128321 0.072981,0.128321 v 0 c 0,0 0.024326,0 0.024326,0 -0.4135547,0.282303 -0.9000896,0.410623 -1.4109512,0.38496 H 7.0550025 c -0.048653,0 -0.097307,0.05133 -0.1216337,0.102656 0,0.05133 0.048653,0.102656 0.097307,0.12832 h 0.1216338 c 0.4378814,0.02567 0.9000897,-0.05133 1.2893175,-0.256641 0,0 0,0 0,0 0.024326,0.02567 0.048653,0.077 0.072981,0.102657 0.048653,0.05133 0.1216338,0.12832 0.2189408,0.205312 0.1216337,0.12832 0.291921,0.256641 0.486535,0.410625 -0.2919211,0.12832 -0.6568222,0.230977 -1.1190304,0.230977 z"
         id="path1394-3-6"
         style="fill:#8c98a6;fill-opacity:1;stroke-width:0.273903" />
      <path
         class="st0"
         d="m 9.3660432,12.588264 c -0.291921,-0.230978 -0.5351885,-0.436289 -0.6811489,-0.564609 -0.024326,-0.02566 -0.024326,-0.02566 -0.048653,-0.05133 -0.024326,-0.05133 -0.048653,-0.077 -0.07298,-0.102656 0,-0.02567 0,-0.02567 0,-0.02567 0,0 0.024326,-0.02567 0.048653,0 0.024326,0 0.048653,0.02567 0.07298,0.02567 0.024326,0 0.024326,0.02566 0.048653,0.02566 0.1702873,0.077 0.486535,0.256641 0.8027826,0.487617 0.048653,0.02566 0.097307,0.077 0.1459604,0.102657 0.2675943,0.179649 0.4865347,0.38496 0.6568227,0.513281 0.29192,-0.333632 0.656823,0.564608 0.656823,0.564608 0,0 -0.924418,0.102657 -0.75413,-0.359296 -0.194614,-0.102651 -0.4378814,-0.2823 -0.7054756,-0.461948 -0.048653,-0.05133 -0.1216337,-0.102655 -0.1702872,-0.153984 z"
         id="path1396-5-7"
         style="fill:#8c98a6;fill-opacity:1;stroke-width:0.758095" />
      <path
         class="st1"
         d="m 5.9602987,11.920999 c -0.024326,0.02567 -0.048653,0.05133 -0.07298,0.077 -0.2675942,0.25664 -0.7784558,0.12832 -1.1433571,-0.307969 -0.3649011,-0.436289 -0.462208,-0.975234 -0.194614,-1.231874 0.2189408,-0.179649 0.5595153,-0.153985 0.875763,0.05133 0.072981,0.05133 0.1702872,0.12832 0.2432675,0.205313 0.024326,0.02566 0.048653,0.05133 0.07298,0.077 0.097307,0.12832 0.1946141,0.25664 0.2432676,0.384962 0.072981,0.179647 0.097307,0.359296 0.097307,0.51328 -0.024326,0.077 -0.048653,0.153984 -0.1216338,0.230977 z m -0.8027825,-1.07789 c 0,0.205311 -0.1216337,0.359296 -0.291921,0.359296 -0.1702872,0 -0.291921,-0.153985 -0.291921,-0.359296 0,-0.205314 0.1216338,-0.359297 0.291921,-0.359297 0.1702873,0 0.291921,0.153983 0.291921,0.359297 z"
         id="path1398-6-5"
         style="fill:#8c98a6;fill-opacity:1;stroke-width:0.273903" />
      <path
         class="st0"
         d="m 6.5441408,10.997092 c 0.2432673,0 0.4135546,-0.205312 0.4135546,-0.436289 0,-0.25664 -0.1946139,-0.436288 -0.4135546,-0.436288 -0.024326,0 -0.072981,0 -0.097307,0 0.097307,0.02567 0.1702872,0.128319 0.1702872,0.256639 0,0.153985 -0.1216337,0.256641 -0.2432675,0.256641 -0.097307,0 -0.194614,-0.077 -0.2432673,-0.179647 0,0.02566 0,0.077 0,0.102655 0,0.230977 0.1946139,0.436289 0.4135546,0.436289 z"
         id="path1400-2-3"
         style="fill:#8c98a6;fill-opacity:1;stroke-width:0.273903" />
      <path
         class="st0"
         d="m 7.8821117,11.202405 c 0.2675942,0 0.4865349,-0.230976 0.4865349,-0.513281 0,-0.282305 -0.2189407,-0.513281 -0.4865349,-0.513281 -0.024326,0 -0.048653,0 -0.072981,0 0.1216339,0.02567 0.2189408,0.153985 0.2189408,0.282305 0,0.153984 -0.1216337,0.307967 -0.291921,0.307967 -0.1459604,0 -0.291921,-0.12832 -0.291921,-0.307967 0,-0.02567 0,-0.02567 0,-0.05133 -0.048653,0.077 -0.07298,0.179649 -0.07298,0.282305 0.024326,0.282305 0.2432674,0.513281 0.5108616,0.513281 z"
         id="path1402-9-5"
         style="fill:#8c98a6;fill-opacity:1;stroke-width:0.273903" />
    </g>
  </g>
</svg>
