<?xml version="1.0" encoding="UTF-8" standalone="no"?>
<!-- Created with Inkscape (http://www.inkscape.org/) -->

<svg
   width="64"
   height="64"
   viewBox="0 0 16.933333 16.933333"
   version="1.1"
   id="svg1"
   inkscape:version="1.4.2 (unknown)"
   sodipodi:docname="folder-steam.svg"
   xmlns:inkscape="http://www.inkscape.org/namespaces/inkscape"
   xmlns:sodipodi="http://sodipodi.sourceforge.net/DTD/sodipodi-0.dtd"
   xmlns:xlink="http://www.w3.org/1999/xlink"
   xmlns="http://www.w3.org/2000/svg"
   xmlns:svg="http://www.w3.org/2000/svg">
  <sodipodi:namedview
     id="namedview1"
     pagecolor="#ffffff"
     bordercolor="#000000"
     borderopacity="0.25"
     inkscape:showpageshadow="2"
     inkscape:pageopacity="0.0"
     inkscape:pagecheckerboard="0"
     inkscape:deskcolor="#d1d1d1"
     inkscape:document-units="px"
     inkscape:zoom="9.120116"
     inkscape:cx="30.043477"
     inkscape:cy="30.865835"
     inkscape:current-layer="layer1"
     showgrid="true"
     showguides="false">
    <inkscape:grid
       id="grid1"
       units="px"
       originx="0"
       originy="0"
       spacingx="0.26458333"
       spacingy="0.26458333"
       empcolor="#0099e5"
       empopacity="0.30196078"
       color="#0099e5"
       opacity="0.14901961"
       empspacing="5"
       enabled="true"
       visible="true" />
  </sodipodi:namedview>
  <defs
     id="defs1">
    <linearGradient
       id="linearGradient4"
       inkscape:collect="always">
      <stop
         style="stop-color:#9999ff;stop-opacity:1;"
         offset="0"
         id="stop4" />
      <stop
         style="stop-color:#98e3d3;stop-opacity:1;"
         offset="0.42100537"
         id="stop6" />
      <stop
         style="stop-color:#ffccaa;stop-opacity:1"
         offset="1"
         id="stop5" />
    </linearGradient>
    <linearGradient
       inkscape:collect="always"
       xlink:href="#linearGradient4"
       id="linearGradient5"
       x1="6.4558334"
       y1="2.2357919"
       x2="13.334999"
       y2="14.142041"
       gradientUnits="userSpaceOnUse"
       gradientTransform="translate(0.42333307,-0.11912529)" />
  </defs>
  <g
     inkscape:label="Layer 1"
     inkscape:groupmode="layer"
     id="layer1">
    <rect
       x="2.2871437"
       y="0.52850062"
       style="clip-rule:evenodd;opacity:0.2;fill:#000000;fill-opacity:1;fill-rule:evenodd;stroke-width:0.264585"
       width="12.661815"
       height="13.195868"
       id="rect29"
       ry="0.79374999"
       rx="1.1906257" />
    <rect
       x="2.253372"
       y="0.26458335"
       style="clip-rule:evenodd;fill:url(#linearGradient5);fill-rule:evenodd;stroke-width:0.264587"
       width="12.426589"
       height="13.723703"
       id="rect30"
       ry="1.0583333"
       rx="1.1862109" />
    <path
       style="clip-rule:evenodd;opacity:0.2;fill:#000000;fill-opacity:1;fill-rule:evenodd;stroke-width:0.264586"
       d="m 3.1403083,0.5616023 9.3573277,1.2404109 c 0.500171,0.066303 0.96613,0.4009401 0.955781,0.870927 l -0.01625,0.7381328 0.01625,0.7215647 c 0.0039,0.1758939 -0.04649,0.2573225 -0.196997,0.3109292 l -0.335496,0.1195263 c -0.166565,0.05937 -0.252132,0.2077206 -0.252132,0.420295 v 2.4947475 c 0,0.2124755 0.08562,0.3608818 0.252132,0.4202447 l 0.335496,0.1195273 c 0.150506,0.053605 0.180746,0.1349932 0.180746,0.3109288 v 0.7215617 l 0.01625,6.6337588 c 0.0013,0.514902 -0.658166,1.05807 -1.220935,0.976393 L 3.1403083,15.340964 C 2.6410549,15.268505 2.2229842,14.956307 2.2229842,14.486161 V 1.4164584 c 0,-0.47014813 0.4172574,-0.92114478 0.9173241,-0.8548561 z"
       id="path31-3"
       sodipodi:nodetypes="ssscsccssccscssssss" />
    <path
       style="clip-rule:evenodd;fill:#36485c;fill-opacity:1;fill-rule:evenodd;stroke-width:0.264586"
       d="M 2.9016988,0.27109187 12.259021,1.511504 c 0.50017,0.066303 0.96613,0.4009392 0.955781,0.8709263 l -0.01625,0.7381324 0.01625,0.7215652 c 0.0039,0.1758942 -0.0465,0.2573227 -0.196997,0.3109294 l -0.335497,0.1195264 c -0.166565,0.05937 -0.252132,0.2077209 -0.252132,0.4202955 v 2.4947469 c 0,0.2124778 0.08562,0.3608833 0.252132,0.4202466 l 0.335497,0.1195283 c 0.150505,0.053605 0.180746,0.1349924 0.180746,0.3109294 v 0.7215602 l 0.01625,6.8184034 c 0.0011,0.470196 -0.482614,0.858478 -0.955781,0.791752 L 2.9016988,15.050459 C 2.4021543,14.980016 1.9843748,14.665802 1.9843748,14.195656 V 1.1259489 c 0,-0.47014879 0.4172574,-0.92114576 0.917324,-0.85485703 z"
       id="path31-1-3"
       sodipodi:nodetypes="ssscsccssccscssssss" />
    <path
       d="m 7.7251179,8.2814582 c -1.4365774,0 -2.6056649,1.1444633 -2.6451165,2.5712678 -4.21e-5,0.0018 8.27e-4,0.0048 0.00252,0.0092 a 2.6462285,2.6458154 0 0 1 0.00124,-0.02177 l 1.303,0.57563 a 0.8033257,0.80320022 0 0 1 0.5354915,-0.205044 0.8033257,0.80320022 0 0 1 0.024374,4.26e-4 l 0.4963302,-0.827146 a 1.0395884,1.0394259 0 0 1 -0.001,-0.02358 1.0395884,1.0394259 0 0 1 1.0395898,-1.0394275 1.0395884,1.0394259 0 0 1 1.0395884,1.0394255 1.0395884,1.0394259 0 0 1 -0.9114889,1.031307 l -0.8865788,0.560308 a 0.8033257,0.80320022 0 0 1 0.00266,0.06201 0.8033257,0.80320022 0 0 1 -0.8033185,0.803188 0.8033257,0.80320022 0 0 1 -0.8031369,-0.796555 l -0.951338,-0.420299 a 2.6462285,2.6458154 0 0 1 -0.018101,-0.09155 c -2.862e-4,0.01738 0.00266,0.03973 0.010112,0.06937 0.2900654,1.146457 1.3287527,1.994913 2.56552,1.994913 1.4614698,0 2.6462338,-1.184572 2.6462338,-2.645815 0,-1.4612465 -1.184764,-2.6458242 -2.6462338,-2.6458242 z M 8.4811816,9.698817 a 0.66155717,0.66145383 0 0 0 -0.661557,0.661457 0.66155717,0.66145383 0 0 0 0.661557,0.661455 0.66155717,0.66145383 0 0 0 0.6615566,-0.661455 0.66155717,0.66145383 0 0 0 -0.6615566,-0.661457 z m 0,0.1889934 A 0.47253615,0.47246236 0 0 1 8.9537273,10.360274 0.47253615,0.47246236 0 0 1 8.4811816,10.832748 0.47253615,0.47246236 0 0 1 8.0086333,10.360274 0.47253615,0.47246236 0 0 1 8.4811816,9.8878104 Z M 6.9218049,11.494166 a 0.51979966,0.51971852 0 0 0 -0.2331287,0.05519 l 0.366773,0.162039 A 0.3308119,0.3307602 0 1 1 6.788171,12.316363 l -0.3667739,-0.16204 a 0.51979966,0.51971852 0 0 0 0.500418,0.379268 0.51979966,0.51971852 0 0 0 0.5197994,-0.519717 0.51979966,0.51971852 0 0 0 -0.5197994,-0.519716 z"
       fill="#ffffff"
       opacity="0.75"
       stroke-width="0.0850448"
       id="path4-3"
       style="fill:#8c98a6;fill-opacity:1;opacity:1" />
  </g>
</svg>
