<?xml version="1.0" encoding="UTF-8" standalone="no"?>
<svg
   width="22"
   height="22"
   version="1.1"
   id="svg1"
   sodipodi:docname="network-vpn-acquiring-symbolic.svg"
   inkscape:version="1.4.2 (unknown)"
   xmlns:inkscape="http://www.inkscape.org/namespaces/inkscape"
   xmlns:sodipodi="http://sodipodi.sourceforge.net/DTD/sodipodi-0.dtd"
   xmlns="http://www.w3.org/2000/svg"
   xmlns:svg="http://www.w3.org/2000/svg">
  <defs
     id="defs1" />
  <sodipodi:namedview
     id="namedview1"
     pagecolor="#a5a5a5"
     bordercolor="#999999"
     borderopacity="1"
     inkscape:showpageshadow="2"
     inkscape:pageopacity="0"
     inkscape:pagecheckerboard="0"
     inkscape:deskcolor="#d1d1d1"
     inkscape:zoom="24.491608"
     inkscape:cx="12.636982"
     inkscape:cy="12.841133"
     inkscape:window-width="1920"
     inkscape:window-height="994"
     inkscape:window-x="0"
     inkscape:window-y="0"
     inkscape:window-maximized="1"
     inkscape:current-layer="svg1" />
  <style
     type="text/css"
     id="current-color-scheme">.ColorScheme-Text { color:#fcfcfc; }
.ColorScheme-Background { color:#eff0f1; }
.ColorScheme-Highlight { color:#3498db; }
.ColorScheme-ViewText { color:#31363b; }
.ColorScheme-ViewBackground { color:#fcfcfc; }
.ColorScheme-ViewHover { color:#93cee9; }
.ColorScheme-ViewFocus { color:#3daee9; }
.ColorScheme-ButtonText { color:#31363b; }
.ColorScheme-ButtonBackground { color:#eff0f1; }
.ColorScheme-ButtonHover { color:#93cee9; }
.ColorScheme-ButtonFocus { color:#3daee9; }
.ColorScheme-NegativeText { color: #e74c3c; }
</style>
  <g
     id="g1"
     transform="translate(-0.3494537,0.5)">
    <path
       style="fill:currentColor;fill-opacity:1;stroke:none;stroke-width:0.99922"
       d="m 5.3494549,3 c -1,0 -2,1 -2,2 v 8 c 0,1 1.04598,2 2.02184,2.00007 L 9.1653649,15 c 0,0 0,1 0.9984401,1 v 0 1 H 3.8736349 c -0.69891,0 -0.69891,1 0,1 h 6.2901701 c 0,0 0,1 0.99844,1 v 0 c 0.99844,0 0.99844,-1 0.99844,-1 h 5.8908 c 0.79875,0 0.79875,-1 0,-1 h -5.8908 v -1 c 0.99844,0 0.99844,-1 0.99844,-1 v 0 0 0 0 0 l -1.0234,-1 V 4 c 0.69891,0 0.69891,-1 0,-1 z m 0.52106,1 h 5.2667701 0.99844 v 10 l 1.0234,1 h 0.97348 c 0.69891,0 0.69891,-1 0,-1 l -8.3905701,10e-6 C 4.8978549,14 4.3494549,13.49345 4.3494549,12.5 v -7 c 0,-1 0.52262,-1.5 1.52106,-1.5 z"
       id="rect4144-9-6-7-3-2"
       class="ColorScheme-Text "
       sodipodi:nodetypes="ccccccccccccccccccccccccccccccccccccccc" />
    <path
       class="ColorScheme-Text "
       d="m 15.355695,2 c -0.41602,0 -1.00624,0.5 -1.00624,1 v 3 c 0,0.5 0.59022,1 1.00624,1 h 0.99376 v 2.5 c 0,0.7 1,0.7 1,0 V 7 h 1.00156 c 0.49922,0 0.99844,-0.5 0.99844,-1 V 3 c 0,-0.5 -0.49922,-1 -0.99844,-1 z m -0.006,1 h 3.00156 -0.002 v 2 1 h -3 l 0.006,-1 z"
       stroke-opacity="0"
       stroke-width="0.334742"
       id="path5-3-5-5-7"
       style="fill:currentColor;fill-opacity:1"
       sodipodi:nodetypes="ssscccccssssscccccccc" />
    <path
       class="ColorScheme-Text "
       id="path10095"
       style="fill:currentColor;fill-opacity:1;stroke-width:0.57735"
       d="m 16.799455,11 c -0.64633,0 -1.16667,0.509715 -1.16667,1.142857 v 0.571429 c -0.32316,0 -0.58333,0.254857 -0.58333,0.571429 v 1.142857 c 0,0.316571 0.26017,0.571428 0.58333,0.571428 h 2.33334 c 0.32316,0 0.58333,-0.254857 0.58333,-0.571428 v -1.142857 c 0,-0.316572 -0.26017,-0.571429 -0.58333,-0.571429 V 12.142857 C 17.966125,11.509715 17.445785,11 16.799455,11 Z m 0,0.571429 c 0.32317,0 0.58333,0.254857 0.58333,0.571428 v 0.571429 h -1.16666 v -0.571429 c 0,-0.316571 0.26016,-0.571428 0.58333,-0.571428 z m 0,1.714286 c 0.32317,0 0.58333,0.254857 0.58333,0.571428 0,0.316572 -0.26016,0.571429 -0.58333,0.571429 -0.32317,0 -0.58333,-0.254857 -0.58333,-0.571429 0,-0.316571 0.26016,-0.571428 0.58333,-0.571428 z" />
  </g>
  <path
     d="m 7.0000013,8.525 a 1,1 0 1 0 0,2 1,1 0 0 0 0,-2 z m 2.9999997,0 a 1,1 0 1 0 0,2 1,1 0 0 0 0,-2 z m 3,0 a 1,1 0 1 0 0,2 1,1 0 0 0 0,-2 z"
     id="path1"
     style=""
     class="ColorScheme-Text "
     fill="currentColor" />
</svg>
