<?xml version="1.0" encoding="UTF-8" standalone="no"?>
<svg
   width="16"
   height="16"
   version="1.1"
   id="svg2"
   sodipodi:docname="network-vpn-no-route-symbolic.svg"
   inkscape:version="1.4.2 (unknown)"
   xmlns:inkscape="http://www.inkscape.org/namespaces/inkscape"
   xmlns:sodipodi="http://sodipodi.sourceforge.net/DTD/sodipodi-0.dtd"
   xmlns="http://www.w3.org/2000/svg"
   xmlns:svg="http://www.w3.org/2000/svg">
  <defs
     id="defs2" />
  <sodipodi:namedview
     id="namedview2"
     pagecolor="#ffffff"
     bordercolor="#000000"
     borderopacity="0.25"
     inkscape:showpageshadow="2"
     inkscape:pageopacity="0.0"
     inkscape:pagecheckerboard="0"
     inkscape:deskcolor="#d1d1d1"
     inkscape:zoom="33.45499"
     inkscape:cx="8.0854905"
     inkscape:cy="7.0691996"
     inkscape:current-layer="svg2" />
  <g
     id="g2"
     transform="translate(1.7497461,1.999476)">
    <path
       d="M 6.2483597,0 C 6.0450996,0 5.8423572,0.04592286 5.6375373,0.11718459 a 0.75005639,0.75005639 0 0 0 -0.027829,0.0102538 C 4.759002,0.46266503 2.7844514,1.1164388 1.7162527,1.5424284 a 0.75005639,0.75005639 0 0 0 -0.01758,0.00736 C 1.5262241,1.623676 1.2814,1.7816274 1.1449779,2.0287461 1.008557,2.275865 1.0030444,2.4926173 1.0028945,2.6644752 l -0.002939,4.0062509 c -9.2398e-4,1.1209978 0.3558015,2.0541997 1.1045003,2.7816803 0.747469,0.7262756 1.7965054,1.3272436 3.352942,2.2763446 9.024e-4,5.76e-4 0.00191,0.0011 0.003,0.0019 0.00126,7.5e-4 0.00179,6.69e-4 0.003,0.0019 0.235839,0.145684 0.5079622,0.26565 0.7793056,0.266597 l 0.00152,0.0019 h 0.00152 l 0.00152,-0.0019 c 0.2680994,-0.0012 0.5525972,-0.122618 0.7894938,-0.269547 h 0.00152 c 1.5349765,-0.92825 2.5838265,-1.525683 3.3353068,-2.254517 0.753056,-0.7303442 1.12257,-1.6705826 1.12347,-2.8021552 l 0.0035,-4.0062504 C 11.500337,2.4938898 11.49715,2.2750754 11.35664,2.0232763 11.21567,1.7712804 10.955374,1.6089694 10.768953,1.5382385 a 0.75005639,0.75005639 0 0 0 -0.01471,-0.0043 C 9.7306347,1.1695448 7.7657573,0.47095231 6.8943537,0.12753585 A 0.75005639,0.75005639 0 0 0 6.8650575,0.11728211 C 6.6602306,0.04601136 6.4513458,9.7497586e-5 6.248371,9.7497586e-5 Z m 0,0.74998139 c 0.1029348,0 0.2127773,0.0212556 0.370596,0.076168 0.9057521,0.35695371 2.8607271,1.04974921 3.8831783,1.41356491 0.199015,0.075511 0.247758,0.1776707 0.247553,0.4247968 l -0.0036,4.0062509 c -0.0011,2.0113 -1.0158267,2.5535362 -4.103802,4.420767 C 6.4442451,11.214509 6.3477452,11.249405 6.2453502,11.24973 6.1497694,11.249395 6.050847,11.214486 5.8527992,11.091529 2.7236366,9.1831994 1.7482108,8.6682627 1.7498605,6.6707621 l 0.003,-4.0062509 C 1.7530184,2.4173851 1.8008837,2.3220848 1.9930281,2.2397144 3.0086527,1.8347019 4.9792291,1.1831407 5.8850567,0.82614945 c 0.1578261,-0.0549144 0.2672035,-0.076168 0.3632686,-0.076168 z"
       fill="#dedede"
       id="path1"
       style="stroke-width:0.999974" />
    <path
       d="m 6.2498597,2.9999256 c 0.8249794,0 1.4999626,0.6712337 1.4999626,1.4999625 0,0.8287296 -0.6749832,1.4999632 -1.4999626,1.4999632 V 6.7498329 H 5.4998782 V 5.24987 h 0.7499815 c 0.4124896,0 0.7499811,-0.335992 0.7499811,-0.7499819 0,-0.4139894 -0.3374915,-0.7499811 -0.7499811,-0.7499811 -0.4124901,0 -0.7499815,0.3359917 -0.7499815,0.7499811 H 4.7498968 c 0,-0.8287288 0.6749833,-1.4999625 1.4999629,-1.4999625 z M 5.4998782,7.4998139 H 6.2498597 V 8.2497955 H 5.4998782 Z"
       fill="#dedede"
       id="path2"
       style="stroke-width:0.999974" />
  </g>
</svg>
