<?xml version="1.0" encoding="UTF-8" standalone="no"?>
<svg
   width="22"
   height="22"
   version="1.1"
   id="svg1"
   sodipodi:docname="network-transmit-symbolic.svg"
   inkscape:version="1.4.2 (unknown)"
   xmlns:inkscape="http://www.inkscape.org/namespaces/inkscape"
   xmlns:sodipodi="http://sodipodi.sourceforge.net/DTD/sodipodi-0.dtd"
   xmlns="http://www.w3.org/2000/svg"
   xmlns:svg="http://www.w3.org/2000/svg">
  <defs
     id="defs1" />
  <sodipodi:namedview
     id="namedview1"
     pagecolor="#939393"
     bordercolor="#999999"
     borderopacity="1"
     inkscape:showpageshadow="2"
     inkscape:pageopacity="0"
     inkscape:pagecheckerboard="0"
     inkscape:deskcolor="#d1d1d1"
     inkscape:zoom="24.491608"
     inkscape:cx="10.983354"
     inkscape:cy="15.04597"
     inkscape:window-width="1920"
     inkscape:window-height="994"
     inkscape:window-x="0"
     inkscape:window-y="0"
     inkscape:window-maximized="1"
     inkscape:current-layer="svg1"
     showgrid="false">
    <inkscape:grid
       id="grid1"
       units="px"
       originx="0"
       originy="0"
       spacingx="1"
       spacingy="1"
       empcolor="#0099e5"
       empopacity="0.30196078"
       color="#0099e5"
       opacity="0.14902"
       empspacing="5"
       dotted="false"
       gridanglex="30"
       gridanglez="30"
       visible="false" />
  </sodipodi:namedview>
  <style
     type="text/css"
     id="current-color-scheme">.ColorScheme-Text { color:#fcfcfc; }
.ColorScheme-Background { color:#eff0f1; }
.ColorScheme-Highlight { color:#3498db; }
.ColorScheme-ViewText { color:#31363b; }
.ColorScheme-ViewBackground { color:#fcfcfc; }
.ColorScheme-ViewHover { color:#93cee9; }
.ColorScheme-ViewFocus { color:#3daee9; }
.ColorScheme-ButtonText { color:#31363b; }
.ColorScheme-ButtonBackground { color:#eff0f1; }
.ColorScheme-ButtonHover { color:#93cee9; }
.ColorScheme-ButtonFocus { color:#3daee9; }
.ColorScheme-NegativeText { color: #e74c3c; }
</style>
  <g
     id="g1"
     transform="translate(0.287052,-20.5)">
    <path
       style="fill:currentColor;fill-opacity:1;stroke:none;stroke-width:0.99922"
       d="m 4.7129495,24 c -1,0 -2,1 -2,2 v 8 c 0,1 1.04598,2 2.02184,2.00007 L 8.5288595,36 c 0,0 0,1 0.9984405,1 v 0 1 H 3.2371295 c -0.69891,0 -0.69891,1 0,1 H 9.5273 c 0,0 0,1 0.99844,1 v 0 c 0.99844,0 0.99844,-1 0.99844,-1 h 5.8908 c 0.798749,0 0.798749,-1 0,-1 h -5.8908 v -1 c 0.99844,0 0.99844,-1 0.99844,-1 v 0 0 0 0 0 l -1.0234,-1 V 25 c 0.69891,0 0.69891,-1 0,-1 z m 0.52106,1 h 5.2667705 0.99844 v 10 l 1.0234,1 h 0.97348 c 0.69891,0 0.69891,-1 0,-1 l -8.3905705,1e-5 C 4.2613495,35 3.7129495,34.49345 3.7129495,33.5 v -7 c 0,-1 0.52262,-1.5 1.52106,-1.5 z"
       id="rect4144-9-6-6"
       class="ColorScheme-Text "
       sodipodi:nodetypes="ccccccccccccccccccccccccccccccccccccccc" />
    <path
       class="ColorScheme-Text "
       d="m 14.719189,23 c -0.41602,0 -1.00624,0.5 -1.00624,1 v 3 c 0,0.5 0.59022,1 1.00624,1 h 0.99376 v 2 h 1 v 2 h -1 v 2 c 0,0.7 1,0.7 1,0 v -4 -2 h 1.00156 c 0.49922,0 0.99844,-0.5 0.99844,-1 v -3 c 0,-0.5 -0.49922,-1 -0.99844,-1 z m -0.006,1 h 3.001561 -0.002 v 2 1 h -3 l 0.006,-1 z"
       stroke-opacity="0"
       stroke-width="0.334742"
       id="path5-3-2"
       style="fill:currentColor;fill-opacity:1"
       sodipodi:nodetypes="sssccccccccccssssscccccccc" />
  </g>
  <path
     d="m 9.2594982,12.592847 c -0.146215,0 -0.292385,-0.05777 -0.404429,-0.169816 -0.224076,-0.224076 -0.224076,-0.584768 0,-0.808844 l 1.4501388,-1.45014 H 5.966004 C 5.649113,10.164047 5.394,9.9089331 5.394,9.5920451 c 0,-0.31689 0.255113,-0.5720033 0.572004,-0.5720033 h 4.339204 L 8.8550692,7.5699028 c -0.224076,-0.224076 -0.224076,-0.584769 0,-0.808845 0.224077,-0.224077 0.584768,-0.224077 0.808848,0 l 2.3862758,2.388566 c 0.0287,0.02362 0.05462,0.05164 0.0782,0.08042 0.0053,0.0064 0.01069,0.01336 0.01564,0.02009 0.0067,0.0086 0.01392,0.01744 0.02011,0.02684 0.009,0.01353 0.01685,0.02826 0.02458,0.04248 0.0013,0.0021 0.0032,0.0045 0.0044,0.0066 0.003,0.0056 0.004,0.01213 0.0067,0.01789 0.0014,0.0034 0.003,0.0059 0.0044,0.0084 0.0038,0.0078 0.0078,0.01618 0.01122,0.02459 0.0136,0.03369 0.02426,0.06842 0.03128,0.105012 0.0032,0.01663 0.0072,0.03464 0.009,0.05143 7.4e-5,7.41e-4 -7.2e-5,0.0012 0,0.002 6.9e-5,7.3e-4 -6.8e-5,0.0013 0,0.002 0.0017,0.01812 0.0023,0.03529 0.0023,0.05352 0,0.01827 -5.73e-4,0.03583 -0.0023,0.0536 -6.9e-5,7.12e-4 7.1e-5,0.0013 0,0.002 v 0.002 c -0.0017,0.01712 -0.0058,0.03478 -0.009,0.05143 -0.007,0.03656 -0.01769,0.07133 -0.03128,0.105012 -0.0034,0.0081 -0.0074,0.01635 -0.01122,0.02459 -0.0041,0.0084 -0.0067,0.01816 -0.01122,0.02684 -0.0012,0.002 -0.0032,0.0047 -0.0044,0.0066 -0.0078,0.0144 -0.0156,0.02882 -0.02458,0.04248 -0.0011,0.0015 -0.0034,0.0024 -0.0044,0.0047 -9.35e-4,0.0012 -0.0013,0.0036 -0.0023,0.0047 -0.003,0.0047 -0.0058,0.0086 -0.009,0.01336 -0.0058,0.0076 -0.0139,0.01474 -0.02011,0.02232 -3.56e-4,4.35e-4 3.57e-4,0.0016 0,0.002 v 0.002 c -0.0116,0.01419 -0.02506,0.02732 -0.03798,0.04021 -0.01295,0.01278 -0.0261,0.02635 -0.04022,0.03796 L 9.6639182,12.423184 C 9.5518682,12.535223 9.4057012,12.593 9.2594862,12.593 Z"
     id="path2"
     style="stroke-width:1"
     class="ColorScheme-Text"
     fill="currentColor" />
</svg>
