<?xml version="1.0" encoding="UTF-8" standalone="no"?>
<svg
   width="16"
   height="16"
   version="1.1"
   id="svg2"
   sodipodi:docname="network-vpn-error-symbolic.svg"
   inkscape:version="1.4.2 (unknown)"
   xmlns:inkscape="http://www.inkscape.org/namespaces/inkscape"
   xmlns:sodipodi="http://sodipodi.sourceforge.net/DTD/sodipodi-0.dtd"
   xmlns="http://www.w3.org/2000/svg"
   xmlns:svg="http://www.w3.org/2000/svg">
  <defs
     id="defs2" />
  <sodipodi:namedview
     id="namedview2"
     pagecolor="#ffffff"
     bordercolor="#000000"
     borderopacity="0.25"
     inkscape:showpageshadow="2"
     inkscape:pageopacity="0.0"
     inkscape:pagecheckerboard="0"
     inkscape:deskcolor="#d1d1d1"
     inkscape:zoom="33.45499"
     inkscape:cx="12.225381"
     inkscape:cy="8.3246177"
     inkscape:current-layer="svg2" />
  <g
     id="g2"
     transform="translate(1.7497803,1.9996185)">
    <path
       d="m 6.248491,-1.41e-4 c -0.2032647,0 -0.4060121,0.045924 -0.6108374,0.11718751 a 0.75007509,0.75007509 0 0 0 -0.027832,0.0102541 C 4.7590967,0.46253559 2.7844966,1.1163257 1.7162713,1.5423258 a 0.75007509,0.75007509 0 0 0 -0.017579,0.00735 C 1.5262385,1.6235718 1.2814087,1.7815309 1.1449836,2.0286559 1.0085589,2.2757808 1.0030461,2.4925383 1.0028962,2.6644007 l -0.002936,4.0063507 c -9.274e-4,1.1210252 0.35581,2.0542508 1.1045275,2.7817503 0.7474876,0.7262933 1.7965503,1.3272763 3.3530254,2.2764003 9.19e-4,5.77e-4 0.00195,9.23e-4 0.00299,0.0018 0.00126,7.52e-4 0.00174,6.69e-4 0.003,0.0018 0.2358449,0.145687 0.507975,0.265656 0.779325,0.266602 0,0 0.0015,0.0018 0.0015,0.0018 h 0.0015 c 0,0 0.0015,-0.0018 0.0015,-0.0018 0.2681174,-0.0011 0.5526223,-0.122603 0.7895251,-0.269537 h 0.0015 C 8.5733079,10.801137 9.6221807,10.203686 10.37368,9.4748354 11.126755,8.7444688 11.496282,7.8042127 11.497181,6.6726109 l 0.0033,-4.0063507 C 11.500172,2.4934534 11.497068,2.2746333 11.356471,2.0228282 11.21578,1.7710156 10.955477,1.6087007 10.769051,1.5379683 a 0.75007509,0.75007509 0 0 0 -0.01468,-0.00434 C 9.7308537,1.169358 7.7659276,0.47074804 6.8945024,0.12732301 a 0.75007509,0.75007509 0 0 0 -0.029292,-0.010254 C 6.6603775,0.04579651 6.4514876,-1.1850001e-4 6.2485075,-1.1850001e-4 Z m 0,0.7500001 c 0.1029377,0 0.2127827,0.0212558 0.3706054,0.0761701 0.9057749,0.3569623 2.8608003,1.0497753 3.8832746,1.4136001 0.199021,0.075512 0.247764,0.1776752 0.24756,0.4248075 l -0.0032,4.0063506 C 10.745186,8.6821378 9.730484,9.2243867 6.6424337,11.091663 6.4443673,11.214649 6.3478653,11.249544 6.2454676,11.249868 6.149865,11.249535 6.05094,11.214616 5.8528875,11.091663 2.7236619,9.1832877 1.7482119,8.6683377 1.7498617,6.6707874 l 0.00299,-4.0063507 C 1.7530505,2.4173044 1.8009174,2.3220016 1.9930692,2.2396293 3.0087194,1.8346067 4.9793446,1.183029 5.8851948,0.82602914 6.0430324,0.77111336 6.1524121,0.74985903 6.2484797,0.74985903 Z"
       fill="#dedede"
       id="path1"
       style="stroke-width:0.999984" />
    <path
       class="warning"
       d="m 6.249991,2.2499651 c -0.4154997,0 -0.7499997,0.3345 -0.7499997,0.7500001 v 3.0000004 c 0,0.4154998 0.3345,0.75 0.7499997,0.75 0.4155003,0 0.7500003,-0.3345002 0.7500003,-0.75 V 2.9999652 c 0,-0.4155001 -0.3345,-0.7500001 -0.7500003,-0.7500001 z m 0,5.2500006 A 0.7500001,0.7500001 0 0 0 5.4999913,8.2499655 0.7500001,0.7500001 0 0 0 6.249991,8.9999658 0.7500001,0.7500001 0 0 0 6.9999913,8.2499655 0.7500001,0.7500001 0 0 0 6.249991,7.4999657 Z"
       fill="#ff9955"
       id="path2"
       style="stroke-width:0.999984" />
  </g>
</svg>
