<?xml version="1.0" encoding="UTF-8" standalone="no"?>
<svg
   width="16"
   height="16"
   version="1.1"
   viewBox="0 0 16 16"
   id="svg1"
   sodipodi:docname="folder-gnome.svg"
   inkscape:version="1.4.2 (unknown)"
   xmlns:inkscape="http://www.inkscape.org/namespaces/inkscape"
   xmlns:sodipodi="http://sodipodi.sourceforge.net/DTD/sodipodi-0.dtd"
   xmlns="http://www.w3.org/2000/svg"
   xmlns:svg="http://www.w3.org/2000/svg">
  <sodipodi:namedview
     id="namedview1"
     pagecolor="#ffffff"
     bordercolor="#000000"
     borderopacity="0.25"
     inkscape:showpageshadow="2"
     inkscape:pageopacity="0.0"
     inkscape:pagecheckerboard="0"
     inkscape:deskcolor="#d1d1d1"
     inkscape:zoom="47.5625"
     inkscape:cx="7.9894875"
     inkscape:cy="8"
     inkscape:current-layer="svg1" />
  <defs
     id="defs1">
    <style
       id="current-color-scheme"
       type="text/css">
   .ColorScheme-Text { color:#727272; } .ColorScheme-Highlight { color:#5294e2; }
  </style>
  </defs>
  <path
     style="fill:currentColor;stroke-width:0.999997"
     class="ColorScheme-Text"
     d="M 12.096171,2 C 9.5588608,2 9.0814326,5.428572 10.510465,5.428572 11.936747,5.428572 14.635027,2 12.096171,2 Z M 8.1968608,2.8571422 c -0.04028,0 -0.08486,0.0042 -0.1294282,0.0086 C 6.614575,3.040572 7.1245751,5.3848571 7.8985751,5.428572 8.6468608,5.4714278 9.4662894,2.864 8.1977185,2.8571422 Z M 5.5482895,3.714286 c -0.1037146,-0.00429 -0.2194289,0.00943 -0.3471429,0.042 C 3.8417186,4.1 4.9945749,5.519428 5.7557186,5.423428 6.446575,5.3368572 6.5468607,3.754572 5.5482895,3.714286 Z M 3.6531466,5.428572 c -0.121714,-0.00176 -0.253714,0.02486 -0.393428,0.09 -1.117714,0.528 0.377142,1.801714 1.0345711,1.6045705 C 4.8694326,6.95 4.5025749,5.448286 3.6531466,5.428572 Z M 8.8662894,6.285714 C 6.8657186,6.254 4.2274326,7.1985718 3.7765749,9.096286 3.2897186,11.15086 5.7848607,14 8.3854326,14 c 1.2797141,0 2.7558924,-0.57514 3.0318924,-1.953422 0.21,-1.050858 -2.6496066,-0.598298 -2.5527499,0.09684 0.1157143,0.834 -0.4825713,0.701157 -1.2325711,0.163719 C 5.4291466,10.571423 11.583607,9.7434282 11.16617,7.406 11.036747,6.678286 10.066462,6.306286 8.8662894,6.2874281 Z"
     id="path1" />
</svg>
