<?xml version="1.0" encoding="UTF-8" standalone="no"?>
<!-- Created with Inkscape (http://www.inkscape.org/) -->

<svg
   width="64"
   height="64"
   viewBox="0 0 16.933333 16.933333"
   version="1.1"
   id="svg1"
   inkscape:version="1.4.2 (unknown)"
   sodipodi:docname="system-file-manager_su.svg"
   xmlns:inkscape="http://www.inkscape.org/namespaces/inkscape"
   xmlns:sodipodi="http://sodipodi.sourceforge.net/DTD/sodipodi-0.dtd"
   xmlns="http://www.w3.org/2000/svg"
   xmlns:svg="http://www.w3.org/2000/svg">
  <sodipodi:namedview
     id="namedview1"
     pagecolor="#ffffff"
     bordercolor="#000000"
     borderopacity="0.25"
     inkscape:showpageshadow="2"
     inkscape:pageopacity="0.0"
     inkscape:pagecheckerboard="0"
     inkscape:deskcolor="#d1d1d1"
     inkscape:document-units="px"
     inkscape:zoom="9.1201162"
     inkscape:cx="31.743017"
     inkscape:cy="38.870119"
     inkscape:current-layer="layer1"
     showgrid="true"
     showguides="false">
    <inkscape:grid
       id="grid1"
       units="px"
       originx="0"
       originy="0"
       spacingx="0.26458333"
       spacingy="0.26458333"
       empcolor="#0099e5"
       empopacity="0.30196078"
       color="#0099e5"
       opacity="0.14901961"
       empspacing="5"
       enabled="true"
       visible="true" />
  </sodipodi:namedview>
  <defs
     id="defs1" />
  <g
     inkscape:label="Layer 1"
     inkscape:groupmode="layer"
     id="layer1">
    <g
       id="g1">
      <rect
         x="4.2388601"
         y="1.8520832"
         style="clip-rule:evenodd;opacity:0.2;fill:#000000;fill-opacity:1;fill-rule:evenodd;stroke-width:0.264585"
         width="10.577806"
         height="13.229166"
         id="rect29"
         ry="0.79374999"
         rx="0.79375064" />
      <rect
         x="6.069252"
         y="1.5875"
         style="clip-rule:evenodd;fill:#ff5555;fill-opacity:1;fill-rule:evenodd;stroke-width:0.264586"
         width="8.4888077"
         height="13.758333"
         id="rect30"
         ry="1.0583332"
         rx="1.0610963" />
      <path
         style="clip-rule:evenodd;opacity:0.2;fill:#000000;fill-opacity:1;fill-rule:evenodd;stroke-width:0.264587"
         d="m 3.2968711,1.3229166 h 9.3779779 c 0.457463,0 0.915849,0.4547565 0.914925,0.9260417 l -0.0038,1.9306298 v 0.7233882 c 0,0.1763808 -0.02845,0.2579736 -0.170053,0.3117151 l -0.315645,0.1198287 c -0.15671,0.059517 -0.237213,0.2082463 -0.237213,0.4213084 v 2.5010489 c 0,0.2130131 0.08056,0.3617956 0.237213,0.4213073 l 0.315641,0.1198295 c 0.1416,0.053739 0.170052,0.1353342 0.170052,0.3117153 v 0.7233873 l -0.0098,5.2481332 c -9.91e-4,0.529165 -0.656369,1.058332 -1.113832,1.058332 -6.8559806,5e-6 -6.0394979,-1e-6 -9.1654905,-1e-6 -0.4746829,0 -0.9149255,-0.454705 -0.9149255,-0.926041 V 2.2489583 c 0,-0.4712862 0.4402943,-0.9260417 0.9149255,-0.9260417 z"
         id="path30"
         sodipodi:nodetypes="ssscsccssccscsssssss" />
      <path
         style="clip-rule:evenodd;fill:#36485c;fill-rule:evenodd;stroke-width:0.264586"
         d="m 3.0321268,1.0583333 h 9.3383202 c 0.503561,0 0.957799,0.4547727 0.95384,0.9260416 l -0.01622,1.930621 0.01622,0.7233861 c 0.0039,0.1763386 -0.0464,0.2579724 -0.196597,0.3117144 l -0.334815,0.119828 c -0.166227,0.059517 -0.25162,0.2082443 -0.25162,0.4213559 v 2.5010416 c 0,0.2130121 0.08545,0.3617926 0.25162,0.4213057 l 0.334815,0.1198293 c 0.1502,0.053738 0.180379,0.1353338 0.180379,0.3117142 v 0.7233853 l 0.01622,5.3804016 c 0.0014,0.471383 -0.47692,0.926042 -0.95384,0.926042 H 3.0321268 c -0.5035079,0 -0.9154606,-0.385628 -0.9154606,-0.856961 V 1.9153476 c 0,-0.4713354 0.4120045,-0.8570143 0.9154606,-0.8570143 z"
         id="path31"
         sodipodi:nodetypes="ssscsccssccscssssss" />
    </g>
    <path
       d="M 10.81001,10.226422 C 10.822189,9.9397582 10.553239,9.6440082 10.443831,9.5372832 9.8391315,7.7970766 7.6679686,8.4053149 7.2440322,8.5435482 6.139438,7.7452481 5.2886083,8.5958158 5.2809942,8.6042238 c -0.040969,0.040928 -0.0592,0.1055736 -0.047083,0.1672598 0.012158,0.060013 0.053234,0.1087766 0.1063765,0.1261527 0.3403655,0.1106342 0.5971295,0.485734 0.7049638,0.6669862 C 5.2521587,10.62031 5.2232957,12.124696 5.2308819,12.51173 c -0.9891304,0.931145 -0.6761217,1.890086 -0.660961,1.931755 0.021259,0.06003 0.06991,0.103997 0.1276633,0.108598 0.00423,0 0.00922,0 0.013588,0 0.051688,0 0.1018284,-0.03128 0.1291774,-0.08253 0.180807,-0.331558 0.4072166,-0.531635 0.6715571,-0.595924 0.4725002,-0.113574 0.9313634,0.233788 0.9359167,0.236891 0.034905,0.02749 0.078996,0.03777 0.1215254,0.02295 0.041068,-0.0093 0.077475,-0.0432 0.097226,-0.08677 C 6.9050966,13.547523 6.535894,12.911506 6.3991332,12.702861 6.573829,11.859125 7.0023242,11.370188 7.3380735,11.105943 l -0.068329,0.129722 c -0.021267,0.04318 -0.027333,0.09267 -0.01375,0.140065 0.012147,0.04846 0.042565,0.08633 0.082087,0.106944 0.1488612,0.07368 0.3570222,0.08112 0.6214355,0.01695 0.2203417,-0.05448 0.4330312,-0.183356 0.6153654,-0.375069 0.2385159,-0.248824 0.5044441,-0.267831 0.5044441,-0.267831 h 1.5103025 c 0.03504,0 0.06688,-0.0115 0.09415,-0.03602 0.129181,-0.115732 0.165599,-0.241644 0.174692,-0.328049 0.01222,-0.114604 -0.01957,-0.211223 -0.04841,-0.273214 z M 9.7419013,10.039707 h -0.08358 c -0.08358,0 -0.151975,-0.077171 -0.151975,-0.1728652 0,-0.095529 0.06838,-0.172639 0.151975,-0.172639 h 0.08358 c 0.08509,0 0.1519618,0.076935 0.1519618,0.172639 0,0.095295 -0.06684,0.1728652 -0.1519608,0.1728652 z"
       id="path49-5-3-5-5-2-6-3-3-3-2"
       style="fill:#8fbcbb;fill-opacity:1;stroke-width:0.0172389"
       class=" " />
  </g>
</svg>
