<?xml version="1.0" encoding="UTF-8" standalone="no"?>
<svg
   width="22"
   height="22"
   version="1.1"
   id="svg1"
   sodipodi:docname="network-wired-no-route-symbolic.svg"
   inkscape:version="1.4.2 (unknown)"
   xmlns:inkscape="http://www.inkscape.org/namespaces/inkscape"
   xmlns:sodipodi="http://sodipodi.sourceforge.net/DTD/sodipodi-0.dtd"
   xmlns="http://www.w3.org/2000/svg"
   xmlns:svg="http://www.w3.org/2000/svg">
  <defs
     id="defs1" />
  <sodipodi:namedview
     id="namedview1"
     pagecolor="#acacac"
     bordercolor="#999999"
     borderopacity="1"
     inkscape:showpageshadow="2"
     inkscape:pageopacity="0"
     inkscape:pagecheckerboard="0"
     inkscape:deskcolor="#7e7e7e"
     inkscape:zoom="24.491608"
     inkscape:cx="11.003769"
     inkscape:cy="14.025212"
     inkscape:window-width="1920"
     inkscape:window-height="998"
     inkscape:window-x="0"
     inkscape:window-y="0"
     inkscape:window-maximized="1"
     inkscape:current-layer="svg1"
     showgrid="true">
    <inkscape:grid
       id="grid1"
       units="px"
       originx="0"
       originy="0"
       spacingx="1"
       spacingy="1"
       empcolor="#0099e5"
       empopacity="0.30196078"
       color="#0099e5"
       opacity="0.14902"
       empspacing="5"
       dotted="false"
       gridanglex="30"
       gridanglez="30"
       visible="true" />
  </sodipodi:namedview>
  <style
     type="text/css"
     id="current-color-scheme">.ColorScheme-Text { color:#fcfcfc; }
.ColorScheme-Background { color:#eff0f1; }
.ColorScheme-Highlight { color:#3498db; }
.ColorScheme-ViewText { color:#31363b; }
.ColorScheme-ViewBackground { color:#fcfcfc; }
.ColorScheme-ViewHover { color:#93cee9; }
.ColorScheme-ViewFocus { color:#3daee9; }
.ColorScheme-ButtonText { color:#31363b; }
.ColorScheme-ButtonBackground { color:#eff0f1; }
.ColorScheme-ButtonHover { color:#93cee9; }
.ColorScheme-ButtonFocus { color:#3daee9; }
.ColorScheme-NegativeText { color: #e74c3c; }
</style>
  <g
     id="g1"
     transform="translate(-1.188768,-21.5)"
     style="fill:#fcfcfc;fill-opacity:1">
    <path
       style="opacity:1;fill:#fcfcfc;fill-opacity:1;stroke:none;stroke-width:0.99922"
       d="m 6.1887695,24.5 c -1,0 -2,1 -2,2 v 8 c 0,1 1.04598,2 2.02184,2.00007 L 10.004679,36.5 c 0,0 0,1 0.998441,1 v 0 1 H 4.7129495 c -0.69891,0 -0.69891,1 0,1 H 11.00312 c 0,0 0,1 0.99844,1 v 0 C 13,40.5 13,39.5 13,39.5 h 5.8908 c 0.798749,0 0.798749,-1 0,-1 H 13 v -1 c 0.99844,0 0.99844,-1 0.99844,-1 v 0 0 0 0 0 l -1.0234,-1 v -10 c 0.69891,0 0.69891,-1 0,-1 z m 0.52106,1 H 11.9766 12.97504 v 10 l 1.0234,1 h 0.97348 c 0.69891,0 0.69891,-1 0,-1 l -8.3905705,1e-5 C 5.7371695,35.5 5.1887695,34.99345 5.1887695,34 v -7 c 0,-1 0.52262,-1.5 1.52106,-1.5 z"
       id="rect4144-9-6-6"
       class="ColorScheme-Text "
       sodipodi:nodetypes="ccccccccccccccccccccccccccccccccccccccc" />
    <path
       class="ColorScheme-Text "
       d="m 16.195009,24 c -0.41602,0 -1.00624,0.5 -1.00624,1 v 3 c 0,0.5 0.59022,1 1.00624,1 h 0.99376 v 2 h 1 v 2 h -1 v 2 c 0,0.7 1,0.7 1,0 v -4 -2 h 1.00156 c 0.49922,0 0.99844,-0.5 0.99844,-1 v -3 c 0,-0.5 -0.49922,-1 -0.99844,-1 z m -0.006,1 h 3.001561 -0.002 v 2 1 h -3 l 0.006,-1 z"
       stroke-opacity="0"
       stroke-width="0.334742"
       id="path5-3-2"
       style="opacity:1;fill:#fcfcfc;fill-opacity:1"
       sodipodi:nodetypes="sssccccccccccssssscccccccc" />
    <path
       inkscape:connector-curvature="0"
       style="color:#31363b;font-style:normal;font-variant:normal;font-weight:normal;font-stretch:normal;font-size:medium;line-height:1.25;font-family:'DejaVu Sans';-inkscape-font-specification:'DejaVu Sans';letter-spacing:0px;word-spacing:0px;opacity:1;fill:#ff2a2a;fill-opacity:1;stroke:none;stroke-width:0.225479"
       d="m 12.145601,27.5 c -0.344626,0 -0.679355,0.04294 -1.003906,0.128906 -0.321204,0.08597 -0.638612,0.215626 -0.953125,0.390625 v 0.867188 c 0.32455,-0.205702 0.635811,-0.363247 0.933594,-0.470703 0.301129,-0.107456 0.583331,-0.160157 0.847656,-0.160157 0.361355,0 0.651658,0.0831 0.869141,0.251953 0.220828,0.168859 0.330078,0.390817 0.330078,0.664063 0,0.150439 -0.04192,0.297108 -0.128907,0.441406 -0.08365,0.144299 -0.221394,0.298219 -0.412109,0.460938 -0.546542,0.343827 -0.916687,0.558895 -1.244141,1.105469 -0.09369,0.19956 -0.140624,0.453584 -0.140624,0.763671 V 32.5 h 0.958984 v -0.414062 c 0,-0.159649 0.0056,-0.284844 0.01563,-0.376954 0.01004,-0.0921 0.02485,-0.169905 0.04492,-0.234375 0.02677,-0.07675 0.0712,-0.154555 0.134765,-0.234375 0.06692,-0.08289 0.178682,-0.197499 0.335938,-0.341796 0.451203,-0.399228 0.877188,-0.652142 1.273437,-1.105469 0.160375,-0.183478 0.181638,-0.434636 0.181638,-0.667969 0,-0.488158 -0.187761,-0.879927 -0.5625,-1.177734 C 13.254677,27.649459 12.761243,27.5 12.145601,27.5 Z m -0.957031,6 v 1 h 1 v -1 z"
       id="path887"
       class="ColorScheme-Text" />
  </g>
</svg>
