<?xml version="1.0" encoding="UTF-8" standalone="no"?>
<svg
   width="16"
   height="16"
   version="1.1"
   id="svg2"
   sodipodi:docname="network-vpn-disconnected-symbolic.svg"
   inkscape:version="1.4.2 (unknown)"
   xmlns:inkscape="http://www.inkscape.org/namespaces/inkscape"
   xmlns:sodipodi="http://sodipodi.sourceforge.net/DTD/sodipodi-0.dtd"
   xmlns="http://www.w3.org/2000/svg"
   xmlns:svg="http://www.w3.org/2000/svg">
  <defs
     id="defs2" />
  <sodipodi:namedview
     id="namedview2"
     pagecolor="#ffffff"
     bordercolor="#000000"
     borderopacity="0.25"
     inkscape:showpageshadow="2"
     inkscape:pageopacity="0.0"
     inkscape:pagecheckerboard="0"
     inkscape:deskcolor="#d1d1d1"
     inkscape:zoom="23.65625"
     inkscape:cx="8.010568"
     inkscape:cy="10.842801"
     inkscape:current-layer="svg2" />
  <g
     id="g2"
     transform="translate(1.7501392,2.000117)">
    <path
       d="M 4.4044638,3.5015162 A 0.65160073,0.65160073 0 0 0 3.9422063,4.61668 L 5.3263681,6.0008419 3.9422063,7.3850043 A 0.65280802,0.65280802 0 1 0 4.8654159,8.3082136 L 6.2508837,6.9240519 7.6363516,8.3082136 A 0.65280803,0.65280803 0 1 0 8.5595614,7.3850043 L 7.1740939,6.0008419 8.5582549,4.61668 A 0.65327213,0.65327213 0 1 0 7.6350454,3.6921645 L 6.2508837,5.0763267 4.8667221,3.6921645 A 0.65029488,0.65029488 0 0 0 4.4044638,3.5015162 Z"
       fill="#dedede"
       fill-rule="evenodd"
       opacity="0.5"
       paint-order="fill markers stroke"
       id="path1"
       style="stroke-width:1" />
    <path
       d="m 6.2479227,-1.41e-4 c -0.2032426,0 -0.4059686,0.04591904 -0.6107714,0.11717483 a 0.74999392,0.74999392 0 0 0 -0.027828,0.010253 C 4.7586896,0.46248549 2.7843027,1.116205 1.7161933,1.5421587 a 0.74999392,0.74999392 0 0 0 -0.017576,0.00736 C 1.5261814,1.6233959 1.2813777,1.7813378 1.1449669,2.0284362 1.0085574,2.2755344 1.0030452,2.4922685 1.0028953,2.6641124 l -0.00294,4.0059172 c -9.2528e-4,1.1209037 0.3557705,2.0540284 1.1044071,2.7814491 0.7474066,0.7262153 1.7963558,1.3271323 3.3526625,2.2761533 9.023e-4,5.76e-4 0.00191,0.0011 0.003,0.0019 0.00126,7.51e-4 0.00179,6.67e-4 0.003,0.0019 0.2358193,0.145669 0.5079199,0.265627 0.7792408,0.266575 0,0 0.00152,0.0019 0.00152,0.0019 h 0.00152 c 0,0 0.00152,-0.0019 0.00152,-0.0019 0.2680884,-0.0012 0.5525626,-0.122592 0.7894396,-0.269506 h 0.00152 C 8.572609,10.800136 9.6213678,10.202747 10.372787,9.4739756 11.125781,8.7436893 11.495265,7.8035339 11.496168,6.6720546 l 0.0036,-4.0059169 C 11.499177,2.4932872 11.495972,2.2744905 11.355489,2.0227127 11.214736,1.7708776 10.954461,1.6085803 10.768054,1.5378553 a 0.74999392,0.74999392 0 0 0 -0.0147,-0.0043 C 9.7299068,1.1692316 7.7651949,0.47069709 6.8938639,0.12730921 A 0.74999392,0.74999392 0 0 0 6.8645754,0.11705638 C 6.6597643,0.04579153 6.4508972,-1.1850247e-4 6.2479389,-1.1850247e-4 Z m 0,0.74991895 c 0.1029262,0 0.2127596,0.0212537 0.3705649,0.0761619 0.905677,0.35692375 2.8604899,1.04966165 3.8828544,1.41344705 0.198999,0.075508 0.247738,0.1776559 0.247533,0.4247617 l -0.0035,4.0059171 C 10.744172,8.6811986 9.7295313,9.2233883 6.6418145,11.090463 6.4437462,11.213434 6.3472545,11.248327 6.2448681,11.24865 6.1492807,11.248318 6.0503659,11.213408 5.8523349,11.090463 2.7234752,9.1822937 1.7481305,8.6673993 1.7497802,6.6700657 l 0.003,-4.0059172 C 1.7529683,2.4170425 1.8008301,2.3217503 1.9929613,2.2393868 3.0085013,1.8344083 4.9789134,1.182901 5.8846657,0.82593975 6.0424859,0.77102988 6.1518542,0.74977788 6.2479114,0.74977788 Z"
       fill="#dedede"
       id="path2"
       style="stroke-width:1" />
  </g>
</svg>
