<?xml version="1.0" encoding="UTF-8" standalone="no"?>
<svg
   viewBox="0 0 22 22"
   version="1.1"
   id="svg1"
   sodipodi:docname="wallet-open.svg"
   inkscape:version="1.4.2 (unknown)"
   xmlns:inkscape="http://www.inkscape.org/namespaces/inkscape"
   xmlns:sodipodi="http://sodipodi.sourceforge.net/DTD/sodipodi-0.dtd"
   xmlns="http://www.w3.org/2000/svg"
   xmlns:svg="http://www.w3.org/2000/svg">
  <sodipodi:namedview
     id="namedview1"
     pagecolor="#a3a3a3"
     bordercolor="#000000"
     borderopacity="0.25"
     inkscape:showpageshadow="2"
     inkscape:pageopacity="0.0"
     inkscape:pagecheckerboard="0"
     inkscape:deskcolor="#d1d1d1"
     inkscape:zoom="34.590909"
     inkscape:cx="10.985545"
     inkscape:cy="11"
     inkscape:current-layer="svg1" />
  <defs
     id="defs3051">
    <style
       type="text/css"
       id="current-color-scheme">.ColorScheme-Text { color:#fcfcfc; }
</style>
  </defs>
  <path
     style="fill:currentColor;fill-opacity:1;stroke:none"
     d="m 2,7 c 0,2 0,8 0,8 0,2 2,2 2,2 0,0 12,0 14,0 2,0 2,-2 2,-2 V 7 C 20,5 18,5 18,5 H 4 C 4,5 2,5 2,7 Z M 4,6 c 0,0 13,0 14,0 1,0 1,1 1,1 v 2 h -2 -5 c -1.108,0 -2,0.892 -2,2 0,1.108 0.892,2 2,2 h 5 2 v 2 c 0,0 0,1 -1,1 C 17,16 4,16 4,16 4,16 3,16 3,15 3,14 3,8 3,7 3,6 4,6 4,6 Z m 9,4 c 0.552285,0 1,0.447715 1,1 0,0.552285 -0.447715,1 -1,1 -0.552285,0 -1,-0.447715 -1,-1 0,-0.552285 0.447715,-1 1,-1 z"
     class="ColorScheme-Text"
     id="path1" />
  <path
     d="M 6.499999,8 C 4.84259,8 3.5,9.343466 3.5,10.997874 3.5,12.656457 4.842613,14 6.499999,14 8.157391,14 9.5,12.656435 9.5,10.997874 9.4959,9.343592 8.153016,8 6.499999,8 Z m -0.14866,2.424432 0.677831,0.350102 c 0.402388,0.210021 0.621047,0.63456 0.546654,1.089668 -0.05675,0.350103 -0.279855,0.63016 -0.585981,0.765847 v 0.09192 c 0,0.231903 -0.188013,0.415748 -0.415454,0.415748 -0.231739,0 -0.415455,-0.18814 -0.415455,-0.415748 v -0.06564 C 5.835349,12.546921 5.559769,12.306227 5.415497,11.978006 c -0.09187,-0.210023 0.0041,-0.455109 0.214271,-0.547035 0.214262,-0.09192 0.454779,0.0043 0.546639,0.214417 0.06994,0.157566 0.231744,0.258176 0.40239,0.240696 0.131188,-0.02188 0.161838,-0.09192 0.170533,-0.153171 0.0041,-0.03496 0.01304,-0.153169 -0.10494,-0.214417 L 5.966543,11.168395 C 5.559891,10.958374 5.341246,10.511953 5.424294,10.056845 5.502904,9.658579 5.78285,9.356642 6.15887,9.255937 V 9.089679 c 0,-0.231903 0.187997,-0.415747 0.415448,-0.415747 0.231739,0 0.415456,0.18814 0.415456,0.415747 v 0.258176 c 0.262387,0.126892 0.472242,0.337022 0.59477,0.612678 0.09187,0.210022 -0.0041,0.455107 -0.21427,0.547034 C 7.15601,10.599487 6.91109,10.503167 6.81923,10.293149 6.75358,10.135584 6.587502,10.039376 6.416957,10.052454 6.294443,10.065534 6.2595,10.157465 6.250716,10.21002 c -0.009,0.04377 -0.01751,0.153171 0.10064,0.214419 z m 2.387831,0.823102 z m 0,0 z"
     id="path1454-5"
     sodipodi:nodetypes="ssscsccccsssccccccccccsssccccccccccccccccccccc"
     style="stroke-width:0.0249989;fill-opacity:1;fill:currentColor;"
     class="ColorScheme-Text" />
</svg>
