<?xml version="1.0" encoding="UTF-8" standalone="no"?>
<svg
   width="16"
   height="16"
   version="1.1"
   id="svg1"
   sodipodi:docname="emblem-important-symbolic.svg"
   inkscape:version="1.4.2 (unknown)"
   xmlns:inkscape="http://www.inkscape.org/namespaces/inkscape"
   xmlns:sodipodi="http://sodipodi.sourceforge.net/DTD/sodipodi-0.dtd"
   xmlns="http://www.w3.org/2000/svg"
   xmlns:svg="http://www.w3.org/2000/svg">
  <sodipodi:namedview
     id="namedview1"
     pagecolor="#ffffff"
     bordercolor="#000000"
     borderopacity="0.25"
     inkscape:showpageshadow="2"
     inkscape:pageopacity="0.0"
     inkscape:pagecheckerboard="0"
     inkscape:deskcolor="#d1d1d1"
     inkscape:zoom="33.410795"
     inkscape:cx="12.391205"
     inkscape:cy="8.7995511"
     inkscape:current-layer="svg1" />
  <defs
     id="defs1">
    <style
       id="current-color-scheme"
       type="text/css">.ColorScheme-Text { color:#dedede; }</style>
  </defs>
  <path
     d="m 8.0000002,1.0000005 c -3.8701252,0 -6.9999997,3.1289999 -6.9999997,6.9999997 C 1.0000005,11.871001 4.129875,15 8.0000002,15 11.871001,15 15,11.871001 15,8.0000002 15,4.1290004 11.871001,1.0000005 8.0000002,1.0000005 Z m 0,0.875 c 3.3827478,0 6.1249988,2.7422498 6.1249988,6.1249997 0,3.3827478 -2.742252,6.1249988 -6.1249988,6.1249988 -3.3827499,0 -6.1249997,-2.742252 -6.1249997,-6.1249988 0,-3.3827499 2.7422498,-6.1249997 6.1249997,-6.1249997 z m 0,1.7499999 c -0.48475,0 -0.875,0.39025 -0.875,0.8749999 v 4.3749999 c 0,0.4847499 0.39025,0.8749999 0.875,0.8749999 0.48475,0 0.875,-0.39025 0.875,-0.8749999 V 4.5000003 c 0,-0.4847499 -0.39025,-0.8749999 -0.875,-0.8749999 z m 0,6.9999996 c -1.1666378,0 -1.1666378,1.749999 0,1.749999 1.1666373,0 1.1666373,-1.749999 0,-1.749999 z"
     style="fill:currentColor;stroke-width:0.999996"
     class="ColorScheme-Text"
     id="path1" />
</svg>
