<?xml version="1.0" encoding="UTF-8" standalone="no"?>
<svg
   width="16"
   height="16"
   version="1.1"
   id="svg1"
   sodipodi:docname="emblem-shared-symbolic.svg"
   inkscape:version="1.4.2 (unknown)"
   xmlns:inkscape="http://www.inkscape.org/namespaces/inkscape"
   xmlns:sodipodi="http://sodipodi.sourceforge.net/DTD/sodipodi-0.dtd"
   xmlns="http://www.w3.org/2000/svg"
   xmlns:svg="http://www.w3.org/2000/svg">
  <defs
     id="defs1" />
  <sodipodi:namedview
     id="namedview1"
     pagecolor="#ffffff"
     bordercolor="#000000"
     borderopacity="0.25"
     inkscape:showpageshadow="2"
     inkscape:pageopacity="0.0"
     inkscape:pagecheckerboard="0"
     inkscape:deskcolor="#d1d1d1"
     inkscape:zoom="33.410795"
     inkscape:cx="11.972178"
     inkscape:cy="7.991429"
     inkscape:current-layer="svg1" />
  <path
     d="M 14.533335,3.333333 C 14.533335,2.05 13.483335,1 12.199995,1 a 2.3408,2.3408 0 0 0 -2.33333,2.333333 c 0,1.2833339 1.05,2.3333339 2.33333,2.3333339 1.28334,0 2.33334,-1.05 2.33334,-2.3333339 z m 0,9.333337 c 0,-1.28334 -1.05,-2.333337 -2.33334,-2.333337 a 2.3408,2.3408 0 0 0 -2.33333,2.333337 c 0,1.28333 1.05,2.33333 2.33333,2.33333 1.28334,0 2.33334,-1.05 2.33334,-2.33333 z m -0.93334,-9.333337 c 0,0.7784 -0.6216,1.4000001 -1.4,1.4000001 -0.7784,0 -1.4,-0.6216001 -1.4,-1.4000001 0,-0.7784 0.6216,-1.3999997 1.4,-1.3999997 0.7784,0 1.4,0.6215997 1.4,1.3999997 z m 0,9.333337 c 0,0.7784 -0.6216,1.4 -1.4,1.4 -0.7784,0 -1.4,-0.6216 -1.4,-1.4 0,-0.7784 0.6216,-1.4 1.4,-1.4 0.7784,0 1.4,0.6216 1.4,1.4 z M 9.6183982,5.3026669 A 3.262,3.262 0 0 1 9.1573316,4.4888 L 5.5611981,6.4889332 A 2.3212,2.3212 0 0 0 3.799998,5.6666669 2.3408,2.3408 0 0 0 1.466665,8 c 0,1.2833332 1.05,2.333333 2.333333,2.333333 0.704667,0 1.331867,-0.323866 1.7612001,-0.821333 l 3.5961335,1.9992 C 9.2711982,11.21627 9.4279982,10.9456 9.6183982,10.698268 L 6.0157319,8.6962666 C 6.083865,8.476 6.1333319,8.2436 6.1333319,8 c 0,-0.2436 -0.04853,-0.4750668 -0.1185337,-0.6962668 z M 5.1999981,8 c 0,0.7784 -0.6216001,1.4 -1.4000001,1.4 -0.7784,0 -1.4,-0.6216 -1.4,-1.4 0,-0.7784 0.6216,-1.4 1.4,-1.4 0.7784,0 1.4000001,0.6216 1.4000001,1.4 z"
     color="#000000"
     fill="#dedede"
     font-family="sans-serif"
     font-weight="400"
     overflow="visible"
     style="font-variant-ligatures:normal;font-variant-position:normal;font-variant-caps:normal;font-variant-numeric:normal;font-variant-alternates:normal;font-feature-settings:normal;text-indent:0;text-decoration-line:none;text-decoration-style:solid;text-decoration-color:#000000;text-transform:none;text-orientation:mixed;shape-padding:0;isolation:auto;mix-blend-mode:normal;stroke-width:0.999997"
     white-space="normal"
     id="path1" />
</svg>
