<?xml version="1.0" encoding="UTF-8" standalone="no"?>
<svg
   width="16"
   height="16"
   version="1.1"
   id="svg2"
   sodipodi:docname="emblem-default-symbolic.svg"
   inkscape:version="1.4.2 (unknown)"
   xmlns:inkscape="http://www.inkscape.org/namespaces/inkscape"
   xmlns:sodipodi="http://sodipodi.sourceforge.net/DTD/sodipodi-0.dtd"
   xmlns="http://www.w3.org/2000/svg"
   xmlns:svg="http://www.w3.org/2000/svg">
  <defs
     id="defs2" />
  <sodipodi:namedview
     id="namedview2"
     pagecolor="#ffffff"
     bordercolor="#000000"
     borderopacity="0.25"
     inkscape:showpageshadow="2"
     inkscape:pageopacity="0.0"
     inkscape:pagecheckerboard="0"
     inkscape:deskcolor="#d1d1d1"
     inkscape:zoom="23.625"
     inkscape:cx="8.6772487"
     inkscape:cy="9.4391534"
     inkscape:current-layer="svg2" />
  <g
     id="g2"
     transform="translate(4.3875e-4,0.06878304)">
    <path
       d="m 10.734811,5.1557169 0.730628,0.7306249 -4.4983775,4.4974982 -2.4325,-2.4307482 0.7315,-0.7323749 1.701,1.701 z"
       fill="#dedede"
       id="path1"
       style="stroke-width:0.999987" />
    <path
       d="m 7.9995615,0.93121693 a 7,7 0 0 0 -7,6.99999997 7,7 0 0 0 7,7.0000001 A 7,7 0 0 0 14.999561,7.9312169 7,7 0 0 0 7.9995615,0.93121693 Z M 7.9175305,1.8062169 a 6.125,6.125 0 0 1 0.082031,0 6.125,6.125 0 0 1 6.1249995,6.125 6.125,6.125 0 0 1 -6.1249995,6.1250001 6.125,6.125 0 0 1 -6.125,-6.1250001 6.125,6.125 0 0 1 6.0429248,-6.125 z"
       fill="#dedede"
       stroke-linecap="round"
       stroke-linejoin="round"
       stroke-width="2"
       id="path2" />
  </g>
</svg>
