<?xml version="1.0" encoding="UTF-8" standalone="no"?>
<svg
   width="16"
   height="16"
   enable-background="new"
   version="1.1"
   id="svg1"
   sodipodi:docname="emblem-system-symbolic.svg"
   inkscape:version="1.4.2 (unknown)"
   xmlns:inkscape="http://www.inkscape.org/namespaces/inkscape"
   xmlns:sodipodi="http://sodipodi.sourceforge.net/DTD/sodipodi-0.dtd"
   xmlns="http://www.w3.org/2000/svg"
   xmlns:svg="http://www.w3.org/2000/svg">
  <defs
     id="defs1" />
  <sodipodi:namedview
     id="namedview1"
     pagecolor="#ffffff"
     bordercolor="#000000"
     borderopacity="0.25"
     inkscape:showpageshadow="2"
     inkscape:pageopacity="0.0"
     inkscape:pagecheckerboard="0"
     inkscape:deskcolor="#d1d1d1"
     inkscape:zoom="47.25"
     inkscape:cx="8"
     inkscape:cy="8"
     inkscape:current-layer="svg1" />
  <path
     class="ColorScheme-Text"
     d="M 7.9861873,1.0015338 C 7.6540718,1.0295741 7.6541503,1.3088518 7.5350715,1.997636 A 6.0480987,6.0176487 0 0 0 6.8671826,2.0913831 C 6.5726397,1.3821858 6.4697042,1.134219 6.1914889,1.2280892 5.8715969,1.3359681 5.9465671,1.6098524 5.9962062,2.3277036 A 6.0480987,6.0176487 0 0 0 5.3751911,2.5835717 C 4.8784264,1.9850092 4.708536,1.7765052 4.4690394,1.9487928 4.1988742,2.143157 4.3432316,2.3839398 4.5959758,3.0347574 A 6.0480987,6.0176487 0 0 0 4.0569839,3.4488258 C 3.4309637,2.9871487 3.2148296,2.8277407 3.0239566,3.0523365 2.80728,3.3071979 3.0097729,3.5029012 3.4164912,4.0816885 A 6.0480987,6.0176487 0 0 0 3.0102895,4.6070919 C 2.3541691,4.363719 2.1117502,4.2215749 1.9206497,4.4938055 1.7515732,4.7345706 1.9611735,4.9031662 2.5650972,5.3883195 A 6.0480987,6.0176487 0 0 0 2.3053619,6.0113818 C 1.6150729,5.9461338 1.3446974,5.8741989 1.2312973,6.1852183 1.1314771,6.4589015 1.3749112,6.5688364 2.0690849,6.8746848 A 6.0480987,6.0176487 0 0 0 1.9831572,7.534856 C 1.3026073,7.6663248 1.0218805,7.6713824 1.0008804,8.0016693 0.98265764,8.2885209 1.2454521,8.3281499 1.9753695,8.4235601 a 6.0480987,6.0176487 0 0 0 0.09569,0.7031337 c -0.6253284,0.2733768 -0.8939888,0.3434469 -0.84169,0.6679847 0.046559,0.2890205 0.3133818,0.2641465 1.078002,0.1933652 a 6.0480987,6.0176487 0 0 0 0.2714429,0.6484593 c -0.5331557,0.412273 -0.7759338,0.547392 -0.6463983,0.847674 0.1164449,0.269948 0.3708868,0.179368 1.1014516,-0.07811 a 6.0480987,6.0176487 0 0 0 0.394477,0.509774 c -0.402098,0.589069 -0.6035674,0.788077 -0.3827607,1.04099 0.192597,0.220641 0.4067445,0.05849 1.0174518,-0.404312 a 6.0480987,6.0176487 0 0 0 0.5409526,0.416027 c -0.2447467,0.679754 -0.3920008,0.924088 -0.1132692,1.115188 0.244117,0.167435 0.4094396,-0.04584 0.8963516,-0.660171 l -0.1191227,-0.07033 a 6.0480987,6.0176487 0 0 0 0.7108514,0.302735 c -0.04718,0.69797 -0.1150888,0.970724 0.2011452,1.076251 0.2737795,0.0913 0.3772835,-0.151464 0.6581151,-0.833996 a 6.0480987,6.0176487 0 0 0 0.6854675,0.0918 c 0.129404,0.772204 0.1719993,1.037049 0.4667433,1.007825 0.3309169,-0.03275 0.3251858,-0.313068 0.4335371,-1.000039 a 6.0480987,6.0176487 0 0 0 0.6913212,-0.08985 c 0.2847867,0.69222 0.3885184,0.937566 0.6639775,0.845717 0.3163405,-0.105487 0.2483175,-0.377685 0.2011468,-1.076248 A 6.0480987,6.0176487 0 0 0 10.60712,13.42156 c 0.472876,0.596595 0.639698,0.805948 0.880778,0.640631 0.273656,-0.187686 0.135138,-0.43023 -0.101545,-1.082025 a 6.0480987,6.0176487 0 0 0 0.558525,-0.425794 c 0.584989,0.44319 0.799131,0.597425 0.988138,0.380871 0.215268,-0.246634 0.02655,-0.448491 -0.355428,-1.003886 a 6.0480987,6.0176487 0 0 0 0.408155,-0.519541 c 0.714281,0.251735 0.966613,0.339576 1.081849,0.07223 0.12878,-0.298516 -0.110107,-0.433308 -0.636639,-0.839854 a 6.0480987,6.0176487 0 0 0 0.275353,-0.6562572 c 0.751296,0.069508 1.018063,0.093474 1.064351,-0.1933668 0.05177,-0.3213822 -0.213709,-0.3953024 -0.826061,-0.6621166 a 6.0480987,6.0176487 0 0 0 0.08984,-0.708982 C 14.756124,8.3290906 15.017233,8.2870379 14.999125,8.0015859 14.978373,7.6749388 14.700596,7.6660138 14.036355,7.5386923 A 6.0480987,6.0176487 0 0 0 13.944568,6.866792 C 14.626789,6.5661589 14.867785,6.4567839 14.768683,6.1851396 14.656154,5.8766666 14.387977,5.944549 13.71019,6.0093518 A 6.0480987,6.0176487 0 0 0 13.448504,5.3765332 C 14.040478,4.9009262 14.246912,4.7323921 14.079285,4.4937439 13.888922,4.2226595 13.647217,4.3635875 12.99743,4.6050792 A 6.0480987,6.0176487 0 0 0 12.579516,4.0679593 c 0.438969,-0.6189148 0.591822,-0.8376387 0.365179,-1.0214767 -0.254642,-0.2065527 -0.449039,-0.0119 -0.994001,0.3886755 A 6.0480987,6.0176487 0 0 0 11.398037,3.0132674 C 11.68856,2.3057673 11.790178,2.0599531 11.526931,1.9312405 11.223916,1.783094 11.083876,2.0282606 10.612991,2.5718732 A 6.0480987,6.0176487 0 0 0 9.9861242,2.316005 C 10.051224,1.5419085 10.076817,1.2742281 9.7849779,1.2300405 9.4576658,1.1805093 9.3908421,1.4507159 9.1190404,2.0835784 A 6.0480987,6.0176487 0 0 0 8.4335728,1.9995932 C 8.3177751,1.2415966 8.2788464,0.97689112 7.9863596,1.0015662 Z M 7.7440304,2.8512 C 8.413538,2.84001 9.2081706,2.9579673 9.4664712,3.0699503 10.5905,3.4118133 11.62974,4.0412018 12.514889,5.5035921 c 0.164862,0.272353 0.284516,0.5360171 0.337847,0.7773515 0.05294,0.253768 0.03343,0.5504283 -0.130845,0.7832138 C 12.5811,7.2492817 12.406677,7.4227682 12.163366,7.4450282 11.406169,7.5158046 10.378277,7.4752561 9.5680239,7.4665126 9.4316811,7.4650343 9.3025745,7.4098417 9.2633744,7.3669027 9.0233267,7.2159737 8.8612326,6.8891431 8.5935346,6.7965854 8.1661489,6.599045 7.9928985,6.7642656 7.7518442,6.46846 7.3077897,5.7577485 6.8787941,5.0275071 6.4844043,4.3023934 6.1986637,3.8061448 6.3857393,3.3083039 6.8163888,3.0406409 6.9848878,2.9102397 7.3422911,2.8578883 7.7439781,2.851186 Z M 4.7600123,4.3805276 c 0.034862,-0.00106 0.06996,3.226e-4 0.1054555,0.00388 0.2307643,0.031543 0.4684933,0.098245 0.6073474,0.2988391 0.4334231,0.6234913 0.9028264,1.5356279 1.2928147,2.2441167 0.065623,0.1192474 0.080754,0.2593176 0.062496,0.3144601 C 6.8141085,7.5245921 6.6076835,7.82505 6.6582236,8.1031956 6.6954506,8.5716541 6.9252042,8.6410767 6.78516,8.9957847 6.3823879,9.7305759 5.9536022,10.463249 5.5137826,11.161852 5.2206308,11.653776 4.6954023,11.732976 4.2502805,11.489975 3.7260579,11.270035 3.0213405,9.620711 2.9750528,9.1734977 2.721959,8.0285581 2.7611676,6.8148432 3.6038815,5.3276904 3.7608218,5.0507264 3.9328999,4.8186494 4.1174903,4.6538429 4.2886752,4.5046026 4.515922,4.3880261 4.7599861,4.3803961 Z M 7.9997934,7.4996459 A 0.49994092,0.50001092 0 0 1 8.4997344,7.9996567 0.49994092,0.50001092 0 0 1 7.9997934,8.4996676 0.49994092,0.50001092 0 0 1 7.4998525,7.9996567 0.49994092,0.50001092 0 0 1 7.9997934,7.4996459 Z m 2.7496916,1.0469392 h 0.002 c 0.41973,0.00214 0.839232,0.010113 1.251864,0.025395 0.573599,0.00734 0.90624,0.4236145 0.917879,0.9296894 0.07118,0.5629135 -1.00984,1.9962265 -1.374802,2.2598655 -0.867283,0.791132 -1.9395292,1.363426 -3.65182,1.378912 -0.3189282,0.003 -0.6063663,-0.03033 -0.8417155,-0.107422 C 6.8069952,12.949272 6.5627035,12.782858 6.4455409,12.523258 6.3575423,12.30811 6.2959332,12.067716 6.4006247,11.847468 6.7251148,11.161244 7.281126,10.300375 7.7012139,9.609125 7.7719099,9.4928023 7.8863733,9.4099572 7.9433706,9.3981798 8.1958087,9.2689157 8.5610694,9.2976944 8.7772473,9.1149767 9.1652754,8.8485825 9.1101679,8.614677 9.4880987,8.5583269 9.9070494,8.5486409 10.329911,8.5444589 10.749677,8.5466081 Z"
     color="#dedede"
     fill="currentColor"
     id="path1"
     style="stroke-width:0.999987" />
</svg>
