<?xml version="1.0" encoding="UTF-8" standalone="no"?>
<svg
   height="16"
   width="16"
   version="1.1"
   id="svg1"
   sodipodi:docname="emblem-videos-symbolic.svg"
   inkscape:version="1.4.2 (unknown)"
   xmlns:inkscape="http://www.inkscape.org/namespaces/inkscape"
   xmlns:sodipodi="http://sodipodi.sourceforge.net/DTD/sodipodi-0.dtd"
   xmlns="http://www.w3.org/2000/svg"
   xmlns:svg="http://www.w3.org/2000/svg">
  <defs
     id="defs1" />
  <sodipodi:namedview
     id="namedview1"
     pagecolor="#ffffff"
     bordercolor="#000000"
     borderopacity="0.25"
     inkscape:showpageshadow="2"
     inkscape:pageopacity="0.0"
     inkscape:pagecheckerboard="0"
     inkscape:deskcolor="#d1d1d1"
     inkscape:zoom="23.625"
     inkscape:cx="7.6613757"
     inkscape:cy="10.835979"
     inkscape:current-layer="svg1" />
  <path
     d="m 2.1666665,1.0000027 a 0.69813324,0.69813324 0 0 0 -0.7000001,0.7 V 14.300001 C 1.4666664,14.68827 1.7783996,15 2.1666665,15 H 13.833334 c 0.387331,0 0.7,-0.31173 0.7,-0.699999 V 1.7000027 a 0.69813324,0.69813324 0 0 0 -0.7,-0.7 z m 0.233333,0.933333 H 3.3333328 V 2.866669 H 2.3999995 Z m 2.3333331,0 h 6.5333324 c 0.258532,0 0.46667,0.2081334 0.46667,0.4666668 v 4.666666 c 0,0.2585333 -0.208138,0.4666665 -0.46667,0.4666665 H 4.7333326 A 0.46573326,0.46573326 0 0 1 4.2666662,7.0666685 v -4.666666 c 0,-0.2585334 0.2081331,-0.4666668 0.4666664,-0.4666668 z m 7.9333324,0 h 0.933332 V 2.866669 H 12.666665 Z M 2.3999995,3.8000024 H 3.3333328 V 4.7333353 H 2.3999995 Z m 10.2666655,0 h 0.933332 V 4.7333353 H 12.666665 Z M 2.3999995,5.6666686 H 3.3333328 V 6.600002 H 2.3999995 Z m 10.2666655,0 h 0.933332 V 6.600002 H 12.666665 Z M 2.3999995,7.533335 H 3.3333328 V 8.4666683 H 2.3999995 Z m 10.2666655,0 h 0.933332 V 8.4666683 H 12.666665 Z M 4.7333326,8.4666683 h 6.5333324 c 0.258532,0 0.46667,0.2081334 0.46667,0.4666666 v 4.6666661 c 0,0.258532 -0.208138,0.466669 -0.46667,0.466669 H 4.7333326 A 0.46573326,0.46573326 0 0 1 4.2666662,13.600001 V 8.9333349 c 0,-0.2585332 0.2081331,-0.4666666 0.4666664,-0.4666666 z M 2.3999995,9.4000014 H 3.3333328 V 10.333334 H 2.3999995 Z m 10.2666655,0 h 0.933332 V 10.333334 H 12.666665 Z M 2.3999995,11.266671 h 0.9333333 v 0.93333 H 2.3999995 Z m 10.2666655,0 h 0.933332 v 0.93333 H 12.666665 Z M 2.3999995,13.133333 H 3.3333328 V 14.06667 H 2.3999995 Z m 10.2666655,0 h 0.933332 v 0.933337 h -0.933332 z"
     fill="#dedede"
     overflow="visible"
     style="stroke-width:0.999997;marker:none"
     color="#bebebe"
     id="path1" />
</svg>
