<?xml version="1.0" encoding="UTF-8" standalone="no"?>
<svg
   version="1.1"
   viewBox="0 0 16 16"
   id="svg1"
   sodipodi:docname="drive-removable-media-usb.svg"
   inkscape:version="1.4.2 (unknown)"
   xmlns:inkscape="http://www.inkscape.org/namespaces/inkscape"
   xmlns:sodipodi="http://sodipodi.sourceforge.net/DTD/sodipodi-0.dtd"
   xmlns="http://www.w3.org/2000/svg"
   xmlns:svg="http://www.w3.org/2000/svg">
  <sodipodi:namedview
     id="namedview1"
     pagecolor="#ffffff"
     bordercolor="#000000"
     borderopacity="0.25"
     inkscape:showpageshadow="2"
     inkscape:pageopacity="0.0"
     inkscape:pagecheckerboard="0"
     inkscape:deskcolor="#d1d1d1"
     inkscape:zoom="33.410795"
     inkscape:cx="11.822526"
     inkscape:cy="12.840161"
     inkscape:current-layer="svg1" />
  <defs
     id="defs1">
    <style
       id="current-color-scheme"
       type="text/css">.ColorScheme-Text { color:#dedede; }
</style>
  </defs>
  <path
     d="m 6.125,2.0000001 h 3.7500004 c 0.2070726,0 0.3749996,0.167895 0.3749996,0.375 v 2.625 c 0.828448,0 1.5,0.6715728 1.5,1.5000002 V 12.5 c 0,0.828446 -0.671552,1.5 -1.5,1.5 H 5.75 C 4.92155,14 4.25,13.328446 4.25,12.5 V 6.5000003 c 0,-0.8284502 0.6715728,-1.5000002 1.5,-1.5000002 v -2.625 c 0,-0.207105 0.1678954,-0.375 0.375,-0.375 z m 3.3750004,3 V 2.7500002 H 6.5 V 5.0000001 Z M 5.75,5.7500002 C 5.3357901,5.7500002 5,6.0857901 5,6.5000003 V 12.5 c 0,0.414222 0.3357901,0.75 0.75,0.75 h 4.5 C 10.664224,13.25 11,12.914222 11,12.5 V 6.5000003 C 11,6.0857901 10.664224,5.7500002 10.25,5.7500002 Z"
     class="ColorScheme-Text"
     fill="currentColor"
     id="path1"
     style="stroke-width:0.999987" />
  <path
     d="M 8.7311328,8.4995462 V 9.4429407 H 8.966982 V 9.9146405 H 8.2594339 V 8.0278481 H 8.7311328 L 8.0235855,7.0844517 7.3160378,8.0278481 H 7.7877365 V 9.9146405 H 7.0801887 V 9.4264314 c 0.1650943,-0.08726 0.2830188,-0.2547139 0.2830188,-0.4551871 0,-0.2853768 -0.2334906,-0.5188676 -0.518868,-0.5188676 -0.2853773,0 -0.518868,0.2334908 -0.518868,0.5188676 0,0.2004732 0.1179244,0.367925 0.2830188,0.4551871 v 0.4882091 c 0,0.2617885 0.2099056,0.4716965 0.4716984,0.4716965 h 0.7075478 v 0.719339 c -0.167453,0.08724 -0.2830196,0.259438 -0.2830196,0.459905 0,0.287741 0.2334926,0.51887 0.5188686,0.51887 0.2853746,0 0.518866,-0.231129 0.518866,-0.51887 0,-0.200467 -0.1155639,-0.372642 -0.2830176,-0.459904 v -0.71934 H 8.966982 c 0.2617922,0 0.471697,-0.209908 0.471697,-0.4716965 V 9.4429407 H 9.6745285 V 8.4995462 Z"
     class="ColorScheme-Text "
     fill="currentColor"
     id="path1-5"
     style="stroke-width:0.999982" />
</svg>
