<?xml version="1.0" encoding="UTF-8" standalone="no"?>
<svg
   viewBox="0 0 22 22"
   version="1.1"
   id="svg1"
   sodipodi:docname="window-pin.svg"
   width="22"
   height="22"
   inkscape:version="1.4.2 (unknown)"
   xmlns:inkscape="http://www.inkscape.org/namespaces/inkscape"
   xmlns:sodipodi="http://sodipodi.sourceforge.net/DTD/sodipodi-0.dtd"
   xmlns="http://www.w3.org/2000/svg"
   xmlns:svg="http://www.w3.org/2000/svg">
  <defs
     id="defs1" />
  <sodipodi:namedview
     id="namedview1"
     pagecolor="#ffffff"
     bordercolor="#999999"
     borderopacity="1"
     inkscape:showpageshadow="2"
     inkscape:pageopacity="0"
     inkscape:pagecheckerboard="0"
     inkscape:deskcolor="#d1d1d1"
     inkscape:zoom="17.318182"
     inkscape:cx="11.83727"
     inkscape:cy="13.309711"
     inkscape:window-width="1920"
     inkscape:window-height="998"
     inkscape:window-x="0"
     inkscape:window-y="0"
     inkscape:window-maximized="1"
     inkscape:current-layer="svg1" />
  <style
     type="text/css"
     id="current-color-scheme">.ColorScheme-Text { color:#d8d8d8; }
</style>
  <path
     d="m 18.789515,7.0929867 -3.889588,-3.890476 c -0.269948,-0.27001 -0.740201,-0.27001 -1.009868,0 l -0.576969,0.577101 c -0.114156,0.113931 -0.177111,0.265476 -0.177111,0.426869 0,0.161675 0.06296,0.313219 0.176861,0.427151 l 0.49826,0.498124 -4.1275281,3.440376 C 9.1660876,8.1618017 8.4819018,8.0345197 7.8441348,8.2476887 l -0.6553655,0.218234 c -0.2203411,0.07363 -0.3835729,0.252407 -0.4369312,0.478364 -0.053358,0.226238 0.012816,0.459167 0.1771106,0.622968 l 2.1848747,2.1853733 -5.1669971,5.16849 c -0.482256,0.482116 -0.8079382,1.090952 -0.9415995,1.759536 -0.017599,0.08751 0.00988,0.177964 0.072832,0.241183 0.05067,0.05043 0.1186885,0.07816 0.1885825,0.07816 0.017348,0 0.034947,-0.0019 0.052545,-0.0053 0.6687129,-0.133661 1.2774095,-0.459699 1.7591341,-0.941815 l 5.1670286,-5.168146 2.186469,2.186968 c 0.126441,0.12672 0.293955,0.194754 0.467596,0.194754 0.05095,0 0.102965,-0.0059 0.154167,-0.01813 0.225405,-0.05309 0.403828,-0.216108 0.477192,-0.435937 l 0.219247,-0.657672 c 0.212589,-0.637913 0.08562,-1.322786 -0.324901,-1.839857 l 3.439591,-4.1284702 0.497728,0.498124 c 0.117908,0.117652 0.272606,0.176619 0.427304,0.176619 0.154698,0 0.309678,-0.05897 0.427585,-0.176619 l 0.572437,-0.572568 c 0.280357,-0.280921 0.280357,-0.738213 -2.5e-4,-1.018915 z m -5.545757,6.8930703 -0.219247,0.657673 c -0.01972,0.05975 -0.06696,0.07898 -0.09337,0.08539 -0.02613,0.0069 -0.07737,0.01013 -0.122158,-0.03467 l -2.375051,-2.375594 -0.08084,-0.0811 -3.0472344,-3.0479302 c -0.045075,-0.04484 -0.041074,-0.09633 -0.034947,-0.122999 0.00641,-0.02642 0.025882,-0.07416 0.08668,-0.09445 L 8.0129619,8.7536017 c 0.5182658,-0.172086 1.0800121,-0.04002 1.4662732,0.346298 l 0.011472,0.01147 c 0,0 0,2.82e-4 2.813e-4,2.82e-4 l 1.6975246,1.6979113 1.708995,1.709667 c 0.386261,0.386287 0.519079,0.948162 0.34625,1.466827 z m 1.756241,-8.9860553 v 0 0 0 0 c 0,0 2.82e-4,2.5e-4 0,0 z"
     id="path1-5"
     style="fill:currentColor;fill-opacity:1;stroke-width:0.0312621"
     sodipodi:nodetypes="ccccscccccccccccsccccsccccccsccccccccccccccscccccccccccccccccc"
     class="ColorScheme-Text" />
</svg>
