<?xml version="1.0" encoding="UTF-8" standalone="no"?>
<svg
   width="32"
   height="32"
   version="1.1"
   id="svg1"
   sodipodi:docname="plasmavault.svg"
   inkscape:version="1.4.2 (unknown)"
   xmlns:inkscape="http://www.inkscape.org/namespaces/inkscape"
   xmlns:sodipodi="http://sodipodi.sourceforge.net/DTD/sodipodi-0.dtd"
   xmlns="http://www.w3.org/2000/svg"
   xmlns:svg="http://www.w3.org/2000/svg">
  <defs
     id="defs1" />
  <sodipodi:namedview
     id="namedview1"
     pagecolor="#ffffff"
     bordercolor="#000000"
     borderopacity="0.25"
     inkscape:showpageshadow="2"
     inkscape:pageopacity="0.0"
     inkscape:pagecheckerboard="0"
     inkscape:deskcolor="#d1d1d1"
     inkscape:zoom="23.625"
     inkscape:cx="16"
     inkscape:cy="16"
     inkscape:current-layer="svg1" />
  <style
     type="text/css"
     id="current-color-scheme">.ColorScheme-NegativeText {color:#da4453;}</style>
  <g
     id="plasmavault_error"
     transform="translate(0,1e-06)">
    <path
       id="rect4230"
       d="m0-1e-6h32.000004v32h-32.000004z"
       fill="none" />
    <path
       id="path875"
       d="m 4,7.999999 c 0,4 0,16 0,16 0,0 0,4 4,4 4,0 12,0 16,0 4,0 4,-4 4,-4 v -13 c 0,0 0,-4 -4,-4 -4,0 -7,1e-6 -7,1e-6 l -3,-3 -6,-1e-6 c 0,0 -4,0 -4,4 z m 1,0 c 0,-3 3,-3 3,-3 L 13.585938,5 15.792969,7.2070312 10,13 H 5 C 5,13 5,10.999999 5,7.999999 Z M 21,13 c 2.209139,0 4,1.790861 4,4 v 3 c 0,0 2,-1e-6 2,1.999999 0,2 0,1 0,3 0,2 -2,2 -2,2 h -8 c 0,0 -2,0 -2,-2 0,-2 0,-1 0,-3 C 15,19.999999 17,20 17,20 v -3 c 0,-2.209139 1.790861,-4 4,-4 z m 0,1 c -1.656904,1.71e-4 -3,1.343267 -3,3 v 3 h 6 v -3 c 0,-1.656733 -1.343096,-2.999829 -3,-3 z"
       class="ColorScheme-NegativeText"
       fill="currentColor"
       style="fill:#f2f2f2;fill-opacity:1" />
  </g>
</svg>
