<?xml version="1.0" encoding="UTF-8" standalone="no"?>
<svg
   width="22"
   height="22"
   version="1.1"
   id="svg1"
   sodipodi:docname="store-home-symbolic.svg"
   inkscape:version="1.4.2 (unknown)"
   xmlns:inkscape="http://www.inkscape.org/namespaces/inkscape"
   xmlns:sodipodi="http://sodipodi.sourceforge.net/DTD/sodipodi-0.dtd"
   xmlns="http://www.w3.org/2000/svg"
   xmlns:svg="http://www.w3.org/2000/svg">
  <sodipodi:namedview
     id="namedview1"
     pagecolor="#ffffff"
     bordercolor="#000000"
     borderopacity="0.25"
     inkscape:showpageshadow="2"
     inkscape:pageopacity="0.0"
     inkscape:pagecheckerboard="0"
     inkscape:deskcolor="#d1d1d1"
     inkscape:zoom="24.330902"
     inkscape:cx="16.028999"
     inkscape:cy="9.8023495"
     inkscape:current-layer="svg1" />
  <defs
     id="defs1" />
  <style
     type="text/css"
     id="current-color-scheme">
      .ColorScheme-Text {
        color:#eff0f1;
      }
      .ColorScheme-Background{
        color:#E9E8E8;
      }
      .ColorScheme-ViewText {
        color:#31363b;
      }
      .ColorScheme-ViewBackground{
        color:#ffffff;
      }
      .ColorScheme-ViewHover {
        color:#000000;
      }
      .ColorScheme-ViewFocus{
        color:#5a5a5a;
      }
      .ColorScheme-ButtonText {
        color:#31363b;
      }
      .ColorScheme-ButtonBackground{
        color:#E9E8E8;
      }
      .ColorScheme-ButtonHover {
        color:#1489ff;
      }
      .ColorScheme-ButtonFocus{
        color:#2B74C7;
      }
</style>
  <g
     transform="matrix(1.0000029,0,0,1.000001,-420.71555,-516.79125) translate(-2.6353e-15,-10)"
     id="22-22-applications-other">
    <path
       style="fill:currentColor;fill-opacity:1;stroke:none"
       d="m 423.71432,532.79073 v 3.99998 h 6.99998 v -6.99999 c 0,0 -1,1e-5 -3.99999,1e-5 -2.99999,0 -2.99999,3 -2.99999,3 z m 8.99998,-3.00001 v 6.99999 h 6.99998 l -10e-6,-3.99998 c 0,0 0,-3 -2.99999,-3 -2.99999,0 -3.99998,-1e-5 -3.99998,-1e-5 z m -7.99998,3.00001 c 0,0 0,-2 1.99999,-2 1.99999,0 3,-1e-5 3,-1e-5 v 4.99999 h -4.99999 z m 8.99997,-2.00001 c 0,0 1,1e-5 2.99999,1e-5 2,0 2,2 2,2 l 0,2.99998 h -4.99999 z m -9.99997,7.99999 0,4.00001 c 0,0 0,2.99999 2.99999,2.99999 2.99999,0 3.99999,-10e-6 3.99999,-10e-6 v -6.99999 z m 8.99998,0 v 6.99999 h 0.99999 c 0,0 0,10e-6 2.99999,10e-6 2.99999,0 2.99999,-2.99999 2.99999,-2.99999 l 10e-6,-3.00001 v -1 h -1 -4.99999 z m -7.99998,1 h 4.99999 v 4.99999 c 0,0 -1.00001,2e-5 -3,2e-5 -1.99999,0 -1.99999,-2 -1.99999,-2 z m 8.99997,0 h 4.99999 l 0,3.00001 c 0,0 0,2 -2,2 -1.99999,0 -2.99999,-2e-5 -2.99999,-2e-5 z"
       id="rect4298"
       class="ColorScheme-Text" />
  </g>
</svg>
