<?xml version="1.0" encoding="UTF-8" standalone="no"?>
<svg
   height="16"
   width="16"
   version="1.1"
   id="svg1"
   sodipodi:docname="battery.svg"
   inkscape:version="1.4.2 (unknown)"
   xmlns:inkscape="http://www.inkscape.org/namespaces/inkscape"
   xmlns:sodipodi="http://sodipodi.sourceforge.net/DTD/sodipodi-0.dtd"
   xmlns="http://www.w3.org/2000/svg"
   xmlns:svg="http://www.w3.org/2000/svg">
  <sodipodi:namedview
     id="namedview1"
     pagecolor="#ffffff"
     bordercolor="#000000"
     borderopacity="0.25"
     inkscape:showpageshadow="2"
     inkscape:pageopacity="0.0"
     inkscape:pagecheckerboard="0"
     inkscape:deskcolor="#d1d1d1"
     inkscape:zoom="34.363636"
     inkscape:cx="10.98545"
     inkscape:cy="11"
     inkscape:current-layer="svg1" />
  <defs
     id="defs1">
    <style
       type="text/css"
       id="current-color-scheme">.ColorScheme-Text {color:#fcfcfc;}</style>
  </defs>
  <path
     style="fill:currentColor;fill-opacity:1;stroke:none;stroke-width:1"
     class="ColorScheme-Text"
     d="m 10.4,12.199999 c 0,0 0,0.6 -0.6000005,0.6 -0.5999992,0 -2.9999992,0 -3.5999993,0 -0.6,0 -0.6,-0.6 -0.6,-0.6 0,0 0,-7.1999986 0,-7.7999988 0,-0.5999999 0.6,-0.5999999 0.6,-0.5999999 h 3.5999993 c 0,0 0.6000005,0 0.6000005,0.5999999 0,0.6000002 0,7.7999988 0,7.7999988 z M 6.2000002,14 c 1.8,0 1.8,0 3.5999993,0 C 11.6,14 11.6,12.199999 11.6,12.199999 c 0,0 0,-5.9999988 0,-7.7999988 C 11.6,2.6000004 9.7999995,2.6000004 9.7999995,2.6000004 H 9.2000003 V 2.3000003 C 9.2000003,2.1338001 9.0662004,2 8.9000004,2 H 7.1000002 C 6.9338003,2 6.8000003,2.1338001 6.8000003,2.3000003 V 2.6000004 H 6.2000002 c 0,0 -1.7999997,0 -1.7999997,1.7999998 0,1.8 0,7.7999988 0,7.7999988 0,0 0,1.800001 1.7999997,1.800001 z m 0,-0.600001 c -1.2000001,0 -1.2000001,-1.2 -1.2000001,-1.2 0,0 0,-6.5999986 0,-7.7999988 0,-1.1999998 1.2000001,-1.1999998 1.2000001,-1.1999998 h 3.5999993 c 0,0 1.2000005,0 1.2000005,1.1999998 0,1.2000002 0,7.7999988 0,7.7999988 0,0 0,1.2 -1.2000005,1.2 -1.1999991,0 -2.3999993,0 -3.5999993,0 z"
     id="path1" />
</svg>
