<?xml version="1.0" encoding="UTF-8" standalone="no"?>
<svg
   width="22"
   height="22"
   version="1.1"
   id="svg2"
   sodipodi:docname="com.leinardi.gwe-symbolic.svg"
   inkscape:version="1.4.2 (unknown)"
   xmlns:inkscape="http://www.inkscape.org/namespaces/inkscape"
   xmlns:sodipodi="http://sodipodi.sourceforge.net/DTD/sodipodi-0.dtd"
   xmlns="http://www.w3.org/2000/svg"
   xmlns:svg="http://www.w3.org/2000/svg">
  <sodipodi:namedview
     id="namedview2"
     pagecolor="#ffffff"
     bordercolor="#000000"
     borderopacity="0.25"
     inkscape:showpageshadow="2"
     inkscape:pageopacity="0.0"
     inkscape:pagecheckerboard="0"
     inkscape:deskcolor="#d1d1d1"
     inkscape:zoom="23.625"
     inkscape:cx="9.4179894"
     inkscape:cy="12.190476"
     inkscape:current-layer="svg2" />
  <defs
     id="defs1">
    <style
       id="current-color-scheme"
       type="text/css">.ColorScheme-Text { color:#565656; } .ColorScheme-Highlight { color:#4285f4; } .ColorScheme-NeutralText { color:#ff9800; } .ColorScheme-PositiveText { color:#4caf50; } .ColorScheme-NegativeText { color:#f44336; }</style>
  </defs>
  <g
     id="g2"
     transform="translate(2.999835,3)">
    <path
       d="m 15.514,2.082 c -5.2557,0.69966 -8.5781,5.8203 -8.5781,5.8203 0,-1e-7 3.8985,5.6357 8.2656,6.4922 0.27351,-0.36581 0.48909,-0.77819 0.625,-1.2266 C 12.6157,12.81129 9.68,8.0077 9.68,8.0077 c 0,0 2.4896,-3.8886 6.2988,-4.416 C 15.92422,3.04841 15.76261,2.5381 15.51396,2.0819 Z m 0.48633,3.3262 c -2.4531,0.34465 -3.918,2.5938 -3.918,2.5938 l 2.3145,2.3398 c 0.62545,-1.2344 1.0132,-2.0842 1.6035,-2.6172 z m -10.352,4.9395 c -0.51636,0.49139 -2.5658,1.7148 -3.002,2.2363 1.3024,1.2909 3.3437,2.483 5.5566,3.416 h 3.7969 c 0.42204,0 0.82762,-0.06547 1.209,-0.18555 -2.8811,-0.95849 -5.2537,-3.1053 -7.5605,-5.4668 z"
       fill="#dedede"
       id="path1" />
    <path
       d="M 4,0 C 1.784,0 0,1.784 0,4 v 8 c 0,2.216 1.784,4 4,4 h 8 c 2.216,0 4,-1.784 4,-4 V 4 C 16,1.784 14.216,0 12,0 Z m 0,1 h 8 c 1.662,0 3,1.338 3,3 v 8 c 0,1.662 -1.338,3 -3,3 H 4 C 2.338,15 1,13.662 1,12 V 4 C 1,2.338 2.338,1 4,1 Z"
       fill="#dedede"
       stroke-linecap="round"
       stroke-linejoin="round"
       stroke-width="2.2857"
       style="paint-order:stroke fill markers"
       id="path2" />
  </g>
</svg>
