<?xml version="1.0" encoding="UTF-8" standalone="no"?>
<svg
   width="22"
   height="22"
   version="1.1"
   id="svg1"
   sodipodi:docname="github-desktop-symbolic.svg"
   inkscape:version="1.4.2 (unknown)"
   xmlns:inkscape="http://www.inkscape.org/namespaces/inkscape"
   xmlns:sodipodi="http://sodipodi.sourceforge.net/DTD/sodipodi-0.dtd"
   xmlns="http://www.w3.org/2000/svg"
   xmlns:svg="http://www.w3.org/2000/svg">
  <defs
     id="defs1" />
  <sodipodi:namedview
     id="namedview1"
     pagecolor="#ffffff"
     bordercolor="#000000"
     borderopacity="0.25"
     inkscape:showpageshadow="2"
     inkscape:pageopacity="0.0"
     inkscape:pagecheckerboard="0"
     inkscape:deskcolor="#d1d1d1"
     inkscape:zoom="23.625"
     inkscape:cx="8.1058201"
     inkscape:cy="12.444444"
     inkscape:current-layer="svg1" />
  <path
     d="M 7,3 C 4.784,3 3,4.784 3,7 v 8 c 0,2.216 1.784,4 4,4 h 8 c 2.216,0 4,-1.784 4,-4 V 7 C 19,4.784 17.216,3 15,3 Z m 0,1 h 8 c 1.662,0 3,1.338 3,3 v 8 c 0,1.662 -1.338,3 -3,3 h -1.0488 c 8.78e-4,-0.45156 0.002,-0.94682 0.002,-1.2812 0,-0.47427 -0.1081,-0.8654 -0.26367,-1.1914 0.69849,-0.14713 1.3979,-0.36919 1.9863,-0.875 0.81031,-0.69658 1.334,-1.841 1.334,-3.5215 0,-0.88322 -0.26885,-1.6526 -0.74414,-2.291 0.12439,-0.40849 0.28753,-1.1895 -0.13286,-2.2773 -0.05405,-0.1399 -0.16804,-0.24816 -0.31055,-0.29492 0,0 -0.12975,-0.036891 -0.26172,-0.042969 -0.39016,-0.018375 -1.1705,0.14991 -2.2676,0.86523 -0.64762,-0.16524 -1.3312,-0.25577 -2.043,-0.25391 -0.66157,0.00162 -1.3669,0.080056 -2.0684,0.25781 C 8.18402,6.456531 7.46606,6.209411 7.09956,6.226651 6.96961,6.232621 6.8437,6.265713 6.8437,6.265713 6.69856,6.311379 6.5821,6.420643 6.52729,6.562593 c -0.41781,1.0833 -0.25742,1.8603 -0.13281,2.2715 -0.47942,0.62909 -0.79297,1.3947 -0.79297,2.2969 0,1.6856 0.57935,2.8354 1.4297,3.5273 0.67869,0.55229 1.4802,0.77898 2.2539,0.91797 -0.045462,0.12657 -0.12562,0.23387 -0.1543,0.37305 -0.21501,0.09061 -0.48084,0.2004 -0.74805,0.19922 -0.31824,-0.0014 -0.58272,-0.06563 -0.86523,-0.5625 -0.00881,-0.01743 -0.51922,-1.0218 -1.627,-1.1016 -0.00976,-2.86e-4 -0.019533,-2.86e-4 -0.029297,0 0,0 -0.079245,-0.0029 -0.17383,0.0078 -0.094584,0.0107 -0.21448,0.01833 -0.38672,0.11914 -0.086118,0.05041 -0.19767,0.13896 -0.26367,0.29492 -0.066004,0.15596 -0.049775,0.34852 0.00195,0.47461 0.10346,0.25217 0.25866,0.36038 0.47461,0.51172 0.022284,0.01556 0.045799,0.02928 0.070312,0.04102 0,0 0.034763,0.0094 0.16602,0.14453 0.13125,0.13512 0.31548,0.37444 0.47461,0.78906 0.00146,0.0038 0.19718,0.5087 0.72266,0.88867 0.13631,0.09857 0.30462,0.17949 0.4961,0.24415 h -0.44336 c -1.662,0 -3,-1.338 -3,-3 v -8 c 0,-1.662 1.338,-3 3,-3 z m 8.2676,3.3301 c 0.16354,0.73618 0.05891,1.2937 0.01367,1.4082 -0.06905,0.17544 -0.03356,0.3748 0.0918,0.51562 0.42654,0.47728 0.63672,1.0708 0.63672,1.877 0,1.4828 -0.41198,2.2699 -0.98633,2.7637 -0.57435,0.49373 -1.3832,0.70592 -2.2324,0.80274 -0.43253,0.04726 -0.60252,0.58616 -0.27539,0.87305 0.17951,0.15865 0.4375,0.51812 0.4375,1.1484 0,0.33374 -6.96e-4,0.82013 -0.002,1.2812 h -2.9863 c -2.234e-4,-0.12352 3.829e-4,-0.28513 0,-0.36328 -0.00104,-0.3196 -0.29751,-0.5562 -0.60938,-0.48633 -1.0069,0.22442 -1.5207,0.01301 -1.8223,-0.20508 -0.023408,-0.01693 -0.00857,-0.01643 -0.029297,-0.0332 0.29023,0.1533 0.59458,0.2351 0.87305,0.23633 0.58816,0.0026 1.0722,-0.21835 1.3145,-0.33008 0.15557,-0.07129 0.26388,-0.21718 0.28711,-0.38672 0.065417,-0.47929 0.23158,-0.81303 0.2832,-0.85938 0.31782,-0.28762 0.15014,-0.81564 -0.27539,-0.86719 -0.84785,-0.09884 -1.7069,-0.31992 -2.3242,-0.82227 -0.6173,-0.50235 -1.0605,-1.2823 -1.0605,-2.752 0,-0.78715 0.25048,-1.3852 0.6875,-1.875 C 7.415333,9.11458 7.450873,8.91422 7.38101,8.73823 7.335854,8.62417 7.23296,8.0696 7.392729,7.33783 c 0.19325,0.016002 0.50557,0.019477 1.4434,0.67188 0.12381,0.085357 0.27946,0.11046 0.42383,0.068359 0.64073,-0.18614 1.3187,-0.24054 1.9922,-0.24219 0.73286,-0.00192 1.4215,0.068777 1.9961,0.24219 0.14616,0.043984 0.3044,0.01881 0.42969,-0.068359 0.93574,-0.65113 1.3736,-0.66359 1.5898,-0.67969 z"
     fill="#dedede"
     stroke-width="0.2857"
     id="path1"
     style="fill:#f2f2f2;fill-opacity:1" />
</svg>
