<?xml version="1.0" encoding="UTF-8" standalone="no"?>
<svg
   height="16"
   viewBox="0 0 16 16"
   width="16"
   version="1.1"
   id="svg1"
   sodipodi:docname="gnome-aisleriot-symbolic.svg"
   inkscape:version="1.4.2 (unknown)"
   xmlns:inkscape="http://www.inkscape.org/namespaces/inkscape"
   xmlns:sodipodi="http://sodipodi.sourceforge.net/DTD/sodipodi-0.dtd"
   xmlns="http://www.w3.org/2000/svg"
   xmlns:svg="http://www.w3.org/2000/svg">
  <defs
     id="defs1" />
  <sodipodi:namedview
     id="namedview1"
     pagecolor="#ffffff"
     bordercolor="#000000"
     borderopacity="0.25"
     inkscape:showpageshadow="2"
     inkscape:pageopacity="0.0"
     inkscape:pagecheckerboard="0"
     inkscape:deskcolor="#d1d1d1"
     inkscape:zoom="15.75"
     inkscape:cx="7.5555556"
     inkscape:cy="12.952381"
     inkscape:current-layer="svg1" />
  <path
     d="m 7.3215571,2.0000001 c -0.1641292,0 -0.3279551,0.038124 -0.4857704,0.094934 L 2.1901477,4.0195212 C 1.5462676,4.2846479 1.2370516,5.0242019 1.5021786,5.6617692 L 4.6325598,13.204766 C 4.8282488,13.690833 5.2894098,13.987372 5.7754755,14 5.939602,14 6.1094488,13.96836 6.2735747,13.898914 l 4.6530403,-1.924587 c 0.473435,-0.195693 0.764108,-0.663458 0.776734,-1.13059 0.0064,-0.164125 -0.02577,-0.347535 -0.08263,-0.511664 L 8.4644695,2.789068 C 8.2814086,2.3030024 7.8139365,2.0063128 7.3215571,2.0000001 Z m 2.1970604,0 2.1773335,5.2645665 V 3.262509 A 1.2625089,1.2625089 0 0 0 10.433443,2.0000001 Z M 12.965859,2.97154 v 5.7010149 l 1.533754,-3.6987545 c 0.25881,-0.6438797 -0.03778,-1.383286 -0.687971,-1.6484128 z M 5.5893048,5.841775 7.6285508,7.3631992 7.3511453,9.8943819 5.3118981,8.3667909 Z"
     fill="#bebebe"
     stroke-width="0.861742"
     id="path1"
     style="fill:#f0f0f0;fill-opacity:1" />
</svg>
