<?xml version="1.0" encoding="UTF-8" standalone="no"?>
<svg
   width="16"
   height="16"
   version="1.1"
   id="svg1"
   sodipodi:docname="gnome-pie-symbolic.svg"
   inkscape:version="1.4.2 (unknown)"
   xmlns:inkscape="http://www.inkscape.org/namespaces/inkscape"
   xmlns:sodipodi="http://sodipodi.sourceforge.net/DTD/sodipodi-0.dtd"
   xmlns="http://www.w3.org/2000/svg"
   xmlns:svg="http://www.w3.org/2000/svg">
  <sodipodi:namedview
     id="namedview1"
     pagecolor="#ffffff"
     bordercolor="#000000"
     borderopacity="0.25"
     inkscape:showpageshadow="2"
     inkscape:pageopacity="0.0"
     inkscape:pagecheckerboard="0"
     inkscape:deskcolor="#d1d1d1"
     inkscape:zoom="23.625"
     inkscape:cx="6.962963"
     inkscape:cy="11.936508"
     inkscape:current-layer="svg1" />
  <defs
     id="defs1">
    <style
       id="current-color-scheme"
       type="text/css">
   .ColorScheme-Text { color:#aaaaaa; } .ColorScheme-Highlight { color:#4285f4; }
  </style>
  </defs>
  <path
     style="fill:#f0f0f0;stroke-width:0.999998;fill-opacity:1"
     class="ColorScheme-Text"
     d="m 10.325532,2.0049381 c -0.124462,-0.0087 -0.248019,-0.00759 -0.371666,0.00167 C 9.1307771,2.0683438 8.3523141,2.5250362 7.9113736,3.2957267 7.2065303,4.528743 7.6341635,6.0982045 8.8673273,6.8031209 10.100491,7.5079643 11.669955,7.0801845 12.374727,5.8471679 13.079493,4.6141511 12.65193,3.0446907 11.418772,2.3397734 v -0.00173 C 11.071531,2.1398416 10.698917,2.0310331 10.325532,2.0049381 Z M 4.8744219,3.7192924 C 4.3256454,3.7604411 3.8052353,4.0644111 3.5116446,4.5781436 3.0418032,5.4000747 3.3275743,6.4471918 4.1495051,6.9169648 4.9714358,7.3869435 6.0185532,7.10083 6.4883258,6.2791045 6.9580986,5.4569679 6.6721907,4.4101248 5.8504658,3.9402832 5.5421983,3.7641021 5.2036746,3.6946037 4.8744219,3.7192924 Z m -1.25563,4.2858857 C 3.2073215,8.0360336 2.8177119,8.2623678 2.5975453,8.6480608 2.2451507,9.2645267 2.4600227,10.050329 3.0763598,10.402597 3.6926968,10.754866 4.4785635,10.539602 4.8308938,9.9237815 5.1832243,9.3073145 4.9684175,8.522156 4.3520793,8.169247 4.1209855,8.0374684 3.8656992,7.9865363 3.6187919,8.0051781 Z m 8.1130451,0 c -0.54932,0.041146 -1.069257,0.3451915 -1.362775,0.8588512 -0.4697703,0.8215806 -0.183721,1.8690507 0.637858,2.3388197 0.821586,0.46977 1.869051,0.183717 2.33882,-0.637855 0.469771,-0.8215839 0.184411,-1.8690565 -0.637855,-2.3388249 -0.30793,-0.1762489 -0.646871,-0.245954 -0.976048,-0.220991 z M 8.9409907,11.430538 c -0.500247,-0.03283 -0.9936424,0.232363 -1.2321921,0.708174 -0.3182805,0.635272 -0.062066,1.406124 0.5725674,1.724402 0.6346316,0.318281 1.4061197,0.06202 1.724399,-0.57257 0.318282,-0.634631 0.06207,-1.40612 -0.5725671,-1.724399 C 9.2743785,11.486429 9.107525,11.44147 8.9409907,11.430538 Z m -4.0046241,0.858851 c -0.2743137,0.02059 -0.5329604,0.171527 -0.6797152,0.428589 -0.2348404,0.410729 -0.092809,0.935466 0.3180935,1.170252 0.4107283,0.234776 0.935407,0.09094 1.1702477,-0.319772 0.2347837,-0.410728 0.091018,-0.935466 -0.319767,-1.170252 -0.1541232,-0.08798 -0.3243394,-0.121381 -0.488859,-0.108817 z"
     id="path1" />
</svg>
