<?xml version="1.0" encoding="UTF-8" standalone="no"?>
<svg
   width="22"
   height="22"
   version="1.1"
   id="svg3"
   sodipodi:docname="microsoft-edge-symbolic.svg"
   inkscape:version="1.4.2 (unknown)"
   xmlns:inkscape="http://www.inkscape.org/namespaces/inkscape"
   xmlns:sodipodi="http://sodipodi.sourceforge.net/DTD/sodipodi-0.dtd"
   xmlns="http://www.w3.org/2000/svg"
   xmlns:svg="http://www.w3.org/2000/svg">
  <defs
     id="defs3" />
  <sodipodi:namedview
     id="namedview3"
     pagecolor="#ffffff"
     bordercolor="#000000"
     borderopacity="0.25"
     inkscape:showpageshadow="2"
     inkscape:pageopacity="0.0"
     inkscape:pagecheckerboard="0"
     inkscape:deskcolor="#d1d1d1"
     inkscape:zoom="23.625"
     inkscape:cx="17.481481"
     inkscape:cy="6.4761905"
     inkscape:current-layer="svg3" />
  <g
     id="g4"
     transform="translate(2.9998429,3.0000447)">
    <g
       id="g3">
      <path
         d="M 8,0 C 3.6255,0 0.0616,3.5134 0,7.8867 0.029926,5.6035 2.2998,3.4844 5,3.4844 c 0.21866,0 1.4662,0.02091 2.625,0.62891 1.021,0.53629 1.5558,1.4579 1.9277,2.0996 0.54044,1.0198 0.56324,1.956 -0.033203,2.7344 -0.05037,0.06548 -0.20508,0.15589 -0.20508,0.35352 0,0.16296 0.10618,0.32158 0.29492,0.45312 0.89866,0.62518 2.593,0.54102 2.5977,0.54102 a 3.7229,3.7229 0 0 0 1.8906,-0.52148 c 1.1751,-0.68651 1.8996,-1.5883 1.9023,-2.9492 0.0163,-1.4003 -0.5001,-2.3319 -0.70898,-2.7441 -1.3244,-2.5905 -4.1826,-4.0801 -7.291,-4.0801 z m 0,1 c 2.7889,0 5.2707,1.3256 6.4004,3.5352 0.23472,0.46291 0.61296,1.13 0.59961,2.2773 a 1.0001,1.0001 0 0 0 0,0.00977 c -0.002,1.0072 -0.40654,1.5038 -1.4062,2.0879 a 1.0001,1.0001 0 0 0 -0.0059,0.00391 c -0.41776,0.24797 -0.8951,0.37907 -1.3809,0.38086 -0.0023,0 -0.40186,0.017567 -0.85742,-0.03125 C 11.01658,9.227993 10.74308,9.11926 10.49412,9.0215 10.99519,7.9996 10.99472,6.7994 10.43553,5.7442 A 1.0001,1.0001 0 0 0 10.41795,5.710997 c -0.3723,-0.6424 -1.017,-1.7937 -2.3281,-2.4824 -1.4117,-0.74071 -2.8061,-0.74414 -3.0898,-0.74414 -0.55098,0 -1.0548,0.15955 -1.5664,0.29297 1.2303,-1.0738 2.8,-1.7773 4.5664,-1.7773 z"
         color="#000000"
         fill="#dedede"
         stroke-linecap="round"
         stroke-linejoin="round"
         style="-inkscape-stroke:none"
         id="path1" />
      <path
         d="m 7.0312,6.2539 c -2.8103,1.384 -3.9311,4.9677 -2.084,7.498 a 4.9499,4.9499 0 0 0 1.4199,1.334 l 0.00586,0.002 c 1.0083,0.63063 2.3883,0.85357 3.5938,0.63867 0.059689,-0.01266 0.12273,-0.0236 0.17969,-0.03711 0.14056,-0.03335 0.27096,-0.06818 0.38281,-0.10352 l 0.08203,-0.02734 a 8.0186,8.0186 0 0 0 4.1621,-3.2988 c 0.13863,-0.21845 -0.10778,-0.47734 -0.33398,-0.35352 -0.76655,0.7535 -1.9542,0.93276 -2.9004,0.9375 -2.957,0 -5.5352,-2.2728 -5.5352,-4.8828 a 1.9671,1.9671 0 0 1 1.0273,-1.707 z M 5.3671,9.5254 c 0.8018,2.4806 3.2928,4.3184 6.1719,4.3184 a 1.0001,1.0001 0 0 0 0.0059,0 c 0.05524,-2.77e-4 0.12837,-0.02028 0.18555,-0.02148 -0.46348,0.29648 -0.91841,0.60896 -1.4453,0.79102 l -0.07226,0.02344 c -0.07793,0.02416 -0.1795,0.05223 -0.29688,0.08008 -0.010887,0.0026 -0.066167,0.01332 -0.125,0.02539 H 9.78906 C 8.83134,14.91245 7.65216,14.70929 6.90236,14.2403 A 1.0001,1.0001 0 0 0 6.89455,14.2364 C 6.45002,13.96011 6.06518,13.59835 5.76175,13.1719 A 1.0001,1.0001 0 0 0 5.75589,13.1621 C 4.95003,12.0582 4.9092,10.717 5.36722,9.5254 Z"
         color="#000000"
         fill="#dedede"
         opacity="0.5"
         stroke-linecap="round"
         stroke-linejoin="round"
         style="-inkscape-stroke:none"
         id="path2" />
      <path
         d="m 5.0059,3.0078 c -2.7437,0 -5,2.6025 -5,4.8867 a 8.1309,8.1309 0 0 0 0.75781,3.5 c 1.7221,3.674 5.9233,5.477 9.7734,4.1934 -1.3182,0.4154 -2.9926,0.23274 -4.1641,-0.5 l -0.00586,-0.002 a 4.9499,4.9499 0 0 1 -1.4199,-1.334 c -1.8471,-2.5303 -0.72634,-6.114 2.084,-7.498 0.19496,-0.091851 0.52941,-0.258 0.97266,-0.25 a 2.0222,2.0222 0 0 1 1.6055,0.8125 1.992,1.992 0 0 1 0.39648,1.166 c 0,-0.01304 1.5289,-4.9746 -5,-4.9746 z m 0,1 c 1.5056,0 2.446,0.28722 3.0215,0.63281 C 8.25143,4.77515 8.27036,4.95012 8.41021,5.09959 8.27491,5.079658 8.15425,5.007148 8.01568,5.00584 7.31827,4.995653 6.77688,5.26689 6.60548,5.34764 A 1.0001,1.0001 0 0 0 6.589855,5.35545 c -3.0315,1.4929 -4.2742,5.1543 -2.8184,8.1055 -0.85288,-0.66016 -1.6143,-1.4503 -2.1016,-2.4883 v -0.002 l -0.00195,-0.002 c -0.44538,-0.95978 -0.67154,-2.0063 -0.66211,-3.0645 a 1.0001,1.0001 0 0 0 0,-0.00195 1.0001,1.0001 0 0 0 0,-0.00195 1.0001,1.0001 0 0 0 0,-0.00195 1.0001,1.0001 0 0 0 0,-0.00195 1.0001,1.0001 0 0 0 0,-0.00195 c 0,-0.81284 0.44076,-1.8306 1.1895,-2.6035 0.7487,-0.77287 1.755,-1.2832 2.8105,-1.2832 z m -0.87305,10.324 c 8.174e-4,0.0011 0.00309,7.6e-4 0.00391,0.002 0.00166,0.0023 2.935e-4,0.0055 0.00195,0.0078 z"
         color="#000000"
         fill="#dedede"
         opacity="0.75"
         stroke-linecap="round"
         stroke-linejoin="round"
         style="-inkscape-stroke:none"
         id="path3" />
    </g>
  </g>
</svg>
