<?xml version="1.0" encoding="UTF-8" standalone="no"?>
<svg
   width="22"
   height="22"
   version="1.1"
   id="svg5"
   sodipodi:docname="microsoft-edge-beta-symbolic.svg"
   inkscape:version="1.4.2 (unknown)"
   xmlns:inkscape="http://www.inkscape.org/namespaces/inkscape"
   xmlns:sodipodi="http://sodipodi.sourceforge.net/DTD/sodipodi-0.dtd"
   xmlns="http://www.w3.org/2000/svg"
   xmlns:svg="http://www.w3.org/2000/svg">
  <defs
     id="defs5" />
  <sodipodi:namedview
     id="namedview5"
     pagecolor="#ffffff"
     bordercolor="#000000"
     borderopacity="0.25"
     inkscape:showpageshadow="2"
     inkscape:pageopacity="0.0"
     inkscape:pagecheckerboard="0"
     inkscape:deskcolor="#d1d1d1"
     inkscape:zoom="23.625"
     inkscape:cx="7.026455"
     inkscape:cy="7.8730159"
     inkscape:current-layer="svg5" />
  <g
     id="g5"
     transform="translate(0.58703324,0.628895)">
    <path
       d="m 8.1511984,14.037105 h 0.93206 c 0.33398,0 0.57481,0.05597 0.72415,0.16797 0.15035,0.11178 0.2255296,0.2924 0.2255296,0.53906 0,0.12978 -0.02632,0.24048 -0.081049,0.33203 -0.054729,0.09044 -0.13538,0.15695 -0.23962,0.20117 0.13312,0.04289 0.23693,0.12295 0.3101,0.23828 0.07297,0.11556 0.10924,0.25583 0.10924,0.42383 0,0.25711 -0.07757,0.44995 -0.23434,0.57617 -0.15677,0.12622 -0.395,0.18945 -0.71535,0.18945 h -1.0307 v -2.668 z m 2.5160996,0 h 1.6739 v 0.52148 h -1.0537 v 0.49609 h 0.99024 v 0.51953 h -0.99024 v 0.61133 h 1.0888 v 0.51953 h -1.709 v -2.668 z m 1.9663,0 h 2.2183 v 0.52148 h -0.79815 v 2.1465 h -0.6202 v -2.1465 h -0.79992 v -0.52148 z m 2.886,0.002 h 0.74001 l 0.89154,2.666 h -0.62373 l -0.15153,-0.48633 h -0.97085 l -0.15329,0.48633 h -0.62196 l 0.88978,-2.666 z m -6.7481996,0.4668 v 0.56445 h 0.34358 c 0.097825,0 0.17148,-0.02471 0.222,-0.07227 0.050518,-0.04755 0.075963,-0.11783 0.075762,-0.21094 0,-0.09156 -0.025245,-0.16121 -0.075762,-0.20898 -0.050318,-0.04889 -0.12418,-0.07226 -0.222,-0.07226 z m 7.1199996,0.1582 -0.33124,1.0605 h 0.65896 z m -7.1199996,0.875 v 0.69726 h 0.36472 c 0.12449,0 0.21781,-0.02945 0.28015,-0.08789 0.063348,-0.05822 0.095145,-0.14567 0.095145,-0.26367 10e-8,-0.11556 -0.031238,-0.20266 -0.093386,-0.25977 -0.062346,-0.05822 -0.15622,-0.08594 -0.28191,-0.08594 h -0.36472 z"
       fill="#dedede"
       id="path1" />
    <path
       d="m 10.412698,2.371105 c -4.3744996,0 -7.9383996,3.5134 -7.9999996,7.8867 0.029926,-2.2832 2.2998,-4.4023 5,-4.4023 0.21866,0 1.4662,0.020911 2.6249996,0.62891 1.021,0.53629 1.5558,1.4579 1.9277,2.0996 0.54044,1.0198 0.56324,1.956 -0.0332,2.7344 -0.01051,0.01366 -0.03354,0.03616 -0.05078,0.05273 h 1.0352 c 0.49067,-1.0172 0.48695,-2.208 -0.06836,-3.2559 a 1.0001,1.0001 0 0 0 -0.01758,-0.033203 c -0.3723,-0.64239 -1.017,-1.7937 -2.3281,-2.4824 -1.4116996,-0.7407 -2.8060996,-0.74414 -3.0897996,-0.74414 -0.55098,0 -1.0548,0.15955 -1.5664,0.29297 1.2303,-1.0738 2.8,-1.7773 4.5663996,-1.7773 2.7889,0 5.2707,1.3256 6.4004,3.5352 0.23472,0.46291 0.61296,1.13 0.59961,2.2773 a 1.0001,1.0001 0 0 0 0,0.00977 c -0.002,1.0072 -0.40654,1.5038 -1.4062,2.0879 a 1.0001,1.0001 0 0 0 -0.0059,0.0039 c -0.05093,0.03025 -0.10356,0.05918 -0.15621,0.08593 h 0.56836 c 0.33376,0 0.65371,0.05654 0.95312,0.15625 0.66018,-0.59762 1.0449,-1.3431 1.0469,-2.332 0.0163,-1.4003 -0.50011,-2.3319 -0.70898,-2.7441 -1.3244,-2.5905 -4.1826,-4.0801 -7.291,-4.0801 z"
       color="#000000"
       fill="#dedede"
       stroke-linecap="round"
       stroke-linejoin="round"
       style="-inkscape-stroke:none"
       id="path2" />
    <path
       d="m 9.4438984,8.625005 c -1.4039,0.6914 -2.3878,1.9307 -2.7891,3.3145 0.49355,-0.35663 1.0997,-0.56836 1.7578,-0.56836 h 0.14258 c -0.089538,-0.33707 -0.13867,-0.68472 -0.13867,-1.0391 a 1.9671,1.9671 0 0 1 1.0273,-1.707 z"
       color="#000000"
       fill="#dedede"
       opacity="0.5"
       stroke-linecap="round"
       stroke-linejoin="round"
       style="-inkscape-stroke:none"
       id="path3" />
    <path
       d="m 7.4185984,5.378905 c -2.7437,0 -5,2.6025 -5,4.8867 a 8.1309,8.1309 0 0 0 0.75781,3.5 c 0.53733,1.1464 1.3159,2.1103 2.25,2.8555 -0.00682,-0.08289 -0.013672,-0.1653 -0.013672,-0.25 v -1.207 c -0.53249,-0.5164 -0.99619,-1.1091 -1.3301,-1.8203 v -0.002 l -0.00195,-0.002 c -0.44539,-0.95959 -0.67155,-2.0062 -0.66211,-3.0644 a 1.0001,1.0001 0 0 0 0,-0.0019 1.0001,1.0001 0 0 0 0,-0.002 1.0001,1.0001 0 0 0 0,-0.0019 1.0001,1.0001 0 0 0 0,-0.002 1.0001,1.0001 0 0 0 0,-0.0019 c 0,-0.81284 0.44076,-1.8306 1.1895,-2.6035 0.7487,-0.77288 1.755,-1.2832 2.8105,-1.2832 1.5056,0 2.446,0.28722 3.0214996,0.63281 0.22403,0.13453 0.24296,0.3095 0.38281,0.45897 -0.1353,-0.019932 -0.25596,-0.092442 -0.39453,-0.09375 -0.6974096,-0.010187 -1.2387996,0.26105 -1.4101996,0.3418 a 1.0001,1.0001 0 0 0 -0.015625,0.00781 c -2.2263,1.0964 -3.4854,3.363 -3.4219,5.6582 0.20318,-0.5868 0.58102,-1.0889 1.0742,-1.4453 0.40125,-1.3838 1.3851,-2.623 2.7891,-3.3145 0.19496,-0.091851 0.52941,-0.258 0.9726596,-0.25 a 2.0222,2.0222 0 0 1 1.6055,0.8125 1.992,1.992 0 0 1 0.39648,1.166 c 0,-0.01304 1.5289,-4.9746 -4.9999996,-4.9746 z"
       color="#000000"
       fill="#dedede"
       opacity="0.75"
       stroke-linecap="round"
       stroke-linejoin="round"
       style="-inkscape-stroke:none"
       id="path4" />
    <path
       d="m 8.4126984,12.371105 c -1.108,0 -2,0.892 -2,2 v 2 c 0,1.108 0.892,2 2,2 h 7.9999996 c 1.108,0 2,-0.892 2,-2 v -2 c 0,-1.108 -0.892,-2 -2,-2 z m 0,1 h 7.9999996 c 0.554,0 1,0.446 1,1 v 2 c 0,0.554 -0.446,1 -1,1 H 8.4126984 c -0.554,0 -1,-0.446 -1,-1 v -2 c 0,-0.554 0.446,-1 1,-1 z"
       fill="#dedede"
       id="path5" />
  </g>
</svg>
