<?xml version="1.0" encoding="UTF-8" standalone="no"?>
<svg
   width="22"
   height="22"
   version="1.1"
   id="svg1"
   sodipodi:docname="nl.hjdskes.gcolor3-symbolic.svg"
   inkscape:version="1.4.2 (unknown)"
   xmlns:inkscape="http://www.inkscape.org/namespaces/inkscape"
   xmlns:sodipodi="http://sodipodi.sourceforge.net/DTD/sodipodi-0.dtd"
   xmlns="http://www.w3.org/2000/svg"
   xmlns:svg="http://www.w3.org/2000/svg">
  <defs
     id="defs1" />
  <sodipodi:namedview
     id="namedview1"
     pagecolor="#ffffff"
     bordercolor="#000000"
     borderopacity="0.25"
     inkscape:showpageshadow="2"
     inkscape:pageopacity="0.0"
     inkscape:pagecheckerboard="0"
     inkscape:deskcolor="#d1d1d1"
     inkscape:zoom="23.625"
     inkscape:cx="14.518519"
     inkscape:cy="12.486772"
     inkscape:current-layer="svg1" />
  <g
     transform="matrix(1.1545929,0,0,1.1545929,-150.73031,-159.79728)"
     id="g1"
     style="stroke-width:0.866105">
    <path
       d="m 146.49,141 c -0.12976,0.004 -0.25303,0.0575 -0.34375,0.15039 l -0.48632,0.48633 c -0.21492,-0.10289 -0.45127,-0.1531 -0.68946,-0.14648 -0.38956,0.0113 -0.75941,0.17386 -1.0312,0.45312 l -1.6465,1.6465 -0.93945,-0.93946 c -0.0942,-0.0974 -0.2239,-0.15234 -0.35938,-0.15234 -0.44941,8e-5 -0.6706,0.54683 -0.34766,0.85938 l 0.93946,0.93945 -6.1465,6.1465 c -0.35526,0.34249 -0.50915,0.82822 -0.43945,1.2988 v 0.55469 l -1.8535,1.8535 0.70704,0.70704 1.8535,-1.8535 h 0.54492 c 0.47378,0.0725 0.96431,-0.081 1.3086,-0.43945 l 6.1465,-6.1465 0.93945,0.93946 c 0.47127,0.49023 1.1973,-0.23577 0.70704,-0.70704 l -0.93946,-0.93945 1.6465,-1.6465 c 0.45873,-0.44877 0.5812,-1.1396 0.30468,-1.7188 l 0.48829,-0.48828 c 0.32529,-0.31801 0.0914,-0.86991 -0.36329,-0.85743 z m -4.0938,3.9004 0.70704,0.70704 -3.3965,3.3965 h -1.4141 z"
       fill="#dedede"
       id="path1"
       style="stroke-width:0.866105" />
  </g>
</svg>
