<?xml version="1.0" encoding="UTF-8" standalone="no"?>
<svg
   width="16px"
   height="16px"
   version="1.1"
   viewBox="0 0 16 16"
   id="svg1"
   sodipodi:docname="org.gnome.Settings-thunderbolt-symbolic.svg"
   inkscape:version="1.4.2 (unknown)"
   xmlns:inkscape="http://www.inkscape.org/namespaces/inkscape"
   xmlns:sodipodi="http://sodipodi.sourceforge.net/DTD/sodipodi-0.dtd"
   xmlns="http://www.w3.org/2000/svg"
   xmlns:svg="http://www.w3.org/2000/svg">
  <defs
     id="defs1" />
  <sodipodi:namedview
     id="namedview1"
     pagecolor="#ffffff"
     bordercolor="#000000"
     borderopacity="0.25"
     inkscape:showpageshadow="2"
     inkscape:pageopacity="0.0"
     inkscape:pagecheckerboard="0"
     inkscape:deskcolor="#d1d1d1"
     inkscape:zoom="23.625"
     inkscape:cx="9.7142857"
     inkscape:cy="7.6190476"
     inkscape:current-layer="svg1" />
  <path
     d="m 9.9936131,1.9999989 -2.786016,5.0230112 h 2.7702391 l -3.3064993,4.7565829 1.049783,0.108752 -2.054246,1.664541 c 0,0 0.7168438,0.314448 1.3609902,0.400285 0.1479626,0.01972 0.7062099,0.04683 0.945609,0.04683 3.2010109,-4.59e-4 5.8038129,-2.603885 5.8033489,-5.8048962 v -0.00302 C 13.764139,6.2359049 12.755963,4.2339392 10.699939,3.1122321 Z M 7.9643472,2.354028 7.2800858,2.4371043 C 4.5050517,2.7721702 2.4395917,5.0556067 2.2485673,7.8069754 2.2238974,8.0109229 2.2180158,8.4361414 2.2274201,8.5818999 2.3575254,10.528647 3.425537,12.301306 5.1442144,13.261454 l 0.5226332,0.291525 0.2175125,-2.539154 0.5573733,0.666134 1.9394768,-3.883517 H 5.4840598 Z M 6.6199846,3.4400824 4.2817543,8.5697424 H 7.1305686 L 6.2771463,10.278134 5.2741527,9.0787797 5.0143441,12.090699 C 3.7842095,11.147643 2.9468734,9.7727317 2.9495029,8.1951182 2.9490256,5.921697 4.4967997,4.0489627 6.620031,3.4400824 Z m 3.3699163,0.1404764 0.1359441,0.066462 c 1.973273,0.9587564 2.865983,2.7712446 2.877507,4.5496267 -4.36e-4,2.7823045 -2.247436,5.0295845 -5.0299717,5.0299715 -0.1396566,0 -0.3678804,-0.01693 -0.5936293,-0.0287 L 9.5926167,11.306778 8.0549097,11.146666 11.458081,6.2496378 H 8.5171576 Z"
     fill="#dedede"
     id="path1"
     style="stroke-width:1" />
</svg>
