<?xml version="1.0" encoding="UTF-8" standalone="no"?>
<svg
   width="16px"
   height="16px"
   version="1.1"
   viewBox="0 0 16 16"
   id="svg1"
   sodipodi:docname="org.gnome.Settings-users-symbolic.svg"
   inkscape:version="1.4.2 (unknown)"
   xmlns:inkscape="http://www.inkscape.org/namespaces/inkscape"
   xmlns:sodipodi="http://sodipodi.sourceforge.net/DTD/sodipodi-0.dtd"
   xmlns="http://www.w3.org/2000/svg"
   xmlns:svg="http://www.w3.org/2000/svg">
  <defs
     id="defs1" />
  <sodipodi:namedview
     id="namedview1"
     pagecolor="#ffffff"
     bordercolor="#000000"
     borderopacity="0.25"
     inkscape:showpageshadow="2"
     inkscape:pageopacity="0.0"
     inkscape:pagecheckerboard="0"
     inkscape:deskcolor="#d1d1d1"
     inkscape:zoom="23.625"
     inkscape:cx="17.439153"
     inkscape:cy="10.666667"
     inkscape:current-layer="svg1" />
  <path
     d="M 5.200001,2 A 1.9999998,1.9999998 0 0 0 3.2000012,3.9999998 1.9999998,1.9999998 0 0 0 5.200001,6.0000001 1.9999998,1.9999998 0 0 0 7.2000009,3.9999998 1.9999998,1.9999998 0 0 0 5.200001,2 Z m 0,0.7999998 a 1.2,1.2 0 0 1 1.2,1.2 1.2,1.2 0 0 1 -1.2,1.2000001 1.2,1.2 0 0 1 -1.2,-1.2000001 1.2,1.2 0 0 1 1.2,-1.2 z M 10.799999,4.4 A 1.9999998,1.9999998 0 0 0 8.800001,6.3999999 1.9999998,1.9999998 0 0 0 10.799999,8.3999998 1.9999998,1.9999998 0 0 0 12.800003,6.3999999 1.9999998,1.9999998 0 0 0 10.799999,4.4 Z m 0,0.7999999 a 1.2,1.2 0 0 1 1.2,1.2 1.2,1.2 0 0 1 -1.2,1.2 1.2,1.2 0 0 1 -1.1999981,-1.2 1.2,1.2 0 0 1 1.1999981,-1.2 z M 4.000001,6.8 c -1.3296,0 -2.4,1.0704 -2.4,2.4 v 0.7999977 0.8000043 c 0,0.443196 0.3568,0.799998 0.8,0.799998 h 1.6 2.4 c 0,-0.276472 0.034682,-0.544448 0.1,-0.799998 h -0.1 -2.4 -1.6 V 9.2 c 0,-0.8864002 0.7136002,-1.6000001 1.6,-1.6000001 h 2.4 c 0.766032,0 1.40208,0.5331359 1.56096,1.2499999 C 8.191409,8.7128558 8.4411848,8.6027438 8.7047128,8.52656 8.4150488,7.52672 7.4957528,6.8 6.3999928,6.8 H 3.9999932 Z m 5.5999999,2.4 c -1.3296001,0 -2.4,1.0704 -2.4,2.4 v 0.799998 0.800004 C 7.2000009,13.643198 7.556801,14 8.0000008,14 h 1.6000001 2.3999981 1.600002 c 0.443202,0 0.799998,-0.356802 0.799998,-0.799998 V 12.399998 11.6 c 0,-1.3296 -1.0704,-2.4 -2.4,-2.4 z m 0,0.7999977 h 2.3999981 c 0.886404,0 1.600002,0.7136043 1.600002,1.6000023 v 1.600002 H 11.999999 9.6000009 8.0000008 V 11.6 c 0,-0.886398 0.7136002,-1.6000023 1.6000001,-1.6000023 z"
     fill="#dedede"
     id="path1"
     style="stroke-width:1" />
</svg>
