<?xml version="1.0" encoding="UTF-8" standalone="no"?>
<svg
   width="16"
   height="16"
   version="1.1"
   id="svg3"
   sodipodi:docname="org.gnome.Terminal.Preferences-symbolic.svg"
   inkscape:version="1.4.2 (unknown)"
   xmlns:inkscape="http://www.inkscape.org/namespaces/inkscape"
   xmlns:sodipodi="http://sodipodi.sourceforge.net/DTD/sodipodi-0.dtd"
   xmlns="http://www.w3.org/2000/svg"
   xmlns:svg="http://www.w3.org/2000/svg"
   xmlns:rdf="http://www.w3.org/1999/02/22-rdf-syntax-ns#"
   xmlns:cc="http://creativecommons.org/ns#"
   xmlns:dc="http://purl.org/dc/elements/1.1/">
  <defs
     id="defs3" />
  <sodipodi:namedview
     id="namedview3"
     pagecolor="#ffffff"
     bordercolor="#000000"
     borderopacity="0.25"
     inkscape:showpageshadow="2"
     inkscape:pageopacity="0.0"
     inkscape:pagecheckerboard="0"
     inkscape:deskcolor="#d1d1d1"
     inkscape:zoom="23.625"
     inkscape:cx="8.3597884"
     inkscape:cy="15.492063"
     inkscape:current-layer="svg3" />
  <title
     id="title1">Gnome Symbolic Icon Theme</title>
  <g
     transform="matrix(0.80029878,0,0,0.80029878,-96.038845,-390.9467)"
     id="g3"
     style="stroke-width:1.24954;fill:#f0f0f0;fill-opacity:1">
    <path
       d="m 124,491 c -1.108,0 -2,0.892 -2,2 v 10 c 0,1.108 0.892,2 2,2 h 6.0156 a 5,5 0 0 1 -0.59179,-1 h -5.4238 c -0.554,0 -1,-0.446 -1,-1 v -10 c 0,-0.554 0.446,-1 1,-1 h 12 c 0.554,0 1,0.446 1,1 v 5.002 a 5,5 0 0 1 1,1 V 493 c 0,-1.108 -0.892,-2 -2,-2 h -12 z"
       fill="#dedede"
       id="path1"
       style="stroke-width:1.24954;fill:#f0f0f0;fill-opacity:1" />
    <rect
       transform="matrix(0.70711,-0.70711,-0.70711,-0.70711,0,0)"
       x="-264.92001"
       y="-443.35999"
       width="4"
       height="1"
       fill="#dedede"
       id="rect1"
       style="stroke-width:1.24954;fill:#f0f0f0;fill-opacity:1" />
    <rect
       transform="rotate(45)"
       x="439.35999"
       y="260.92001"
       width="4"
       height="1"
       fill="#dedede"
       id="rect2"
       style="stroke-width:1.24954;fill:#f0f0f0;fill-opacity:1" />
    <g
       transform="translate(-15.691,-0.18603)"
       id="g2"
       style="stroke-width:1.24954;fill:#f0f0f0;fill-opacity:1">
      <path
         d="m 149.4,498.18 c -0.11093,0 -0.26671,0.032 -0.39648,0.14063 -0.12978,0.10864 -0.19138,0.26714 -0.20704,0.38086 l 0.01,-0.0488 -0.16992,0.71289 c -0.0695,0.0254 -0.13536,0.0523 -0.20117,0.082 l -0.6211,-0.38086 h -0.002 c -0.0899,-0.054 -0.23759,-0.10946 -0.39648,-0.0898 -0.1589,0.0196 -0.27734,0.10143 -0.34571,0.16406 l -0.008,0.006 -0.42578,0.41992 -0.008,0.01 c -0.0773,0.0844 -0.1549,0.22617 -0.16407,0.37695 -0.009,0.15079 0.0398,0.27463 0.0859,0.35547 l 0.006,0.008 0.39063,0.62696 c -0.0278,0.0608 -0.0505,0.12526 -0.0762,0.19336 l -0.70898,0.16601 -0.004,0.002 c -0.0807,0.0202 -0.21876,0.0672 -0.33008,0.20118 -0.11131,0.13395 -0.13671,0.2954 -0.13671,0.39453 v 0.57422 c 0,0.11086 0.0299,0.26857 0.13867,0.39843 0.1088,0.12987 0.26937,0.19142 0.38281,0.20703 l -0.0488,-0.01 0.71289,0.16992 c 0.0234,0.0626 0.0458,0.12299 0.0723,0.18164 l -0.38672,0.62891 c -0.0512,0.0836 -0.10534,0.21538 -0.0918,0.37695 0.0135,0.16157 0.10547,0.31007 0.19532,0.39258 l 0.39062,0.39258 h 0.002 c 0.0787,0.0786 0.2097,0.16377 0.36719,0.18164 0.15749,0.0179 0.30018,-0.036 0.39063,-0.0918 l 0.62695,-0.38476 c 0.0619,0.0285 0.12458,0.054 0.18945,0.0781 l 0.17383,0.7168 -0.01,-0.0527 c 0.0154,0.11649 0.0849,0.28837 0.22071,0.39453 0.1358,0.10617 0.28177,0.125 0.38281,0.125 h 0.58398 c 0.1013,0 0.25628,-0.0243 0.38868,-0.13086 0.13239,-0.10655 0.19123,-0.2576 0.21093,-0.35546 l 0.16993,-0.69532 c 0.065,-0.0244 0.12822,-0.0498 0.18945,-0.0781 l 0.62109,0.38281 c 0.0903,0.0558 0.23467,0.10973 0.39258,0.0918 0.15791,-0.0179 0.28869,-0.10314 0.36719,-0.18164 l 0.002,-0.002 0.39063,-0.39453 c 0.0842,-0.0774 0.18113,-0.22594 0.19531,-0.39062 0.0142,-0.16469 -0.0403,-0.28881 -0.084,-0.36524 l -0.004,-0.008 -0.39063,-0.63086 c 0.027,-0.0587 0.0503,-0.11874 0.0742,-0.18164 l 0.71485,-0.16992 -0.0508,0.01 c 0.11629,-0.0154 0.28639,-0.0848 0.39258,-0.2207 0.1062,-0.13586 0.12696,-0.28378 0.12696,-0.38476 v -0.57422 c 0,-0.0901 -0.0164,-0.24271 -0.125,-0.38282 -0.10861,-0.1401 -0.25456,-0.19202 -0.33789,-0.21289 l -0.004,-0.002 -0.70703,-0.16601 c -0.0264,-0.0686 -0.0484,-0.13332 -0.0762,-0.19336 l 0.37695,-0.61329 v -0.002 c 0.0522,-0.0819 0.11373,-0.20906 0.10351,-0.375 -0.0103,-0.16674 -0.10901,-0.32165 -0.19921,-0.4043 l -0.39649,-0.39257 0.002,0.004 c -0.0712,-0.0711 -0.19952,-0.16161 -0.35937,-0.18164 -0.15985,-0.02 -0.29383,0.0309 -0.375,0.0742 l -0.0137,0.008 -0.63086,0.38672 c -0.0625,-0.0287 -0.12755,-0.0542 -0.19531,-0.0801 l -0.16797,-0.68945 c -0.0182,-0.0973 -0.0731,-0.25008 -0.20703,-0.36133 -0.13392,-0.11125 -0.2935,-0.13672 -0.39454,-0.13672 h -0.37695 z m 0.29297,1.0625 0.21875,0.89844 0.29492,0.0723 c 0.19376,0.0477 0.38291,0.13158 0.54883,0.22461 l 0.25586,0.14453 0.76758,-0.47266 -0.46875,0.76172 0.13476,0.25391 c 0.0848,0.15916 0.17933,0.36395 0.22071,0.54882 l 0.0684,0.30469 0.88282,0.20899 -0.88282,0.21093 -0.0703,0.29883 c -0.0436,0.18305 -0.13125,0.38298 -0.21484,0.52344 l -0.1543,0.25977 0.48047,0.77734 -0.7793,-0.48242 -0.26367,0.16211 c -0.15023,0.0933 -0.3188,0.16906 -0.52344,0.21875 l -0.29687,0.0703 -0.21875,0.89844 -0.21875,-0.89844 -0.29883,-0.0723 c -0.1891,-0.0451 -0.38063,-0.12612 -0.51758,-0.21289 l -0.26367,-0.16797 -0.7832,0.48243 0.47461,-0.77344 -0.15039,-0.25781 c -0.0851,-0.14604 -0.16847,-0.3406 -0.21289,-0.52735 l -0.0703,-0.29883 -0.88281,-0.21093 0.88281,-0.20899 0.0684,-0.30469 c 0.0427,-0.19066 0.13552,-0.39454 0.2168,-0.54101 l 0.14258,-0.25781 -0.47461,-0.76368 0.7793,0.47852 0.26171,-0.16406 c 0.1112,-0.0693 0.3439,-0.16795 0.53907,-0.2168 l 0.29492,-0.0742 z"
         fill="#dedede"
         id="path2"
         style="stroke-width:1.24954;fill:#f0f0f0;fill-opacity:1" />
    </g>
    <circle
       cx="134"
       cy="502"
       r="1"
       fill="#dedede"
       id="circle2"
       style="stroke-width:1.24954;fill:#f0f0f0;fill-opacity:1" />
  </g>
  <metadata
     id="metadata3">
    <rdf:RDF>
      <cc:Work
         rdf:about="">
        <dc:title>Gnome Symbolic Icon Theme</dc:title>
      </cc:Work>
    </rdf:RDF>
  </metadata>
</svg>
