<?xml version="1.0" encoding="UTF-8" standalone="no"?>
<svg
   width="16px"
   height="16px"
   version="1.1"
   viewBox="0 0 16 16"
   id="svg1"
   sodipodi:docname="org.gnome.Settings-mouse-symbolic.svg"
   inkscape:version="1.4.2 (unknown)"
   xmlns:inkscape="http://www.inkscape.org/namespaces/inkscape"
   xmlns:sodipodi="http://sodipodi.sourceforge.net/DTD/sodipodi-0.dtd"
   xmlns="http://www.w3.org/2000/svg"
   xmlns:svg="http://www.w3.org/2000/svg">
  <defs
     id="defs1" />
  <sodipodi:namedview
     id="namedview1"
     pagecolor="#ffffff"
     bordercolor="#000000"
     borderopacity="0.25"
     inkscape:showpageshadow="2"
     inkscape:pageopacity="0.0"
     inkscape:pagecheckerboard="0"
     inkscape:deskcolor="#d1d1d1"
     inkscape:zoom="33.410795"
     inkscape:cx="4.3249494"
     inkscape:cy="9.3682295"
     inkscape:current-layer="svg1" />
  <g
     id="g1"
     transform="translate(1.5,2)"
     style="fill:#f3f3f3;fill-opacity:1">
    <path
       d="M 5.0000004,0 C 3.3380002,0 2,1.3380001 2,3.0000001 V 9.0000004 C 2,10.662 3.3380002,12 5.0000004,12 h 3 C 9.6620006,12 11,10.662 11,9.0000004 V 3.0000001 C 11,1.3380001 9.6620006,0 8.0000004,0 Z m 0,0.75000005 h 3 C 9.2464995,0.75000005 10.25,1.7535 10.25,3.0000001 V 9.0000004 C 10.25,10.246502 9.2464995,11.25 8.0000004,11.25 h -3 C 3.7535003,11.25 2.7500002,10.246502 2.7500002,9.0000004 V 3.0000001 c 0,-1.2465001 1.0035001,-2.25000005 2.2500002,-2.25000005 z"
       fill="#dedede"
       stop-color="#000000"
       stroke-linecap="round"
       stroke-linejoin="round"
       stroke-width="1.99999"
       id="path1"
       style="fill:#f3f3f3;fill-opacity:1" />
    <rect
       x="5.75"
       y="2.2500007"
       width="1.5000004"
       height="3.0000007"
       rx="0.99999994"
       ry="0.99999994"
       fill="#dedede"
       stop-color="#000000"
       stroke-linecap="round"
       stroke-linejoin="round"
       stroke-width="1.99999"
       id="rect1"
       style="fill:#f3f3f3;fill-opacity:1" />
  </g>
</svg>
