<?xml version="1.0" encoding="UTF-8" standalone="no"?>
<svg
   viewBox="0 0 16 16"
   version="1.1"
   id="svg1"
   sodipodi:docname="org.gnome.Settings-privacy-symbolic.svg"
   inkscape:version="1.4.2 (unknown)"
   xmlns:inkscape="http://www.inkscape.org/namespaces/inkscape"
   xmlns:sodipodi="http://sodipodi.sourceforge.net/DTD/sodipodi-0.dtd"
   xmlns="http://www.w3.org/2000/svg"
   xmlns:svg="http://www.w3.org/2000/svg">
  <defs
     id="defs1" />
  <sodipodi:namedview
     id="namedview1"
     pagecolor="#ffffff"
     bordercolor="#000000"
     borderopacity="0.25"
     inkscape:showpageshadow="2"
     inkscape:pageopacity="0.0"
     inkscape:pagecheckerboard="0"
     inkscape:deskcolor="#d1d1d1"
     inkscape:zoom="47.25"
     inkscape:cx="8.010582"
     inkscape:cy="8"
     inkscape:current-layer="svg1" />
  <path
     fill="#808080"
     d="m 10.925,5.9000001 a 1.245,1.245 0 0 0 -0.3,0.036 v -1.836 C 10.625,3.4400001 10.085,2.9 9.4250003,2.9 A 1.0125,1.0125 0 0 0 9.1250002,2.948 C 9.0110003,2.402 8.6510002,2 8.0750002,2 7.5470001,2 7.0370001,2.282 6.8750001,2.75 c -0.114,-0.036 -0.174,0 -0.3,0 -0.66,0 -1.2,0.54 -1.2,1.2000001 v 0.486 a 1.9380001,1.9380001 0 0 0 -0.375,-0.036 c -0.66,0 -1.125,0.54 -1.125,1.2 V 9.8000003 C 3.8750001,12.122 5.6030001,14 7.9250002,14 10.247,14 12.125,12.122 12.125,9.8000003 V 7.1000002 c 0,-0.66 -0.54,-1.2000001 -1.2,-1.2000001 z m 0.45,3.9000002 C 11.375,11.624 9.7490003,13.25 7.9250001,13.25 6.1010001,13.25 4.625,11.624 4.625,9.8000003 V 5.3525001 c 0,-0.168 0.207,-0.3525 0.375,-0.3525 0.168,0 0.375,0.1845 0.375,0.3525 V 8.0000002 H 6.1250001 V 3.8525001 c 0,-0.168 0.207,-0.3525 0.375,-0.3525 0.168,0 0.375,0.1845 0.375,0.3525 v 3.3975001 h 0.75 V 3.1025 c 0,-0.168 0.207,-0.3525 0.3750001,-0.3525 0.168,0 0.375,0.1845 0.375,0.3525 v 4.1475002 h 0.75 V 3.87875 c 0,-0.1679999 0.2070001,-0.3787499 0.375,-0.3787499 0.1680001,0 0.375,0.21075 0.375,0.3787499 v 5.0212503 c -0.8819999,0.354 -1.5,1.3499997 -1.5,2.0999997 h 0.75 A 1.5000001,1.5000001 0 0 1 10.625,9.5000003 V 6.8262501 c 0,-0.1679999 0.207,-0.3262499 0.375,-0.3262499 0.168,0 0.375,0.15825 0.375,0.3262499 z"
     id="path1"
     style="stroke-width:0.999984;fill:#f2f2f2;fill-opacity:1" />
</svg>
