<?xml version="1.0" encoding="UTF-8" standalone="no"?>
<svg
   width="16px"
   height="16px"
   version="1.1"
   viewBox="0 0 16 16"
   id="svg1"
   sodipodi:docname="org.gtk.gtk4.NodeEditor-symbolic.svg"
   inkscape:version="1.4.2 (unknown)"
   xmlns:inkscape="http://www.inkscape.org/namespaces/inkscape"
   xmlns:sodipodi="http://sodipodi.sourceforge.net/DTD/sodipodi-0.dtd"
   xmlns="http://www.w3.org/2000/svg"
   xmlns:svg="http://www.w3.org/2000/svg">
  <defs
     id="defs1" />
  <sodipodi:namedview
     id="namedview1"
     pagecolor="#ffffff"
     bordercolor="#000000"
     borderopacity="0.25"
     inkscape:showpageshadow="2"
     inkscape:pageopacity="0.0"
     inkscape:pagecheckerboard="0"
     inkscape:deskcolor="#d1d1d1"
     inkscape:zoom="47.25"
     inkscape:cx="8"
     inkscape:cy="8"
     inkscape:current-layer="svg1" />
  <path
     d="M 6.07143,2 C 5.7165219,2 5.4285724,2.287948 5.4285724,2.6428578 V 6.5 c 0,0.3549081 0.2879495,0.6428568 0.6428576,0.6428568 H 6.235496 L 5.3783524,8.8571425 H 2.6428673 C 2.287958,8.8571425 2.00001,9.1450914 2.00001,9.5 v 3.85714 C 2.00001,13.712058 2.287958,14 2.6428673,14 H 6.50001 c 0.3549082,0 0.6428569,-0.287942 0.6428569,-0.64286 V 9.5 c 0,-0.3549086 -0.2879487,-0.6428575 -0.6428569,-0.6428575 H 6.335944 L 7.1930869,7.1428568 h 1.613829 L 9.6640582,8.8571425 H 9.4999924 C 9.1450841,8.8571425 8.8571359,9.1450914 8.8571359,9.5 v 3.85714 C 8.8571359,13.712058 9.1450841,14 9.4999924,14 H 13.35713 c 0.35492,0 0.64286,-0.287942 0.64286,-0.64286 V 9.5 c 0,-0.3549086 -0.28794,-0.6428575 -0.64286,-0.6428575 H 10.62165 L 9.7645068,7.1428568 H 9.9285733 C 10.283481,7.1428568 10.571429,6.8549081 10.571429,6.5 V 2.6428578 C 10.571429,2.287948 10.283481,2 9.9285733,2 Z M 6.285716,2.8571422 H 9.7142868 V 6.285714 H 6.285716 Z M 2.857144,9.7142859 H 6.285716 V 13.14286 H 2.857144 Z m 6.8571428,0 H 13.14286 V 13.14286 H 9.7142868 Z"
     fill="#dedede"
     id="path1"
     style="stroke-width:0.999997" />
</svg>
