<?xml version="1.0" encoding="UTF-8" standalone="no"?>
<svg
   id="svg"
   version="1.1"
   viewBox="0 0 22 22"
   sodipodi:docname="org.gnome.Settings-removable-media-symbolic.svg"
   inkscape:version="1.4.2 (unknown)"
   width="22"
   height="22"
   xmlns:inkscape="http://www.inkscape.org/namespaces/inkscape"
   xmlns:sodipodi="http://sodipodi.sourceforge.net/DTD/sodipodi-0.dtd"
   xmlns="http://www.w3.org/2000/svg"
   xmlns:svg="http://www.w3.org/2000/svg"
   xmlns:rdf="http://www.w3.org/1999/02/22-rdf-syntax-ns#"
   xmlns:cc="http://creativecommons.org/ns#"
   xmlns:dc="http://purl.org/dc/elements/1.1/">
  <sodipodi:namedview
     id="namedview27"
     pagecolor="#201933"
     bordercolor="#000000"
     borderopacity="1"
     inkscape:pageshadow="2"
     inkscape:pageopacity="0.0"
     inkscape:pagecheckerboard="true"
     showgrid="true"
     inkscape:zoom="9.208459"
     inkscape:cx="11.348261"
     inkscape:cy="11.185368"
     inkscape:window-width="1920"
     inkscape:window-height="994"
     inkscape:window-x="0"
     inkscape:window-y="0"
     inkscape:window-maximized="1"
     inkscape:current-layer="svg"
     inkscape:showpageshadow="2"
     inkscape:deskcolor="#201933">
    <inkscape:grid
       type="xygrid"
       id="grid951"
       originx="-11.000011"
       originy="21.999989"
       spacingy="1"
       spacingx="1"
       units="px"
       visible="true" />
  </sodipodi:namedview>
  <metadata
     id="metadata47">
    <rdf:RDF>
      <cc:Work
         rdf:about="">
        <dc:format>image/svg+xml</dc:format>
        <dc:type
           rdf:resource="http://purl.org/dc/dcmitype/StillImage" />
      </cc:Work>
    </rdf:RDF>
  </metadata>
  <defs
     id="defs3">
    <style
       id="current-color-scheme"
       type="text/css">.ColorScheme-Text { color:#d3dae3; }
.ColorScheme-Highlight { color:#5294e2; }
.ColorScheme-ButtonBackground { color:#dedede; }
</style>
  </defs>
  <g
     id="22-22-device-notifier-3"
     style="fill:#d3dae3;fill-opacity:1">
    <rect
       style="opacity:0.00100002;fill:#d3dae3;fill-opacity:1"
       width="22"
       height="22"
       x="0"
       y="4.6325681e-08"
       id="rect2" />
    <path
       d="M 8.032967,3 C 7.476019,3 7.03297,3.530098 7.033,4.003856 v 2.996145 h 0.999997 l -3e-5,-2.000008 c 0,-0.999997 0,-0.999997 0.999996,-0.999997 l 3.008119,5e-5 c 0.991867,-5e-5 0.991867,-5e-5 0.991867,0.999947 l 3e-5,2.000008 h 0.999996 l -3e-5,-3.000005 C 14.032945,3.397669 13.614817,3 13.046849,3.00005 Z M 9.032993,5.000053 V 6.000049 H 10.03299 V 5.000053 Z m 1.999993,0 v 0.999996 h 0.999996 V 5.000053 Z"
       style="stroke-width:0.999994;fill-rule:evenodd;fill-opacity:1;fill:currentColor;solid-color:#d5c289"
       id="path4-7"
       sodipodi:nodetypes="ccccccccccccccccccccccc"
       class="ColorScheme-Text " />
    <path
       d="M 14.98,6.999998 H 6.02 c -0.5612249,0 -1.02,0.45 -1.02,1 v 10 C 5,18.55 5.4587751,19 6.02,19 h 8.96 C 15.541227,19 16,18.55 16,17.999998 v -10 c 0,-0.55 -0.458773,-1 -1.02,-1 z m 0.0098,10.600003 c 0,0.274998 -0.229607,0.5 -0.510208,0.5 H 6.5204188 c -0.280624,0 -0.5102079,-0.225004 -0.5102079,-0.500002 V 8.400001 c 0,-0.275 0.2295839,-0.6 0.5102079,-0.6 h 7.9591752 c 0.280601,0 0.510208,0.325 0.510208,0.6 z"
       id="path2-5"
       style="stroke-width:0.252537;fill-opacity:1;fill:currentColor;"
       sodipodi:nodetypes="ssssssssssssssssss"
       class="ColorScheme-Text" />
  </g>
</svg>
