<?xml version="1.0" encoding="UTF-8" standalone="no"?>
<svg
   width="16"
   height="16"
   version="1.1"
   id="svg3"
   sodipodi:docname="org.gnome.Settings-mobile-network-symbolic.svg"
   inkscape:version="1.4.2 (unknown)"
   xmlns:inkscape="http://www.inkscape.org/namespaces/inkscape"
   xmlns:sodipodi="http://sodipodi.sourceforge.net/DTD/sodipodi-0.dtd"
   xmlns="http://www.w3.org/2000/svg"
   xmlns:svg="http://www.w3.org/2000/svg">
  <defs
     id="defs3" />
  <sodipodi:namedview
     id="namedview3"
     pagecolor="#ffffff"
     bordercolor="#000000"
     borderopacity="0.25"
     inkscape:showpageshadow="2"
     inkscape:pageopacity="0.0"
     inkscape:pagecheckerboard="0"
     inkscape:deskcolor="#d1d1d1"
     inkscape:zoom="23.625"
     inkscape:cx="6.5396825"
     inkscape:cy="11.343915"
     inkscape:current-layer="svg3" />
  <g
     fill="#808080"
     id="g3"
     transform="matrix(0.79936,0,0,0.79936,2.0040006,2.0000077)"
     style="stroke-width:1.25101;fill:#f2f2f2;fill-opacity:1">
    <path
       d="m 1180.5,-266.012 a 7.48,7.48 0 0 0 -5.305,2.196 c -2.926,2.925 -2.926,7.683 0,10.609 l 0.707,-0.707 a 6.494,6.494 0 0 1 0,-9.195 6.497,6.497 0 0 1 9.198,0 6.494,6.494 0 0 1 0,9.195 l 0.707,0.707 c 2.926,-2.926 2.926,-7.684 0,-10.61 a 7.484,7.484 0 0 0 -5.307,-2.195 z"
       color="#000000"
       font-family="sans-serif"
       font-weight="400"
       overflow="visible"
       style="line-height:normal;font-variant-ligatures:normal;font-variant-position:normal;font-variant-caps:normal;font-variant-numeric:normal;font-variant-alternates:normal;font-feature-settings:normal;text-indent:0;text-align:start;text-decoration:none;text-decoration-line:none;text-decoration-style:solid;text-decoration-color:#000000;text-transform:none;text-orientation:mixed;shape-padding:0;isolation:auto;mix-blend-mode:normal;stroke-width:1.25943;fill:#f2f2f2;fill-opacity:1"
       transform="translate(-1173,266.012)"
       id="path1" />
    <path
       d="m 1180.5,-263.008 a 4.51,4.51 0 0 0 -3.184,1.305 4.45,4.45 0 0 0 0,6.32 l 0.705,-0.71 a 3.43,3.43 0 0 1 0,-4.9 3.523,3.523 0 0 1 4.957,0 3.43,3.43 0 0 1 0,4.9 l 0.706,0.71 a 4.45,4.45 0 0 0 0,-6.32 4.51,4.51 0 0 0 -3.184,-1.305 z"
       color="#000000"
       font-family="sans-serif"
       font-weight="400"
       overflow="visible"
       style="line-height:normal;font-variant-ligatures:normal;font-variant-position:normal;font-variant-caps:normal;font-variant-numeric:normal;font-variant-alternates:normal;font-feature-settings:normal;text-indent:0;text-align:start;text-decoration:none;text-decoration-line:none;text-decoration-style:solid;text-decoration-color:#000000;text-transform:none;text-orientation:mixed;shape-padding:0;isolation:auto;mix-blend-mode:normal;stroke-width:1.25943;fill:#f2f2f2;fill-opacity:1"
       transform="translate(-1173,266.012)"
       id="path2" />
    <path
       d="M 7.5,6.012 A 1.5,1.5 0 0 0 6,7.512 1.5,1.5 0 0 0 7,8.924 v 6.088 H 8 V 8.924 A 1.5,1.5 0 0 0 9,7.512 1.5,1.5 0 0 0 7.5,6.012 Z"
       id="path3"
       style="stroke-width:1.25101;fill:#f2f2f2;fill-opacity:1" />
  </g>
</svg>
