<?xml version="1.0" encoding="UTF-8" standalone="no"?>
<svg
   width="16px"
   height="16px"
   version="1.1"
   viewBox="0 0 16 16"
   id="svg1"
   sodipodi:docname="org.gnome.Settings-printers-symbolic.svg"
   inkscape:version="1.4.2 (unknown)"
   xmlns:inkscape="http://www.inkscape.org/namespaces/inkscape"
   xmlns:sodipodi="http://sodipodi.sourceforge.net/DTD/sodipodi-0.dtd"
   xmlns="http://www.w3.org/2000/svg"
   xmlns:svg="http://www.w3.org/2000/svg">
  <defs
     id="defs1" />
  <sodipodi:namedview
     id="namedview1"
     pagecolor="#ffffff"
     bordercolor="#000000"
     borderopacity="0.25"
     inkscape:showpageshadow="2"
     inkscape:pageopacity="0.0"
     inkscape:pagecheckerboard="0"
     inkscape:deskcolor="#d1d1d1"
     inkscape:zoom="47.25"
     inkscape:cx="8"
     inkscape:cy="9.6931217"
     inkscape:current-layer="svg1" />
  <g
     id="g1"
     transform="translate(1.1428577,1)">
    <circle
       cx="11.571427"
       cy="4.8571439"
       r="0.42857149"
       fill="#dedede"
       id="circle1"
       style="stroke-width:0.999997;fill:#f2f2f2;fill-opacity:1" />
    <path
       d="M 2.5714283,2.2857142 C 2.5714283,1.5756317 3.14706,1 3.8571427,1 H 9.8571419 C 10.5672,1 11.142858,1.5756317 11.142858,2.2857142 v 0.4285716 h 0.428567 c 1.183458,0 2.142858,0.9594 2.142858,2.1428569 v 4.2857154 c 0,0.7100583 -0.575657,1.2857169 -1.285708,1.2857169 h -1.285717 v 1.285708 C 11.142858,12.424342 10.5672,13 9.8571419,13 H 3.8571427 C 3.14706,13 2.5714283,12.424342 2.5714283,11.714283 V 10.428575 H 1.2857142 C 0.57563142,10.428575 0,9.8529164 0,9.1428581 V 4.8571427 C 0,3.6736858 0.9594,2.7142858 2.1428572,2.7142858 H 2.5714283 Z M 3.4285717,2.7142858 H 10.285717 V 2.2857142 c 0,-0.2366917 -0.191917,-0.4285717 -0.4285751,-0.4285717 H 3.8571427 c -0.236691,0 -0.428571,0.19188 -0.428571,0.4285717 z M 2.5714283,9.5714255 V 8.2857143 C 2.5714283,7.5756314 3.14706,7 3.8571427,7 H 9.8571419 C 10.5672,7 11.142858,7.5756314 11.142858,8.2857143 v 1.2857112 h 1.285717 c 0.23665,0 0.428567,-0.19188 0.428567,-0.4285674 V 4.8571427 c 0,-0.7100827 -0.575659,-1.2857144 -1.285717,-1.2857144 H 2.1428572 c -0.710083,0 -1.28571434,0.5756317 -1.28571434,1.2857144 v 4.2857154 c 0,0.2366874 0.19187964,0.4285674 0.42857134,0.4285674 z M 3.8571427,7.8571428 c -0.236691,0 -0.428571,0.19188 -0.428571,0.4285715 v 3.4285687 c 0,0.236659 0.19188,0.428575 0.428571,0.428575 h 5.9999992 c 0.2366581,0 0.4285751,-0.191916 0.4285751,-0.428575 V 8.2857143 c 0,-0.2366915 -0.191917,-0.4285715 -0.4285751,-0.4285715 z"
       fill="#dedede"
       id="path1"
       style="stroke-width:0.999997;fill:#f2f2f2;fill-opacity:1" />
  </g>
</svg>
