<?xml version="1.0" encoding="UTF-8" standalone="no"?>
<svg
   width="16"
   height="16"
   version="1.1"
   id="svg1"
   sodipodi:docname="org.gnome.Meld-symbolic.svg"
   inkscape:version="1.4.2 (unknown)"
   xmlns:inkscape="http://www.inkscape.org/namespaces/inkscape"
   xmlns:sodipodi="http://sodipodi.sourceforge.net/DTD/sodipodi-0.dtd"
   xmlns="http://www.w3.org/2000/svg"
   xmlns:svg="http://www.w3.org/2000/svg">
  <defs
     id="defs1" />
  <sodipodi:namedview
     id="namedview1"
     pagecolor="#ffffff"
     bordercolor="#000000"
     borderopacity="0.25"
     inkscape:showpageshadow="2"
     inkscape:pageopacity="0.0"
     inkscape:pagecheckerboard="0"
     inkscape:deskcolor="#d1d1d1"
     inkscape:zoom="23.625"
     inkscape:cx="7.2169312"
     inkscape:cy="9.2275132"
     inkscape:current-layer="svg1" />
  <path
     d="m 3.501583,1.9999701 c -0.8307004,0 -1.4994754,0.669 -1.4994754,1.5 v 4.5 1.5 c 0,2.4929999 2.00625,4.4999999 4.4983499,4.4999999 h 1.4994748 4.4983527 c 0.83069,0 1.499468,-0.669 1.499468,-1.5 v -0.07475 l 0.0051,-0.0051 V 9.7314114 8.5390625 c -0.0016,-0.00343 -0.0035,-0.00674 -0.0051,-0.010257 v -0.5288104 -1.5 c 0,-2.4929966 -2.006246,-4.4999972 -4.4983454,-4.4999972 h -1.4994 z m 3.6578246,0.75 h 0.8405247 1.3120503 c 2.1805484,0 3.9360784,1.7561246 3.9360784,3.9375 V 7.15622 C 13.103375,6.9548301 12.950513,6.75752 12.778021,6.5717455 12.143249,5.8881655 11.200316,5.31752 10.224267,5.1054201 9.9802472,5.0524101 9.7344812,5.0217801 9.4906476,5.0175279 8.75915,5.0047769 8.0482476,5.22848 7.4728476,5.7939279 7.2100547,6.0521372 6.9886923,6.4346827 6.91055,6.8266772 6.832415,7.2186348 6.896462,7.6197279 7.2063429,7.9165025 7.3046899,8.0107025 7.4512254,8.0905701 7.59878,8.1171879 7.7454723,8.1436479 7.8932827,8.1177476 8,8 7.88093,7.8917825 7.8547254,7.7407025 7.8813876,7.5927725 7.9082355,7.4438372 7.9884654,7.2979772 8.08346,7.1987301 8.3816748,6.8871655 8.7856175,6.8214725 9.1787598,6.8999 c 0.3931425,0.078435 0.7763244,0.3002101 1.0352992,0.5639626 0.566336,0.5768026 0.790201,1.2899253 0.777528,2.0229748 -0.0043,0.2443418 -0.03479,0.4909119 -0.08786,0.7353516 -0.212256,0.977773 -0.784504,1.921801 -1.468726,2.557655 -0.18642,0.173229 -0.3849678,0.3252 -0.5871904,0.470204 h -0.8478 -1.3120496 c -2.1805508,0 -3.9360753,-1.756118 -3.9360753,-3.9374955 V 8.8335501 c 0.1464906,0.2051322 0.3018679,0.405735 0.4773679,0.5947273 0.6347632,0.6835806 1.5777,1.2542276 2.55375,1.4663246 0.97605,0.212048 1.9856247,0.06542 2.752875,-0.688479 C 8.7986748,9.9479142 9.0200376,9.5653701 9.0981798,9.1733749 9.1763148,8.7814173 9.1108047,8.3803251 8.8009254,8.0835501 8.7025776,7.9893501 8.5575054,7.9094825 8.4099576,7.8828652 8.26331,7.8564125 8.1154476,7.8824148 8.0087375,8.0000525 8.1278,8.1082852 8.1540123,8.2593348 8.12735,8.4072801 8.1005021,8.5562225 8.02028,8.7020749 7.9252776,8.8013224 7.6270476,9.1129023 7.2231347,9.1785801 6.8299776,9.1001525 6.4368202,9.0217173 6.0537276,8.7999573 5.7946775,8.5361901 5.2283375,7.9593801 5.0044776,7.2462654 5.0171522,6.5132147 5.0213522,6.2688725 5.0519482,6.0223028 5.1050076,5.7778628 5.3172722,4.8000879 5.8880076,3.8560633 6.5722322,3.2202124 6.7586522,3.0469769 6.9571923,2.8950125 7.159423,2.7500001 Z"
     color="#000000"
     fill="#dedede"
     overflow="visible"
     stroke-width="0.999808"
     id="path1"
     style="fill:#f2f2f2;fill-opacity:1" />
</svg>
