<?xml version="1.0" encoding="UTF-8" standalone="no"?>
<svg
   width="16px"
   height="16px"
   version="1.1"
   viewBox="0 0 16 16"
   id="svg4"
   sodipodi:docname="org.gnome.Connections-symbolic.svg"
   inkscape:version="1.4.2 (unknown)"
   xmlns:inkscape="http://www.inkscape.org/namespaces/inkscape"
   xmlns:sodipodi="http://sodipodi.sourceforge.net/DTD/sodipodi-0.dtd"
   xmlns="http://www.w3.org/2000/svg"
   xmlns:svg="http://www.w3.org/2000/svg">
  <defs
     id="defs4" />
  <sodipodi:namedview
     id="namedview4"
     pagecolor="#ffffff"
     bordercolor="#000000"
     borderopacity="0.25"
     inkscape:showpageshadow="2"
     inkscape:pageopacity="0.0"
     inkscape:pagecheckerboard="0"
     inkscape:deskcolor="#d1d1d1"
     inkscape:zoom="23.625"
     inkscape:cx="8.8888889"
     inkscape:cy="9.3968254"
     inkscape:current-layer="svg4" />
  <g
     transform="matrix(0.74999879,0,0,0.74999879,2.0000247,2)"
     fill="#dedede"
     id="g4"
     style="stroke-width:1.16668;fill:#f2f2f2;fill-opacity:1">
    <path
       d="m 0.81641,0 5.2266,15.672 3.4062,-2.918 2.2148,2.6562 c 0.57813,0.69531 1.6055,0.78906 2.2969,0.21094 0.69531,-0.57812 0.78906,-1.6055 0.21094,-2.2969 l -2.2461,-2.6953 3.2578,-2.793 -1.1836,-0.64844 V 8 h -2 V 6.0977 L 11.82026,6.000044 h -5.8203 v -2 h -2 v -2 h 0.48438 z m 5.1836,4 h 2.1484 L 6.00001,2.8281 Z"
       id="path1"
       style="stroke-width:1.16668;fill:#f2f2f2;fill-opacity:1" />
    <path
       d="m 8,2 h 2 V 4 H 8 Z"
       id="path2"
       style="stroke-width:1.16668;fill:#f2f2f2;fill-opacity:1" />
    <path
       d="m 12,4 h 2 v 2 h -2 z"
       id="path3"
       style="stroke-width:1.16668;fill:#f2f2f2;fill-opacity:1" />
    <path
       d="M 6,4 H 8 V 6 H 6 Z"
       id="path4"
       style="stroke-width:1.16668;fill:#f2f2f2;fill-opacity:1" />
  </g>
</svg>
