<?xml version="1.0" encoding="UTF-8" standalone="no"?>
<svg
   width="16px"
   height="16px"
   version="1.1"
   viewBox="0 0 16 16"
   id="svg3"
   sodipodi:docname="org.gtk.PrintEditor4-symbolic.svg"
   inkscape:version="1.4.2 (unknown)"
   xmlns:inkscape="http://www.inkscape.org/namespaces/inkscape"
   xmlns:sodipodi="http://sodipodi.sourceforge.net/DTD/sodipodi-0.dtd"
   xmlns="http://www.w3.org/2000/svg"
   xmlns:svg="http://www.w3.org/2000/svg">
  <defs
     id="defs3" />
  <sodipodi:namedview
     id="namedview3"
     pagecolor="#ffffff"
     bordercolor="#000000"
     borderopacity="0.25"
     inkscape:showpageshadow="2"
     inkscape:pageopacity="0.0"
     inkscape:pagecheckerboard="0"
     inkscape:deskcolor="#d1d1d1"
     inkscape:zoom="23.625"
     inkscape:cx="9.6296296"
     inkscape:cy="8"
     inkscape:current-layer="svg3" />
  <filter
     id="a"
     x="0"
     y="0"
     width="1"
     height="1">
    <feColorMatrix
       in="SourceGraphic"
       values="0 0 0 0 1 0 0 0 0 1 0 0 0 0 1 0 0 0 1 0"
       id="feColorMatrix1" />
  </filter>
  <g
     id="g3"
     transform="translate(1.280002,1.7)"
     style="fill:#f2f2f2;fill-opacity:1">
    <path
       d="m 3.78,0.83999998 c -0.6958809,0 -1.26,0.56411882 -1.26,1.25999962 V 2.52 H 2.0999996 C 0.940212,2.52 0,3.460212 0,4.6199997 V 8.82 c 0,0.6958535 0.56411879,1.26 1.26,1.26 h 1.26 v 1.26 c 0,0.695852 0.5641191,1.26 1.26,1.26 h 5.8799976 c 0.6958624,0 1.2599984,-0.564148 1.2599984,-1.26 v -1.26 h 1.26 c 0.695864,0 1.26,-0.5641465 1.26,-1.26 V 4.6199997 c 0,-0.7057675 -0.348704,-1.328796 -0.882664,-1.7095681 l -0.607043,0.6070348 c 0.38745,0.2149137 0.649693,0.6280344 0.649693,1.1025 v 4.1999983 c 0,0.2319568 -0.188072,0.420002 -0.420003,0.420002 h -1.26 V 7.9799662 c 0,-0.695881 -0.564137,-1.2600001 -1.2599976,-1.2600001 H 8.7478281 L 7.9078269,7.5599662 h 1.7521545 c 0.2319281,0 0.4200006,0.1880424 0.4200006,0.42 v 3.3599968 c 0,0.231932 -0.1880725,0.420004 -0.4200006,0.420004 H 3.7799829 c -0.2319571,0 -0.4199994,-0.188072 -0.4199994,-0.420004 V 7.9799662 c 0,-0.2319576 0.1880423,-0.42 0.4199994,-0.42 H 4.1999832 A 0.84008397,0.84008397 0 0 1 4.446078,6.9660612 L 4.6921725,6.7199661 H 3.780017 c -0.6958817,0 -1.2599998,0.5641191 -1.2599998,1.2600001 v 1.2600005 h -1.26 c -0.231958,0 -0.4200004,-0.1880452 -0.4200004,-0.420002 V 4.6199664 c 0,-0.695881 0.5641192,-1.26 1.26,-1.26 H 8.0521725 L 8.8921713,2.5199668 H 3.3600168 V 2.0999664 c 0,-0.231958 0.1880424,-0.4200004 0.4200002,-0.4200004 h 5.879998 c 0.022285,0 0.044275,0.00316 0.065635,0.00659 L 10.360567,1.0516077 C 10.160207,0.91728815 9.9193411,0.8399664 9.6600245,0.8399664 H 3.7800252 Z"
       fill="#dedede"
       id="path1"
       style="stroke-width:0.999994;fill:#f2f2f2;fill-opacity:1" />
    <path
       d="M 5.04,8.3999998 H 5.8799997 L 13.439996,0.83999998 12.6,0 5.04,7.56 Z"
       fill="#dedede"
       id="path2"
       style="stroke-width:0.999994;fill:#f2f2f2;fill-opacity:1" />
    <path
       d="M 5.04,8.3999998 H 5.8799997 L 13.439996,0.83999998 12.6,0 5.04,7.56 Z"
       color="#000000"
       fill="#dedede"
       stroke-linecap="round"
       stroke-linejoin="round"
       style="stroke-width:0.999994;-inkscape-stroke:none;fill:#f2f2f2;fill-opacity:1"
       id="path3" />
  </g>
</svg>
