<?xml version="1.0" encoding="UTF-8" standalone="no"?>
<svg
   width="16px"
   height="16px"
   version="1.1"
   viewBox="0 0 16 16"
   id="svg3"
   sodipodi:docname="org.gnome.Settings-appearance-symbolic.svg"
   inkscape:version="1.4.2 (unknown)"
   xmlns:inkscape="http://www.inkscape.org/namespaces/inkscape"
   xmlns:sodipodi="http://sodipodi.sourceforge.net/DTD/sodipodi-0.dtd"
   xmlns="http://www.w3.org/2000/svg"
   xmlns:svg="http://www.w3.org/2000/svg">
  <defs
     id="defs3" />
  <sodipodi:namedview
     id="namedview3"
     pagecolor="#ffffff"
     bordercolor="#000000"
     borderopacity="0.25"
     inkscape:showpageshadow="2"
     inkscape:pageopacity="0.0"
     inkscape:pagecheckerboard="0"
     inkscape:deskcolor="#d1d1d1"
     inkscape:zoom="23.625"
     inkscape:cx="10.306878"
     inkscape:cy="8.2116402"
     inkscape:current-layer="svg3" />
  <g
     id="g3"
     transform="translate(1.600005,2)"
     style="fill:#f2f2f2;fill-opacity:1">
    <path
       d="M 11.43439,0 8.3609581,3.07344 c 0.211456,0.1641432 0.4014854,0.354168 0.5656285,0.5656246 L 12.56562,2.4e-5 H 11.43435 Z M 6.4093599,3.1999992 c -1.3250398,0 -2.3999994,1.0718402 -2.3999994,2.4000002 v 2.4000001 h 2.3999994 c 1.3281598,0.0063 2.4000036,-1.0750395 2.4000036,-2.4000001 0,-1.32816 -1.0718438,-2.4000002 -2.4000036,-2.4000002 z m -0.00936,0.8000013 A 1.600001,1.600001 0 0 1 7.999984,5.5999994 1.600001,1.600001 0 0 1 6.399985,7.2 H 4.7999842 V 5.5999994 A 1.600001,1.600001 0 0 1 6.399984,4.0000005 Z"
       fill="#dedede"
       id="path1"
       style="stroke-width:0.999997;fill:#f2f2f2;fill-opacity:1" />
    <path
       d="M 3.6,11.20001 H 9.1999942 C 9.4216068,11.20001 9.6,11.3784 9.6,11.59999 9.6,11.82161 9.4216068,12 9.1999942,12 H 3.6 C 3.3784007,12 3.1999992,11.82161 3.1999992,11.59999 3.1999992,11.3784 3.3784007,11.20001 3.6,11.20001 Z"
       fill="#dedede"
       id="path2"
       style="stroke-width:0.999997;fill:#f2f2f2;fill-opacity:1" />
    <path
       d="M 1.600001,1.600001 C 0.71359994,1.600001 0,2.3136 0,3.1999992 V 8.8000035 C 0,9.6864 0.71359994,10.39999 1.600001,10.39999 h 9.600009 c 0.88639,0 1.59998,-0.71359 1.59998,-1.5999865 V 3.1999992 C 12.79999,2.574696 12.44382,2.03688 11.92344,1.773439 L 11.29062,2.4062569 C 11.69039,2.451411 12,2.7877751 12,3.2000087 V 8.8000122 C 12,9.243203 11.64319,9.6000095 11.20001,9.6000095 H 1.600001 C 1.1568,9.6000095 0.79999995,9.243203 0.79999995,8.8000122 V 3.2000087 C 0.79999995,2.756808 1.1568,2.400007 1.600001,2.400007 H 7.9031197 L 8.70312,1.600008 H 1.600001 Z"
       fill="#dedede"
       id="path3"
       style="stroke-width:0.999997;fill:#f2f2f2;fill-opacity:1" />
  </g>
</svg>
