<?xml version="1.0" encoding="UTF-8" standalone="no"?>
<svg
   version="1.1"
   viewBox="0 0 16 16"
   id="svg1"
   sodipodi:docname="org.gnome.Calendar.Devel-symbolic.svg"
   inkscape:version="1.4.2 (unknown)"
   xmlns:inkscape="http://www.inkscape.org/namespaces/inkscape"
   xmlns:sodipodi="http://sodipodi.sourceforge.net/DTD/sodipodi-0.dtd"
   xmlns="http://www.w3.org/2000/svg"
   xmlns:svg="http://www.w3.org/2000/svg">
  <defs
     id="defs1" />
  <sodipodi:namedview
     id="namedview1"
     pagecolor="#ffffff"
     bordercolor="#000000"
     borderopacity="0.25"
     inkscape:showpageshadow="2"
     inkscape:pageopacity="0.0"
     inkscape:pagecheckerboard="0"
     inkscape:deskcolor="#d1d1d1"
     inkscape:zoom="23.625"
     inkscape:cx="7.5978836"
     inkscape:cy="5.0793651"
     inkscape:current-layer="svg1" />
  <path
     d="M 4.571428,2 C 3.1468578,2 2,3.1468578 2,4.571428 v 6.85715 C 2,12.85314 3.1468578,14 4.571428,14 h 6.85715 C 12.85314,14 14,12.85314 14,11.428578 V 4.571428 C 14,3.1468578 12.85314,2 11.428578,2 Z m 0,0.8571422 h 6.85715 c 0.949702,0 1.714282,0.7645718 1.714282,1.7142858 H 2.8571422 c 0,-0.949714 0.7645718,-1.7142858 1.7142858,-1.7142858 z M 2.8571422,5.428572 H 13.14286 v 6.000006 c 0,0.949702 -0.76458,1.714282 -1.714282,1.714282 h -6.85715 c -0.949714,0 -1.7142858,-0.76458 -1.7142858,-1.714282 z M 8,7.1428568 C 7.5251425,7.1428568 7.1428568,7.5251425 7.1428568,8 7.1428568,8.4748568 7.5251425,8.8571425 8,8.8571425 8.4748568,8.8571425 8.8571425,8.4748568 8.8571425,8 8.8571425,7.5251425 8.4748568,7.1428568 8,7.1428568 Z m 2.571423,0 c -0.474849,0 -0.8571371,0.3822857 -0.8571371,0.8571432 0,0.4748568 0.3822881,0.8571425 0.8571371,0.8571425 0.474857,0 0.857155,-0.3822857 0.857155,-0.8571425 0,-0.4748575 -0.382298,-0.8571432 -0.857155,-0.8571432 z M 5.428572,9.7142859 c -0.474858,0 -0.857144,0.3822881 -0.857144,0.8571371 0,0.474857 0.382286,0.857155 0.857144,0.857155 0.474856,0 0.857142,-0.382298 0.857142,-0.857155 0,-0.474849 -0.382286,-0.8571371 -0.857142,-0.8571371 z m 2.571428,0 c -0.4748575,0 -0.8571432,0.3822881 -0.8571432,0.8571371 0,0.474857 0.3822857,0.857155 0.8571432,0.857155 0.4748568,0 0.8571425,-0.382298 0.8571425,-0.857155 C 8.8571425,10.096574 8.4748568,9.7142859 8,9.7142859 Z m 2.571423,0 c -0.474849,0 -0.8571371,0.3822881 -0.8571371,0.8571371 0,0.474857 0.3822881,0.857155 0.8571371,0.857155 0.474857,0 0.857155,-0.382298 0.857155,-0.857155 0,-0.474849 -0.382298,-0.8571371 -0.857155,-0.8571371 z"
     fill="#dedede"
     id="path1"
     style="stroke-width:0.999997" />
</svg>
