<?xml version="1.0" encoding="UTF-8" standalone="no"?>
<svg
   width="16px"
   height="16px"
   version="1.1"
   viewBox="0 0 16 16"
   id="svg1"
   sodipodi:docname="org.gnome.Settings-online-accounts-symbolic.svg"
   inkscape:version="1.4.2 (unknown)"
   xmlns:inkscape="http://www.inkscape.org/namespaces/inkscape"
   xmlns:sodipodi="http://sodipodi.sourceforge.net/DTD/sodipodi-0.dtd"
   xmlns="http://www.w3.org/2000/svg"
   xmlns:svg="http://www.w3.org/2000/svg">
  <defs
     id="defs1" />
  <sodipodi:namedview
     id="namedview1"
     pagecolor="#ffffff"
     bordercolor="#000000"
     borderopacity="0.25"
     inkscape:showpageshadow="2"
     inkscape:pageopacity="0.0"
     inkscape:pagecheckerboard="0"
     inkscape:deskcolor="#d1d1d1"
     inkscape:zoom="47.25"
     inkscape:cx="8.010582"
     inkscape:cy="11.386243"
     inkscape:current-layer="svg1" />
  <path
     d="M 8.0000002,2 C 4.6907002,2 2,4.6907002 2,8.0000002 2,11.3093 4.6907002,14 8.0000002,14 A 0.37500003,0.37500003 0 0 0 8.3750001,13.625 0.37500003,0.37500003 0 0 0 8.0000002,13.25 C 5.0960754,13.25 2.75,10.903928 2.75,8.0000002 2.75,5.0960754 5.0960754,2.75 8.0000002,2.75 10.903928,2.75 13.25,5.0960754 13.25,8.0000002 v 1.125 C 13.25,9.7482497 12.748246,10.25 12.125,10.25 11.501752,10.25 11,9.7482497 11,9.1250002 v -1.125 a 3.0000002,3.0000002 0 0 0 -2.9999998,-3 3.0000002,3.0000002 0 0 0 -3,3 3.0000002,3.0000002 0 0 0 3,2.9999998 3.0000002,3.0000002 0 0 0 2.3803518,-1.1864997 C 10.653881,10.509336 11.329777,11 12.125,11 13.163754,11 14,10.163752 14,9.1250002 v -1.125 C 14,4.6907002 11.3093,2 8.0000002,2 Z m 0,3.7500003 A 2.2500002,2.2500002 0 0 1 10.25,8.0000002 2.2500002,2.2500002 0 0 1 8.0000002,10.25 2.2500002,2.2500002 0 0 1 5.7500003,8.0000002 2.2500002,2.2500002 0 0 1 8.0000002,5.7500003 Z"
     fill="#dedede"
     id="path1"
     style="stroke-width:0.999987;fill:#f2f2f2;fill-opacity:1" />
</svg>
