<?xml version="1.0" encoding="UTF-8" standalone="no"?>
<svg
   width="16px"
   height="16px"
   version="1.1"
   viewBox="0 0 16 16"
   id="svg1"
   sodipodi:docname="org.gnome.Settings-location-symbolic.svg"
   inkscape:version="1.4.2 (unknown)"
   xmlns:inkscape="http://www.inkscape.org/namespaces/inkscape"
   xmlns:sodipodi="http://sodipodi.sourceforge.net/DTD/sodipodi-0.dtd"
   xmlns="http://www.w3.org/2000/svg"
   xmlns:svg="http://www.w3.org/2000/svg">
  <defs
     id="defs1" />
  <sodipodi:namedview
     id="namedview1"
     pagecolor="#ffffff"
     bordercolor="#000000"
     borderopacity="0.25"
     inkscape:showpageshadow="2"
     inkscape:pageopacity="0.0"
     inkscape:pagecheckerboard="0"
     inkscape:deskcolor="#d1d1d1"
     inkscape:zoom="33.410795"
     inkscape:cx="10.505586"
     inkscape:cy="8.3206639"
     inkscape:current-layer="svg1" />
  <path
     d="m 7.9999621,2.0000193 c -2.5092687,0 -4.4999622,2.0028083 -4.4999622,4.3845763 0,0.1691209 0.01532,0.3089412 0.026367,0.426138 0.012366,0.1312834 0.026951,0.2692284 0.05097,0.4115537 0.4566747,2.7691048 2.3098315,4.6910277 3.7652091,6.1279717 l 0.6574184,0.649737 0.6574175,-0.649737 C 10.112405,11.913733 11.966027,9.9940477 12.422595,7.2222873 v -0.00321 c 0.02092,-0.124257 0.03975,-0.261646 0.05103,-0.4083185 v -0.00652 C 12.484634,6.6881119 12.5,6.5511377 12.5,6.3845798 12.5,4.002812 10.509303,2.0000037 8.0000352,2.0000037 Z m 0,0.8295952 c 1.9884431,0 3.5999689,1.5916613 3.5999689,3.5549811 0,0.1221826 -0.0116,0.235439 -0.02281,0.3548425 -0.0081,0.1194037 -0.02422,0.2382184 -0.04393,0.3548428 C 11.122522,9.5935195 9.4399397,11.363048 7.9999516,12.784807 6.5599562,11.363048 4.8774202,9.590698 4.4667539,7.0942809 4.4470672,6.9776481 4.4340595,6.8588418 4.4228096,6.7394381 4.4115596,6.6200346 4.3999577,6.5067782 4.3999577,6.3845956 c 0,-1.9632369 1.6115264,-3.5549811 3.5999696,-3.5549811 z"
     fill="#dedede"
     id="path1"
     style="stroke-width:1;fill:#f1f1f1;fill-opacity:1" />
  <circle
     cx="8"
     cy="6.0758171"
     r="0.82959503"
     fill="#dedede"
     id="circle1"
     style="stroke-width:1;fill:#f2f2f2;fill-opacity:1" />
</svg>
