<?xml version="1.0" encoding="UTF-8" standalone="no"?>
<svg
   width="16"
   height="16"
   version="1.1"
   id="svg1"
   sodipodi:docname="org.gnome.Settings-network-symbolic.svg"
   inkscape:version="1.4.2 (unknown)"
   xmlns:inkscape="http://www.inkscape.org/namespaces/inkscape"
   xmlns:sodipodi="http://sodipodi.sourceforge.net/DTD/sodipodi-0.dtd"
   xmlns="http://www.w3.org/2000/svg"
   xmlns:svg="http://www.w3.org/2000/svg">
  <defs
     id="defs1" />
  <sodipodi:namedview
     id="namedview1"
     pagecolor="#ffffff"
     bordercolor="#000000"
     borderopacity="0.25"
     inkscape:showpageshadow="2"
     inkscape:pageopacity="0.0"
     inkscape:pagecheckerboard="0"
     inkscape:deskcolor="#d1d1d1"
     inkscape:zoom="47.25"
     inkscape:cx="8"
     inkscape:cy="8"
     inkscape:current-layer="svg1" />
  <path
     d="m 4.5714281,2 c -0.564,0 -1.011428,0.051429 -1.386,0.1928581 a 1.611428,1.611428 0 0 0 -0.855428,0.717428 C 1.9734286,3.5548578 2.0128581,4.3451426 2,5.4234281 V 6.2291427 A 2.4720001,2.4720001 0 0 1 2.8571423,5.6831426 V 5.4285722 c 0.012858,-1.08 0.049716,-1.7888581 0.2228578,-2.1025721 0.085714,-0.157714 0.183428,-0.2485721 0.406286,-0.331714 0.2228564,-0.083144 0.577714,-0.1371438 1.085142,-0.1371438 l 6.8571509,0.0052 c 0.507421,0 0.862282,0.054 1.085142,0.1371429 0.222858,0.084 0.319702,0.1748571 0.406279,0.3317142 0.17314,0.3137143 0.21,1.0225717 0.222861,2.1025717 v 0.252 c 0.324,0.12 0.612,0.3085713 0.857139,0.5451427 V 5.4285722 C 13.987143,4.3502861 14.025715,3.5608578 13.67,2.915428 A 1.611428,1.611428 0 0 0 12.814579,2.1971421 c -0.375439,-0.14057 -0.822858,-0.192 -1.386,-0.192 z m 5.9999959,2.5714281 v 0.8571441 h 1.714297 V 4.5714281 Z M 4.5594281,6.2857142 c -0.565714,0 -1.014,0.051423 -1.391142,0.1928579 A 1.6165721,1.6165721 0 0 0 2.309428,7.1968571 C 2.06,7.6477142 2.015428,8.2142863 2,8.8571429 c 0.015429,0.6428574 0.06,1.2094311 0.309428,1.6611401 0.1911441,0.333437 0.4962861,0.587997 0.8588581,0.717438 0.377142,0.141419 0.825428,0.192858 1.391142,0.192858 l 2.583429,0.002 V 12.28601 H 8.8571429 V 11.432 l 2.5834361,0.002 c 0.565701,0 1.014,-0.0514 1.391142,-0.192855 a 1.6165721,1.6165721 0 0 0 0.858858,-0.718424 C 13.940861,10.07 13.984579,9.5017144 14,8.8571429 13.984577,8.2177143 13.94,7.6520003 13.690579,7.2011428 A 1.6165721,1.6165721 0 0 0 12.831721,6.4828572 c -0.377142,-0.140571 -0.826298,-0.192 -1.391142,-0.192 z m 0,0.8571429 6.8811509,0.0052 c 0.509142,0 0.865701,0.054 1.089421,0.1371431 0.223721,0.084 0.321423,0.174857 0.408861,0.331714 0.117419,0.2125716 0.162,0.672 0.188562,1.240286 -0.0266,0.5742857 -0.07022,1.0371425 -0.188562,1.2505738 -0.08741,0.156851 -0.18514,0.247706 -0.408861,0.331706 -0.22286,0.08318 -0.580279,0.137143 -1.089421,0.137143 l -6.8811509,-0.0056 c -0.509142,7.8e-5 -0.865714,-0.05392 -1.089428,-0.137065 -0.223714,-0.08283 -0.322286,-0.173684 -0.4088578,-0.331394 -0.1182844,-0.2134315 -0.162,-0.6745737 -0.1885702,-1.2454311 0.02657,-0.5708566 0.070286,-1.0320001 0.1885702,-1.2454287 0.085716,-0.157714 0.1851438,-0.2485714 0.4088578,-0.331714 0.2228577,-0.083143 0.580286,-0.1371431 1.089428,-0.1371431 z m 6.0119959,1.7142858 v 0.8571434 h 1.714297 V 8.8571429 Z M 2,13.142861 V 14 h 12 v -0.857139 z"
     style="line-height:normal;text-indent:0;text-align:start;text-decoration:none;text-decoration-line:none;text-decoration-style:solid;text-decoration-color:#000000;text-transform:none;white-space:normal;isolation:auto;mix-blend-mode:normal;solid-color:#000000;solid-opacity:1;fill:#f2f2f2;stroke-width:1.00182;marker:none;fill-opacity:1"
     id="path1" />
</svg>
