<?xml version="1.0" encoding="UTF-8" standalone="no"?>
<svg
   width="16px"
   height="16px"
   version="1.1"
   viewBox="0 0 16 16"
   id="svg3"
   sodipodi:docname="org.gnome.Settings-diagnostics-symbolic.svg"
   inkscape:version="1.4.2 (unknown)"
   xmlns:inkscape="http://www.inkscape.org/namespaces/inkscape"
   xmlns:sodipodi="http://sodipodi.sourceforge.net/DTD/sodipodi-0.dtd"
   xmlns="http://www.w3.org/2000/svg"
   xmlns:svg="http://www.w3.org/2000/svg">
  <defs
     id="defs3" />
  <sodipodi:namedview
     id="namedview3"
     pagecolor="#ffffff"
     bordercolor="#000000"
     borderopacity="0.25"
     inkscape:showpageshadow="2"
     inkscape:pageopacity="0.0"
     inkscape:pagecheckerboard="0"
     inkscape:deskcolor="#d1d1d1"
     inkscape:zoom="33.410795"
     inkscape:cx="9.6076731"
     inkscape:cy="8.7995511"
     inkscape:current-layer="svg3" />
  <g
     id="g3"
     transform="matrix(0.92307692,0,0,0.92307692,0.61536156,0.15384618)"
     style="stroke-width:1.08332;fill:#f1f1f1;fill-opacity:1">
    <path
       d="m 4.5,14 h 7 c 0.277,0 0.5,0.223 0.5,0.5 0,0.277 -0.223,0.5 -0.5,0.5 h -7 C 4.223,15 4,14.777 4,14.5 4,14.223 4.223,14 4.5,14 Z"
       fill="#dedede"
       id="path1"
       style="stroke-width:1.08332;fill:#f1f1f1;fill-opacity:1" />
    <path
       d="M 2,2 C 0.892,2 0,2.892 0,4 v 7 c 0,1.108 0.892,2 2,2 h 10.879 l -0.99805,-1 h -9.8809 c -0.554,0 -1,-0.446 -1,-1 V 4 c 0,-0.554 0.446,-1 1,-1 h 7.4219 4.5781 c 0.554,0 1,0.446 1,1 v 6.8789 l 0.85938,0.85938 C 15.949871,11.50978 16.00005,11.26143 16.00005,11 V 4 c 0,-1.108 -0.892,-2 -2,-2 h -12 z"
       fill="#dedede"
       id="path2"
       style="stroke-width:1.08332;fill:#f1f1f1;fill-opacity:1" />
    <path
       d="m 9.25,4.0098 a 3.5,3.5 0 0 0 -2.2246,1.0156 3.5,3.5 0 0 0 0,4.9492 3.5,3.5 0 0 0 4.5703,0.32812 h 0.002 l 3.2051,3.207 c 0.19587,0.19587 0.51116,0.19587 0.70703,0 0.19587,-0.19587 0.19587,-0.51116 0,-0.70703 l -3.2071,-3.207 a 3.5,3.5 0 0 0 -0.32812,-4.5703 3.5,3.5 0 0 0 -2.7246,-1.0156 z m 0.03125,1 a 2.5,2.5 0 0 1 1.9863,0.72266 2.5,2.5 0 0 1 0,3.5352 2.5,2.5 0 0 1 -3.5352,0 2.5,2.5 0 0 1 0,-3.5352 2.5,2.5 0 0 1 1.5488,-0.72266 z"
       color="#000000"
       fill="#dedede"
       stroke-linecap="round"
       stroke-linejoin="round"
       stroke-width="2.16667"
       style="-inkscape-stroke:none;fill:#f1f1f1;fill-opacity:1"
       id="path3" />
  </g>
</svg>
