<?xml version="1.0" encoding="UTF-8" standalone="no"?>
<svg
   width="16"
   height="16.031"
   version="1.1"
   id="svg5"
   sodipodi:docname="org.gtk.WidgetFactory4-symbolic.svg"
   inkscape:version="1.4.2 (unknown)"
   xmlns:inkscape="http://www.inkscape.org/namespaces/inkscape"
   xmlns:sodipodi="http://sodipodi.sourceforge.net/DTD/sodipodi-0.dtd"
   xmlns="http://www.w3.org/2000/svg"
   xmlns:svg="http://www.w3.org/2000/svg"
   xmlns:rdf="http://www.w3.org/1999/02/22-rdf-syntax-ns#"
   xmlns:cc="http://creativecommons.org/ns#"
   xmlns:dc="http://purl.org/dc/elements/1.1/">
  <defs
     id="defs5" />
  <sodipodi:namedview
     id="namedview5"
     pagecolor="#ffffff"
     bordercolor="#000000"
     borderopacity="0.25"
     inkscape:showpageshadow="2"
     inkscape:pageopacity="0.0"
     inkscape:pagecheckerboard="0"
     inkscape:deskcolor="#d1d1d1"
     inkscape:zoom="23.579315"
     inkscape:cx="7.4853744"
     inkscape:cy="12.341325"
     inkscape:current-layer="svg5" />
  <title
     id="title1">Gnome Symbolic Icon Theme</title>
  <g
     transform="matrix(0.79833945,0,0,0.79833945,-352.87526,29.159041)"
     fill="#dedede"
     id="g5"
     style="stroke-width:1.25259;fill:#f2f2f2;fill-opacity:1">
    <path
       d="m 446.22,-34 c -0.64785,0 -1.1875,0.53965 -1.1875,1.1875 v 4.625 c 0,0.64785 0.53965,1.1875 1.1875,1.1875 h 11.656 c 0.64785,0 1.1562,-0.53965 1.1562,-1.1875 v -4.625 c 0,-0.64785 -0.5084,-1.1875 -1.1562,-1.1875 z m 0,1 h 11.656 c 0.11114,0 0.15625,0.07636 0.15625,0.1875 v 4.625 c 0,0.11114 -0.0451,0.1875 -0.15625,0.1875 H 446.22 c -0.11114,0 -0.1875,-0.07636 -0.1875,-0.1875 v -4.625 c 0,-0.11114 0.0764,-0.1875 0.1875,-0.1875 z"
       color="#000000"
       enable-background="new"
       style="text-indent:0;text-transform:none;stroke-width:1.26101;fill:#f2f2f2;fill-opacity:1"
       id="path1" />
    <path
       d="m 454,-32 v 1 0.0312 l 1.5312,1.375 L 457,-31 v -1 h -0.75781 l -0.73828,0.74609 L 454.77734,-32 Z"
       color="#000000"
       enable-background="new"
       style="text-indent:0;text-transform:none;stroke-width:1.26101;fill:#f2f2f2;fill-opacity:1"
       id="path2" />
    <path
       d="m 446.22,-26 c -0.64785,0 -1.1875,0.53965 -1.1875,1.1875 v 4.6562 c 0,0.64785 0.53965,1.1875 1.1875,1.1875 h 11.656 c 0.64785,0 1.1562,-0.53965 1.1562,-1.1875 v -4.6562 c 0,-0.64785 -0.5084,-1.1875 -1.1562,-1.1875 z m 0,1 h 11.656 c 0.11114,0 0.15625,0.07636 0.15625,0.1875 v 4.6562 c 0,0.11114 -0.0451,0.1875 -0.15625,0.1875 H 446.22 c -0.11114,0 -0.1875,-0.07636 -0.1875,-0.1875 v -4.6562 c 0,-0.11114 0.0764,-0.1875 0.1875,-0.1875 z"
       color="#000000"
       enable-background="new"
       style="text-indent:0;text-transform:none;stroke-width:1.26101;fill:#f2f2f2;fill-opacity:1"
       id="path3" />
    <rect
       x="448"
       y="-24"
       width="8"
       height="2"
       rx="0"
       ry="0"
       color="#000000"
       enable-background="new"
       id="rect3"
       style="stroke-width:1.25259;fill:#f2f2f2;fill-opacity:1" />
    <rect
       x="445.53"
       y="-29"
       width="12.861"
       height="1"
       rx="0"
       ry="0"
       color="#000000"
       enable-background="new"
       opacity="0.3"
       id="rect4"
       style="stroke-width:1.26101;fill:#f2f2f2;fill-opacity:1;opacity:0.20000001" />
    <rect
       x="445.53"
       y="-20.969"
       width="12.861"
       height="1"
       rx="0"
       ry="0"
       color="#000000"
       enable-background="new"
       opacity="0.3"
       id="rect5"
       style="stroke-width:1.26101;fill:#f2f2f2;fill-opacity:1;opacity:0.2" />
  </g>
  <metadata
     id="metadata5">
    <rdf:RDF>
      <cc:Work
         rdf:about="">
        <dc:title>Gnome Symbolic Icon Theme</dc:title>
      </cc:Work>
    </rdf:RDF>
  </metadata>
</svg>
