<?xml version="1.0" encoding="UTF-8" standalone="no"?>
<svg
   width="16"
   height="16"
   version="1"
   id="svg1"
   sodipodi:docname="revolt-symbolic.svg"
   inkscape:version="1.4.2 (unknown)"
   xmlns:inkscape="http://www.inkscape.org/namespaces/inkscape"
   xmlns:sodipodi="http://sodipodi.sourceforge.net/DTD/sodipodi-0.dtd"
   xmlns="http://www.w3.org/2000/svg"
   xmlns:svg="http://www.w3.org/2000/svg">
  <defs
     id="defs1" />
  <sodipodi:namedview
     id="namedview1"
     pagecolor="#ffffff"
     bordercolor="#000000"
     borderopacity="0.25"
     inkscape:showpageshadow="2"
     inkscape:pageopacity="0.0"
     inkscape:pagecheckerboard="0"
     inkscape:deskcolor="#d1d1d1"
     inkscape:zoom="23.625"
     inkscape:cx="9.2910053"
     inkscape:cy="7.4920635"
     inkscape:current-layer="svg1" />
  <path
     d="m 7.9977797,2 a 6,6 0 0 0 -2.3565,0.48375 2.25,2.25 0 0 1 0.8325,1.4219999 0.75,0.75 0 0 1 0.025501,0.255 2.25,2.25 0 0 1 0,0.00299 2.25,2.25 0 0 1 0.003,0.086248 A 2.25,2.25 0 0 1 4.2522805,6.499988 2.25,2.25 0 0 1 4.1690325,6.495528 0.75,0.75 0 0 1 3.8930325,6.467774 2.25,2.25 0 0 1 2.4867797,5.6442499 6,6 0 0 0 1.9977797,8 a 6,6 0 0 0 6,6 6,6 0 0 0 4.2232463,-1.744501 c -0.455246,-0.180745 -0.886495,-0.383252 -1.272747,-0.633 a 0.75,0.75 0 0 1 -0.321,0.924001 0.75,0.75 0 0 1 -1.0237491,-0.275254 0.75,0.75 0 0 1 0.2737494,-1.023746 0.75,0.75 0 0 1 0.3577487,-0.09975 0.75,0.75 0 0 1 0.118503,0.0072 C 9.941028,10.763752 9.6305299,10.237248 9.5405297,9.6402495 A 2.25,2.25 0 0 1 8.0022797,10.25 a 2.25,2.25 0 0 1 -2.25,-2.25 2.25,2.25 0 0 1 2.25,-2.25 2.25,2.25 0 0 1 2.2499993,2.25 2.25,2.25 0 0 1 -0.0016,0.030752 c 0.0975,-0.0225 0.187505,-0.033 0.256505,-0.030752 0.140248,0.00446 0.231,0.027754 0.327748,0.0495 a 0.75,0.75 0 0 1 0.02249,0.00446 l 0.959258,0.2475225 A 0.75,0.75 0 0 1 11.752279,8 0.75,0.75 0 0 1 12.50228,7.25 0.75,0.75 0 0 1 13.25228,8 0.75,0.75 0 0 1 12.956026,8.59625 l 0.975,0.252 A 6,6 0 0 0 13.99778,8 6,6 0 0 0 7.9977797,2 Z m -3.7455,0.75 a 1.5,1.5 0 0 0 -1.5,1.5 1.5,1.5 0 0 0 1.5,1.5 1.5,1.5 0 0 0 1.5,-1.5 1.5,1.5 0 0 0 -1.5,-1.5 z m 3.75,0 a 0.75,0.75 0 0 1 0.75,0.75 0.75,0.75 0 0 1 -0.75,0.75 0.75,0.75 0 0 1 -0.75,-0.75 0.75,0.75 0 0 1 0.75,-0.75 z M 10.217028,3.35375 A 0.75,0.75 0 0 1 10.627279,3.4535 0.75,0.75 0 0 1 10.901028,4.47875 0.75,0.75 0 0 1 9.8772793,4.7525 0.75,0.75 0 0 1 9.6035299,3.72875 0.75,0.75 0 0 1 10.217028,3.35375 Z M 11.881279,5 A 0.75,0.75 0 0 1 12.54878,5.375 0.75,0.75 0 0 1 12.273534,6.3987499 0.75,0.75 0 0 1 11.24978,6.125 0.75,0.75 0 0 1 11.523532,5.1012499 0.75,0.75 0 0 1 11.881279,5 Z M 3.5022797,7.25 a 0.75,0.75 0 0 1 0.75,0.75 0.75,0.75 0 0 1 -0.75,0.75 0.75,0.75 0 0 1 -0.75,-0.75 0.75,0.75 0 0 1 0.75,-0.75 z m 6.9802513,1.5 c -0.142503,-0.00448 -0.160503,0.072752 -0.202503,0.27825 -0.21,1.352998 1.015503,2.102998 2.626506,2.687997 0.192,0.06824 0.208492,0.03447 0.325492,-0.111 0.213,-0.275999 0.339,-0.566999 0.443254,-0.871495 0.09376,-0.273001 0.168746,-0.555752 0.273,-0.8475035 0.104254,-0.245999 0.06672,-0.240748 -0.195,-0.3082485 L 10.670028,8.78 A 1.0732499,1.0732499 0 0 0 10.482531,8.74925 Z M 4.0865296,9.5 a 0.75,0.75 0 0 1 0.6675001,0.375 0.75,0.75 0 0 1 -0.273,1.023751 0.75,0.75 0 0 1 -1.026,-0.273751 0.75,0.75 0 0 1 0.276,-1.0237505 A 0.75,0.75 0 0 1 4.0865296,9.5 Z m 1.6305,1.647752 a 0.75,0.75 0 0 1 0.4102501,0.09975 0.75,0.75 0 0 1 0.2737499,1.023746 0.75,0.75 0 0 1 -1.0237499,0.275254 0.75,0.75 0 0 1 -0.2737501,-1.025252 0.75,0.75 0 0 1 0.6135,-0.373496 z M 8.0022797,11.75 a 0.75,0.75 0 0 1 0.75,0.75 0.75,0.75 0 0 1 -0.75,0.75 0.75,0.75 0 0 1 -0.75,-0.75 0.75,0.75 0 0 1 0.75,-0.75 z"
     fill="#aaaaaa"
     id="path1"
     style="stroke-width:0.999987;fill:#f2f2f2;fill-opacity:1" />
</svg>
