<?xml version="1.0" encoding="UTF-8" standalone="no"?>
<svg
   width="16"
   height="16"
   version="1.1"
   id="svg1"
   sodipodi:docname="steam-symbolic.svg"
   inkscape:version="1.4.2 (unknown)"
   xmlns:inkscape="http://www.inkscape.org/namespaces/inkscape"
   xmlns:sodipodi="http://sodipodi.sourceforge.net/DTD/sodipodi-0.dtd"
   xmlns="http://www.w3.org/2000/svg"
   xmlns:svg="http://www.w3.org/2000/svg">
  <sodipodi:namedview
     id="namedview1"
     pagecolor="#ffffff"
     bordercolor="#000000"
     borderopacity="0.25"
     inkscape:showpageshadow="2"
     inkscape:pageopacity="0.0"
     inkscape:pagecheckerboard="0"
     inkscape:deskcolor="#d1d1d1"
     inkscape:zoom="23.625"
     inkscape:cx="7.2804233"
     inkscape:cy="13.587302"
     inkscape:current-layer="svg1" />
  <defs
     id="defs1">
    <style
       id="current-color-scheme"
       type="text/css">.ColorScheme-Text { color:#dedede; }</style>
  </defs>
  <path
     class="ColorScheme-Text"
     d="M 8.0000511,2.0000186 A 6.0000017,6.0000017 0 0 0 2.0234497,7.6835951 l -0.00732,-0.003 -0.00293,0.07178 -0.00732,-0.023442 0.00732,0.080569 a 6.0000017,6.0000017 0 0 0 -0.013183,0.1904943 6.0000017,6.0000017 0 0 0 0.16113,1.3140002 l 0.00585,0.057131 0.016112,0.079106 0.00879,0.0043 A 6.0000017,6.0000017 0 0 0 7.9999809,14 6.0000017,6.0000017 0 0 0 13.999988,8.000001 6.0000017,6.0000017 0 0 0 7.9999809,1.9999998 Z m -5.8329764,7.3710768 -0.014648,-0.079105 0.021973,0.1464826 -0.00733,-0.067382 z M 8.0000511,2.7500188 A 5.2500014,5.2500014 0 0 1 13.250052,8.0000202 5.2500014,5.2500014 0 0 1 8.0000511,13.250021 5.2500014,5.2500014 0 0 1 3.1382497,9.9380206 l 1.1205759,0.5742164 c -0.00417,0.03753 -0.00695,0.07506 -0.00884,0.112792 0,1.035529 0.8394755,1.875001 1.8750004,1.875001 1.0355255,0 1.8750005,-0.839472 1.8750005,-1.875001 -6.26e-5,-0.08873 -0.00652,-0.177319 -0.019032,-0.265146 l 1.522012,-0.8861953 c 0.1232401,0.017593 0.2475766,0.026413 0.3720666,0.026359 1.4497529,0 2.6249989,-1.1752502 2.6249989,-2.6250008 0,-1.4497498 -1.175246,-2.6250004 -2.6249989,-2.6250004 -1.4497495,-10e-8 -2.6249998,1.1752506 -2.6249998,2.6250004 0.0012,0.021998 0.0027,0.043973 0.0043,0.065927 l -1.0853875,1.810575 c -0.014642,-6.6e-4 -0.029296,-0.00114 -0.043951,-0.0015 C 5.6926431,8.7512579 5.27397,8.9018503 4.9399204,9.1763203 L 2.7543593,8.0587051 a 5.2500014,5.2500014 0 0 1 -0.00439,-0.058594 5.2500014,5.2500014 0 0 1 5.2500011,-5.2500008 z m 1.8750005,2.6250006 c 0.8284474,-5e-7 1.5000004,0.671573 1.5000004,1.5000006 0,0.828427 -0.671578,1.5000004 -1.5000004,1.5000004 -0.8284504,10e-8 -1.5000004,-0.6715734 -1.5000004,-1.5000004 0,-0.8284276 0.6715725,-1.5000006 1.5000004,-1.5000006 z m 0,0.3750002 c -0.6213226,-2e-7 -1.1250003,0.5036777 -1.1250003,1.1250004 0,0.6213224 0.5036777,1.1250002 1.1250003,1.1250002 0.6213184,0 1.1250004,-0.5036778 1.1250004,-1.1250002 0,-0.6213227 -0.503682,-1.1250004 -1.1250004,-1.1250004 z M 6.1250505,9.5000204 c 0.6213226,0 1.1250003,0.5036796 1.1250003,1.1250006 -1e-7,0.621317 -0.5036777,1.125 -1.1250003,1.125 -0.50838,-0.0024 -0.9521247,-0.34506 -1.0825501,-0.8364 l 0.7412101,0.37939 C 6.6747108,11.747954 7.3573609,10.411988 6.4663306,9.9571165 L 5.7207258,9.5762582 c 0.1289401,-0.050023 0.2659947,-0.075849 0.4042949,-0.076169 z"
     fill="currentColor"
     id="path1"
     style="stroke-width:0.999997;fill:#efefef;fill-opacity:1" />
</svg>
