<?xml version="1.0" encoding="UTF-8" standalone="no"?>
<svg
   width="16"
   height="16"
   version="1.1"
   id="svg1"
   sodipodi:docname="totem-tv-symbolic.svg"
   inkscape:version="1.4.2 (unknown)"
   xmlns:inkscape="http://www.inkscape.org/namespaces/inkscape"
   xmlns:sodipodi="http://sodipodi.sourceforge.net/DTD/sodipodi-0.dtd"
   xmlns="http://www.w3.org/2000/svg"
   xmlns:svg="http://www.w3.org/2000/svg">
  <defs
     id="defs1" />
  <sodipodi:namedview
     id="namedview1"
     pagecolor="#ffffff"
     bordercolor="#000000"
     borderopacity="0.25"
     inkscape:showpageshadow="2"
     inkscape:pageopacity="0.0"
     inkscape:pagecheckerboard="0"
     inkscape:deskcolor="#d1d1d1"
     inkscape:zoom="16.705398"
     inkscape:cx="2.9631141"
     inkscape:cy="13.109535"
     inkscape:current-layer="svg1" />
  <path
     d="M 5.7500082,2 A 0.74999793,0.74999793 0 0 0 5.0000097,2.7499979 0.74999793,0.74999793 0 0 0 5.7500082,3.4999953 0.74999793,0.74999793 0 0 0 5.9375077,3.4736295 L 6.7036299,4.2500271 H 5.0000097 c -1.2464968,0 -2.2499937,1.003497 -2.2499937,2.2499932 V 11.750006 C 2.750016,12.996501 3.7535129,14 5.0000097,14 h 5.9999813 c 1.246503,0 2.249993,-1.003499 2.249993,-2.249994 V 6.5000203 c 0,-1.2464962 -1.00349,-2.2499932 -2.249993,-2.2499932 H 9.302223 l 0.760275,-0.7733976 a 0.74999793,0.74999793 0 0 0 0.178705,0.023437 0.74999793,0.74999793 0 0 0 0.749995,-0.7499984 0.74999793,0.74999793 0 0 0 -0.749995,-0.7499979 0.74999793,0.74999793 0 0 0 -0.7499956,0.7499979 0.74999793,0.74999793 0 0 0 0.032227,0.205079 L 8.2593126,4.2427449 7.7568742,4.2500718 6.4707773,2.94635 A 0.74999793,0.74999793 0 0 0 6.5000737,2.7500609 0.74999793,0.74999793 0 0 0 5.750076,2.000063 Z M 5.0000097,4.9999922 H 5.3750089 7.443353 l 0.00434,0.00434 0.2827112,-0.00434 h 2.8945448 0.374995 c 0.830999,0 1.499996,0.6689979 1.499996,1.4999953 V 10.249976 H 3.5000216 V 6.4999875 c 0,-0.8309974 0.668998,-1.4999953 1.4999954,-1.4999953 z m -1.499996,5.9999798 h 8.9999733 v 0.749999 c 0,0.830996 -0.668999,1.499994 -1.499996,1.499994 H 10.249995 5.0000097 c -0.8309981,0 -1.499996,-0.668998 -1.499996,-1.499994 z m 7.8562233,0.749999 c -0.198678,0.01005 -0.355948,0.173741 -0.355948,0.374998 0,0.207753 0.167246,0.374999 0.374999,0.374999 0.207745,0 0.374999,-0.167246 0.374999,-0.374999 0,-0.207749 -0.167254,-0.374998 -0.374999,-0.374998 -0.0061,0 -0.01263,-3.19e-4 -0.01902,0 z"
     fill="#dedede"
     id="path1"
     style="stroke-width:0.999977;fill:#f2f2f2;fill-opacity:1" />
</svg>
