<?xml version="1.0" encoding="UTF-8" standalone="no"?>
<svg
   width="16"
   height="16"
   version="1.1"
   viewBox="0 0 16 16"
   id="svg1"
   sodipodi:docname="xapp-favorites-app-symbolic.svg"
   inkscape:version="1.4.2 (unknown)"
   xmlns:inkscape="http://www.inkscape.org/namespaces/inkscape"
   xmlns:sodipodi="http://sodipodi.sourceforge.net/DTD/sodipodi-0.dtd"
   xmlns="http://www.w3.org/2000/svg"
   xmlns:svg="http://www.w3.org/2000/svg">
  <sodipodi:namedview
     id="namedview1"
     pagecolor="#ffffff"
     bordercolor="#000000"
     borderopacity="0.25"
     inkscape:showpageshadow="2"
     inkscape:pageopacity="0.0"
     inkscape:pagecheckerboard="0"
     inkscape:deskcolor="#d1d1d1"
     inkscape:zoom="23.625"
     inkscape:cx="10.539683"
     inkscape:cy="7.7883598"
     inkscape:current-layer="svg1" />
  <defs
     id="defs1">
    <style
       id="current-color-scheme"
       type="text/css">.ColorScheme-Text { color:#404040; } .ColorScheme-Highlight { color:#5294e2; }</style>
  </defs>
  <path
     d="m 7.9999794,1.9995025 c -0.2864743,0 -0.440163,0.1168173 -0.5390846,0.1948355 C 7.3619731,2.2723488 7.3021433,2.3420341 7.2470159,2.411142 7.1367689,2.5493576 7.0509428,2.6901835 6.9598967,2.8506151 6.7777966,3.1714708 6.5899513,3.5617569 6.4047011,3.9551857 6.2194434,4.3485767 6.0389262,4.7441432 5.8934502,5.0407052 5.8325919,5.1647456 5.7833756,5.2556565 5.741104,5.33222 5.6613083,5.3499792 5.5702545,5.370611 5.4437317,5.3922808 5.1322137,5.4456341 4.7196371,5.5030228 4.3054848,5.566603 3.8913477,5.6301853 3.4773005,5.6981886 3.1262111,5.7819445 2.9506813,5.8238239 2.7932726,5.8664727 2.6296082,5.9357607 2.465944,6.0050492 2.1929252,6.0257643 2.0363188,6.5319751 1.8797123,7.038186 2.0836217,7.1918599 2.1740169,7.3435086 c 0.090401,0.1516713 0.193088,0.2824317 0.3105579,0.423355 0.2349471,0.2818466 0.5314344,0.5911894 0.8305843,0.8980118 0.2991647,0.3068004 0.6002198,0.6088305 0.8233087,0.8452852 0.091504,0.096986 0.156674,0.1707967 0.2124087,0.2358471 -0.013824,0.085795 -0.030979,0.1858785 -0.06006,0.3208113 -0.070658,0.327837 -0.1758147,0.757606 -0.278329,1.189472 -0.1025143,0.43192 -0.2015781,0.863664 -0.2607556,1.234927 -0.02959,0.185613 -0.051374,0.3535 -0.051272,0.533228 5.14e-5,0.08986 0.00227,0.18251 0.032228,0.307634 0.029946,0.125118 0.081971,0.318469 0.3134905,0.49514 0.2315193,0.176669 0.4236546,0.174831 0.5493372,0.172858 0.1256829,-0.002 0.2162417,-0.02111 0.3032378,-0.04249 0.173992,-0.04271 0.3325486,-0.102711 0.5083182,-0.175794 0.3515545,-0.146166 0.7549062,-0.346934 1.157298,-0.550807 0.4023764,-0.203873 0.8023079,-0.41164 1.1104206,-0.562524 0.1345855,-0.06591 0.2402724,-0.112847 0.3252059,-0.149421 0.084933,0.0366 0.190628,0.08352 0.3252058,0.149421 0.3080977,0.150884 0.7080142,0.358651 1.1104208,0.562524 0.4023762,0.203873 0.8057577,0.404641 1.1572987,0.550807 0.175776,0.07307 0.334333,0.133086 0.508324,0.175794 0.087,0.02133 0.177558,0.0405 0.303236,0.04249 0.125685,0.002 0.31782,0.0039 0.54934,-0.172858 0.231522,-0.176663 0.28354,-0.370022 0.313492,-0.49514 0.02995,-0.125124 0.03216,-0.217767 0.03223,-0.307634 1.01e-4,-0.179721 -0.02168,-0.347615 -0.05126,-0.533228 -0.0592,-0.371218 -0.158243,-0.802985 -0.260758,-1.234927 -0.102519,-0.43194 -0.20767,-0.861635 -0.278334,-1.189472 -0.0291,-0.1349407 -0.04621,-0.2350163 -0.06006,-0.3208113 0.05573,-0.065054 0.120909,-0.1388682 0.212407,-0.2358471 0.223055,-0.236425 0.524113,-0.5384548 0.823309,-0.8452852 0.299154,-0.3067998 0.595646,-0.6161351 0.830574,-0.8980118 0.117469,-0.1409233 0.220162,-0.2716837 0.310557,-0.423355 0.09041,-0.1516713 0.294309,-0.3053452 0.137701,-0.8115335 C 13.807071,6.0257643 13.534052,6.0050484 13.370389,5.9357607 13.206726,5.8664712 13.049322,5.8238262 12.873786,5.7819445 12.522718,5.6981886 12.108681,5.630183 11.694516,5.566603 11.280348,5.5030228 10.867828,5.4456305 10.556266,5.3922808 10.429743,5.370611 10.33868,5.3499792 10.258894,5.33222 10.21662,5.2556565 10.167404,5.1647456 10.10655,5.0407052 9.961073,4.7441956 9.7805546,4.3486068 9.5952966,3.9551857 9.410039,3.5617944 9.2222014,3.1714781 9.0401015,2.8506151 8.9490483,2.6901835 8.8632222,2.5493576 8.7529827,2.411142 8.6978607,2.3420356 8.6380254,2.2723488 8.5391039,2.194338 8.4401824,2.1163273 8.2864935,1.9995025 8.0000192,1.9995025 Z m 0,0.7500309 c 0.3543373,0 1.4960867,2.9967484 1.7828226,3.2154574 0.286665,0.2187467 3.353537,0.4341779 3.463044,0.7881327 0.109498,0.3539393 -2.25047,2.4205747 -2.359971,2.7745139 -0.109499,0.3539392 0.898987,3.4844956 0.612329,3.7032796 -0.286668,0.218746 -3.1438273,-1.501561 -3.4982169,-1.501561 -0.3543373,0 -3.2115575,1.720268 -3.4982193,1.501561 C 4.2150984,13.012168 5.2235976,9.8815766 5.1141005,9.5276374 5.0046035,9.1736982 2.6446238,7.1070628 2.7541283,6.7531235 2.8636256,6.3991838 5.9305093,6.1837523 6.217171,5.9649908 6.5038402,5.7462441 7.6456049,2.7495334 7.9999944,2.7495334 Z"
     fill="#dedede"
     id="path1"
     style="stroke-width:0.999992;fill:#f0f0f0;fill-opacity:1" />
</svg>
