<?xml version="1.0" encoding="UTF-8" standalone="no"?>
<svg
   height="22"
   width="22"
   version="1.1"
   id="svg2"
   sodipodi:docname="application-rss+xml-symbolic.svg"
   inkscape:version="1.4.2 (unknown)"
   xmlns:inkscape="http://www.inkscape.org/namespaces/inkscape"
   xmlns:sodipodi="http://sodipodi.sourceforge.net/DTD/sodipodi-0.dtd"
   xmlns="http://www.w3.org/2000/svg"
   xmlns:svg="http://www.w3.org/2000/svg">
  <defs
     id="defs2" />
  <sodipodi:namedview
     id="namedview2"
     pagecolor="#ffffff"
     bordercolor="#000000"
     borderopacity="0.25"
     inkscape:showpageshadow="2"
     inkscape:pageopacity="0.0"
     inkscape:pagecheckerboard="0"
     inkscape:deskcolor="#d1d1d1"
     inkscape:zoom="23.625"
     inkscape:cx="6.9417989"
     inkscape:cy="10.920635"
     inkscape:current-layer="svg2" />
  <g
     fill="#dedede"
     id="g2"
     transform="translate(3,3)">
    <path
       color="#bebebe"
       d="M 3,0 C 2.446,0 2,0.446 2,1 v 14 c 0,0.554 0.446,1 1,1 h 10 c 0.554,0 1,-0.446 1,-1 V 5 C 14,4.446 9.554,0 9,0 Z M 3.5,1 H 9 v 4 h 4 v 9.5 c 0,0.277 -0.223,0.5 -0.5,0.5 h -9 A 0.499,0.499 0 0 1 3,14.5 V 1.5 C 3,1.223 3.223,1 3.5,1 Z"
       overflow="visible"
       style="marker:none"
       id="path1" />
    <path
       color="#000000"
       d="M 5,7 V 7.5 C 5,7.775 5.227,8 5.5,8 a 4.5,4.5 0 0 1 4.5,4.5 c 0,0.275 0.227,0.5 0.5,0.5 H 11 V 12.5 A 5.5,5.5 0 0 0 5.5,7 Z M 5,9 V 9.5 C 5,9.775 5.227,10 5.5,10 A 2.5,2.5 0 0 1 8,12.5 C 8,12.775 8.227,13 8.5,13 H 9 V 12.5 A 3.5,3.5 0 0 0 5.5,9 Z m 1,2 a 1,1 0 1 0 0,2 1,1 0 0 0 0,-2 z"
       overflow="visible"
       style="marker:none"
       id="path2" />
  </g>
</svg>
