<?xml version="1.0" encoding="UTF-8" standalone="no"?>
<svg
   height="22"
   width="22"
   version="1.1"
   id="svg1"
   sodipodi:docname="application-x-appliance-symbolic.svg"
   inkscape:version="1.4.2 (unknown)"
   xmlns:inkscape="http://www.inkscape.org/namespaces/inkscape"
   xmlns:sodipodi="http://sodipodi.sourceforge.net/DTD/sodipodi-0.dtd"
   xmlns="http://www.w3.org/2000/svg"
   xmlns:svg="http://www.w3.org/2000/svg">
  <defs
     id="defs1" />
  <sodipodi:namedview
     id="namedview1"
     pagecolor="#ffffff"
     bordercolor="#000000"
     borderopacity="0.25"
     inkscape:showpageshadow="2"
     inkscape:pageopacity="0.0"
     inkscape:pagecheckerboard="0"
     inkscape:deskcolor="#d1d1d1"
     inkscape:zoom="23.625"
     inkscape:cx="6.8148148"
     inkscape:cy="6.984127"
     inkscape:current-layer="svg1" />
  <path
     color="#000000"
     d="M 4.7160218,2.9845 A 1.7138124,1.7138124 0 0 0 3.0022095,4.6983123 1.7138124,1.7138124 0 0 0 4.1447511,6.311581 V 15.68842 A 1.7138124,1.7138124 0 0 0 3.0022095,17.301689 1.7138124,1.7138124 0 0 0 4.7160218,19.0155 1.7138124,1.7138124 0 0 0 6.3292905,17.872959 h 9.3528475 a 1.7138124,1.7138124 0 0 0 1.601841,1.107122 1.7138124,1.7138124 0 0 0 1.713812,-1.713812 1.7138124,1.7138124 0 0 0 -1.142541,-1.613266 V 6.311581 A 1.7138124,1.7138124 0 0 0 18.997791,4.6983123 1.7138124,1.7138124 0 0 0 17.283979,2.9845 1.7138124,1.7138124 0 0 0 15.657,4.1624604 H 6.3407162 A 1.7138124,1.7138124 0 0 0 4.7160218,2.9845 Z m 1.5995584,2.3205021 h 9.3665578 a 1.7138124,1.7138124 0 0 0 0.06058,0.1382472 L 14.370505,6.8314375 A 1.4201791,1.4201791 0 0 0 12.553858,7.5832299 H 9.4472867 A 1.4201791,1.4201791 0 0 0 7.6043671,6.8405779 L 6.2447424,5.4683852 A 1.7138124,1.7138124 0 0 0 6.3155802,5.3050021 Z M 16.553897,6.2464562 a 1.7138124,1.7138124 0 0 0 0.159956,0.065123 v 9.3414248 a 1.7138124,1.7138124 0 0 0 -0.205659,0.08682 L 15.182846,14.400778 A 1.4213217,1.4213217 0 0 0 14.428768,12.566996 V 9.469566 A 1.4213217,1.4213217 0 0 0 15.182846,7.632359 Z M 5.4186848,6.2578807 6.809158,7.6620643 A 1.4213217,1.4213217 0 0 0 7.5723758,9.4695651 V 12.565854 A 1.4213217,1.4213217 0 0 0 6.809158,14.374497 l -1.3653374,1.379047 a 1.7138124,1.7138124 0 0 0 -0.1565281,-0.06512 v -9.37684 a 1.7138124,1.7138124 0 0 0 0.1313923,-0.0537 z M 9.456427,8.7257711 h 3.088291 c 0.142817,0.3336221 0.407887,0.598692 0.740367,0.7426521 v 3.0985728 a 1.4190367,1.4190367 0 0 0 -0.731227,0.728942 H 9.4461439 A 1.4190367,1.4190367 0 0 0 8.7149173,12.566996 V 9.469566 C 9.047397,9.3244634 9.3136092,9.0593936 9.456427,8.7269138 Z m 0,5.7127079 h 3.088291 a 1.4224643,1.4224643 0 0 0 1.824638,0.765504 l 1.350484,1.36648 a 1.7138124,1.7138124 0 0 0 -0.06282,0.159955 H 6.329295 A 1.7138124,1.7138124 0 0 0 6.2561734,16.55675 l 1.3481992,-1.361907 a 1.4224643,1.4224643 0 0 0 1.8520596,-0.756364 z"
     fill="#dedede"
     overflow="visible"
     style="stroke-width:1;marker:none"
     id="path1" />
</svg>
