<?xml version="1.0" encoding="UTF-8" standalone="no"?>
<svg
   width="22"
   height="22"
   version="1.1"
   viewBox="0 0 22 22"
   id="svg1"
   sodipodi:docname="application-x-addon-symbolic.svg"
   inkscape:version="1.4.2 (unknown)"
   xmlns:inkscape="http://www.inkscape.org/namespaces/inkscape"
   xmlns:sodipodi="http://sodipodi.sourceforge.net/DTD/sodipodi-0.dtd"
   xmlns="http://www.w3.org/2000/svg"
   xmlns:svg="http://www.w3.org/2000/svg">
  <defs
     id="defs1" />
  <sodipodi:namedview
     id="namedview1"
     pagecolor="#ffffff"
     bordercolor="#000000"
     borderopacity="0.25"
     inkscape:showpageshadow="2"
     inkscape:pageopacity="0.0"
     inkscape:pagecheckerboard="0"
     inkscape:deskcolor="#d1d1d1"
     inkscape:zoom="23.625"
     inkscape:cx="13.693122"
     inkscape:cy="11.640212"
     inkscape:current-layer="svg1" />
  <path
     d="m 9.3999999,3.0000005 c -1.1818667,0 -2.1333331,0.9514665 -2.1333331,2.133333 V 6.2000003 H 4.9687471 c -1.0909866,0 -1.9687466,0.8777918 -1.9687466,1.9687462 v 2.2979195 1.066667 h 2.1333332 c 0.5909331,0 1.0666664,0.475733 1.0666664,1.066667 0,0.590932 -0.4757333,1.066667 -1.0666664,1.066667 H 3.0000005 v 1.066666 2.297921 C 3.0000005,18.122239 3.8777925,19 4.9687471,19 h 2.2979197 1.0666664 v -2.133336 c 0,-0.590931 0.4757335,-1.066664 1.0666667,-1.066664 0.5909333,0 1.0666661,0.475733 1.0666661,1.066664 V 19 h 1.066667 2.29792 c 1.090988,0 1.968748,-0.877794 1.968748,-1.968746 v -2.297921 h 1.066664 C 18.048534,14.733333 19,13.781867 19,12.6 19,11.418133 18.048534,10.466666 16.866665,10.466666 H 15.800001 V 8.1687465 c 0,-1.0909864 -0.877794,-1.9687462 -1.968748,-1.9687462 h -2.29792 V 5.1333335 c 0,-1.1818665 -0.951467,-2.133333 -2.1333331,-2.133333 z m 0,1.0666666 c 0.5909333,0 1.0666661,0.4757332 1.0666661,1.0666664 v 2.1333332 h 1.066667 2.133333 c 0.590935,0 1.066667,0.4757332 1.066667,1.0666667 v 2.1333326 1.066667 h 2.133332 c 0.590934,0 1.066669,0.475733 1.066669,1.066667 0,0.590932 -0.475735,1.066666 -1.066669,1.066666 h -2.133332 v 1.066667 2.13333 c 0,0.590935 -0.475732,1.06667 -1.066667,1.06667 h -2.133333 v -1.06667 c 0,-1.181863 -0.951467,-2.13333 -2.1333331,-2.13333 -1.1818667,0 -2.1333331,0.951467 -2.1333331,2.13333 v 1.06667 H 5.1333337 c -0.5909332,0 -1.0666666,-0.475735 -1.0666666,-1.06667 v -2.13333 h 1.0666666 c 1.1818665,0 2.1333331,-0.951466 2.1333331,-2.133333 0,-1.181867 -0.9514666,-2.133334 -2.1333331,-2.133334 H 4.0666671 V 8.3333334 c 0,-0.5909335 0.4757334,-1.0666667 1.0666666,-1.0666667 H 7.2666668 8.3333332 V 5.1333335 c 0,-0.5909332 0.4757335,-1.0666664 1.0666667,-1.0666664 z"
     fill="#dedede"
     id="path1"
     style="stroke-width:0.999999" />
</svg>
