<?xml version="1.0" encoding="UTF-8" standalone="no"?>
<svg
   width="22"
   height="22"
   version="1.1"
   viewBox="0 0 22 22"
   id="svg1"
   sodipodi:docname="application-x-firmware-symbolic.svg"
   inkscape:version="1.4.2 (unknown)"
   xmlns:inkscape="http://www.inkscape.org/namespaces/inkscape"
   xmlns:sodipodi="http://sodipodi.sourceforge.net/DTD/sodipodi-0.dtd"
   xmlns="http://www.w3.org/2000/svg"
   xmlns:svg="http://www.w3.org/2000/svg">
  <defs
     id="defs1" />
  <sodipodi:namedview
     id="namedview1"
     pagecolor="#ffffff"
     bordercolor="#000000"
     borderopacity="0.25"
     inkscape:showpageshadow="2"
     inkscape:pageopacity="0.0"
     inkscape:pagecheckerboard="0"
     inkscape:deskcolor="#d1d1d1"
     inkscape:zoom="23.625"
     inkscape:cx="8.2328042"
     inkscape:cy="8.6349206"
     inkscape:current-layer="svg1" />
  <path
     d="m 4.0665079,2.9999995 c -0.8791648,0 -1.599994,0.7208294 -1.599994,1.5999941 0,0.8791648 0.7208292,1.5999941 1.599994,1.5999941 0.6874962,0 1.279142,-0.445833 1.504208,-1.062492 l 1.8999395,-0.0042 0.3874973,0.7666638 C 7.9914854,6.1624838 8.3081563,6.2666542 8.5748222,6.1374919 8.6998243,6.0749918 8.7956533,5.9624952 8.8414877,5.8291624 8.8831548,5.6958296 8.8748199,5.5458354 8.8123209,5.4208331 L 8.1289956,4.0667049 5.5748715,4.0708793 C 5.3498696,3.4500459 4.7582131,3.0000529 4.0665037,3.0000529 Z m 7.9999701,0 V 4.0666622 H 10.999817 V 5.1333248 H 9.933152 v 1.0666629 h 1.066665 V 7.2666504 H 9.933152 v 1.0666631 h 1.066665 V 9.3999762 H 9.933152 v 1.0666618 h 1.066665 v 1.066665 h 1.066661 v 1.066661 h 1.066663 v -1.066661 h 1.066663 v 1.066661 h 1.066661 v -1.066661 h 1.066665 v 1.066661 h 1.066662 v -1.066661 h 1.066661 v -1.066665 h 1.066664 V 9.3999762 H 18.466453 V 8.3333135 h 1.066664 V 7.2666504 H 18.466453 V 6.1999877 h 1.066664 V 5.1333248 H 18.466453 V 4.0666622 H 17.399792 V 2.9999995 H 16.33313 V 4.0666622 H 15.266465 V 2.9999995 H 14.199804 V 4.0666622 H 13.133141 V 2.9999995 Z M 4.0665079,4.0666622 c 0.2999989,0 0.5333313,0.2333325 0.5333313,0.5333314 0,0.2999988 -0.2333324,0.5333312 -0.5333313,0.5333312 -0.2999989,0 -0.5333312,-0.2333324 -0.5333312,-0.5333312 0,-0.2999989 0.2333323,-0.5333314 0.5333312,-0.5333314 z m 8.5333031,1.0666626 h 4.266649 c 0.295466,0 0.533332,0.2378661 0.533332,0.5333315 v 4.2666523 c 0,0.2954654 -0.237866,0.5333294 -0.533332,0.5333294 h -4.266649 c -0.295468,0 -0.533333,-0.237864 -0.533333,-0.5333294 V 5.6666563 c 0,-0.2954654 0.237865,-0.5333315 0.533333,-0.5333315 z M 2.4665139,7.2666504 V 8.3333135 H 5.9040478 L 7.012417,10.108348 h -0.00421 c -0.174997,0.254165 -0.2749966,0.562494 -0.2749966,0.891667 0,0.879163 0.7208295,1.599994 1.5999944,1.599994 0.8791648,0 1.5999933,-0.720831 1.5999933,-1.599994 0,-0.879167 -0.7208285,-1.5999966 -1.5999933,-1.5999966 -0.1583355,0 -0.3125001,0.024998 -0.4583344,0.066669 L 6.4957151,7.2666931 H 2.4666099 Z m 0,3.1999876 v 1.066665 h 1.8458598 l 2.1333256,3.199987 h 1.0208281 l 0.7666641,1.579195 c -0.1499944,0.158332 -0.266666,0.345832 -0.3416629,0.554161 H 7.0206945 L 4.8873692,13.666659 H 2.4665779 v 1.066665 h 1.8458598 l 2.1333256,3.199986 h 1.4458613 c 0.225002,0.616659 0.8166583,1.066663 1.5083678,1.066663 0.8791646,0 1.5999956,-0.720829 1.5999956,-1.599993 0,-0.879165 -0.720831,-1.599995 -1.5999956,-1.599995 -0.075001,0 -0.1499942,0.0088 -0.225002,0.01663 L 8.6499899,14.73335 h 2.0416991 l 0.850002,1.470822 c -0.333334,0.295829 -0.541663,0.720828 -0.541663,1.195836 0,0.879165 0.720829,1.599993 1.599994,1.599993 0.879166,0 1.599996,-0.720828 1.599996,-1.599993 0,-0.879166 -0.72083,-1.599995 -1.599996,-1.599995 -0.02083,0 -0.03746,0 -0.05829,0.0039 l -0.616668,-1.070768 h 1.966711 l 0.854164,1.466661 c -0.333332,0.295829 -0.545835,0.724998 -0.545835,1.199995 0,0.879165 0.720833,1.599993 1.599995,1.599993 0.879164,0 1.599996,-0.720828 1.599996,-1.599993 0,-0.879165 -0.720832,-1.599995 -1.599996,-1.599995 -0.01663,0 -0.03747,0 -0.05418,0.0039 l -0.62084,-1.070618 h 1.300046 c 0.225002,0.616661 0.816659,1.066664 1.508367,1.066664 0.879165,0 1.599994,-0.720829 1.599994,-1.599993 0,-0.879167 -0.720829,-1.599995 -1.599994,-1.599995 -0.691666,0 -1.283299,0.450003 -1.508367,1.066661 H 7.020993 L 4.8876676,10.466703 h -2.42079 z m 5.8666451,0 c 0.2999989,0 0.5333314,0.233335 0.5333314,0.533332 0,0.299999 -0.2333325,0.533333 -0.5333314,0.533333 -0.2999989,0 -0.5333313,-0.233334 -0.5333313,-0.533333 0,-0.299997 0.2333324,-0.533332 0.5333313,-0.533332 z m 9.599965,3.199989 c 0.299998,0 0.533329,0.233332 0.533329,0.533331 0,0.299999 -0.233331,0.533332 -0.533329,0.533332 -0.299999,0 -0.533332,-0.233333 -0.533332,-0.533332 0,-0.299999 0.233333,-0.533331 0.533332,-0.533331 z m -8.5333023,3.199989 c 0.2999993,0 0.5333303,0.233332 0.5333303,0.533331 0,0.299999 -0.233331,0.533332 -0.5333303,0.533332 -0.299999,0 -0.5333313,-0.233333 -0.5333313,-0.533332 0,-0.299999 0.2333323,-0.533331 0.5333313,-0.533331 z m 3.1999893,0 c 0.299998,0 0.53333,0.233332 0.53333,0.533331 0,0.299999 -0.233332,0.533332 -0.53333,0.533332 -0.299998,0 -0.533333,-0.233333 -0.533333,-0.533332 0,-0.299999 0.233335,-0.533331 0.533333,-0.533331 z m 3.199988,0 c 0.299999,0 0.533331,0.233332 0.533331,0.533331 0,0.299999 -0.233332,0.533332 -0.533331,0.533332 -0.299998,0 -0.533334,-0.233333 -0.533334,-0.533332 0,-0.299999 0.233336,-0.533331 0.533334,-0.533331 z"
     fill="#dedede"
     id="path1"
     style="stroke-width:1;fill:#f2f2f2;fill-opacity:1" />
</svg>
