<?xml version="1.0" encoding="UTF-8" standalone="no"?>
<svg
   height="22"
   width="22"
   version="1.1"
   id="svg3"
   sodipodi:docname="application-certificate-symbolic.svg"
   inkscape:version="1.4.2 (unknown)"
   xmlns:inkscape="http://www.inkscape.org/namespaces/inkscape"
   xmlns:sodipodi="http://sodipodi.sourceforge.net/DTD/sodipodi-0.dtd"
   xmlns="http://www.w3.org/2000/svg"
   xmlns:svg="http://www.w3.org/2000/svg">
  <defs
     id="defs3" />
  <sodipodi:namedview
     id="namedview3"
     pagecolor="#ffffff"
     bordercolor="#000000"
     borderopacity="0.25"
     inkscape:showpageshadow="2"
     inkscape:pageopacity="0.0"
     inkscape:pagecheckerboard="0"
     inkscape:deskcolor="#d1d1d1"
     inkscape:zoom="16.705398"
     inkscape:cx="5.7466456"
     inkscape:cy="12.75037"
     inkscape:current-layer="svg3" />
  <g
     fill="#dedede"
     id="g3"
     transform="matrix(1.1428571,0,0,1.1428571,1.8571432,1.2857146)"
     style="stroke-width:0.874999">
    <path
       color="#000000"
       d="M 2.5,2 C 1.678,2 1,2.678 1,3.5 v 8 C 1,12.322 1.678,13 2.5,13 h 11 c 0.822,0 1.5,-0.678 1.5,-1.5 v -8 C 15,2.678 14.322,2 13.5,2 Z m 0,1 h 11 C 13.786,3 14,3.214 14,3.5 v 8 C 14,11.786 13.786,12 13.5,12 H 2.5 A 0.488,0.488 0 0 1 2,11.5 v -8 C 2,3.214 2.214,3 2.5,3 Z"
       font-family="sans-serif"
       font-weight="400"
       overflow="visible"
       style="line-height:normal;font-variant-ligatures:normal;font-variant-position:normal;font-variant-caps:normal;font-variant-numeric:normal;font-variant-alternates:normal;font-feature-settings:normal;text-indent:0;text-align:start;text-decoration-line:none;text-decoration-style:solid;text-decoration-color:#000000;text-transform:none;text-orientation:mixed;shape-padding:0;isolation:auto;mix-blend-mode:normal;stroke-width:0.874999"
       id="path1" />
    <path
       color="#000000"
       d="M 10.5,6 A 2.508,2.508 0 0 0 8,8.5 C 8,9.875 9.125,11 10.5,11 11.875,11 13,9.875 13,8.5 13,7.125 11.875,6 10.5,6 Z m 0,1 C 11.334,7 12,7.666 12,8.5 12,9.334 11.334,10 10.5,10 9.666,10 9,9.334 9,8.5 9,7.666 9.666,7 10.5,7 Z"
       font-family="sans-serif"
       font-weight="400"
       overflow="visible"
       style="line-height:normal;font-variant-ligatures:normal;font-variant-position:normal;font-variant-caps:normal;font-variant-numeric:normal;font-variant-alternates:normal;font-feature-settings:normal;text-indent:0;text-align:start;text-decoration-line:none;text-decoration-style:solid;text-decoration-color:#000000;text-transform:none;text-orientation:mixed;shape-padding:0;isolation:auto;mix-blend-mode:normal;stroke-width:0.874999"
       id="path2" />
    <path
       d="M 9,10 10.5,10.5 12,10 v 5 L 10.5,13.997 9,15 Z M 3,4 H 13 V 5 H 3 Z M 3,5.997 6,6 V 7 L 3,6.997 Z"
       id="path3"
       style="stroke-width:0.874999" />
  </g>
</svg>
