<?xml version="1.0" encoding="UTF-8" standalone="no"?>
<svg
   height="22"
   width="22"
   version="1.1"
   id="svg1"
   sodipodi:docname="application-x-executable-symbolic.svg"
   inkscape:version="1.4.2 (unknown)"
   xmlns:inkscape="http://www.inkscape.org/namespaces/inkscape"
   xmlns:sodipodi="http://sodipodi.sourceforge.net/DTD/sodipodi-0.dtd"
   xmlns="http://www.w3.org/2000/svg"
   xmlns:svg="http://www.w3.org/2000/svg">
  <defs
     id="defs1" />
  <sodipodi:namedview
     id="namedview1"
     pagecolor="#ffffff"
     bordercolor="#000000"
     borderopacity="0.25"
     inkscape:showpageshadow="2"
     inkscape:pageopacity="0.0"
     inkscape:pagecheckerboard="0"
     inkscape:deskcolor="#d1d1d1"
     inkscape:zoom="23.625"
     inkscape:cx="7.978836"
     inkscape:cy="9.3968254"
     inkscape:current-layer="svg1" />
  <path
     d="m 4.7142859,2.9999999 c -0.9394291,0 -1.714286,0.7748569 -1.714286,1.714286 V 17.285714 C 2.9999999,18.225141 3.7748568,19 4.7142859,19 H 17.285714 C 18.226284,19 19,18.225141 19,17.285714 V 4.7142859 c 0,-0.9394291 -0.773716,-1.714286 -1.714286,-1.714286 z m 0,1.1428571 H 17.285714 c 0.326853,0 0.571428,0.2445712 0.571428,0.5714289 V 17.285714 c 0,0.326853 -0.244575,0.571428 -0.571428,0.571428 H 4.7142859 A 0.55771424,0.55771424 0 0 1 4.142857,17.285714 V 4.7142859 c 0,-0.3268577 0.2457147,-0.5714289 0.5714289,-0.5714289 z m 5.3725711,2.2879998 v 1.3565715 l -0.2000004,0.072 A 3.8057141,3.8057141 0 0 0 9.5714279,7.9999996 L 9.3794278,8.093715 8.426285,7.142858 c 0,-0.0034 -0.011421,-0.0046 -0.01372,-0.0068 0,0.0022 -0.01372,0.0046 -0.01372,0.0068 L 7.1417119,8.3999994 c 0.01372,-0.012578 0.01372,0.03428 0,0.02286 L 8.0937138,9.3771435 7.999997,9.5714289 A 3.5085708,3.5085708 0 0 0 7.8617128,9.8834282 L 7.7874282,10.086857 H 6.4274286 v 1.826285 h 1.3599999 l 0.07428,0.203428 c 0.03314,0.09142 0.08228,0.197715 0.1371432,0.311998 l 0.09486,0.194289 -0.9508568,0.955428 c 0.01142,-0.0114 0.01142,0.0342 0,0.0228 l 1.2571422,1.256001 c -0.01372,-0.0114 0.03658,-0.0114 0.02514,0 l 0.953143,-0.950859 0.1919999,0.09378 c 0.1142858,0.0538 0.2205715,0.10624 0.3154285,0.140571 l 0.1999995,0.0708 v 1.357716 h 1.828572 v -1.357716 l 0.20343,-0.0708 c 0.09372,-0.0342 0.197713,-0.08578 0.312001,-0.140571 l 0.196571,-0.09378 0.950862,0.950859 c -0.0126,-0.0114 0.0388,-0.0114 0.0262,0 l 1.257141,-1.257146 c -0.0126,0.0126 -0.0126,-0.0342 0,-0.0228 l -0.953137,-0.954285 0.09378,-0.194289 c 0.0548,-0.114284 0.105178,-0.219426 0.137143,-0.313141 l 0.07421,-0.202285 h 1.357716 v -1.826285 h -1.357694 l -0.0732,-0.2034281 a 3.1428567,3.1428567 0 0 0 -0.138286,-0.312 l -0.09373,-0.1942856 0.953145,-0.9554285 c -0.0126,0.01142 -0.0126,-0.03428 0,-0.02286 L 13.60339,7.1428559 c 0.0126,0.01142 -0.0388,0.01142 -0.0252,0 L 12.625135,8.0937138 12.43085,7.9999994 A 3.6342851,3.6342851 0 0 0 12.116566,7.8594283 l -0.201138,-0.072 V 6.4308568 Z m 0.915428,3.0468567 c 0.837714,0 1.522283,0.6857145 1.522283,1.5222855 0,0.837714 -0.684569,1.522286 -1.522283,1.522286 -0.837714,0 -1.5245715,-0.685715 -1.5245715,-1.522286 0,-0.837714 0.6868575,-1.5222855 1.5245715,-1.5222855 z"
     fill="#dedede"
     overflow="visible"
     style="stroke-width:0.999999;marker:none;fill:#f2f2f2;fill-opacity:1"
     id="path1" />
</svg>
