<?xml version="1.0" encoding="UTF-8" standalone="no"?>
<svg
   height="22"
   width="22"
   version="1.1"
   id="svg1"
   sodipodi:docname="audio-x-generic-symbolic.svg"
   inkscape:version="1.4.2 (unknown)"
   xmlns:inkscape="http://www.inkscape.org/namespaces/inkscape"
   xmlns:sodipodi="http://sodipodi.sourceforge.net/DTD/sodipodi-0.dtd"
   xmlns="http://www.w3.org/2000/svg"
   xmlns:svg="http://www.w3.org/2000/svg">
  <defs
     id="defs1" />
  <sodipodi:namedview
     id="namedview1"
     pagecolor="#ffffff"
     bordercolor="#000000"
     borderopacity="0.25"
     inkscape:showpageshadow="2"
     inkscape:pageopacity="0.0"
     inkscape:pagecheckerboard="0"
     inkscape:deskcolor="#d1d1d1"
     inkscape:zoom="23.613194"
     inkscape:cx="9.7826663"
     inkscape:cy="12.450666"
     inkscape:current-layer="svg1" />
  <path
     d="m 16.873283,2.9959552 -7.3759997,1.906 c -0.554,0.149 -1,0.74 -1,1.313 v 9.0939998 a 2.84,2.84 0 0 0 -2.03,-0.22 c -1.35,0.351 -2.196,1.485 -1.907,2.532 0.29,1.047 1.619,1.632 2.969,1.281 1.076,-0.28 1.819,-1.071 1.937,-1.906 l 0.031,-8.5939998 6.9999997,-1.875 v 6.7809998 a 2.84,2.84 0 0 0 -2.031,-0.218 c -1.35,0.35 -2.196,1.484 -1.906,2.531 0.289,1.047 1.619,1.632 2.968,1.281 1.077,-0.28 1.82,-1.071 1.938,-1.906 l 0.03,-11.1879998 c 0,-0.43 -0.265,-0.751 -0.624,-0.812 z"
     fill="#dedede"
     overflow="visible"
     style="marker:none"
     color="#bebebe"
     id="path1" />
</svg>
