<?xml version="1.0" encoding="UTF-8" standalone="no"?>
<svg
   width="22"
   height="22"
   version="1.1"
   viewBox="0 0 22 22"
   id="svg1"
   sodipodi:docname="image-x-generic-symbolic.svg"
   inkscape:version="1.4.2 (unknown)"
   xmlns:inkscape="http://www.inkscape.org/namespaces/inkscape"
   xmlns:sodipodi="http://sodipodi.sourceforge.net/DTD/sodipodi-0.dtd"
   xmlns="http://www.w3.org/2000/svg"
   xmlns:svg="http://www.w3.org/2000/svg">
  <sodipodi:namedview
     id="namedview1"
     pagecolor="#ffffff"
     bordercolor="#000000"
     borderopacity="0.25"
     inkscape:showpageshadow="2"
     inkscape:pageopacity="0.0"
     inkscape:pagecheckerboard="0"
     inkscape:deskcolor="#d1d1d1"
     inkscape:zoom="23.625"
     inkscape:cx="18.412698"
     inkscape:cy="10.15873"
     inkscape:current-layer="svg1" />
  <defs
     id="defs1">
    <style
       id="current-color-scheme"
       type="text/css">.ColorScheme-Text { color:#dedede; } .ColorScheme-Text { color:#dedede; }</style>
  </defs>
  <path
     d="m 4.2153843,3.6500005 c -1.2528922,0 -2.2615383,1.0086462 -2.2615383,2.2615385 v 10.176924 c 0,1.252892 1.0086461,2.261537 2.2615383,2.261537 H 17.784615 c 1.252892,0 2.261539,-1.008645 2.261539,-2.261537 V 5.911539 c 0,-1.2528923 -1.008647,-2.2615385 -2.261539,-2.2615385 z m 0,1.1307692 H 17.784615 c 0.626447,0 1.13077,0.5043234 1.13077,1.1307693 V 16.088463 L 13.26154,10.434616 9.3271398,14.957695 6.4769227,12.696155 3.0846154,16.088463 V 5.911539 c 0,-0.6264459 0.504323,-1.1307693 1.1307689,-1.1307693 z m 2.8269232,2.2615384 c -0.9367631,0 -1.6961537,0.7593908 -1.6961537,1.6961539 0,0.9367632 0.7593906,1.696154 1.6961537,1.696154 0.9367633,0 1.696154,-0.7593908 1.696154,-1.696154 0,-0.9367631 -0.7593907,-1.6961539 -1.696154,-1.6961539 z"
     style="fill:currentColor;stroke-width:1"
     class="ColorScheme-Text"
     id="path1" />
</svg>
