<?xml version="1.0" encoding="UTF-8" standalone="no"?>
<svg
   width="22"
   height="22"
   version="1.1"
   id="svg1"
   sodipodi:docname="media-optical-symbolic.svg"
   inkscape:version="1.4.2 (unknown)"
   xmlns:inkscape="http://www.inkscape.org/namespaces/inkscape"
   xmlns:sodipodi="http://sodipodi.sourceforge.net/DTD/sodipodi-0.dtd"
   xmlns="http://www.w3.org/2000/svg"
   xmlns:svg="http://www.w3.org/2000/svg">
  <defs
     id="defs1" />
  <sodipodi:namedview
     id="namedview1"
     pagecolor="#ffffff"
     bordercolor="#000000"
     borderopacity="0.25"
     inkscape:showpageshadow="2"
     inkscape:pageopacity="0.0"
     inkscape:pagecheckerboard="0"
     inkscape:deskcolor="#d1d1d1"
     inkscape:zoom="23.625"
     inkscape:cx="16.846561"
     inkscape:cy="15.026455"
     inkscape:current-layer="svg1" />
  <g
     id="g1"
     transform="matrix(1.1428571,0,0,1.1428571,1.8571432,1.8571432)"
     style="stroke-width:0.875">
    <path
       d="M 8,1 C 4.16,1 1,4.16 1,8 c 0,3.84 3.16,7 7,7 3.84,0 7,-3.16 7,-7 C 15,4.16 11.84,1 8,1 Z M 8,2 A 6,6 0 0 1 14,8 6,6 0 0 1 8,14 6,6 0 0 1 2,8 6,6 0 0 1 8,2 Z"
       fill="#dedede"
       id="path1"
       style="stroke-width:0.875" />
    <circle
       cx="8"
       cy="8"
       r="3"
       fill="#dedede"
       id="circle1"
       style="stroke-width:0.875" />
  </g>
</svg>
