<?xml version="1.0" encoding="UTF-8" standalone="no"?>
<svg
   height="22"
   width="22"
   version="1.1"
   id="svg1"
   sodipodi:docname="media-video-symbolic.svg"
   inkscape:version="1.4.2 (unknown)"
   xmlns:inkscape="http://www.inkscape.org/namespaces/inkscape"
   xmlns:sodipodi="http://sodipodi.sourceforge.net/DTD/sodipodi-0.dtd"
   xmlns="http://www.w3.org/2000/svg"
   xmlns:svg="http://www.w3.org/2000/svg">
  <defs
     id="defs1" />
  <sodipodi:namedview
     id="namedview1"
     pagecolor="#ffffff"
     bordercolor="#000000"
     borderopacity="0.25"
     inkscape:showpageshadow="2"
     inkscape:pageopacity="0.0"
     inkscape:pagecheckerboard="0"
     inkscape:deskcolor="#d1d1d1"
     inkscape:zoom="23.625"
     inkscape:cx="8.4867725"
     inkscape:cy="15.619048"
     inkscape:current-layer="svg1" />
  <path
     d="M 4.3035739,3.0000026 A 0.80142835,0.79786648 0 0 0 3.5000027,3.8000024 V 18.2 c 0,0.442665 0.3589286,0.8 0.8035712,0.8 H 17.696426 c 0.445715,0 0.803571,-0.357335 0.803571,-0.8 V 3.8000024 A 0.80142835,0.79786648 0 0 0 17.696426,3.0000026 Z M 4.571431,4.0666691 H 5.6428592 V 5.1333354 H 4.571431 Z m 2.6785708,0 H 14.75 c 0.296788,0 0.535713,0.2378669 0.535713,0.5333331 v 5.3333322 c 0,0.2954666 -0.238925,0.5333336 -0.535713,0.5333336 H 7.2500018 A 0.53464271,0.53226653 0 0 1 6.7142876,9.9333344 V 4.6000022 c 0,-0.2954662 0.2389288,-0.5333331 0.5357142,-0.5333331 z m 9.1071402,0 h 1.07143 v 1.0666663 h -1.07143 z M 4.571431,6.2000019 H 5.6428592 V 7.2666682 H 4.571431 Z m 11.785711,0 h 1.07143 v 1.0666663 h -1.07143 z M 4.571431,8.3333346 H 5.6428592 V 9.4000011 H 4.571431 Z m 11.785711,0 h 1.07143 v 1.0666665 h -1.07143 z M 4.571431,10.466668 h 1.0714282 v 1.066666 H 4.571431 Z m 11.785711,0 h 1.07143 v 1.066666 h -1.07143 z M 7.2500018,11.533334 H 14.75 c 0.296788,0 0.535713,0.237867 0.535713,0.533334 V 17.4 c 0,0.295466 -0.238925,0.533331 -0.535713,0.533331 H 7.2500018 A 0.53464271,0.53226653 0 0 1 6.7142876,17.4 v -5.333332 c 0,-0.295467 0.2389288,-0.533334 0.5357142,-0.533334 z M 4.571431,12.600002 h 1.0714282 v 1.066666 H 4.571431 Z m 11.785711,0 h 1.07143 v 1.066666 h -1.07143 z M 4.571431,14.733333 H 5.6428592 V 15.8 H 4.571431 Z m 11.785711,0 h 1.07143 V 15.8 h -1.07143 z M 4.571431,16.866668 h 1.0714282 v 1.066663 H 4.571431 Z m 11.785711,0 h 1.07143 v 1.066663 h -1.07143 z"
     fill="#dedede"
     overflow="visible"
     style="stroke-width:1;marker:none;fill:#f2f2f2;fill-opacity:1"
     color="#bebebe"
     id="path1" />
</svg>
