<?xml version="1.0" encoding="UTF-8" standalone="no"?>
<svg
   height="22"
   width="22"
   version="1.1"
   id="svg1"
   sodipodi:docname="package-x-generic-symbolic.svg"
   inkscape:version="1.4.2 (unknown)"
   xmlns:inkscape="http://www.inkscape.org/namespaces/inkscape"
   xmlns:sodipodi="http://sodipodi.sourceforge.net/DTD/sodipodi-0.dtd"
   xmlns="http://www.w3.org/2000/svg"
   xmlns:svg="http://www.w3.org/2000/svg">
  <defs
     id="defs1" />
  <sodipodi:namedview
     id="namedview1"
     pagecolor="#ffffff"
     bordercolor="#000000"
     borderopacity="0.25"
     inkscape:showpageshadow="2"
     inkscape:pageopacity="0.0"
     inkscape:pagecheckerboard="0"
     inkscape:deskcolor="#d1d1d1"
     inkscape:zoom="23.625"
     inkscape:cx="8.1058201"
     inkscape:cy="8.042328"
     inkscape:current-layer="svg1" />
  <path
     color="#000000"
     d="m 3.9285726,3.3307151 c -1.0568572,0 -1.9285716,0.8717141 -1.9285716,1.9285711 V 16.830715 c 0,1.058138 0.8717144,1.92857 1.9285716,1.92857 H 18.071425 c 1.056861,0 1.928576,-0.870432 1.928576,-1.92857 V 5.2592862 c 0,-1.056857 -0.871715,-1.9285711 -1.928576,-1.9285711 z m 0,1.2857141 H 8.428572 V 11 L 9.714286,9.7142856 11,11 12.285714,10.035714 13.571429,11 V 4.6164292 h 4.499996 c 0.367715,0 0.642862,0.2764283 0.642862,0.642857 V 16.830715 c 0,0.367712 -0.275147,0.642853 -0.642862,0.642853 H 3.9285726 A 0.62742851,0.62742851 0 0 1 3.2857157,16.830715 V 5.2592862 c 0,-0.3664287 0.2751423,-0.642857 0.6428569,-0.642857 z m 5.7857134,0 h 2.571428 V 8.4285715 L 11.120858,9.3028573 9.714286,7.8962859 Z"
     fill="#dedede"
     font-family="sans-serif"
     font-weight="400"
     overflow="visible"
     style="line-height:normal;font-variant-ligatures:normal;font-variant-position:normal;font-variant-caps:normal;font-variant-numeric:normal;font-variant-alternates:normal;font-feature-settings:normal;text-indent:0;text-align:start;text-decoration-line:none;text-decoration-style:solid;text-decoration-color:#000000;text-transform:none;text-orientation:mixed;shape-padding:0;isolation:auto;mix-blend-mode:normal;stroke-width:1;fill:#f2f2f2;fill-opacity:1"
     id="path1" />
</svg>
