<?xml version="1.0" encoding="UTF-8" standalone="no"?>
<svg
   width="22"
   height="22"
   version="1.1"
   viewBox="0 0 22 22"
   id="svg3"
   sodipodi:docname="text-x-javascript-symbolic.svg"
   inkscape:version="1.4.2 (unknown)"
   xmlns:inkscape="http://www.inkscape.org/namespaces/inkscape"
   xmlns:sodipodi="http://sodipodi.sourceforge.net/DTD/sodipodi-0.dtd"
   xmlns="http://www.w3.org/2000/svg"
   xmlns:svg="http://www.w3.org/2000/svg">
  <defs
     id="defs3" />
  <sodipodi:namedview
     id="namedview3"
     pagecolor="#ffffff"
     bordercolor="#000000"
     borderopacity="0.25"
     inkscape:showpageshadow="2"
     inkscape:pageopacity="0.0"
     inkscape:pagecheckerboard="0"
     inkscape:deskcolor="#d1d1d1"
     inkscape:zoom="23.625"
     inkscape:cx="8.5714286"
     inkscape:cy="12.867725"
     inkscape:current-layer="svg3" />
  <g
     id="g3"
     transform="translate(-1.8e-6,0.0608467)">
    <path
       d="m 12.25,7.1891534 c 0,0.6913994 -0.558601,1.2499994 -1.250002,1.2499994 -0.691396,0 -1.2499976,-0.5586 -1.2499976,-1.2499994 0,-0.6914 0.5586016,-1.25 1.2499976,-1.25 0.691401,0 1.250002,0.5586 1.250002,1.25 z"
       fill="#dedede"
       stroke-width="0.8"
       id="path1"
       style="fill:#f0f0f0;fill-opacity:1" />
    <path
       d="m 9.7500004,12.189157 v 2.499996 H 10.999998 L 10.375,17.189152 h 1.250005 L 12.25,14.689153 v -2.499996 z"
       fill="#dedede"
       id="path2"
       style="stroke-width:0.999983;fill:#f0f0f0;fill-opacity:1" />
    <path
       d="m 6.0000007,3.4391536 c -1.385,0 -2.5000003,1.1150125 -2.5000003,2.4999998 v 3.7499999 l -2.4999998,1.2499997 2.4999998,1.250004 v 3.75 c 0,1.384995 1.1150126,2.499996 2.5000003,2.499996 H 7.2500003 V 17.189152 H 6.0000007 c -0.6925002,0 -1.2500002,-0.557499 -1.2500002,-1.249995 V 11.56415 l -1.2500001,-0.624997 1.2500001,-0.625 V 5.9391534 c 0,-0.6925003 0.5575,-1.2499996 1.2500002,-1.2499996 H 7.2500003 V 3.4391536 Z m 8.7499993,0 V 4.6891538 H 16 c 0.692499,0 1.250005,0.5574993 1.250005,1.2499996 v 4.3749996 l 1.249994,0.625 -1.249994,0.624997 v 4.375007 c 0,0.692496 -0.557506,1.249995 -1.250005,1.249995 h -1.25 v 1.250001 H 16 c 1.385005,0 2.499999,-1.115001 2.499999,-2.499996 v -3.75 L 21.000003,10.939153 18.499999,9.6891533 V 5.9391534 C 18.499999,4.5541538 17.385005,3.4391536 16,3.4391536 Z"
       fill="#dedede"
       fill-rule="evenodd"
       stop-color="#000000"
       id="path3"
       style="stroke-width:0.999983;fill:#f0f0f0;fill-opacity:1" />
  </g>
</svg>
