<?xml version="1.0" encoding="UTF-8" standalone="no"?>
<svg
   width="22"
   height="22"
   version="1.1"
   viewBox="0 0 22 22"
   id="svg1"
   sodipodi:docname="text-rust-symbolic.svg"
   inkscape:version="1.4.2 (unknown)"
   xmlns:inkscape="http://www.inkscape.org/namespaces/inkscape"
   xmlns:sodipodi="http://sodipodi.sourceforge.net/DTD/sodipodi-0.dtd"
   xmlns="http://www.w3.org/2000/svg"
   xmlns:svg="http://www.w3.org/2000/svg">
  <defs
     id="defs1" />
  <sodipodi:namedview
     id="namedview1"
     pagecolor="#ffffff"
     bordercolor="#000000"
     borderopacity="0.25"
     inkscape:showpageshadow="2"
     inkscape:pageopacity="0.0"
     inkscape:pagecheckerboard="0"
     inkscape:deskcolor="#d1d1d1"
     inkscape:zoom="23.625"
     inkscape:cx="17.989418"
     inkscape:cy="7.3650794"
     inkscape:current-layer="svg1" />
  <path
     d="m 10.500978,4.8846423 a 0.47563595,0.47553308 0 1 1 0.951261,0 0.47563595,0.47553308 0 0 1 -0.951261,0 M 4.8264445,9.1899147 a 0.47563595,0.47553308 0 1 1 0.9512602,0 0.47563595,0.47553308 0 0 1 -0.9512602,0 m 11.3490715,0.022001 a 0.47563595,0.47553308 0 0 1 0.951253,0 0.47563595,0.47553308 0 0 1 -0.951253,0 M 6.2027919,9.8649571 A 0.4351215,0.43503007 0 0 0 6.4233643,9.291915 L 6.212312,8.8148847 H 7.0425319 V 12.55501 H 5.3675551 A 5.8567062,5.8554489 0 0 1 5.1780113,10.319919 Z m 3.4718981,0.092 V 8.8543935 h 1.976578 c 0.102027,0 0.720197,0.1180117 0.720197,0.5800248 0,0.3840243 -0.475122,0.5220361 -0.865226,0.5220361 z M 6.9759378,15.892747 a 0.47563595,0.47553308 0 1 1 0.9512601,0 0.47563595,0.47553308 0 0 1 -0.9512601,0 m 7.0483692,0.02199 a 0.47563595,0.47553308 0 0 1 0.951255,0 0.47563595,0.47553308 0 0 1 -0.951255,0 m 0.14704,-1.078565 c -0.235064,-0.05002 -0.465132,0.09902 -0.51515,0.333532 l -0.238561,1.114065 A 5.8567062,5.8554489 0 0 1 8.5338515,16.260262 L 8.2952793,15.14622 C 8.2452631,14.911203 8.0151982,14.762194 7.7801348,14.81269 L 6.7963597,15.023695 A 5.8567062,5.8554489 0 0 1 6.2877296,14.42416 h 4.7863024 c 0.05402,0 0.09003,-0.01031 0.09003,-0.05901 v -1.692569 c 0,-0.05003 -0.03602,-0.059 -0.09003,-0.059 H 9.6736841 v -1.073074 h 1.5139479 c 0.138035,0 0.738699,0.04 0.931252,0.807042 l 0.28257,1.250061 c 0.09006,0.275018 0.456631,0.826551 0.84673,0.826551 h 2.470641 a 5.8567062,5.8554489 0 0 1 -0.542642,0.627548 z m 2.657834,-4.469274 a 5.8567062,5.8554489 0 0 1 0.01245,1.016552 h -0.600166 c -0.06002,0 -0.08505,0.04 -0.08505,0.09851 v 0.276032 c 0,0.650036 -0.366091,0.790036 -0.687188,0.826554 -0.3051,0.03496 -0.645194,-0.128029 -0.68621,-0.315035 -0.180034,-1.014054 -0.480118,-1.230055 -0.950252,-1.605142 0.588653,-0.374013 1.201259,-0.9250661 1.201259,-1.6635488 0,-0.7970427 -0.546645,-1.2990901 -0.91925,-1.5451482 C 13.592221,7.1106653 13.01356,7.0421736 12.857535,7.0421736 H 6.6384278 A 5.8567062,5.8554489 0 0 1 9.9147821,5.1934814 l 0.7326999,0.7685395 c 0.16504,0.1735096 0.440116,0.1800122 0.613167,0.013995 L 12.08088,5.1924714 a 5.8567062,5.8554489 0 0 1 4.009502,2.854639 l -0.561157,1.2670898 a 0.4351215,0.43503007 0 0 0 0.220568,0.5730419 z m 1.399437,0.02001 -0.01901,-0.196012 0.578158,-0.5390419 c 0.117532,-0.1100024 0.07353,-0.330021 -0.07653,-0.3860211 L 17.972545,8.9898135 17.914523,8.7998128 18.374649,8.1597649 c 0.09403,-0.1300118 0.0077,-0.3375326 -0.150044,-0.3635211 L 17.445391,7.6697437 17.351866,7.4947375 17.67946,6.7761978 c 0.06702,-0.1465149 -0.05751,-0.3335326 -0.218555,-0.3275214 l -0.790214,0.027501 -0.125045,-0.1515089 0.18155,-0.7700486 c 0.03651,-0.1565027 -0.12204,-0.3150175 -0.27856,-0.2785033 l -0.770222,0.1815102 -0.152033,-0.125006 0.02749,-0.7900373 c 0.006,-0.1600119 -0.181044,-0.2850183 -0.327081,-0.2185153 L 14.508602,4.6515895 14.333547,4.5575843 14.20652,3.7785306 C 14.181517,3.6205182 13.972947,3.534518 13.842907,3.6285182 L 13.202732,4.0885542 13.01268,4.0310512 12.736604,3.292511 C 12.680589,3.1424994 12.460028,3.0984991 12.350499,3.2155064 L 11.811344,3.7935428 11.615285,3.7745415 11.199181,3.1020131 c -0.08402,-0.1360114 -0.310081,-0.1360114 -0.393613,0 L 10.389464,3.7745415 10.193406,3.7935428 9.6532555,3.2145121 C 9.5432299,3.097506 9.3231628,3.1410078 9.2671513,3.2915169 L 8.9910705,4.0300568 8.8010241,4.0875599 8.1608389,3.6275241 C 8.0308044,3.5335186 7.8227347,3.6200151 7.7972376,3.7775356 L 7.6702089,4.55659 7.4951566,4.6505948 6.7769712,4.3230736 C 6.6309251,4.2565698 6.44337,4.381577 6.4498844,4.541589 L 6.4773826,5.3316258 6.3253479,5.456632 5.555128,5.2751226 C 5.3985905,5.2386213 5.2400412,5.3971348 5.2765558,5.553627 L 5.4580993,6.3236753 5.3330589,6.4751841 4.5428504,6.4476824 C 4.3828157,6.4426881 4.2577751,6.6286886 4.3242896,6.7752036 L 4.6518791,7.4937431 4.5578601,7.6687497 3.7786461,7.7952528 C 3.6206002,7.8202551 3.5345886,8.0287736 3.6286003,8.1587741 L 4.0887276,8.7988219 4.0307091,8.9888224 3.2920095,9.2648464 C 3.1419633,9.3208514 3.0979631,9.5413615 3.2154887,9.6508707 l 0.5781621,0.5390413 -0.01901,0.196013 -0.6726766,0.416024 c -0.1360465,0.084 -0.1360465,0.310024 0,0.393521 l 0.6726769,0.416025 0.01901,0.196011 -0.5796587,0.541032 c -0.1170292,0.110008 -0.073529,0.330022 0.076521,0.386022 l 0.7386997,0.276026 0.05802,0.190007 -0.4601274,0.640052 c -0.093521,0.130011 -0.0075,0.338022 0.1500463,0.36352 l 0.7787112,0.126502 0.094019,0.175011 -0.3275902,0.718035 c -0.066519,0.146008 0.059013,0.333528 0.2185608,0.327522 l 0.7902083,-0.0275 0.1250404,0.152001 -0.1815428,0.770046 c -0.036515,0.156 0.1220344,0.315017 0.2785721,0.278009 l 0.7702194,-0.181505 0.1520351,0.125004 -0.027499,0.790039 c -0.00605,0.160012 0.1810407,0.285014 0.3270869,0.218514 l 0.7181852,-0.327521 0.1750523,0.09399 0.1270286,0.778553 c 0.025007,0.158514 0.2335667,0.244008 0.3636013,0.151005 l 0.6401847,-0.461037 0.1900463,0.05802 0.2760809,0.738538 c 0.05601,0.150009 0.2765721,0.194009 0.3861042,0.0765 l 0.5391553,-0.578041 0.196058,0.01999 0.416105,0.672528 c 0.08402,0.135004 0.309087,0.136001 0.393612,0 l 0.416105,-0.672526 0.196055,-0.02001 0.53916,0.57804 c 0.110025,0.117506 0.330093,0.0735 0.386104,-0.0765 l 0.276079,-0.738538 0.190046,-0.05802 0.640185,0.461033 c 0.130035,0.0935 0.338107,0.0076 0.363606,-0.151006 l 0.127029,-0.778551 0.175049,-0.09399 0.718183,0.32752 c 0.146045,0.06649 0.333086,-0.05802 0.327091,-0.218514 l -0.0275,-0.790036 0.151547,-0.125007 0.770218,0.181507 c 0.156543,0.03651 0.315091,-0.121999 0.278576,-0.278011 l -0.181543,-0.770046 0.12504,-0.152 0.790211,0.0275 c 0.16004,0.0066 0.285073,-0.181511 0.218561,-0.327522 l -0.327579,-0.718033 0.09352,-0.175011 0.779212,-0.126504 c 0.15855,-0.025 0.245066,-0.233017 0.150049,-0.363519 l -0.460127,-0.640051 0.05804,-0.189996 0.738698,-0.276026 c 0.150049,-0.05652 0.194049,-0.276517 0.07652,-0.386023 l -0.578164,-0.538998 0.01901,-0.196013 0.672682,-0.416024 c 0.136036,-0.084 0.136551,-0.309018 0,-0.393522 z"
     fill="#dedede"
     stroke-width="1.55611"
     id="path1"
     style="fill:#f2f2f2;fill-opacity:1" />
</svg>
