<?xml version="1.0" encoding="UTF-8" standalone="no"?>
<svg
   height="22"
   width="22"
   version="1.1"
   id="svg1"
   sodipodi:docname="text-x-generic-symbolic.svg"
   inkscape:version="1.4.2 (unknown)"
   xmlns:inkscape="http://www.inkscape.org/namespaces/inkscape"
   xmlns:sodipodi="http://sodipodi.sourceforge.net/DTD/sodipodi-0.dtd"
   xmlns="http://www.w3.org/2000/svg"
   xmlns:svg="http://www.w3.org/2000/svg">
  <defs
     id="defs1" />
  <sodipodi:namedview
     id="namedview1"
     pagecolor="#ffffff"
     bordercolor="#000000"
     borderopacity="0.25"
     inkscape:showpageshadow="2"
     inkscape:pageopacity="0.0"
     inkscape:pagecheckerboard="0"
     inkscape:deskcolor="#d1d1d1"
     inkscape:zoom="23.625"
     inkscape:cx="6.9417989"
     inkscape:cy="8.4656085"
     inkscape:current-layer="svg1" />
  <path
     d="M 6,3 C 5.446,3 5,3.446 5,4 v 14 c 0,0.554 0.446,1 1,1 h 10 c 0.554,0 1,-0.446 1,-1 V 8 C 17,7.446 12.554,3 12,3 Z M 6.5,4 H 12 v 4 h 4 v 9.5 c 0,0.277 -0.223,0.5 -0.5,0.5 h -9 A 0.499,0.499 0 0 1 6,17.5 V 4.5 C 6,4.223 6.223,4 6.5,4 Z M 8,11 v 1 h 6 v -1 z m 0,2 v 1 h 6 v -1 z m 0,2 v 1 h 4 v -1 z"
     fill="#dedede"
     id="path1"
     style="fill:#f2f2f2;fill-opacity:1" />
</svg>
