<?xml version="1.0" encoding="UTF-8" standalone="no"?>
<svg
   width="22"
   height="22"
   version="1.1"
   viewBox="0 0 22 22"
   id="svg1"
   sodipodi:docname="text-css-symbolic.svg"
   inkscape:version="1.4.2 (unknown)"
   xmlns:inkscape="http://www.inkscape.org/namespaces/inkscape"
   xmlns:sodipodi="http://sodipodi.sourceforge.net/DTD/sodipodi-0.dtd"
   xmlns="http://www.w3.org/2000/svg"
   xmlns:svg="http://www.w3.org/2000/svg">
  <defs
     id="defs1" />
  <sodipodi:namedview
     id="namedview1"
     pagecolor="#ffffff"
     bordercolor="#000000"
     borderopacity="0.25"
     inkscape:showpageshadow="2"
     inkscape:pageopacity="0.0"
     inkscape:pagecheckerboard="0"
     inkscape:deskcolor="#d1d1d1"
     inkscape:zoom="16.705398"
     inkscape:cx="11.732735"
     inkscape:cy="10.77496"
     inkscape:current-layer="svg1" />
  <path
     d="m 5.6666671,3.0000001 c -1.4773332,0 -2.6666664,1.1893465 -2.6666664,2.6666665 V 9.6666664 L 0.333334,10.999999 3.0000007,12.333334 v 4 C 3.0000007,17.810665 4.1893473,19 5.6666671,19 H 7.0000005 V 17.666665 H 5.6666671 c -0.7386665,0 -1.3333334,-0.594665 -1.3333334,-1.333331 v -4.66667 l -1.333333,-0.666665 1.333333,-0.666666 V 5.6666666 c 0,-0.738667 0.5946669,-1.3333333 1.3333334,-1.3333333 H 7.0000005 V 3.0000001 Z m 9.3333319,0 v 1.3333332 h 1.333334 c 0.738668,0 1.333335,0.5946663 1.333335,1.3333333 v 4.6666664 l 1.333333,0.666666 -1.333333,0.666665 v 4.66667 c 0,0.738666 -0.594667,1.333331 -1.333335,1.333331 H 14.999999 V 19 h 1.333334 c 1.477335,0 2.666668,-1.189335 2.666668,-2.666666 v -4 L 21.666666,10.999999 19.000001,9.6666664 V 5.6666666 c 0,-1.4773333 -1.189333,-2.6666665 -2.666668,-2.6666665 z"
     fill="#dedede"
     fill-rule="evenodd"
     stop-color="#000000"
     id="path1"
     style="stroke-width:1;fill:#f2f2f2;fill-opacity:1" />
</svg>
