<?xml version="1.0" encoding="UTF-8" standalone="no"?>
<svg
   height="22"
   width="22"
   version="1.1"
   id="svg1"
   sodipodi:docname="text-calendar-symbolic.svg"
   inkscape:version="1.4.2 (unknown)"
   xmlns:inkscape="http://www.inkscape.org/namespaces/inkscape"
   xmlns:sodipodi="http://sodipodi.sourceforge.net/DTD/sodipodi-0.dtd"
   xmlns="http://www.w3.org/2000/svg"
   xmlns:svg="http://www.w3.org/2000/svg">
  <defs
     id="defs1" />
  <sodipodi:namedview
     id="namedview1"
     pagecolor="#ffffff"
     bordercolor="#000000"
     borderopacity="0.25"
     inkscape:showpageshadow="2"
     inkscape:pageopacity="0.0"
     inkscape:pagecheckerboard="0"
     inkscape:deskcolor="#d1d1d1"
     inkscape:zoom="23.625"
     inkscape:cx="9.7142857"
     inkscape:cy="12.275132"
     inkscape:current-layer="svg1" />
  <path
     color="#bebebe"
     d="m 7.9231816,3.0011102 c -0.3409112,0 -0.6153639,0.279375 -0.6153639,0.6153637 v 0.6153637 h 1.230728 V 3.6164739 c 0,-0.3409119 -0.2744523,-0.6153637 -0.6153641,-0.6153637 z m 0.6153641,1.2307274 v 0.6153637 a 0.615364,0.615364 0 1 1 -1.2307281,0 V 4.2318376 H 5.4617265 c -1.0227348,0 -1.8460915,0.8233567 -1.8460915,1.8460914 v 11.076546 c 0,1.022742 0.8233567,1.846094 1.8460915,1.846094 H 16.538274 c 1.022737,0 1.846091,-0.823352 1.846091,-1.846094 V 6.077929 c 0,-1.0227347 -0.823354,-1.8460914 -1.846091,-1.8460914 h -1.846093 v 0.6153637 a 0.61536429,0.61536429 0 1 1 -1.230724,0 V 4.2318376 Z m 4.9229113,0 h 1.230724 V 3.6164739 a 0.61536429,0.61536429 0 1 0 -1.230724,0 z M 5.4617265,9.1547482 H 16.538274 c 0.340913,0 0.615365,0.2744524 0.615365,0.6153639 v 7.3843629 c 0,0.340914 -0.274452,0.615367 -0.615365,0.615367 H 5.4617265 A 0.61413311,0.61413311 0 0 1 4.8463625,17.154475 V 9.7701121 c 0,-0.3409115 0.2744524,-0.6153639 0.615364,-0.6153639 z"
     fill="#dedede"
     overflow="visible"
     style="isolation:auto;mix-blend-mode:normal;stroke-width:1;marker:none;fill:#f2f2f2;fill-opacity:1"
     id="path1" />
</svg>
