<?xml version="1.0" encoding="UTF-8" standalone="no"?>
<svg
   width="22"
   height="22"
   version="1.1"
   viewBox="0 0 22 22"
   id="svg1"
   sodipodi:docname="text-x-authors-symbolic.svg"
   inkscape:version="1.4.2 (unknown)"
   xmlns:inkscape="http://www.inkscape.org/namespaces/inkscape"
   xmlns:sodipodi="http://sodipodi.sourceforge.net/DTD/sodipodi-0.dtd"
   xmlns="http://www.w3.org/2000/svg"
   xmlns:svg="http://www.w3.org/2000/svg">
  <defs
     id="defs1" />
  <sodipodi:namedview
     id="namedview1"
     pagecolor="#ffffff"
     bordercolor="#000000"
     borderopacity="0.25"
     inkscape:showpageshadow="2"
     inkscape:pageopacity="0.0"
     inkscape:pagecheckerboard="0"
     inkscape:deskcolor="#d1d1d1"
     inkscape:zoom="16.705398"
     inkscape:cx="7.0935156"
     inkscape:cy="15.683554"
     inkscape:current-layer="svg1" />
  <path
     d="m 7.5714283,2.9999999 c -1.2623999,0 -2.285714,1.0233483 -2.285714,2.2857144 0,1.2623655 1.0233481,2.285714 2.285714,2.285714 1.2623653,0 2.2857139,-1.0233485 2.2857139,-2.285714 0,-1.2623661 -1.0233486,-2.2857144 -2.2857139,-2.2857144 z m 0,1.1428571 c 0.6311767,0 1.1428568,0.5116799 1.1428568,1.1428573 0,0.6311766 -0.5116801,1.1428566 -1.1428568,1.1428566 -0.6311773,0 -1.1428574,-0.51168 -1.1428574,-1.1428566 0,-0.6311774 0.5116801,-1.1428573 1.1428574,-1.1428573 z m 6.8571377,1.1428573 c -1.262399,0 -2.285709,1.0233481 -2.285709,2.285714 0,1.2623653 1.023349,2.2857139 2.285709,2.2857139 1.2624,0 2.285718,-1.0233486 2.285718,-2.2857139 0,-1.2623659 -1.023349,-2.285714 -2.285718,-2.285714 z m 0,1.1428566 c 0.631179,0 1.142859,0.5116801 1.142859,1.1428574 0,0.6311767 -0.51168,1.1428568 -1.142859,1.1428568 -0.63117,0 -1.142851,-0.5116801 -1.142851,-1.1428568 0,-0.6311773 0.511681,-1.1428574 1.142851,-1.1428574 z M 6.4285709,8.7142851 c -1.8994284,0 -3.428571,1.5291429 -3.428571,3.4285719 v 3.428568 c 0,0.633142 0.5097145,1.142859 1.1428571,1.142859 H 8.7142851 V 15.571425 H 4.142857 v -3.428568 c 0,-1.266286 1.0194398,-2.2857148 2.2857139,-2.2857148 h 2.2857142 c 0.7800684,0 1.4633139,0.3889708 1.8749709,0.9821488 0.308515,-0.2212 0.643566,-0.409566 1.002229,-0.553577 C 10.963291,9.3053478 9.8785707,8.7129136 8.714228,8.7142851 H 6.4285142 Z m 6.8571441,2.2857139 c -1.89943,0 -3.4285728,1.529144 -3.4285728,3.428567 v 3.428576 C 9.8571422,18.490284 10.366857,19 10.999999,19 h 6.857143 C 18.490284,19 19,18.490284 19,17.857142 v -3.428576 c 0,-1.899423 -1.529143,-3.428567 -3.428575,-3.428567 z m 0,1.142858 h 2.28571 c 1.266289,0 2.285717,1.019428 2.285717,2.285709 v 3.428576 h -6.857143 v -3.428576 c 0,-1.266281 1.019429,-2.285709 2.285716,-2.285709 z"
     fill="#dedede"
     id="path1"
     style="stroke-width:0.999999;fill:#f2f2f2;fill-opacity:1" />
</svg>
