<?xml version="1.0" encoding="UTF-8" standalone="no"?>
<svg
   width="22"
   height="22"
   version="1.1"
   viewBox="0 0 22 22"
   id="svg1"
   sodipodi:docname="text-sql-symbolic.svg"
   inkscape:version="1.4.2 (unknown)"
   xmlns:inkscape="http://www.inkscape.org/namespaces/inkscape"
   xmlns:sodipodi="http://sodipodi.sourceforge.net/DTD/sodipodi-0.dtd"
   xmlns="http://www.w3.org/2000/svg"
   xmlns:svg="http://www.w3.org/2000/svg">
  <defs
     id="defs1" />
  <sodipodi:namedview
     id="namedview1"
     pagecolor="#ffffff"
     bordercolor="#000000"
     borderopacity="0.25"
     inkscape:showpageshadow="2"
     inkscape:pageopacity="0.0"
     inkscape:pagecheckerboard="0"
     inkscape:deskcolor="#d1d1d1"
     inkscape:zoom="23.625"
     inkscape:cx="10.328042"
     inkscape:cy="12.486772"
     inkscape:current-layer="svg1" />
  <path
     d="M 11,3 C 7.134,3 4,4.567 4,6.5 v 9 c 0,1.933 3.134,3.5 7,3.5 3.866,0 7,-1.567 7,-3.5 v -9 C 18,4.567 14.866,3 11,3 Z m 0,1 c 3.3137,0 6,1.1193 6,2.5 C 17,7.8807 14.3137,9 11,9 7.6863,9 5,7.8807 5,6.5 5,5.1193 7.6863,4 11,4 Z M 5,8.2969 C 6.2627,9.3522 8.5405,9.9988 11,10 13.4595,9.99876 15.7373,9.3522 17,8.2969 v 2.6988 c 0,1.3807 -2.6863,2.5 -6,2.5 -3.3137,0 -6,-1.1193 -6,-2.5 z m 0,4.4898 c 1.2598,1.0576 3.5381,1.7065 6,1.709 2.4572,-9e-6 4.7344,-0.64419 6,-1.6973 V 15.5 C 17,16.8807 14.3137,18 11,18 7.6863,18 5,16.8807 5,15.5 Z"
     fill="#dedede"
     fill-rule="evenodd"
     stop-color="#000000"
     id="path1"
     style="fill:#f2f2f2;fill-opacity:1" />
</svg>
