<?xml version="1.0" encoding="UTF-8" standalone="no"?>
<svg
   width="22"
   height="22"
   version="1.1"
   viewBox="0 0 22 22"
   id="svg2"
   sodipodi:docname="text-x-readme-symbolic.svg"
   inkscape:version="1.4.2 (unknown)"
   xmlns:inkscape="http://www.inkscape.org/namespaces/inkscape"
   xmlns:sodipodi="http://sodipodi.sourceforge.net/DTD/sodipodi-0.dtd"
   xmlns="http://www.w3.org/2000/svg"
   xmlns:svg="http://www.w3.org/2000/svg">
  <defs
     id="defs2" />
  <sodipodi:namedview
     id="namedview2"
     pagecolor="#ffffff"
     bordercolor="#000000"
     borderopacity="0.25"
     inkscape:showpageshadow="2"
     inkscape:pageopacity="0.0"
     inkscape:pagecheckerboard="0"
     inkscape:deskcolor="#d1d1d1"
     inkscape:zoom="23.625"
     inkscape:cx="9.7566138"
     inkscape:cy="10.497354"
     inkscape:current-layer="svg2" />
  <path
     d="m 10.5,3.005291 a 8,8 0 0 0 -8,8 8,8 0 0 0 8,8 8,8 0 0 0 8,-8 8,8 0 0 0 -8,-8 z m 0,1 a 7,7 0 0 1 7,7 7,7 0 0 1 -7,7 7,7 0 0 1 -7,-7 7,7 0 0 1 7,-7 z"
     fill="#dedede"
     fill-rule="evenodd"
     stop-color="#000000"
     id="path1"
     style="fill:#f2f2f2;fill-opacity:1" />
  <rect
     x="10"
     y="6.005291"
     width="1"
     height="1"
     rx="0"
     ry="0"
     fill="#dedede"
     fill-rule="evenodd"
     stop-color="#000000"
     id="rect1"
     style="fill:#f2f2f2;fill-opacity:1" />
  <rect
     x="10"
     y="9.005291"
     width="1"
     height="7"
     fill="#dedede"
     fill-rule="evenodd"
     stop-color="#000000"
     id="rect2"
     style="fill:#f2f2f2;fill-opacity:1" />
</svg>
