<?xml version="1.0" encoding="UTF-8" standalone="no"?>
<svg
   width="22"
   height="22"
   version="1.1"
   viewBox="0 0 22 22"
   id="svg1"
   sodipodi:docname="text-x-python-symbolic.svg"
   inkscape:version="1.4.2 (unknown)"
   xmlns:inkscape="http://www.inkscape.org/namespaces/inkscape"
   xmlns:sodipodi="http://sodipodi.sourceforge.net/DTD/sodipodi-0.dtd"
   xmlns="http://www.w3.org/2000/svg"
   xmlns:svg="http://www.w3.org/2000/svg">
  <defs
     id="defs1" />
  <sodipodi:namedview
     id="namedview1"
     pagecolor="#ffffff"
     bordercolor="#000000"
     borderopacity="0.25"
     inkscape:showpageshadow="2"
     inkscape:pageopacity="0.0"
     inkscape:pagecheckerboard="0"
     inkscape:deskcolor="#d1d1d1"
     inkscape:zoom="23.625"
     inkscape:cx="8.5079365"
     inkscape:cy="13.079365"
     inkscape:current-layer="svg1" />
  <path
     d="M 8.0264546,3 C 6.7601689,3 5.7407405,4.0194284 5.7407405,5.2857143 V 6.4285712 H 4.5978836 c -1.2662859,0 -2.2857143,1.01944 -2.2857143,2.2857141 v 4.5714297 c 0,1.266286 1.0194401,2.285711 2.2857143,2.285711 h 1.1428569 v 1.142859 C 5.7407405,17.980569 6.7601805,19 8.0264546,19 h 4.5714294 c 1.266286,0 2.285711,-1.019431 2.285711,-2.285715 v -1.142859 h 1.142859 c 1.266284,0 2.285715,-1.019425 2.285715,-2.285711 V 8.7142853 c 0,-1.2662857 -1.019431,-2.2857141 -2.285715,-2.2857141 H 14.883595 V 5.2857143 C 14.883595,4.0194284 13.86417,3 12.597884,3 Z m 1.142857,2.2857143 A 1.142857,1.142857 0 0 1 10.312169,6.4285712 1.142857,1.142857 0 0 1 9.1693116,7.5714283 1.142857,1.142857 0 0 1 8.0264546,6.4285712 1.142857,1.142857 0 0 1 9.1693116,5.2857143 Z m 5.7142834,2.285714 h 1.142859 c 0.633141,0 1.142858,0.5097143 1.142858,1.142857 v 4.5714297 c 0,0.633141 -0.509717,1.142854 -1.142858,1.142854 h -1.142859 -1.142857 v 1.142857 1.142859 c 0,0.633141 -0.509713,1.142858 -1.142854,1.142858 H 8.0264546 c -0.6331427,0 -1.142857,-0.509717 -1.142857,-1.142858 v -1.142859 -1.142857 c 0,-1.266284 1.0194285,-2.285712 2.285714,-2.285712 h 2.2857144 1.142858 c 1.266286,0 2.285711,-1.019429 2.285711,-2.2857147 z"
     fill="#dedede"
     fill-rule="evenodd"
     stop-color="#000000"
     id="path1"
     style="stroke-width:1;fill:#f2f2f2;fill-opacity:1" />
</svg>
