<?xml version="1.0" encoding="UTF-8" standalone="no"?>
<svg
   width="22"
   height="22"
   version="1.1"
   id="svg2"
   sodipodi:docname="x-office-drawing-symbolic.svg"
   inkscape:version="1.4.2 (unknown)"
   xmlns:inkscape="http://www.inkscape.org/namespaces/inkscape"
   xmlns:sodipodi="http://sodipodi.sourceforge.net/DTD/sodipodi-0.dtd"
   xmlns="http://www.w3.org/2000/svg"
   xmlns:svg="http://www.w3.org/2000/svg">
  <defs
     id="defs2" />
  <sodipodi:namedview
     id="namedview2"
     pagecolor="#ffffff"
     bordercolor="#000000"
     borderopacity="0.25"
     inkscape:showpageshadow="2"
     inkscape:pageopacity="0.0"
     inkscape:pagecheckerboard="0"
     inkscape:deskcolor="#d1d1d1"
     inkscape:zoom="23.625"
     inkscape:cx="9.0582011"
     inkscape:cy="13.079365"
     inkscape:current-layer="svg2" />
  <g
     id="g2"
     transform="translate(3,3)"
     style="fill:#f3f3f3;fill-opacity:1">
    <path
       d="M 8.568,10.33 C 8.102,10.266 7.521,10.226 7.035,10.605 6.632,10.921 6.258,11.319 5.93,11.623 5.601,11.927 5.278,12.063 5.344,12.063 H 2 v 1 h 3.344 c 0.582,0 0.901,-0.368 1.265,-0.706 0.364,-0.337 0.732,-0.72 1.043,-0.964 0.107,-0.084 0.407,-0.124 0.78,-0.073 0.372,0.052 0.705,0.18 1.1,0.18 0.146,0 0.217,0.035 0.325,0.127 0.109,0.092 0.231,0.254 0.366,0.447 0.134,0.194 0.28,0.417 0.498,0.621 0.218,0.204 0.544,0.383 0.92,0.383 H 14 v -1 h -2.36 c -0.098,0 -0.14,-0.021 -0.238,-0.113 -0.099,-0.092 -0.22,-0.262 -0.359,-0.463 -0.14,-0.201 -0.298,-0.433 -0.537,-0.637 C 10.23396,10.63258 9.88879,10.50336 9.531,10.5 9.498,10.5 9.035,10.394 8.568,10.33 Z M 6.432,5.864 C 5.572,5.864 4.864,6.571 4.864,7.432 4.864,8.292 5.572,9 6.432,9 7.292,9 8,8.292 8,7.432 8,6.572 7.292,5.864 6.432,5.864 Z m 0,0.999 c 0.32,0 0.569,0.249 0.569,0.569 C 7.001,7.752 6.751,8 6.432,8 6.11652,8.003948 5.85961,7.74748 5.863,7.432 c 0,-0.32 0.25,-0.57 0.57,-0.57 z"
       fill="#dedede"
       id="path1"
       style="fill:#f3f3f3;fill-opacity:1" />
    <path
       class="ColorScheme-Text"
       d="M 4,0 C 2.338,0 1,1.338 1,3 v 10 c 0,1.662 1.338,3 3,3 h 8 c 1.662,0 3,-1.338 3,-3 V 4 L 11,0 Z m 0,1 h 6 v 2 c 0,1.108 0.892,2 2,2 h 2 v 8 c 0,1.108 -0.892,2 -2,2 H 4 C 2.892,15 2,14.108 2,13 V 3 C 2,1.892 2.892,1 4,1 Z"
       fill="#dedede"
       id="path2"
       style="fill:#f3f3f3;fill-opacity:1" />
  </g>
</svg>
