<?xml version="1.0" encoding="UTF-8" standalone="no"?>
<svg
   width="22"
   height="22"
   version="1.1"
   id="svg2"
   sodipodi:docname="x-office-spreadsheet-symbolic.svg"
   inkscape:version="1.4.2 (unknown)"
   xmlns:inkscape="http://www.inkscape.org/namespaces/inkscape"
   xmlns:sodipodi="http://sodipodi.sourceforge.net/DTD/sodipodi-0.dtd"
   xmlns="http://www.w3.org/2000/svg"
   xmlns:svg="http://www.w3.org/2000/svg">
  <defs
     id="defs2" />
  <sodipodi:namedview
     id="namedview2"
     pagecolor="#ffffff"
     bordercolor="#000000"
     borderopacity="0.25"
     inkscape:showpageshadow="2"
     inkscape:pageopacity="0.0"
     inkscape:pagecheckerboard="0"
     inkscape:deskcolor="#d1d1d1"
     inkscape:zoom="23.625"
     inkscape:cx="6.5396825"
     inkscape:cy="13.84127"
     inkscape:current-layer="svg2" />
  <g
     id="g2"
     transform="translate(3,3)"
     style="fill:#f2f2f2;fill-opacity:1">
    <path
       d="m 4,8 v 5 h 8 V 8 Z M 5,9 H 7 V 9.996 H 5 Z m 3,0 h 3 V 9.996 H 8 Z M 5,10.996 H 7 V 12 H 5 Z m 3,0 h 3 V 12 H 8 Z"
       fill="#dedede"
       id="path1"
       style="fill:#f2f2f2;fill-opacity:1" />
    <path
       d="M 4,0 C 2.338,0 1,1.338 1,3 v 10 c 0,1.662 1.338,3 3,3 h 8 c 1.662,0 3,-1.338 3,-3 V 4 L 11,0 Z m 0,1 h 6 v 2 c 0,1.108 0.892,2 2,2 h 2 v 8 c 0,1.108 -0.892,2 -2,2 H 4 C 2.892,15 2,14.108 2,13 V 3 C 2,1.892 2.892,1 4,1 Z"
       fill="#dedede"
       id="path2"
       style="fill:#f2f2f2;fill-opacity:1" />
  </g>
</svg>
