<?xml version="1.0" encoding="UTF-8" standalone="no"?>
<svg
   width="22"
   height="22"
   version="1.1"
   id="svg2"
   sodipodi:docname="x-office-document-symbolic.svg"
   inkscape:version="1.4.2 (unknown)"
   xmlns:inkscape="http://www.inkscape.org/namespaces/inkscape"
   xmlns:sodipodi="http://sodipodi.sourceforge.net/DTD/sodipodi-0.dtd"
   xmlns="http://www.w3.org/2000/svg"
   xmlns:svg="http://www.w3.org/2000/svg">
  <defs
     id="defs2" />
  <sodipodi:namedview
     id="namedview2"
     pagecolor="#ffffff"
     bordercolor="#000000"
     borderopacity="0.25"
     inkscape:showpageshadow="2"
     inkscape:pageopacity="0.0"
     inkscape:pagecheckerboard="0"
     inkscape:deskcolor="#d1d1d1"
     inkscape:zoom="23.625"
     inkscape:cx="8.2751323"
     inkscape:cy="10.116402"
     inkscape:current-layer="svg2" />
  <g
     id="g2"
     transform="translate(3,3)"
     style="fill:#f2f2f2;fill-opacity:1">
    <g
       fill="#dedede"
       id="g1"
       style="fill:#f2f2f2;fill-opacity:1">
      <path
         d="m 6.432,6 c -0.86,0 -1.568,0.708 -1.568,1.568 0,0.86 0.708,1.569 1.568,1.569 C 7.292,9.137 8,8.429 8,7.568 8,6.708 7.292,6 6.432,6 Z m 0,1 A 0.56,0.56 0 0 1 7,7.568 C 7,7.888 6.752,8.137 6.432,8.137 A 0.56,0.56 0 0 1 5.864,7.568 0.56,0.56 0 0 1 6.432,7 Z M 9,8 v 1 h 2 V 8 Z m -4,2 v 1 h 6 v -1 z m 0,2 v 1 h 4 v -1 z"
         font-family="sans-serif"
         font-weight="400"
         overflow="visible"
         style="font-variant-ligatures:normal;font-variant-position:normal;font-variant-caps:normal;font-variant-numeric:normal;font-variant-alternates:normal;font-feature-settings:normal;text-indent:0;text-decoration-line:none;text-decoration-style:solid;text-decoration-color:#000000;text-transform:none;text-orientation:mixed;shape-padding:0;isolation:auto;mix-blend-mode:normal;fill:#f2f2f2;fill-opacity:1"
         id="path1" />
    </g>
    <path
       class="ColorScheme-Text"
       d="M 4,0 C 2.338,0 1,1.338 1,3 v 10 c 0,1.662 1.338,3 3,3 h 8 c 1.662,0 3,-1.338 3,-3 V 4 L 11,0 Z m 0,1 h 6 v 2 c 0,1.108 0.892,2 2,2 h 2 v 8 c 0,1.108 -0.892,2 -2,2 H 4 C 2.892,15 2,14.108 2,13 V 3 C 2,1.892 2.892,1 4,1 Z"
       color="#dedede"
       fill="currentColor"
       id="path2"
       style="fill:#f2f2f2;fill-opacity:1" />
  </g>
</svg>
