<?xml version="1.0" encoding="UTF-8" standalone="no"?>
<svg
   width="22"
   height="22"
   version="1.1"
   id="svg2"
   sodipodi:docname="x-office-address-book-symbolic.svg"
   inkscape:version="1.4.2 (unknown)"
   xmlns:inkscape="http://www.inkscape.org/namespaces/inkscape"
   xmlns:sodipodi="http://sodipodi.sourceforge.net/DTD/sodipodi-0.dtd"
   xmlns="http://www.w3.org/2000/svg"
   xmlns:svg="http://www.w3.org/2000/svg">
  <defs
     id="defs2" />
  <sodipodi:namedview
     id="namedview2"
     pagecolor="#ffffff"
     bordercolor="#000000"
     borderopacity="0.25"
     inkscape:showpageshadow="2"
     inkscape:pageopacity="0.0"
     inkscape:pagecheckerboard="0"
     inkscape:deskcolor="#d1d1d1"
     inkscape:zoom="16.705398"
     inkscape:cx="11.493291"
     inkscape:cy="11.313708"
     inkscape:current-layer="svg2" />
  <g
     id="g2"
     transform="translate(2.1428579,2.0000001)"
     style="fill:#f2f2f2;fill-opacity:1">
    <path
       d="M 9.4159992,5.5737139 C 8.865142,5.5371424 8.3268564,5.8594283 8.0068564,6.2937137 7.6959993,6.8559993 7.9497146,7.5257135 7.7554279,8.1188565 c -0.118857,0.4228569 0,0.8765711 0.3097144,1.1851426 0.264,0.3325712 0.5897143,0.7679999 0.4079998,1.2160009 -0.2617141,0.503998 -0.7851428,0.799998 -1.2605712,1.069715 -0.1257141,0.05023 -0.2879999,0.138283 -0.4228573,0.24343 -0.1199999,0.032 -0.2171427,0.124571 -0.2171427,0.255999 v 1.196571 c 0,0.15771 0.1257145,0.28571 0.2857144,0.28571 h 5.1428597 c 0.15779,0 0.285711,-0.127918 0.285711,-0.28571 V 11.821716 C 11.650285,11.475425 10.933715,11.142856 10.576,10.470857 10.454856,9.9428562 10.826284,9.479999 11.151998,9.1142848 11.473145,8.7051419 11.346285,8.1657134 11.234283,7.7097136 11.186283,7.2045707 11.349713,6.6057137 10.973713,6.1919994 10.565712,5.7782849 9.9771401,5.6102849 9.4148542,5.5737139 Z"
       color="#000000"
       fill="#dedede"
       id="path1"
       style="stroke-width:0.999999;fill:#f2f2f2;fill-opacity:1" />
    <path
       d="m 4.2857142,0.99999984 c -1.2662857,0 -2.2857141,1.01942826 -2.2857141,2.28571436 V 14.714284 C 2.0000001,15.980567 3.0194285,17 4.2857142,17 h 9.1428518 c 1.26629,0 2.285718,-1.019433 2.285718,-2.285716 V 3.2857142 c 0,-1.2662861 -1.019428,-2.28571436 -2.285718,-2.28571436 z m 0,1.14285706 h 9.1428518 c 0.633148,0 1.142859,0.5097144 1.142859,1.1428573 V 14.714284 c 0,0.633141 -0.509711,1.142858 -1.142859,1.142858 H 4.2857142 c -0.6331432,0 -1.1428572,-0.509717 -1.1428572,-1.142858 V 3.2857142 c 0,-0.6331429 0.509714,-1.1428573 1.1428572,-1.1428573 z"
       fill="#dedede"
       id="path2"
       style="stroke-width:0.999999;fill:#f2f2f2;fill-opacity:1" />
    <rect
       x="4.2857141"
       y="0.99999982"
       width="1.1428573"
       height="15.999996"
       rx="0"
       ry="0"
       fill="#dedede"
       id="rect2"
       style="stroke-width:0.999999;fill:#f2f2f2;fill-opacity:1" />
  </g>
</svg>
