<?xml version="1.0" encoding="UTF-8" standalone="no"?>
<svg
   height="22"
   width="22"
   version="1.1"
   id="svg1"
   sodipodi:docname="x-office-presentation-symbolic.svg"
   inkscape:version="1.4.2 (unknown)"
   xmlns:inkscape="http://www.inkscape.org/namespaces/inkscape"
   xmlns:sodipodi="http://sodipodi.sourceforge.net/DTD/sodipodi-0.dtd"
   xmlns="http://www.w3.org/2000/svg"
   xmlns:svg="http://www.w3.org/2000/svg">
  <defs
     id="defs1" />
  <sodipodi:namedview
     id="namedview1"
     pagecolor="#ffffff"
     bordercolor="#000000"
     borderopacity="0.25"
     inkscape:showpageshadow="2"
     inkscape:pageopacity="0.0"
     inkscape:pagecheckerboard="0"
     inkscape:deskcolor="#d1d1d1"
     inkscape:zoom="23.566083"
     inkscape:cx="6.2589951"
     inkscape:cy="14.512382"
     inkscape:current-layer="svg1" />
  <path
     color="#000000"
     d="m 2.9999995,3.5 v 1.0684262 h 1.0666667 v 8.5848048 c 0,0.583361 0.4853333,1.068426 1.0666665,1.068426 h 5.3333333 v 1.29814 l -2.9013332,1.970178 c -0.2773335,0.133551 -0.3754667,0.548102 -0.2005335,0.801319 0.1749335,0.252146 0.5770667,0.277789 0.8000002,0.06621 l 2.8351995,-1.935982 2.835202,1.935988 c 0.222932,0.211549 0.626132,0.185907 0.799999,-0.06621 0.174933,-0.253217 0.0757,-0.667768 -0.199467,-0.801319 l -2.9024,-1.970184 v -1.29814 h 5.333331 c 0.581334,0 1.066669,-0.485065 1.066669,-1.068426 V 4.5684262 H 19 V 3.5 Z M 5.1333327,4.5684262 H 16.866664 v 8.0131998 c 0,0.53421 -0.53333,0.53421 -0.53333,0.53421 H 5.6666662 c -0.5333335,0 -0.5333335,-0.53421 -0.5333335,-0.53421 z M 8.3333329,6.7052786 A 2.1333332,2.1368524 0 1 0 10.466666,8.8421312 H 8.3333329 Z m 3.2000001,0 V 7.7737048 H 15.8 V 6.7052786 Z m 0,2.1368526 v 1.0684263 h 3.2 V 8.8421312 Z"
     fill="#dedede"
     font-family="sans-serif"
     font-weight="400"
     overflow="visible"
     style="line-height:normal;font-variant-ligatures:normal;font-variant-position:normal;font-variant-caps:normal;font-variant-numeric:normal;font-variant-alternates:normal;font-feature-settings:normal;text-indent:0;text-align:start;text-decoration-line:none;text-decoration-style:solid;text-decoration-color:#000000;text-transform:none;text-orientation:mixed;shape-padding:0;isolation:auto;mix-blend-mode:normal;stroke-width:1;fill:#f2f2f2;fill-opacity:1"
     id="path1" />
</svg>
