<?xml version="1.0" encoding="UTF-8" standalone="no"?>
<svg
   width="22"
   height="22"
   version="1.1"
   viewBox="0 0 22 22"
   id="svg1"
   sodipodi:docname="folder-publicshare-symbolic.svg"
   inkscape:version="1.4.2 (unknown)"
   xmlns:inkscape="http://www.inkscape.org/namespaces/inkscape"
   xmlns:sodipodi="http://sodipodi.sourceforge.net/DTD/sodipodi-0.dtd"
   xmlns="http://www.w3.org/2000/svg"
   xmlns:svg="http://www.w3.org/2000/svg">
  <sodipodi:namedview
     id="namedview1"
     pagecolor="#ffffff"
     bordercolor="#000000"
     borderopacity="0.25"
     inkscape:showpageshadow="2"
     inkscape:pageopacity="0.0"
     inkscape:pagecheckerboard="0"
     inkscape:deskcolor="#d1d1d1"
     inkscape:zoom="16.705398"
     inkscape:cx="8.5900379"
     inkscape:cy="10.77496"
     inkscape:current-layer="svg1" />
  <defs
     id="defs1">
    <style
       id="current-color-scheme"
       type="text/css">.ColorScheme-Text { color:#dedede; }</style>
  </defs>
  <path
     style="fill:currentColor;stroke-width:1"
     class="ColorScheme-Text"
     d="M 11.000081,3.0000911 A 8.5333647,8.5328316 0 0 0 2.4667174,11.532922 8.5333647,8.5328316 0 0 0 6.6667327,18.869591 0.5925995,0.59255684 0 0 0 7.021369,18.989025 0.5925995,0.59255684 0 0 0 7.6139683,18.396468 0.5925995,0.59255684 0 0 0 7.3306391,17.89094 7.348187,7.3477602 0 0 1 3.6519058,11.532945 7.348187,7.3477602 0 0 1 11.000093,4.1851837 a 7.348187,7.3477602 0 0 1 7.348188,7.3477613 7.348187,7.3477602 0 0 1 -3.679695,6.356183 l 0.0017,0.0026 A 0.5925995,0.59255684 0 0 0 14.367514,18.40744 0.5925995,0.59255684 0 0 0 14.960116,19 0.5925995,0.59255684 0 0 0 15.307338,18.886121 8.5333647,8.5328316 0 0 0 19.533283,11.532832 8.5333647,8.5328316 0 0 0 10.999916,2.9999999 Z m 0,2.3702489 a 6.1630093,6.1625828 0 0 0 -6.1630081,6.162582 6.1630093,6.1625828 0 0 0 3.0352112,5.299754 0.5925995,0.59255684 0 0 0 0.051851,0.03152 0.5925995,0.59255684 0 0 0 0.284257,0.07404 0.5925995,0.59255684 0 0 0 0.5925996,-0.592559 0.5925995,0.59255684 0 0 0 -0.3194465,-0.525901 0.5925995,0.59255684 0 0 0 -0.00466,-0.0026 4.9778316,4.9775116 0 0 1 -2.4546223,-4.283962 4.9778316,4.9775116 0 0 1 4.9778311,-4.9775118 4.9778316,4.9775116 0 0 1 4.977831,4.9775118 4.9778316,4.9775116 0 0 1 -2.493554,4.306256 0.5925995,0.59255684 0 0 0 -0.297229,0.512941 0.5925995,0.59255684 0 0 0 0.592601,0.592556 0.5925995,0.59255684 0 0 0 0.2963,-0.08052 l 9.49e-4,0.0017 a 6.1630093,6.1625828 0 0 0 3.086094,-5.333062 6.1630093,6.1625828 0 0 0 -6.163012,-6.1625825 z m 0,2.6072628 a 3.5555328,3.5553197 0 0 0 -3.555532,3.5553192 3.5555328,3.5553197 0 0 0 1.7333397,3.047053 0.5925995,0.59255684 0 0 0 0.036113,0.02126 0.5925995,0.59255684 0 0 0 0.012035,0.0069 0.5925995,0.59255684 0 0 0 0.2805558,0.07037 0.5925995,0.59255684 0 0 0 0.5926005,-0.592514 0.5925995,0.59255684 0 0 0 -0.3027765,-0.515716 2.3703554,2.3702487 0 0 1 -1.1667235,-2.037873 2.3703554,2.3702487 0 0 1 2.370356,-2.3702493 2.3703554,2.3702487 0 0 1 2.370355,2.3702493 2.3703554,2.3702487 0 0 1 -1.18795,2.05078 l 9.49e-4,9.49e-4 a 0.5925995,0.59255684 0 0 0 -0.287041,0.507383 0.5925995,0.59255684 0 0 0 0.592598,0.592558 0.5925995,0.59255684 0 0 0 0.286115,-0.07404 3.5555328,3.5553197 0 0 0 0.0088,-0.0052 0.5925995,0.59255684 0 0 0 0.04814,-0.03054 3.5555328,3.5553197 0 0 0 1.724059,-3.041507 3.5555328,3.5553197 0 0 0 -3.555583,-3.5553088 z m 0,2.6072612 a 0.94815282,0.94809949 0 0 0 -0.948152,0.948101 0.94815282,0.94809949 0 0 0 0.948152,0.9481 0.94815282,0.94809949 0 0 0 0.948154,-0.9481 0.94815282,0.94809949 0 0 0 -0.948154,-0.948101 z"
     id="path1" />
</svg>
