<?xml version="1.0" encoding="UTF-8" standalone="no"?>
<svg
   width="22"
   height="22"
   version="1.1"
   viewBox="0 0 22 22"
   id="svg1"
   sodipodi:docname="folder-open-symbolic.svg"
   inkscape:version="1.4.2 (unknown)"
   xmlns:inkscape="http://www.inkscape.org/namespaces/inkscape"
   xmlns:sodipodi="http://sodipodi.sourceforge.net/DTD/sodipodi-0.dtd"
   xmlns="http://www.w3.org/2000/svg"
   xmlns:svg="http://www.w3.org/2000/svg">
  <sodipodi:namedview
     id="namedview1"
     pagecolor="#ffffff"
     bordercolor="#000000"
     borderopacity="0.25"
     inkscape:showpageshadow="2"
     inkscape:pageopacity="0.0"
     inkscape:pagecheckerboard="0"
     inkscape:deskcolor="#d1d1d1"
     inkscape:zoom="23.625"
     inkscape:cx="16.465608"
     inkscape:cy="7.5767196"
     inkscape:current-layer="svg1" />
  <defs
     id="defs1">
    <style
       id="current-color-scheme"
       type="text/css">.ColorScheme-Text { color:#dedede; }</style>
  </defs>
  <path
     d="m 4.2500004,3.6874997 c -1.2465001,0 -2.2500001,1.0034999 -2.2500001,2.2499998 V 16.062498 c 0,1.246501 1.0035,2.250002 2.2500001,2.250002 H 17.75 c 1.2465,0 2.25,-1.003501 2.25,-2.250002 V 7.0624994 C 20,5.8159995 18.9965,4.8124995 17.75,4.8124995 H 9.1674877 C 8.5151565,4.7867372 8.4871551,4.8989962 7.9985003,4.4104017 7.5104639,3.9223658 7.3089088,3.6880058 6.5,3.6874997 Z m 0,1.1249998 H 6.5 c 0.3500554,-1.7e-6 0.5853716,1.554e-4 1.1228063,0.5295374 0.5386165,0.5305612 0.7186503,0.5954625 1.1250001,0.5954625 h 9.0022516 c 0.623249,0 1.124999,0.5017497 1.124999,1.1249999 V 11.562498 H 3.1250565 V 5.9374995 c 0,-0.6232501 0.50175,-1.1249999 1.1250001,-1.1249999 z M 3.1250003,12.687498 H 18.875 v 3.375 c 0,0.623251 -0.50175,1.125001 -1.125,1.125001 H 4.2500004 c -0.6232501,0 -1.1250001,-0.50175 -1.1250001,-1.125001 z"
     style="fill:currentColor;stroke-width:0.999999"
     class="ColorScheme-Text"
     id="path1" />
</svg>
