<?xml version="1.0" encoding="UTF-8" standalone="no"?>
<svg
   width="22"
   height="22"
   version="1.1"
   id="svg1"
   sodipodi:docname="mail-inbox-symbolic.svg"
   inkscape:version="1.4.2 (unknown)"
   xmlns:inkscape="http://www.inkscape.org/namespaces/inkscape"
   xmlns:sodipodi="http://sodipodi.sourceforge.net/DTD/sodipodi-0.dtd"
   xmlns="http://www.w3.org/2000/svg"
   xmlns:svg="http://www.w3.org/2000/svg">
  <defs
     id="defs1" />
  <sodipodi:namedview
     id="namedview1"
     pagecolor="#ffffff"
     bordercolor="#000000"
     borderopacity="0.25"
     inkscape:showpageshadow="2"
     inkscape:pageopacity="0.0"
     inkscape:pagecheckerboard="0"
     inkscape:deskcolor="#d1d1d1"
     inkscape:zoom="23.625"
     inkscape:cx="8.9100529"
     inkscape:cy="10.116402"
     inkscape:current-layer="svg1" />
  <path
     d="m 10.999979,4.0666884 c -0.295467,0 -0.533334,0.2378667 -0.533334,0.5333334 V 9.7125553 L 9.1145387,8.3604485 c -0.208928,-0.208928 -0.5452372,-0.208928 -0.7541652,0 -0.208928,0.2089281 -0.208928,0.5452373 0,0.7541654 L 10.62288,11.377121 c 0.05014,0.05014 0.110123,0.08967 0.177088,0.116672 0.06176,0.02489 0.12912,0.03958 0.2,0.03958 0.07088,0 0.13824,-0.01469 0.2,-0.03958 0.06696,-0.02699 0.126933,-0.06652 0.177088,-0.116672 l 2.262507,-2.2625071 c 0.208928,-0.2089281 0.208928,-0.5452373 0,-0.7541654 -0.20893,-0.208928 -0.545238,-0.208928 -0.754166,0 L 11.533291,9.7125553 V 4.6000218 c 0,-0.2954667 -0.237867,-0.5333334 -0.533334,-0.5333334 z M 8.3333122,6.2312753 C 7.1164587,6.3753924 6.3241386,7.1345071 6.0187522,7.5333552 L 3.2187521,11.189569 c -0.1420373,0.186112 -0.218912,0.413792 -0.218752,0.647914 v 0.229163 0.533334 3.2 c 0,1.181868 0.9514667,2.133332 2.1333332,2.133332 H 16.866667 c 1.181866,0 2.131093,-0.951464 2.133333,-2.133332 v -3.2 -0.533334 -0.229163 c 1.58e-4,-0.234122 -0.07672,-0.461802 -0.21875,-0.647914 L 15.981249,7.5333552 C 15.675882,7.1345071 14.883541,6.3753817 13.666689,6.2312753 v 1.0833064 c 0.813631,0.111328 1.19936,0.5175148 1.466664,0.8666668 l 2.566617,3.3521065 h -2.343789 -0.666668 -1.02291 -0.05418 A 2.6666666,2.6666666 0 0 1 10.999956,13.66669 2.6666666,2.6666666 0 0 1 8.3916365,11.533355 H 8.0978871 7.3083084 4.2999883 L 6.8666016,8.1812485 C 7.133919,7.8320965 7.5196365,7.4259097 8.3332684,7.3145817 V 6.2312753 Z M 4.0666454,12.600022 H 7.631232 a 3.7333333,3.7333333 0 0 0 3.368747,2.133335 3.7333333,3.7333333 0 0 0 3.362453,-2.133335 h 0.0059 0.987499 2.577068 v 3.2 c 0,0.590936 -0.475733,1.066667 -1.066668,1.066667 H 5.1332908 c -0.5909334,0 -1.0666666,-0.475731 -1.0666666,-1.066667 v -3.2 z"
     fill="#dedede"
     id="path1"
     style="stroke-width:1" />
</svg>
