<?xml version="1.0" encoding="UTF-8" standalone="no"?>
<svg
   width="22"
   height="22"
   version="1.1"
   id="svg2"
   sodipodi:docname="mail-outbox-symbolic.svg"
   inkscape:version="1.4.2 (unknown)"
   xmlns:inkscape="http://www.inkscape.org/namespaces/inkscape"
   xmlns:sodipodi="http://sodipodi.sourceforge.net/DTD/sodipodi-0.dtd"
   xmlns="http://www.w3.org/2000/svg"
   xmlns:svg="http://www.w3.org/2000/svg">
  <defs
     id="defs2" />
  <sodipodi:namedview
     id="namedview2"
     pagecolor="#ffffff"
     bordercolor="#000000"
     borderopacity="0.25"
     inkscape:showpageshadow="2"
     inkscape:pageopacity="0.0"
     inkscape:pagecheckerboard="0"
     inkscape:deskcolor="#d1d1d1"
     inkscape:zoom="23.625"
     inkscape:cx="6.8148148"
     inkscape:cy="11.936508"
     inkscape:current-layer="svg2" />
  <g
     id="g2"
     transform="matrix(1.1538516,0,0,1.1538516,2.3460899,2.3461701)"
     style="stroke-width:0.866663">
    <path
       d="M 4,3.3398 C 3.42742,3.61811 3.01959,4.00245 2.8301,4.24996 l -2.625,3.4277 C 0.07194,7.85214 -1.3e-4,8.06559 2e-5,8.28508 v 0.21484 0.5 3 c 0,1.108 0.892,2 2,2 h 11 c 1.108,0 1.9979,-0.892 2,-2 v -3 -0.5 -0.21484 C 15.000168,8.06559 14.9281,7.85214 14.79494,7.67766 l -2.625,-3.4277 C 11.98044,4.00245 11.5726,3.61811 11.00004,3.3398 v 1.1309 c 0.15026,0.12507 0.27658,0.25816 0.375,0.38672 l 2.4062,3.1426 h -1.7812 -1.041 -0.88086 -0.12891 c -0.23757,1.1639 -1.2613,1.9999 -2.4492,2 -1.1864,-0.00199 -2.208,-0.83756 -2.4453,-2 H 4.92196 4.03915 1.21885 l 2.4062,-3.1426 C 3.723479,4.72886 3.8498,4.59577 4.00005,4.4707 V 3.3398 Z M 1,9 h 3.3418 c 0.57875,1.2201 1.8078,1.9984 3.1582,2 1.3503,-0.0033 2.5693,-0.78633 3.1465,-2 h 0.01172 1.3418 2 v 3 c 0,0.554 -0.446,1 -1,1 h -11 c -0.554,0 -1,-0.446 -1,-1 V 9 Z"
       fill="#dedede"
       id="path1"
       style="stroke-width:0.866663" />
    <path
       d="M 7.5,8 C 7.223,8 7,7.777 7,7.5 V 2.707 L 5.7324,3.9746 c -0.19587,0.19587 -0.51116,0.19587 -0.70703,0 -0.19587,-0.19587 -0.19587,-0.51116 0,-0.70703 l 2.1211,-2.1211 C 7.193482,1.099458 7.24971,1.0624 7.31249,1.03709 7.370394,1.013754 7.43354,0.999981 7.49999,0.999981 c 0.066453,0 0.1296,0.013774 0.1875,0.037109 0.062778,0.0253 0.119,0.062358 0.16602,0.10938 l 2.1211,2.1211 c 0.19587,0.19587 0.19587,0.51116 0,0.70703 -0.19587,0.19587 -0.51116,0.19587 -0.70703,0 L 7.99998,2.707 V 7.5 c 0,0.277 -0.223,0.5 -0.5,0.5 z"
       fill="#dedede"
       id="path2"
       style="stroke-width:0.866663" />
  </g>
</svg>
