<?xml version="1.0" encoding="UTF-8" standalone="no"?>
<svg
   width="22"
   height="22"
   version="1.1"
   id="svg2"
   sodipodi:docname="network-server-symbolic.svg"
   inkscape:version="1.4.2 (unknown)"
   xmlns:inkscape="http://www.inkscape.org/namespaces/inkscape"
   xmlns:sodipodi="http://sodipodi.sourceforge.net/DTD/sodipodi-0.dtd"
   xmlns="http://www.w3.org/2000/svg"
   xmlns:svg="http://www.w3.org/2000/svg">
  <defs
     id="defs2" />
  <sodipodi:namedview
     id="namedview2"
     pagecolor="#ffffff"
     bordercolor="#000000"
     borderopacity="0.25"
     inkscape:showpageshadow="2"
     inkscape:pageopacity="0.0"
     inkscape:pagecheckerboard="0"
     inkscape:deskcolor="#d1d1d1"
     inkscape:zoom="16.705398"
     inkscape:cx="10.355934"
     inkscape:cy="5.4473411"
     inkscape:current-layer="svg2" />
  <g
     fill="#dedede"
     id="g2"
     transform="translate(3.01172,3.00023)">
    <path
       d="M 5.0746,0 C 4.67443,0 4.27826,0.48521 3.8975,0.90104 3.51674,1.31687 2.98843,1.99724 2.98843,2.52774 v 12.293 c 0,0.6529 0.53787,1.1788 1.2056,1.1788 h 7.5885 c 0.66772,0 1.2056,-0.52592 1.2056,-1.1788 v -12.293 c 0,-0.5305 -0.52823,-1.2109 -0.90907,-1.6267 C 11.69823,0.48524 11.30206,0 10.90196,0 h -3.5546 z m 0.79899,0.65712 h 4.2293 c 0.35402,0 0.68336,0.13053 0.93481,0.41667 l 0.64541,0.75 c 0.30953,0.40389 0.39594,0.63328 0.39594,1.0556 h -8.1816 c 0,-0.42227 0.086418,-0.65166 0.39594,-1.0556 l 0.64541,-0.75 C 5.19025,0.78765 5.51959,0.65712 5.87362,0.65712 Z m -1.9762,2.8984 h 8.1816 v 11.556 h -8.1816 z"
       id="path1" />
    <rect
       x="3.8985"
       y="3.5599999"
       width="8.1815996"
       height="11.556"
       rx="0"
       ry="0"
       opacity="0.3"
       id="rect1" />
    <ellipse
       cx="7.9892998"
       cy="1.62"
       rx="1.1505001"
       ry="0.34722"
       id="ellipse1" />
    <path
       d="m 8.02,1.27 c 0,0 0.10043,-0.20624 0.33144,-0.26516 C 8.58246,0.94594 8.25101,1.37803 8.02,1.27 Z"
       fill-rule="evenodd"
       id="path2" />
  </g>
</svg>
