<?xml version="1.0" encoding="UTF-8" standalone="no"?>
<svg
   width="22"
   height="22"
   version="1.1"
   id="svg6"
   sodipodi:docname="kdeconnect-symbolic.svg"
   inkscape:version="1.4.2 (unknown)"
   xmlns:inkscape="http://www.inkscape.org/namespaces/inkscape"
   xmlns:sodipodi="http://sodipodi.sourceforge.net/DTD/sodipodi-0.dtd"
   xmlns="http://www.w3.org/2000/svg"
   xmlns:svg="http://www.w3.org/2000/svg">
  <sodipodi:namedview
     id="namedview1"
     pagecolor="#ffffff"
     bordercolor="#999999"
     borderopacity="1"
     inkscape:showpageshadow="2"
     inkscape:pageopacity="0"
     inkscape:pagecheckerboard="0"
     inkscape:deskcolor="#d1d1d1"
     inkscape:zoom="8.41899"
     inkscape:cx="19.301603"
     inkscape:cy="4.6917742"
     inkscape:window-width="1920"
     inkscape:window-height="994"
     inkscape:window-x="0"
     inkscape:window-y="0"
     inkscape:window-maximized="1"
     inkscape:current-layer="svg6"
     showgrid="false">
    <inkscape:grid
       id="grid1"
       units="px"
       originx="0"
       originy="0"
       spacingx="1"
       spacingy="1"
       empcolor="#0099e5"
       empopacity="0.30196078"
       color="#0099e5"
       opacity="0.14902"
       empspacing="5"
       dotted="false"
       gridanglex="30"
       gridanglez="30"
       visible="false" />
  </sodipodi:namedview>
  <defs
     id="defs10" />
  <namedview
     id="namedview8"
     pagecolor="#ffffff"
     bordercolor="#000000"
     borderopacity="0.25"
     inkscape:showpageshadow="2"
     inkscape:pageopacity="0.0"
     inkscape:pagecheckerboard="0"
     inkscape:deskcolor="#d1d1d1"
     showgrid="false"
     inkscape:zoom="48.3125"
     inkscape:cx="6.8926261"
     inkscape:cy="7.9896507"
     inkscape:window-width="1920"
     inkscape:window-height="1011"
     inkscape:window-x="0"
     inkscape:window-y="0"
     inkscape:window-maximized="1"
     inkscape:current-layer="svg6" />
  <style
     type="text/css"
     id="current-color-scheme">.ColorScheme-Text { color:#d3dae3; }
.ColorScheme-Background { color:#eff0f1; }
.ColorScheme-Highlight { color:#3daee9; }
.ColorScheme-ViewText { color:#31363b; }
.ColorScheme-ViewBackground { color:#fcfcfc; }
.ColorScheme-ViewHover { color:#93cee9; }
.ColorScheme-ViewFocus { color:#3daee9; }
.ColorScheme-ButtonText { color:#31363b; }
.ColorScheme-ButtonBackground { color:#eff0f1; }
.ColorScheme-ButtonHover { color:#93cee9; }
.ColorScheme-ButtonFocus { color: #3daee9; }
</style>
  <g
     id="g1">
    <rect
       x="8.6999998"
       y="3"
       width="4.6999998"
       height="1.6"
       id="rect14-0-8-3-3"
       style="fill:currentColor;fill-opacity:1;stroke-width:1.29089"
       ry="0.80000001"
       rx="0.93999916"
       class="ColorScheme-Text" />
    <path
       d="M 15.775515,3.0000037 H 6.2245031 c -0.673471,0 -1.224503,0.6 -1.224503,1.333333 V 17.666669 c 0,0.733335 0.551032,1.333335 1.224503,1.333335 h 9.5510119 c 0.673464,0 1.224485,-0.6 1.224485,-1.333335 V 4.3333367 c 0,-0.733333 -0.551021,-1.333333 -1.224485,-1.333333 z m 0.224487,14.9999993 v 0 H 6.0000021 v 0 -13.9999993 0 h 9.9999999 v 0 z"
       id="path2-7-6"
       style="fill:currentColor;fill-opacity:1;stroke-width:0.319438"
       sodipodi:nodetypes="sssssssssccccccccc"
       class="ColorScheme-Text" />
    <path
       d="m 5,15.000004 h 12 v 0 -1 H 5 v 0 z"
       id="path2653-4"
       style="fill:currentColor;fill-opacity:1;stroke-width:0.237729"
       sodipodi:nodetypes="ccccccc"
       class="ColorScheme-Text" />
    <rect
       x="8.333334"
       y="17.000019"
       width="5.3333321"
       height="1.8333333"
       id="rect14-0-8-3-36"
       style="fill:currentColor;fill-opacity:1;stroke-width:1.47196"
       ry="0.91666663"
       rx="1.0666654"
       class="ColorScheme-Text" />
    <path
       d="m 13.469957,9.7362837 -0.112718,-0.06517 c -0.134139,-0.07733 -0.214282,-0.216187 -0.214282,-0.371115 0,-0.1549271 0.08015,-0.2937821 0.214282,-0.371144 l 0.112718,-0.06517 c 0.307717,-0.177855 0.412926,-0.570427 0.235282,-0.878141 l -0.214282,-0.37115 c -0.177218,-0.307072 -0.571282,-0.412499 -0.878142,-0.235282 l -0.112717,0.06495 c -0.134145,0.07757 -0.294644,0.07757 -0.428572,0 -0.134138,-0.07756 -0.214281,-0.216202 -0.214281,-0.371131 v -0.130071 c 0,-0.354428 -0.288428,-0.642856 -0.642856,-0.642856 h -0.42857 c -0.354427,0 -0.642854,0.288427 -0.642854,0.642854 v 0.130282 c 0,0.154928 -0.08014,0.293572 -0.2142824,0.371145 -0.1341448,0.07736 -0.294427,0.07757 -0.4285718,0 L 9.3873935,7.3791097 C 9.080539,7.2018927 8.6864672,7.3073347 8.5090385,7.6143917 l -0.2142821,0.371144 c -0.1776447,0.307717 -0.07245,0.700499 0.2352896,0.878141 l 0.1129273,0.06517 c 0.1341448,0.07736 0.2142821,0.2162179 0.2142821,0.371145 0,0.154927 -0.080145,0.293782 -0.2142821,0.371144 L 8.530256,9.7363057 C 8.2225465,9.9139511 8.1173292,10.306732 8.2949739,10.614447 l 0.2142821,0.371144 c 0.1774272,0.307072 0.571499,0.4125 0.8781413,0.235282 l 0.1127173,-0.06495 c 0.1341447,-0.07778 0.2944269,-0.07735 0.4285717,0 0.1341447,0.07757 0.2142817,0.216217 0.2142817,0.371144 v 0.130072 c 0,0.354427 0.288427,0.642854 0.642854,0.642854 h 0.428572 c 0.354427,0 0.642854,-0.288427 0.642854,-0.642854 v -0.130282 c 0,-0.154927 0.08014,-0.293572 0.214282,-0.371144 0.133927,-0.07736 0.294427,-0.07757 0.428572,0 l 0.112717,0.06517 c 0.306855,0.177 0.700926,0.07155 0.878141,-0.235282 l 0.214282,-0.371144 c 0.177645,-0.307709 0.07245,-0.7004989 -0.235282,-0.8781413 z m -2.469853,0.6351433 c -0.590782,0 -1.0714267,-0.4806439 -1.0714267,-1.0714263 0,-0.590781 0.4806437,-1.071426 1.0714267,-1.071426 0.590781,0 1.071427,0.480644 1.071427,1.071426 0,0.5907824 -0.480644,1.0714263 -1.071427,1.0714263 z"
       style="fill:currentColor;fill-opacity:1;stroke-width:0.214285"
       id="path1"
       class="ColorScheme-Text" />
  </g>
</svg>
