<?xml version="1.0" encoding="UTF-8" standalone="no"?>
<!-- Created with Inkscape (http://www.inkscape.org/) -->

<svg
   width="64"
   height="64"
   viewBox="0 0 16.933333 16.933333"
   version="1.1"
   id="svg1"
   inkscape:version="1.4.2 (unknown)"
   sodipodi:docname="org.xfce.thunar.svg"
   xmlns:inkscape="http://www.inkscape.org/namespaces/inkscape"
   xmlns:sodipodi="http://sodipodi.sourceforge.net/DTD/sodipodi-0.dtd"
   xmlns="http://www.w3.org/2000/svg"
   xmlns:svg="http://www.w3.org/2000/svg">
  <sodipodi:namedview
     id="namedview1"
     pagecolor="#ffffff"
     bordercolor="#000000"
     borderopacity="0.25"
     inkscape:showpageshadow="2"
     inkscape:pageopacity="0.0"
     inkscape:pagecheckerboard="0"
     inkscape:deskcolor="#d1d1d1"
     inkscape:document-units="px"
     inkscape:zoom="12.897792"
     inkscape:cx="27.058896"
     inkscape:cy="38.805092"
     inkscape:current-layer="layer1"
     showgrid="true"
     showguides="false">
    <inkscape:grid
       id="grid1"
       units="px"
       originx="0"
       originy="0"
       spacingx="0.26458333"
       spacingy="0.26458333"
       empcolor="#0099e5"
       empopacity="0.30196078"
       color="#0099e5"
       opacity="0.14901961"
       empspacing="5"
       enabled="true"
       visible="true" />
  </sodipodi:namedview>
  <defs
     id="defs1" />
  <g
     inkscape:label="Layer 1"
     inkscape:groupmode="layer"
     id="layer1">
    <g
       id="g1">
      <rect
         x="4.2388601"
         y="1.8520832"
         style="clip-rule:evenodd;opacity:0.2;fill:#000000;fill-opacity:1;fill-rule:evenodd;stroke-width:0.264585"
         width="10.577806"
         height="13.229166"
         id="rect29"
         ry="0.79374999"
         rx="0.79375064" />
      <rect
         x="6.069252"
         y="1.5875"
         style="clip-rule:evenodd;fill:#b4cae4;fill-opacity:1;fill-rule:evenodd;stroke-width:0.264586"
         width="8.4888077"
         height="13.758333"
         id="rect30"
         ry="1.0583332"
         rx="1.0610963" />
      <path
         style="clip-rule:evenodd;opacity:0.2;fill:#000000;fill-opacity:1;fill-rule:evenodd;stroke-width:0.264587"
         d="m 3.2968711,1.3229166 h 9.3779779 c 0.457463,0 0.915849,0.4547565 0.914925,0.9260417 l -0.0038,1.9306298 v 0.7233882 c 0,0.1763808 -0.02845,0.2579736 -0.170053,0.3117151 l -0.315645,0.1198287 c -0.15671,0.059517 -0.237213,0.2082463 -0.237213,0.4213084 v 2.5010489 c 0,0.2130131 0.08056,0.3617956 0.237213,0.4213073 l 0.315641,0.1198295 c 0.1416,0.053739 0.170052,0.1353342 0.170052,0.3117153 v 0.7233873 l -0.0098,5.2481332 c -9.91e-4,0.529165 -0.656369,1.058332 -1.113832,1.058332 -6.8559806,5e-6 -6.0394979,-1e-6 -9.1654905,-1e-6 -0.4746829,0 -0.9149255,-0.454705 -0.9149255,-0.926041 V 2.2489583 c 0,-0.4712862 0.4402943,-0.9260417 0.9149255,-0.9260417 z"
         id="path30"
         sodipodi:nodetypes="ssscsccssccscsssssss" />
      <path
         style="clip-rule:evenodd;fill:#36485c;fill-rule:evenodd;stroke-width:0.264586"
         d="m 3.0321268,1.0583333 h 9.3383202 c 0.503561,0 0.957799,0.4547727 0.95384,0.9260416 l -0.01622,1.930621 0.01622,0.7233861 c 0.0039,0.1763386 -0.0464,0.2579724 -0.196597,0.3117144 l -0.334815,0.119828 c -0.166227,0.059517 -0.25162,0.2082443 -0.25162,0.4213559 v 2.5010416 c 0,0.2130121 0.08545,0.3617926 0.25162,0.4213057 l 0.334815,0.1198293 c 0.1502,0.053738 0.180379,0.1353338 0.180379,0.3117142 v 0.7233853 l 0.01622,5.3804016 c 0.0014,0.471383 -0.47692,0.926042 -0.95384,0.926042 H 3.0321268 c -0.5035079,0 -0.9154606,-0.385628 -0.9154606,-0.856961 V 1.9153476 c 0,-0.4713354 0.4120045,-0.8570143 0.9154606,-0.8570143 z"
         id="path31"
         sodipodi:nodetypes="ssscsccssccscssssss" />
    </g>
    <path
       d="m 2.8842216,9.2604165 c -0.017971,0.03558 -0.035941,0.07046 -0.05318,0.106081 0.2731913,0.152589 1.0604746,0.55008 1.4341922,0.7858735 0.4723252,0.290716 1.1107438,0.884215 1.1610083,0.983965 -0.4912647,0.860067 -0.2683432,1.621457 -0.3263817,1.702477 -0.041755,0.06758 -0.4278574,0.494084 -0.3035408,0.556946 0.1233654,0.06203 0.3195696,-0.03546 0.3492156,-0.05437 0.061674,-0.03812 0.1252963,-0.09352 0.098584,0.01729 -0.052222,0.224026 -0.2892218,0.762977 0.037882,0.648463 0.039823,-0.02317 0.5662793,-0.606356 0.6299221,-0.626398 1.0473367,0.274486 2.2187995,0.148683 2.435643,0.04677 0.1129327,0.0089 0.4325075,0.209761 0.6145959,0.306274 0.1821868,0.0955 0.6783149,0.334589 0.5313401,-0.100085 -0.04562,-0.137493 -0.371759,-0.488472 -0.3188037,-0.511393 0.1165716,-0.04679 0.4050289,0.121182 0.5160154,0.152514 0.331982,0.09352 0.376633,-0.0359 0.1670688,-0.321136 -0.2069007,-0.285359 -0.237967,-0.241388 -0.3035326,-0.372846 -0.05126,-0.106139 0,-0.223153 0.03783,-0.251686 0.06731,-0.05152 1.0585848,-0.60483 1.2909618,-0.816613 0.344334,-0.314767 0,-0.707436 -0.08448,-0.763016 -0.714197,-0.516708 -1.4475701,-0.406124 -1.4570531,-0.488154 -0.00491,-0.0935 -0.00294,-0.3635005 -0.015367,-0.4568205 -0.071102,-0.633388 -0.3622766,-0.474146 -0.4021075,-0.474146 -0.2911753,0.046073 -0.1840863,0.494185 -0.060747,0.9156065 0.00955,0.107785 -0.1014502,0.06016 -0.1670677,-0.05352 C 8.4723555,9.5888195 8.3783884,9.5994935 8.3167188,9.5813395 c -0.059772,-0.01408 -0.2703086,0.115364 -0.2666682,0.359491 0.00124,0.06975 0.083558,0.4018365 0.083558,0.5036305 C 7.9961713,10.565719 7.9893544,10.840325 7.845099,10.940414 7.4249984,11.028293 6.415537,10.731683 6.2894951,10.718447 5.8531292,10.636256 5.6624919,10.96535 5.5923225,10.886396 5.0260253,10.233988 4.1608005,9.7493885 3.7861031,9.6655115 3.640885,9.6342385 3.1505994,9.4163455 2.9740593,9.3066515 c -0.028415,-0.01786 -0.060711,-0.02915 -0.092038,-0.04573 z m 6.3135457,1.5184325 c 0.00484,-0.0065 0.010483,0 0.01597,0.0088 0.04178,0.139218 0.08817,0.271648 0.3633042,0.305104 0.03229,0.0064 -0.1527148,0.112827 -0.2797452,0.04613 -0.1158537,-0.07079 -0.1262598,-0.32742 -0.09955,-0.358792 z m 0.7134304,0.700948 c 0.02553,-0.0064 0.04373,-0.0064 0.06167,0 0.06731,0.01829 -0.4880773,0.308098 -0.5312939,0.268076 -0.02645,-0.02564 0.2959969,-0.235594 0.4706,-0.268076 z m 0.1452303,0.184022 c 0.05777,0.0055 -0.3215247,0.399732 -0.364279,0.358797 -0.03132,-0.02837 0.245757,-0.368342 0.364279,-0.358797 z"
       id="path3-3"
       style="fill:#8fbcbb;fill-opacity:1;stroke-width:0.197888" />
  </g>
</svg>
