<?xml version="1.0" encoding="UTF-8" standalone="no"?>
<svg
   width="22"
   height="22"
   viewBox="0 0 22 22"
   version="1.1"
   id="svg2"
   sodipodi:docname="virt-manager-symbolic.svg"
   inkscape:version="1.4.2 (unknown)"
   xmlns:inkscape="http://www.inkscape.org/namespaces/inkscape"
   xmlns:sodipodi="http://sodipodi.sourceforge.net/DTD/sodipodi-0.dtd"
   xmlns="http://www.w3.org/2000/svg"
   xmlns:svg="http://www.w3.org/2000/svg">
  <sodipodi:namedview
     id="namedview2"
     pagecolor="#ffffff"
     bordercolor="#000000"
     borderopacity="0.25"
     inkscape:showpageshadow="2"
     inkscape:pageopacity="0.0"
     inkscape:pagecheckerboard="0"
     inkscape:deskcolor="#d1d1d1"
     inkscape:zoom="23.78125"
     inkscape:cx="12.95138"
     inkscape:cy="13.645204"
     inkscape:current-layer="svg2"
     showgrid="true">
    <inkscape:grid
       id="grid1"
       units="px"
       originx="0"
       originy="0"
       spacingx="1"
       spacingy="1"
       empcolor="#0099e5"
       empopacity="0.30196078"
       color="#0099e5"
       opacity="0.14902"
       empspacing="5"
       enabled="true"
       visible="true" />
  </sodipodi:namedview>
  <defs
     id="defs1">
    <style
       id="current-color-scheme"
       type="text/css">
   .ColorScheme-Text { color:#dfdfdf; } .ColorScheme-Highlight { color:#4285f4; }
  </style>
  </defs>
  <g
     id="g2"
     transform="matrix(1,0,0,1.3333322,2.0625002e-8,-1.5030596)"
     style="stroke-width:0.866026">
    <path
       style="fill:currentColor;stroke-width:0.866026"
       class="ColorScheme-Text"
       d="M -4.1250006e-8,5.2522992 3.0351566,13.502306 H 5.310548 L 8.3457045,5.2522992 H 6.0683607 L 4.1718757,10.203106 2.275391,5.2522992 Z M 10.621097,5.2522992 12.517578,10.408553 13.656252,7.3147996 12.896483,5.2522992 Z m 6.068361,0 3.035159,8.2500068 H 22 L 18.964846,5.2522992 Z M 9.4824231,8.5514943 7.5859388,13.502306 h 2.2753888 l 0.7597694,-1.979921 z m 6.0683609,0 -1.896482,4.9508117 h 0.0019 2.275392 l 0.757752,-1.979921 z"
       id="path1" />
    <path
       style="opacity:0.3;fill:currentColor;stroke-width:0.866026"
       class="ColorScheme-Text"
       d="M 8.3457045,5.2522992 5.310548,13.502306 H 7.5859388 L 9.4824231,8.5514943 11.378905,13.502306 h 2.275397 l 1.896482,-4.9508117 1.898439,4.9508117 h 2.275394 L 16.689458,5.2522992 H 14.414064 L 12.517578,10.408553 10.621097,5.2522992 Z"
       id="path2" />
  </g>
</svg>
