<?xml version="1.0" encoding="UTF-8" standalone="no"?>
<svg
   width="16"
   height="16"
   version="1.1"
   viewBox="0 0 16 16"
   id="svg1"
   sodipodi:docname="folder-torrent.svg"
   inkscape:version="1.4.2 (unknown)"
   xmlns:inkscape="http://www.inkscape.org/namespaces/inkscape"
   xmlns:sodipodi="http://sodipodi.sourceforge.net/DTD/sodipodi-0.dtd"
   xmlns="http://www.w3.org/2000/svg"
   xmlns:svg="http://www.w3.org/2000/svg">
  <sodipodi:namedview
     id="namedview1"
     pagecolor="#ffffff"
     bordercolor="#000000"
     borderopacity="0.25"
     inkscape:showpageshadow="2"
     inkscape:pageopacity="0.0"
     inkscape:pagecheckerboard="0"
     inkscape:deskcolor="#d1d1d1"
     inkscape:zoom="47.5625"
     inkscape:cx="7.9894875"
     inkscape:cy="8"
     inkscape:current-layer="svg1" />
  <defs
     id="defs1">
    <style
       id="current-color-scheme"
       type="text/css">
   .ColorScheme-Text { color:#727272; } .ColorScheme-Highlight { color:#5294e2; }
  </style>
  </defs>
  <path
     style="fill:currentColor;stroke-width:0.99998"
     class="ColorScheme-Text"
     d="M 8.0000009,2 A 6.0000004,6.0000004 0 0 0 2.0000005,8.0000004 6.0000004,6.0000004 0 0 0 8.0000009,14 6.0000004,6.0000004 0 0 0 11.958011,12.5 H 8.0000009 A 4.5000005,4.5000005 0 0 1 3.5000008,8.0000004 4.5000005,4.5000005 0 0 1 8.0000009,3.5000003 v 0.75 A 3.7500004,3.7500004 0 0 0 4.2500008,8.0000004 3.7500004,3.7500004 0 0 0 8.0000009,11.750001 h 2.4814441 2.195801 A 6.0000004,6.0000004 0 0 0 13.189941,11 H 8.0000009 C 6.3431462,11 5.0000007,9.656855 5.0000007,8.0000004 c 0,-1.6568547 1.3431455,-3.0000002 3.0000002,-3.0000002 0.2531391,9.277e-4 0.5051427,0.033924 0.7499999,0.098145 V 5.8818364 C 8.5093076,5.7956014 8.2556763,5.7510503 8.0000009,5.7500006 c -1.2426408,0 -2.25,1.0073592 -2.25,2.25 0,1.2426404 1.0073592,2.2500004 2.25,2.2500004 H 13.557616 A 6.0000004,6.0000004 0 0 0 13.800782,9.5000006 H 8.0000009 A 1.5000003,1.5000003 0 0 1 6.500001,8.0000004 1.5000003,1.5000003 0 0 1 8.0000009,6.5000005 1.5000003,1.5000003 0 0 1 9.2978528,7.2500003 H 8.0000009 A 0.75000004,0.75000004 0 0 0 7.2500008,8.0000004 0.75000004,0.75000004 0 0 0 8.0000009,8.7500003 H 13.947263 A 6.0000004,6.0000004 0 0 0 14,8.0000004 6.0000004,6.0000004 0 0 0 7.9999971,2 Z"
     id="path1" />
</svg>
